<?xml version="1.0" encoding="UTF-8" standalone="no"?>
<!-- Created with Inkscape (http://www.inkscape.org/) -->

<svg
   xmlns:svg="http://www.w3.org/2000/svg"
   xmlns="http://www.w3.org/2000/svg"
   xmlns:xlink="http://www.w3.org/1999/xlink"
   version="1.0"
   width="128"
   height="128"
   id="svg11300"
   style="display:inline;enable-background:new">
  <title
     id="title2897">Candy Icon Theme</title>
  <defs
     id="defs3">
    <linearGradient
       id="linearGradient3642">
      <stop
         id="stop3644"
         style="stop-color:#ffffff;stop-opacity:1"
         offset="0" />
      <stop
         id="stop3646"
         style="stop-color:#ffffff;stop-opacity:0"
         offset="1" />
    </linearGradient>
    <linearGradient
       id="linearGradient3632">
      <stop
         id="stop3634"
         style="stop-color:#000000;stop-opacity:0"
         offset="0" />
      <stop
         id="stop3636"
         style="stop-color:#000000;stop-opacity:1"
         offset="1" />
    </linearGradient>
    <linearGradient
       id="linearGradient3635">
      <stop
         id="stop3637"
         style="stop-color:#c8c8c8;stop-opacity:1"
         offset="0" />
      <stop
         id="stop3639"
         style="stop-color:#a5a5a5;stop-opacity:1"
         offset="1" />
    </linearGradient>
    <linearGradient
       id="linearGradient3619">
      <stop
         id="stop3621"
         style="stop-color:#fafafa;stop-opacity:1"
         offset="0" />
      <stop
         id="stop3623"
         style="stop-color:#e1e1e1;stop-opacity:1"
         offset="1" />
    </linearGradient>
    <linearGradient
       x1="170.13911"
       y1="37.395508"
       x2="170.13911"
       y2="39.217434"
       id="linearGradient3372"
       xlink:href="#linearGradient3703"
       gradientUnits="userSpaceOnUse" />
    <radialGradient
       cx="171.35582"
       cy="36.923706"
       r="3.6441751"
       fx="171.35582"
       fy="36.923706"
       id="radialGradient3366"
       xlink:href="#linearGradient3693"
       gradientUnits="userSpaceOnUse"
       gradientTransform="matrix(1,0,0,0.86357734,0,5.3004259)" />
    <linearGradient
       x1="171.63333"
       y1="35.566666"
       x2="171.63333"
       y2="49.433331"
       id="linearGradient3364"
       xlink:href="#linearGradient3665"
       gradientUnits="userSpaceOnUse" />
    <linearGradient
       x1="170.5"
       y1="35.566666"
       x2="170.5"
       y2="49.433331"
       id="linearGradient3362"
       xlink:href="#linearGradient3657"
       gradientUnits="userSpaceOnUse" />
    <linearGradient
       id="linearGradient3693">
      <stop
         id="stop3695"
         style="stop-color:#000000;stop-opacity:0"
         offset="0" />
      <stop
         id="stop3697"
         style="stop-color:#000000;stop-opacity:1"
         offset="1" />
    </linearGradient>
    <linearGradient
       id="linearGradient3703">
      <stop
         id="stop3705-5"
         style="stop-color:#ffffff;stop-opacity:1"
         offset="0" />
      <stop
         id="stop3707"
         style="stop-color:#ffffff;stop-opacity:0"
         offset="1" />
    </linearGradient>
    <linearGradient
       id="linearGradient3657">
      <stop
         id="stop3659-8"
         style="stop-color:#c5e774;stop-opacity:1"
         offset="0" />
      <stop
         id="stop3661"
         style="stop-color:#56ad58;stop-opacity:1"
         offset="1" />
    </linearGradient>
    <linearGradient
       id="linearGradient3665">
      <stop
         id="stop3667"
         style="stop-color:#abd24e;stop-opacity:1"
         offset="0" />
      <stop
         id="stop3669"
         style="stop-color:#4d7b4f;stop-opacity:1"
         offset="1" />
    </linearGradient>
    <linearGradient
       x1="155"
       y1="15"
       x2="155"
       y2="49"
       id="linearGradient3788"
       xlink:href="#linearGradient3619"
       gradientUnits="userSpaceOnUse"
       gradientTransform="matrix(2.5111112,0,0,2.5294117,-329.75557,0.82353147)" />
    <linearGradient
       x1="160"
       y1="15"
       x2="160"
       y2="49"
       id="linearGradient3790"
       xlink:href="#linearGradient3635"
       gradientUnits="userSpaceOnUse"
       gradientTransform="matrix(2.5111112,0,0,2.5294117,-329.75557,0.82353147)" />
    <filter
       x="-0.062142856"
       y="-1.74"
       width="1.1242857"
       height="4.48"
       color-interpolation-filters="sRGB"
       id="filter3797">
      <feGaussianBlur
         id="feGaussianBlur3799"
         stdDeviation="2.9" />
    </filter>
    <radialGradient
       cx="67"
       cy="27.431149"
       r="57"
       fx="67"
       fy="27.431149"
       id="radialGradient3814"
       xlink:href="#linearGradient3632"
       gradientUnits="userSpaceOnUse"
       gradientTransform="matrix(1.5438596,4.0233419e-8,-2.4433048e-8,1.2285714,-36.438595,6.2988757)" />
    <radialGradient
       cx="67"
       cy="27.431149"
       r="57"
       fx="67"
       fy="27.431149"
       id="radialGradient3818"
       xlink:href="#linearGradient3642"
       gradientUnits="userSpaceOnUse"
       gradientTransform="matrix(1.5438596,4.0233419e-8,-2.4433048e-8,1.2285714,-36.438595,6.2988757)" />
  </defs>
  <g
     transform="translate(-3,-4)"
     id="layer1"
     style="display:inline">
    <g
       id="layer6"
       style="display:none" />
    <path
       d="m 13,120 c -1.108,0 -2,0.892 -2,2 0,1.108 0.892,2 2,2 l 18,0 c 1.108,0 2,-0.892 2,-2 0,-1.108 -0.892,-2 -2,-2 l -18,0 z m 32,0 c -1.108,0 -2,0.892 -2,2 0,1.108 0.892,2 2,2 l 44,0 c 1.108,0 2,-0.892 2,-2 0,-1.108 -0.892,-2 -2,-2 l -44,0 z m 58,0 c -1.108,0 -2,0.892 -2,2 0,1.108 0.892,2 2,2 l 18,0 c 1.108,0 2,-0.892 2,-2 0,-1.108 -0.892,-2 -2,-2 l -18,0 z"
       id="rect4081"
       style="opacity:0.8;fill:#000000;fill-opacity:1;stroke:none;filter:url(#filter3797)" />
    <g
       id="g3749" />
    <g
       transform="translate(2,0.99800941)"
       id="g3203" />
    <g
       id="g3820">
      <path
         d="M 15.53125,37.5 C 12.748939,37.5 10.5,39.759912 10.5,42.5625 l 0,75.875 c 0,2.80258 2.248939,5.0625 5.03125,5.0625 l 14.96875,0 c 2.625,0.0312 2.65625,-2.96875 0,-3 -2.77,0 -5,-1.784 -5,-4 0,-2.216 2.23,-4 5,-4 l 15,0 c 2.77,0 5,1.784 5,4 0,2.216 -2.23,4 -5,4 -2.65625,0.0312 -2.625,3.0312 0,3 l 43,0 c 2.625,0.0312 2.65625,-2.96875 0,-3 -2.77,0 -5,-1.784 -5,-4 0,-2.216 2.23,-4 5,-4 l 15,0 c 2.77,0 5,1.784 5,4 0,2.216 -2.23,4 -5,4 -2.65625,0.0312 -2.625,3.0312 0,3 l 14.96875,0 c 2.7823,0 5.03125,-2.25992 5.03125,-5.0625 l 0,-75.875 c 0,-2.802588 -2.24895,-5.0625 -5.03125,-5.0625 l -102.9375,0 z"
         id="path2926"
         style="fill:url(#linearGradient3788);fill-opacity:1;stroke:url(#linearGradient3790);stroke-width:0.99999994;stroke-linejoin:round;stroke-opacity:1" />
      <path
         d="m 20,104 0,1 3,0 0,-1 -3,0 z m 5,0 0,1 3,0 0,-1 -3,0 z m 5,0 0,1 5,0 0,-1 -5,0 z m 7,0 0,1 5,0 0,-1 -5,0 z m 7,0 0,1 3,0 0,-1 -3,0 z m 5,0 0,1 3,0 0,-1 -3,0 z m 5,0 0,1 5,0 0,-1 -5,0 z m 7,0 0,1 3,0 0,-1 -3,0 z m 5,0 0,1 3,0 0,-1 -3,0 z m 9,0 0,1 5,0 0,-1 -5,0 z m 7,0 0,1 3,0 0,-1 -3,0 z m 5,0 0,1 3,0 0,-1 -3,0 z m 8,0 0,1 3,0 0,-1 -3,0 z m 5,0 0,1 5,0 0,-1 -5,0 z m 7,0 0,1 3,0 0,-1 -3,0 z m 5,0 0,1 3,0 0,-1 -3,0 z"
         id="path3801"
         style="opacity:0.5;fill:#ffffff;fill-opacity:1;stroke:none" />
      <rect
         width="37"
         height="42"
         rx="2"
         ry="2"
         x="20"
         y="47"
         id="rect2928"
         style="fill:#aaaaaa;fill-opacity:1;stroke:none" />
      <path
         d="m 38.34375,51 c -1.089749,-0.0071 -2.036226,0.253201 -2.6875,0.71875 -0.840271,0.60063 -1.23417,0.632827 -1.46875,0.21875 -0.224466,-0.396161 -0.427248,-0.312141 -0.625,0.25 -0.16724,0.475404 -0.507685,0.635605 -0.90625,0.46875 -0.37999,-0.159092 -0.556717,-0.109268 -0.40625,0.15625 0.144547,0.255188 0.06206,0.46875 -0.15625,0.46875 -0.2183,0 -0.907505,0.861821 -1.53125,1.84375 -0.994313,1.565283 -1.156522,2.240716 -1.15625,5.53125 1.47e-4,2.064554 0.200103,4.057614 -0.375,4.1875 -0.337267,0.07619 -0.254577,1.546567 -0.09375,3.03125 0.21016,1.941488 0.532901,2.889639 1.40625,3.78125 1.360293,1.388728 2.53125,3.756969 2.53125,5.0625 0,1.865624 -4.284181,5.301804 -10.40625,8.25 L 20,86.0625 20,87 c 0,1.108 0.892,2 2,2 L 22.46875,89 55,89 c 1.108,0 2,-0.892 2,-2 l 0,-1.40625 -2.25,-1.03125 c -5.227113,-2.373357 -9.78125,-6.024513 -9.78125,-7.84375 0,-1.302377 1.203565,-3.675165 2.5625,-5.0625 0.873348,-0.891611 1.227439,-1.839762 1.4375,-3.78125 0.16058,-1.484683 0.201834,-2.912769 -0.125,-3.03125 -0.450388,-0.163248 -0.46875,-2.139874 -0.46875,-4.1875 0,-2.935095 -0.147779,-3.990263 -0.84375,-5.21875 C 46.14639,52.993002 41.613045,51.021083 38.34375,51 z"
         id="path2930"
         style="opacity:0.7;fill:#000000;fill-opacity:1;fill-rule:evenodd;stroke:none;stroke-width:1.00213277;marker:none;visibility:visible;display:inline;overflow:visible;enable-background:accumulate" />
      <path
         d="m 20,97 0,7 3,0 0,-7 -3,0 z m 5,0 0,7 3,0 0,-7 -3,0 z m 5,0 0,7 5,0 0,-7 -5,0 z m 7,0 0,7 5,0 0,-7 -5,0 z m 7,0 0,7 3,0 0,-7 -3,0 z m 5,0 0,7 3,0 0,-7 -3,0 z m 5,0 0,7 5,0 0,-7 -5,0 z m 7,0 0,7 3,0 0,-7 -3,0 z m 5,0 0,7 3,0 0,-7 -3,0 z m 9,0 0,7 5,0 0,-7 -5,0 z m 7,0 0,7 3,0 0,-7 -3,0 z m 5,0 0,7 3,0 0,-7 -3,0 z m 8,0 0,7 3,0 0,-7 -3,0 z m 5,0 0,7 5,0 0,-7 -5,0 z m 7,0 0,7 3,0 0,-7 -3,0 z m 5,0 0,7 3,0 0,-7 -3,0 z"
         id="rect2932"
         style="opacity:0.7;fill:#000000;fill-opacity:1;stroke:none" />
      <path
         d="m 90.4375,85 c -0.28525,3e-6 -0.553185,0.05087 -0.8125,0.15625 -0.259319,0.105389 -0.502929,0.258746 -0.6875,0.4375 -0.184573,0.177425 -0.327673,0.38088 -0.4375,0.625 -0.108304,0.24279 -0.15625,0.484535 -0.15625,0.75 0,0.265467 0.04795,0.537128 0.15625,0.78125 0.109827,0.242789 0.252927,0.447578 0.4375,0.625 0.184571,0.177422 0.428181,0.332114 0.6875,0.4375 0.259315,0.106721 0.52725,0.156249 0.8125,0.15625 0.205925,0 0.391654,-0.04573 0.5625,-0.09375 0.170841,-0.04802 0.354301,-0.12404 0.53125,-0.21875 l -0.1875,-0.25 c -0.151017,0.08004 -0.297167,0.14748 -0.4375,0.1875 -0.138813,0.04135 -0.299434,0.0625 -0.46875,0.0625 -0.228811,0 -0.444223,-0.03829 -0.65625,-0.125 -0.210506,-0.08671 -0.406912,-0.226926 -0.5625,-0.375 -0.154066,-0.146741 -0.28196,-0.29323 -0.375,-0.5 -0.09304,-0.208104 -0.125,-0.456717 -0.125,-0.6875 0,-0.229447 0.03195,-0.418229 0.125,-0.625 0.09305,-0.208103 0.220934,-0.415758 0.375,-0.5625 0.155588,-0.148072 0.351994,-0.25703 0.5625,-0.34375 0.212027,-0.08804 0.427439,-0.124997 0.65625,-0.125 0.22728,3e-6 0.445743,0.03963 0.65625,0.125 0.212026,0.08405 0.406907,0.199679 0.5625,0.34375 0.155585,0.142739 0.2507,0.328484 0.34375,0.53125 0.09304,0.201436 0.156245,0.402223 0.15625,0.625 -1e-5,0.141405 -0.0038,0.266946 -0.03125,0.375 -0.02746,0.108054 -0.08077,0.19131 -0.125,0.25 -0.04425,0.0587 -0.07771,0.09565 -0.125,0.125 -0.04577,0.02801 -0.11049,0.0625 -0.15625,0.0625 -0.0839,0 -0.13944,-0.07087 -0.21875,-0.15625 -0.07932,-0.08671 -0.125003,-0.19701 -0.125,-0.34375 -1e-5,-0.09738 0.02437,-0.19054 0.0625,-0.28125 l 0.28125,-1.03125 -0.375,0 -0.09375,0.25 c -0.167796,-0.188092 -0.394627,-0.281248 -0.6875,-0.28125 -0.236438,2e-6 -0.461744,0.05944 -0.6875,0.1875 -0.224234,0.126733 -0.390915,0.291897 -0.53125,0.5 -0.140334,0.208106 -0.218751,0.43614 -0.21875,0.65625 -10e-7,0.232117 0.08678,0.413093 0.25,0.5625 0.163215,0.149413 0.364156,0.21875 0.625,0.21875 0.198299,0 0.377926,-0.03829 0.5625,-0.125 0.186096,-0.08671 0.361187,-0.201012 0.5,-0.34375 0.05796,0.142738 0.131016,0.25571 0.25,0.34375 0.120503,0.08805 0.256757,0.15625 0.40625,0.15625 0.06711,0 0.15163,-0.01124 0.21875,-0.03125 0.06864,-0.02135 0.14705,-0.07164 0.21875,-0.125 0.07169,-0.05469 0.13411,-0.13737 0.1875,-0.21875 0.05491,-0.08137 0.09143,-0.181767 0.125,-0.3125 0.03507,-0.132065 0.0625,-0.272083 0.0625,-0.4375 -4e-6,-0.260129 -0.07768,-0.512546 -0.1875,-0.75 -0.109832,-0.238785 -0.251407,-0.451578 -0.4375,-0.625 C 91.720148,85.387747 91.507788,85.25897 91.25,85.15625 90.993732,85.052201 90.719695,85.000003 90.4375,85 z m -4.0625,0.03125 0,3 0.375,0 0,-3 -0.375,0 z m 16.625,0 0,3 0.375,0 0,-3 -0.375,0 z M 69.03125,85.3125 c -0.07322,0 -0.13564,0.01981 -0.1875,0.0625 -0.05034,0.04269 -0.09375,0.09488 -0.09375,0.15625 0,0.06004 0.04342,0.1149 0.09375,0.15625 0.05034,0.04135 0.11275,0.0625 0.1875,0.0625 0.07169,0 0.13717,-0.02115 0.1875,-0.0625 0.05186,-0.04135 0.0625,-0.09622 0.0625,-0.15625 0,-0.06136 -0.01064,-0.11356 -0.0625,-0.15625 -0.05034,-0.04268 -0.11581,-0.0625 -0.1875,-0.0625 z m 18.53125,0 c -0.07322,0 -0.13564,0.01981 -0.1875,0.0625 -0.05034,0.04269 -0.0625,0.09488 -0.0625,0.15625 0,0.06004 0.01217,0.1149 0.0625,0.15625 0.05034,0.04135 0.11275,0.0625 0.1875,0.0625 0.07169,0 0.13716,-0.02115 0.1875,-0.0625 0.05186,-0.04135 0.09375,-0.09622 0.09375,-0.15625 0,-0.06136 -0.04189,-0.11356 -0.09375,-0.15625 -0.05034,-0.04268 -0.11581,-0.0625 -0.1875,-0.0625 z m 14.625,0 c -0.0732,0 -0.1356,0.01981 -0.1875,0.0625 -0.0503,0.04269 -0.0625,0.09488 -0.0625,0.15625 0,0.06004 0.0122,0.1149 0.0625,0.15625 0.0503,0.04135 0.1127,0.0625 0.1875,0.0625 0.0717,0 0.1372,-0.02115 0.1875,-0.0625 0.0519,-0.04135 0.0937,-0.09622 0.0937,-0.15625 0,-0.06136 -0.0418,-0.11356 -0.0937,-0.15625 -0.0503,-0.04268 -0.1158,-0.0625 -0.1875,-0.0625 z M 62.625,85.34375 c -0.07322,0 -0.13564,0.02115 -0.1875,0.0625 -0.05033,0.04136 -0.09375,0.06363 -0.09375,0.125 0,0.06004 0.04342,0.11356 0.09375,0.15625 0.05186,0.04269 0.11428,0.0625 0.1875,0.0625 0.07169,0 0.13717,-0.01981 0.1875,-0.0625 0.05034,-0.04269 0.0625,-0.09622 0.0625,-0.15625 0,-0.06003 -0.01217,-0.08365 -0.0625,-0.125 -0.05034,-0.04268 -0.1158,-0.0625 -0.1875,-0.0625 z m 8.09375,0.59375 c -0.0961,0 -0.19125,0.03582 -0.28125,0.0625 -0.09,0.02535 -0.16231,0.03182 -0.21875,0.0625 -0.05491,0.03069 -0.09828,0.07431 -0.15625,0.125 -0.05643,0.05069 -0.10517,0.10366 -0.125,0.125 -0.01831,0.02135 -0.03504,0.05774 -0.0625,0.09375 l 0.28125,0.15625 c 0,-0.0013 0.01752,-0.01524 0.03125,-0.03125 0.01373,-0.01601 0.02365,-0.02325 0.03125,-0.03125 0.0076,-0.0093 0.01294,-0.04382 0.03125,-0.0625 0.01829,-0.02 0.04724,-0.02058 0.0625,-0.03125 0.01678,-0.012 0.03962,-0.04515 0.0625,-0.0625 0.02441,-0.01734 0.0381,-0.02058 0.0625,-0.03125 0.0244,-0.01067 0.06477,-0.02058 0.09375,-0.03125 0.02898,-0.01068 0.06019,-0.02595 0.09375,-0.03125 0.03355,-0.0053 0.05714,10e-7 0.09375,0 0.147961,10e-7 0.288794,0.05887 0.40625,0.15625 0.118975,0.09738 0.1974,0.208251 0.21875,0.375 -0.07932,0 -0.16993,0.02995 -0.21875,0.03125 -0.04881,0 -0.09446,-0.004 -0.1875,0 -0.09305,0.004 -0.18594,-0.008 -0.25,0 -0.06254,0.0067 -0.13028,0.01524 -0.21875,0.03125 -0.08695,0.01601 -0.15773,0.04116 -0.21875,0.0625 -0.05949,0.02135 -0.12191,0.05907 -0.1875,0.09375 -0.0656,0.03335 -0.11659,0.08098 -0.15625,0.125 -0.03966,0.04269 -0.09907,0.06497 -0.125,0.125 -0.02594,0.0587 -0.03125,0.14671 -0.03125,0.21875 0,0.06937 0.03199,0.11947 0.0625,0.1875 0.03203,0.0667 0.06398,0.1288 0.125,0.1875 0.06254,0.05869 0.144745,0.12024 0.25,0.15625 0.105251,0.03601 0.240764,0.0625 0.375,0.0625 0.283721,0 0.543287,-0.104395 0.78125,-0.3125 -0.0076,0.08404 0.01064,0.179866 0.0625,0.28125 l 0.40625,0 C 71.78352,87.98189 71.73858,87.90321 71.71875,87.8125 71.6989,87.72046 71.6875,87.62196 71.6875,87.53125 l 0,-0.65625 C 71.6844,86.734931 71.65019,86.584809 71.59375,86.46875 71.53731,86.351359 71.46652,86.26221 71.375,86.1875 71.285,86.11146 71.178429,86.04135 71.0625,86 70.948095,85.95865 70.842305,85.9375 70.71875,85.9375 z m 29.65625,0 c -0.0961,0 -0.19125,0.03582 -0.28125,0.0625 -0.09,0.02535 -0.16231,0.03182 -0.21875,0.0625 -0.05491,0.03069 -0.09828,0.07431 -0.15625,0.125 -0.05643,0.05069 -0.10517,0.10366 -0.125,0.125 -0.01831,0.02135 -0.03504,0.05774 -0.0625,0.09375 l 0.3125,0.15625 c 0,-0.0013 -0.01373,-0.01524 0,-0.03125 C 99.85748,86.51524 99.8674,86.508 99.875,86.5 c 0.0076,-0.0093 0.01294,-0.04382 0.03125,-0.0625 0.01829,-0.02 0.04725,-0.02058 0.0625,-0.03125 0.01678,-0.012 0.0396,-0.04515 0.0625,-0.0625 0.0244,-0.01734 0.0381,-0.02058 0.0625,-0.03125 0.0244,-0.01067 0.0648,-0.02058 0.0937,-0.03125 0.029,-0.01068 0.0601,-0.02595 0.0937,-0.03125 0.0336,-0.0053 0.0571,10e-7 0.0937,0 0.14796,10e-7 0.28879,0.05887 0.40625,0.15625 0.119,0.09738 0.19735,0.208251 0.21875,0.375 -0.0793,0 -0.1387,0.02995 -0.1875,0.03125 -0.0488,0 -0.12575,-0.004 -0.21875,0 -0.0931,0.004 -0.1859,-0.008 -0.25,0 -0.0625,0.0067 -0.13025,0.01524 -0.21875,0.03125 -0.087,0.01601 -0.15773,0.04116 -0.21875,0.0625 -0.05949,0.02135 -0.12191,0.05907 -0.1875,0.09375 -0.0656,0.03335 -0.11659,0.08098 -0.15625,0.125 -0.03966,0.04269 -0.06782,0.06497 -0.09375,0.125 -0.02594,0.0587 -0.0625,0.14671 -0.0625,0.21875 0,0.06937 0.03199,0.11947 0.0625,0.1875 0.03203,0.0667 0.06398,0.1288 0.125,0.1875 0.06254,0.05869 0.144746,0.12024 0.25,0.15625 0.105253,0.03601 0.24076,0.0625 0.375,0.0625 0.28372,0 0.54329,-0.104395 0.78125,-0.3125 -0.008,0.08404 0.0106,0.179866 0.0625,0.28125 l 0.40625,0 c -0.029,-0.04936 -0.0739,-0.12804 -0.0937,-0.21875 -0.0198,-0.09204 0,-0.19054 0,-0.28125 l 0,-0.65625 c -0.003,-0.140069 -0.0374,-0.290191 -0.0937,-0.40625 -0.0564,-0.117391 -0.12725,-0.20654 -0.21875,-0.28125 -0.09,-0.07604 -0.19658,-0.14615 -0.3125,-0.1875 -0.11441,-0.04135 -0.25144,-0.0625 -0.375,-0.0625 z m -35.78125,0.03125 c -0.225759,2e-6 -0.432802,0.03162 -0.625,0.125 -0.190674,0.09205 -0.357397,0.213587 -0.46875,0.375 -0.11135,0.160081 -0.15625,0.341822 -0.15625,0.53125 0,0.189428 0.0449,0.37117 0.15625,0.53125 0.111353,0.160081 0.278076,0.28162 0.46875,0.375 0.192198,0.09205 0.399241,0.125 0.625,0.125 0.22423,0 0.434324,-0.03295 0.625,-0.125 0.190671,-0.09338 0.326144,-0.214919 0.4375,-0.375 C 65.7676,87.37117 65.812498,87.189428 65.8125,87 c -2e-6,-0.189428 -0.0449,-0.371169 -0.15625,-0.53125 -0.111356,-0.161413 -0.246829,-0.28295 -0.4375,-0.375 -0.190676,-0.09338 -0.40077,-0.124998 -0.625,-0.125 z m 2.84375,0 c -0.118981,2e-6 -0.246868,0.04229 -0.375,0.125 -0.128134,0.08271 -0.2568,0.166528 -0.34375,0.28125 0,-0.100048 0.0076,-0.17472 0,-0.21875 C 66.71265,86.11223 66.71343,86.07337 66.6875,86 l -0.40625,0 c 0.03051,0.04536 0.04419,0.123272 0.0625,0.25 0.01985,0.125398 0.03125,0.241034 0.03125,0.34375 l 0,1.4375 0.34375,0 0,-1.03125 c 0,-0.08271 0.05636,-0.196441 0.125,-0.3125 0.06864,-0.117391 0.14017,-0.19187 0.25,-0.28125 0.109827,-0.09071 0.21335,-0.156248 0.3125,-0.15625 0.07932,0 0.16231,0.02915 0.21875,0.0625 0.05643,0.03202 0.09601,0.07031 0.125,0.125 0.02897,0.05336 0.0503,0.10022 0.0625,0.15625 0.0138,0.05603 0.03125,0.12614 0.03125,0.1875 l 0,1.25 0.34375,0 0,-1.25 c 0,-0.109386 -7.4e-4,-0.21645 -0.03125,-0.3125 -0.03051,-0.09738 -0.09523,-0.17262 -0.15625,-0.25 -0.06102,-0.07737 -0.118073,-0.14347 -0.21875,-0.1875 -0.100678,-0.04535 -0.215619,-0.0625 -0.34375,-0.0625 z m 5.96875,0 c -0.118981,2e-6 -0.246868,0.04229 -0.375,0.125 -0.128134,0.08271 -0.22555,0.166528 -0.3125,0.28125 0,-0.100048 -0.02365,-0.17472 -0.03125,-0.21875 C 72.6814,86.11223 72.68218,86.07337 72.65625,86 L 72.25,86 c 0.03051,0.04536 0.04419,0.123272 0.0625,0.25 0.01985,0.125398 0.03125,0.241034 0.03125,0.34375 l 0,1.4375 0.375,0 0,-1.03125 c 0,-0.08271 0.02511,-0.196441 0.09375,-0.3125 0.06864,-0.117391 0.171421,-0.19187 0.28125,-0.28125 0.109828,-0.09071 0.21335,-0.156248 0.3125,-0.15625 0.07932,0 0.13106,0.02915 0.1875,0.0625 0.05643,0.03202 0.09601,0.07031 0.125,0.125 0.02897,0.05336 0.0503,0.10022 0.0625,0.15625 0.0138,0.05603 0.03125,0.12614 0.03125,0.1875 l 0,1.25 0.34375,0 0,-1.25 c 0,-0.109386 -7.4e-4,-0.21645 -0.03125,-0.3125 -0.03051,-0.09738 -0.06398,-0.17262 -0.125,-0.25 -0.06102,-0.07737 -0.149323,-0.14347 -0.25,-0.1875 -0.100678,-0.04535 -0.215618,-0.0625 -0.34375,-0.0625 z m 3.75,0 c -0.207453,2e-6 -0.421382,0.02895 -0.59375,0.125 -0.17237,0.09472 -0.27738,0.246171 -0.375,0.40625 -0.09611,0.158747 -0.15625,0.314574 -0.15625,0.5 0,0.185427 0.06015,0.371169 0.15625,0.53125 0.09762,0.158746 0.20263,0.27895 0.375,0.375 0.172368,0.09471 0.386297,0.15625 0.59375,0.15625 0.134233,0 0.267438,-0.03372 0.40625,-0.09375 0.140334,-0.06136 0.24918,-0.15128 0.34375,-0.25 l 0,0.25 c -2e-6,0.208104 -0.06621,0.355928 -0.21875,0.5 -0.151015,0.144068 -0.326848,0.21875 -0.53125,0.21875 -0.08237,0 -0.17374,-0.0046 -0.25,-0.03125 -0.07474,-0.02534 -0.11507,-0.03582 -0.15625,-0.0625 -0.03966,-0.02667 -0.10286,-0.08098 -0.15625,-0.125 l -0.25,0.21875 c 0.117454,0.09738 0.221718,0.16272 0.34375,0.21875 C 76.811055,88.96361 76.982354,89 77.15625,89 c 0.205926,-10e-7 0.388604,-0.0602 0.5625,-0.15625 0.175419,-0.09605 0.3071,-0.213587 0.40625,-0.375 0.09916,-0.160081 0.156248,-0.315908 0.15625,-0.5 l 0,-1.375 c 0,-0.289476 0.02511,-0.483027 0.09375,-0.59375 l -0.40625,0 c -0.04118,0.116059 -0.0625,0.21912 -0.0625,0.3125 -0.09763,-0.100049 -0.204941,-0.1873 -0.34375,-0.25 -0.138812,-0.06403 -0.273541,-0.09375 -0.40625,-0.09375 z m 7.53125,0 c -0.205929,10e-7 -0.388606,0.02895 -0.5625,0.125 -0.173895,0.09605 -0.3071,0.246172 -0.40625,0.40625 -0.09915,0.158748 -0.15625,0.314575 -0.15625,0.5 0,0.186761 0.06015,0.371171 0.15625,0.53125 0.09762,0.158747 0.23388,0.28029 0.40625,0.375 0.172368,0.09471 0.355046,0.125 0.5625,0.125 0.05644,0 0.12953,0.0066 0.1875,0 0.05949,-0.0067 0.10513,-0.0072 0.1875,-0.03125 0.08237,-0.02402 0.17525,-0.05506 0.25,-0.09375 0.07474,-0.03869 0.13943,-0.11813 0.21875,-0.1875 C 85.61057,87.64805 85.6905,87.59205 85.75,87.5 l -0.3125,-0.15625 c -0.08847,0.130732 -0.182843,0.21322 -0.3125,0.28125 -0.12966,0.0667 -0.286487,0.125 -0.4375,0.125 -0.1922,0 -0.352038,-0.06077 -0.5,-0.1875 -0.147964,-0.128063 -0.23169,-0.307904 -0.25,-0.5 l 1.90625,0 -0.03125,-0.15625 C 85.79572,86.732832 85.75693,86.582907 85.65625,86.4375 85.555571,86.290761 85.416266,86.18046 85.25,86.09375 c -0.166269,-0.08671 -0.365726,-0.124999 -0.5625,-0.125 z m 9.40625,0 c -0.207453,2e-6 -0.390132,0.02895 -0.5625,0.125 -0.17237,0.09472 -0.30862,0.246171 -0.40625,0.40625 -0.0961,0.158747 -0.15625,0.314574 -0.15625,0.5 0,0.185427 0.06015,0.371169 0.15625,0.53125 0.09762,0.158746 0.23388,0.27895 0.40625,0.375 0.172368,0.09471 0.355047,0.15625 0.5625,0.15625 0.134233,0 0.267438,-0.03372 0.40625,-0.09375 0.140334,-0.06136 0.24918,-0.15128 0.34375,-0.25 l 0,0.25 c -2e-6,0.208104 -0.06621,0.355928 -0.21875,0.5 -0.151015,0.144068 -0.326848,0.21875 -0.53125,0.21875 -0.08237,0 -0.17374,-0.0046 -0.25,-0.03125 -0.07474,-0.02534 -0.11507,-0.03582 -0.15625,-0.0625 -0.03966,-0.02667 -0.10286,-0.08098 -0.15625,-0.125 l -0.25,0.21875 c 0.117454,0.09738 0.252968,0.16272 0.375,0.21875 C 93.779805,88.96361 93.919855,89 94.09375,89 c 0.205927,-10e-7 0.388604,-0.0602 0.5625,-0.15625 0.175419,-0.09605 0.3071,-0.213587 0.40625,-0.375 0.09916,-0.160081 0.156248,-0.315908 0.15625,-0.5 l 0,-1.375 c 0,-0.289476 0.02511,-0.483027 0.09375,-0.59375 l -0.40625,0 c -0.04117,0.116059 -0.0625,0.21912 -0.0625,0.3125 -0.09763,-0.100049 -0.204941,-0.1873 -0.34375,-0.25 -0.138812,-0.06403 -0.273542,-0.09375 -0.40625,-0.09375 z m 2.78125,0 c -0.115932,2e-6 -0.256021,0.04363 -0.375,0.125 -0.117456,0.08004 -0.211083,0.163859 -0.28125,0.28125 -10e-7,-0.09871 0.0076,-0.176061 0,-0.21875 C 96.21265,86.11223 96.1837,86.078708 96.15625,86 L 95.75,86 c 0.03051,0.04803 0.07544,0.124606 0.09375,0.25 0.01983,0.124063 0.03125,0.241034 0.03125,0.34375 l 0,1.4375 0.34375,0 0,-1.03125 c -10e-7,-0.09205 0.02816,-0.193773 0.09375,-0.3125 0.06559,-0.118725 0.155425,-0.22979 0.25,-0.3125 0.09457,-0.08404 0.17373,-0.124998 0.25,-0.125 0.06711,2e-6 0.138686,0.02915 0.1875,0.0625 0.05033,0.03202 0.06934,0.0703 0.09375,0.125 0.02593,0.05336 0.05183,0.100223 0.0625,0.15625 0.01069,0.05602 0.03125,0.126137 0.03125,0.1875 l 0,1.25 0.34375,0 0,-1.03125 c -10e-7,-0.08671 0.03121,-0.196441 0.09375,-0.3125 0.06406,-0.11739 0.153898,-0.195872 0.25,-0.28125 0.09762,-0.08671 0.198876,-0.124998 0.28125,-0.125 0.06711,2e-6 0.107434,-0.0021 0.15625,0.03125 0.0488,0.03202 0.100592,0.07031 0.125,0.125 0.0244,0.05336 0.02058,0.131474 0.03125,0.1875 0.0122,0.05603 0.03124,0.09489 0.03125,0.15625 l 0,1.25 0.34375,0 0,-1.25 c -3e-6,-0.08404 0.01687,-0.172626 0,-0.25 C 98.82849,86.45255 98.7866,86.383203 98.75,86.3125 98.71339,86.24047 98.678386,86.177027 98.625,86.125 98.57161,86.07298 98.487092,86.030682 98.40625,86 c -0.08085,-0.03201 -0.152378,-0.03125 -0.25,-0.03125 -0.114407,2e-6 -0.227823,0.04629 -0.34375,0.125 C 97.698093,86.17245 97.585419,86.253607 97.5,86.375 97.44966,86.246937 97.388026,86.137206 97.28125,86.0625 97.174467,85.98646 97.038215,85.96875 96.875,85.96875 z m 9.46875,0 c -0.20745,2e-6 -0.39014,0.02895 -0.5625,0.125 -0.17237,0.09605 -0.30865,0.246171 -0.40625,0.40625 -0.0961,0.158748 -0.15625,0.314575 -0.15625,0.5 0,0.18676 0.0601,0.371171 0.15625,0.53125 0.0976,0.158747 0.23388,0.28029 0.40625,0.375 0.17236,0.09471 0.35505,0.125 0.5625,0.125 0.41643,0 0.75441,-0.160397 1,-0.53125 l -0.3125,-0.15625 c -0.0229,0.03469 -0.0503,0.04516 -0.0625,0.0625 -0.0123,0.01735 -0.048,0.07698 -0.0937,0.125 -0.0442,0.04668 -0.0808,0.06707 -0.125,0.09375 -0.0442,0.02668 -0.1143,0.06974 -0.1875,0.09375 -0.0732,0.024 -0.13795,0.03125 -0.21875,0.03125 -0.2044,0 -0.37718,-0.07468 -0.53125,-0.21875 -0.15251,-0.144073 -0.25,-0.324478 -0.25,-0.53125 0,-0.206768 0.099,-0.391178 0.25,-0.53125 0.15254,-0.140075 0.3238,-0.187498 0.53125,-0.1875 0.0778,1e-5 0.15015,0.0099 0.21875,0.03125 0.0686,0.02002 0.11205,0.03448 0.15625,0.0625 0.0457,0.02668 0.11355,0.05106 0.15625,0.09375 0.0442,0.04269 0.0755,0.06841 0.0937,0.09375 0.0197,0.02402 0.0396,0.05774 0.0625,0.09375 L 107.34375,86.5 c -0.0229,-0.03201 -0.0525,-0.04915 -0.0625,-0.0625 -0.009,-0.01334 -0.0228,-0.04706 -0.0625,-0.09375 -0.0381,-0.04668 -0.0618,-0.06707 -0.0937,-0.09375 -0.0321,-0.02668 -0.0969,-0.0524 -0.15625,-0.09375 -0.058,-0.04135 -0.0982,-0.10232 -0.15625,-0.125 -0.0564,-0.02401 -0.13795,-0.0139 -0.21875,-0.03125 -0.0808,-0.01862 -0.1646,-0.03125 -0.25,-0.03125 z m 2.65625,0 c -0.22576,2e-6 -0.4328,0.03162 -0.625,0.125 -0.19067,0.09205 -0.32614,0.213587 -0.4375,0.375 -0.11133,0.160081 -0.15625,0.341822 -0.15625,0.53125 0,0.189428 0.0449,0.37117 0.15625,0.53125 0.11136,0.160081 0.24683,0.28162 0.4375,0.375 0.1922,0.09205 0.39924,0.125 0.625,0.125 0.22423,0 0.43432,-0.03295 0.625,-0.125 0.19067,-0.09338 0.35739,-0.214919 0.46875,-0.375 0.11133,-0.16008 0.15624,-0.341822 0.15625,-0.53125 -1e-5,-0.189428 -0.0449,-0.371169 -0.15625,-0.53125 -0.11136,-0.161413 -0.27808,-0.28295 -0.46875,-0.375 -0.19068,-0.09338 -0.40077,-0.124998 -0.625,-0.125 z m 2.8125,0 c -0.11593,2e-6 -0.22478,0.04363 -0.34375,0.125 -0.11746,0.08004 -0.21108,0.163859 -0.28125,0.28125 0,-0.09871 -0.0238,-0.176061 -0.0312,-0.21875 -0.006,-0.04402 -0.004,-0.07754 -0.0312,-0.15625 l -0.40625,0 c 0.0305,0.04803 0.0441,0.124606 0.0625,0.25 0.0198,0.124063 0.0312,0.241034 0.0312,0.34375 l 0,1.4375 0.375,0 0,-1.03125 c 0,-0.09205 0.0281,-0.193773 0.0937,-0.3125 0.0656,-0.118725 0.12418,-0.22979 0.21875,-0.3125 0.0945,-0.08404 0.20499,-0.124998 0.28125,-0.125 0.0672,2e-6 0.10743,0.02915 0.15625,0.0625 0.0504,0.03202 0.10058,0.0703 0.125,0.125 0.026,0.05336 0.0207,0.100223 0.0312,0.15625 0.0107,0.05602 0.0312,0.126137 0.0312,0.1875 l 0,1.25 0.34375,0 0,-1.03125 c 0,-0.08671 0.0624,-0.196441 0.125,-0.3125 0.0641,-0.11739 0.12265,-0.195872 0.21875,-0.28125 0.0976,-0.08671 0.19888,-0.124998 0.28125,-0.125 0.0671,2e-6 0.10744,-0.0021 0.15625,0.03125 0.0488,0.03202 0.10057,0.07031 0.125,0.125 0.0244,0.05336 0.0518,0.131474 0.0625,0.1875 0.0122,0.05603 0,0.09489 0,0.15625 l 0,1.25 0.375,0 0,-1.25 c -1e-5,-0.08404 -0.0152,-0.172626 -0.0312,-0.25 -0.0153,-0.0787 -0.0572,-0.148047 -0.0937,-0.21875 -0.0366,-0.07203 -0.0716,-0.135473 -0.125,-0.1875 -0.0534,-0.05202 -0.10666,-0.09432 -0.1875,-0.125 -0.0808,-0.03201 -0.18363,-0.03125 -0.28125,-0.03125 -0.11441,2e-6 -0.22783,0.04629 -0.34375,0.125 -0.11441,0.0787 -0.22707,0.159857 -0.3125,0.28125 -0.0504,-0.128063 -0.11197,-0.237794 -0.21875,-0.3125 -0.10682,-0.07604 -0.24303,-0.09375 -0.40625,-0.09375 z M 62.4375,86 l 0,1.9375 c -10e-7,0.10672 -0.05025,0.20788 -0.125,0.28125 -0.07322,0.07337 -0.15695,0.09375 -0.25,0.09375 l -0.0625,0 0,0.28125 0.0625,0 c 0.204402,0 0.392439,-0.0581 0.53125,-0.1875 0.140334,-0.129398 0.218749,-0.291328 0.21875,-0.46875 l 0,-1.9375 -0.375,0 z m 6.40625,0 0,2.03125 0.34375,0 0,-2.03125 -0.34375,0 z m 10.0625,0 0,1.21875 c 0,0.225447 0.107355,0.432336 0.28125,0.59375 0.17542,0.161422 0.371783,0.25 0.625,0.25 0.253213,0 0.482353,-0.08858 0.65625,-0.25 0.17541,-0.161414 0.249997,-0.368303 0.25,-0.59375 l 0,-1.21875 -0.34375,0 0,1.21875 c -2e-6,0.146741 -0.07767,0.274951 -0.1875,0.375 -0.108304,0.09871 -0.225513,0.15625 -0.375,0.15625 -0.146438,0 -0.271275,-0.05753 -0.375,-0.15625 -0.10373,-0.09872 -0.156251,-0.226926 -0.15625,-0.375 l 0,-1.21875 -0.375,0 z m 2.1875,0 1.125,2.0625 L 83.3125,86 82.90625,86 82.1875,87.28125 81.5,86 81.09375,86 z m 6.28125,0 0,2.03125 0.375,0 0,-2.03125 -0.375,0 z m 14.625,0 0,2.03125 0.375,0 0,-2.03125 -0.375,0 z m -11.40625,0.21875 c 0.158638,10e-7 0.28499,0.03563 0.375,0.125 0.09152,0.08938 0.124997,0.229595 0.125,0.375 -1.1e-5,0.125398 -0.02664,0.248271 -0.09375,0.375 -0.0656,0.125397 -0.146274,0.21912 -0.25,0.3125 -0.102203,0.09338 -0.242294,0.19131 -0.375,0.25 -0.131185,0.05869 -0.249919,0.0625 -0.375,0.0625 -0.158642,0 -0.28348,-0.03563 -0.375,-0.125 C 89.53347,87.50304 89.499997,87.395407 89.5,87.25 c 0,-0.121393 0.02969,-0.250936 0.09375,-0.375 0.06559,-0.125394 0.147793,-0.24904 0.25,-0.34375 0.102199,-0.09471 0.211039,-0.15872 0.34375,-0.21875 0.134232,-0.06003 0.278115,-0.09375 0.40625,-0.09375 z m -26,0.03125 c 0.245587,10e-7 0.451103,0.07335 0.625,0.21875 0.173892,0.144073 0.249996,0.327148 0.25,0.53125 -4e-6,0.205436 -0.07611,0.385844 -0.25,0.53125 -0.173897,0.144069 -0.379413,0.21875 -0.625,0.21875 -0.245589,0 -0.452633,-0.07468 -0.625,-0.21875 C 63.796386,87.387179 63.687499,87.206771 63.6875,87 c -10e-7,-0.204102 0.10888,-0.387177 0.28125,-0.53125 0.172367,-0.145409 0.379411,-0.218749 0.625,-0.21875 z m 12.53125,0 c 0.204401,10e-7 0.378709,0.07335 0.53125,0.21875 0.154067,0.144073 0.249998,0.32448 0.25,0.53125 -2e-6,0.206771 -0.09594,0.385845 -0.25,0.53125 C 77.503709,87.675319 77.329401,87.75 77.125,87.75 76.920596,87.75 76.746288,87.67532 76.59375,87.53125 76.442739,87.387179 76.375,87.208104 76.375,87 c 0,-0.20677 0.06774,-0.387177 0.21875,-0.53125 0.152538,-0.145409 0.326846,-0.218749 0.53125,-0.21875 z m 7.5625,0 c 0.164741,10e-7 0.334514,0.06154 0.46875,0.15625 0.135758,0.09471 0.23244,0.222925 0.28125,0.375 l -1.46875,0 c 0.05339,-0.152075 0.147016,-0.28029 0.28125,-0.375 0.135759,-0.09471 0.275808,-0.156249 0.4375,-0.15625 z m 9.40625,0 c 0.204401,10e-7 0.378709,0.07335 0.53125,0.21875 0.154057,0.144073 0.218748,0.32448 0.21875,0.53125 -2e-6,0.206771 -0.06469,0.385845 -0.21875,0.53125 -0.152541,0.144069 -0.326849,0.21875 -0.53125,0.21875 -0.204404,0 -0.378712,-0.07468 -0.53125,-0.21875 -0.151011,-0.144071 -0.25,-0.323146 -0.25,-0.53125 0,-0.20677 0.09899,-0.387177 0.25,-0.53125 0.152538,-0.145409 0.326846,-0.218749 0.53125,-0.21875 z m 14.9375,0 c 0.24559,10e-7 0.4511,0.07335 0.625,0.21875 0.17394,0.144073 0.24999,0.327148 0.25,0.53125 -1e-5,0.205436 -0.0761,0.385844 -0.25,0.53125 -0.1739,0.144069 -0.37941,0.21875 -0.625,0.21875 -0.24559,0 -0.45264,-0.07468 -0.625,-0.21875 C 108.23389,87.387179 108.125,87.206771 108.125,87 c 0,-0.204102 0.10888,-0.387177 0.28125,-0.53125 0.17236,-0.145409 0.37941,-0.218749 0.625,-0.21875 z M 71,87.0625 c 0.102199,-0.0067 0.215615,0.0013 0.34375,0 l 0,0.25 C 71.264428,87.427225 71.146437,87.54096 71,87.625 c -0.146438,0.08404 -0.288013,0.125 -0.4375,0.125 -0.144913,0 -0.27053,-0.03238 -0.34375,-0.09375 -0.07323,-0.06136 -0.09375,-0.11813 -0.09375,-0.1875 0,-0.0667 0.01217,-0.13814 0.0625,-0.1875 0.05034,-0.04935 0.11122,-0.09698 0.1875,-0.125 0.07627,-0.02801 0.166844,-0.04515 0.28125,-0.0625 C 70.770653,87.07642 70.899323,87.0691 71,87.0625 z m 29.65625,0 c 0.1022,-0.0067 0.21562,0.0013 0.34375,0 l 0,0.25 c -0.0793,0.114725 -0.19732,0.22846 -0.34375,0.3125 -0.14644,0.08404 -0.28802,0.125 -0.4375,0.125 -0.14491,0 -0.27053,-0.03238 -0.34375,-0.09375 -0.07322,-0.06136 -0.09375,-0.11813 -0.09375,-0.1875 0,-0.0667 0.01217,-0.13814 0.0625,-0.1875 0.05034,-0.04935 0.11122,-0.09698 0.1875,-0.125 0.0763,-0.02801 0.1981,-0.04515 0.3125,-0.0625 0.1144,-0.01733 0.21182,-0.02465 0.3125,-0.03125 z m -25.5,0.5 c -0.07322,0 -0.13411,0.01581 -0.1875,0.0625 -0.05339,0.04669 -0.09375,0.12213 -0.09375,0.1875 0,0.06403 0.04036,0.10956 0.09375,0.15625 0.05339,0.0467 0.11428,0.0625 0.1875,0.0625 0.07474,0 0.13411,-0.01581 0.1875,-0.0625 0.05491,-0.04669 0.09375,-0.09222 0.09375,-0.15625 0,-0.06537 -0.04036,-0.14081 -0.09375,-0.1875 -0.05339,-0.0467 -0.11124,-0.0625 -0.1875,-0.0625 z m 29.1875,0 c -0.0732,0 -0.1341,0.01581 -0.1875,0.0625 -0.0534,0.04669 -0.0937,0.12213 -0.0937,0.1875 0,0.06403 0.0404,0.10956 0.0937,0.15625 0.0534,0.0467 0.1143,0.0625 0.1875,0.0625 0.0747,0 0.1341,-0.01581 0.1875,-0.0625 0.0549,-0.04669 0.0937,-0.09222 0.0937,-0.15625 0,-0.06537 -0.0404,-0.14081 -0.0937,-0.1875 -0.0534,-0.0467 -0.1112,-0.0625 -0.1875,-0.0625 z"
         id="path3987"
         style="font-size:4.38217831px;font-style:normal;font-variant:normal;font-weight:bold;font-stretch:normal;opacity:0.7;fill:#000000;fill-opacity:1;stroke:none;font-family:Sawasdee;-inkscape-font-specification:Andale Mono Bold" />
      <path
         d="m 65.84375,50 c -0.517431,8e-6 -1.02515,0.09693 -1.5,0.28125 -0.471582,0.184338 -0.874893,0.436642 -1.21875,0.75 -0.340586,0.31337 -0.60946,0.691825 -0.8125,1.125 C 62.109459,52.589434 62,53.023812 62,53.5 c 0,0.476192 0.109459,0.941822 0.3125,1.375 0.20304,0.43011 0.471914,0.78346 0.8125,1.09375 0.343857,0.310293 0.747168,0.565669 1.21875,0.75 C 64.8186,56.903077 65.326319,57 65.84375,57 67.120937,57 68.164905,56.475903 69,55.4375 l -0.625,-0.375 c -0.06878,0.0891 -0.14671,0.1732 -0.21875,0.25 -0.06878,0.07681 -0.180014,0.180398 -0.34375,0.3125 -0.160474,0.132107 -0.326439,0.25158 -0.5,0.34375 -0.173572,0.09217 -0.390991,0.14809 -0.65625,0.21875 -0.261992,0.07065 -0.527593,0.125 -0.8125,0.125 -0.415911,0 -0.83887,-0.07128 -1.21875,-0.21875 -0.37661,-0.147464 -0.69694,-0.344901 -0.96875,-0.59375 -0.26854,-0.251919 -0.464533,-0.562161 -0.625,-0.90625 -0.157199,-0.344083 -0.250001,-0.684616 -0.25,-1.0625 -10e-7,-0.380948 0.09281,-0.749659 0.25,-1.09375 0.160467,-0.347153 0.353186,-0.657397 0.625,-0.90625 0.271811,-0.248843 0.623389,-0.446278 1,-0.59375 0.376605,-0.147458 0.771589,-0.218743 1.1875,-0.21875 0.288183,7e-6 0.547232,0.05127 0.8125,0.125 0.268533,0.07374 0.489228,0.12967 0.65625,0.21875 0.167012,0.08603 0.329701,0.199362 0.5,0.34375 0.17356,0.144398 0.28807,0.25106 0.34375,0.3125 0.05567,0.06145 0.13032,0.14555 0.21875,0.25 L 69,51.5625 c -0.05568,-0.07373 -0.10059,-0.1573 -0.15625,-0.21875 -0.05568,-0.06451 -0.166638,-0.139396 -0.28125,-0.25 -0.114627,-0.113666 -0.225862,-0.2234 -0.34375,-0.3125 C 68.100848,50.689091 67.958086,50.60139 67.78125,50.5 67.604402,50.398624 67.436661,50.31759 67.25,50.25 67.063329,50.179348 66.839358,50.1086 66.59375,50.0625 66.34813,50.01642 66.105734,50.000008 65.84375,50 z M 84,50 l 0,2.90625 c -0.204684,-0.226503 -0.451109,-0.388515 -0.75,-0.53125 -0.29565,-0.142726 -0.592352,-0.218745 -0.875,-0.21875 -0.441847,5e-6 -0.851631,0.0891 -1.21875,0.3125 C 80.789126,52.692159 80.520428,53.002664 80.3125,53.375 80.107821,53.744241 80,54.131208 80,54.5625 c 0,0.434398 0.107821,0.846411 0.3125,1.21875 0.207928,0.369238 0.476626,0.654699 0.84375,0.875 C 81.523369,56.876552 81.933153,57 82.375,57 c 0.285897,0 0.582599,-0.07602 0.875,-0.21875 0.295642,-0.145832 0.542068,-0.332889 0.75,-0.5625 -6e-6,0.20789 0.03727,0.448803 0.125,0.71875 l 0.875,0 C 84.93827,56.832004 84.88598,56.635418 84.84375,56.34375 84.80151,56.048982 84.78124,55.79211 84.78125,55.5625 L 84.78125,50 84,50 z m -12.0625,1.96875 c -0.192836,1e-5 -0.381911,0.06124 -0.5625,0.125 -0.180589,0.06058 -0.324251,0.11417 -0.4375,0.1875 -0.110191,0.07334 -0.22744,0.160094 -0.34375,0.28125 -0.113252,0.121165 -0.17896,0.23024 -0.21875,0.28125 -0.03673,0.05102 -0.10116,0.10141 -0.15625,0.1875 l 0.59375,0.375 c 0,-0.0032 0.03496,-0.02423 0.0625,-0.0625 0.02754,-0.03826 0.04719,-0.04337 0.0625,-0.0625 0.0153,-0.02231 0.02576,-0.08036 0.0625,-0.125 0.03672,-0.04782 0.06314,-0.06823 0.09375,-0.09375 0.03366,-0.02869 0.07908,-0.0523 0.125,-0.09375 0.04897,-0.04145 0.10728,-0.09949 0.15625,-0.125 0.04897,-0.02551 0.0981,-0.03699 0.15625,-0.0625 0.05815,-0.0255 0.12015,-0.04974 0.1875,-0.0625 0.06733,-0.01273 0.14529,-0.03124 0.21875,-0.03125 0.296897,5e-6 0.545563,0.142249 0.78125,0.375 0.238742,0.232758 0.39464,0.53895 0.4375,0.9375 -0.159166,0 -0.27706,-0.0032 -0.375,0 -0.09795,0 -0.250791,-0.0096 -0.4375,0 -0.186713,0.0096 -0.340197,0.04337 -0.46875,0.0625 -0.125496,0.01595 -0.291224,0.02424 -0.46875,0.0625 -0.17447,0.03827 -0.315067,0.10524 -0.4375,0.15625 -0.119373,0.05102 -0.243385,0.10461 -0.375,0.1875 -0.131617,0.07971 -0.23291,0.176034 -0.3125,0.28125 -0.07958,0.102032 -0.16671,0.231523 -0.21875,0.375 C 70.01046,55.265293 70,55.421577 70,55.59375 c 0,0.1658 0.03253,0.337391 0.09375,0.5 0.06428,0.159422 0.158816,0.297209 0.28125,0.4375 0.125494,0.14029 0.288802,0.257663 0.5,0.34375 0.211196,0.08608 0.449396,0.125 0.71875,0.125 0.569313,0 1.085006,-0.252605 1.5625,-0.75 -0.01531,0.200871 0.05218,0.413929 0.15625,0.65625 l 0.78125,0 C 74.0356,56.788278 73.97728,56.623063 73.9375,56.40625 73.8977,56.186249 73.90625,55.966814 73.90625,55.75 l 0,-1.59375 C 73.90015,53.821468 73.832,53.527397 73.71875,53.25 73.605495,52.969423 73.464896,52.741056 73.28125,52.5625 73.100657,52.380764 72.888872,52.22384 72.65625,52.125 72.426686,52.02616 72.185425,51.968755 71.9375,51.96875 z M 77.375,52 c -0.25321,5e-6 -0.539817,0.08031 -0.8125,0.28125 -0.272684,0.200945 -0.502465,0.44003 -0.6875,0.71875 0,-0.243069 0.01623,-0.393044 0,-0.5 -0.01297,-0.106947 -0.06981,-0.259241 -0.125,-0.4375 l -0.84375,0 c 0.06493,0.110198 0.11731,0.317112 0.15625,0.625 0.04221,0.304655 0.0625,0.5942 0.0625,0.84375 l 0,3.46875 0.75,0 0,-2.46875 c -2e-6,-0.200937 0.07267,-0.436783 0.21875,-0.71875 0.146079,-0.285202 0.360018,-0.532851 0.59375,-0.75 0.233727,-0.220382 0.445244,-0.343746 0.65625,-0.34375 0.168802,4e-6 0.317386,0.04398 0.4375,0.125 0.120108,0.07779 0.21957,0.179624 0.28125,0.3125 0.06167,0.129642 0.09904,0.270132 0.125,0.40625 0.02922,0.136124 0.03125,0.288419 0.03125,0.4375 l 0,3 L 79,57 79,54 C 79,53.734243 78.97117,53.483354 78.90625,53.25 78.841322,53.013414 78.754846,52.78173 78.625,52.59375 78.495148,52.405778 78.307998,52.263206 78.09375,52.15625 77.879496,52.04606 77.64768,52.000005 77.375,52 z m 8.59375,0 2.125,4.59375 L 87,59 87.875,59 91,52 90.125,52 88.5,55.625 86.84375,52 l -0.875,0 z M 82.375,52.84375 c 0.435345,4e-6 0.834609,0.161795 1.15625,0.5 0.324882,0.33511 0.468745,0.737812 0.46875,1.21875 -5e-6,0.484044 -0.143868,0.914896 -0.46875,1.25 -0.321641,0.332005 -0.720905,0.5 -1.15625,0.5 -0.435349,0 -0.796866,-0.164893 -1.125,-0.5 -0.324887,-0.335106 -0.500001,-0.769059 -0.5,-1.25 -10e-7,-0.480938 0.175113,-0.88364 0.5,-1.21875 0.328134,-0.338205 0.689651,-0.499996 1.125,-0.5 z m -9.21875,1.78125 0,0.625 c -0.159165,0.274205 -0.362413,0.51788 -0.65625,0.71875 -0.293842,0.200872 -0.606291,0.312501 -0.90625,0.3125 -0.29078,10e-7 -0.509331,-0.07208 -0.65625,-0.21875 -0.146931,-0.146667 -0.218751,-0.302951 -0.21875,-0.46875 -10e-7,-0.15942 0.05524,-0.288276 0.15625,-0.40625 0.101006,-0.11797 0.221957,-0.21429 0.375,-0.28125 0.153041,-0.06695 0.332935,-0.14605 0.5625,-0.1875 0.229559,-0.04146 0.454231,-0.04655 0.65625,-0.0625 0.205072,-0.01595 0.430387,-0.02805 0.6875,-0.03125 z M 65.21875,65 l 0,4.34375 c -4e-6,0.294431 -0.101023,0.545758 -0.34375,0.75 -0.242733,0.201595 -0.520111,0.28125 -0.84375,0.28125 -0.330387,0 -0.635642,-0.07966 -0.875,-0.28125 -0.235996,-0.201591 -0.343752,-0.452917 -0.34375,-0.75 l 0,-0.15625 -0.8125,0 0,0.15625 c 0,0.453583 0.178173,0.827338 0.5625,1.15625 0.387693,0.326261 0.877869,0.5 1.4375,0.5 0.559627,0 1.018551,-0.173739 1.40625,-0.5 C 65.793939,70.171088 65.999996,69.797333 66,69.34375 L 66,65 65.21875,65 z M 92,65 c -0.406171,6e-6 -0.783502,0.09242 -1.15625,0.25 -0.370182,0.157589 -0.698828,0.357114 -0.96875,0.625 -0.267353,0.267897 -0.465618,0.598433 -0.625,0.96875 C 89.090625,67.214075 88.999999,67.592913 89,68 c -10e-7,0.407094 0.09062,0.78593 0.25,1.15625 0.159382,0.367697 0.357647,0.703484 0.625,0.96875 0.269922,0.265265 0.598568,0.467455 0.96875,0.625 0.372748,0.157585 0.750079,0.21875 1.15625,0.21875 0.403596,0 0.788636,-0.06117 1.15625,-0.21875 0.370175,-0.157583 0.701392,-0.359735 0.96875,-0.625 0.269917,-0.265266 0.468182,-0.601053 0.625,-0.96875 C 94.909374,68.78593 94.999993,68.407094 95,68 l -3.125,0 0,0.59375 2.5,0 C 94.191035,69.153 94.043616,69.379414 93.59375,69.78125 93.146445,70.180463 92.604109,70.375 92,70.375 c -0.326481,0 -0.639302,-0.06143 -0.9375,-0.1875 -0.295633,-0.126066 -0.536634,-0.287261 -0.75,-0.5 -0.210798,-0.215362 -0.374038,-0.455842 -0.5,-0.75 C 89.689099,68.643346 89.624999,68.323049 89.625,68 c -10e-7,-0.32567 0.06411,-0.64334 0.1875,-0.9375 0.125962,-0.296779 0.286631,-0.537258 0.5,-0.75 0.213364,-0.212733 0.454368,-0.405178 0.75,-0.53125 0.295627,-0.126061 0.611019,-0.187494 0.9375,-0.1875 0.226217,0 0.448019,0.03072 0.65625,0.09375 0.210792,0.06304 0.400139,0.14259 0.53125,0.21875 0.131101,0.07354 0.24132,0.189065 0.375,0.3125 0.136242,0.123446 0.23754,0.19748 0.28125,0.25 C 93.88744,66.52128 93.9306,66.5982 94,66.6875 l 0.5,-0.375 c -0.0051,-0.0052 -0.02098,-0.01549 -0.03125,-0.03125 -0.05913,-0.07879 -0.12324,-0.1452 -0.1875,-0.21875 -0.0617,-0.07353 -0.153124,-0.204547 -0.3125,-0.34375 -0.156817,-0.139194 -0.330339,-0.24657 -0.5,-0.34375 -0.1671,-0.09717 -0.394043,-0.17383 -0.65625,-0.25 C 92.550285,65.046212 92.280202,65.000006 92,65 z m 18.21875,0.0625 0,5.875 0.6875,0 0,-5.875 -0.6875,0 z M 76.625,66 c -0.139738,6e-6 -0.27602,0.0457 -0.375,0.125 -0.09606,0.07931 -0.125001,0.167252 -0.125,0.28125 -10e-7,0.111528 0.02893,0.20443 0.125,0.28125 0.09607,0.07683 0.23235,0.125004 0.375,0.125 0.136826,4e-6 0.24768,-0.04817 0.34375,-0.125 0.09898,-0.07682 0.156248,-0.169722 0.15625,-0.28125 -2e-6,-0.113998 -0.05727,-0.20194 -0.15625,-0.28125 C 76.872679,66.045701 76.761826,66.000006 76.625,66 z m 35.875,0 c -0.13974,6e-6 -0.24475,0.04676 -0.34375,0.125 -0.096,0.07825 -0.15625,0.16878 -0.15625,0.28125 0,0.110035 0.0602,0.20546 0.15625,0.28125 0.0961,0.07581 0.20111,0.09375 0.34375,0.09375 0.13683,4e-6 0.24775,-0.01795 0.34375,-0.09375 C 112.94275,66.61171 113,66.516285 113,66.40625 113,66.29378 112.9427,66.20325 112.84375,66.125 112.74768,66.046764 112.63683,66.000006 112.5,66 z M 69,67 c -0.362747,4e-6 -0.69118,0.102988 -1,0.28125 C 67.693626,67.456973 67.460172,67.691858 67.28125,68 67.102328,68.305601 67,68.638378 67,69 c 0,0.361626 0.102329,0.694403 0.28125,1 0.178922,0.305599 0.412376,0.540484 0.71875,0.71875 0.30882,0.175718 0.637253,0.25 1,0.25 0.360293,0 0.693624,-0.07428 1,-0.25 C 70.306369,70.540484 70.539825,70.305599 70.71875,70 70.897672,69.694403 70.999996,69.361626 71,69 70.999996,68.638378 70.897668,68.305601 70.71875,68 70.539825,67.691858 70.306369,67.456973 70,67.28125 69.693624,67.102992 69.360293,67.000004 69,67 z m 4.75,0 c -0.19145,4e-6 -0.387575,0.08949 -0.59375,0.25 -0.206177,0.160522 -0.360097,0.339849 -0.5,0.5625 0,-0.194172 -0.01897,-0.32082 -0.03125,-0.40625 -0.0098,-0.08543 -0.02077,-0.201349 -0.0625,-0.34375 l -0.65625,0 c 0.04908,0.08803 0.09554,0.254052 0.125,0.5 0.0319,0.243369 0.03125,0.456899 0.03125,0.65625 l 0,2.78125 0.59375,0 0,-1.96875 c 0,-0.160516 0.0458,-0.368505 0.15625,-0.59375 0.110452,-0.22783 0.260776,-0.420285 0.4375,-0.59375 0.176719,-0.176058 0.340458,-0.249996 0.5,-0.25 0.12763,1e-5 0.22167,0.02903 0.3125,0.09375 0.09081,0.06214 0.17212,0.143855 0.21875,0.25 0.04663,0.103563 0.07412,0.203763 0.09375,0.3125 0.02208,0.108739 0.03125,0.224659 0.03125,0.34375 L 74.40625,71 75,71 75,68.59375 C 75,68.381454 74.98659,68.18641 74.9375,68 74.888406,67.811007 74.81693,67.650165 74.71875,67.5 74.620567,67.349843 74.474492,67.21044 74.3125,67.125 74.150501,67.036981 73.956175,67.000004 73.75,67 z m 5.75,0 c -0.150506,1e-5 -0.296553,0.01166 -0.4375,0.0625 -0.140949,0.0483 -0.25536,0.12904 -0.34375,0.1875 -0.086,0.05847 -0.15922,0.12215 -0.25,0.21875 -0.08839,0.0966 -0.15644,0.17808 -0.1875,0.21875 -0.02867,0.04068 -0.05075,0.08761 -0.09375,0.15625 l 0.46875,0.3125 c -1e-5,-0.0025 0.0097,-0.032 0.03125,-0.0625 0.0215,-0.0305 0.0193,-0.04725 0.03125,-0.0625 0.01194,-0.0178 0.03383,-0.05816 0.0625,-0.09375 0.02866,-0.03812 0.06986,-0.07341 0.09375,-0.09375 0.02627,-0.02287 0.05791,-0.02945 0.09375,-0.0625 0.03822,-0.03304 0.05553,-0.07341 0.09375,-0.09375 0.03821,-0.02034 0.07961,-0.04216 0.125,-0.0625 0.04539,-0.02033 0.10369,-0.02109 0.15625,-0.03125 0.05256,-0.01015 0.09891,-0.03125 0.15625,-0.03125 0.231725,4e-6 0.441049,0.09568 0.625,0.28125 0.186336,0.185579 0.3103,0.432237 0.34375,0.75 -0.124227,0 -0.23606,-0.0025 -0.3125,0 -0.07645,1e-5 -0.198027,0.02365 -0.34375,0.03125 -0.145728,0.0076 -0.243416,0.016 -0.34375,0.03125 -0.09795,0.01273 -0.236443,0.032 -0.375,0.0625 -0.136171,0.03051 -0.24819,0.05308 -0.34375,0.09375 -0.09317,0.04068 -0.178527,0.1214 -0.28125,0.1875 -0.102726,0.06356 -0.18789,0.13486 -0.25,0.21875 C 78.15663,69.3001 78.10311,69.385605 78.0625,69.5 78.02189,69.611855 78,69.737726 78,69.875 c 0,0.132191 0.01472,0.276603 0.0625,0.40625 0.05017,0.127106 0.12319,0.231897 0.21875,0.34375 0.09794,0.111854 0.241412,0.21261 0.40625,0.28125 C 78.852335,70.974897 79.03977,71 79.25,71 c 0.44434,0 0.846072,-0.197178 1.21875,-0.59375 -0.01195,0.160155 0.01253,0.338048 0.09375,0.53125 l 0.625,0 C 81.14211,70.843441 81.1248,70.704115 81.09375,70.53125 81.06269,70.355844 81.031247,70.172864 81.03125,70 l 0,-1.25 C 81.026469,68.48308 80.99464,68.221168 80.90625,68 80.817856,67.776296 80.705834,67.611111 80.5625,67.46875 80.42155,67.323852 80.244057,67.20381 80.0625,67.125 79.883328,67.046192 79.693502,67.000004 79.5,67 z m 4.25,0 c -0.19145,4e-6 -0.387575,0.08949 -0.59375,0.25 -0.206177,0.160522 -0.360097,0.339849 -0.5,0.5625 0,-0.194172 -0.01897,-0.32082 -0.03125,-0.40625 -0.0098,-0.08543 -0.02077,-0.201349 -0.0625,-0.34375 l -0.65625,0 c 0.04908,0.08803 0.09554,0.254052 0.125,0.5 0.0319,0.243369 0.03125,0.456899 0.03125,0.65625 l 0,2.78125 0.59375,0 0,-1.96875 c 0,-0.160516 0.0458,-0.368505 0.15625,-0.59375 0.110452,-0.22783 0.260776,-0.420285 0.4375,-0.59375 0.176719,-0.176058 0.340458,-0.249996 0.5,-0.25 0.12763,1e-5 0.22167,0.02903 0.3125,0.09375 0.09081,0.06214 0.17212,0.143855 0.21875,0.25 0.04663,0.103563 0.07412,0.203763 0.09375,0.3125 0.02208,0.108739 0.03125,0.224659 0.03125,0.34375 L 84.40625,71 85,71 85,68.59375 C 85,68.381454 84.98659,68.18641 84.9375,68 84.888406,67.811007 84.81693,67.650165 84.71875,67.5 84.620567,67.349843 84.474492,67.21044 84.3125,67.125 84.150501,67.036981 83.956175,67.000004 83.75,67 z m 12.25,0 0,2.40625 c 0,0.437967 0.148891,0.811428 0.4375,1.125 C 96.728637,70.844823 97.079745,71 97.5,71 c 0.420251,0 0.77389,-0.155177 1.0625,-0.46875 0.291136,-0.313572 0.437496,-0.687033 0.4375,-1.125 L 99,67 l -0.59375,0 0,2.40625 c -3e-6,0.285068 -0.09897,0.524388 -0.28125,0.71875 -0.179749,0.191779 -0.376902,0.28125 -0.625,0.28125 -0.24304,0 -0.452849,-0.08948 -0.625,-0.28125 -0.172157,-0.191771 -0.281252,-0.431091 -0.28125,-0.71875 L 96.59375,67 96,67 z m 4,0 2,4 2,-4 -0.71875,0 L 102,69.5 100.71875,67 100,67 z m 7,0 c -0.36476,4e-6 -0.69201,0.09789 -1,0.28125 -0.30802,0.183363 -0.57439,0.413155 -0.75,0.71875 -0.17563,0.303056 -0.25,0.646017 -0.25,1 0,0.356533 0.0798,0.694404 0.25,1 0.17292,0.303052 0.41345,0.537938 0.71875,0.71875 0.3053,0.180809 0.63255,0.25 1,0.25 0.1,0 0.20984,0.01273 0.3125,0 0.10537,-0.01273 0.22909,-0.04791 0.375,-0.09375 0.14589,-0.04584 0.30511,-0.11365 0.4375,-0.1875 0.13239,-0.07385 0.26576,-0.180073 0.40625,-0.3125 0.14049,-0.134973 0.23839,-0.261781 0.34375,-0.4375 l -0.53125,-0.28125 c -0.1567,0.249573 -0.3641,0.432622 -0.59375,0.5625 -0.22966,0.12733 -0.48253,0.1875 -0.75,0.1875 -0.34043,0 -0.64417,-0.133068 -0.90625,-0.375 -0.26207,-0.244477 -0.4052,-0.539531 -0.4375,-0.90625 l 3.375,0 -0.0312,-0.28125 c -0.0297,-0.331062 -0.13417,-0.659912 -0.3125,-0.9375 C 108.478,67.626122 108.26329,67.415536 107.9688,67.25 107.67424,67.084472 107.34851,67.000004 107,67 z m -30.75,0.21875 0,3.78125 0.6875,0 0,-3.78125 -0.6875,0 z m 35.90625,0 0,3.71875 0.6875,0 0,-3.71875 -0.6875,0 z m -43.4375,0.375 c 0.0913,-0.01735 0.182597,10e-7 0.28125,0 0.394605,3e-6 0.751835,0.128668 1.03125,0.40625 0.279407,0.275041 0.406246,0.610365 0.40625,1 -4e-6,0.392187 -0.126843,0.722416 -0.40625,1 -0.279415,0.27504 -0.636645,0.40625 -1.03125,0.40625 -0.39461,0 -0.723041,-0.13121 -1,-0.40625 -0.276962,-0.275037 -0.406251,-0.605266 -0.40625,-1 -10e-7,-0.389635 0.129288,-0.724959 0.40625,-1 0.207719,-0.208187 0.444852,-0.354202 0.71875,-0.40625 z m 38.28125,0 c 0.29179,3e-6 0.54349,0.06919 0.78125,0.25 0.24044,0.180816 0.4136,0.428435 0.5,0.71875 l -2.5625,0 c 0.0946,-0.290315 0.26224,-0.537934 0.5,-0.71875 0.24045,-0.180799 0.49485,-0.249997 0.78125,-0.25 z m -26.53125,1.5 0,0.53125 c -0.124228,0.218624 -0.301914,0.402347 -0.53125,0.5625 -0.22934,0.16016 -0.453386,0.250001 -0.6875,0.25 -0.226952,10e-7 -0.385333,-0.07056 -0.5,-0.1875 -0.114675,-0.116937 -0.187501,-0.242809 -0.1875,-0.375 -10e-7,-0.127104 0.04617,-0.2497 0.125,-0.34375 0.07883,-0.09406 0.161801,-0.16537 0.28125,-0.21875 0.119446,-0.05339 0.289578,-0.09195 0.46875,-0.125 0.179169,-0.03305 0.342328,-0.04979 0.5,-0.0625 0.160056,-0.01271 0.330577,-0.02875 0.53125,-0.03125 z M 62,74 l 0,6 1.1875,0 c 0.507821,0 0.977847,-0.143692 1.40625,-0.40625 0.430802,-0.262558 0.780945,-0.604361 1.03125,-1.0625 C 65.877703,78.070435 65.999995,77.551911 66,77 c -5e-6,-0.554584 -0.122297,-1.070429 -0.375,-1.53125 -0.250305,-0.460812 -0.600448,-0.799935 -1.03125,-1.0625 C 64.165347,74.141018 63.695321,74.000006 63.1875,74 L 62,74 z m 20.1875,0 0,6.15625 0.71875,0 0,-6.15625 -0.71875,0 z m -19.625,0.625 0.625,0 c 0.409144,6e-6 0.783241,0.103531 1.125,0.3125 0.341754,0.20898 0.612737,0.476708 0.8125,0.84375 0.199758,0.364371 0.312496,0.776691 0.3125,1.21875 -4e-6,0.439386 -0.112745,0.854385 -0.3125,1.21875 -0.199763,0.36437 -0.470746,0.634775 -0.8125,0.84375 -0.341759,0.206296 -0.715856,0.312501 -1.125,0.3125 l -0.625,0 0,-4.75 z M 69,76 c -0.364742,4e-6 -0.691997,0.09717 -1,0.28125 -0.308004,0.184088 -0.574386,0.411946 -0.75,0.71875 -0.175614,0.304255 -0.250001,0.644617 -0.25,1 -10e-7,0.357942 0.07979,0.693194 0.25,1 0.172914,0.304251 0.413443,0.537221 0.71875,0.71875 0.3053,0.18153 0.632553,0.28125 1,0.28125 0.09996,0 0.209828,-0.01846 0.3125,-0.03125 0.105368,-0.01278 0.2291,-0.01648 0.375,-0.0625 0.145894,-0.04602 0.305108,-0.11335 0.4375,-0.1875 0.132383,-0.07415 0.265754,-0.17955 0.40625,-0.3125 0.140489,-0.135506 0.238377,-0.292336 0.34375,-0.46875 L 70.3125,78.65625 c -0.156706,0.250562 -0.364103,0.43211 -0.59375,0.5625 -0.229656,0.127836 -0.482527,0.187501 -0.75,0.1875 -0.340428,10e-7 -0.644178,-0.10086 -0.90625,-0.34375 -0.262074,-0.245445 -0.40509,-0.56933 -0.4375,-0.9375 l 3.375,0 -0.03125,-0.28125 C 70.93903,77.511378 70.834563,77.184937 70.65625,76.90625 70.477927,76.625014 70.263243,76.416189 69.96875,76.25 69.674254,76.083818 69.348529,76.000004 69,76 z m 3,0 2,4 2,-4 -0.71875,0 L 74,78.5 72.71875,76 72,76 z m 7,0 c -0.364742,4e-6 -0.691997,0.09717 -1,0.28125 -0.308004,0.184088 -0.574386,0.411946 -0.75,0.71875 -0.175614,0.304255 -0.250001,0.644617 -0.25,1 -10e-7,0.357942 0.07979,0.693194 0.25,1 0.172914,0.304251 0.413443,0.537221 0.71875,0.71875 0.3053,0.18153 0.632553,0.28125 1,0.28125 0.09996,0 0.209828,-0.01846 0.3125,-0.03125 0.105368,-0.01278 0.2291,-0.01648 0.375,-0.0625 0.145894,-0.04602 0.305108,-0.11335 0.4375,-0.1875 0.132383,-0.07415 0.265754,-0.17955 0.40625,-0.3125 0.140489,-0.135506 0.238377,-0.292336 0.34375,-0.46875 L 80.3125,78.65625 c -0.156706,0.250562 -0.364103,0.43211 -0.59375,0.5625 -0.229656,0.127836 -0.482527,0.187501 -0.75,0.1875 -0.340428,10e-7 -0.644178,-0.10086 -0.90625,-0.34375 -0.262074,-0.245445 -0.40509,-0.56933 -0.4375,-0.9375 l 3.375,0 -0.03125,-0.28125 C 80.93903,77.511378 80.834563,77.184937 80.65625,76.90625 80.477927,76.625014 80.263243,76.416189 79.96875,76.25 79.674254,76.083818 79.348529,76.000004 79,76 z m 7,0 c -0.362746,4e-6 -0.691179,0.102282 -1,0.28125 C 84.693626,76.457668 84.46017,76.690639 84.28125,77 84.102327,77.30681 84,77.636946 84,78 c 0,0.363055 0.102328,0.693194 0.28125,1 0.17892,0.306809 0.412376,0.571028 0.71875,0.75 0.308821,0.176417 0.637254,0.25 1,0.25 0.360292,0 0.693625,-0.07359 1,-0.25 0.306369,-0.178972 0.539824,-0.443191 0.71875,-0.75 0.178912,-0.306806 0.281245,-0.636945 0.28125,-1 -5e-6,-0.363054 -0.102333,-0.69319 -0.28125,-1 C 87.539824,76.690639 87.306369,76.457668 87,76.28125 86.693625,76.102294 86.360292,76.000004 86,76 z m 5.09375,0 c -0.228722,4e-6 -0.450985,0.05976 -0.6875,0.1875 -0.23392,0.127744 -0.45606,0.300409 -0.625,0.5 -2e-6,-0.191608 -0.02358,-0.398789 -0.09375,-0.625 l -0.6875,0 c 0.05198,0.09049 0.09381,0.249846 0.125,0.5 0.03378,0.250162 0.0625,0.485247 0.0625,0.6875 l 0,4.65625 0.59375,0 0,-2.40625 c 0.163741,0.196934 0.388482,0.346332 0.625,0.46875 0.236515,0.119755 0.456178,0.1875 0.6875,0.1875 0.353474,0 0.677649,-0.0923 0.96875,-0.28125 0.293693,-0.191609 0.523754,-0.433308 0.6875,-0.75 0.166342,-0.319348 0.249996,-0.661335 0.25,-1.03125 -4e-6,-0.369912 -0.08366,-0.714557 -0.25,-1.03125 C 92.586254,76.743154 92.356193,76.472863 92.0625,76.28125 91.771399,76.089653 91.447224,76.000004 91.09375,76 z M 96,76 c -0.364744,4e-6 -0.691997,0.09717 -1,0.28125 -0.308006,0.184088 -0.574385,0.411945 -0.75,0.71875 -0.175604,0.304254 -0.250001,0.644616 -0.25,1 -10e-7,0.357942 0.07979,0.693193 0.25,1 0.172914,0.30425 0.413446,0.537223 0.71875,0.71875 0.3053,0.181532 0.632554,0.28125 1,0.28125 0.09996,0 0.209833,-0.01847 0.3125,-0.03125 0.105367,-0.01279 0.2291,-0.01647 0.375,-0.0625 0.145893,-0.04602 0.305109,-0.11335 0.4375,-0.1875 0.132383,-0.07415 0.265754,-0.17955 0.40625,-0.3125 0.14049,-0.135506 0.238371,-0.292335 0.34375,-0.46875 L 97.3125,78.65625 c -0.156706,0.250561 -0.3641,0.432109 -0.59375,0.5625 -0.229654,0.127845 -0.482525,0.187501 -0.75,0.1875 -0.340428,10e-7 -0.644178,-0.10086 -0.90625,-0.34375 -0.262075,-0.245445 -0.40508,-0.56933 -0.4375,-0.9375 l 3.375,0 -0.03125,-0.28125 C 97.93903,77.511377 97.834563,77.184938 97.65625,76.90625 97.477927,76.625014 97.263242,76.416189 96.96875,76.25 96.674252,76.083818 96.348528,76.000004 96,76 z m 5.0625,0 c -0.42792,0.126374 -0.79322,0.346776 -1.125,0.65625 0,-0.203734 -0.04444,-0.40806 -0.125,-0.59375 l -0.8125,0 c 0.05581,0.09027 0.115946,0.254996 0.15625,0.5 0.04342,0.245007 0.06275,0.462829 0.0625,0.65625 l 0,2.78125 0.71875,0 0,-2 c 0,-0.05416 -0.0059,-0.12818 0,-0.1875 0.0093,-0.05931 0.03149,-0.12075 0.0625,-0.21875 0.0341,-0.100579 0.0722,-0.22481 0.125,-0.3125 0.0527,-0.08768 0.14461,-0.15457 0.25,-0.25 0.10543,-0.09542 0.23546,-0.18294 0.375,-0.25 0.13953,-0.06963 0.31418,-0.14365 0.53125,-0.1875 0.21706,-0.04643 0.45208,-0.0625 0.71875,-0.0625 L 101.0625,76 z M 69,76.59375 c 0.291792,5e-6 0.543489,0.06848 0.78125,0.25 0.240455,0.181531 0.41355,0.427285 0.5,0.71875 l -2.5625,0 c 0.09456,-0.291465 0.262241,-0.537219 0.5,-0.71875 0.240458,-0.181521 0.49486,-0.249995 0.78125,-0.25 z m 10,0 c 0.291792,5e-6 0.543489,0.06848 0.78125,0.25 0.240455,0.181531 0.41355,0.427285 0.5,0.71875 l -2.5625,0 c 0.09456,-0.291465 0.262241,-0.537219 0.5,-0.71875 0.240458,-0.181521 0.49486,-0.249995 0.78125,-0.25 z m 6.71875,0 c 0.0913,-0.01742 0.182597,10e-7 0.28125,0 0.394605,5e-6 0.751835,0.127571 1.03125,0.40625 0.279408,0.27613 0.406246,0.608822 0.40625,1 -4e-6,0.393736 -0.126842,0.721319 -0.40625,1 -0.279415,0.276129 -0.636645,0.4375 -1.03125,0.4375 -0.39461,0 -0.72304,-0.161371 -1,-0.4375 -0.276962,-0.276124 -0.406251,-0.603707 -0.40625,-1 -10e-7,-0.391178 0.129288,-0.72387 0.40625,-1 0.20772,-0.209009 0.444852,-0.353995 0.71875,-0.40625 z m 5.375,0 c 0.345676,3e-6 0.646338,0.147427 0.90625,0.4375 0.259906,0.287418 0.406245,0.650006 0.40625,1.0625 -5e-6,0.412496 -0.146344,0.743837 -0.40625,1.03125 -0.259912,0.287417 -0.560574,0.4375 -0.90625,0.4375 -0.35088,0 -0.646342,-0.152745 -0.90625,-0.4375 -0.25731,-0.287413 -0.406252,-0.616094 -0.40625,-1.03125 -2e-6,-0.412494 0.14894,-0.775082 0.40625,-1.0625 0.259908,-0.290073 0.55537,-0.437497 0.90625,-0.4375 z m 4.90625,0 c 0.29179,5e-6 0.543491,0.06848 0.78125,0.25 0.240456,0.181531 0.41354,0.427286 0.5,0.71875 l -2.5625,0 c 0.09456,-0.291464 0.262241,-0.537219 0.5,-0.71875 0.240458,-0.181522 0.494857,-0.249995 0.78125,-0.25 z"
         id="path3900"
         style="font-size:10px;font-style:normal;font-variant:normal;font-weight:bold;font-stretch:normal;opacity:0.5;fill:#000000;fill-opacity:1;stroke:none;font-family:Sawasdee;-inkscape-font-specification:Sawasdee Bold" />
      <path
         d="M 15.53125,37 C 12.478191,37 10,39.492428 10,42.5625 l 0,75.875 C 10,121.50756 12.47819,124 15.53125,124 L 30.5,124 c 1.502956,0.0179 2.463316,-0.92534 2.46875,-1.96875 C 32.97415,120.98784 32.016341,120.01784 30.5,120 c -2.555319,0 -4.5,-1.61944 -4.5,-3.5 0,-1.88056 1.944681,-3.5 4.5,-3.5 l 15,0 c 2.555319,0 4.5,1.61944 4.5,3.5 0,1.88056 -1.944681,3.5 -4.5,3.5 -1.516344,0.0178 -2.474184,0.98784 -2.46875,2.03125 0.0054,1.04341 0.965791,1.98661 2.46875,1.96875 l 43,0 c 1.502956,0.0179 2.463316,-0.92534 2.46875,-1.96875 C 90.97415,120.98784 90.016341,120.01784 88.5,120 c -2.555319,0 -4.5,-1.61944 -4.5,-3.5 0,-1.88056 1.944681,-3.5 4.5,-3.5 l 15,0 c 2.55532,0 4.5,1.61944 4.5,3.5 0,1.88056 -1.94468,3.5 -4.5,3.5 -1.51634,0.0178 -2.47418,0.98784 -2.46875,2.03125 0.005,1.04341 0.96579,1.98661 2.46875,1.96875 l 14.96875,0 C 121.5218,124 124,121.50757 124,118.4375 l 0,-75.875 C 124,39.492427 121.5218,37 118.46875,37 l -102.9375,0 z"
         id="path3806"
         style="font-size:medium;font-style:normal;font-variant:normal;font-weight:normal;font-stretch:normal;text-indent:0;text-align:start;text-decoration:none;line-height:normal;letter-spacing:normal;word-spacing:normal;text-transform:none;direction:ltr;block-progression:tb;writing-mode:lr-tb;text-anchor:start;opacity:0.07999998;color:#000000;fill:url(#radialGradient3814);fill-opacity:1;fill-rule:nonzero;stroke:none;stroke-width:0.99999994;marker:none;visibility:visible;display:inline;overflow:visible;enable-background:accumulate;font-family:Andale Mono;-inkscape-font-specification:Andale Mono" />
      <path
         d="M 15.53125,37 C 12.478191,37 10,39.492428 10,42.5625 l 0,75.875 C 10,121.50756 12.47819,124 15.53125,124 L 30.5,124 c 1.502956,0.0179 2.463316,-0.92534 2.46875,-1.96875 C 32.97415,120.98784 32.016341,120.01784 30.5,120 c -2.555319,0 -4.5,-1.61944 -4.5,-3.5 0,-1.88056 1.944681,-3.5 4.5,-3.5 l 15,0 c 2.555319,0 4.5,1.61944 4.5,3.5 0,1.88056 -1.944681,3.5 -4.5,3.5 -1.516344,0.0178 -2.474184,0.98784 -2.46875,2.03125 0.0054,1.04341 0.965791,1.98661 2.46875,1.96875 l 43,0 c 1.502956,0.0179 2.463316,-0.92534 2.46875,-1.96875 C 90.97415,120.98784 90.016341,120.01784 88.5,120 c -2.555319,0 -4.5,-1.61944 -4.5,-3.5 0,-1.88056 1.944681,-3.5 4.5,-3.5 l 15,0 c 2.55532,0 4.5,1.61944 4.5,3.5 0,1.88056 -1.94468,3.5 -4.5,3.5 -1.51634,0.0178 -2.47418,0.98784 -2.46875,2.03125 0.005,1.04341 0.96579,1.98661 2.46875,1.96875 l 14.96875,0 C 121.5218,124 124,121.50757 124,118.4375 l 0,-75.875 C 124,39.492427 121.5218,37 118.46875,37 l -102.9375,0 z"
         id="path3816"
         style="font-size:medium;font-style:normal;font-variant:normal;font-weight:normal;font-stretch:normal;text-indent:0;text-align:start;text-decoration:none;line-height:normal;letter-spacing:normal;word-spacing:normal;text-transform:none;direction:ltr;block-progression:tb;writing-mode:lr-tb;text-anchor:start;opacity:0.2;color:#000000;fill:url(#radialGradient3818);fill-opacity:1;fill-rule:nonzero;stroke:none;stroke-width:0.99999994;marker:none;visibility:visible;display:inline;overflow:visible;enable-background:accumulate;font-family:Andale Mono;-inkscape-font-specification:Andale Mono" />
    </g>
    <g
       transform="translate(2,4.9949648)"
       id="g3195">
      <path
         d="m 179,42.5 a 8.5,6.5 0 1 1 -17,0 8.5,6.5 0 1 1 17,0 z"
         transform="matrix(2.4705884,0,0,3.2307692,-319.73533,-35.807691)"
         id="path3126"
         style="fill:url(#linearGradient3362);fill-opacity:1;stroke:url(#linearGradient3364);stroke-width:0.35395402;stroke-linecap:round;stroke-linejoin:miter;stroke-miterlimit:4;stroke-opacity:1;stroke-dasharray:none" />
      <path
         d="m 97,87 0,10 -10,0 0,9 10,0 0,10 9,0 0,-10 10,0 0,-9 -10,0 0,-10 -9,0 z"
         id="path3128"
         style="fill:#ffffff;fill-opacity:1;stroke:none" />
      <path
         d="m 174.99999,38.852974 a 3.6441751,3.147027 0 1 1 -7.28835,0 3.6441751,3.147027 0 1 1 7.28835,0 z"
         transform="matrix(5.8998264,0,0,6.8318448,-909.46958,-163.93749)"
         id="path3130"
         style="opacity:0.07999998;fill:url(#radialGradient3366);fill-opacity:1;stroke:none" />
      <path
         d="m 175,40.811623 a 4.5368237,3.1883757 0 1 1 -9.07364,0 4.5368237,3.1883757 0 1 1 9.07364,0 z"
         transform="matrix(4.4083706,0,0,6.2727865,-649.96488,-154.5026)"
         id="path3136"
         style="opacity:0.4;fill:none;stroke:url(#linearGradient3372);stroke-width:0.19016503;stroke-miterlimit:4;stroke-opacity:1;stroke-dasharray:none" />
    </g>
    <g
       id="g3929" />
    <g
       transform="translate(2,-0.00140812)"
       id="g3217" />
    <g
       id="g4138" />
    <g
       transform="translate(1,-8.197e-4)"
       id="g3225" />
    <g
       id="g4666" />
    <g
       transform="translate(1,-8.197e-4)"
       id="g3211" />
    <g
       id="g4656" />
    <g
       transform="translate(0,0.9991804)"
       id="g3231" />
  </g>
</svg>
