<?xml version="1.0" encoding="UTF-8" standalone="no"?>
<!-- Created with Inkscape (http://www.inkscape.org/) -->

<svg
   xmlns:svg="http://www.w3.org/2000/svg"
   xmlns="http://www.w3.org/2000/svg"
   xmlns:xlink="http://www.w3.org/1999/xlink"
   version="1.0"
   width="128"
   height="128"
   id="svg11300"
   style="display:inline;enable-background:new">
  <title
     id="title2897">Candy Icon Theme</title>
  <defs
     id="defs3">
    <linearGradient
       id="linearGradient3596">
      <stop
         id="stop3598"
         style="stop-color:#f0f0f0;stop-opacity:1"
         offset="0" />
      <stop
         id="stop3600"
         style="stop-color:#ffffff;stop-opacity:1"
         offset="1" />
    </linearGradient>
    <linearGradient
       id="linearGradient3604">
      <stop
         id="stop3606"
         style="stop-color:#bebebe;stop-opacity:1"
         offset="0" />
      <stop
         id="stop3608"
         style="stop-color:#d7d7d7;stop-opacity:1"
         offset="1" />
    </linearGradient>
    <linearGradient
       id="linearGradient3616">
      <stop
         id="stop3618"
         style="stop-color:#000000;stop-opacity:0"
         offset="0" />
      <stop
         id="stop3620"
         style="stop-color:#000000;stop-opacity:1"
         offset="1" />
    </linearGradient>
    <radialGradient
       cx="158"
       cy="11.484326"
       r="19"
       fx="158"
       fy="11.484326"
       id="radialGradient4087"
       xlink:href="#linearGradient3616"
       gradientUnits="userSpaceOnUse"
       gradientTransform="matrix(4.3434901,6.2386781e-8,-7.1036129e-8,4.5633972,-619.27144,-25.021195)" />
    <linearGradient
       x1="158"
       y1="49"
       x2="158"
       y2="5"
       id="linearGradient4090"
       xlink:href="#linearGradient3596"
       gradientUnits="userSpaceOnUse"
       gradientTransform="matrix(2.7714288,0,0,2.5116278,-370.88573,1.686048)" />
    <linearGradient
       x1="155"
       y1="49"
       x2="155"
       y2="5"
       id="linearGradient4092"
       xlink:href="#linearGradient3604"
       gradientUnits="userSpaceOnUse"
       gradientTransform="matrix(2.7714288,0,0,2.5116278,-370.88573,1.686048)" />
    <filter
       x="-0.085959181"
       y="-0.84240049"
       width="1.1719184"
       height="2.6848011"
       color-interpolation-filters="sRGB"
       id="filter4157">
      <feGaussianBlur
         id="feGaussianBlur4159"
         stdDeviation="3.5099998" />
    </filter>
    <linearGradient
       id="linearGradient6269">
      <stop
         id="stop6271"
         style="stop-color:#c5e774;stop-opacity:1"
         offset="0" />
      <stop
         id="stop6273"
         style="stop-color:#56ad58;stop-opacity:1"
         offset="1" />
    </linearGradient>
    <linearGradient
       id="linearGradient6424">
      <stop
         id="stop6426"
         style="stop-color:#ffffff;stop-opacity:1"
         offset="0" />
      <stop
         id="stop6428"
         style="stop-color:#ffffff;stop-opacity:0"
         offset="1" />
    </linearGradient>
    <linearGradient
       id="linearGradient6532">
      <stop
         id="stop6534"
         style="stop-color:#abd14f;stop-opacity:1"
         offset="0" />
      <stop
         id="stop6536"
         style="stop-color:#4d7b4f;stop-opacity:1"
         offset="1" />
    </linearGradient>
    <radialGradient
       cx="77.5"
       cy="46.749996"
       r="5.5"
       fx="77.5"
       fy="46.749996"
       id="radialGradient3284"
       xlink:href="#linearGradient6424"
       gradientUnits="userSpaceOnUse"
       gradientTransform="matrix(3.090909,-1.6e-5,1.4166667e-6,0.54545456,-271.54549,36.501231)" />
    <linearGradient
       x1="70"
       y1="12.486083"
       x2="70"
       y2="125"
       id="linearGradient3293"
       xlink:href="#linearGradient6269"
       gradientUnits="userSpaceOnUse"
       gradientTransform="matrix(-0.71137601,0,0,0.71181909,100.64336,31.59622)" />
    <linearGradient
       x1="80"
       y1="12.309306"
       x2="80"
       y2="125"
       id="linearGradient3295"
       xlink:href="#linearGradient6532"
       gradientUnits="userSpaceOnUse"
       gradientTransform="matrix(-0.71137601,0,0,0.71181909,100.64336,31.59622)" />
    <radialGradient
       cx="51.084824"
       cy="59.243179"
       r="40.108837"
       fx="51.084824"
       fy="59.243179"
       id="radialGradient4174"
       xlink:href="#linearGradient3616"
       gradientUnits="userSpaceOnUse"
       gradientTransform="matrix(1.4603484,-0.02303482,0.02126345,1.3480486,-24.776532,-19.46666)" />
    <radialGradient
       cx="51.084824"
       cy="59.243179"
       r="40.108837"
       fx="51.084824"
       fy="59.243179"
       id="radialGradient4178"
       xlink:href="#linearGradient6424"
       gradientUnits="userSpaceOnUse"
       gradientTransform="matrix(1.4603484,-0.02303482,0.02126345,1.3480486,-24.776532,-19.46666)" />
  </defs>
  <g
     transform="translate(-3,-4)"
     id="layer1"
     style="display:inline">
    <g
       id="layer6"
       style="display:none" />
    <rect
       width="98"
       height="9.9999933"
       rx="5"
       ry="5"
       x="18"
       y="114"
       id="rect4094"
       style="opacity:0.8;fill:#000000;fill-opacity:1;stroke:none;filter:url(#filter4157)" />
    <g
       id="g3742" />
    <g
       id="g3747" />
    <g
       id="g3752" />
    <g
       id="g3762" />
    <g
       id="g4148">
      <rect
         width="97"
         height="108"
         rx="5"
         ry="5"
         x="18.5"
         y="15.5"
         id="rect3773"
         style="fill:url(#linearGradient4090);fill-opacity:1;stroke:url(#linearGradient4092);stroke-width:0.99999994;stroke-linejoin:round;stroke-miterlimit:4;stroke-opacity:1;stroke-dasharray:none" />
      <rect
         width="98"
         height="109"
         rx="5.5"
         ry="5.5"
         x="18"
         y="14.999993"
         id="rect3775"
         style="opacity:0.07999998;fill:url(#radialGradient4087);fill-opacity:1;stroke:none" />
    </g>
    <g
       id="g3757" />
    <g
       transform="matrix(-1,0,0,1,326,-29)"
       id="g5153" />
    <g
       transform="matrix(-1,0,0,1,291,-22)"
       id="g5222" />
    <g
       transform="matrix(-1,0,0,1,315.99726,-39)"
       id="g5294" />
    <g
       transform="translate(7,0)"
       id="g4132" />
    <g
       transform="translate(6,0)"
       id="g4156" />
    <g
       transform="translate(28,0)"
       id="g4180">
      <path
         d="M 50.48995,40.63393 92.10643,78.5 c 0.848173,0.953971 0.84254,2.156233 0,3 l -41.61648,37.87245 c -0.739137,0.48217 -1.899156,0.29598 -1.98995,-0.5783 L 48.5,99.5 17.05887,99.5 C 15.08726,99.5 13.5,97.58957 13.5,95.618 l 0,-31.229 c 0,-1.97158 1.58726,-3.889 3.55887,-3.889 l 31.44113,0 0,-19.28776 c 0.04224,-1.064478 1.288838,-1.080049 1.98995,-0.57831 z"
         id="rect3760"
         style="fill:url(#linearGradient3293);fill-opacity:1;stroke:url(#linearGradient3295);stroke-width:0.99999988;stroke-opacity:1" />
      <path
         d="M 49.15625,39.84375 C 48.871297,39.896037 48.594738,40.014575 48.375,40.25 48.155262,40.485425 48.014421,40.824068 48,41.1875 L 48,41.21875 48,60 17.0625,60 C 14.766718,60 13,62.135063 13,64.375 l 0,31.25 C 13,97.864928 14.7679,100 17.0625,100 L 48,100 l 0,18.78125 0,0.0312 0,0.0312 c 0.06762,0.65112 0.58424,1.08751 1.125,1.21875 0.54076,0.13124 1.130514,0.0413 1.625,-0.28125 l 0.03125,0 0.03125,-0.0312 41.625,-37.875 0.03125,-0.03125 c 1.009553,-1.011024 0.987509,-2.576812 0,-3.6875 L 92.4375,78.125 50.8125,40.25 50.78125,40.21875 c -0.466596,-0.333912 -1.055095,-0.479573 -1.625,-0.375 z"
         id="path4162"
         style="font-size:medium;font-style:normal;font-variant:normal;font-weight:normal;font-stretch:normal;text-indent:0;text-align:start;text-decoration:none;line-height:normal;letter-spacing:normal;word-spacing:normal;text-transform:none;direction:ltr;block-progression:tb;writing-mode:lr-tb;text-anchor:start;opacity:0.07999998;color:#000000;fill:url(#radialGradient4174);fill-opacity:1;stroke:none;stroke-width:0.99999988;marker:none;visibility:visible;display:inline;overflow:visible;enable-background:accumulate;font-family:Andale Mono;-inkscape-font-specification:Andale Mono" />
      <path
         d="M 49.15625,39.84375 C 48.871297,39.896037 48.594738,40.014575 48.375,40.25 48.155262,40.485425 48.014421,40.824068 48,41.1875 L 48,41.21875 48,60 17.0625,60 C 14.766718,60 13,62.135063 13,64.375 l 0,31.25 C 13,97.864928 14.7679,100 17.0625,100 L 48,100 l 0,18.78125 0,0.0312 0,0.0312 c 0.06762,0.65112 0.58424,1.08751 1.125,1.21875 0.54076,0.13124 1.130514,0.0413 1.625,-0.28125 l 0.03125,0 0.03125,-0.0312 41.625,-37.875 0.03125,-0.03125 c 1.009553,-1.011024 0.987509,-2.576812 0,-3.6875 L 92.4375,78.125 50.8125,40.25 50.78125,40.21875 c -0.466596,-0.333912 -1.055095,-0.479573 -1.625,-0.375 z"
         id="path4176"
         style="font-size:medium;font-style:normal;font-variant:normal;font-weight:normal;font-stretch:normal;text-indent:0;text-align:start;text-decoration:none;line-height:normal;letter-spacing:normal;word-spacing:normal;text-transform:none;direction:ltr;block-progression:tb;writing-mode:lr-tb;text-anchor:start;opacity:0.2;color:#000000;fill:url(#radialGradient4178);fill-opacity:1;stroke:none;stroke-width:0.99999988;marker:none;visibility:visible;display:inline;overflow:visible;enable-background:accumulate;font-family:Andale Mono;-inkscape-font-specification:Andale Mono" />
      <rect
         width="34"
         height="1"
         x="-49"
         y="61"
         transform="scale(-1,1)"
         id="rect4792"
         style="opacity:0.5;fill:url(#radialGradient3284);fill-opacity:1;stroke:none" />
    </g>
  </g>
</svg>
