<?xml version="1.0" encoding="UTF-8" standalone="no"?>
<!-- Created with Inkscape (http://www.inkscape.org/) -->

<svg
   xmlns:svg="http://www.w3.org/2000/svg"
   xmlns="http://www.w3.org/2000/svg"
   xmlns:xlink="http://www.w3.org/1999/xlink"
   version="1.0"
   width="128"
   height="128"
   id="svg11300"
   style="display:inline;enable-background:new">
  <title
     id="title2897">Candy Icon Theme</title>
  <defs
     id="defs3">
    <linearGradient
       id="linearGradient4873">
      <stop
         id="stop4875"
         style="stop-color:#ffffff;stop-opacity:1"
         offset="0" />
      <stop
         id="stop4877"
         style="stop-color:#ffffff;stop-opacity:0"
         offset="1" />
    </linearGradient>
    <linearGradient
       id="linearGradient3955">
      <stop
         id="stop3957"
         style="stop-color:#ed817b;stop-opacity:1"
         offset="0" />
      <stop
         id="stop3959"
         style="stop-color:#cd2b23;stop-opacity:1"
         offset="1" />
    </linearGradient>
    <linearGradient
       id="linearGradient3963">
      <stop
         id="stop3965"
         style="stop-color:#da5a52;stop-opacity:1"
         offset="0" />
      <stop
         id="stop3967"
         style="stop-color:#8f2925;stop-opacity:1"
         offset="1" />
    </linearGradient>
    <linearGradient
       id="linearGradient3973">
      <stop
         id="stop3975"
         style="stop-color:#000000;stop-opacity:0"
         offset="0" />
      <stop
         id="stop3977"
         style="stop-color:#000000;stop-opacity:1"
         offset="1" />
    </linearGradient>
    <filter
       x="-0.11082353"
       y="-0.20552728"
       width="1.2216471"
       height="1.4110546"
       color-interpolation-filters="sRGB"
       id="filter3968">
      <feGaussianBlur
         stdDeviation="4.7099998"
         id="feGaussianBlur3970" />
    </filter>
    <linearGradient
       x1="160.4631"
       y1="13.399958"
       x2="160.4631"
       y2="16.387304"
       id="linearGradient2920"
       xlink:href="#linearGradient4873"
       gradientUnits="userSpaceOnUse"
       gradientTransform="matrix(4.3072884,0,0,4.592017,-624.66084,-47.404628)" />
    <radialGradient
       cx="155.5807"
       cy="20.449406"
       r="11.419299"
       fx="155.5807"
       fy="20.449406"
       id="radialGradient2923"
       xlink:href="#linearGradient4873"
       gradientUnits="userSpaceOnUse"
       gradientTransform="matrix(5.0457576,-1.1168925e-6,1.116893e-6,5.0457599,-718.02254,-76.087383)" />
    <radialGradient
       cx="155.5807"
       cy="20.449406"
       r="11.419299"
       fx="155.5807"
       fy="20.449406"
       id="radialGradient2926"
       xlink:href="#linearGradient3973"
       gradientUnits="userSpaceOnUse"
       gradientTransform="matrix(5.0457576,-1.1168925e-6,1.116893e-6,5.0457599,-718.02254,-76.087383)" />
    <linearGradient
       x1="158"
       y1="7"
       x2="158"
       y2="49"
       id="linearGradient2929"
       xlink:href="#linearGradient3955"
       gradientUnits="userSpaceOnUse"
       gradientTransform="matrix(2.658536,0,0,2.6585366,-353.04868,-5.4390238)" />
    <linearGradient
       x1="160"
       y1="7"
       x2="160"
       y2="49"
       id="linearGradient2931"
       xlink:href="#linearGradient3963"
       gradientUnits="userSpaceOnUse"
       gradientTransform="matrix(2.658536,0,0,2.6585366,-353.04868,-5.4390238)" />
  </defs>
  <g
     transform="translate(-3,-4)"
     id="layer1"
     style="display:inline">
    <g
       id="layer6"
       style="display:none" />
    <path
       d="M 16,69.000005 C 16,99.375674 36.624338,124 67,124 c 30.375662,0 51,-24.624326 51,-54.999995 l -6,0 C 112,93.852826 91.852811,114 67,114 42.147185,114 22,93.852826 22,69.000005 l -6,0 z"
       id="path3019"
       style="opacity:0.8;fill:#000000;fill-opacity:1;stroke:none;filter:url(#filter3968)" />
    <g
       transform="matrix(-1,0,0,1,316,0)"
       id="g2950" />
    <g
       transform="matrix(-1,0,0,1,300,0)"
       id="g2943" />
    <g
       transform="matrix(-1,0,0,1,292,0)"
       id="g4069" />
    <g
       transform="matrix(-1,0,0,1,285.00005,0)"
       id="g4158" />
    <g
       transform="matrix(-1,0,0,1,134,0)"
       id="g3705">
      <path
         d="m 67,14.5 c -30.071232,0 -54.5,24.42878 -54.5,54.5 0,30.071221 24.428768,54.50001 54.5,54.5 30.071207,0 54.50003,-24.428779 54.5,-54.5 C 121.5,38.92878 97.071207,14.5 67,14.5 z m 0,18 c 20.158393,0 36.5,16.341605 36.5,36.5 0,7.34624 -2.17189,14.179973 -5.90625,19.90625 l -50.5,-50.5 C 52.820027,34.671893 59.65376,32.5 67,32.5 z M 36.46875,49 87,99.53125 C 81.254405,103.30373 74.386967,105.5 67,105.5 46.841607,105.5 30.5,89.158395 30.5,69 c 0,-7.386967 2.19627,-14.254405 5.96875,-20 z"
         id="path3056"
         style="fill:url(#linearGradient2929);fill-opacity:1;stroke:url(#linearGradient2931);stroke-width:1;stroke-linecap:round;stroke-linejoin:round;stroke-miterlimit:4;stroke-opacity:1;stroke-dasharray:none;stroke-dashoffset:0;display:inline;enable-background:new" />
      <path
         d="M 68.59375,14 A 55.000012,55.000004 0 0 0 12,69 55.000012,55.000004 0 1 0 122,69 55.000012,55.000004 0 0 0 68.59375,14 z M 67,33 c 19.882252,0 36,16.11775 36,36 0,7.01998 -2.02514,13.556106 -5.5,19.09375 L 47.90625,38.5 C 53.443894,35.025138 59.980019,33 67,33 z M 36.5625,49.78125 86.21875,99.4375 C 80.656442,102.95771 74.069543,105 67,105 47.117748,105 31,88.88225 31,69 31,61.930458 33.042293,55.343558 36.5625,49.78125 z"
         id="path3062"
         style="opacity:0.07999998;fill:url(#radialGradient2926);fill-opacity:1;stroke:none" />
      <path
         d="M 68.59375,14 A 55.000012,55.000004 0 0 0 12,69 55.000012,55.000004 0 1 0 122,69 55.000012,55.000004 0 0 0 68.59375,14 z M 67,33 c 19.882252,0 36,16.11775 36,36 0,7.01998 -2.02514,13.556106 -5.5,19.09375 L 47.90625,38.5 C 53.443894,35.025138 59.980019,33 67,33 z M 36.5625,49.78125 86.21875,99.4375 C 80.656442,102.95771 74.069543,105 67,105 47.117748,105 31,88.88225 31,69 31,61.930458 33.042293,55.343558 36.5625,49.78125 z"
         id="path3064"
         style="opacity:0.2;fill:url(#radialGradient2923);fill-opacity:1;stroke:none" />
      <path
         d="M 120.50001,69 A 53.999997,53.500001 0 1 1 12.500051,69 53.999997,53.500001 0 1 1 120.50001,69 z"
         id="path3068"
         style="opacity:0.5;fill:none;stroke:url(#linearGradient2920);stroke-width:1.00000012;stroke-linecap:butt;stroke-linejoin:miter;stroke-miterlimit:4;stroke-opacity:1;stroke-dasharray:none" />
    </g>
    <g
       transform="matrix(-1,0,0,1,344,0)"
       id="g4117" />
  </g>
</svg>
