<?xml version="1.0" encoding="UTF-8" standalone="no"?>
<!-- Created with Inkscape (http://www.inkscape.org/) -->

<svg
   xmlns:dc="http://purl.org/dc/elements/1.1/"
   xmlns:cc="http://creativecommons.org/ns#"
   xmlns:rdf="http://www.w3.org/1999/02/22-rdf-syntax-ns#"
   xmlns:svg="http://www.w3.org/2000/svg"
   xmlns="http://www.w3.org/2000/svg"
   xmlns:xlink="http://www.w3.org/1999/xlink"
   xmlns:sodipodi="http://sodipodi.sourceforge.net/DTD/sodipodi-0.dtd"
   xmlns:inkscape="http://www.inkscape.org/namespaces/inkscape"
   height="128"
   id="svg11300"
   inkscape:export-filename="/home/jonieno"
   inkscape:export-xdpi="90.000000"
   inkscape:export-ydpi="90.000000"
   inkscape:output_extension="org.inkscape.output.svg.inkscape"
   inkscape:version="0.47 r22583"
   sodipodi:docname="document-save-as.svg"
   sodipodi:version="0.32"
   style="display:inline;enable-background:new"
   version="1.0"
   width="128">
  <title
     id="title2897">Candy Icon Theme</title>
  <defs
     id="defs3">
    <linearGradient
       id="linearGradient4076"
       inkscape:collect="always">
      <stop
         id="stop4078"
         offset="0"
         style="stop-color:#000000;stop-opacity:1;" />
      <stop
         id="stop4080"
         offset="1"
         style="stop-color:#000000;stop-opacity:0;" />
    </linearGradient>
    <linearGradient
       id="linearGradient3710">
      <stop
         id="stop3712"
         offset="0"
         style="stop-color:#ffffff;stop-opacity:1;" />
      <stop
         id="stop3714"
         offset="1"
         style="stop-color:#ffffff;stop-opacity:0;" />
    </linearGradient>
    <linearGradient
       id="linearGradient3700">
      <stop
         id="stop3702"
         offset="0"
         style="stop-color:#000000;stop-opacity:0;" />
      <stop
         id="stop3704"
         offset="1"
         style="stop-color:#000000;stop-opacity:1;" />
    </linearGradient>
    <linearGradient
       id="linearGradient3666">
      <stop
         id="stop3668"
         offset="0"
         style="stop-color:#3c3c3c;stop-opacity:1;" />
      <stop
         id="stop3670"
         offset="1"
         style="stop-color:#1e1e1e;stop-opacity:1;" />
    </linearGradient>
    <linearGradient
       id="linearGradient3650">
      <stop
         id="stop3652"
         offset="0"
         style="stop-color:#5a5a5a;stop-opacity:1;" />
      <stop
         id="stop3654"
         offset="1"
         style="stop-color:#3c3c3c;stop-opacity:1;" />
    </linearGradient>
    <linearGradient
       id="linearGradient3642">
      <stop
         id="stop3644"
         offset="0"
         style="stop-color:#fafafa;stop-opacity:1;" />
      <stop
         id="stop3646"
         offset="1"
         style="stop-color:#f0f0f0;stop-opacity:1;" />
    </linearGradient>
    <linearGradient
       id="linearGradient3636">
      <stop
         id="stop3638"
         offset="0"
         style="stop-color:#b9b9b9;stop-opacity:1;" />
      <stop
         id="stop3640"
         offset="1"
         style="stop-color:#a0a0a0;stop-opacity:1;" />
    </linearGradient>
    <linearGradient
       id="linearGradient3620">
      <stop
         id="stop3622"
         offset="0"
         style="stop-color:#f0f0f0;stop-opacity:1;" />
      <stop
         id="stop3624"
         offset="1"
         style="stop-color:#dcdcdc;stop-opacity:1;" />
    </linearGradient>
    <filter
       color-interpolation-filters="sRGB"
       height="2.6992011"
       id="filter4077"
       inkscape:collect="always"
       width="1.1573333"
       x="-0.078666665"
       y="-0.84960061">
      <feGaussianBlur
         id="feGaussianBlur4079"
         inkscape:collect="always"
         stdDeviation="3.5399998" />
    </filter>
    <radialGradient
       cx="65"
       cy="17.999563"
       fx="65"
       fy="17.999563"
       gradientTransform="matrix(1.8518377,1.8605576e-8,-4.1363755e-8,1.4814702,-55.369452,-6.6658167)"
       gradientUnits="userSpaceOnUse"
       id="radialGradient4080"
       inkscape:collect="always"
       r="54.000412"
       xlink:href="#linearGradient3710" />
    <radialGradient
       cx="65"
       cy="17.999563"
       fx="65"
       fy="17.999563"
       gradientTransform="matrix(1.8518377,1.8605576e-8,-4.1363755e-8,1.4814702,-55.369452,-6.6658167)"
       gradientUnits="userSpaceOnUse"
       id="radialGradient4083"
       inkscape:collect="always"
       r="54.000412"
       xlink:href="#linearGradient3700" />
    <linearGradient
       gradientTransform="matrix(2.6666671,0,0,2.645161,-354.3334,-2.4516116)"
       gradientUnits="userSpaceOnUse"
       id="linearGradient4113"
       inkscape:collect="always"
       x1="157"
       x2="157"
       xlink:href="#linearGradient3642"
       y1="8"
       y2="41" />
    <linearGradient
       gradientTransform="matrix(2.6923077,0,0,2.6764703,-359.38461,-3.9264723)"
       gradientUnits="userSpaceOnUse"
       id="linearGradient4117"
       inkscape:collect="always"
       x1="158"
       x2="158"
       xlink:href="#linearGradient3620"
       y1="6"
       y2="44" />
    <linearGradient
       gradientTransform="matrix(2.6923077,0,0,2.6764703,-359.38461,-3.9264723)"
       gradientUnits="userSpaceOnUse"
       id="linearGradient4119"
       inkscape:collect="always"
       x1="160"
       x2="160"
       xlink:href="#linearGradient3636"
       y1="6"
       y2="44" />
    <radialGradient
       cx="67"
       cy="167.50031"
       fx="67"
       fy="167.50031"
       gradientTransform="matrix(1.0192308,0,0,0.05769231,-1.2884615,108.33652)"
       gradientUnits="userSpaceOnUse"
       id="radialGradient4122"
       inkscape:collect="always"
       r="52"
       xlink:href="#linearGradient4076" />
    <radialGradient
       cx="67"
       cy="168.49992"
       fx="67"
       fy="168.49992"
       gradientTransform="matrix(1.0192308,0,0,0.05769231,-1.2884615,109.27885)"
       gradientUnits="userSpaceOnUse"
       id="radialGradient4125"
       inkscape:collect="always"
       r="52"
       xlink:href="#linearGradient3710" />
    <linearGradient
       gradientTransform="matrix(-1,0,0,1,133,0)"
       gradientUnits="userSpaceOnUse"
       id="linearGradient4128"
       inkscape:collect="always"
       x1="120"
       x2="113"
       xlink:href="#linearGradient3710"
       y1="113"
       y2="113" />
    <linearGradient
       gradientTransform="translate(1,0)"
       gradientUnits="userSpaceOnUse"
       id="linearGradient4131"
       inkscape:collect="always"
       x1="120"
       x2="113"
       xlink:href="#linearGradient3710"
       y1="113"
       y2="113" />
    <linearGradient
       gradientTransform="matrix(2.7435897,0,0,2.2222212,-366.48718,15.722253)"
       gradientUnits="userSpaceOnUse"
       id="linearGradient4134"
       inkscape:collect="always"
       x1="158"
       x2="158"
       xlink:href="#linearGradient3650"
       y1="43"
       y2="49" />
    <linearGradient
       gradientTransform="matrix(2.7435897,0,0,2.2222212,-366.48718,15.722253)"
       gradientUnits="userSpaceOnUse"
       id="linearGradient4136"
       inkscape:collect="always"
       x1="160"
       x2="160"
       xlink:href="#linearGradient3666"
       y1="43"
       y2="49" />
    <radialGradient
       cx="67.202728"
       cy="54.979115"
       fx="67.202728"
       fy="54.979115"
       gradientTransform="matrix(1.5958551,-1.4214295e-8,2.9330276e-8,1.5275859,-40.244989,-75.985792)"
       gradientUnits="userSpaceOnUse"
       id="radialGradient4194"
       r="36.00452"
       xlink:href="#linearGradient6343" />
    <linearGradient
       gradientTransform="matrix(0,-0.63933854,0.63973675,0,23.49869,86.81826)"
       gradientUnits="userSpaceOnUse"
       id="linearGradient4189"
       x1="123.79022"
       x2="10.665289"
       xlink:href="#linearGradient6532-3"
       y1="64.873779"
       y2="64.873779" />
    <linearGradient
       gradientTransform="matrix(0,-0.63933854,0.63973675,0,23.49869,86.81826)"
       gradientUnits="userSpaceOnUse"
       id="linearGradient4187"
       x1="123.5435"
       x2="10.665289"
       xlink:href="#linearGradient6269-6"
       y1="72.689491"
       y2="72.689491" />
    <linearGradient
       id="linearGradient6343">
      <stop
         id="stop6345"
         offset="0"
         style="stop-color:#000000;stop-opacity:0" />
      <stop
         id="stop6347"
         offset="1"
         style="stop-color:#000000;stop-opacity:1" />
    </linearGradient>
    <linearGradient
       id="linearGradient6532-3">
      <stop
         id="stop6534-9"
         offset="0"
         style="stop-color:#abd24e;stop-opacity:1" />
      <stop
         id="stop6536-1"
         offset="1"
         style="stop-color:#4d7b4f;stop-opacity:1" />
    </linearGradient>
    <linearGradient
       id="linearGradient6269-6">
      <stop
         id="stop6271-4"
         offset="0"
         style="stop-color:#c5e774;stop-opacity:1" />
      <stop
         id="stop6273-0"
         offset="1"
         style="stop-color:#56ad58;stop-opacity:1" />
    </linearGradient>
  </defs>
  <sodipodi:namedview
     bordercolor="#666666"
     borderopacity="0.25490196"
     fill="#f57900"
     gridtolerance="12"
     guidetolerance="13"
     height="300px"
     id="base"
     inkscape:current-layer="layer6"
     inkscape:cx="7.94966"
     inkscape:cy="6.184152"
     inkscape:document-units="px"
     inkscape:grid-bbox="true"
     inkscape:guide-bbox="true"
     inkscape:pageopacity="0.0"
     inkscape:pageshadow="2"
     inkscape:showpageshadow="false"
     inkscape:snap-bbox="true"
     inkscape:snap-nodes="true"
     inkscape:window-height="948"
     inkscape:window-maximized="1"
     inkscape:window-width="1280"
     inkscape:window-x="0"
     inkscape:window-y="25"
     inkscape:zoom="1"
     objecttolerance="7"
     pagecolor="#ffffff"
     showgrid="false"
     showguides="true"
     stroke="#ef2929"
     width="400px">
    <inkscape:grid
       empspacing="5"
       enabled="true"
       id="grid5883"
       spacingx="1px"
       spacingy="1px"
       type="xygrid"
       visible="true" />
  </sodipodi:namedview>
  <metadata
     id="metadata4">
    <rdf:RDF>
      <cc:Work
         rdf:about="">
        <dc:format>image/svg+xml</dc:format>
        <dc:type
           rdf:resource="http://purl.org/dc/dcmitype/StillImage" />
        <dc:creator>
          <cc:Agent>
            <dc:title>Jonian Guveli, Olibia Tsati</dc:title>
          </cc:Agent>
        </dc:creator>
        <dc:source />
        <cc:license
           rdf:resource="http://creativecommons.org/licenses/by-sa/3.0/" />
        <dc:title>Candy Icon Theme</dc:title>
        <dc:subject>
          <rdf:Bag />
        </dc:subject>
        <dc:date />
        <dc:rights>
          <cc:Agent>
            <dc:title />
          </cc:Agent>
        </dc:rights>
        <dc:publisher>
          <cc:Agent>
            <dc:title />
          </cc:Agent>
        </dc:publisher>
        <dc:identifier />
        <dc:relation />
        <dc:language />
        <dc:coverage />
        <dc:description />
        <dc:contributor>
          <cc:Agent>
            <dc:title />
          </cc:Agent>
        </dc:contributor>
      </cc:Work>
      <cc:License
         rdf:about="http://creativecommons.org/licenses/by-sa/3.0/">
        <cc:permits
           rdf:resource="http://creativecommons.org/ns#Reproduction" />
        <cc:permits
           rdf:resource="http://creativecommons.org/ns#Distribution" />
        <cc:requires
           rdf:resource="http://creativecommons.org/ns#Notice" />
        <cc:requires
           rdf:resource="http://creativecommons.org/ns#Attribution" />
        <cc:permits
           rdf:resource="http://creativecommons.org/ns#DerivativeWorks" />
        <cc:requires
           rdf:resource="http://creativecommons.org/ns#ShareAlike" />
      </cc:License>
    </rdf:RDF>
  </metadata>
  <g
     id="layer1"
     inkscape:groupmode="layer"
     inkscape:label="actions/document-save-as"
     style="display:inline"
     transform="translate(-3,-4)">
    <g
       id="layer6"
       inkscape:groupmode="layer"
       inkscape:label="plate"
       sodipodi:insensitive="true"
       style="display:none" />
    <rect
       height="9.9999924"
       id="rect4084"
       rx="5"
       ry="5"
       style="opacity:0.8;fill:#000000;fill-opacity:1;stroke:none;filter:url(#filter4077)"
       width="108"
       x="13"
       y="114" />
    <g
       id="g4222">
      <g
         id="text3656"
         style="font-size:1.42518032px;font-style:normal;font-variant:normal;font-weight:normal;font-stretch:normal;opacity:0.8;fill:#000000;fill-opacity:1;stroke:none;font-family:Sawasdee;-inkscape-font-specification:Sawasdee"
         transform="matrix(1.3778607,0,0,0.72576276,0,1)" />
    </g>
    <g
       id="g4138">
      <rect
         height="20"
         id="rect3886"
         rx="4.9999995"
         ry="5"
         style="fill:url(#linearGradient4134);fill-opacity:1;stroke:url(#linearGradient4136);stroke-width:0.99999994;stroke-linecap:round;stroke-linejoin:round;stroke-miterlimit:4;stroke-opacity:1;stroke-dasharray:none;stroke-dashoffset:0.5"
         width="107"
         x="13.5"
         y="103.5" />
      <path
         d="m 113,104 8,0 0,14.5 c 0,3.047 -2.453,5.5 -5.5,5.5 l -2.5,0 0,-20 z"
         id="rect2982"
         sodipodi:nodetypes="cccccc"
         style="opacity:0.2;fill:url(#linearGradient4131);fill-opacity:1;stroke:none" />
      <path
         d="m 21,104 -8,0 0,14.5 c 0,3.047 2.453,5.5 5.5,5.5 l 2.5,0 0,-20 z"
         id="path3884"
         sodipodi:nodetypes="cccccc"
         style="opacity:0.2;fill:url(#linearGradient4128);fill-opacity:1;stroke:none" />
      <rect
         height="1"
         id="rect4058"
         style="opacity:0.3;fill:url(#radialGradient4125);fill-opacity:1;stroke:none"
         width="106"
         x="14"
         y="118" />
      <rect
         height="1"
         id="rect4056"
         style="opacity:0.5;fill:url(#radialGradient4122);fill-opacity:1;stroke:none"
         width="106"
         x="14"
         y="117" />
      <path
         d="m 24.269231,21.499999 85.461539,0 c 2.98308,0 5.38462,2.387408 5.38462,5.352937 L 120.5,107.14705 c 0,2.96553 -4.40154,5.35295 -7.38461,5.35295 l -94.230774,0 C 15.901539,112.5 13.5,110.11258 13.5,107.14705 l 5.384616,-80.294114 c 0,-2.965529 2.401539,-5.352937 5.384615,-5.352937 z"
         id="path3888"
         sodipodi:nodetypes="ccccccccc"
         style="fill:url(#linearGradient4117);fill-opacity:1;stroke:url(#linearGradient4119);stroke-width:0.99999988;stroke-linecap:round;stroke-linejoin:round;stroke-miterlimit:4;stroke-opacity:1;stroke-dashoffset:0.5" />
      <path
         d="m 30.000002,25 -5.666668,5.290321 -2.083331,26.451609 c 4.136532,0.152942 7.416666,1.877056 7.416666,3.96774 0,2.191321 -3.581708,3.967751 -8,3.967751 L 19,101.06451 27.000002,109 107.00002,109 115,101.06451 111.33335,64.677421 c -4.41826,0 -7,-1.77643 -7,-3.967751 0,-2.090684 3.28014,-3.814808 7.41666,-3.96774 L 109.66667,30.290321 104.00002,25 30.000002,25 z"
         id="path3890"
         sodipodi:nodetypes="cccsccccccscccc"
         style="opacity:0.5;fill:#000000;fill-opacity:1;stroke:none" />
      <path
         d="m 29,24 -5.96875,5.28125 -1.90625,26.75 C 21.251844,56.028606 21.37177,56 21.5,56 c 4.69442,0 8.5,1.790861 8.5,4 0,2.209139 -3.80558,4 -8.5,4 -0.320285,0 -0.626416,-0.04626 -0.9375,-0.0625 L 18,100.0625 27,108 l 80,0 9,-7.9375 -2.5625,-36.125 C 113.12642,63.953737 112.82029,64 112.5,64 c -4.69442,0 -8.5,-1.790861 -8.5,-4 0,-2.209139 3.80558,-4 8.5,-4 0.12823,0 0.24816,0.02861 0.375,0.03125 l -1.90625,-26.75 L 105,24 29,24 z"
         id="path3892"
         style="fill:url(#linearGradient4113);fill-opacity:1;stroke:none" />
      <rect
         height="8"
         id="rect4054"
         rx="3"
         ry="3"
         style="opacity:0.5;fill:#000000;fill-opacity:1;stroke:none"
         width="48"
         x="30"
         y="26.5" />
      <path
         d="m 36.216212,37 28.378385,0 C 67.589191,37 70,39.229999 70,42.000001 59.189171,49.499999 40.810803,57 35.405403,57 32.410809,57 30,54.77 30,52 l 0.810811,-9.999999 C 30.810811,39.229999 33.221619,37 36.216212,37 z"
         id="path4052"
         sodipodi:nodetypes="ccccccc"
         style="opacity:0.5;fill:#000000;fill-opacity:1;stroke:none" />
      <path
         d="m 81.333327,27 c 0,15.459933 -14.03757,21.614919 -28.249996,28.543523 C 38.377092,59.10636 27,67.7553 27,77.892861 27,91.206858 44.90861,102 66.999996,102 89.091379,102 107,91.206858 107,77.892861 c 0,-4.472678 -3.0616,-8.630919 -6.58335,-12.22098 L 97.999992,27 81.333327,27 z"
         id="path4050"
         sodipodi:nodetypes="ccsssccc"
         style="opacity:0.5;fill:#000000;fill-opacity:1;stroke:none" />
      <path
         d="m 80.333327,26 c 0,15.459933 -14.03757,21.614919 -28.249996,28.543523 C 37.377092,58.10636 27,66.7553 27,76.892861 27,90.206858 44.90861,101 66.999996,101 89.091379,101 107,90.206858 107,76.892861 c 0,-4.472678 -2.0616,-8.630919 -5.58335,-12.22098 L 98.999992,26 80.333327,26 z"
         id="path3896"
         style="fill:#fafafa;fill-opacity:1;stroke:none" />
      <path
         d="m 167.00001,30.171495 c 0,1.56214 -2.87674,2.828504 -6.42536,2.828504 -3.54863,0 -6.42536,-1.266364 -6.42536,-2.828504 0,-1.562139 2.87673,-2.828503 6.42536,-2.828503 3.54862,0 6.42536,1.266364 6.42536,2.828503 z"
         id="path4048"
         sodipodi:cx="160.57465"
         sodipodi:cy="30.171495"
         sodipodi:rx="6.4253607"
         sodipodi:ry="2.8285038"
         sodipodi:type="arc"
         style="opacity:0.4;fill:#000000;fill-opacity:1;stroke:none"
         transform="matrix(2.4901326,0,0,3.3586661,-332.85216,-24.835979)" />
      <path
         d="m 167.00001,30.171495 c 0,1.56214 -2.87674,2.828504 -6.42536,2.828504 -3.54863,0 -6.42536,-1.266364 -6.42536,-2.828504 0,-1.562139 2.87673,-2.828503 6.42536,-2.828503 3.54862,0 6.42536,1.266364 6.42536,2.828503 z"
         id="path3900"
         sodipodi:cx="160.57465"
         sodipodi:cy="30.171495"
         sodipodi:rx="6.4253607"
         sodipodi:ry="2.8285038"
         sodipodi:type="arc"
         style="fill:#ffffff;fill-opacity:1;stroke:none"
         transform="matrix(2.4901326,0,0,3.3586661,-332.85216,-25.835979)" />
      <path
         d="m 36.216212,36 28.378385,0 C 67.589191,36 70,38.229999 70,41.000001 59.189171,48.499999 40.810803,56 35.405403,56 32.410809,56 30,53.77 30,51 l 0.810811,-9.999999 C 30.810811,38.229999 33.221619,36 36.216212,36 z"
         id="path3904"
         sodipodi:nodetypes="ccccccc"
         style="fill:#fafafa;fill-opacity:1;stroke:none" />
      <rect
         height="8"
         id="rect3912"
         rx="3"
         ry="3"
         style="fill:#ffffff;fill-opacity:1;stroke:none"
         width="48"
         x="30"
         y="26" />
      <g
         id="text4118"
         style="font-size:3.86318159px;font-style:normal;font-variant:normal;font-weight:bold;font-stretch:normal;opacity:0.7;fill:#000000;fill-opacity:1;stroke:none;font-family:Sawasdee;-inkscape-font-specification:Aller Bold"
         transform="matrix(1.01524,0,0,0.98498877,0,3)">
        <path
           d="m 36.133174,27.652184 0.241449,0.156565 c -0.320677,0.425051 -0.726235,0.637576 -1.216676,0.637576 -0.198694,0 -0.389212,-0.03773 -0.571555,-0.113179 -0.181087,-0.07545 -0.337652,-0.176685 -0.469693,-0.303698 -0.130786,-0.127011 -0.235162,-0.278546 -0.313129,-0.454603 -0.07797,-0.177313 -0.116952,-0.363429 -0.116952,-0.55835 0,-0.194918 0.03898,-0.381035 0.116952,-0.558351 0.07797,-0.177312 0.182343,-0.330103 0.313129,-0.458375 0.132041,-0.128267 0.288606,-0.230129 0.469693,-0.305584 0.182343,-0.07545 0.372861,-0.113176 0.571555,-0.113179 0.100602,3e-6 0.198061,0.0094 0.292379,0.02829 0.09431,0.01887 0.177312,0.04276 0.248994,0.07168 0.07168,0.02767 0.141472,0.06225 0.209382,0.103747 0.06791,0.0415 0.124494,0.08112 0.169769,0.118838 0.04527,0.03647 0.08991,0.07797 0.133928,0.124498 0.04401,0.04527 0.07671,0.08111 0.09809,0.10752 0.02137,0.02515 0.04275,0.05282 0.06414,0.083 l -0.237677,0.171655 c -0.03396,-0.04275 -0.06162,-0.07671 -0.083,-0.101861 -0.02138,-0.02515 -0.06539,-0.06728 -0.132042,-0.126384 -0.0654,-0.0591 -0.130158,-0.10626 -0.194291,-0.141474 -0.06414,-0.03647 -0.147764,-0.06979 -0.25088,-0.09998 -0.101863,-0.03018 -0.208126,-0.04527 -0.318788,-0.04527 -0.15971,2e-6 -0.311873,0.03018 -0.456489,0.09054 -0.144619,0.06037 -0.269116,0.141476 -0.373492,0.243335 -0.104377,0.101864 -0.187375,0.223845 -0.248994,0.365946 -0.06036,0.140847 -0.09054,0.289237 -0.09054,0.445171 -10e-7,0.15468 0.03018,0.302441 0.09054,0.443285 0.06162,0.140846 0.143989,0.262828 0.247108,0.365946 0.104375,0.101862 0.228872,0.182974 0.373491,0.243335 0.145874,0.06036 0.298666,0.09054 0.458376,0.09054 0.109405,0 0.21441,-0.01446 0.315015,-0.04339 0.101859,-0.02892 0.186115,-0.06225 0.252767,-0.09997 0.06665,-0.03773 0.130782,-0.08363 0.192404,-0.137702 0.06288,-0.05407 0.107518,-0.09683 0.133929,-0.128269 0.02766,-0.03144 0.0547,-0.06539 0.08111,-0.101862"
           id="path4123" />
        <path
           d="m 38.432597,28.421803 -0.32822,0 c -0.04276,-0.09557 -0.06099,-0.182973 -0.0547,-0.262199 -0.196179,0.196177 -0.411219,0.294266 -0.645121,0.294266 -0.110665,0 -0.209382,-0.01698 -0.296152,-0.05093 -0.08677,-0.03395 -0.155936,-0.0786 -0.207495,-0.133928 -0.0503,-0.05533 -0.08866,-0.114437 -0.115066,-0.177314 -0.02515,-0.06414 -0.03773,-0.128898 -0.03773,-0.194291 0,-0.06791 0.01069,-0.129527 0.03207,-0.184859 0.02138,-0.05659 0.04841,-0.105005 0.08111,-0.145247 0.0327,-0.0415 0.07608,-0.07797 0.130156,-0.109407 0.05407,-0.03269 0.105633,-0.0591 0.154678,-0.07922 0.0503,-0.02012 0.111292,-0.03773 0.182973,-0.05282 0.07294,-0.01509 0.135185,-0.02578 0.186746,-0.03207 0.05282,-0.0075 0.117579,-0.0132 0.194291,-0.01698 0.07671,-0.0038 0.135184,-0.0057 0.175427,-0.0057 0.04024,-0.0013 0.09306,-0.0019 0.158451,-0.0019 -0.01761,-0.157192 -0.07545,-0.281689 -0.173541,-0.373492 -0.09683,-0.0918 -0.206239,-0.137699 -0.32822,-0.137701 -0.03018,2e-6 -0.05911,0.0025 -0.08677,0.0075 -0.02767,0.005 -0.05345,0.01258 -0.07734,0.02264 -0.02389,0.01006 -0.0459,0.02012 -0.06602,0.03018 -0.02012,0.01006 -0.04024,0.02327 -0.06036,0.03961 -0.01886,0.01635 -0.03521,0.03018 -0.04904,0.0415 -0.01258,0.01006 -0.02641,0.02452 -0.0415,0.04338 -0.01509,0.01761 -0.02578,0.03081 -0.03207,0.03961 -0.0063,0.0075 -0.01509,0.01886 -0.02641,0.03395 -0.01132,0.01509 -0.01698,0.02327 -0.01698,0.02452 l -0.245222,-0.150906 c 0.02264,-0.03395 0.0415,-0.06099 0.05659,-0.08111 0.01635,-0.02012 0.04779,-0.05407 0.09432,-0.101862 0.04779,-0.04779 0.09431,-0.08614 0.139588,-0.115065 0.04653,-0.02892 0.10689,-0.05533 0.181086,-0.07922 0.0742,-0.02515 0.150905,-0.03773 0.230131,-0.03773 0.10186,2e-6 0.199949,0.01949 0.294266,0.05848 0.09557,0.03899 0.180456,0.09432 0.254653,0.165996 0.07545,0.07042 0.136442,0.160968 0.182973,0.27163 0.04653,0.109408 0.07105,0.230132 0.07357,0.362173 l 0,0.631917 c -10e-7,0.08551 0.0082,0.171656 0.02452,0.258426 0.01635,0.08551 0.03647,0.151534 0.06036,0.198064 m -1.028044,-0.252767 c 0.123238,0 0.24522,-0.03961 0.365946,-0.118838 0.120723,-0.07923 0.213781,-0.172912 0.279175,-0.281062 l 0,-0.254653 c -0.105635,0.0013 -0.20058,0.005 -0.284834,0.01132 -0.083,0.0063 -0.171656,0.01761 -0.265971,0.03395 -0.09432,0.01635 -0.172914,0.03773 -0.23579,0.06414 -0.06288,0.02641 -0.115066,0.06288 -0.156565,0.109406 -0.0415,0.04653 -0.06225,0.101233 -0.06225,0.16411 -10e-7,0.06539 0.03018,0.127012 0.09054,0.184859 0.06036,0.05785 0.150276,0.08677 0.269744,0.08677"
           id="path4125" />
        <path
           d="m 39.132421,26.505302 c 0.02138,0.06917 0.03458,0.124499 0.03961,0.165996 0.0063,0.0415 0.0094,0.109409 0.0094,0.203723 0.07168,-0.108147 0.160337,-0.201206 0.265971,-0.279175 0.105633,-0.07797 0.207494,-0.11695 0.305584,-0.116952 0.105633,2e-6 0.199949,0.02138 0.282948,0.06414 0.083,0.0415 0.149646,0.09872 0.19995,0.171655 0.0503,0.07294 0.08803,0.155308 0.113179,0.247108 0.02515,0.09054 0.03773,0.187375 0.03773,0.290493 l 0,1.169518 -0.299924,0 0,-1.169518 c -2e-6,-0.05785 -0.0057,-0.113178 -0.01698,-0.165996 -0.01006,-0.05282 -0.02704,-0.104375 -0.05093,-0.154679 -0.0239,-0.05156 -0.05911,-0.09243 -0.105634,-0.12261 -0.04653,-0.03144 -0.102491,-0.04716 -0.167882,-0.04716 -0.08174,10e-7 -0.167884,0.04276 -0.258426,0.128269 -0.09054,0.08426 -0.16411,0.181717 -0.220699,0.29238 -0.05659,0.109407 -0.08488,0.203095 -0.08488,0.281061 l 0,0.958251 -0.298038,0 0,-1.350605 c 0,-0.09683 -0.0082,-0.20435 -0.02452,-0.322561 -0.01509,-0.119465 -0.03521,-0.200576 -0.06036,-0.243335 l 0.333878,0"
           id="path4127" />
        <path
           d="m 42.774903,28.421803 -0.333878,0 c -0.03396,-0.109407 -0.05093,-0.206238 -0.05093,-0.290494 -0.08048,0.09306 -0.177944,0.16914 -0.292379,0.228245 -0.113181,0.05785 -0.225102,0.08677 -0.335765,0.08677 -0.171027,0 -0.327591,-0.04464 -0.469693,-0.133929 -0.142104,-0.08929 -0.253396,-0.208752 -0.333879,-0.358401 -0.07923,-0.150905 -0.118838,-0.314385 -0.118838,-0.490443 0,-0.174797 0.03961,-0.337021 0.118838,-0.48667 0.08048,-0.150904 0.191775,-0.271628 0.333879,-0.362173 0.142102,-0.09054 0.298666,-0.135813 0.469693,-0.135815 0.109405,2e-6 0.221327,0.02893 0.335765,0.08677 0.115693,0.05785 0.213152,0.132673 0.292379,0.224472 l 0,-1.180835 0.299925,0 0,2.252265 c -2e-6,0.09306 0.0082,0.199321 0.02452,0.318788 0.01635,0.118209 0.03647,0.198692 0.06036,0.241449 m -0.384809,-0.958251 c -10e-7,-0.194918 -0.06288,-0.360285 -0.188632,-0.496102 -0.124498,-0.13707 -0.271002,-0.205607 -0.439512,-0.205608 -0.168512,1e-6 -0.316274,0.06854 -0.443285,0.205608 -0.125755,0.135817 -0.188632,0.301184 -0.188632,0.496102 0,0.194921 0.06288,0.360288 0.188632,0.496102 0.127011,0.135816 0.274773,0.203723 0.443285,0.203723 0.16851,0 0.315014,-0.06728 0.439512,-0.201836 0.125753,-0.135815 0.188631,-0.301811 0.188632,-0.497989"
           id="path4129" />
        <path
           d="m 43.003148,26.505302 0.311242,0 0.59985,1.46567 0.584759,-1.46567 0.315015,0 -1.124246,2.835138 -0.318788,0 0.390468,-0.979 -0.7583,-1.856138"
           id="path4131" />
        <path
           d="m 48.307478,25.605528 0.299925,0 0,2.816275 -0.299925,0 0,-1.478875 -1.499624,0 0,1.478875 -0.299924,0 0,-2.816275 0.299924,0 0,1.046907 1.499624,0 0,-1.046907"
           id="path4133" />
        <path
           d="m 50.746488,28.421803 -0.32822,0 c -0.04276,-0.09557 -0.06099,-0.182973 -0.0547,-0.262199 -0.196179,0.196177 -0.411219,0.294266 -0.645121,0.294266 -0.110665,0 -0.209382,-0.01698 -0.296152,-0.05093 -0.08677,-0.03395 -0.155936,-0.0786 -0.207495,-0.133928 -0.0503,-0.05533 -0.08866,-0.114437 -0.115066,-0.177314 -0.02515,-0.06414 -0.03773,-0.128898 -0.03773,-0.194291 0,-0.06791 0.01069,-0.129527 0.03207,-0.184859 0.02138,-0.05659 0.04842,-0.105005 0.08111,-0.145247 0.0327,-0.0415 0.07608,-0.07797 0.130156,-0.109407 0.05407,-0.03269 0.105633,-0.0591 0.154678,-0.07922 0.0503,-0.02012 0.111292,-0.03773 0.182973,-0.05282 0.07294,-0.01509 0.135185,-0.02578 0.186746,-0.03207 0.05282,-0.0075 0.117579,-0.0132 0.19429,-0.01698 0.07671,-0.0038 0.135185,-0.0057 0.175428,-0.0057 0.04024,-0.0013 0.09306,-0.0019 0.158451,-0.0019 -0.01761,-0.157192 -0.07545,-0.281689 -0.173541,-0.373492 -0.09683,-0.0918 -0.206239,-0.137699 -0.32822,-0.137701 -0.03018,2e-6 -0.05911,0.0025 -0.08677,0.0075 -0.02767,0.005 -0.05345,0.01258 -0.07734,0.02264 -0.02389,0.01006 -0.0459,0.02012 -0.06602,0.03018 -0.02012,0.01006 -0.04024,0.02327 -0.06036,0.03961 -0.01886,0.01635 -0.03521,0.03018 -0.04904,0.0415 -0.01258,0.01006 -0.02641,0.02452 -0.0415,0.04338 -0.01509,0.01761 -0.02578,0.03081 -0.03207,0.03961 -0.0063,0.0075 -0.01509,0.01886 -0.02641,0.03395 -0.01132,0.01509 -0.01698,0.02327 -0.01698,0.02452 l -0.245222,-0.150906 c 0.02264,-0.03395 0.0415,-0.06099 0.05659,-0.08111 0.01635,-0.02012 0.04779,-0.05407 0.09432,-0.101862 0.04779,-0.04779 0.09432,-0.08614 0.139587,-0.115065 0.04653,-0.02892 0.106891,-0.05533 0.181087,-0.07922 0.0742,-0.02515 0.150905,-0.03773 0.230131,-0.03773 0.10186,2e-6 0.199949,0.01949 0.294266,0.05848 0.09557,0.03899 0.180456,0.09432 0.254653,0.165996 0.07545,0.07042 0.136442,0.160968 0.182973,0.27163 0.04653,0.109408 0.07105,0.230132 0.07357,0.362173 l 0,0.631917 c -1e-6,0.08551 0.0082,0.171656 0.02452,0.258426 0.01635,0.08551 0.03647,0.151534 0.06036,0.198064 m -1.028044,-0.252767 c 0.123238,0 0.24522,-0.03961 0.365946,-0.118838 0.120723,-0.07923 0.213781,-0.172912 0.279175,-0.281062 l 0,-0.254653 c -0.105635,0.0013 -0.20058,0.005 -0.284834,0.01132 -0.083,0.0063 -0.171656,0.01761 -0.265971,0.03395 -0.09432,0.01635 -0.172914,0.03773 -0.23579,0.06414 -0.06288,0.02641 -0.115066,0.06288 -0.156565,0.109406 -0.0415,0.04653 -0.06225,0.101233 -0.06225,0.16411 -10e-7,0.06539 0.03018,0.127012 0.09054,0.184859 0.06036,0.05785 0.150276,0.08677 0.269744,0.08677"
           id="path4135" />
        <path
           d="m 51.495356,26.790136 c 0.134557,-0.150903 0.288606,-0.257166 0.462149,-0.318787 l 0.375377,0.262198 c -0.10815,2e-6 -0.206239,0.01132 -0.294266,0.03395 -0.08803,0.02138 -0.160338,0.04905 -0.216926,0.083 -0.05659,0.0327 -0.106264,0.07231 -0.14902,0.118838 -0.04276,0.04653 -0.07482,0.09117 -0.0962,0.133928 -0.02138,0.04276 -0.03898,0.08866 -0.05282,0.137702 -0.01258,0.04779 -0.02075,0.08614 -0.02452,0.115065 -0.0025,0.02893 -0.0038,0.05659 -0.0038,0.083 l 0,0.982773 -0.294265,0 0,-1.350605 c -10e-7,-0.09431 -0.0088,-0.201206 -0.02641,-0.320674 -0.01635,-0.119465 -0.03584,-0.201206 -0.05848,-0.245222 l 0.330106,0 c 0.0327,0.09054 0.04904,0.18549 0.04904,0.284834"
           id="path4137" />
        <path
           d="m 54.439902,28.421803 -0.333879,0 c -0.03395,-0.109407 -0.05093,-0.206238 -0.05093,-0.290494 -0.08048,0.09306 -0.177944,0.16914 -0.29238,0.228245 -0.11318,0.05785 -0.225102,0.08677 -0.335764,0.08677 -0.171028,0 -0.327592,-0.04464 -0.469694,-0.133929 -0.142103,-0.08929 -0.253396,-0.208752 -0.333878,-0.358401 -0.07923,-0.150905 -0.118839,-0.314385 -0.118838,-0.490443 -1e-6,-0.174797 0.03961,-0.337021 0.118838,-0.48667 0.08048,-0.150904 0.191775,-0.271628 0.333878,-0.362173 0.142102,-0.09054 0.298666,-0.135813 0.469694,-0.135815 0.109405,2e-6 0.221326,0.02893 0.335764,0.08677 0.115693,0.05785 0.213153,0.132673 0.29238,0.224472 l 0,-1.180835 0.299925,0 0,2.252265 c -2e-6,0.09306 0.0082,0.199321 0.02452,0.318788 0.01635,0.118209 0.03647,0.198692 0.06036,0.241449 m -0.384809,-0.958251 c -2e-6,-0.194918 -0.06288,-0.360285 -0.188632,-0.496102 -0.124499,-0.13707 -0.271003,-0.205607 -0.439512,-0.205608 -0.168513,1e-6 -0.316274,0.06854 -0.443285,0.205608 -0.125756,0.135817 -0.188633,0.301184 -0.188632,0.496102 -1e-6,0.194921 0.06288,0.360288 0.188632,0.496102 0.127011,0.135816 0.274772,0.203723 0.443285,0.203723 0.168509,0 0.315013,-0.06728 0.439512,-0.201836 0.125753,-0.135815 0.18863,-0.301811 0.188632,-0.497989"
           id="path4139" />
        <path
           d="m 56.571442,28.131309 0.324447,0 c 0.213782,10e-7 0.409959,-0.04842 0.588532,-0.145246 0.17857,-0.09809 0.320043,-0.232646 0.424421,-0.403672 0.104375,-0.171026 0.156563,-0.359657 0.156565,-0.565896 -2e-6,-0.207494 -0.05219,-0.396754 -0.156565,-0.567782 -0.104378,-0.172282 -0.245851,-0.307468 -0.424421,-0.405559 -0.178573,-0.09809 -0.37475,-0.14713 -0.588532,-0.147133 l -0.324447,0 0,2.235288 m -0.299925,0.290494 0,-2.816275 0.624372,0 c 0.265341,3e-6 0.509934,0.06225 0.733778,0.186746 0.225099,0.123242 0.403042,0.29301 0.533829,0.509306 0.13204,0.2163 0.198061,0.454604 0.198063,0.714915 -2e-6,0.259055 -0.06602,0.496731 -0.198063,0.713028 -0.130787,0.215041 -0.30873,0.384181 -0.533829,0.50742 -0.223844,0.12324 -0.468437,0.18486 -0.733778,0.18486 l -0.624372,0"
           id="path4141" />
        <path
           d="m 58.963294,25.884703 c 0.0591,3e-6 0.109406,0.02012 0.150905,0.06036 0.04276,0.04024 0.06413,0.08929 0.06414,0.147133 -1e-6,0.05659 -0.02138,0.104379 -0.06414,0.143361 -0.0415,0.03899 -0.0918,0.05848 -0.150905,0.05848 -0.06162,2e-6 -0.11318,-0.01949 -0.154678,-0.05848 -0.0415,-0.03898 -0.06225,-0.08677 -0.06225,-0.143361 0,-0.05784 0.02075,-0.106889 0.06225,-0.147133 0.04276,-0.04024 0.09432,-0.06036 0.154678,-0.06036 m 0.145246,2.5371 -0.298038,0 0,-1.912728 0.298038,0 0,1.912728"
           id="path4143" />
        <path
           d="m 60.798682,26.922179 -0.279175,0.09809 -0.02075,-0.06413 c -0.0239,-0.06539 -0.06099,-0.114436 -0.111293,-0.147133 -0.04904,-0.03395 -0.101862,-0.05093 -0.158451,-0.05093 -0.06665,2e-6 -0.121354,0.01949 -0.16411,0.05848 -0.04276,0.03899 -0.06414,0.08929 -0.06414,0.150905 0,0.04024 0.01635,0.07734 0.04904,0.111293 0.0327,0.0327 0.07545,0.06162 0.128269,0.08677 0.05282,0.02389 0.110664,0.04842 0.173542,0.07357 0.06413,0.02515 0.12764,0.0547 0.190518,0.08866 0.06413,0.03396 0.12261,0.07231 0.175428,0.115066 0.05282,0.04276 0.09557,0.09809 0.128269,0.165996 0.03269,0.06791 0.04904,0.144618 0.04904,0.230131 -2e-6,0.178572 -0.06665,0.325705 -0.19995,0.441399 -0.133301,0.115694 -0.291123,0.173541 -0.473466,0.173541 -0.104377,0 -0.201837,-0.02012 -0.29238,-0.06036 -0.09054,-0.0415 -0.169769,-0.108149 -0.237676,-0.19995 -0.06791,-0.09306 -0.111293,-0.20498 -0.130156,-0.335765 l -0.0094,-0.06414 0.296152,-0.03584 0.0094,0.06036 c 0.01635,0.11821 0.05848,0.206238 0.126384,0.264085 0.06791,0.05785 0.148389,0.08677 0.241448,0.08677 0.09935,0 0.186745,-0.03018 0.262199,-0.09054 0.07545,-0.06162 0.113178,-0.141473 0.113179,-0.239562 -10e-7,-0.05533 -0.01698,-0.103747 -0.05093,-0.145247 -0.0327,-0.04275 -0.07545,-0.07797 -0.128269,-0.105634 -0.05282,-0.02892 -0.111294,-0.05596 -0.175428,-0.08111 -0.06288,-0.02641 -0.126384,-0.0547 -0.190518,-0.08489 -0.06414,-0.03018 -0.122612,-0.0635 -0.175428,-0.09997 -0.05282,-0.03773 -0.0962,-0.08677 -0.130156,-0.147132 -0.0327,-0.06036 -0.04905,-0.129526 -0.04904,-0.207496 -10e-7,-0.149646 0.05156,-0.269113 0.154678,-0.3584 0.104376,-0.08928 0.228873,-0.133927 0.373491,-0.133929 0.06665,2e-6 0.13267,0.01069 0.198064,0.03207 0.06539,0.02138 0.131412,0.06288 0.198063,0.124497 0.06791,0.06162 0.118837,0.13896 0.152792,0.232017 l 0.02075,0.05848"
           id="path4145" />
        <path
           d="m 61.649413,28.421803 -0.299925,0 0,-2.816275 0.299925,0 0,1.543009 0.739437,-0.643235 0.447057,0 -0.869593,0.756414 1.043135,1.160087 -0.386696,0 -0.875252,-0.975227 -0.09809,0.08488 0,0.890343"
           id="path4147" />
        <path
           d="m 64.954243,28.131309 0.324447,0 c 0.213782,10e-7 0.409959,-0.04842 0.588532,-0.145246 0.17857,-0.09809 0.320043,-0.232646 0.424422,-0.403672 0.104374,-0.171026 0.156562,-0.359657 0.156564,-0.565896 -2e-6,-0.207494 -0.05219,-0.396754 -0.156564,-0.567782 -0.104379,-0.172282 -0.245852,-0.307468 -0.424422,-0.405559 -0.178573,-0.09809 -0.37475,-0.14713 -0.588532,-0.147133 l -0.324447,0 0,2.235288 m -0.299924,0.290494 0,-2.816275 0.624371,0 c 0.265341,3e-6 0.509934,0.06225 0.733778,0.186746 0.225099,0.123242 0.403042,0.29301 0.533829,0.509306 0.13204,0.2163 0.198061,0.454604 0.198063,0.714915 -2e-6,0.259055 -0.06602,0.496731 -0.198063,0.713028 -0.130787,0.215041 -0.30873,0.384181 -0.533829,0.50742 -0.223844,0.12324 -0.468437,0.18486 -0.733778,0.18486 l -0.624371,0"
           id="path4149" />
        <path
           d="m 67.491343,26.790136 c 0.134557,-0.150903 0.288606,-0.257166 0.462148,-0.318787 l 0.375378,0.262198 c -0.10815,2e-6 -0.206239,0.01132 -0.294266,0.03395 -0.08803,0.02138 -0.160338,0.04905 -0.216927,0.083 -0.05659,0.0327 -0.106263,0.07231 -0.149019,0.118838 -0.04276,0.04653 -0.07482,0.09117 -0.0962,0.133928 -0.02138,0.04276 -0.03899,0.08866 -0.05282,0.137702 -0.01258,0.04779 -0.02075,0.08614 -0.02452,0.115065 -0.0025,0.02893 -0.0038,0.05659 -0.0038,0.083 l 0,0.982773 -0.294266,0 0,-1.350605 c 0,-0.09431 -0.0088,-0.201206 -0.02641,-0.320674 -0.01635,-0.119465 -0.03584,-0.201206 -0.05848,-0.245222 l 0.330106,0 c 0.0327,0.09054 0.04904,0.18549 0.04904,0.284834"
           id="path4151" />
        <path
           d="m 68.734429,25.884703 c 0.0591,3e-6 0.109406,0.02012 0.150906,0.06036 0.04276,0.04024 0.06413,0.08929 0.06413,0.147133 0,0.05659 -0.02138,0.104379 -0.06413,0.143361 -0.0415,0.03899 -0.0918,0.05848 -0.150906,0.05848 -0.06162,2e-6 -0.113179,-0.01949 -0.154678,-0.05848 -0.0415,-0.03898 -0.06225,-0.08677 -0.06225,-0.143361 0,-0.05784 0.02075,-0.106889 0.06225,-0.147133 0.04276,-0.04024 0.09431,-0.06036 0.154678,-0.06036 m 0.145247,2.5371 -0.298039,0 0,-1.912728 0.298039,0 0,1.912728"
           id="path4153" />
        <path
           d="m 69.185258,26.505302 0.320674,0 0.586645,1.211017 0.588532,-1.211017 0.32256,0 -0.903547,1.944795 -0.914864,-1.944795"
           id="path4155" />
        <path
           d="m 71.554474,27.248512 1.197813,0 c -0.04024,-0.143359 -0.116325,-0.259682 -0.228245,-0.348969 -0.110665,-0.08928 -0.233905,-0.133927 -0.369719,-0.133929 -0.1333,2e-6 -0.255911,0.04464 -0.367832,0.133929 -0.110664,0.08929 -0.188004,0.20561 -0.232017,0.348969 m -0.03395,0.279175 c 0.01509,0.181088 0.08363,0.331993 0.205609,0.452717 0.121981,0.119467 0.262197,0.1792 0.420649,0.1792 0.124496,0 0.24019,-0.03144 0.347083,-0.09432 0.10689,-0.06413 0.196804,-0.157821 0.269744,-0.281061 l 0.256539,0.137701 c -0.04905,0.08677 -0.106265,0.163481 -0.171655,0.230131 -0.06539,0.06539 -0.1289,0.116323 -0.190518,0.152792 -0.06162,0.03647 -0.126385,0.06602 -0.194291,0.08866 -0.06791,0.02264 -0.126385,0.0371 -0.175428,0.04339 -0.04779,0.0063 -0.09495,0.0094 -0.141474,0.0094 -0.171027,0 -0.327591,-0.04464 -0.469693,-0.133929 -0.142104,-0.08929 -0.253396,-0.208752 -0.333879,-0.358401 -0.07922,-0.150905 -0.118838,-0.314385 -0.118838,-0.490443 0,-0.174797 0.04087,-0.337021 0.122611,-0.48667 0.08174,-0.150904 0.19429,-0.271628 0.337651,-0.362173 0.143359,-0.09054 0.299924,-0.135813 0.469693,-0.135815 0.162223,2e-6 0.31187,0.04087 0.448944,0.122611 0.137071,0.08174 0.247106,0.191777 0.330106,0.330105 0.083,0.137074 0.131412,0.287351 0.145247,0.450831 l 0.0075,0.145246 -1.565645,0"
           id="path4157" />
      </g>
      <path
         d="m 24.28125,21 c -3.238147,0 -5.888865,2.589401 -5.90625,5.8125 -5.7e-5,0.01063 0,0.02061 0,0.03125 L 13,106.125 c -3.25e-4,0.0104 -3.25e-4,0.0208 0,0.0312 0,0.0382 -3.18e-4,0.10251 0,0.15625 1.27e-4,0.0215 -8.86e-4,0.0376 0,0.0625 -7.3e-5,0.0413 0,0.096 0,0.125 l 0,12 c 0,3.03835 2.461649,5.5 5.5,5.5 l 97,0 c 3.03835,0 5.5,-2.46165 5.5,-5.5 l 0,-12 c 0,-0.0457 7.7e-4,-0.11969 0,-0.1875 0.001,-0.028 6e-5,-0.0414 0,-0.0625 -8e-5,-0.0316 0,-0.0764 0,-0.0937 3.2e-4,-0.0104 3.2e-4,-0.0208 0,-0.0312 L 115.625,26.8438 c 0,-0.01064 6e-5,-0.02062 0,-0.03125 C 115.60762,23.589401 112.9569,21 109.71875,21 l -85.4375,0 z"
         id="rect3156"
         sodipodi:nodetypes="csccsssccccccsssccscc"
         style="font-size:medium;font-style:normal;font-variant:normal;font-weight:normal;font-stretch:normal;text-indent:0;text-align:start;text-decoration:none;line-height:normal;letter-spacing:normal;word-spacing:normal;text-transform:none;direction:ltr;block-progression:tb;writing-mode:lr-tb;text-anchor:start;opacity:0.07999998;color:#000000;fill:url(#radialGradient4083);fill-opacity:1;fill-rule:nonzero;stroke:none;stroke-width:0.99999994;marker:none;visibility:visible;display:inline;overflow:visible;enable-background:accumulate;font-family:Aller;-inkscape-font-specification:Aller" />
      <path
         d="m 24.28125,21 c -3.238147,0 -5.888865,2.589401 -5.90625,5.8125 -5.7e-5,0.01063 0,0.02061 0,0.03125 L 13,106.125 c -3.25e-4,0.0104 -3.25e-4,0.0208 0,0.0312 0,0.0382 -3.18e-4,0.10251 0,0.15625 1.27e-4,0.0215 -8.86e-4,0.0376 0,0.0625 -7.3e-5,0.0413 0,0.096 0,0.125 l 0,12 c 0,3.03835 2.461649,5.5 5.5,5.5 l 97,0 c 3.03835,0 5.5,-2.46165 5.5,-5.5 l 0,-12 c 0,-0.0457 7.7e-4,-0.11969 0,-0.1875 0.001,-0.028 6e-5,-0.0414 0,-0.0625 -8e-5,-0.0316 0,-0.0764 0,-0.0937 3.2e-4,-0.0104 3.2e-4,-0.0208 0,-0.0312 L 115.625,26.8438 c 0,-0.01064 6e-5,-0.02062 0,-0.03125 C 115.60762,23.589401 112.9569,21 109.71875,21 l -85.4375,0 z"
         id="path3945"
         sodipodi:nodetypes="csccsssccccccsssccscc"
         style="font-size:medium;font-style:normal;font-variant:normal;font-weight:normal;font-stretch:normal;text-indent:0;text-align:start;text-decoration:none;line-height:normal;letter-spacing:normal;word-spacing:normal;text-transform:none;direction:ltr;block-progression:tb;writing-mode:lr-tb;text-anchor:start;opacity:0.2;color:#000000;fill:url(#radialGradient4080);fill-opacity:1;fill-rule:nonzero;stroke:none;stroke-width:0.99999994;marker:none;visibility:visible;display:inline;overflow:visible;enable-background:accumulate;font-family:Aller;-inkscape-font-specification:Aller" />
    </g>
    <g
       id="g3748" />
    <g
       id="g3720" />
    <g
       id="g3734" />
    <g
       id="g3870" />
    <g
       id="g4126" />
    <g
       id="g4150" />
    <g
       id="g4099" />
    <g
       id="g4049" />
    <g
       id="g4092" />
    <g
       id="g4203">
      <path
         d="m 20.5,8.5 c -2.770048,0 -5,2.23 -5,5 l 0,9 c 0,2.77 2.229952,5 5,5 l 29,0 0,13 -17.375,0 c -0.357624,0 -0.638208,0.497297 -0.625,0.90625 0.0044,0.136318 0.04431,0.256061 0.125,0.34375 l 34.40625,37.40625 c 0.431923,0.47162 1.505577,0.47162 1.9375,0 L 102.375,41.75 c 0.31093,-0.337893 -0.0406,-1.25 -0.5,-1.25 l -17.375,0 0,-13 29,0 c 2.77005,0 5,-2.23 5,-5 l 0,-9 c 0,-2.77 -2.22995,-5 -5,-5 l -34,0 -25,0 -34,0 z"
         id="rect3760"
         style="fill:url(#linearGradient4187);fill-opacity:1;stroke:url(#linearGradient4189);stroke-width:0.99999994;stroke-opacity:1" />
      <rect
         height="18"
         id="rect4197"
         rx="4.5"
         ry="4.5"
         style="opacity:0.9;fill:#ffffff;fill-opacity:1;stroke:none"
         width="102"
         x="16"
         y="9" />
      <path
         d="m 20,8 c -2.770048,0 -5,2.23 -5,5 l 0,10 c 0,2.77 2.229952,5 5,5 l 29,0 0,12 -16.875,0 c -0.410572,0 -0.704101,0.266377 -0.875,0.53125 -0.170899,0.264873 -0.260502,0.581066 -0.25,0.90625 0.0072,0.224317 0.07136,0.462113 0.25,0.65625 L 65.65625,79.5 C 66.011577,79.88798 66.51919,80 67,80 c 0.48081,0 0.988423,-0.11202 1.34375,-0.5 L 102.75,42.09375 c 0.37085,-0.403006 0.27563,-0.898806 0.125,-1.28125 -0.0753,-0.191222 -0.18697,-0.377702 -0.34375,-0.53125 C 102.37447,40.127702 102.15531,40 101.875,40 L 85,40 l 0,-12 29,0 c 2.77005,0 5,-2.23 5,-5 l 0,-10 c 0,-2.77 -2.22995,-5 -5,-5 L 79.5,8 54.5,8 20,8 z"
         id="path3950"
         style="font-size:medium;font-style:normal;font-variant:normal;font-weight:normal;font-stretch:normal;text-indent:0;text-align:start;text-decoration:none;line-height:normal;letter-spacing:normal;word-spacing:normal;text-transform:none;direction:ltr;block-progression:tb;writing-mode:lr-tb;text-anchor:start;opacity:0.07999998;color:#000000;fill:url(#radialGradient4194);fill-opacity:1;stroke:none;stroke-width:0.99999994;marker:none;visibility:visible;display:inline;overflow:visible;enable-background:accumulate;font-family:Andale Mono;-inkscape-font-specification:Andale Mono" />
      <rect
         height="12"
         id="rect4199"
         rx="0.5"
         ry="0.5"
         style="opacity:0.15;fill:#000000;fill-opacity:1;stroke:none"
         width="41"
         x="19"
         y="12" />
      <rect
         height="12"
         id="rect4201"
         style="opacity:0.8;fill:#000000;fill-opacity:1;stroke:none"
         width="1"
         x="62"
         y="12" />
    </g>
  </g>
</svg>
