<?xml version="1.0" encoding="UTF-8" standalone="no"?>
<!-- Created with Inkscape (http://www.inkscape.org/) -->

<svg
   xmlns:svg="http://www.w3.org/2000/svg"
   xmlns="http://www.w3.org/2000/svg"
   xmlns:xlink="http://www.w3.org/1999/xlink"
   version="1.0"
   width="128"
   height="128"
   id="svg11300"
   style="display:inline;enable-background:new">
  <title
     id="title2897">Candy Icon Theme</title>
  <defs
     id="defs3">
    <linearGradient
       id="linearGradient4873">
      <stop
         id="stop4875"
         style="stop-color:#ffffff;stop-opacity:1"
         offset="0" />
      <stop
         id="stop4877"
         style="stop-color:#ffffff;stop-opacity:0"
         offset="1" />
    </linearGradient>
    <linearGradient
       id="linearGradient3955">
      <stop
         id="stop3957"
         style="stop-color:#6da3dd;stop-opacity:1"
         offset="0" />
      <stop
         id="stop3959"
         style="stop-color:#316297;stop-opacity:1"
         offset="1" />
    </linearGradient>
    <linearGradient
       id="linearGradient3963">
      <stop
         id="stop3965"
         style="stop-color:#4a85c4;stop-opacity:1"
         offset="0" />
      <stop
         id="stop3967"
         style="stop-color:#2b4561;stop-opacity:1"
         offset="1" />
    </linearGradient>
    <linearGradient
       id="linearGradient3973">
      <stop
         id="stop3975"
         style="stop-color:#000000;stop-opacity:0"
         offset="0" />
      <stop
         id="stop3977"
         style="stop-color:#000000;stop-opacity:1"
         offset="1" />
    </linearGradient>
    <filter
       x="-0.092352942"
       y="-0.17127272"
       width="1.1847059"
       height="1.3425455"
       color-interpolation-filters="sRGB"
       id="filter4440">
      <feGaussianBlur
         stdDeviation="3.925"
         id="feGaussianBlur4442" />
    </filter>
    <linearGradient
       x1="160.4631"
       y1="13.399958"
       x2="160.4631"
       y2="16.387304"
       id="linearGradient3907"
       xlink:href="#linearGradient4873"
       gradientUnits="userSpaceOnUse"
       gradientTransform="matrix(4.2674063,0,0,4.588118,-617.76127,-47.305786)" />
    <radialGradient
       cx="155.5807"
       cy="20.449406"
       r="11.419299"
       fx="155.5807"
       fy="20.449406"
       id="radialGradient3910"
       xlink:href="#linearGradient4873"
       gradientUnits="userSpaceOnUse"
       gradientTransform="matrix(5.0457576,-1.1168925e-6,1.116893e-6,5.0457599,-718.02254,-76.087383)" />
    <radialGradient
       cx="155.5807"
       cy="20.449406"
       r="11.419299"
       fx="155.5807"
       fy="20.449406"
       id="radialGradient3913"
       xlink:href="#linearGradient3973"
       gradientUnits="userSpaceOnUse"
       gradientTransform="matrix(5.0457576,-1.1168925e-6,1.116893e-6,5.0457599,-718.02254,-76.087383)" />
    <linearGradient
       x1="158"
       y1="7"
       x2="158"
       y2="49"
       id="linearGradient3918"
       xlink:href="#linearGradient3955"
       gradientUnits="userSpaceOnUse"
       gradientTransform="matrix(2.658536,0,0,2.6585366,-353.04868,-5.4390238)" />
    <linearGradient
       x1="160"
       y1="7"
       x2="160"
       y2="49"
       id="linearGradient3920"
       xlink:href="#linearGradient3963"
       gradientUnits="userSpaceOnUse"
       gradientTransform="matrix(2.658536,0,0,2.6585366,-353.04868,-5.4390238)" />
  </defs>
  <g
     transform="translate(-3,-4)"
     id="layer1"
     style="display:inline">
    <g
       id="layer6"
       style="display:none" />
    <path
       d="m 16,69.5 c 0,30.375662 20.624338,55 51,55 30.375662,0 51,-24.624338 51,-55 l -6,0 c 0,24.852814 -20.147189,45 -45,45 -24.852815,0 -45,-20.147186 -45,-45 l -6,0 z"
       id="path4386"
       style="fill:#000000;fill-opacity:1;stroke:none;filter:url(#filter4440)" />
    <g
       id="g3898" />
    <g
       id="g3888" />
    <g
       id="g3872" />
    <g
       id="g3864" />
    <g
       id="g3934">
      <path
         d="M 67.000037,14.500001 C 36.928805,14.500001 12.500022,38.92878 12.500022,69 c 0,30.071221 24.428783,54.50002 54.500015,54.50001 30.071207,0 54.500013,-24.428789 54.499983,-54.50001 0,-30.07122 -24.428776,-54.499999 -54.499983,-54.499999 z"
         id="path3056"
         style="fill:url(#linearGradient3918);fill-opacity:1;stroke:url(#linearGradient3920);stroke-width:1;stroke-linecap:round;stroke-linejoin:round;stroke-miterlimit:4;stroke-opacity:1;stroke-dasharray:none;stroke-dashoffset:0;display:inline;enable-background:new" />
      <path
         d="m 59.496112,38.984876 c 1.65975,15.256704 3.560881,30.408408 4.973731,45.724868 1.421024,0 3.087801,0 4.508823,0 1.171928,-14.708662 3.062157,-29.328444 4.42573,-44.018873 0.695075,-3.478488 -1.202772,-7.608537 -5.106052,-8.453655 -3.857054,-1.061206 -8.166353,1.566678 -8.679231,5.320404 -0.08526,0.471218 -0.123001,0.949464 -0.123001,1.427256 l 0,0 z m -0.491874,62.029464 c -0.1755,4.54134 5.134454,8.1013 9.668157,6.66153 4.391176,-1.05464 6.704103,-6.24851 4.4536,-9.94043 -2.014573,-3.816437 -7.922254,-5.073896 -11.320656,-2.152995 -1.717802,1.328105 -2.856427,3.310795 -2.801101,5.431895 l 0,0 z"
         id="path3932"
         style="font-size:62.4582634px;font-style:normal;font-variant:normal;font-weight:normal;font-stretch:normal;text-align:start;line-height:125%;writing-mode:lr-tb;text-anchor:start;opacity:0.4;fill:#000000;fill-opacity:1;stroke:none;font-family:Georgia" />
      <path
         d="m 59.496112,39.984876 c 1.65975,15.256704 3.560881,30.408408 4.973731,45.724868 1.421024,0 3.087801,0 4.508823,0 1.171928,-14.708662 3.062157,-29.328444 4.42573,-44.018873 0.695075,-3.478488 -1.202772,-7.608537 -5.106052,-8.453655 -3.857054,-1.061206 -8.166353,1.566678 -8.679231,5.320404 -0.08526,0.471218 -0.123001,0.949464 -0.123001,1.427256 l 0,0 z m -0.491874,62.029464 c -0.1755,4.54134 5.134454,8.1013 9.668157,6.66153 4.391176,-1.05464 6.704103,-6.24851 4.4536,-9.94043 -2.014573,-3.816437 -7.922254,-5.073896 -11.320656,-2.152995 -1.717802,1.328105 -2.856427,3.310795 -2.801101,5.431895 l 0,0 z"
         id="path3896"
         style="font-size:62.4582634px;font-style:normal;font-variant:normal;font-weight:normal;font-stretch:normal;text-align:start;line-height:125%;writing-mode:lr-tb;text-anchor:start;fill:#ffffff;fill-opacity:1;stroke:none;font-family:Georgia" />
      <path
         d="m 122.00002,68.999999 a 55.000012,55.000004 0 1 1 -110.000022,0 55.000012,55.000004 0 1 1 110.000022,0 z"
         id="path3062"
         style="opacity:0.07999998;fill:url(#radialGradient3913);fill-opacity:1;stroke:none" />
      <path
         d="m 122.00002,68.999999 a 55.000012,55.000004 0 1 1 -110.000022,0 55.000012,55.000004 0 1 1 110.000022,0 z"
         id="path3064"
         style="opacity:0.2;fill:url(#radialGradient3910);fill-opacity:1;stroke:none" />
      <path
         d="m 120.49998,69.000004 a 53.5,53.454574 0 1 1 -106.999963,0 53.5,53.454574 0 1 1 106.999963,0 z"
         id="path3068"
         style="opacity:0.5;fill:none;stroke:url(#linearGradient3907);stroke-width:1.00000012;stroke-linecap:butt;stroke-linejoin:miter;stroke-miterlimit:4;stroke-opacity:1;stroke-dasharray:none" />
    </g>
    <g
       id="g3880" />
  </g>
</svg>
