<?xml version="1.0" encoding="UTF-8" standalone="no"?>
<!-- Created with Inkscape (http://www.inkscape.org/) -->

<svg
   xmlns:svg="http://www.w3.org/2000/svg"
   xmlns="http://www.w3.org/2000/svg"
   xmlns:xlink="http://www.w3.org/1999/xlink"
   version="1.0"
   width="128"
   height="128"
   id="svg11300"
   style="display:inline;enable-background:new">
  <title
     id="title2897">Candy Icon Theme</title>
  <defs
     id="defs3">
    <linearGradient
       id="linearGradient4873">
      <stop
         id="stop4875"
         style="stop-color:#ffffff;stop-opacity:1"
         offset="0" />
      <stop
         id="stop4877"
         style="stop-color:#ffffff;stop-opacity:0"
         offset="1" />
    </linearGradient>
    <linearGradient
       id="linearGradient3955">
      <stop
         id="stop3957"
         style="stop-color:#63493d;stop-opacity:1"
         offset="0" />
      <stop
         id="stop3959"
         style="stop-color:#3d312c;stop-opacity:1"
         offset="1" />
    </linearGradient>
    <linearGradient
       id="linearGradient3963">
      <stop
         id="stop3965"
         style="stop-color:#382f2c;stop-opacity:1"
         offset="0" />
      <stop
         id="stop3967"
         style="stop-color:#161616;stop-opacity:1"
         offset="1" />
    </linearGradient>
    <linearGradient
       id="linearGradient3973">
      <stop
         id="stop3975"
         style="stop-color:#000000;stop-opacity:0"
         offset="0" />
      <stop
         id="stop3977"
         style="stop-color:#000000;stop-opacity:1"
         offset="1" />
    </linearGradient>
    <filter
       x="-0.078792453"
       y="-0.83520001"
       width="1.1575849"
       height="2.6703999"
       color-interpolation-filters="sRGB"
       id="filter5461">
      <feGaussianBlur
         stdDeviation="3.48"
         id="feGaussianBlur5463" />
    </filter>
    <radialGradient
       cx="67"
       cy="67.499985"
       r="48"
       fx="67"
       fy="67.499985"
       id="radialGradient2957"
       xlink:href="#linearGradient4873"
       gradientUnits="userSpaceOnUse"
       gradientTransform="matrix(1.0208333,0,0,0.0625,-1.3958352,11.781251)" />
    <radialGradient
       cx="66.937157"
       cy="20.139093"
       r="50.855583"
       fx="66.937157"
       fy="20.139093"
       id="radialGradient2960"
       xlink:href="#linearGradient4873"
       gradientUnits="userSpaceOnUse"
       gradientTransform="matrix(1.6841186,5.0939275e-8,0.00525444,1.484992,-45.887634,-13.749455)" />
    <radialGradient
       cx="66.937157"
       cy="20.139093"
       r="50.855583"
       fx="66.937157"
       fy="20.139093"
       id="radialGradient2963"
       xlink:href="#linearGradient3973"
       gradientUnits="userSpaceOnUse"
       gradientTransform="matrix(1.6841186,5.0939275e-8,0.00525444,1.484992,-45.887634,-13.749455)" />
    <linearGradient
       x1="64.943535"
       y1="17.969599"
       x2="64.622932"
       y2="120.0006"
       id="linearGradient2968"
       xlink:href="#linearGradient3955"
       gradientUnits="userSpaceOnUse"
       gradientTransform="matrix(1.098977,0,0,1.0792081,-6.613838,-5.4653827)" />
    <linearGradient
       x1="69.943321"
       y1="18.03783"
       x2="69.622932"
       y2="120.0006"
       id="linearGradient2970"
       xlink:href="#linearGradient3963"
       gradientUnits="userSpaceOnUse"
       gradientTransform="matrix(1.098977,0,0,1.0792081,-6.613838,-5.4653827)" />
  </defs>
  <g
     transform="translate(-3,-4)"
     id="layer1"
     style="display:inline">
    <g
       id="layer6"
       style="display:none" />
    <rect
       width="106"
       height="10"
       rx="5"
       ry="5"
       x="14"
       y="114"
       id="rect4300"
       style="opacity:0.8;fill:#000000;fill-opacity:1;stroke:none;filter:url(#filter5461)" />
    <g
       id="g3949" />
    <g
       id="g3743" />
    <g
       id="g3987">
      <rect
         width="110.68262"
         height="109.00056"
         rx="10"
         ry="9.9999418"
         x="11.437903"
         y="14.500066"
         transform="matrix(1,0,0.00319977,0.99999488,0,0)"
         id="rect4254"
         style="fill:url(#linearGradient2968);fill-opacity:1;stroke:url(#linearGradient2970);stroke-width:1.00000274;stroke-opacity:1" />
      <path
         d="M 67,30 C 60.452579,30 54.269596,31.582194 48.8125,34.375 35.866755,41.000311 27,54.46803 27,70 c 0,22.080039 17.920217,40 40,40 22.077837,0 40,-17.919722 40,-40 C 107,47.920719 89.077782,30 67,30 z m 3.0625,2.125 c 6.194312,0.493951 11.969661,2.488069 16.96875,5.59375 l -1.21875,-0.4375 -2.84375,0.6875 -1.8125,1.1875 0,1.03125 -2.84375,1.875 0.625,2.71875 1.65625,-1.1875 1.0625,1.1875 1.1875,0.6875 0.71875,-2.0625 -0.4375,-1.15625 0.4375,-0.875 1.6875,-1.53125 0.75,0 -0.75,1.71875 0,1.5625 c 0.690463,-0.187869 1.38708,-0.287138 2.09375,-0.375 l -1.96875,1.34375 -0.125,0.875 -2.28125,1.84375 -2.25,-0.46875 0,-1.375 -1.0625,0.6875 0.4375,1.15625 -1.59375,0 -0.9375,1.5625 -1.125,1.28125 -2.03125,0.375 1.1875,1.25 0.3125,1.1875 -1.5,0 -1.9375,0.96875 0,3.09375 0.875,0 0.8125,0.9375 1.90625,-0.9375 0.75,-1.84375 1.375,-0.875 L 78.5,53.125 80.71875,52.65625 81.90625,54 83.25,54.6875 l -0.71875,1.46875 1.15625,-0.3125 0.625,-1.53125 -1.46875,-1.65625 0.59375,0 1.5,1.15625 0.3125,1.6875 1.375,1.53125 0.21875,-2.21875 0.8125,-0.3125 c 0.743046,0.771284 1.311679,1.66321 1.9375,2.53125 l 2.21875,0.1875 1.375,0.875 -0.5625,0.8125 -1.375,1.21875 -1.96875,0 -2.53125,-0.875 -1.375,0.1875 -1,1.0625 -2.71875,-2.78125 -2,-0.5 -2.84375,0.3125 -2.53125,0.6875 c -1.43351,1.625053 -2.861894,3.249823 -4.21875,4.9375 l -1.65625,3.90625 0.71875,0.875 -1.34375,2.03125 1.53125,3.59375 c 1.277825,1.445383 2.505324,2.866065 3.78125,4.3125 l 1.9375,-1.59375 0.8125,0.9375 2.03125,-1.3125 0.6875,0.8125 2.03125,0 1.125,1.28125 -0.6875,2.375 1.4375,1.59375 -0.0625,2.78125 1.03125,2.0625 -0.78125,1.71875 c -0.0751,1.251492 -0.125,2.467037 -0.125,3.71875 0.615928,1.695734 1.199717,3.417086 1.78125,5.125 l 0.4375,2.71875 0,1.375 1.0625,0 1.65625,-1.0625 2,0 L 92.375,97.0625 92,96.03125 93.9375,94.28125 92.5,92.6875 94.21875,91.25 l 1.6875,-1.0625 0.75,-0.84375 -0.4375,-1.875 0,-4.75 1.375,-2.90625 1.59375,-1.875 1.8125,-4.375 0,-1.25 c -0.86288,0.108579 -1.718928,0.18657 -2.5625,0.25 l 1.75,-1.71875 2.46875,-1.75 1.375,-1.46875 0,-1.75 c -0.30082,-0.567261 -0.63474,-1.089016 -0.9375,-1.65625 L 101.90625,65.5625 101,64.53125 l -1.3125,-1 0,-2.21875 1.5625,1.78125 1.71875,-0.25 c 0.551,0.500142 1.08604,0.988609 1.59375,1.5 C 104.83863,66.192734 105,68.07371 105,70 c 0,20.999356 -17.003175,38 -38,38 -6.31546,0 -12.261485,-1.55944 -17.5,-4.28125 l 1.09375,-1.09375 0.4375,-1.15625 1.9375,-0.6875 L 54.375,97.0625 53.96875,96.09375 55,94.53125 l 2.1875,-0.5 1.15625,-2.71875 -0.3125,-3.34375 1.75,-2.53125 0.3125,-2.53125 C 57.699451,81.695258 55.345161,80.496816 52.96875,79.25 l -1.1875,-2.40625 -2.15625,-0.5 L 48.4375,73.1875 45.53125,73.5 43.0625,71.625 40.375,74 l 0,0.375 C 39.580541,74.141172 38.613788,74.131123 37.90625,73.6875 L 37.34375,72 l 0,-1.84375 -1.71875,0.125 c 0.145817,-1.179085 0.259269,-2.35238 0.40625,-3.53125 l -1.03125,0 -1,1.375 -1.0625,0.46875 -1.40625,-0.78125 -0.1875,-1.875 0.3125,-2.03125 2.15625,-1.6875 1.8125,0 0.25,-1.03125 2.21875,0.5625 1.59375,1.96875 0.25,-3.34375 2.8125,-2.34375 0.96875,-2.53125 2.0625,-0.875 1.15625,-1.6875 2.6875,-0.46875 1.28125,-2.0625 -3.96875,0 2.5,-1.15625 1.71875,0 2.5,-0.8125 0.3125,-1.0625 -0.875,-0.8125 -1,-0.34375 0.25,-1 -0.6875,-1.5 -1.78125,0.625 0.3125,-1.28125 -2.0625,-1.1875 -1.59375,2.84375 0.125,1 -1.5625,0.6875 -1.0625,2.15625 -0.4375,-2 -2.78125,-1.15625 -0.4375,-1.5625 3.65625,-2.15625 1.625,-1.53125 L 45.75,38.5 l 0.03125,0 c 0.934527,-0.630237 1.883809,-1.234456 2.875,-1.78125 L 48.6875,37 l -1.375,1.09375 -0.78125,2 1.65625,0 0.625,-1.3125 0.1875,-0.5 c 0.70586,-0.499153 1.374746,-0.988274 2.09375,-1.46875 l 1.6875,0.53125 c 1.090782,0.740967 2.127047,1.447637 3.21875,2.1875 l 1.6875,-1.4375 -1.8125,-0.75 L 55.0625,35.6875 51.90625,35.3125 51.875,35.15625 C 51.990614,35.106007 52.10254,35.049123 52.21875,35 l 1,0.1875 0.8125,-0.75 1.59375,-0.375 c 0.414142,-0.201577 0.831494,-0.306039 1.25,-0.46875 l -1.0625,1.03125 3.78125,2.53125 0,1.5 -1.5,1.5 2,3.875 1.3125,-0.71875 L 63,40.6875 c 2.328711,-0.719895 4.429343,-1.539792 6.625,-2.53125 l -0.0625,0.4375 1.1875,0.75 1.90625,-1.3125 -0.96875,-1.09375 -1.3125,0.71875 -0.0625,0 1.875,-4.6875 -2.125,-0.84375 z m -21.25,6.65625 1.625,1.125 1.28125,0 0,-1.3125 -1.59375,-0.75 -1.3125,0.9375 z m 11.25,-6.125 -2.75,0.75 c 0.42992,-0.156832 0.88603,-0.315714 1.34375,-0.46875 0.464617,-0.104068 0.935356,-0.194354 1.40625,-0.28125 z m 28.46875,7.0625 1.4375,0 c 0.456183,0.34643 0.904053,0.727496 1.34375,1.09375 L 90.5,41.75 88.53125,39.71875 z m -14.6875,1.84375 0,1.0625 0.625,0.71875 0,1.6875 -0.3125,2.21875 1.78125,-0.375 1.3125,-1.28125 -1.125,-1.125 C 75.740046,43.444072 75.325408,42.545304 74.84375,41.5625 l -1,0 z m -1.5,2.15625 -1.15625,0.375 0.3125,2.0625 1.46875,-0.75 -0.625,-1.6875 z m -18.75,5.21875 0.5,2.59375 L 55,50.03125 53.59375,48.9375 z M 92.75,62.15625 l 1.71875,1.9375 2.0625,4.3125 1.15625,1.375 -0.59375,1.5625 L 98.25,72.625 c -0.535347,0.03682 -1.043007,0.0625 -1.59375,0.0625 -0.956864,-2.010792 -1.708632,-4.021439 -2.4375,-6.125 L 93,65.15625 l -0.6875,-2.5 0.4375,-0.5 z M 29,69.5625 31.96875,71.34375 35,72.125 l 1.28125,1.75 2.0625,1.46875 1.1875,-0.1875 0.84375,0.4375 0,0.25 -1.15625,3.21875 -0.875,1.375 0.3125,0.65625 -0.75,2.5 2.65625,4.875 2.625,2.34375 1.15625,1.75 -0.1875,3.53125 0.9375,1.96875 -0.625,2.5625 C 35.08041,93.708606 29,82.56515 29,70 c 0,-0.145675 -0.0016,-0.292214 0,-0.4375 z"
         id="path3985"
         style="font-size:medium;font-style:normal;font-variant:normal;font-weight:normal;font-stretch:normal;text-indent:0;text-align:start;text-decoration:none;line-height:normal;letter-spacing:normal;word-spacing:normal;text-transform:none;direction:ltr;block-progression:tb;writing-mode:lr-tb;text-anchor:start;opacity:0.5;color:#000000;fill:#000000;fill-opacity:1;stroke:none;stroke-width:2;marker:none;visibility:visible;display:inline;overflow:visible;enable-background:new;font-family:Andale Mono;-inkscape-font-specification:Andale Mono" />
      <path
         d="M 67,31 C 60.452579,31 54.269596,32.582194 48.8125,35.375 35.866755,42.000311 27,55.46803 27,71 c 0,22.080039 17.920217,40 40,40 22.077837,0 40,-17.919722 40,-40 C 107,48.920719 89.077782,31 67,31 z m 3.0625,2.125 c 6.194312,0.493951 11.969661,2.488069 16.96875,5.59375 l -1.21875,-0.4375 -2.84375,0.6875 -1.8125,1.1875 0,1.03125 -2.84375,1.875 0.625,2.71875 1.65625,-1.1875 1.0625,1.1875 1.1875,0.6875 0.71875,-2.0625 -0.4375,-1.15625 0.4375,-0.875 1.6875,-1.53125 0.75,0 -0.75,1.71875 0,1.5625 c 0.690463,-0.187869 1.38708,-0.287138 2.09375,-0.375 l -1.96875,1.34375 -0.125,0.875 -2.28125,1.84375 -2.25,-0.46875 0,-1.375 -1.0625,0.6875 0.4375,1.15625 -1.59375,0 -0.9375,1.5625 -1.125,1.28125 -2.03125,0.375 1.1875,1.25 0.3125,1.1875 -1.5,0 -1.9375,0.96875 0,3.09375 0.875,0 0.8125,0.9375 1.90625,-0.9375 0.75,-1.84375 1.375,-0.875 L 78.5,54.125 80.71875,53.65625 81.90625,55 83.25,55.6875 l -0.71875,1.46875 1.15625,-0.3125 0.625,-1.53125 -1.46875,-1.65625 0.59375,0 1.5,1.15625 0.3125,1.6875 1.375,1.53125 0.21875,-2.21875 0.8125,-0.3125 c 0.743046,0.771284 1.311679,1.66321 1.9375,2.53125 l 2.21875,0.1875 1.375,0.875 -0.5625,0.8125 -1.375,1.21875 -1.96875,0 -2.53125,-0.875 -1.375,0.1875 -1,1.0625 -2.71875,-2.78125 -2,-0.5 -2.84375,0.3125 -2.53125,0.6875 c -1.43351,1.625053 -2.861894,3.249823 -4.21875,4.9375 l -1.65625,3.90625 0.71875,0.875 -1.34375,2.03125 1.53125,3.59375 c 1.277825,1.445383 2.505324,2.866065 3.78125,4.3125 l 1.9375,-1.59375 0.8125,0.9375 2.03125,-1.3125 0.6875,0.8125 2.03125,0 1.125,1.28125 -0.6875,2.375 1.4375,1.59375 -0.0625,2.78125 1.03125,2.0625 -0.78125,1.71875 c -0.0751,1.251492 -0.125,2.467037 -0.125,3.71875 0.615928,1.695734 1.199717,3.417086 1.78125,5.125 l 0.4375,2.71875 0,1.375 1.0625,0 1.65625,-1.0625 2,0 L 92.375,98.0625 92,97.03125 93.9375,95.28125 92.5,93.6875 94.21875,92.25 l 1.6875,-1.0625 0.75,-0.84375 -0.4375,-1.875 0,-4.75 1.375,-2.90625 1.59375,-1.875 1.8125,-4.375 0,-1.25 c -0.86288,0.108579 -1.718928,0.18657 -2.5625,0.25 l 1.75,-1.71875 2.46875,-1.75 1.375,-1.46875 0,-1.75 c -0.30082,-0.567261 -0.63474,-1.089016 -0.9375,-1.65625 L 101.90625,66.5625 101,65.53125 l -1.3125,-1 0,-2.21875 1.5625,1.78125 1.71875,-0.25 c 0.551,0.500142 1.08604,0.988609 1.59375,1.5 C 104.83863,67.192734 105,69.07371 105,71 c 0,20.999356 -17.003175,38 -38,38 -6.31546,0 -12.261485,-1.55944 -17.5,-4.28125 l 1.09375,-1.09375 0.4375,-1.15625 1.9375,-0.6875 L 54.375,98.0625 53.96875,97.09375 55,95.53125 l 2.1875,-0.5 1.15625,-2.71875 -0.3125,-3.34375 1.75,-2.53125 0.3125,-2.53125 C 57.699451,82.695258 55.345161,81.496816 52.96875,80.25 l -1.1875,-2.40625 -2.15625,-0.5 L 48.4375,74.1875 45.53125,74.5 43.0625,72.625 40.375,75 l 0,0.375 C 39.580541,75.141172 38.613788,75.131123 37.90625,74.6875 L 37.34375,73 l 0,-1.84375 -1.71875,0.125 c 0.145817,-1.179085 0.259269,-2.35238 0.40625,-3.53125 l -1.03125,0 -1,1.375 -1.0625,0.46875 -1.40625,-0.78125 -0.1875,-1.875 0.3125,-2.03125 2.15625,-1.6875 1.8125,0 0.25,-1.03125 2.21875,0.5625 1.59375,1.96875 0.25,-3.34375 2.8125,-2.34375 0.96875,-2.53125 2.0625,-0.875 1.15625,-1.6875 2.6875,-0.46875 1.28125,-2.0625 -3.96875,0 2.5,-1.15625 1.71875,0 2.5,-0.8125 0.3125,-1.0625 -0.875,-0.8125 -1,-0.34375 0.25,-1 -0.6875,-1.5 -1.78125,0.625 0.3125,-1.28125 -2.0625,-1.1875 -1.59375,2.84375 0.125,1 -1.5625,0.6875 -1.0625,2.15625 -0.4375,-2 -2.78125,-1.15625 -0.4375,-1.5625 3.65625,-2.15625 1.625,-1.53125 L 45.75,39.5 l 0.03125,0 c 0.934527,-0.630237 1.883809,-1.234456 2.875,-1.78125 L 48.6875,38 l -1.375,1.09375 -0.78125,2 1.65625,0 0.625,-1.3125 0.1875,-0.5 c 0.70586,-0.499153 1.374746,-0.988274 2.09375,-1.46875 l 1.6875,0.53125 c 1.090782,0.740967 2.127047,1.447637 3.21875,2.1875 l 1.6875,-1.4375 -1.8125,-0.75 L 55.0625,36.6875 51.90625,36.3125 51.875,36.15625 C 51.990614,36.106007 52.10254,36.049123 52.21875,36 l 1,0.1875 0.8125,-0.75 1.59375,-0.375 c 0.414142,-0.201577 0.831494,-0.306039 1.25,-0.46875 l -1.0625,1.03125 3.78125,2.53125 0,1.5 -1.5,1.5 2,3.875 1.3125,-0.71875 L 63,41.6875 c 2.328711,-0.719895 4.429343,-1.539792 6.625,-2.53125 l -0.0625,0.4375 1.1875,0.75 1.90625,-1.3125 -0.96875,-1.09375 -1.3125,0.71875 -0.0625,0 1.875,-4.6875 -2.125,-0.84375 z m -21.25,6.65625 1.625,1.125 1.28125,0 0,-1.3125 -1.59375,-0.75 -1.3125,0.9375 z m 11.25,-6.125 -2.75,0.75 c 0.42992,-0.156832 0.88603,-0.315714 1.34375,-0.46875 0.464617,-0.104068 0.935356,-0.194354 1.40625,-0.28125 z m 28.46875,7.0625 1.4375,0 c 0.456183,0.34643 0.904053,0.727496 1.34375,1.09375 L 90.5,42.75 88.53125,40.71875 z m -14.6875,1.84375 0,1.0625 0.625,0.71875 0,1.6875 -0.3125,2.21875 1.78125,-0.375 1.3125,-1.28125 -1.125,-1.125 C 75.740046,44.444072 75.325408,43.545304 74.84375,42.5625 l -1,0 z m -1.5,2.15625 -1.15625,0.375 0.3125,2.0625 1.46875,-0.75 -0.625,-1.6875 z m -18.75,5.21875 0.5,2.59375 L 55,51.03125 53.59375,49.9375 z M 92.75,63.15625 l 1.71875,1.9375 2.0625,4.3125 1.15625,1.375 -0.59375,1.5625 L 98.25,73.625 c -0.535347,0.03682 -1.043007,0.0625 -1.59375,0.0625 -0.956864,-2.010792 -1.708632,-4.021439 -2.4375,-6.125 L 93,66.15625 l -0.6875,-2.5 0.4375,-0.5 z M 29,70.5625 31.96875,72.34375 35,73.125 l 1.28125,1.75 2.0625,1.46875 1.1875,-0.1875 0.84375,0.4375 0,0.25 -1.15625,3.21875 -0.875,1.375 0.3125,0.65625 -0.75,2.5 2.65625,4.875 2.625,2.34375 1.15625,1.75 -0.1875,3.53125 0.9375,1.96875 -0.625,2.5625 C 35.08041,94.708606 29,83.56515 29,71 c 0,-0.145675 -0.0016,-0.292214 0,-0.4375 z"
         id="path3959"
         style="font-size:medium;font-style:normal;font-variant:normal;font-weight:normal;font-stretch:normal;text-indent:0;text-align:start;text-decoration:none;line-height:normal;letter-spacing:normal;word-spacing:normal;text-transform:none;direction:ltr;block-progression:tb;writing-mode:lr-tb;text-anchor:start;color:#000000;fill:#ffffff;fill-opacity:1;stroke:none;stroke-width:2;marker:none;visibility:visible;display:inline;overflow:visible;enable-background:new;font-family:Andale Mono;-inkscape-font-specification:Andale Mono" />
      <rect
         width="111.68256"
         height="110.00056"
         rx="10.5"
         ry="10.5"
         x="10.937956"
         y="14.000072"
         transform="matrix(1,0,0.00319933,0.99999488,0,0)"
         id="rect4272"
         style="opacity:0.07999998;fill:url(#radialGradient2963);fill-opacity:1;stroke:none" />
      <rect
         width="111.68256"
         height="110.00056"
         rx="10.5"
         ry="10.5"
         x="10.937956"
         y="14.000072"
         transform="matrix(1,0,0.00319933,0.99999488,0,0)"
         id="rect4278"
         style="opacity:0.2;fill:url(#radialGradient2960);fill-opacity:1;stroke:none" />
      <rect
         width="98"
         height="1"
         x="18"
         y="15"
         id="rect4282"
         style="opacity:0.5;fill:url(#radialGradient2957);fill-opacity:1;stroke:none" />
    </g>
    <g
       id="g3715" />
    <g
       id="g3726" />
    <g
       transform="translate(-13.00016,115.00017)"
       id="layer6-1"
       style="display:none">
      <rect
         width="48"
         height="48"
         x="134"
         y="3.9999974"
         id="rect6284-5"
         style="fill:#eeeeec;fill-opacity:1;fill-rule:nonzero;stroke:none;stroke-width:2;marker:none;visibility:visible;display:inline;overflow:visible;enable-background:accumulate" />
      <rect
         width="128"
         height="128"
         x="3"
         y="4"
         id="rect6282-9"
         style="fill:#eeeeec;fill-opacity:1;fill-rule:nonzero;stroke:none;stroke-width:2;marker:none;visibility:visible;display:inline;overflow:visible;enable-background:accumulate" />
    </g>
  </g>
</svg>
