<?xml version="1.0" encoding="UTF-8" standalone="no"?>
<!-- Created with Inkscape (http://www.inkscape.org/) -->

<svg
   xmlns:svg="http://www.w3.org/2000/svg"
   xmlns="http://www.w3.org/2000/svg"
   xmlns:xlink="http://www.w3.org/1999/xlink"
   version="1.0"
   width="128"
   height="128"
   id="svg11300"
   style="display:inline;enable-background:new">
  <title
     id="title2897">Candy Icon Theme</title>
  <defs
     id="defs3">
    <linearGradient
       id="linearGradient4873">
      <stop
         id="stop4875"
         style="stop-color:#ffffff;stop-opacity:1"
         offset="0" />
      <stop
         id="stop4877"
         style="stop-color:#ffffff;stop-opacity:0"
         offset="1" />
    </linearGradient>
    <linearGradient
       id="linearGradient3955">
      <stop
         id="stop3957"
         style="stop-color:#63493d;stop-opacity:1"
         offset="0" />
      <stop
         id="stop3959"
         style="stop-color:#3d312c;stop-opacity:1"
         offset="1" />
    </linearGradient>
    <linearGradient
       id="linearGradient3963">
      <stop
         id="stop3965"
         style="stop-color:#382f2c;stop-opacity:1"
         offset="0" />
      <stop
         id="stop3967"
         style="stop-color:#161616;stop-opacity:1"
         offset="1" />
    </linearGradient>
    <linearGradient
       id="linearGradient3973">
      <stop
         id="stop3975"
         style="stop-color:#000000;stop-opacity:0"
         offset="0" />
      <stop
         id="stop3977"
         style="stop-color:#000000;stop-opacity:1"
         offset="1" />
    </linearGradient>
    <filter
       x="-0.078792453"
       y="-0.83520001"
       width="1.1575849"
       height="2.6703999"
       color-interpolation-filters="sRGB"
       id="filter5461">
      <feGaussianBlur
         stdDeviation="3.48"
         id="feGaussianBlur5463" />
    </filter>
    <radialGradient
       cx="67"
       cy="67.499985"
       r="48"
       fx="67"
       fy="67.499985"
       id="radialGradient3979"
       xlink:href="#linearGradient4873"
       gradientUnits="userSpaceOnUse"
       gradientTransform="matrix(1.0208333,0,0,0.0625,-1.3958352,11.781251)" />
    <radialGradient
       cx="66.937157"
       cy="20.139093"
       r="50.855583"
       fx="66.937157"
       fy="20.139093"
       id="radialGradient3982"
       xlink:href="#linearGradient4873"
       gradientUnits="userSpaceOnUse"
       gradientTransform="matrix(1.6841186,5.0939275e-8,0.00525444,1.484992,-45.887634,-13.749455)" />
    <radialGradient
       cx="66.937157"
       cy="20.139093"
       r="50.855583"
       fx="66.937157"
       fy="20.139093"
       id="radialGradient3985"
       xlink:href="#linearGradient3973"
       gradientUnits="userSpaceOnUse"
       gradientTransform="matrix(1.6841186,5.0939275e-8,0.00525444,1.484992,-45.887634,-13.749455)" />
    <linearGradient
       x1="64.943535"
       y1="17.969599"
       x2="64.622932"
       y2="120.0006"
       id="linearGradient3990"
       xlink:href="#linearGradient3955"
       gradientUnits="userSpaceOnUse"
       gradientTransform="matrix(1.098977,0,0,1.0792081,-6.613838,-5.4653827)" />
    <linearGradient
       x1="69.943321"
       y1="18.03783"
       x2="69.622932"
       y2="120.0006"
       id="linearGradient3992"
       xlink:href="#linearGradient3963"
       gradientUnits="userSpaceOnUse"
       gradientTransform="matrix(1.098977,0,0,1.0792081,-6.613838,-5.4653827)" />
  </defs>
  <g
     transform="translate(-3,-4)"
     id="layer1"
     style="display:inline">
    <g
       id="layer6"
       style="display:none" />
    <rect
       width="106"
       height="10"
       rx="5"
       ry="5"
       x="14"
       y="114"
       id="rect4300"
       style="opacity:0.8;fill:#000000;fill-opacity:1;stroke:none;filter:url(#filter5461)" />
    <g
       id="g4005" />
    <g
       id="g4021" />
    <g
       id="g4031" />
    <g
       id="g3994">
      <rect
         width="110.68262"
         height="109.00056"
         rx="10"
         ry="9.9999418"
         x="11.437903"
         y="14.500066"
         transform="matrix(1,0,0.00319977,0.99999488,0,0)"
         id="rect4254"
         style="fill:url(#linearGradient3990);fill-opacity:1;stroke:url(#linearGradient3992);stroke-width:1.00000274;stroke-opacity:1" />
      <path
         d="m 67.000002,29 c 2.632123,0 11.118068,22.26314 13.247493,23.888052 2.129428,1.624894 24.911695,3.221571 25.725075,5.850723 0.81332,2.629173 -16.724303,17.985206 -17.53771,20.614376 -0.81335,2.629138 4.780944,25.879089 2.65149,27.503979 -2.1294,1.62494 -21.454225,-11.147647 -24.086348,-11.147647 -2.632124,0 -21.956975,12.772587 -24.086375,11.147647 -2.129455,-1.62489 3.464841,-24.874841 2.651436,-27.503979 C 44.751684,76.723981 27.214054,61.367948 28.027433,58.738775 28.840811,56.109623 51.623054,54.512946 53.752481,52.888052 55.881934,51.26314 64.367878,29 67.000002,29 z"
         id="path3958"
         style="opacity:0.5;fill:#000000;fill-opacity:1;fill-rule:nonzero;stroke:none;stroke-width:1;marker:none;visibility:visible;display:inline;overflow:visible" />
      <path
         d="m 67.000002,30 c 2.632123,0 11.118068,22.26314 13.247493,23.888052 2.129428,1.624894 24.911695,3.221571 25.725075,5.850723 0.81332,2.629173 -16.724303,17.985206 -17.53771,20.614376 -0.81335,2.629138 4.780944,25.879089 2.65149,27.503979 -2.1294,1.62494 -21.454225,-11.147647 -24.086348,-11.147647 -2.632124,0 -21.956975,12.772587 -24.086375,11.147647 -2.129455,-1.62489 3.464841,-24.874841 2.651436,-27.503979 C 44.751684,77.723981 27.214054,62.367948 28.027433,59.738775 28.840811,57.109623 51.623054,55.512946 53.752481,53.888052 55.881934,52.26314 64.367878,30 67.000002,30 z"
         id="path3956"
         style="fill:#ffffff;fill-opacity:1;fill-rule:nonzero;stroke:none;stroke-width:1;marker:none;visibility:visible;display:inline;overflow:visible" />
      <rect
         width="111.68256"
         height="110.00056"
         rx="10.5"
         ry="10.5"
         x="10.937956"
         y="14.000072"
         transform="matrix(1,0,0.00319933,0.99999488,0,0)"
         id="rect4272"
         style="opacity:0.07999998;fill:url(#radialGradient3985);fill-opacity:1;stroke:none" />
      <rect
         width="111.68256"
         height="110.00056"
         rx="10.5"
         ry="10.5"
         x="10.937956"
         y="14.000072"
         transform="matrix(1,0,0.00319933,0.99999488,0,0)"
         id="rect4278"
         style="opacity:0.2;fill:url(#radialGradient3982);fill-opacity:1;stroke:none" />
      <rect
         width="98"
         height="1"
         x="18"
         y="15"
         id="rect4282"
         style="opacity:0.5;fill:url(#radialGradient3979);fill-opacity:1;stroke:none" />
    </g>
    <g
       id="g4041" />
    <g
       id="g4051" />
  </g>
</svg>
