<?xml version="1.0" encoding="UTF-8" standalone="no"?>
<!-- Created with Inkscape (http://www.inkscape.org/) -->

<svg
   xmlns:svg="http://www.w3.org/2000/svg"
   xmlns="http://www.w3.org/2000/svg"
   xmlns:xlink="http://www.w3.org/1999/xlink"
   version="1.0"
   width="128"
   height="128"
   id="svg11300"
   style="display:inline;enable-background:new">
  <title
     id="title2897">Candy Icon Theme</title>
  <defs
     id="defs3">
    <linearGradient
       id="linearGradient8647">
      <stop
         id="stop8649"
         style="stop-color:#5493d8;stop-opacity:1"
         offset="0" />
      <stop
         id="stop8651"
         style="stop-color:#1e4e82;stop-opacity:1"
         offset="1" />
    </linearGradient>
    <linearGradient
       id="linearGradient8740">
      <stop
         id="stop8742"
         style="stop-color:#ffffff;stop-opacity:1"
         offset="0" />
      <stop
         id="stop8744"
         style="stop-color:#ffffff;stop-opacity:0"
         offset="1" />
    </linearGradient>
    <linearGradient
       id="linearGradient8918">
      <stop
         id="stop8920"
         style="stop-color:#c5e774;stop-opacity:1"
         offset="0" />
      <stop
         id="stop3718"
         style="stop-color:#8dca66;stop-opacity:1"
         offset="0.5" />
      <stop
         id="stop8922"
         style="stop-color:#56ad58;stop-opacity:1"
         offset="1" />
    </linearGradient>
    <linearGradient
       id="linearGradient12422">
      <stop
         id="stop12424"
         style="stop-color:#3b76b5;stop-opacity:1"
         offset="0" />
      <stop
         id="stop12426"
         style="stop-color:#19314b;stop-opacity:1"
         offset="1" />
    </linearGradient>
    <linearGradient
       id="linearGradient12436">
      <stop
         id="stop12438"
         style="stop-color:#000000;stop-opacity:0"
         offset="0" />
      <stop
         id="stop12440"
         style="stop-color:#000000;stop-opacity:1"
         offset="1" />
    </linearGradient>
    <filter
       x="-0.11076923"
       y="-0.20571429"
       width="1.2215385"
       height="1.4114286"
       color-interpolation-filters="sRGB"
       id="filter3971">
      <feGaussianBlur
         id="feGaussianBlur3973"
         stdDeviation="4.8" />
    </filter>
    <linearGradient
       x1="158.03271"
       y1="14.897196"
       x2="158.03271"
       y2="17.364487"
       id="linearGradient2962"
       xlink:href="#linearGradient8740"
       gradientUnits="userSpaceOnUse"
       gradientTransform="matrix(4.3599996,0,0,4.9545451,-624.05994,-60.81817)" />
    <radialGradient
       cx="158"
       cy="8.8583784"
       r="21"
       fx="158"
       fy="8.8583784"
       id="radialGradient2965"
       xlink:href="#linearGradient8740"
       gradientUnits="userSpaceOnUse"
       gradientTransform="matrix(2.6666675,0.01204781,-0.0133539,2.9557572,-354.21518,-13.978324)" />
    <radialGradient
       cx="157.91705"
       cy="12.224991"
       r="19.875"
       fx="157.91705"
       fy="12.224991"
       id="radialGradient2968"
       xlink:href="#linearGradient12436"
       gradientUnits="userSpaceOnUse"
       gradientTransform="matrix(6.8417228,1.5337726e-6,-9.9786423e-7,4.3320572,-1013.7588,-27.93605)" />
    <radialGradient
       cx="158"
       cy="8.7727823"
       r="21"
       fx="158"
       fy="8.7727823"
       id="radialGradient2972"
       xlink:href="#linearGradient12436"
       gradientUnits="userSpaceOnUse"
       gradientTransform="matrix(2.6666675,1.0767562e-7,-1.1934983e-7,2.9557874,-354.33348,-12.075054)" />
    <radialGradient
       cx="158"
       cy="14.798822"
       r="19.875"
       fx="158"
       fy="14.798822"
       id="radialGradient2975"
       xlink:href="#linearGradient8918"
       gradientUnits="userSpaceOnUse"
       gradientTransform="matrix(4.0271371,-2.9614213e-7,2.6352754e-7,3.6376508,-569.23806,-22.271415)" />
    <radialGradient
       cx="157.99995"
       cy="13.242876"
       r="20.999865"
       fx="157.99995"
       fy="13.242876"
       id="radialGradient2978"
       xlink:href="#linearGradient8647"
       gradientUnits="userSpaceOnUse"
       gradientTransform="matrix(3.4808813,-4.432368e-7,4.1040284e-7,3.2230512,-482.97909,-16.572344)" />
    <radialGradient
       cx="157.69997"
       cy="14.645425"
       r="20.999865"
       fx="157.69997"
       fy="14.645425"
       id="radialGradient2981"
       xlink:href="#linearGradient12422"
       gradientUnits="userSpaceOnUse"
       gradientTransform="matrix(3.8676462,1.5040169e-7,-1.4037429e-7,3.6098175,-542.92767,-24.049929)" />
  </defs>
  <g
     transform="translate(-3,-4)"
     id="layer1"
     style="display:inline">
    <g
       id="layer6"
       style="display:none" />
    <path
       d="m 16,68.5 c 0,30.927944 21.028739,56 52,56 30.971261,0 52,-25.072056 52,-56 l -6.11764,0 c 0,25.30468 -20.54224,45.81818 -45.88236,45.81818 -25.34012,0 -45.882353,-20.5135 -45.882353,-45.81818 L 16,68.5 z"
       transform="matrix(0.98425692,0,0,1,0.07052899,0)"
       id="path4386"
       style="fill:#000000;fill-opacity:1;stroke:none;filter:url(#filter3971)" />
    <g
       id="g3041" />
    <g
       id="g3072" />
    <g
       id="g3080" />
    <g
       id="g3142" />
    <g
       id="g3111" />
    <g
       id="g3755">
      <path
         d="M 122.5,67.998029 C 122.5,98.650816 97.649988,123.5 67.000719,123.5 36.348634,123.5 11.5,98.650537 11.5,67.998029 11.5,37.346648 36.348634,12.5 67.000719,12.5 97.649988,12.5 122.5,37.346648 122.5,67.998029 l 0,0 z"
         id="path3043"
         style="fill:url(#radialGradient2978);fill-opacity:1;fill-rule:nonzero;stroke:url(#radialGradient2981);stroke-width:0.99999988;stroke-miterlimit:4;stroke-dasharray:none;display:inline;enable-background:new" />
      <path
         d="m 54.654544,13.368181 c -1.012072,0.22763 -2.000395,0.482025 -2.990909,0.763637 l -1.177272,1.622727 -2.322728,0.35 -1.972727,0.954546 -1.05,0.50909 -0.254545,0.35 -1.368182,0.35 -0.954545,1.813637 -0.986364,-1.972728 C 41.450086,18.17403 41.322076,18.234118 41.195454,18.3 l -0.190909,0.477272 0.254545,2.609091 -1.909091,1.559091 -1.113636,2.8 2.322727,0 0.859091,-1.845455 0.286364,-0.668181 c 0.982469,-0.700961 1.926501,-1.425283 2.927272,-2.1 l 2.322728,0.795454 c 1.518261,1.040537 2.966854,1.983777 4.486363,3.022727 l 2.322727,-2.004545 -2.513636,-1.018182 -1.113636,-2.354545 -4.390909,-0.509091 -0.09546,-0.540909 1.909091,0.35 1.113636,-1.05 2.259091,-0.509091 c 0.576444,-0.282889 1.13568,-0.471519 1.718182,-0.7 l -1.463636,1.463636 5.25,3.563637 0,2.1 -2.068182,2.1 2.768182,5.472727 1.813636,-1.05 2.227273,-3.659091 c 3.241254,-1.010915 6.171174,-2.171351 9.227272,-3.563636 l -0.06364,0.604545 1.622727,1.05 2.672727,-1.813636 -1.368181,-1.559091 -1.813637,1.018182 -0.09545,0 2.577272,-6.586364 -5.95,-2.354545 -6.80909,0.795454 -7.922728,2.163637 C 54.048268,16.066903 54.90825,15.770172 55.736363,15.5 l -1.081819,-2.131819 z m -13.236363,10.531818 2.259091,1.59091 1.813636,0 0,-1.845455 -2.259091,-1.05 -1.813636,1.304545 z m 51.513636,-2.068181 -3.977273,0.954545 -2.513636,1.654546 0,1.463636 -3.945455,2.609091 0.859091,3.818182 2.322727,-1.654546 1.463637,1.654546 1.654545,0.954545 1.018182,-2.863636 -0.604546,-1.654546 0.604546,-1.209091 2.322727,-2.163636 1.05,0 -1.05,2.418182 0,2.195454 c 0.961036,-0.263858 1.975476,-0.417539 2.959091,-0.540909 l -2.768182,1.909091 -0.190909,1.240909 -3.181818,2.577273 -3.086364,-0.668182 0,-1.909091 -1.495454,0.954546 0.604545,1.622727 -2.227272,0 -1.304546,2.195454 -1.559091,1.813637 -2.831818,0.540909 1.654546,1.718182 0.413636,1.654545 -2.068182,0 -2.672727,1.4 0,4.327273 1.209091,0 1.113636,1.304545 2.672727,-1.304545 1.05,-2.609091 1.877273,-1.209091 0.445455,-0.954546 3.118181,-0.7 1.622728,1.909091 1.90909,0.954546 -1.05,2.1 1.654546,-0.445455 0.859091,-2.163636 -2.068182,-2.354546 0.859091,0 2.068182,1.654546 0.413636,2.354545 1.909091,2.163637 0.35,-3.118182 1.113636,-0.445455 c 1.034218,1.083073 1.801647,2.344702 2.672727,3.563637 l 3.118184,0.254545 1.87727,1.240909 -0.76364,1.113636 -1.90909,1.75 -2.73636,0 -3.563636,-1.240909 -1.877273,0.286364 -1.4,1.463636 -3.786363,-3.913636 -2.768182,-0.7 -3.945455,0.445455 -3.531818,0.954545 c -1.99528,2.281997 -3.997789,4.566423 -5.886363,6.936364 l -2.322728,5.504545 1.05,1.209091 -1.90909,2.863636 2.163636,5.027273 c 1.778585,2.02973 3.474087,4.046096 5.25,6.077272 l 2.672727,-2.259091 1.113636,1.304546 2.863637,-1.813636 0.954545,1.145454 2.831818,0 1.559091,1.813636 -0.954545,3.309091 1.972727,2.259091 -0.06364,3.913636 1.463636,2.863637 -1.113636,2.418182 c -0.104364,1.757437 -0.19091,3.46045 -0.19091,5.218181 0.857309,2.381263 1.704208,4.824333 2.513637,7.222723 l 0.604545,3.81819 0,1.90909 1.463637,0 2.322727,-1.46364 2.768182,0 4.040908,-4.70909 -0.50909,-1.46364 2.67273,-2.45 -1.97273,-2.259087 2.38637,-2.004546 2.35454,-1.463636 1.01818,-1.209091 -0.60454,-2.609091 0,-6.681818 1.90909,-4.104545 2.22727,-2.609091 2.51364,-6.172727 0,-1.718182 c -1.201,0.152549 -2.35765,0.260891 -3.53182,0.35 l 2.41818,-2.45 3.43637,-2.418182 1.90909,-2.1 0,-2.418182 c -0.4187,-0.796567 -0.88312,-1.557984 -1.30455,-2.354545 l -1.62273,1.909091 -1.30454,-1.463636 -1.81364,-1.4 0,-3.118182 2.16364,2.513636 2.41818,-0.35 c 1.09589,1.003553 2.1253,1.880139 3.08636,3.022727 l 2.22728,-2.513636 C 119.74664,44.623743 112.41956,32.733648 102.09545,24.40909 l -0.54091,1.240909 -2.068178,2.45 -2.768182,-2.895454 2.768182,0 1.209088,-1.463636 -4.995452,-0.954546 -2.768181,-0.954545 z m -58.354545,0.540909 c -0.254282,0.180982 -0.512532,0.35581 -0.763636,0.540909 l -0.413637,1.940909 c 0,0 -1.321453,0.08258 -2.290909,0.159091 -11.166322,9.329924 -18.640137,22.918497 -19.918181,38.277272 0.739529,1.246608 2.481818,3.722727 2.481818,3.722727 l 4.295454,2.609091 4.231819,1.113636 1.813636,2.45 2.831818,2.1 1.654545,-0.286363 1.209091,0.604545 0,0.35 -1.654545,4.518182 -1.209091,1.909091 0.445455,0.954545 -1.05,3.5 3.722727,6.840909 3.627272,3.309091 1.622728,2.45 -0.254546,4.931818 1.304546,2.8 -1.304546,5.47273 c 0,0 0.128052,0.76681 0.254546,1.43182 1.932563,1.33552 3.947218,2.5708 6.045454,3.65909 0.506948,-0.43919 1.463637,-1.36819 1.463637,-1.36819 L 42.30909,115.25 l 1.622727,-1.65455 0.604546,-1.65454 2.672727,-0.95455 1.972727,-5.21818 -0.604545,-1.4 1.495454,-2.16364 2.990909,-0.7 1.654546,-3.818178 -0.445455,-4.677273 2.418182,-3.563636 0.445455,-3.563636 C 53.803777,84.18127 50.516755,82.50994 47.20909,80.759089 l -1.622727,-3.404545 -3.022727,-0.7 -1.654546,-4.422727 -4.040909,0.445454 -3.468182,-2.609091 -3.690909,3.277273 0,0.540909 C 28.603294,73.55792 27.22572,73.554804 26.240909,72.931817 l -0.763637,-2.354546 0,-2.60909 -2.418182,0.190909 c 0.203128,-1.655732 0.399942,-3.308195 0.604546,-4.963637 l -1.463636,0 -1.368182,1.909091 -1.463637,0.7 -2.004545,-1.145454 -0.254545,-2.609091 0.445454,-2.863637 2.990909,-2.322727 2.513636,0 0.35,-1.495454 3.118182,0.795454 2.227273,2.768182 0.35,-4.677273 3.881818,-3.30909 1.368182,-3.563637 2.863636,-1.209091 1.622727,-2.354545 3.722728,-0.7 1.813636,-2.863636 -5.536364,0 3.468182,-1.654546 2.386364,0 3.468181,-1.145454 0.413637,-1.463637 -1.177273,-1.113636 -1.4,-0.540909 0.35,-1.4 -0.954545,-2.068182 -2.481818,0.859091 0.413636,-1.813636 -2.831818,-1.654546 -2.259091,4.009091 0.190909,1.368182 -2.163636,0.954545 -1.463637,3.054546 -0.604545,-2.768182 -3.881818,-1.654545 -0.604546,-2.195455 5.090909,-3.022727 2.227273,-2.163636 0.190909,-2.609091 -1.209091,-0.7 -1.431818,-0.159091 z m 41.713636,5.440909 0,1.495454 0.859091,1.05 0,2.322728 -0.445455,3.149999 2.513636,-0.540909 1.813637,-1.813636 -1.559091,-1.559091 c -0.535818,-1.43892 -1.14324,-2.72443 -1.813636,-4.104545 l -1.368182,0 z m -2.068182,3.054545 -1.654545,0.509091 0.445454,2.863636 2.068182,-1.018181 -0.859091,-2.354546 z m -26.154545,7.286364 0.7,3.659091 1.304545,-2.068182 -2.004545,-1.590909 z m 54.504549,18.613636 2.41818,2.672727 2.86363,6.109091 1.62273,1.909091 -0.85909,2.163636 1.65455,1.813636 c -0.74514,0.05164 -1.49253,0.09546 -2.2591,0.09546 -1.33183,-2.823681 -2.35826,-5.636906 -3.37272,-8.590909 l -1.71818,-2.004546 -0.95455,-3.468181 0.60455,-0.7 z"
         id="path3045"
         style="fill:url(#radialGradient2975);fill-opacity:1;fill-rule:nonzero;stroke:none" />
      <path
         d="M 123,67.998018 C 123,98.926957 97.926126,124 67.000737,124 36.072472,124 11,98.926675 11,67.998018 11,37.070494 36.072472,12 67.000737,12 97.926126,12 123,37.070494 123,67.998018 l 0,0 z"
         id="path3047"
         style="opacity:0.07999998;fill:url(#radialGradient2972);fill-opacity:1;fill-rule:nonzero;stroke:none;display:inline;enable-background:new" />
      <path
         d="m 54.654544,13.368181 c -1.012072,0.22763 -2.000395,0.482025 -2.990909,0.763637 l -1.177272,1.622727 -2.322728,0.35 -1.972727,0.954546 -1.05,0.50909 -0.254545,0.35 -1.368182,0.35 -0.954545,1.813637 -0.986364,-1.972728 C 41.450086,18.17403 41.322076,18.234118 41.195454,18.3 l -0.190909,0.477272 0.254545,2.609091 -1.909091,1.559091 -1.113636,2.8 2.322727,0 0.859091,-1.845455 0.286364,-0.668181 c 0.982469,-0.700961 1.926501,-1.425283 2.927272,-2.1 l 2.322728,0.795454 c 1.518261,1.040537 2.966854,1.983777 4.486363,3.022727 l 2.322727,-2.004545 -2.513636,-1.018182 -1.113636,-2.354545 -4.390909,-0.509091 -0.09546,-0.540909 1.909091,0.35 1.113636,-1.05 2.259091,-0.509091 c 0.576444,-0.282889 1.13568,-0.471519 1.718182,-0.7 l -1.463636,1.463636 5.25,3.563637 0,2.1 -2.068182,2.1 2.768182,5.472727 1.813636,-1.05 2.227273,-3.659091 c 3.241254,-1.010915 6.171174,-2.171351 9.227272,-3.563636 l -0.06364,0.604545 1.622727,1.05 2.672727,-1.813636 -1.368181,-1.559091 -1.813637,1.018182 -0.09545,0 2.577272,-6.586364 -5.95,-2.354545 -6.80909,0.795454 -7.922728,2.163637 C 54.048268,16.066903 54.90825,15.770172 55.736363,15.5 l -1.081819,-2.131819 z m -13.236363,10.531818 2.259091,1.59091 1.813636,0 0,-1.845455 -2.259091,-1.05 -1.813636,1.304545 z m 51.513636,-2.068181 -3.977273,0.954545 -2.513636,1.654546 0,1.463636 -3.945455,2.609091 0.859091,3.818182 2.322727,-1.654546 1.463637,1.654546 1.654545,0.954545 1.018182,-2.863636 -0.604546,-1.654546 0.604546,-1.209091 2.322727,-2.163636 1.05,0 -1.05,2.418182 0,2.195454 c 0.961036,-0.263858 1.975476,-0.417539 2.959091,-0.540909 l -2.768182,1.909091 -0.190909,1.240909 -3.181818,2.577273 -3.086364,-0.668182 0,-1.909091 -1.495454,0.954546 0.604545,1.622727 -2.227272,0 -1.304546,2.195454 -1.559091,1.813637 -2.831818,0.540909 1.654546,1.718182 0.413636,1.654545 -2.068182,0 -2.672727,1.4 0,4.327273 1.209091,0 1.113636,1.304545 2.672727,-1.304545 1.05,-2.609091 1.877273,-1.209091 0.445455,-0.954546 3.118181,-0.7 1.622728,1.909091 1.90909,0.954546 -1.05,2.1 1.654546,-0.445455 0.859091,-2.163636 -2.068182,-2.354546 0.859091,0 2.068182,1.654546 0.413636,2.354545 1.909091,2.163637 0.35,-3.118182 1.113636,-0.445455 c 1.034218,1.083073 1.801647,2.344702 2.672727,3.563637 l 3.118184,0.254545 1.87727,1.240909 -0.76364,1.113636 -1.90909,1.75 -2.73636,0 -3.563636,-1.240909 -1.877273,0.286364 -1.4,1.463636 -3.786363,-3.913636 -2.768182,-0.7 -3.945455,0.445455 -3.531818,0.954545 c -1.99528,2.281997 -3.997789,4.566423 -5.886363,6.936364 l -2.322728,5.504545 1.05,1.209091 -1.90909,2.863636 2.163636,5.027273 c 1.778585,2.02973 3.474087,4.046096 5.25,6.077272 l 2.672727,-2.259091 1.113636,1.304546 2.863637,-1.813636 0.954545,1.145454 2.831818,0 1.559091,1.813636 -0.954545,3.309091 1.972727,2.259091 -0.06364,3.913636 1.463636,2.863637 -1.113636,2.418182 c -0.104364,1.757437 -0.19091,3.46045 -0.19091,5.218181 0.857309,2.381263 1.704208,4.824333 2.513637,7.222723 l 0.604545,3.81819 0,1.90909 1.463637,0 2.322727,-1.46364 2.768182,0 4.040908,-4.70909 -0.50909,-1.46364 2.67273,-2.45 -1.97273,-2.259087 2.38637,-2.004546 2.35454,-1.463636 1.01818,-1.209091 -0.60454,-2.609091 0,-6.681818 1.90909,-4.104545 2.22727,-2.609091 2.51364,-6.172727 0,-1.718182 c -1.201,0.152549 -2.35765,0.260891 -3.53182,0.35 l 2.41818,-2.45 3.43637,-2.418182 1.90909,-2.1 0,-2.418182 c -0.4187,-0.796567 -0.88312,-1.557984 -1.30455,-2.354545 l -1.62273,1.909091 -1.30454,-1.463636 -1.81364,-1.4 0,-3.118182 2.16364,2.513636 2.41818,-0.35 c 1.09589,1.003553 2.1253,1.880139 3.08636,3.022727 l 2.22728,-2.513636 C 119.74664,44.623743 112.41956,32.733648 102.09545,24.40909 l -0.54091,1.240909 -2.068178,2.45 -2.768182,-2.895454 2.768182,0 1.209088,-1.463636 -4.995452,-0.954546 -2.768181,-0.954545 z m -58.354545,0.540909 c -0.254282,0.180982 -0.512532,0.35581 -0.763636,0.540909 l -0.413637,1.940909 c 0,0 -1.321453,0.08258 -2.290909,0.159091 -11.166322,9.329924 -18.640137,22.918497 -19.918181,38.277272 0.739529,1.246608 2.481818,3.722727 2.481818,3.722727 l 4.295454,2.609091 4.231819,1.113636 1.813636,2.45 2.831818,2.1 1.654545,-0.286363 1.209091,0.604545 0,0.35 -1.654545,4.518182 -1.209091,1.909091 0.445455,0.954545 -1.05,3.5 3.722727,6.840909 3.627272,3.309091 1.622728,2.45 -0.254546,4.931818 1.304546,2.8 -1.304546,5.47273 c 0,0 0.128052,0.76681 0.254546,1.43182 1.932563,1.33552 3.947218,2.5708 6.045454,3.65909 0.506948,-0.43919 1.463637,-1.36819 1.463637,-1.36819 L 42.30909,115.25 l 1.622727,-1.65455 0.604546,-1.65454 2.672727,-0.95455 1.972727,-5.21818 -0.604545,-1.4 1.495454,-2.16364 2.990909,-0.7 1.654546,-3.818178 -0.445455,-4.677273 2.418182,-3.563636 0.445455,-3.563636 C 53.803777,84.18127 50.516755,82.50994 47.20909,80.759089 l -1.622727,-3.404545 -3.022727,-0.7 -1.654546,-4.422727 -4.040909,0.445454 -3.468182,-2.609091 -3.690909,3.277273 0,0.540909 C 28.603294,73.55792 27.22572,73.554804 26.240909,72.931817 l -0.763637,-2.354546 0,-2.60909 -2.418182,0.190909 c 0.203128,-1.655732 0.399942,-3.308195 0.604546,-4.963637 l -1.463636,0 -1.368182,1.909091 -1.463637,0.7 -2.004545,-1.145454 -0.254545,-2.609091 0.445454,-2.863637 2.990909,-2.322727 2.513636,0 0.35,-1.495454 3.118182,0.795454 2.227273,2.768182 0.35,-4.677273 3.881818,-3.30909 1.368182,-3.563637 2.863636,-1.209091 1.622727,-2.354545 3.722728,-0.7 1.813636,-2.863636 -5.536364,0 3.468182,-1.654546 2.386364,0 3.468181,-1.145454 0.413637,-1.463637 -1.177273,-1.113636 -1.4,-0.540909 0.35,-1.4 -0.954545,-2.068182 -2.481818,0.859091 0.413636,-1.813636 -2.831818,-1.654546 -2.259091,4.009091 0.190909,1.368182 -2.163636,0.954545 -1.463637,3.054546 -0.604545,-2.768182 -3.881818,-1.654545 -0.604546,-2.195455 5.090909,-3.022727 2.227273,-2.163636 0.190909,-2.609091 -1.209091,-0.7 -1.431818,-0.159091 z m 41.713636,5.440909 0,1.495454 0.859091,1.05 0,2.322728 -0.445455,3.149999 2.513636,-0.540909 1.813637,-1.813636 -1.559091,-1.559091 c -0.535818,-1.43892 -1.14324,-2.72443 -1.813636,-4.104545 l -1.368182,0 z m -2.068182,3.054545 -1.654545,0.509091 0.445454,2.863636 2.068182,-1.018181 -0.859091,-2.354546 z m -26.154545,7.286364 0.7,3.659091 1.304545,-2.068182 -2.004545,-1.590909 z m 54.504549,18.613636 2.41818,2.672727 2.86363,6.109091 1.62273,1.909091 -0.85909,2.163636 1.65455,1.813636 c -0.74514,0.05164 -1.49253,0.09546 -2.2591,0.09546 -1.33183,-2.823681 -2.35826,-5.636906 -3.37272,-8.590909 l -1.71818,-2.004546 -0.95455,-3.468181 0.60455,-0.7 z"
         id="path3892"
         style="opacity:0.15;fill:url(#radialGradient2968);fill-opacity:1;fill-rule:nonzero;stroke:none" />
      <path
         d="M 123,67.998018 C 123,98.926957 97.926126,124 67.000737,124 36.072472,124 11,98.926675 11,67.998018 11,37.070494 36.072472,12 67.000737,12 97.926126,12 123,37.070494 123,67.998018 l 0,0 z"
         id="path3716"
         style="opacity:0.25;fill:url(#radialGradient2965);fill-opacity:1;fill-rule:nonzero;stroke:none;display:inline;enable-background:new" />
      <path
         d="m 121.5,68.000003 a 54.5,54.5 0 0 1 -108.999999,0 54.5,54.5 0 1 1 108.999999,0 z"
         id="path3053"
         style="opacity:0.5;fill:none;stroke:url(#linearGradient2962);stroke-width:1;stroke-opacity:1" />
    </g>
  </g>
</svg>
