<?xml version="1.0" encoding="UTF-8" standalone="no"?>
<!-- Created with Inkscape (http://www.inkscape.org/) -->

<svg
   xmlns:svg="http://www.w3.org/2000/svg"
   xmlns="http://www.w3.org/2000/svg"
   xmlns:xlink="http://www.w3.org/1999/xlink"
   version="1.0"
   width="128"
   height="128"
   id="svg11300"
   style="display:inline;enable-background:new">
  <title
     id="title2897">Candy Icon Theme</title>
  <defs
     id="defs3">
    <filter
       x="-0.64890552"
       y="-0.6760745"
       width="2.297811"
       height="2.352149"
       color-interpolation-filters="sRGB"
       id="filter9328">
      <feGaussianBlur
         stdDeviation="8.0038373"
         id="feGaussianBlur9330" />
    </filter>
    <filter
       x="-0.57194757"
       y="-0.54763132"
       width="2.1438951"
       height="2.0952628"
       color-interpolation-filters="sRGB"
       id="filter9324">
      <feGaussianBlur
         stdDeviation="8.0038373"
         id="feGaussianBlur9326" />
    </filter>
    <filter
       x="-0.55978358"
       y="-0.57375151"
       width="2.1195672"
       height="2.1475031"
       color-interpolation-filters="sRGB"
       id="filter9320">
      <feGaussianBlur
         stdDeviation="8.0038373"
         id="feGaussianBlur9322" />
    </filter>
    <filter
       x="-0.64863944"
       y="-0.62953919"
       width="2.2972789"
       height="2.2590785"
       color-interpolation-filters="sRGB"
       id="filter9304">
      <feGaussianBlur
         stdDeviation="8.0989179"
         id="feGaussianBlur9306" />
    </filter>
    <filter
       x="-0.55994791"
       y="-0.61251056"
       width="2.1198957"
       height="2.2250211"
       color-interpolation-filters="sRGB"
       id="filter9300">
      <feGaussianBlur
         stdDeviation="8.0989179"
         id="feGaussianBlur9302" />
    </filter>
    <filter
       x="-0.53997624"
       y="-0.55364859"
       width="2.0799525"
       height="2.1072972"
       color-interpolation-filters="sRGB"
       id="filter9296">
      <feGaussianBlur
         stdDeviation="8.0989179"
         id="feGaussianBlur9298" />
    </filter>
    <linearGradient
       id="linearGradient6422">
      <stop
         id="stop6424"
         style="stop-color:#ffffff;stop-opacity:1"
         offset="0" />
      <stop
         id="stop6426"
         style="stop-color:#ffffff;stop-opacity:0"
         offset="1" />
    </linearGradient>
    <linearGradient
       id="linearGradient6328">
      <stop
         id="stop6330"
         style="stop-color:#ff0000;stop-opacity:1"
         offset="0" />
      <stop
         id="stop6332"
         style="stop-color:#ff0000;stop-opacity:0"
         offset="1" />
    </linearGradient>
    <linearGradient
       id="linearGradient6320">
      <stop
         id="stop6322"
         style="stop-color:#0000ff;stop-opacity:1"
         offset="0" />
      <stop
         id="stop6324"
         style="stop-color:#0000ff;stop-opacity:0"
         offset="1" />
    </linearGradient>
    <linearGradient
       id="linearGradient6294">
      <stop
         id="stop6296"
         style="stop-color:#000000;stop-opacity:0"
         offset="0" />
      <stop
         id="stop6298"
         style="stop-color:#000000;stop-opacity:1"
         offset="1" />
    </linearGradient>
    <linearGradient
       id="linearGradient6273">
      <stop
         id="stop6275"
         style="stop-color:#aaaaaa;stop-opacity:1"
         offset="0" />
      <stop
         id="stop6277"
         style="stop-color:#c8c8c8;stop-opacity:1"
         offset="1" />
    </linearGradient>
    <linearGradient
       id="linearGradient6265">
      <stop
         id="stop6267"
         style="stop-color:#e6e6e6;stop-opacity:1"
         offset="0" />
      <stop
         id="stop6269"
         style="stop-color:#fafafa;stop-opacity:1"
         offset="1" />
    </linearGradient>
    <linearGradient
       x1="72.811226"
       y1="119.99996"
       x2="72.502487"
       y2="10.000041"
       id="linearGradient3961"
       xlink:href="#linearGradient6265"
       gradientUnits="userSpaceOnUse"
       gradientTransform="translate(3.2375877e-4,3.9998322)" />
    <linearGradient
       x1="61.497517"
       y1="119.99996"
       x2="61.188778"
       y2="10.000041"
       id="linearGradient3963"
       xlink:href="#linearGradient6273"
       gradientUnits="userSpaceOnUse"
       gradientTransform="translate(3.2375877e-4,3.9998322)" />
    <radialGradient
       cx="67"
       cy="20.098719"
       r="55"
       fx="67"
       fy="20.098719"
       id="radialGradient3965"
       xlink:href="#linearGradient6294"
       gradientUnits="userSpaceOnUse"
       gradientTransform="translate(3.2358601e-4,3.999822)" />
    <linearGradient
       x1="94.563042"
       y1="28.24971"
       x2="64.836411"
       y2="13.30601"
       id="linearGradient3967"
       xlink:href="#linearGradient6328"
       gradientUnits="userSpaceOnUse"
       gradientTransform="translate(3.2375877e-4,3.9998322)" />
    <linearGradient
       x1="36.352951"
       y1="95.028572"
       x2="42.781559"
       y2="64.665894"
       id="linearGradient3969"
       xlink:href="#linearGradient6320"
       gradientUnits="userSpaceOnUse"
       gradientTransform="translate(3.2375877e-4,3.9998322)" />
    <linearGradient
       x1="98.012787"
       y1="40.128571"
       x2="117.9324"
       y2="68.783272"
       id="linearGradient3971"
       xlink:href="#linearGradient6320"
       gradientUnits="userSpaceOnUse"
       gradientTransform="translate(3.2375877e-4,3.9998322)" />
    <linearGradient
       x1="44.262062"
       y1="94.499535"
       x2="74.292007"
       y2="113.59142"
       id="linearGradient3973"
       xlink:href="#linearGradient6328"
       gradientUnits="userSpaceOnUse"
       gradientTransform="translate(3.2375877e-4,3.9998322)" />
    <linearGradient
       x1="43.619648"
       y1="59.61002"
       x2="43.619648"
       y2="62.976337"
       id="linearGradient3975"
       xlink:href="#linearGradient6422"
       gradientUnits="userSpaceOnUse"
       gradientTransform="matrix(2.0869979,0,0,1.0911715,-24.033789,-5.9249578)" />
    <filter
       x="-0.092352942"
       y="-0.17127272"
       width="1.1847059"
       height="1.3425455"
       color-interpolation-filters="sRGB"
       id="filter4440">
      <feGaussianBlur
         stdDeviation="3.925"
         id="feGaussianBlur4442" />
    </filter>
    <linearGradient
       x1="157"
       y1="47"
       x2="157"
       y2="35"
       id="linearGradient4126"
       xlink:href="#linearGradient6265"
       gradientUnits="userSpaceOnUse"
       gradientTransform="matrix(2.368418,0,0,2.4833333,-307.20993,4.7349958)" />
  </defs>
  <g
     transform="translate(-3,-4)"
     id="layer1"
     style="display:inline">
    <g
       id="layer6"
       style="display:none" />
    <path
       d="m 16,68.5 c 0,30.37566 20.624338,55 51,55 30.375662,0 51,-24.62434 51,-55 l -6,0 c 0,24.85281 -20.147189,45 -45,45 -24.852815,0 -45,-20.14719 -45,-45 l -6,0 z"
       id="path4386"
       style="opacity:0.8;fill:#000000;fill-opacity:1;stroke:none;filter:url(#filter4440)" />
    <g
       transform="translate(0,-0.99999779)"
       id="g3947">
      <path
         d="m 67,13.5 c -30.651804,0 -55.5,24.848197 -55.5,55.5 0,30.651803 24.848196,55.5 55.5,55.5 30.651804,0 55.5,-24.848197 55.5,-55.5 C 122.5,38.348197 97.651804,13.5 67,13.5 z m 0,37 C 77.21192,50.50032 85.50019,58.78807 85.5,69 85.49968,79.21201 77.212,87.50032 67,87.5 56.78799,87.49968 48.499682,79.21201 48.5,69 48.500318,58.788 56.78799,50.49968 67,50.5 z"
         id="path5486"
         style="fill:url(#linearGradient3961);fill-opacity:1;stroke:url(#linearGradient3963);stroke-width:0.9999181;stroke-linecap:square;stroke-linejoin:round;stroke-miterlimit:4;stroke-opacity:1;stroke-dasharray:none" />
      <path
         d="m 67,13 c -30.927946,0 -56,25.072054 -56,56 0,30.927946 25.072054,56 56,56 30.927946,0 56,-25.072054 56,-56 C 123,38.072054 97.927946,13 67,13 z m 0,38 c 9.93592,3.1e-4 18.00018,8.06408 18,18 -3.1e-4,9.936 -8.064,18.00031 -18,18 -9.93601,-3.1e-4 -18.000309,-8.064 -18,-18 3.11e-4,-9.936 8.064,-18.00031 18,-18 z"
         id="path6281"
         style="opacity:0.05;fill:url(#radialGradient3965);fill-opacity:1;stroke:none" />
      <path
         d="m 87.500458,69.000472 a 20.500139,20.50014 0 1 1 0,-2.5e-4"
         id="path6316"
         style="opacity:0.05;fill:none;stroke:#000000;stroke-width:2.99971938;stroke-linecap:square;stroke-linejoin:round;stroke-miterlimit:4;stroke-opacity:1;stroke-dasharray:none" />
      <path
         d="m 98.820098,28.694662 c -11.91145,-5.70376 -15.56441,11.56406 -18.80462,23.79856 0.63832,0.5046 1.24474,1.06795 1.83405,1.65729 0.58931,0.58934 1.15272,1.1957 1.65729,1.83405 10.66781,-1.73 33.401952,-3.16741 23.798552,-18.80462 -2.12975,-3.5271 -4.54286,-6.77084 -8.485272,-8.48528 z"
         id="rect6421"
         style="opacity:0.15;fill:#ffff00;fill-opacity:1;stroke:none;filter:url(#filter9328)" />
      <path
         d="m 26.695203,100.81955 c 1.787605,4.07742 5.056942,6.37675 8.485282,8.48528 17.364754,12.08619 17.065671,-9.05527 18.804621,-23.798558 -0.638326,-0.5046 -1.244749,-1.06793 -1.834059,-1.65728 -0.589309,-0.58935 -1.152716,-1.1957 -1.657281,-1.83406 -18.746799,1.53112 -32.509107,7.46364 -23.798563,18.804618 z"
         id="path6470"
         style="opacity:0.15;fill:#fff80d;fill-opacity:1;stroke:none;display:inline;filter:url(#filter9304);enable-background:new" />
      <path
         d="m 76.833488,17.933382 c -20.25723,-4.2599 -10.42588,13.96017 -2.58535,30.69285 1.46929,0.66428 4.29791,2.73672 5.61266,3.75651 7.51521,-7.60379 16.84032,-13.38239 18.56155,-24.04163 -2.26419,-3.78132 -16.59191,-10.70751 -21.58886,-10.40773 z"
         id="path6472"
         style="opacity:0.15;fill:url(#linearGradient3967);fill-opacity:1;stroke:none;display:inline;filter:url(#filter9324);enable-background:new" />
      <path
         d="m 16.309573,77.750192 c -0.981034,4.57822 6.613292,19.83624 10.054174,22.649518 7.632146,-1.542648 14.191764,-8.362678 24.019533,-18.539458 -1.026992,-1.32416 -4.150782,-5.23684 -4.817164,-6.71751 -10.763203,-3.17494 -34.039145,-14.17185 -29.256543,2.60745 z"
         id="path6474"
         style="opacity:0.15;fill:url(#linearGradient3969);fill-opacity:1;stroke:none;display:inline;filter:url(#filter9300);enable-background:new" />
      <path
         d="m 83.617298,56.139242 c 1.02699,1.32417 3.2669,4.52973 3.93328,6.01041 11.05277,0.71869 34.397922,21.38352 29.786872,-3.31456 0.86062,-4.24016 -6.07733,-18.3152 -9.70062,-21.2353 -5.68877,-1.62239 -17.547732,10.08028 -24.019532,18.53945 z"
         id="path6476"
         style="opacity:0.15;fill:url(#linearGradient3971);fill-opacity:1;stroke:none;display:inline;filter:url(#filter9320);enable-background:new" />
      <path
         d="m 54.139785,85.616762 c -5.833831,7.45049 -13.778759,9.90661 -18.539456,24.019528 2.920102,2.90677 18.939692,9.52167 23.179849,10.23096 16.43284,4.03047 16.93334,-6.18163 2.2539,-29.963658 -1.48289,-0.6669 -5.56833,-3.25832 -6.894293,-4.28683 z"
         id="path6478"
         style="opacity:0.15;fill:url(#linearGradient3973);fill-opacity:1;stroke:none;display:inline;filter:url(#filter9296);enable-background:new" />
      <path
         d="m 67.000328,50.499832 c -10.21202,-3.2e-4 -18.499685,8.28799 -18.500004,18.5 -3.18e-4,10.21201 8.287984,18.49968 18.500004,18.5 10.21201,3.2e-4 18.49968,-8.28798 18.5,-18.5 1.9e-4,-10.21193 -8.28807,-18.49968 -18.5,-18.5 z m 0,10 c 4.69198,0 8.5,3.80802 8.5,8.5 0,4.69198 -3.80802,8.5 -8.5,8.5 -4.69199,0 -8.5,-3.80802 -8.5,-8.5 -1e-5,-4.69198 3.80801,-8.5 8.5,-8.5 z"
         id="path6412"
         style="opacity:0.9;fill:#bcbcbc;fill-opacity:1;stroke:#a8a8a8;stroke-width:1;stroke-linecap:square;stroke-linejoin:round;stroke-miterlimit:4;stroke-opacity:1;stroke-dasharray:none" />
      <path
         d="m 67.000328,56.999832 c -6.624,-2.1e-4 -11.999799,5.376 -12.000004,12 -2.06e-4,6.624 5.376004,11.9998 12.000004,12 6.624,2.1e-4 11.99979,-5.376 12,-12 1.2e-4,-6.62395 -5.37606,-11.99979 -12,-12 z m 0,4 c 4.41596,1.4e-4 8.00008,3.58403 8,8 -1.4e-4,4.416 -3.584,8.00014 -8,8 -4.416,-1.4e-4 -8.00014,-3.584 -8,-8 1.3e-4,-4.416 3.584,-8.00014 8,-8 z"
         id="path6418"
         style="opacity:0.15;fill:#ffffff;fill-opacity:1;stroke:none" />
      <path
         d="m 76.500338,69.000132 a 9.5000144,9.5000142 0 1 1 0,-1.2e-4"
         id="path6430"
         style="opacity:0.6;fill:none;stroke:url(#linearGradient3975);stroke-width:0.99997157;stroke-linecap:square;stroke-linejoin:round;stroke-miterlimit:4;stroke-opacity:1;stroke-dasharray:none" />
    </g>
    <g
       id="g3098" />
    <g
       id="g3144" />
    <g
       transform="translate(0,-1)"
       id="g3188" />
    <g
       id="g3228" />
    <g
       id="g3108" />
    <g
       id="g4110" />
    <g
       id="g4136">
      <path
         d="m 27.459885,92.871179 c 7.385225,0 14.770402,0 22.155627,0 3.677228,0 7.351426,0 11.028633,0 0.202973,0 0.408907,-0.02924 0.614913,-0.0064 0.245982,0.02599 0.319782,0.350946 0.405875,0.565421 0.279758,0.675899 0.448887,1.40055 0.651813,2.105694 0.498078,1.73525 1.134495,3.434757 1.706397,5.147256 0.584171,1.75474 1.085328,3.52575 1.583406,5.30325 0.227605,0.81237 0.415088,1.60852 0.473494,2.44689 0.0095,0.10726 0.0952,0.221 0.169105,0.221 0.04926,-0.15272 0.110605,-0.29898 0.178342,-0.44196 0.166026,-0.34445 0.368976,-0.67265 0.578036,-0.98786 0.424302,-0.6304 0.897797,-1.21856 1.346682,-1.83599 0.504237,-0.69215 0.983889,-1.40704 1.497338,-2.09268 1.109934,-1.47204 2.278299,-2.88884 3.422033,-4.33163 1.174498,-1.475287 2.348997,-2.950582 3.523494,-4.425867 0.252119,-0.318452 0.516552,-0.62716 0.753299,-0.958615 0.18758,-0.256711 0.37511,-0.562167 0.682555,-0.666151 0.559586,-0.185253 1.214501,-0.09418 1.786356,-0.06824 1.700263,0.07799 3.412818,0.0162 5.116138,0.0162 1.820152,0 3.637274,0 5.45745,0 1.820177,0 3.64033,0.0032 5.457404,0.0097 0.89474,0.0032 1.792489,-0.02599 2.68723,0.04875 0.823997,0.07148 1.638785,0.175464 2.453545,0.328203 3.0008,0.54917 6.06928,1.712505 8.28915,3.990429 1.04229,1.075594 1.90008,2.394904 2.28443,3.892931 0.36279,1.40055 0.29207,2.87908 -0.0921,4.26014 -0.77481,2.79135 -2.678,5.20576 -4.93475,6.81426 -1.40512,0.99763 -2.81633,1.91722 -4.3721,2.62888 -1.53423,0.69541 -3.129959,1.23159 -4.759501,1.60203 -3.440482,0.78639 -6.963978,0.6434 -10.45981,0.6434 -2.727185,0 -5.454347,0 -8.187692,0 0.07366,-0.87413 0.353558,-1.72875 0.54727,-2.58013 0.206054,-0.93262 0.418169,-1.86848 0.627229,-2.8011 0.424279,-1.89121 0.848581,-3.78245 1.275962,-5.67368 0.239803,-1.0756 0.467336,-2.15445 0.697925,-3.23655 0.107763,-0.51667 0.224526,-1.02357 0.353605,-1.53701 0.07057,-0.2697 0.129316,-0.66616 0.30742,-0.88712 0.08596,-0.11372 0.2952,-0.12673 0.421271,-0.13974 0.276702,-0.0325 0.559539,-0.0325 0.836288,-0.026 0.654892,0.0162 1.30668,0.0325 1.961595,0.0325 1.866265,0 3.744872,0 5.617296,0 -0.113685,0.92611 -0.368929,1.81972 -0.578037,2.72309 -0.224526,0.96186 -0.433491,1.93674 -0.648733,2.90835 -0.442728,1.96271 -0.900851,3.92541 -1.288277,5.90439 1.678734,0 3.354413,0.0649 5.014699,-0.18196 0.845548,-0.12677 1.731004,-0.38021 2.53963,-0.66618 0.747141,-0.25671 1.472754,-0.58165 2.152229,-0.98783 2.072301,-1.24133 3.735661,-3.39904 3.834041,-6.0019 0.04,-1.10159 -0.2429,-2.20968 -0.89779,-3.08054 -0.80247,-1.078843 -2.044637,-1.66376 -3.268327,-2.027705 -3.05308,-0.916369 -6.345963,-0.581668 -9.485158,-0.565421 -0.910065,0.0032 -1.817074,0.0064 -2.730242,0.01296 -0.436618,0 -0.873213,0.0032 -1.312837,0.0032 -0.445832,0.0032 -0.947013,-0.06173 -1.386661,0.01618 -0.375111,0.06496 -0.633387,0.539425 -0.867055,0.815633 -0.319736,0.380198 -0.636441,0.753893 -0.956202,1.134093 -0.614912,0.7279 -1.226769,1.45255 -1.84476,2.17718 -2.453538,2.89859 -4.882494,5.81992 -7.323741,8.7315 -1.924694,2.29743 -3.830963,4.61108 -5.774107,6.89226 -1.1745,1.37779 -2.395134,2.72637 -3.511203,4.1594 -0.107764,0.13974 -0.26749,0.29897 -0.328998,0.47446 -0.0024,0.009 -0.0024,0.013 -0.0024,0.0226 -0.122921,0 -0.135237,0.0391 -0.162947,-0.10396 -0.0431,-0.20472 -0.09214,-0.40619 -0.153948,-0.60768 -0.122921,-0.43217 -0.279781,-0.85462 -0.436594,-1.27706 -0.651812,-1.76449 -1.211374,-3.57448 -1.810939,-5.35523 -1.229849,-3.67847 -2.462752,-7.36019 -3.692602,-11.03866 -0.381267,-1.13408 -0.771724,-2.26819 -1.14989,-3.399 -0.190421,-0.54919 -0.375086,-1.095109 -0.562664,-1.644287 -0.09829,-0.292454 -0.239803,-1.166577 -0.651813,-1.166577 0,0.516675 0.135237,0.981359 0.285916,1.475284 0.1935,0.66291 0.30131,1.32583 0.359762,2.01796 0.150869,1.70601 -0.01185,3.45426 -0.645678,5.04653 -1.180656,2.95708 -3.769479,5.22526 -6.321379,6.83052 -2.690309,1.68975 -5.712648,2.73286 -8.790335,3.25279 -1.666443,0.28272 -3.329806,0.37693 -5.01162,0.36719 -1.798623,-0.003 -3.594192,-0.0131 -5.39284,-0.0131 -1.832469,0 -3.655723,0 -5.48509,0 -0.439698,0 -0.876291,0 -1.315964,0 0,-0.43546 0.187579,-0.90665 0.292096,-1.32907 0.227605,-0.90662 0.418145,-1.82625 0.621094,-2.73937 0.854691,-3.7727 1.70024,-7.54866 2.561137,-11.31811 0.09214,-0.41594 0.187342,-0.82864 0.28286,-1.24133 0.0341,-0.15272 -0.0024,-0.2242 0.159868,-0.2242 0.113685,0 0.218367,0 0.328997,0 0.221447,0 0.439673,0 0.657947,0 0.882401,0 1.76177,0 2.641093,0 1.721793,0 3.443561,0 5.165355,0 -0.863953,3.84096 -1.724872,7.69165 -2.585769,11.53261 1.737164,0 3.492754,0.0942 5.205333,-0.20797 0.860873,-0.14624 1.703343,-0.4062 2.524261,-0.7019 0.670261,-0.24049 1.325152,-0.49394 1.940065,-0.85789 2.293647,-1.35505 4.166095,-3.98393 3.87402,-6.876 -0.322838,-3.217041 -3.541968,-4.429118 -6.173802,-4.728075 -1.592666,-0.18523 -3.20068,-0.139734 -4.79948,-0.136471 -1.82939,0.0064 -3.655724,0 -5.485113,0 -0.697927,0 -1.395852,0 -2.093801,0 -0.147552,0 -0.295176,0 -0.439673,0 -0.12292,0 -0.442752,0.06822 -0.442752,-0.07148 0,-0.3477 0.153947,-0.74414 0.233527,-1.078845 0.32902,-1.413437 0.657993,-2.823731 0.98699,-4.237278"
         id="path4134"
         style="opacity:0.3;fill:none;stroke:#000000;stroke-width:1.80000019;stroke-linejoin:round;stroke-miterlimit:4;stroke-opacity:1;stroke-dasharray:none" />
      <path
         d="m 27.454237,91.864491 0.0056,0.0067 c 7.385225,0 14.770402,0 22.155627,0 3.677228,0 7.351426,0 11.028633,0 0.202973,0 0.408907,-0.02924 0.614913,-0.0064 0.245982,0.02599 0.319782,0.350946 0.405875,0.565421 0.279758,0.675899 0.448887,1.40055 0.651813,2.105694 0.498078,1.73525 1.134495,3.434757 1.706397,5.147258 0.584171,1.754736 1.085328,3.525746 1.583406,5.303246 0.227605,0.81237 0.415088,1.60852 0.473494,2.44689 0.0095,0.10726 0.0952,0.221 0.169105,0.221 0.04926,-0.15272 0.110605,-0.29898 0.178342,-0.44196 0.166026,-0.34445 0.368976,-0.67265 0.578036,-0.98786 0.424302,-0.6304 0.897797,-1.21856 1.346682,-1.83599 0.504237,-0.69215 0.983889,-1.40704 1.497338,-2.09268 1.109934,-1.47204 2.278299,-2.888838 3.422033,-4.331628 1.174498,-1.475287 2.348997,-2.950582 3.523494,-4.425867 0.252119,-0.318452 0.516552,-0.62716 0.753299,-0.958615 0.18758,-0.256711 0.37511,-0.562167 0.682555,-0.666151 0.559586,-0.185253 1.214501,-0.09418 1.786356,-0.06824 1.700263,0.07799 3.412818,0.0162 5.116138,0.0162 1.820152,0 3.637274,0 5.45745,0 1.820177,0 3.64033,0.0032 5.457404,0.0097 0.89474,0.0032 1.792489,-0.02599 2.68723,0.04875 0.823997,0.07148 1.638783,0.175464 2.453543,0.328203 3.0008,0.54917 6.06928,1.712505 8.28915,3.990429 1.04229,1.075594 1.90008,2.394904 2.28443,3.892929 0.36279,1.40055 0.29207,2.87908 -0.0921,4.26014 -0.77481,2.79135 -2.678,5.20576 -4.93475,6.81426 -1.40512,0.99763 -2.81633,1.91722 -4.3721,2.62888 -1.53423,0.69541 -3.129957,1.23159 -4.759499,1.60203 -3.440482,0.78639 -6.963978,0.6434 -10.45981,0.6434 -2.727185,0 -5.454347,0 -8.187692,0 0.07366,-0.87413 0.353558,-1.72875 0.54727,-2.58013 0.206054,-0.93262 0.418169,-1.86848 0.627229,-2.8011 0.424279,-1.89121 0.848581,-3.78245 1.275962,-5.67368 0.239803,-1.0756 0.467336,-2.15445 0.697925,-3.23655 0.107763,-0.51667 0.224526,-1.02357 0.353605,-1.53701 0.07057,-0.269701 0.129316,-0.666153 0.30742,-0.88712 0.08596,-0.113719 0.2952,-0.126725 0.421271,-0.139733 0.276702,-0.03249 0.559539,-0.03249 0.836288,-0.02599 0.654892,0.01619 1.30668,0.03249 1.961595,0.03249 1.866265,0 3.744872,0 5.617296,0 -0.113685,0.926103 -0.368929,1.819713 -0.578037,2.723083 -0.224526,0.96186 -0.433491,1.93674 -0.648733,2.90835 -0.442728,1.96271 -0.900851,3.92541 -1.288277,5.90439 1.678734,0 3.354413,0.0649 5.014699,-0.18196 0.845548,-0.12677 1.731004,-0.38021 2.53963,-0.66618 0.747141,-0.25671 1.472754,-0.58165 2.152229,-0.98783 2.072299,-1.24133 3.735659,-3.39904 3.834039,-6.0019 0.04,-1.10159 -0.2429,-2.20968 -0.89779,-3.080541 -0.80247,-1.07884 -2.044635,-1.663757 -3.268325,-2.027702 -3.05308,-0.916369 -6.345963,-0.581668 -9.485158,-0.565421 -0.910065,0.0032 -1.817074,0.0064 -2.730242,0.01296 -0.436618,0 -0.873213,0.0032 -1.312837,0.0032 -0.445832,0.0032 -0.947013,-0.06173 -1.386661,0.01618 -0.375111,0.06496 -0.633387,0.539425 -0.867055,0.815633 -0.319736,0.380198 -0.636441,0.753893 -0.956202,1.13409 -0.614912,0.727903 -1.226769,1.452551 -1.84476,2.177181 -2.453538,2.89859 -4.882494,5.81992 -7.323741,8.7315 -1.924694,2.29743 -3.830963,4.61108 -5.774107,6.89226 -1.1745,1.37779 -2.395134,2.72637 -3.511203,4.1594 -0.107764,0.13974 -0.26749,0.29897 -0.328998,0.47446 -0.0024,0.009 -0.0024,0.013 -0.0024,0.0226 -0.122921,0 -0.135237,0.0391 -0.162947,-0.10396 -0.0431,-0.20472 -0.09214,-0.40619 -0.153948,-0.60768 -0.122921,-0.43217 -0.279781,-0.85462 -0.436594,-1.27706 -0.651812,-1.76449 -1.211374,-3.57448 -1.810939,-5.35523 -1.229849,-3.67847 -2.462752,-7.36019 -3.692602,-11.03866 -0.381267,-1.13408 -0.771724,-2.26819 -1.14989,-3.398994 -0.190421,-0.549194 -0.375086,-1.095113 -0.562664,-1.644291 -0.09829,-0.292454 -0.239803,-1.166577 -0.651813,-1.166577 0,0.516675 0.135237,0.981359 0.285916,1.475284 0.1935,0.662907 0.30131,1.325827 0.359762,2.017958 0.150869,1.70601 -0.01185,3.45426 -0.645678,5.04653 -1.180656,2.95708 -3.769479,5.22526 -6.321379,6.83052 -2.690309,1.68975 -5.712648,2.73286 -8.790335,3.25279 -1.666443,0.28272 -3.329806,0.37693 -5.01162,0.36719 -1.798623,-0.003 -3.594192,-0.0131 -5.39284,-0.0131 -1.832469,0 -3.655723,0 -5.48509,0 -0.439698,0 -0.876291,0 -1.315964,0 0,-0.43546 0.187579,-0.90665 0.292096,-1.32907 0.227605,-0.90662 0.418145,-1.82625 0.621094,-2.73937 0.854691,-3.7727 1.70024,-7.54866 2.561137,-11.31811 0.09214,-0.41594 0.187342,-0.828634 0.28286,-1.241331 0.0341,-0.152715 -0.0024,-0.224202 0.159868,-0.224202 0.113685,0 0.218367,0 0.328997,0 0.221447,0 0.439673,0 0.657947,0 0.882401,0 1.76177,0 2.641093,0 1.721793,0 3.443561,0 5.165355,0 -0.863953,3.840963 -1.724872,7.691653 -2.585769,11.532613 1.737164,0 3.492754,0.0942 5.205333,-0.20797 0.860873,-0.14624 1.703343,-0.4062 2.524261,-0.7019 0.670261,-0.24049 1.325152,-0.49394 1.940065,-0.85789 2.293647,-1.35505 4.166095,-3.98393 3.87402,-6.876 -0.322838,-3.217039 -3.541968,-4.429116 -6.173802,-4.728073 -1.592666,-0.18523 -3.20068,-0.139734 -4.79948,-0.136471 -1.82939,0.0064 -3.655724,0 -5.485113,0 -0.697927,0 -1.395852,0 -2.093801,0 -0.147552,0 -0.295176,0 -0.439673,0 -0.12292,0 -0.442752,0.06822 -0.442752,-0.07148 0,-0.3477 0.153947,-0.74414 0.233527,-1.078845 0.32902,-1.413437 0.657993,-2.823731 0.98699,-4.237278 z"
         id="path4130"
         style="fill:none;stroke:#969696;stroke-width:1.80000019;stroke-linejoin:round;stroke-miterlimit:4;stroke-opacity:1;stroke-dasharray:none" />
      <path
         d="m 27.459885,91.970955 c 7.385225,0 14.770402,0 22.155627,0 3.677228,0 7.351426,0 11.028633,0 0.202973,0 0.408907,-0.02914 0.614913,-0.0064 0.245982,0.0259 0.319782,0.349772 0.405875,0.563529 0.279758,0.673638 0.448887,1.395863 0.651813,2.098648 0.498078,1.729444 1.134495,3.423265 1.706397,5.130036 0.584171,1.748862 1.085328,3.513952 1.583406,5.285512 0.227605,0.80964 0.415088,1.60313 0.473494,2.4387 0.0095,0.10689 0.0952,0.22025 0.169105,0.22025 0.04926,-0.15221 0.110605,-0.29797 0.178342,-0.44047 0.166026,-0.3433 0.368976,-0.67041 0.578036,-0.98456 0.424302,-0.62828 0.897797,-1.21449 1.346682,-1.82984 0.504237,-0.68984 0.983889,-1.40234 1.497338,-2.08569 1.109934,-1.46711 2.278299,-2.87917 3.422033,-4.317133 1.174498,-1.47035 2.348997,-2.940709 3.523494,-4.411058 0.252119,-0.317386 0.516552,-0.625061 0.753299,-0.955407 0.18758,-0.255852 0.37511,-0.560287 0.682555,-0.663922 0.559586,-0.184635 1.214501,-0.09387 1.786356,-0.06801 1.700263,0.07773 3.412818,0.01615 5.116138,0.01615 1.820152,0 3.637274,0 5.45745,0 1.820177,0 3.64033,0.0032 5.457404,0.0097 0.89474,0.0032 1.792489,-0.0259 2.68723,0.04859 0.823997,0.07124 1.638785,0.174878 2.453545,0.327105 3.0008,0.547333 6.06928,1.706775 8.28915,3.977077 1.04229,1.071996 1.90008,2.386892 2.28443,3.879908 0.36279,1.39587 0.29207,2.86944 -0.0921,4.24589 -0.77481,2.782 -2.678,5.18833 -4.93475,6.79145 -1.40512,0.99429 -2.81633,1.91081 -4.3721,2.62009 -1.53423,0.69308 -3.129959,1.22746 -4.759501,1.59667 -3.440482,0.78375 -6.963978,0.64124 -10.45981,0.64124 -2.727185,0 -5.454347,0 -8.187692,0 0.07366,-0.8712 0.353558,-1.72296 0.54727,-2.57149 0.206054,-0.9295 0.418169,-1.86223 0.627229,-2.79173 0.424279,-1.88489 0.848581,-3.7698 1.275962,-5.65469 0.239803,-1.07201 0.467336,-2.14725 0.697925,-3.22572 0.107763,-0.51495 0.224526,-1.02016 0.353605,-1.53187 0.07057,-0.26882 0.129316,-0.663929 0.30742,-0.884158 0.08596,-0.113338 0.2952,-0.126301 0.421271,-0.139264 0.276702,-0.03238 0.559539,-0.03238 0.836288,-0.0259 0.654892,0.01614 1.30668,0.03238 1.961595,0.03238 1.866265,0 3.744872,0 5.617296,0 -0.113685,0.923012 -0.368929,1.813632 -0.578037,2.713972 -0.224526,0.95866 -0.433491,1.93026 -0.648733,2.89862 -0.442728,1.95615 -0.900851,3.91229 -1.288277,5.88464 1.678734,0 3.354413,0.0647 5.014699,-0.18135 0.845548,-0.12635 1.731004,-0.37894 2.53963,-0.66394 0.747141,-0.25586 1.472754,-0.57972 2.152229,-0.98454 2.072301,-1.23718 3.735661,-3.38767 3.834041,-5.98182 0.04,-1.09789 -0.2429,-2.20228 -0.89779,-3.070236 -0.80247,-1.075229 -2.044637,-1.658189 -3.268327,-2.020917 -3.05308,-0.913304 -6.345963,-0.579723 -9.485158,-0.563529 -0.910065,0.0032 -1.817074,0.0064 -2.730242,0.01292 -0.436618,0 -0.873213,0.0032 -1.312837,0.0032 -0.445832,0.0032 -0.947013,-0.06152 -1.386661,0.01613 -0.375111,0.06474 -0.633387,0.53762 -0.867055,0.812903 -0.319736,0.378926 -0.636441,0.751372 -0.956202,1.130297 -0.614912,0.725462 -1.226769,1.447682 -1.84476,2.169902 -2.453538,2.88889 -4.882494,5.80044 -7.323741,8.70229 -1.924694,2.28974 -3.830963,4.59564 -5.774107,6.86919 -1.1745,1.37318 -2.395134,2.71724 -3.511203,4.14548 -0.107764,0.13927 -0.26749,0.29797 -0.328998,0.47287 -0.0024,0.009 -0.0024,0.013 -0.0024,0.0225 -0.122921,0 -0.135237,0.039 -0.162947,-0.10362 -0.0431,-0.20403 -0.09214,-0.40483 -0.153948,-0.60564 -0.122921,-0.43073 -0.279781,-0.85176 -0.436594,-1.27279 -0.651812,-1.75859 -1.211374,-3.56251 -1.810939,-5.33731 -1.229849,-3.66616 -2.462752,-7.33557 -3.692602,-11.00173 -0.381267,-1.13029 -0.771724,-2.26059 -1.14989,-3.387627 -0.190421,-0.547347 -0.375086,-1.09144 -0.562664,-1.63878 -0.09829,-0.291476 -0.239803,-1.162673 -0.651813,-1.162673 0,0.514945 0.135237,0.978075 0.285916,1.470347 0.1935,0.660689 0.30131,1.321389 0.359762,2.011203 0.150869,1.7003 -0.01185,3.44271 -0.645678,5.02964 -1.180656,2.94719 -3.769479,5.20778 -6.321379,6.80767 -2.690309,1.6841 -5.712648,2.72372 -8.790335,3.24191 -1.666443,0.28177 -3.329806,0.37567 -5.01162,0.36597 -1.798623,-0.003 -3.594192,-0.0131 -5.39284,-0.0131 -1.832469,0 -3.655723,0 -5.48509,0 -0.439698,0 -0.876291,0 -1.315964,0 0,-0.43399 0.187579,-0.90361 0.292096,-1.32462 0.227605,-0.90359 0.418145,-1.82014 0.621094,-2.7302 0.854691,-3.76008 1.70024,-7.5234 2.561137,-11.28025 0.09214,-0.41454 0.187342,-0.825848 0.28286,-1.23717 0.0341,-0.152203 -0.0024,-0.223451 0.159868,-0.223451 0.113685,0 0.218367,0 0.328997,0 0.221447,0 0.439673,0 0.657947,0 0.882401,0 1.76177,0 2.641093,0 1.721793,0 3.443561,0 5.165355,0 -0.863953,3.828121 -1.724872,7.665911 -2.585769,11.494021 1.737164,0 3.492754,0.0939 5.205333,-0.20727 0.860873,-0.14575 1.703343,-0.40483 2.524261,-0.69954 0.670261,-0.2397 1.325152,-0.49229 1.940065,-0.85503 2.293647,-1.35052 4.166095,-3.9706 3.87402,-6.853 -0.322838,-3.20627 -3.541968,-4.414292 -6.173802,-4.712248 -1.592666,-0.18461 -3.20068,-0.139266 -4.79948,-0.136014 -1.82939,0.0064 -3.655724,0 -5.485113,0 -0.697927,0 -1.395852,0 -2.093801,0 -0.147552,0 -0.295176,0 -0.439673,0 -0.12292,0 -0.442752,0.06799 -0.442752,-0.07124 0,-0.346538 0.153947,-0.74165 0.233527,-1.075235 0.32902,-1.408708 0.657993,-2.814284 0.98699,-4.2231"
         id="path4121"
         style="fill:url(#linearGradient4126);fill-opacity:1" />
    </g>
    <g
       id="g3846" />
  </g>
</svg>
