<?xml version="1.0" encoding="UTF-8" standalone="no"?>
<!-- Created with Inkscape (http://www.inkscape.org/) -->

<svg
   xmlns:svg="http://www.w3.org/2000/svg"
   xmlns="http://www.w3.org/2000/svg"
   xmlns:xlink="http://www.w3.org/1999/xlink"
   version="1.0"
   width="128"
   height="128"
   id="svg11300"
   style="display:inline;enable-background:new">
  <title
     id="title2897">Candy Icon Theme</title>
  <defs
     id="defs3">
    <linearGradient
       id="linearGradient3778">
      <stop
         id="stop3780"
         style="stop-color:#382f2c;stop-opacity:1"
         offset="0" />
      <stop
         id="stop3782"
         style="stop-color:#161616;stop-opacity:1"
         offset="1" />
    </linearGradient>
    <linearGradient
       id="linearGradient3770">
      <stop
         id="stop3772"
         style="stop-color:#63493d;stop-opacity:1"
         offset="0" />
      <stop
         id="stop3774"
         style="stop-color:#382f2c;stop-opacity:1"
         offset="1" />
    </linearGradient>
    <linearGradient
       id="linearGradient3696">
      <stop
         id="stop3698"
         style="stop-color:#ceb786;stop-opacity:0.78431374"
         offset="0" />
      <stop
         id="stop3700"
         style="stop-color:#887454;stop-opacity:1"
         offset="1" />
    </linearGradient>
    <linearGradient
       id="linearGradient3644">
      <stop
         id="stop3646"
         style="stop-color:#ffffff;stop-opacity:1"
         offset="0" />
      <stop
         id="stop3648"
         style="stop-color:#ffffff;stop-opacity:0"
         offset="1" />
    </linearGradient>
    <linearGradient
       id="linearGradient3634">
      <stop
         id="stop3636"
         style="stop-color:#000000;stop-opacity:0"
         offset="0" />
      <stop
         id="stop3638"
         style="stop-color:#000000;stop-opacity:1"
         offset="1" />
    </linearGradient>
    <linearGradient
       id="linearGradient3601">
      <stop
         id="stop3603"
         style="stop-color:#e6d2aa;stop-opacity:1"
         offset="0" />
      <stop
         id="stop3605"
         style="stop-color:#b59463;stop-opacity:1"
         offset="1" />
    </linearGradient>
    <filter
       x="-0.078428574"
       y="-0.87840003"
       width="1.1568571"
       height="2.7567999"
       color-interpolation-filters="sRGB"
       id="filter3806">
      <feGaussianBlur
         stdDeviation="3.66"
         id="feGaussianBlur3808" />
    </filter>
    <radialGradient
       cx="158"
       cy="-10.320545"
       r="21.84375"
       fx="158"
       fy="-10.320545"
       id="radialGradient3836"
       xlink:href="#linearGradient3644"
       gradientUnits="userSpaceOnUse"
       gradientTransform="matrix(3.1463125,-5.3233797e-7,2.9279309e-7,1.7655636,-430.11738,42.235372)" />
    <radialGradient
       cx="158"
       cy="-10.320545"
       r="21.84375"
       fx="158"
       fy="-10.320545"
       id="radialGradient3839"
       xlink:href="#linearGradient3634"
       gradientUnits="userSpaceOnUse"
       gradientTransform="matrix(3.1463125,-5.5179731e-7,2.9279309e-7,1.8301029,-430.11738,42.901957)" />
    <radialGradient
       cx="158"
       cy="38.500023"
       r="21"
       fx="158"
       fy="38.500023"
       id="radialGradient3842"
       xlink:href="#linearGradient3644"
       gradientUnits="userSpaceOnUse"
       gradientTransform="matrix(2.6190475,0,0,0.14285714,-346.8095,44.499998)" />
    <radialGradient
       cx="158"
       cy="12.374995"
       r="22.000006"
       fx="158"
       fy="12.374995"
       id="radialGradient3847"
       xlink:href="#linearGradient3644"
       gradientUnits="userSpaceOnUse"
       gradientTransform="matrix(3.239667,9.2078312e-7,-7.4227427e-7,2.711647,-444.86739,10.036985)" />
    <radialGradient
       cx="158"
       cy="12.374995"
       r="22.000006"
       fx="158"
       fy="12.374995"
       id="radialGradient3850"
       xlink:href="#linearGradient3634"
       gradientUnits="userSpaceOnUse"
       gradientTransform="matrix(3.239667,9.2078312e-7,-7.4227427e-7,2.711647,-444.86739,10.036985)" />
    <linearGradient
       x1="157"
       y1="7"
       x2="157"
       y2="49"
       id="linearGradient3854"
       xlink:href="#linearGradient3601"
       gradientUnits="userSpaceOnUse"
       gradientTransform="matrix(2.5813955,0,0,2.6095589,-340.86048,4.9363891)" />
    <linearGradient
       x1="159"
       y1="7"
       x2="159"
       y2="49"
       id="linearGradient3856"
       xlink:href="#linearGradient3696"
       gradientUnits="userSpaceOnUse"
       gradientTransform="matrix(2.5813955,0,0,2.6095589,-340.86048,4.9363891)" />
    <linearGradient
       x1="168"
       y1="37"
       x2="168"
       y2="50"
       id="linearGradient4048"
       xlink:href="#linearGradient3770"
       gradientUnits="userSpaceOnUse"
       gradientTransform="matrix(2.6923078,0,0,2.6666668,-362.15385,-5.500001)" />
    <linearGradient
       x1="171"
       y1="37"
       x2="171"
       y2="50"
       id="linearGradient4050"
       xlink:href="#linearGradient3778"
       gradientUnits="userSpaceOnUse"
       gradientTransform="matrix(2.6923078,0,0,2.6666668,-362.15385,-5.500001)" />
    <radialGradient
       cx="93"
       cy="77.715958"
       r="36"
       fx="93"
       fy="77.715958"
       id="radialGradient4052"
       xlink:href="#linearGradient3634"
       gradientUnits="userSpaceOnUse"
       gradientTransform="matrix(1.3305244,4.9560154e-8,-2.4990861e-8,0.68891406,-32.23877,41.93436)" />
    <radialGradient
       cx="93"
       cy="77.715958"
       r="36"
       fx="93"
       fy="77.715958"
       id="radialGradient4054"
       xlink:href="#linearGradient3644"
       gradientUnits="userSpaceOnUse"
       gradientTransform="matrix(1.3305244,4.9560154e-8,-2.4990861e-8,0.68891406,-32.23877,41.93436)" />
  </defs>
  <g
     transform="translate(-3,-4)"
     id="layer1"
     style="display:inline">
    <g
       id="layer6"
       style="display:none" />
    <rect
       width="112"
       height="10"
       rx="5"
       ry="5"
       x="11"
       y="114"
       id="rect3760"
       style="opacity:0.8;fill:#000000;fill-opacity:1;stroke:none;filter:url(#filter3806)" />
    <g
       id="g3911" />
    <g
       id="g4000" />
    <g
       id="g4039" />
    <g
       id="g4078" />
    <g
       id="g4213" />
    <g
       id="g3890">
      <path
         d="m 26.988373,24.508081 c -1.695281,0 -5.880343,0.679065 -7.744186,5.219118 l -6.453489,14.352575 c -0.907774,2.018917 -1.290697,4.306196 -1.290697,6.523896 l 0,67.67733 c 0,2.89141 2.302603,5.219 5.162789,5.219 l 100.67442,0 c 2.86019,0 5.1628,-2.32759 5.1628,-5.219 l 0,-67.67733 c 0,-2.2177 -0.38293,-4.504979 -1.2907,-6.523896 l -6.4535,-14.352575 c -1.98963,-4.385385 -6.91944,-5.327477 -7.74418,-5.219118 l -80.023257,0 z"
         id="path2908"
         style="fill:url(#linearGradient3854);fill-opacity:1;stroke:url(#linearGradient3856);stroke-width:1;stroke-opacity:1" />
      <path
         d="m 123.00001,49 0,68.51562 c 0,3.59235 -2.83819,6.48438 -6.36364,6.48438 l -99.272731,0 c -3.525454,0 -6.363635,-2.89203 -6.363635,-6.48438 l 0,-68.51562 112.000006,0 z"
         id="path2910"
         style="opacity:0.07999998;fill:url(#radialGradient3850);fill-opacity:1;stroke:none" />
      <path
         d="m 123.00001,49 0,68.51562 c 0,3.59235 -2.83819,6.48438 -6.36364,6.48438 l -99.272731,0 c -3.525454,0 -6.363635,-2.89203 -6.363635,-6.48438 l 0,-68.51562 112.000006,0 z"
         id="path2912"
         style="opacity:0.2;fill:url(#radialGradient3847);fill-opacity:1;stroke:none" />
      <rect
         width="110"
         height="0.5"
         x="12"
         y="48.5"
         id="rect2914"
         style="opacity:0.2;fill:#000000;fill-opacity:1;stroke:none" />
      <rect
         width="0.5"
         height="24.986288"
         x="65.300003"
         y="24.013712"
         id="rect2916"
         style="opacity:0.2;fill:#000000;fill-opacity:1;stroke:none" />
      <rect
         width="109.99999"
         height="1"
         x="12"
         y="49"
         id="rect2920"
         style="opacity:0.4;fill:url(#radialGradient3842);fill-opacity:1;stroke:none" />
      <path
         d="m 27.545455,24.014213 c -1.003927,0 -2.597763,0.213329 -4.295454,1.082692 -1.682265,0.861462 -3.491039,2.416565 -4.53409,4.997038 -0.01018,0.02367 0.01018,0.05946 0,0.08329 L 12.352276,44.751924 C 11.902877,45.787105 11.613331,46.891022 11.397731,48 l 111.204519,0 c -0.2156,-1.108978 -0.50514,-2.212895 -0.95454,-3.248076 l -6.36364,-14.657981 c -1.13262,-2.585558 -3.0997,-4.114648 -4.85227,-4.997038 -0.87627,-0.441195 -1.77716,-0.750326 -2.46591,-0.916124 -0.62374,-0.15015 -0.99631,-0.210992 -1.51136,-0.166568 l -0.15909,0 -78.749985,0 z"
         id="path2922"
         style="font-size:medium;font-style:normal;font-variant:normal;font-weight:normal;font-stretch:normal;text-indent:0;text-align:start;text-decoration:none;line-height:normal;letter-spacing:normal;word-spacing:normal;text-transform:none;direction:ltr;block-progression:tb;writing-mode:lr-tb;text-anchor:start;opacity:0.07999998;color:#000000;fill:url(#radialGradient3839);fill-opacity:1;stroke:none;stroke-width:1;marker:none;visibility:visible;display:inline;overflow:visible;enable-background:accumulate;font-family:Andale Mono;-inkscape-font-specification:Andale Mono" />
      <path
         d="m 27.545455,24.013712 c -1.003927,0 -2.597763,0.205806 -4.295454,1.04451 -1.682265,0.831082 -3.491039,2.331344 -4.53409,4.820816 -0.01018,0.02283 0.01018,0.05736 0,0.08035 L 12.352276,44.0201 c -0.449399,0.998675 -0.738945,2.063662 -0.954545,3.133531 l 111.204519,0 c -0.2156,-1.069869 -0.50514,-2.134856 -0.95454,-3.133531 l -6.36364,-14.141062 c -1.13262,-2.494378 -3.0997,-3.969544 -4.85227,-4.820816 -0.87627,-0.425636 -1.77716,-0.723865 -2.46591,-0.883816 -0.62374,-0.144855 -0.99631,-0.203552 -1.51136,-0.160694 l -0.15909,0 -78.749985,0 z"
         id="path2924"
         style="font-size:medium;font-style:normal;font-variant:normal;font-weight:normal;font-stretch:normal;text-indent:0;text-align:start;text-decoration:none;line-height:normal;letter-spacing:normal;word-spacing:normal;text-transform:none;direction:ltr;block-progression:tb;writing-mode:lr-tb;text-anchor:start;opacity:0.2;color:#000000;fill:url(#radialGradient3836);fill-opacity:1;stroke:none;stroke-width:1;marker:none;visibility:visible;display:inline;overflow:visible;enable-background:accumulate;font-family:Andale Mono;-inkscape-font-specification:Andale Mono" />
      <path
         d="M 59.111111,24 54,49.717551 54,77 56.555555,75.435101 c 0.109566,1.135609 1.082709,1.947376 2.555556,2.571755 0.840828,-0.85863 0.440809,-1.872365 2.555555,-2.571755 1.476125,-0.545115 2.442944,-1.344883 2.555556,-2.571755 2.128419,-0.586781 3.836154,0.256767 5.111112,2.571755 l 2.555555,-2.571755 c 1.224027,0.337541 1.695463,1.530675 2.555556,2.571755 l 2.555555,0 0,-25.71755 L 71.888889,24 59.111111,24 z"
         id="path2926"
         style="opacity:0.2;fill:#ffffff;fill-opacity:1;stroke:none" />
      <path
         d="M 58.125,24 53,49.71875 53,78 54,77 54,49.71875 59.125,24 l -1,0 z"
         id="path2976"
         style="opacity:0.3;fill:#ffffff;fill-opacity:1;stroke:none" />
      <path
         d="M 71.875,24 77,49.71875 l 0,25.71875 1,0 L 78,49.71875 72.875,24 l -1,0 z"
         id="path3755"
         style="opacity:0.3;fill:#ffffff;fill-opacity:1;stroke:none" />
    </g>
    <g
       id="g4011" />
    <g
       transform="translate(1,0)"
       id="g4042">
      <rect
         width="70"
         height="32"
         rx="5"
         ry="5"
         x="56.5"
         y="94.5"
         id="rect3826"
         style="fill:url(#linearGradient4048);fill-opacity:1;stroke:url(#linearGradient4050);stroke-width:1;stroke-opacity:1" />
      <path
         d="M 71.1875,103 C 66.421672,103 63,106.60906 63,111.5625 63,116.45732 66.38609,120 71.09375,120 c 2.266663,0 3.834803,-0.74138 5.375,-2.5 l 0,2.125 3.53125,0 0,-16.25 -3.53125,0 0,2.1875 C 75.131985,103.77457 73.512246,103 71.1875,103 z m 20.5,0 C 86.804844,103 83,106.72242 83,111.5 c 0,4.71896 3.929815,8.5 8.8125,8.5 3.840615,0 6.817985,-2.08427 8.1875,-5.71875 l -4.46875,0 c -0.982487,1.49483 -2.112522,2.15625 -3.75,2.15625 -2.739046,0 -4.78125,-2.12565 -4.78125,-4.96875 0,-2.8431 1.948454,-4.90625 4.6875,-4.90625 1.786337,0 3.039929,0.75517 3.84375,2.25 l 4.46875,0 c -0.565664,-1.64138 -1.087429,-2.5054 -2.21875,-3.53125 C 96.173549,103.81573 93.979941,103 91.6875,103 z m 19.90625,0 C 106.79967,103 103,106.78492 103,111.5625 c 0,4.74827 3.84192,8.4375 8.8125,8.4375 2.67645,0 4.76289,-0.9737 6.46875,-2.9375 0.61767,-0.76206 1.04779,-1.42931 1.3125,-2.25 l -4.28125,0 c -0.99999,1.17241 -1.94486,1.625 -3.5625,1.625 -2.32353,0 -4.0294,-1.25496 -4.5,-3.21875 l 12.59375,0 C 119.96129,112.66185 120,112.33621 120,111.75 c -9e-5,-5.04137 -3.55334,-8.75 -8.40625,-8.75 z m -40,3.5625 c 2.760683,0 4.75,2.10216 4.75,5.0625 0,1.17241 -0.458797,2.52306 -1.15625,3.34375 -0.784604,0.93793 -2.049164,1.46875 -3.53125,1.46875 -2.818793,0 -4.75,-1.93815 -4.75,-4.78125 0,-2.96034 1.926819,-5.09375 4.6875,-5.09375 z m 40.0625,0 c 2.41172,0 3.99997,1.16897 4.5,3.25 l -9.03125,0 c 0.61764,-2.08103 2.20774,-3.25 4.53125,-3.25 z"
         id="path4019"
         style="font-size:11px;font-style:normal;font-variant:normal;font-weight:bold;font-stretch:normal;fill:#ffffff;fill-opacity:1;stroke:none;font-family:URW Gothic L;-inkscape-font-specification:URW Gothic L Semi-Bold" />
      <rect
         width="71"
         height="33"
         rx="5.5"
         ry="5.5"
         x="56"
         y="94"
         id="rect3858"
         style="opacity:0.07999998;fill:url(#radialGradient4052);fill-opacity:1;stroke:none" />
      <rect
         width="71"
         height="33"
         rx="5.5"
         ry="5.5"
         x="56"
         y="94"
         id="rect3864"
         style="opacity:0.2;fill:url(#radialGradient4054);fill-opacity:1;stroke:none" />
    </g>
    <g
       id="g4075" />
  </g>
</svg>
