<?xml version="1.0" encoding="UTF-8" standalone="no"?>
<!-- Created with Inkscape (http://www.inkscape.org/) -->

<svg
   xmlns:svg="http://www.w3.org/2000/svg"
   xmlns="http://www.w3.org/2000/svg"
   xmlns:xlink="http://www.w3.org/1999/xlink"
   version="1.0"
   width="128"
   height="128"
   id="svg11300"
   style="display:inline;enable-background:new">
  <title
     id="title2897">Candy Icon Theme</title>
  <defs
     id="defs3">
    <linearGradient
       id="linearGradient3596">
      <stop
         id="stop3598"
         style="stop-color:#f0f0f0;stop-opacity:1"
         offset="0" />
      <stop
         id="stop3600"
         style="stop-color:#ffffff;stop-opacity:1"
         offset="1" />
    </linearGradient>
    <linearGradient
       id="linearGradient3604">
      <stop
         id="stop3606"
         style="stop-color:#bebebe;stop-opacity:1"
         offset="0" />
      <stop
         id="stop3608"
         style="stop-color:#d7d7d7;stop-opacity:1"
         offset="1" />
    </linearGradient>
    <linearGradient
       id="linearGradient3616">
      <stop
         id="stop3618"
         style="stop-color:#000000;stop-opacity:0"
         offset="0" />
      <stop
         id="stop3620"
         style="stop-color:#000000;stop-opacity:1"
         offset="1" />
    </linearGradient>
    <filter
       x="-0.085959181"
       y="-0.84240049"
       width="1.1719184"
       height="2.6848011"
       color-interpolation-filters="sRGB"
       id="filter4157">
      <feGaussianBlur
         stdDeviation="3.5099998"
         id="feGaussianBlur4159" />
    </filter>
    <radialGradient
       cx="158"
       cy="11.484326"
       r="19"
       fx="158"
       fy="11.484326"
       id="radialGradient2901"
       xlink:href="#linearGradient3616"
       gradientUnits="userSpaceOnUse"
       gradientTransform="matrix(4.3434901,6.2386781e-8,-7.1036129e-8,4.5633972,-619.27144,-25.021195)" />
    <linearGradient
       x1="158"
       y1="49"
       x2="158"
       y2="5"
       id="linearGradient2906"
       xlink:href="#linearGradient3596"
       gradientUnits="userSpaceOnUse"
       gradientTransform="matrix(2.7714288,0,0,2.5116278,-370.88573,1.686048)" />
    <linearGradient
       x1="155"
       y1="49"
       x2="155"
       y2="5"
       id="linearGradient2908"
       xlink:href="#linearGradient3604"
       gradientUnits="userSpaceOnUse"
       gradientTransform="matrix(2.7714288,0,0,2.5116278,-370.88573,1.686048)" />
  </defs>
  <g
     transform="translate(-3,-4)"
     id="layer1"
     style="display:inline">
    <g
       id="layer6"
       style="display:none" />
    <rect
       width="98"
       height="9.9999933"
       rx="5"
       ry="5"
       x="18"
       y="114"
       id="rect4094"
       style="opacity:0.8;fill:#000000;fill-opacity:1;stroke:none;filter:url(#filter4157)" />
    <g
       id="g2967" />
    <g
       id="g2972" />
    <g
       id="g2939" />
    <g
       id="g2990">
      <rect
         width="97"
         height="108"
         rx="5"
         ry="5"
         x="18.5"
         y="15.5"
         id="rect3773"
         style="fill:url(#linearGradient2906);fill-opacity:1;stroke:url(#linearGradient2908);stroke-width:0.99999994;stroke-linejoin:round;stroke-miterlimit:4;stroke-opacity:1;stroke-dasharray:none" />
      <path
         d="M 37,30 31,32.34375 32.3125,33.75 35,32.90625 35,46 37,46 37,30 z M 37,52 31,54.34375 32.3125,55.75 35,54.90625 35,68 l 2,0 0,-16 z m 10.5,0 c -0.804842,1.6e-5 -1.553397,0.201344 -2.25,0.65625 -0.693715,0.44608 -1.313804,1.009822 -1.78125,1.75 C 43.009748,55.144084 42.700373,56.036152 42.4375,57 42.174848,57.9649 42,58.966361 42,60 c 0,1.388576 0.25135,2.640142 0.6875,3.84375 0.443822,1.205194 1.0302,2.23817 1.875,3 C 45.410463,67.601405 46.42893,68 47.5,68 c 0.79783,0 1.560218,-0.302008 2.25,-0.75 0.693605,-0.446 1.320515,-1.016448 1.78125,-1.75 0.466015,-0.737837 0.768267,-1.636507 1.03125,-2.59375 C 52.825152,61.941367 53,61.033659 53,60 c 0,-1.388774 -0.2442,-2.695712 -0.6875,-3.90625 -0.443822,-1.21207 -1.123868,-2.23802 -1.96875,-3 C 49.502799,52.329082 48.558145,52.000016 47.5,52 z m 0,2 c 0.394274,1.2e-5 0.842206,0.120131 1.25,0.40625 0.408755,0.286874 0.75625,0.708631 1.09375,1.21875 0.340967,0.499066 0.596603,1.187263 0.8125,1.96875 C 50.871188,58.36641 51,59.141792 51,60.03125 c 0,0.722241 -0.01358,1.416133 -0.15625,2.0625 -0.137336,0.647653 -0.354465,1.149904 -0.59375,1.625 -0.234138,0.478488 -0.540465,0.963405 -0.84375,1.3125 C 49.102937,65.380286 48.82814,65.576113 48.5,65.75 48.177381,65.924341 47.807925,66 47.5,66 c -0.322033,2e-6 -0.670928,-0.07561 -1,-0.25 C 46.170953,65.569155 45.897302,65.28684 45.59375,64.9375 45.296277,64.581053 44.984671,64.197881 44.75,63.71875 44.517196,63.243027 44.387283,62.641247 44.25,62 44.112931,61.353085 44,60.747015 44,60.03125 44,59.134923 44.128546,58.279486 44.34375,57.5 c 0.216004,-0.781827 0.4778,-1.375726 0.8125,-1.875 C 45.50039,55.121365 45.841192,54.686588 46.25,54.40625 46.657768,54.120137 47.105726,54.000012 47.5,54 z M 37,74 31,76.34375 32.3125,77.75 35,76.90625 35,90 l 2,0 0,-16 z m 10.5,0 c -0.804842,1.6e-5 -1.553397,0.201344 -2.25,0.65625 -0.693715,0.44608 -1.313804,1.009822 -1.78125,1.75 C 43.009748,77.144084 42.700373,78.036152 42.4375,79 42.174848,79.9649 42,80.966361 42,82 c 0,1.388576 0.25135,2.640142 0.6875,3.84375 0.443822,1.205194 1.0302,2.23817 1.875,3 C 45.410463,89.601405 46.42893,90 47.5,90 c 0.79783,0 1.560218,-0.302008 2.25,-0.75 0.693605,-0.446 1.320515,-1.016448 1.78125,-1.75 0.466015,-0.737837 0.768267,-1.636507 1.03125,-2.59375 C 52.825152,83.941367 53,83.033659 53,82 c 0,-1.388774 -0.2442,-2.695712 -0.6875,-3.90625 -0.443822,-1.21207 -1.123868,-2.23802 -1.96875,-3 C 49.502799,74.329082 48.558145,74.000016 47.5,74 z M 62,74 56,76.34375 57.3125,77.75 60,76.90625 60,90 l 2,0 0,-16 z m -14.5,2 c 0.394274,1.2e-5 0.842206,0.120131 1.25,0.40625 0.408755,0.286874 0.75625,0.708631 1.09375,1.21875 0.340967,0.499066 0.596603,1.187263 0.8125,1.96875 C 50.871188,80.36641 51,81.141792 51,82.03125 c 0,0.722241 -0.01358,1.416133 -0.15625,2.0625 -0.137336,0.647653 -0.354465,1.149904 -0.59375,1.625 -0.234138,0.478488 -0.540465,0.963405 -0.84375,1.3125 C 49.102937,87.380286 48.82814,87.576113 48.5,87.75 48.177381,87.924341 47.807925,88 47.5,88 c -0.322033,2e-6 -0.670928,-0.07561 -1,-0.25 C 46.170953,87.569155 45.897302,87.28684 45.59375,86.9375 45.296277,86.581053 44.984671,86.197881 44.75,85.71875 44.517196,85.243027 44.387283,84.641247 44.25,84 44.112931,83.353085 44,82.747015 44,82.03125 44,81.134923 44.128546,80.279486 44.34375,79.5 c 0.216004,-0.781827 0.4778,-1.375726 0.8125,-1.875 C 45.50039,77.121365 45.841192,76.686588 46.25,76.40625 46.657768,76.120137 47.105726,76.000012 47.5,76 z M 37,96 31,98.34375 32.3125,99.75 35,98.90625 35,112 l 2,0 0,-16 z m 10.5,0 c -0.804842,1.6e-5 -1.553397,0.201344 -2.25,0.65625 -0.693715,0.44608 -1.313804,1.009822 -1.78125,1.75 C 43.009748,99.14408 42.700373,100.03615 42.4375,101 42.174848,101.9649 42,102.96636 42,104 c 0,1.38858 0.25135,2.64014 0.6875,3.84375 0.443822,1.20519 1.0302,2.23817 1.875,3 C 45.410463,111.60141 46.42893,112 47.5,112 c 0.79783,0 1.560218,-0.30201 2.25,-0.75 0.693605,-0.446 1.320515,-1.01645 1.78125,-1.75 0.466015,-0.73784 0.768267,-1.63651 1.03125,-2.59375 C 52.825152,105.94137 53,105.03366 53,104 c 0,-1.38877 -0.2442,-2.69571 -0.6875,-3.90625 -0.443822,-1.21207 -1.123868,-2.23802 -1.96875,-3 C 49.502799,96.329082 48.558145,96.000016 47.5,96 z M 62,96 56,98.34375 57.3125,99.75 60,98.90625 60,112 l 2,0 0,-16 z m 11.5,0 c -0.804842,1.6e-5 -1.553397,0.201344 -2.25,0.65625 -0.693715,0.44608 -1.313804,1.009822 -1.78125,1.75 C 69.009748,99.14408 68.700373,100.03615 68.4375,101 68.174848,101.9649 68,102.96636 68,104 c 0,1.38858 0.25135,2.64014 0.6875,3.84375 0.443822,1.20519 1.0302,2.23817 1.875,3 C 71.410463,111.60141 72.42893,112 73.5,112 c 0.79783,0 1.560218,-0.30201 2.25,-0.75 0.693605,-0.446 1.320515,-1.01645 1.78125,-1.75 0.466015,-0.73784 0.768267,-1.63651 1.03125,-2.59375 C 78.825152,105.94137 79,105.03366 79,104 c 0,-1.38877 -0.2442,-2.69571 -0.6875,-3.90625 -0.443822,-1.21207 -1.123868,-2.23802 -1.96875,-3 C 75.502799,96.329082 74.558145,96.000016 73.5,96 z m -26,2 c 0.394274,1.2e-5 0.842206,0.120131 1.25,0.40625 0.408755,0.286874 0.75625,0.70863 1.09375,1.21875 0.340967,0.49907 0.596603,1.18726 0.8125,1.96875 0.214938,0.77266 0.34375,1.54804 0.34375,2.4375 0,0.72224 -0.01358,1.41613 -0.15625,2.0625 -0.137336,0.64765 -0.354465,1.1499 -0.59375,1.625 -0.234138,0.47849 -0.540465,0.9634 -0.84375,1.3125 -0.303313,0.34904 -0.57811,0.54486 -0.90625,0.71875 -0.322619,0.17434 -0.692075,0.25 -1,0.25 -0.322033,0 -0.670928,-0.0756 -1,-0.25 -0.329047,-0.18085 -0.602698,-0.46316 -0.90625,-0.8125 -0.297473,-0.35645 -0.609079,-0.73962 -0.84375,-1.21875 -0.232804,-0.47572 -0.362717,-1.0775 -0.5,-1.71875 -0.137069,-0.64692 -0.25,-1.25298 -0.25,-1.96875 0,-0.89633 0.128546,-1.75176 0.34375,-2.53125 0.216004,-0.78183 0.4778,-1.37573 0.8125,-1.875 C 45.50039,99.12136 45.841192,98.686588 46.25,98.40625 46.657768,98.120137 47.105726,98.000012 47.5,98 z m 26,0 c 0.394274,1.2e-5 0.842206,0.120131 1.25,0.40625 0.408755,0.286874 0.75625,0.70863 1.09375,1.21875 0.340967,0.49907 0.596603,1.18726 0.8125,1.96875 0.214938,0.77266 0.34375,1.54804 0.34375,2.4375 0,0.72224 -0.01358,1.41613 -0.15625,2.0625 -0.137336,0.64765 -0.354465,1.1499 -0.59375,1.625 -0.234138,0.47849 -0.540465,0.9634 -0.84375,1.3125 -0.303313,0.34904 -0.57811,0.54486 -0.90625,0.71875 -0.322619,0.17434 -0.692075,0.25 -1,0.25 -0.322033,0 -0.670928,-0.0756 -1,-0.25 -0.329047,-0.18085 -0.602698,-0.46316 -0.90625,-0.8125 -0.297473,-0.35645 -0.609079,-0.73962 -0.84375,-1.21875 -0.232804,-0.47572 -0.362717,-1.0775 -0.5,-1.71875 -0.137069,-0.64692 -0.25,-1.25298 -0.25,-1.96875 0,-0.89633 0.128546,-1.75176 0.34375,-2.53125 0.216004,-0.78183 0.4778,-1.37573 0.8125,-1.875 C 71.50039,99.12136 71.841192,98.686588 72.25,98.40625 72.657768,98.120137 73.105726,98.000012 73.5,98 z"
         id="path2983"
         style="font-size:8px;font-style:normal;font-variant:normal;font-weight:bold;font-stretch:normal;opacity:0.45;fill:#000000;fill-opacity:1;stroke:none;font-family:Sawasdee;-inkscape-font-specification:Andale Mono Bold" />
      <rect
         width="98"
         height="109"
         rx="5.5"
         ry="5.5"
         x="18"
         y="14.999993"
         id="rect3775"
         style="opacity:0.07999998;fill:url(#radialGradient2901);fill-opacity:1;stroke:none" />
    </g>
    <g
       id="g2945" />
    <g
       id="g3019" />
  </g>
</svg>
