<?xml version="1.0" encoding="UTF-8" standalone="no"?>
<!-- Created with Inkscape (http://www.inkscape.org/) -->

<svg
   xmlns:svg="http://www.w3.org/2000/svg"
   xmlns="http://www.w3.org/2000/svg"
   xmlns:xlink="http://www.w3.org/1999/xlink"
   version="1.0"
   width="128"
   height="128"
   id="svg11300"
   style="display:inline;enable-background:new">
  <title
     id="title2897">Candy Icon Theme</title>
  <defs
     id="defs3">
    <linearGradient
       id="linearGradient4071">
      <stop
         id="stop4073"
         style="stop-color:#ffffff;stop-opacity:1"
         offset="0" />
      <stop
         id="stop4075"
         style="stop-color:#ffffff;stop-opacity:0"
         offset="1" />
    </linearGradient>
    <linearGradient
       id="linearGradient3596">
      <stop
         id="stop3598"
         style="stop-color:#cba64b;stop-opacity:1"
         offset="0" />
      <stop
         id="stop3600"
         style="stop-color:#edcd83;stop-opacity:1"
         offset="1" />
    </linearGradient>
    <linearGradient
       id="linearGradient3604">
      <stop
         id="stop3606"
         style="stop-color:#9c803e;stop-opacity:1"
         offset="0" />
      <stop
         id="stop3608"
         style="stop-color:#d9b45b;stop-opacity:1"
         offset="1" />
    </linearGradient>
    <linearGradient
       id="linearGradient3616">
      <stop
         id="stop3618"
         style="stop-color:#000000;stop-opacity:0"
         offset="0" />
      <stop
         id="stop3620"
         style="stop-color:#000000;stop-opacity:1"
         offset="1" />
    </linearGradient>
    <filter
       x="-0.085959181"
       y="-0.84240049"
       width="1.1719184"
       height="2.6848011"
       color-interpolation-filters="sRGB"
       id="filter4157">
      <feGaussianBlur
         stdDeviation="3.5099998"
         id="feGaussianBlur4159" />
    </filter>
    <linearGradient
       id="linearGradient3847">
      <stop
         id="stop3849"
         style="stop-color:#fcf9ee;stop-opacity:1"
         offset="0" />
      <stop
         id="stop3851"
         style="stop-color:#efe4c9;stop-opacity:1"
         offset="1" />
    </linearGradient>
    <linearGradient
       id="linearGradient3995">
      <stop
         id="stop3997"
         style="stop-color:#38302c;stop-opacity:1"
         offset="0" />
      <stop
         id="stop3999"
         style="stop-color:#171515;stop-opacity:1"
         offset="1" />
    </linearGradient>
    <linearGradient
       id="linearGradient4001">
      <stop
         id="stop4003"
         style="stop-color:#63493d;stop-opacity:1"
         offset="0" />
      <stop
         id="stop4005"
         style="stop-color:#3d312c;stop-opacity:1"
         offset="1" />
    </linearGradient>
    <radialGradient
       cx="60.5"
       cy="28.49999"
       r="11.5"
       fx="60.5"
       fy="28.49999"
       id="radialGradient3727"
       xlink:href="#linearGradient4071"
       gradientUnits="userSpaceOnUse"
       gradientTransform="matrix(4.0869566,-2.510559e-6,3.7391304e-7,0.60869565,-180.26088,-0.34766839)" />
    <radialGradient
       cx="158"
       cy="11.484326"
       r="19"
       fx="158"
       fy="11.484326"
       id="radialGradient3730"
       xlink:href="#linearGradient4071"
       gradientUnits="userSpaceOnUse"
       gradientTransform="matrix(4.3434901,6.2386781e-8,-7.1036129e-8,4.5633972,-619.27144,-25.021195)" />
    <radialGradient
       cx="158"
       cy="11.484326"
       r="19"
       fx="158"
       fy="11.484326"
       id="radialGradient3733"
       xlink:href="#linearGradient3616"
       gradientUnits="userSpaceOnUse"
       gradientTransform="matrix(4.3434901,6.2386781e-8,-7.1036129e-8,4.5633972,-619.27144,-25.021195)" />
    <linearGradient
       x1="72.87822"
       y1="42.64579"
       x2="73.181816"
       y2="102.35421"
       id="linearGradient3736"
       xlink:href="#linearGradient3847"
       gradientUnits="userSpaceOnUse"
       gradientTransform="matrix(0.96610671,0,0,0.96610177,4.33933,1.4576245)" />
    <linearGradient
       x1="167.90132"
       y1="27.199074"
       x2="139.34868"
       y2="27.199074"
       id="linearGradient3740"
       xlink:href="#linearGradient4001"
       gradientUnits="userSpaceOnUse"
       gradientTransform="matrix(0.54285719,0,0,2.5116278,-57.771432,1.686048)" />
    <linearGradient
       x1="167.4342"
       y1="29.189816"
       x2="139.11185"
       y2="29.189816"
       id="linearGradient3742"
       xlink:href="#linearGradient3995"
       gradientUnits="userSpaceOnUse"
       gradientTransform="matrix(0.54285719,0,0,2.5116278,-57.771432,1.686048)" />
    <linearGradient
       x1="158"
       y1="49"
       x2="158"
       y2="5"
       id="linearGradient3745"
       xlink:href="#linearGradient3596"
       gradientUnits="userSpaceOnUse"
       gradientTransform="matrix(2.7714288,0,0,2.5116278,-370.88573,1.686048)" />
    <linearGradient
       x1="155"
       y1="49"
       x2="155"
       y2="5"
       id="linearGradient3747"
       xlink:href="#linearGradient3604"
       gradientUnits="userSpaceOnUse"
       gradientTransform="matrix(2.7714288,0,0,2.5116278,-370.88573,1.686048)" />
  </defs>
  <g
     transform="translate(-3,-4)"
     id="layer1"
     style="display:inline">
    <g
       id="layer6"
       style="display:none" />
    <rect
       width="98"
       height="9.9999933"
       rx="5"
       ry="5"
       x="18"
       y="114"
       id="rect4094"
       style="opacity:0.8;fill:#000000;fill-opacity:1;stroke:none;filter:url(#filter4157)" />
    <g
       id="g3749">
      <rect
         width="97"
         height="108"
         rx="5"
         ry="5"
         x="18.5"
         y="15.5"
         id="rect3773"
         style="fill:url(#linearGradient3745);fill-opacity:1;stroke:url(#linearGradient3747);stroke-width:0.99999994;stroke-linejoin:round;stroke-miterlimit:4;stroke-opacity:1;stroke-dasharray:none" />
      <path
         d="m 33,123.5 -9.5,0 c -2.77,0 -5,-2.23 -5,-5 l 0,-98 c 0,-2.77 2.23,-5 5,-5 l 9.5,0"
         id="rect4099"
         style="fill:url(#linearGradient3740);fill-opacity:1;stroke:url(#linearGradient3742);stroke-width:0.99999994;stroke-linejoin:round;stroke-miterlimit:4;stroke-opacity:1" />
      <path
         d="m 75.22741,42 c -4.11321,4.8e-5 -7.95044,0.648776 -11.50271,1.932203 -3.50557,1.237683 -6.46215,2.843856 -8.84591,4.8607 -2.33705,2.016921 -4.36916,4.316562 -6.09855,6.883475 -1.68267,2.521139 -2.91889,5.071318 -3.71348,7.638241 -0.74785,2.52113 -1.11706,4.98295 -1.11706,7.366526 0,4.858883 0.92448,9.162876 2.74737,12.92161 1.86962,3.758746 4.28457,6.721653 7.27599,8.87606 3.03813,2.200239 6.30645,3.806412 9.81202,4.860695 3.50553,1.10011 7.12942,1.66048 10.8687,1.66049 2.05656,-1e-5 4.07502,-0.16219 6.03817,-0.48305 2.00981,-0.32088 3.62887,-0.67433 4.89091,-1.08687 1.26196,-0.41255 2.47089,-0.899096 3.59271,-1.449146 1.16847,-0.504228 1.90689,-0.887867 2.23413,-1.117055 0.32713,-0.183357 0.59794,-0.345546 0.78496,-0.483051 l 1.3284,-4.46822 c -1.86969,1.833535 -4.61293,3.36699 -8.21191,4.558792 -3.55234,1.191792 -7.04764,1.78124 -10.50641,1.78125 -3.83277,-1e-5 -7.22968,-0.560377 -10.17431,-1.660487 -2.94469,-1.10013 -5.27489,-2.500494 -7.00428,-4.196505 -1.68268,-1.650179 -3.07476,-3.625451 -4.19652,-5.917374 -1.07505,-2.291911 -1.79983,-4.472992 -2.17375,-6.581567 -0.37393,-2.154388 -0.57363,-4.380209 -0.57362,-6.672139 -10e-6,-2.979479 0.58254,-6.030746 1.75107,-9.147777 1.1685,-3.116982 2.77393,-5.991521 4.83053,-8.604343 2.05657,-2.612745 4.65759,-4.720016 7.78924,-6.370233 3.17834,-1.650141 6.57524,-2.475588 10.17431,-2.475636 5.88929,4.8e-5 11.17607,2.0044 15.85019,6.038135 4.72075,3.987972 7.06459,9.014513 7.06465,15.065149 -6e-5,3.942121 -1.23627,7.745026 -3.71347,11.412077 -2.43057,3.66708 -4.96047,5.494714 -7.5779,5.494704 -0.9816,1e-5 -1.79113,-0.250539 -2.44546,-0.754768 -0.65441,-0.55005 -0.99634,-1.287146 -0.99629,-2.203919 -5e-5,-0.412535 0.0711,-0.825263 0.21133,-1.237817 l 5.70607,-21.646717 -6.03817,0 -0.84534,3.351165 c -0.42071,-1.100091 -1.2166,-2.087727 -2.38508,-2.958687 -1.16855,-0.916734 -2.56064,-1.358552 -4.19652,-1.35858 -4.01974,2.8e-5 -7.71474,2.06367 -11.08004,6.189089 -3.36535,4.125476 -5.04189,8.680017 -5.04187,13.676378 -2e-5,3.346208 0.7384,5.822569 2.23412,7.426907 1.54242,1.604348 3.632,2.415253 6.24951,2.415253 1.58915,0 3.3368,-0.501087 5.2532,-1.509533 1.96307,-1.054278 3.49738,-2.440092 4.6192,-4.136123 0.98151,3.804586 3.72475,5.706038 8.2119,5.706038 3.64573,0 6.98516,-1.989812 10.02336,-5.977754 3.08483,-3.987924 4.61914,-8.661016 4.6192,-13.978285 -6e-5,-3.392011 -0.64008,-6.472369 -1.90202,-9.268538 C 97.83266,53.574662 96.29835,51.319751 94.42878,49.57786 92.5591,47.836047 90.44224,46.376402 88.05851,45.230402 85.72143,44.038649 83.47599,43.213191 81.32596,42.754767 79.17585,42.250587 77.14374,42.000048 75.22741,42 z m 1.66049,16.997352 c 2.66418,2.9e-5 4.01534,1.901482 4.01538,5.706038 -4e-5,2.108586 -0.51147,4.584946 -1.53973,7.426907 -1.02833,2.841991 -1.93917,4.860893 -2.68698,6.098518 -0.46745,0.87094 -1.34809,1.829487 -2.6568,2.837923 -1.26203,1.008446 -2.44077,1.509545 -3.56251,1.509535 -1.49573,1e-5 -2.58972,-0.486539 -3.29081,-1.449153 -0.65439,-1.008437 -0.99632,-2.630261 -0.99629,-4.830508 -3e-5,-5.179717 1.22254,-9.336069 3.65309,-12.498942 2.43048,-3.208656 4.77433,-4.800289 7.06465,-4.800318 z"
         id="path3770"
         style="fill:#a2894f;fill-opacity:1;stroke:none" />
      <path
         d="m 75.22741,43 c -4.11321,4.9e-5 -7.95044,0.648776 -11.50271,1.932203 -3.50557,1.237683 -6.46215,2.843857 -8.84591,4.8607 -2.33705,2.016921 -4.36916,4.316562 -6.09855,6.883475 -1.68267,2.52114 -2.91889,5.07132 -3.71348,7.638243 -0.74785,2.521129 -1.11706,4.982949 -1.11706,7.366525 0,4.858884 0.92448,9.162876 2.74737,12.921612 1.86962,3.758743 4.28457,6.721652 7.27599,8.87606 3.03813,2.200238 6.30645,3.806412 9.81202,4.860692 3.50553,1.10012 7.12942,1.66048 10.8687,1.66049 2.05656,-1e-5 4.07502,-0.16218 6.03817,-0.48305 2.00981,-0.32088 3.62887,-0.67433 4.89091,-1.08686 1.26196,-0.41256 2.47089,-0.8991 3.59271,-1.449153 1.16847,-0.504229 1.90689,-0.887867 2.23413,-1.117056 0.32713,-0.183356 0.59794,-0.345545 0.78496,-0.48305 l 1.3284,-4.468221 c -1.86969,1.833535 -4.61293,3.366989 -8.21191,4.558792 -3.55234,1.191794 -7.04764,1.781248 -10.50641,1.781258 -3.83277,-1e-5 -7.22968,-0.560385 -10.17431,-1.660495 -2.94469,-1.100129 -5.27489,-2.500493 -7.00428,-4.196505 -1.68268,-1.650179 -3.07476,-3.625451 -4.19652,-5.917372 -1.07505,-2.291913 -1.79983,-4.472995 -2.17375,-6.581569 -0.37393,-2.154387 -0.57363,-4.380209 -0.57362,-6.67214 -10e-6,-2.979477 0.58254,-6.030745 1.75107,-9.147776 1.1685,-3.116982 2.77393,-5.991522 4.83053,-8.604344 2.05657,-2.612745 4.65759,-4.720015 7.78924,-6.370233 3.17834,-1.650142 6.57524,-2.475589 10.17431,-2.475637 5.88929,4.8e-5 11.17607,2.004401 15.85019,6.038136 4.72075,3.987972 7.06459,9.014513 7.06465,15.06515 -6e-5,3.94212 -1.23627,7.745025 -3.71347,11.412076 -2.43057,3.667082 -4.96047,5.494715 -7.5779,5.494705 -0.9816,1e-5 -1.79113,-0.25054 -2.44546,-0.754767 -0.65441,-0.55005 -0.99634,-1.287148 -0.99629,-2.203921 -5e-5,-0.412534 0.0711,-0.825262 0.21133,-1.237816 l 5.70607,-21.646718 -6.03817,0 -0.84534,3.351165 c -0.42071,-1.10009 -1.2166,-2.087727 -2.38508,-2.958687 -1.16855,-0.916734 -2.56064,-1.358551 -4.19652,-1.358579 -4.01974,2.8e-5 -7.71474,2.063669 -11.08004,6.189088 -3.36535,4.125477 -5.04189,8.680018 -5.04187,13.676378 -2e-5,3.34621 0.7384,5.82257 2.23412,7.426908 1.54242,1.604346 3.632,2.415254 6.24951,2.415254 1.58915,0 3.3368,-0.501089 5.2532,-1.509535 1.96307,-1.054277 3.49738,-2.440093 4.6192,-4.136122 0.98151,3.804586 3.72475,5.706038 8.2119,5.706038 3.64573,0 6.98516,-1.989813 10.02336,-5.977754 3.08483,-3.987923 4.61914,-8.661015 4.6192,-13.978285 -6e-5,-3.392013 -0.64008,-6.472371 -1.90202,-9.268539 -1.21532,-2.796101 -2.74963,-5.051011 -4.6192,-6.792902 C 92.5591,48.836047 90.44224,47.376403 88.05851,46.230404 85.72143,45.038649 83.47599,44.213192 81.32596,43.754767 79.17585,43.250587 77.14374,43.000049 75.22741,43 z m 1.66049,16.997353 c 2.66418,2.9e-5 4.01534,1.901481 4.01538,5.70604 -4e-5,2.108583 -0.51147,4.584944 -1.53973,7.426906 -1.02833,2.841992 -1.93917,4.860893 -2.68698,6.098518 -0.46745,0.87094 -1.34809,1.829487 -2.6568,2.837923 -1.26203,1.008446 -2.44077,1.509544 -3.56251,1.509535 -1.49573,9e-6 -2.58972,-0.486539 -3.29081,-1.449153 -0.65439,-1.008436 -0.99632,-2.63026 -0.99629,-4.830509 -3e-5,-5.179716 1.22254,-9.336069 3.65309,-12.498942 2.43048,-3.208655 4.77433,-4.800289 7.06465,-4.800318 z"
         id="rect3759"
         style="fill:url(#linearGradient3736);fill-opacity:1;stroke:none" />
      <rect
         width="98"
         height="109"
         rx="5.5"
         ry="5.5"
         x="18"
         y="14.999993"
         id="rect3775"
         style="opacity:0.07999998;fill:url(#radialGradient3733);fill-opacity:1;stroke:none" />
      <rect
         width="98"
         height="109"
         rx="5.5"
         ry="5.5"
         x="18"
         y="14.999993"
         id="rect4069"
         style="opacity:0.2;fill:url(#radialGradient3730);fill-opacity:1;stroke:none" />
      <rect
         width="94"
         height="1"
         x="20"
         y="16"
         id="rect2945"
         style="opacity:0.5;fill:url(#radialGradient3727);fill-opacity:1;stroke:none" />
    </g>
    <g
       id="g3887" />
    <g
       id="g3896" />
    <g
       id="g3912" />
    <g
       id="g3930" />
    <g
       id="g3921" />
  </g>
</svg>
