<?xml version="1.0" encoding="UTF-8" standalone="no"?>
<!-- Created with Inkscape (http://www.inkscape.org/) -->

<svg
   xmlns:svg="http://www.w3.org/2000/svg"
   xmlns="http://www.w3.org/2000/svg"
   xmlns:xlink="http://www.w3.org/1999/xlink"
   version="1.0"
   width="128"
   height="128"
   id="svg11300"
   style="display:inline;enable-background:new">
  <title
     id="title2897">Candy Icon Theme</title>
  <defs
     id="defs3">
    <linearGradient
       id="linearGradient4873">
      <stop
         id="stop4875"
         style="stop-color:#ffffff;stop-opacity:1"
         offset="0" />
      <stop
         id="stop4877"
         style="stop-color:#ffffff;stop-opacity:0"
         offset="1" />
    </linearGradient>
    <linearGradient
       id="linearGradient3955">
      <stop
         id="stop3957"
         style="stop-color:#63493d;stop-opacity:1"
         offset="0" />
      <stop
         id="stop3959"
         style="stop-color:#3d312c;stop-opacity:1"
         offset="1" />
    </linearGradient>
    <linearGradient
       id="linearGradient3963">
      <stop
         id="stop3965"
         style="stop-color:#382f2c;stop-opacity:1"
         offset="0" />
      <stop
         id="stop3967"
         style="stop-color:#161616;stop-opacity:1"
         offset="1" />
    </linearGradient>
    <linearGradient
       id="linearGradient3973">
      <stop
         id="stop3975"
         style="stop-color:#000000;stop-opacity:0"
         offset="0" />
      <stop
         id="stop3977"
         style="stop-color:#000000;stop-opacity:1"
         offset="1" />
    </linearGradient>
    <filter
       x="-0.078792453"
       y="-0.83520001"
       width="1.1575849"
       height="2.6703999"
       color-interpolation-filters="sRGB"
       id="filter5461">
      <feGaussianBlur
         stdDeviation="3.48"
         id="feGaussianBlur5463" />
    </filter>
    <radialGradient
       cx="67"
       cy="67.499985"
       r="48"
       fx="67"
       fy="67.499985"
       id="radialGradient2919"
       xlink:href="#linearGradient4873"
       gradientUnits="userSpaceOnUse"
       gradientTransform="matrix(1.0208333,0,0,0.0625,-1.3958352,11.781251)" />
    <radialGradient
       cx="66.937157"
       cy="20.139093"
       r="50.855583"
       fx="66.937157"
       fy="20.139093"
       id="radialGradient2922"
       xlink:href="#linearGradient4873"
       gradientUnits="userSpaceOnUse"
       gradientTransform="matrix(1.6841186,5.0939275e-8,0.00525444,1.484992,-45.887634,-13.749455)" />
    <radialGradient
       cx="66.937157"
       cy="20.139093"
       r="50.855583"
       fx="66.937157"
       fy="20.139093"
       id="radialGradient2925"
       xlink:href="#linearGradient3973"
       gradientUnits="userSpaceOnUse"
       gradientTransform="matrix(1.6841186,5.0939275e-8,0.00525444,1.484992,-45.887634,-13.749455)" />
    <linearGradient
       x1="64.943535"
       y1="17.969599"
       x2="64.622932"
       y2="120.0006"
       id="linearGradient2929"
       xlink:href="#linearGradient3955"
       gradientUnits="userSpaceOnUse"
       gradientTransform="matrix(1.098977,0,0,1.0792081,-6.613838,-5.4653827)" />
    <linearGradient
       x1="69.943321"
       y1="18.03783"
       x2="69.622932"
       y2="120.0006"
       id="linearGradient2931"
       xlink:href="#linearGradient3963"
       gradientUnits="userSpaceOnUse"
       gradientTransform="matrix(1.098977,0,0,1.0792081,-6.613838,-5.4653827)" />
  </defs>
  <g
     transform="translate(-3,-4)"
     id="layer1"
     style="display:inline">
    <g
       id="layer6"
       style="display:none" />
    <rect
       width="106"
       height="10"
       rx="5"
       ry="5"
       x="14"
       y="114"
       id="rect4300"
       style="opacity:0.8;fill:#000000;fill-opacity:1;stroke:none;filter:url(#filter5461)" />
    <g
       id="g3774" />
    <g
       id="g3749" />
    <g
       id="g2939" />
    <rect
       width="110.68262"
       height="109.00056"
       rx="10"
       ry="9.9999418"
       x="11.437903"
       y="14.500066"
       transform="matrix(1,0,0.00319977,0.99999488,0,0)"
       id="rect4254"
       style="fill:url(#linearGradient2929);fill-opacity:1;stroke:url(#linearGradient2931);stroke-width:1.00000274;stroke-opacity:1" />
    <path
       d="M 61.727272,35 C 51.503455,35 43.073,43.165231 43.073,53.307692 l 0,13.677308 C 40.151908,66.985 38,68.151077 38,69.6 l 0,30.78461 C 38,101.83354 40.351636,103 43.272728,103 l 47.454544,0 C 93.648367,103 96,101.83354 96,100.38461 L 96,69.6 c 0,-1.448923 -2.151905,-2.615 -5.073,-2.615 l 0,-13.677308 C 90.927,43.165231 82.496545,35 72.272728,35 l -10.545456,0 z m 0,7.846154 10.545456,0 c 5.84218,0 10.645272,4.665846 10.645272,10.461538 l 0,13.677308 -31.836,0 0,-13.677308 c 0,-5.795692 4.803092,-10.461538 10.645272,-10.461538 z"
       id="path2933"
       style="opacity:0.5;fill:#000000;fill-opacity:1;stroke:none" />
    <path
       d="M 61.727272,36 C 51.503455,36 43.073,44.165231 43.073,54.307692 l 0,13.677308 C 40.151908,67.985 38,69.151077 38,70.6 l 0,30.78461 C 38,102.83354 40.351636,104 43.272728,104 l 47.454544,0 C 93.648367,104 96,102.83354 96,101.38461 L 96,70.6 c 0,-1.448923 -2.151905,-2.615 -5.073,-2.615 l 0,-13.677308 C 90.927,44.165231 82.496545,36 72.272728,36 l -10.545456,0 z m 0,7.846154 10.545456,0 c 5.84218,0 10.645272,4.665846 10.645272,10.461538 l 0,13.677308 -31.836,0 0,-13.677308 c 0,-5.795692 4.803092,-10.461538 10.645272,-10.461538 z"
       id="path5770"
       style="fill:#ffffff;fill-opacity:1;stroke:none" />
    <rect
       width="111.68256"
       height="110.00056"
       rx="10.5"
       ry="10.5"
       x="10.937956"
       y="14.000072"
       transform="matrix(1,0,0.00319933,0.99999488,0,0)"
       id="rect4272"
       style="opacity:0.07999998;fill:url(#radialGradient2925);fill-opacity:1;stroke:none" />
    <rect
       width="111.68256"
       height="110.00056"
       rx="10.5"
       ry="10.5"
       x="10.937956"
       y="14.000072"
       transform="matrix(1,0,0.00319933,0.99999488,0,0)"
       id="rect4278"
       style="opacity:0.2;fill:url(#radialGradient2922);fill-opacity:1;stroke:none" />
    <rect
       width="98"
       height="1"
       x="18"
       y="15"
       id="rect4282"
       style="opacity:0.5;fill:url(#radialGradient2919);fill-opacity:1;stroke:none" />
    <g
       id="g2963" />
    <g
       id="g2987" />
  </g>
</svg>
