<?xml version="1.0" encoding="UTF-8" standalone="no"?>
<!-- Created with Inkscape (http://www.inkscape.org/) -->

<svg
   xmlns:svg="http://www.w3.org/2000/svg"
   xmlns="http://www.w3.org/2000/svg"
   xmlns:xlink="http://www.w3.org/1999/xlink"
   version="1.0"
   width="128"
   height="128"
   id="svg11300"
   style="display:inline;enable-background:new">
  <title
     id="title2897">Candy Icon Theme</title>
  <defs
     id="defs3">
    <linearGradient
       id="linearGradient4873">
      <stop
         id="stop4875"
         style="stop-color:#ffffff;stop-opacity:1"
         offset="0" />
      <stop
         id="stop4877"
         style="stop-color:#ffffff;stop-opacity:0"
         offset="1" />
    </linearGradient>
    <linearGradient
       id="linearGradient3955">
      <stop
         id="stop3957"
         style="stop-color:#ed817b;stop-opacity:1"
         offset="0" />
      <stop
         id="stop3959"
         style="stop-color:#cd2b23;stop-opacity:1"
         offset="1" />
    </linearGradient>
    <linearGradient
       id="linearGradient3963">
      <stop
         id="stop3965"
         style="stop-color:#da5a52;stop-opacity:1"
         offset="0" />
      <stop
         id="stop3967"
         style="stop-color:#8f2925;stop-opacity:1"
         offset="1" />
    </linearGradient>
    <linearGradient
       id="linearGradient3973">
      <stop
         id="stop3975"
         style="stop-color:#000000;stop-opacity:0"
         offset="0" />
      <stop
         id="stop3977"
         style="stop-color:#000000;stop-opacity:1"
         offset="1" />
    </linearGradient>
    <filter
       x="-0.078792453"
       y="-0.83520001"
       width="1.1575849"
       height="2.6703999"
       color-interpolation-filters="sRGB"
       id="filter5461">
      <feGaussianBlur
         stdDeviation="3.48"
         id="feGaussianBlur5463" />
    </filter>
    <radialGradient
       cx="67"
       cy="67.499985"
       r="48"
       fx="67"
       fy="67.499985"
       id="radialGradient2935"
       xlink:href="#linearGradient4873"
       gradientUnits="userSpaceOnUse"
       gradientTransform="matrix(1.0208333,0,0,0.0625,-1.3958352,11.781251)" />
    <radialGradient
       cx="66.937157"
       cy="20.139093"
       r="50.855583"
       fx="66.937157"
       fy="20.139093"
       id="radialGradient2938"
       xlink:href="#linearGradient4873"
       gradientUnits="userSpaceOnUse"
       gradientTransform="matrix(1.6841186,5.0939275e-8,0.00525444,1.484992,-45.887634,-13.749455)" />
    <radialGradient
       cx="66.937157"
       cy="20.139093"
       r="50.855583"
       fx="66.937157"
       fy="20.139093"
       id="radialGradient2941"
       xlink:href="#linearGradient3973"
       gradientUnits="userSpaceOnUse"
       gradientTransform="matrix(1.6841186,5.0939275e-8,0.00525444,1.484992,-45.887634,-13.749455)" />
    <linearGradient
       x1="64.943535"
       y1="17.969599"
       x2="64.622932"
       y2="120.0006"
       id="linearGradient2946"
       xlink:href="#linearGradient3955"
       gradientUnits="userSpaceOnUse"
       gradientTransform="matrix(1.098977,0,0,1.0792081,-6.613838,-5.4653827)" />
    <linearGradient
       x1="69.943321"
       y1="18.03783"
       x2="69.622932"
       y2="120.0006"
       id="linearGradient2948"
       xlink:href="#linearGradient3963"
       gradientUnits="userSpaceOnUse"
       gradientTransform="matrix(1.098977,0,0,1.0792081,-6.613838,-5.4653827)" />
  </defs>
  <g
     transform="translate(-3,-4)"
     id="layer1"
     style="display:inline">
    <g
       id="layer6"
       style="display:none" />
    <rect
       width="106"
       height="10"
       rx="5"
       ry="5"
       x="14"
       y="114"
       id="rect4300"
       style="opacity:0.8;fill:#000000;fill-opacity:1;stroke:none;filter:url(#filter5461)" />
    <g
       id="g2958" />
    <g
       id="g3797" />
    <g
       id="g3890">
      <rect
         width="110.68262"
         height="109.00056"
         rx="10"
         ry="9.9999418"
         x="11.437903"
         y="14.500066"
         transform="matrix(1,0,0.00319977,0.99999488,0,0)"
         id="rect4254"
         style="fill:url(#linearGradient2946);fill-opacity:1;stroke:url(#linearGradient2948);stroke-width:1.00000274;stroke-opacity:1" />
      <path
         d="m 59.529186,38.984875 c 1.7704,15.256705 3.798273,30.40841 5.305313,45.724869 1.515759,0 3.293655,0 4.809412,0 1.250056,-14.708662 3.266301,-29.328444 4.720778,-44.018874 0.741414,-3.478488 -1.282956,-7.608537 -5.446455,-8.453655 -4.114191,-1.061206 -8.710777,1.566678 -9.257847,5.320404 -0.09094,0.471219 -0.131201,0.949464 -0.131201,1.427256 l 0,0 z M 59.00452,101.01434 c -0.1872,4.54133 5.476752,8.1013 10.312702,6.66153 4.683921,-1.05464 7.151043,-6.24851 4.750506,-9.940429 -2.148878,-3.816437 -8.450404,-5.073897 -12.075366,-2.152995 -1.832323,1.328105 -3.046856,3.310798 -2.987842,5.431894 l 0,0 z"
         id="path3888"
         style="font-size:62.4582634px;font-style:normal;font-variant:normal;font-weight:normal;font-stretch:normal;text-align:start;line-height:125%;writing-mode:lr-tb;text-anchor:start;opacity:0.5;fill:#000000;fill-opacity:1;stroke:none;font-family:Georgia" />
      <path
         d="m 59.529186,39.984875 c 1.7704,15.256705 3.798273,30.40841 5.305313,45.724869 1.515759,0 3.293655,0 4.809412,0 1.250056,-14.708662 3.266301,-29.328444 4.720778,-44.018874 0.741414,-3.478488 -1.282956,-7.608537 -5.446455,-8.453655 -4.114191,-1.061206 -8.710777,1.566678 -9.257847,5.320404 -0.09094,0.471219 -0.131201,0.949464 -0.131201,1.427256 l 0,0 z M 59.00452,102.01434 c -0.1872,4.54133 5.476752,8.1013 10.312702,6.66153 4.683921,-1.05464 7.151043,-6.24851 4.750506,-9.940429 -2.148878,-3.816437 -8.450404,-5.073897 -12.075366,-2.152995 -1.832323,1.328105 -3.046856,3.310798 -2.987842,5.431894 l 0,0 z"
         id="path3896"
         style="font-size:62.4582634px;font-style:normal;font-variant:normal;font-weight:normal;font-stretch:normal;text-align:start;line-height:125%;writing-mode:lr-tb;text-anchor:start;fill:#ffffff;fill-opacity:1;stroke:none;font-family:Georgia" />
      <rect
         width="111.68256"
         height="110.00056"
         rx="10.5"
         ry="10.5"
         x="10.937956"
         y="14.000072"
         transform="matrix(1,0,0.00319933,0.99999488,0,0)"
         id="rect4272"
         style="opacity:0.07999998;fill:url(#radialGradient2941);fill-opacity:1;stroke:none" />
      <rect
         width="111.68256"
         height="110.00056"
         rx="10.5"
         ry="10.5"
         x="10.937956"
         y="14.000072"
         transform="matrix(1,0,0.00319933,0.99999488,0,0)"
         id="rect4278"
         style="opacity:0.2;fill:url(#radialGradient2938);fill-opacity:1;stroke:none" />
      <rect
         width="98"
         height="1"
         x="18"
         y="15"
         id="rect4282"
         style="opacity:0.5;fill:url(#radialGradient2935);fill-opacity:1;stroke:none" />
    </g>
    <g
       id="g3829" />
    <g
       id="g3880" />
    <g
       id="g2992" />
  </g>
</svg>
