<?xml version="1.0" encoding="UTF-8" standalone="no"?>
<!-- Created with Inkscape (http://www.inkscape.org/) -->

<svg
   xmlns:svg="http://www.w3.org/2000/svg"
   xmlns="http://www.w3.org/2000/svg"
   xmlns:xlink="http://www.w3.org/1999/xlink"
   version="1.0"
   width="128"
   height="128"
   id="svg11300"
   style="display:inline;enable-background:new">
  <title
     id="title2897">Candy Icon Theme</title>
  <defs
     id="defs3">
    <linearGradient
       id="linearGradient4873">
      <stop
         id="stop4875"
         style="stop-color:#ffffff;stop-opacity:1"
         offset="0" />
      <stop
         id="stop4877"
         style="stop-color:#ffffff;stop-opacity:0"
         offset="1" />
    </linearGradient>
    <linearGradient
       id="linearGradient3955">
      <stop
         id="stop3957"
         style="stop-color:#63493d;stop-opacity:1"
         offset="0" />
      <stop
         id="stop3959"
         style="stop-color:#3d312c;stop-opacity:1"
         offset="1" />
    </linearGradient>
    <linearGradient
       id="linearGradient3963">
      <stop
         id="stop3965"
         style="stop-color:#382f2c;stop-opacity:1"
         offset="0" />
      <stop
         id="stop3967"
         style="stop-color:#161616;stop-opacity:1"
         offset="1" />
    </linearGradient>
    <linearGradient
       id="linearGradient3973">
      <stop
         id="stop3975"
         style="stop-color:#000000;stop-opacity:0"
         offset="0" />
      <stop
         id="stop3977"
         style="stop-color:#000000;stop-opacity:1"
         offset="1" />
    </linearGradient>
    <filter
       x="-0.078792453"
       y="-0.83520001"
       width="1.1575849"
       height="2.6703999"
       color-interpolation-filters="sRGB"
       id="filter5461">
      <feGaussianBlur
         stdDeviation="3.48"
         id="feGaussianBlur5463" />
    </filter>
    <radialGradient
       cx="67"
       cy="67.499985"
       r="48"
       fx="67"
       fy="67.499985"
       id="radialGradient3866"
       xlink:href="#linearGradient4873"
       gradientUnits="userSpaceOnUse"
       gradientTransform="matrix(1.0208333,0,0,0.0625,-1.3958352,11.781251)" />
    <radialGradient
       cx="66.937157"
       cy="20.139093"
       r="50.855583"
       fx="66.937157"
       fy="20.139093"
       id="radialGradient3869"
       xlink:href="#linearGradient4873"
       gradientUnits="userSpaceOnUse"
       gradientTransform="matrix(1.6841186,5.0939275e-8,0.00525444,1.484992,-45.887634,-13.749455)" />
    <radialGradient
       cx="66.937157"
       cy="20.139093"
       r="50.855583"
       fx="66.937157"
       fy="20.139093"
       id="radialGradient3872"
       xlink:href="#linearGradient3973"
       gradientUnits="userSpaceOnUse"
       gradientTransform="matrix(1.6841186,5.0939275e-8,0.00525444,1.484992,-45.887634,-13.749455)" />
    <linearGradient
       x1="64.943535"
       y1="17.969599"
       x2="64.622932"
       y2="120.0006"
       id="linearGradient3877"
       xlink:href="#linearGradient3955"
       gradientUnits="userSpaceOnUse"
       gradientTransform="matrix(1.098977,0,0,1.0792081,-6.613838,-5.4653827)" />
    <linearGradient
       x1="69.943321"
       y1="18.03783"
       x2="69.622932"
       y2="120.0006"
       id="linearGradient3879"
       xlink:href="#linearGradient3963"
       gradientUnits="userSpaceOnUse"
       gradientTransform="matrix(1.098977,0,0,1.0792081,-6.613838,-5.4653827)" />
  </defs>
  <g
     transform="translate(-3,-4)"
     id="layer1"
     style="display:inline">
    <g
       id="layer6"
       style="display:none" />
    <rect
       width="106"
       height="10"
       rx="5"
       ry="5"
       x="14"
       y="114"
       id="rect4300"
       style="opacity:0.8;fill:#000000;fill-opacity:1;stroke:none;filter:url(#filter5461)" />
    <g
       id="g3821" />
    <g
       id="g4057" />
    <g
       id="g3953" />
    <g
       id="g3881">
      <rect
         width="110.68262"
         height="109.00056"
         rx="10"
         ry="9.9999418"
         x="11.437903"
         y="14.500066"
         transform="matrix(1,0,0.00319977,0.99999488,0,0)"
         id="rect4254"
         style="fill:url(#linearGradient3877);fill-opacity:1;stroke:url(#linearGradient3879);stroke-width:1.00000274;stroke-opacity:1" />
      <path
         d="m 63.571429,30 c -1.899429,0 -3.428572,1.529143 -3.428572,3.428571 l -0.464286,7.75 c -2.802203,0.709554 -5.435945,1.8079 -7.857142,3.25 L 46,39.285714 c -1.343098,-1.343099 -3.514045,-1.343099 -4.857143,0 l -4.857143,4.857143 c -1.343098,1.343098 -1.343098,3.514044 0,4.857143 l 5.142857,5.821429 c -1.442101,2.421197 -2.540446,5.054939 -3.25,7.857142 l -7.75,0.464286 C 28.529143,63.142857 27,64.672 27,66.571429 l 0,6.857142 c 0,1.899429 1.529143,3.428572 3.428571,3.428572 l 7.75,0.464286 c 0.709554,2.802203 1.807899,5.435945 3.25,7.857142 L 36.285714,91 c -1.343099,1.343098 -1.343099,3.514045 0,4.857143 l 4.857143,4.857147 c 1.343098,1.34309 3.514044,1.34309 4.857143,0 l 5.821429,-5.142861 c 2.421197,1.4421 5.054939,2.540446 7.857142,3.25 l 0.464286,7.750001 c 0,1.89943 1.529143,3.42857 3.428572,3.42857 l 6.857142,0 c 1.899429,0 3.428572,-1.52914 3.428572,-3.42857 l 0.464286,-7.750001 c 2.802203,-0.709554 5.435945,-1.8079 7.857142,-3.25 L 88,100.71429 c 1.343099,1.34309 3.514045,1.34309 4.857143,0 l 4.857143,-4.857147 c 1.343099,-1.343098 1.343099,-3.514045 0,-4.857143 l -5.142857,-5.821429 c 1.442101,-2.421197 2.540446,-5.054939 3.25,-7.857142 l 7.750001,-0.464286 C 105.47086,76.857143 107,75.328 107,73.428571 l 0,-6.857142 c 0,-1.899429 -1.52914,-3.428572 -3.42857,-3.428572 l -7.750001,-0.464286 c -0.709554,-2.802203 -1.807899,-5.435945 -3.25,-7.857142 L 97.714286,49 c 1.343098,-1.343099 1.343098,-3.514045 0,-4.857143 l -4.857143,-4.857143 c -1.343098,-1.343099 -3.514045,-1.343099 -4.857143,0 l -5.821429,5.142857 c -2.421197,-1.4421 -5.054939,-2.540446 -7.857142,-3.25 l -0.464286,-7.75 C 73.857143,31.529143 72.328,30 70.428571,30 l -6.857142,0 z M 67,56.285714 c 7.57419,0 13.714286,6.140095 13.714286,13.714286 C 80.714286,77.574191 74.57419,83.714286 67,83.714286 59.42581,83.714286 53.285714,77.574191 53.285714,70 53.285714,62.425809 59.42581,56.285714 67,56.285714 z"
         id="path3845"
         style="opacity:0.5;fill:#000000;fill-opacity:1;stroke:none" />
      <path
         d="m 63.571429,31 c -1.899429,0 -3.428572,1.529143 -3.428572,3.428571 l -0.464286,7.75 c -2.802203,0.709554 -5.435945,1.8079 -7.857142,3.25 L 46,40.285714 c -1.343098,-1.343099 -3.514045,-1.343099 -4.857143,0 l -4.857143,4.857143 c -1.343098,1.343098 -1.343098,3.514044 0,4.857143 l 5.142857,5.821429 c -1.442101,2.421197 -2.540446,5.054939 -3.25,7.857142 l -7.75,0.464286 C 28.529143,64.142857 27,65.672 27,67.571429 l 0,6.857142 c 0,1.899429 1.529143,3.428572 3.428571,3.428572 l 7.75,0.464286 c 0.709554,2.802203 1.807899,5.435945 3.25,7.857142 L 36.285714,92 c -1.343099,1.343098 -1.343099,3.514045 0,4.857143 l 4.857143,4.857147 c 1.343098,1.34309 3.514044,1.34309 4.857143,0 l 5.821429,-5.142861 c 2.421197,1.4421 5.054939,2.540446 7.857142,3.25 l 0.464286,7.750001 c 0,1.89943 1.529143,3.42857 3.428572,3.42857 l 6.857142,0 c 1.899429,0 3.428572,-1.52914 3.428572,-3.42857 l 0.464286,-7.750001 c 2.802203,-0.709554 5.435945,-1.8079 7.857142,-3.25 L 88,101.71429 c 1.343099,1.34309 3.514045,1.34309 4.857143,0 l 4.857143,-4.857147 c 1.343099,-1.343098 1.343099,-3.514045 0,-4.857143 l -5.142857,-5.821429 c 1.442101,-2.421197 2.540446,-5.054939 3.25,-7.857142 l 7.750001,-0.464286 C 105.47086,77.857143 107,76.328 107,74.428571 l 0,-6.857142 c 0,-1.899429 -1.52914,-3.428572 -3.42857,-3.428572 l -7.750001,-0.464286 c -0.709554,-2.802203 -1.807899,-5.435945 -3.25,-7.857142 L 97.714286,50 c 1.343098,-1.343099 1.343098,-3.514045 0,-4.857143 l -4.857143,-4.857143 c -1.343098,-1.343099 -3.514045,-1.343099 -4.857143,0 l -5.821429,5.142857 c -2.421197,-1.4421 -5.054939,-2.540446 -7.857142,-3.25 l -0.464286,-7.75 C 73.857143,32.529143 72.328,31 70.428571,31 l -6.857142,0 z M 67,57.285714 c 7.57419,0 13.714286,6.140095 13.714286,13.714286 C 80.714286,78.574191 74.57419,84.714286 67,84.714286 59.42581,84.714286 53.285714,78.574191 53.285714,71 53.285714,63.425809 59.42581,57.285714 67,57.285714 z"
         id="path3868"
         style="fill:#ffffff;fill-opacity:1;stroke:none" />
      <rect
         width="111.68256"
         height="110.00056"
         rx="10.5"
         ry="10.5"
         x="10.937956"
         y="14.000072"
         transform="matrix(1,0,0.00319933,0.99999488,0,0)"
         id="rect4272"
         style="opacity:0.07999998;fill:url(#radialGradient3872);fill-opacity:1;stroke:none" />
      <rect
         width="111.68256"
         height="110.00056"
         rx="10.5"
         ry="10.5"
         x="10.937956"
         y="14.000072"
         transform="matrix(1,0,0.00319933,0.99999488,0,0)"
         id="rect4278"
         style="opacity:0.2;fill:url(#radialGradient3869);fill-opacity:1;stroke:none" />
      <rect
         width="98"
         height="1"
         x="18"
         y="15"
         id="rect4282"
         style="opacity:0.5;fill:url(#radialGradient3866);fill-opacity:1;stroke:none" />
    </g>
    <g
       id="g4020" />
    <g
       id="g4049" />
  </g>
</svg>
