<?xml version="1.0" encoding="UTF-8" standalone="no"?>
<!-- Created with Inkscape (http://www.inkscape.org/) -->

<svg
   xmlns:svg="http://www.w3.org/2000/svg"
   xmlns="http://www.w3.org/2000/svg"
   xmlns:xlink="http://www.w3.org/1999/xlink"
   version="1.0"
   width="128"
   height="128"
   id="svg11300"
   style="display:inline;enable-background:new">
  <title
     id="title2897">Candy Icon Theme</title>
  <defs
     id="defs3">
    <linearGradient
       id="linearGradient3742">
      <stop
         id="stop3744"
         style="stop-color:#ffffff;stop-opacity:1"
         offset="0" />
      <stop
         id="stop3746"
         style="stop-color:#ffffff;stop-opacity:0"
         offset="1" />
    </linearGradient>
    <linearGradient
       id="linearGradient3596">
      <stop
         id="stop3598"
         style="stop-color:#1e4e82;stop-opacity:1"
         offset="0" />
      <stop
         id="stop3600"
         style="stop-color:#5493d8;stop-opacity:1"
         offset="1" />
    </linearGradient>
    <linearGradient
       id="linearGradient3604">
      <stop
         id="stop3606"
         style="stop-color:#19314b;stop-opacity:1"
         offset="0" />
      <stop
         id="stop3608"
         style="stop-color:#3b76b5;stop-opacity:1"
         offset="1" />
    </linearGradient>
    <linearGradient
       id="linearGradient3616">
      <stop
         id="stop3618"
         style="stop-color:#000000;stop-opacity:0"
         offset="0" />
      <stop
         id="stop3620"
         style="stop-color:#000000;stop-opacity:1"
         offset="1" />
    </linearGradient>
    <filter
       x="-0.085959181"
       y="-0.84240049"
       width="1.1719184"
       height="2.6848011"
       color-interpolation-filters="sRGB"
       id="filter4157">
      <feGaussianBlur
         stdDeviation="3.5099998"
         id="feGaussianBlur4159" />
    </filter>
    <linearGradient
       id="linearGradient8918">
      <stop
         id="stop8920"
         style="stop-color:#c5e774;stop-opacity:1"
         offset="0" />
      <stop
         id="stop3718"
         style="stop-color:#8dca66;stop-opacity:1"
         offset="0.5" />
      <stop
         id="stop8922"
         style="stop-color:#56ad58;stop-opacity:1"
         offset="1" />
    </linearGradient>
    <radialGradient
       cx="67.000755"
       cy="57.155762"
       r="46.498734"
       fx="67.000755"
       fy="57.155762"
       id="radialGradient3807"
       xlink:href="#linearGradient3742"
       gradientUnits="userSpaceOnUse"
       gradientTransform="matrix(1.0013732,5.3118672e-7,-6.8448095e-8,0.12903577,-0.09276002,9.6248265)" />
    <radialGradient
       cx="158"
       cy="11.484326"
       r="19"
       fx="158"
       fy="11.484326"
       id="radialGradient3810"
       xlink:href="#linearGradient3742"
       gradientUnits="userSpaceOnUse"
       gradientTransform="matrix(4.3434901,6.2386781e-8,-7.1036129e-8,4.5633972,-619.44822,-24.667642)" />
    <radialGradient
       cx="158"
       cy="11.484326"
       r="19"
       fx="158"
       fy="11.484326"
       id="radialGradient3813"
       xlink:href="#linearGradient3616"
       gradientUnits="userSpaceOnUse"
       gradientTransform="matrix(4.3434901,6.2386781e-8,-7.1036129e-8,4.5633972,-619.27144,-25.021195)" />
    <radialGradient
       cx="158"
       cy="14.798822"
       r="19.875"
       fx="158"
       fy="14.798822"
       id="radialGradient3816"
       xlink:href="#linearGradient3616"
       gradientUnits="userSpaceOnUse"
       gradientTransform="matrix(4.798902,-3.5289512e-7,3.1403024e-7,4.3347741,-683.12709,-38.663276)" />
    <radialGradient
       cx="158"
       cy="14.798822"
       r="19.875"
       fx="158"
       fy="14.798822"
       id="radialGradient3819"
       xlink:href="#linearGradient8918"
       gradientUnits="userSpaceOnUse"
       gradientTransform="matrix(4.798902,-3.5289512e-7,3.1403024e-7,4.3347741,-683.12709,-38.663276)" />
    <linearGradient
       x1="158"
       y1="49"
       x2="158"
       y2="5"
       id="linearGradient3822"
       xlink:href="#linearGradient3596"
       gradientUnits="userSpaceOnUse"
       gradientTransform="matrix(2.7714288,0,0,2.5116278,-370.88573,1.686048)" />
    <linearGradient
       x1="155"
       y1="49"
       x2="155"
       y2="5"
       id="linearGradient3824"
       xlink:href="#linearGradient3604"
       gradientUnits="userSpaceOnUse"
       gradientTransform="matrix(2.7714288,0,0,2.5116278,-370.88573,1.686048)" />
  </defs>
  <g
     transform="translate(-3,-4)"
     id="layer1"
     style="display:inline">
    <g
       id="layer6"
       style="display:none" />
    <rect
       width="98"
       height="9.9999933"
       rx="5"
       ry="5"
       x="18"
       y="114"
       id="rect4094"
       style="opacity:0.8;fill:#000000;fill-opacity:1;stroke:none;filter:url(#filter4157)" />
    <g
       id="g3826">
      <rect
         width="97"
         height="108"
         rx="5"
         ry="5"
         x="18.5"
         y="15.5"
         id="rect3773"
         style="fill:url(#linearGradient3822);fill-opacity:1;stroke:url(#linearGradient3824);stroke-width:0.99999994;stroke-linejoin:round;stroke-miterlimit:4;stroke-opacity:1;stroke-dasharray:none" />
      <path
         d="M 23.5,16 C 21.007,16 19,18.007 19,20.5 l 0,35.65625 0.6875,-0.53125 3,0 0.40625,-1.78125 3.71875,0.96875 2.65625,3.28125 0.40625,-5.5625 4.625,-3.9375 1.625,-4.25 3.4375,-1.4375 1.9375,-2.8125 4.40625,-0.84375 2.1875,-3.40625 -6.59375,0 4.125,-1.96875 2.84375,0 4.125,-1.375 0.5,-1.75 -1.40625,-1.3125 -1.65625,-0.65625 0.40625,-1.65625 -1.15625,-2.46875 -2.9375,1.03125 0.5,-2.15625 -3.375,-1.96875 -2.71875,4.78125 0.25,1.625 -2.59375,1.125 -1.75,3.65625 -0.71875,-3.3125 -4.625,-1.96875 -0.71875,-2.625 L 36.65625,21.25 39.3125,18.65625 39.53125,16 35.3125,16 35,17.5 c 0,0 -1.563507,0.09633 -2.71875,0.1875 C 30.019963,17.005176 27.931421,16.460581 25.96875,16 L 23.5,16 z m 76.21875,0 -1.5,1 0,1.75 -4.71875,3.09375 1.03125,4.5625 2.78125,-1.96875 1.71875,1.96875 L 101,27.53125 102.21875,24.125 101.5,22.15625 102.21875,20.71875 105,18.125 l 1.25,0 -1.25,2.90625 0,2.59375 c 1.14522,-0.314425 2.35914,-0.477987 3.53125,-0.625 l -3.3125,2.28125 L 105,26.75 l -3.8125,3.0625 -3.65625,-0.78125 0,-2.28125 -1.78125,1.125 0.71875,1.9375 -2.65625,0 -1.5625,2.625 -1.84375,2.15625 L 87.03125,35.25 89,37.28125 89.5,39.25 l -2.46875,0 -3.1875,1.6875 0,5.15625 1.4375,0 1.3125,1.53125 3.1875,-1.53125 1.25,-3.125 2.25,-1.4375 0.53125,-1.125 3.71875,-0.84375 1.9375,2.28125 2.25,1.125 -1.25,2.5 2,-0.53125 1,-2.5625 L 101,39.5625 l 1.03125,0 2.46875,1.96875 0.5,2.8125 2.28125,2.5625 L 107.6875,43.1875 109,42.65625 c 1.23242,1.290634 2.14949,2.797467 3.1875,4.25 L 115,47.15625 115,20.5 c 0,-0.182942 -0.0415,-0.354143 -0.0625,-0.53125 l -1.1875,1.40625 -3.28125,-3.46875 3.28125,0 0.21875,-0.25 C 113.14487,16.646891 111.91042,16 110.5,16 l -10.78125,0 z m -13.59375,5.03125 0,1.78125 1,1.25 0,2.75 -0.53125,3.75 3,-0.625 2.15625,-2.15625 -1.84375,-1.875 C 89.267748,24.191574 88.548871,22.675852 87.75,21.03125 l -1.625,0 z m -2.46875,3.625 -1.96875,0.625 0.53125,3.40625 2.4375,-1.21875 -1,-2.8125 z M 52.46875,33.34375 53.3125,37.6875 54.875,35.25 52.46875,33.34375 z M 95.75,47.21875 91.03125,47.75 l -4.1875,1.125 c -2.377658,2.719322 -4.780747,5.457132 -7.03125,8.28125 l -2.75,6.5625 1.25,1.4375 -2.28125,3.40625 2.5625,6 c 2.119435,2.418713 4.165,4.829562 6.28125,7.25 l 3.15625,-2.71875 1.34375,1.5625 3.40625,-2.15625 1.15625,1.375 3.375,0 1.84375,2.15625 -1.125,3.9375 2.34375,2.6875 -0.0937,4.65625 1.75,3.4375 -1.3125,2.875 c -0.12437,2.09424 -0.25,4.12416 -0.25,6.21875 1.0216,2.83761 2.03546,5.73573 3,8.59375 l 0.71875,4.5625 0,2.28125 1.75,0 2.78125,-1.75 3.28125,0 3,-3.53125 0,-63.90625 -0.0312,0.03125 -3.25,0 -4.25,-1.5 -2.25,0.34375 -1.65625,1.75 L 99.03125,48.0625 95.75,47.21875 z M 21.65625,63.1875 20.03125,65.46875 19,65.9375 l 0,5.5 2.65625,0.71875 2.15625,2.9375 3.375,2.5 1.96875,-0.34375 1.4375,0.71875 0,0.40625 -1.96875,5.40625 -1.4375,2.25 0.53125,1.15625 -1.25,4.15625 4.4375,8.15625 4.3125,3.9375 1.9375,2.9375 -0.3125,5.875 1.5625,3.34375 -1.5625,6.5 c 0,0 0.09181,0.54754 0.15625,0.90625 l 10.65625,0 0.625,-1.71875 3.1875,-1.15625 2.34375,-6.21875 -0.71875,-1.65625 1.78125,-2.59375 3.5625,-0.8125 1.96875,-4.5625 -0.53125,-5.5625 2.875,-4.25 0.53125,-4.25 C 59.310004,88.192305 55.410299,86.211385 51.46875,84.125 l -1.9375,-4.0625 -3.625,-0.84375 L 43.9375,73.9375 39.125,74.46875 35,71.375 l -4.40625,3.90625 0,0.65625 c -1.317712,-0.391384 -2.951459,-0.413873 -4.125,-1.15625 l -0.90625,-2.8125 0,-3.09375 -2.875,0.21875 c 0.242056,-1.973038 0.474935,-3.933557 0.71875,-5.90625 l -1.75,0 z"
         id="path3045"
         style="fill:url(#radialGradient3819);fill-opacity:1;fill-rule:nonzero;stroke:none" />
      <path
         d="M 23.5,16 C 21.007,16 19,18.007 19,20.5 l 0,35.65625 0.6875,-0.53125 3,0 0.40625,-1.78125 3.71875,0.96875 2.65625,3.28125 0.40625,-5.5625 4.625,-3.9375 1.625,-4.25 3.4375,-1.4375 1.9375,-2.8125 4.40625,-0.84375 2.1875,-3.40625 -6.59375,0 4.125,-1.96875 2.84375,0 4.125,-1.375 0.5,-1.75 -1.40625,-1.3125 -1.65625,-0.65625 0.40625,-1.65625 -1.15625,-2.46875 -2.9375,1.03125 0.5,-2.15625 -3.375,-1.96875 -2.71875,4.78125 0.25,1.625 -2.59375,1.125 -1.75,3.65625 -0.71875,-3.3125 -4.625,-1.96875 -0.71875,-2.625 L 36.65625,21.25 39.3125,18.65625 39.53125,16 35.3125,16 35,17.5 c 0,0 -1.563507,0.09633 -2.71875,0.1875 C 30.019963,17.005176 27.931421,16.460581 25.96875,16 L 23.5,16 z m 76.21875,0 -1.5,1 0,1.75 -4.71875,3.09375 1.03125,4.5625 2.78125,-1.96875 1.71875,1.96875 L 101,27.53125 102.21875,24.125 101.5,22.15625 102.21875,20.71875 105,18.125 l 1.25,0 -1.25,2.90625 0,2.59375 c 1.14522,-0.314425 2.35914,-0.477987 3.53125,-0.625 l -3.3125,2.28125 L 105,26.75 l -3.8125,3.0625 -3.65625,-0.78125 0,-2.28125 -1.78125,1.125 0.71875,1.9375 -2.65625,0 -1.5625,2.625 -1.84375,2.15625 L 87.03125,35.25 89,37.28125 89.5,39.25 l -2.46875,0 -3.1875,1.6875 0,5.15625 1.4375,0 1.3125,1.53125 3.1875,-1.53125 1.25,-3.125 2.25,-1.4375 0.53125,-1.125 3.71875,-0.84375 1.9375,2.28125 2.25,1.125 -1.25,2.5 2,-0.53125 1,-2.5625 L 101,39.5625 l 1.03125,0 2.46875,1.96875 0.5,2.8125 2.28125,2.5625 L 107.6875,43.1875 109,42.65625 c 1.23242,1.290634 2.14949,2.797467 3.1875,4.25 L 115,47.15625 115,20.5 c 0,-0.182942 -0.0415,-0.354143 -0.0625,-0.53125 l -1.1875,1.40625 -3.28125,-3.46875 3.28125,0 0.21875,-0.25 C 113.14487,16.646891 111.91042,16 110.5,16 l -10.78125,0 z m -13.59375,5.03125 0,1.78125 1,1.25 0,2.75 -0.53125,3.75 3,-0.625 2.15625,-2.15625 -1.84375,-1.875 C 89.267748,24.191574 88.548871,22.675852 87.75,21.03125 l -1.625,0 z m -2.46875,3.625 -1.96875,0.625 0.53125,3.40625 2.4375,-1.21875 -1,-2.8125 z M 52.46875,33.34375 53.3125,37.6875 54.875,35.25 52.46875,33.34375 z M 95.75,47.21875 91.03125,47.75 l -4.1875,1.125 c -2.377658,2.719322 -4.780747,5.457132 -7.03125,8.28125 l -2.75,6.5625 1.25,1.4375 -2.28125,3.40625 2.5625,6 c 2.119435,2.418713 4.165,4.829562 6.28125,7.25 l 3.15625,-2.71875 1.34375,1.5625 3.40625,-2.15625 1.15625,1.375 3.375,0 1.84375,2.15625 -1.125,3.9375 2.34375,2.6875 -0.0937,4.65625 1.75,3.4375 -1.3125,2.875 c -0.12437,2.09424 -0.25,4.12416 -0.25,6.21875 1.0216,2.83761 2.03546,5.73573 3,8.59375 l 0.71875,4.5625 0,2.28125 1.75,0 2.78125,-1.75 3.28125,0 3,-3.53125 0,-63.90625 -0.0312,0.03125 -3.25,0 -4.25,-1.5 -2.25,0.34375 -1.65625,1.75 L 99.03125,48.0625 95.75,47.21875 z M 21.65625,63.1875 20.03125,65.46875 19,65.9375 l 0,5.5 2.65625,0.71875 2.15625,2.9375 3.375,2.5 1.96875,-0.34375 1.4375,0.71875 0,0.40625 -1.96875,5.40625 -1.4375,2.25 0.53125,1.15625 -1.25,4.15625 4.4375,8.15625 4.3125,3.9375 1.9375,2.9375 -0.3125,5.875 1.5625,3.34375 -1.5625,6.5 c 0,0 0.09181,0.54754 0.15625,0.90625 l 10.65625,0 0.625,-1.71875 3.1875,-1.15625 2.34375,-6.21875 -0.71875,-1.65625 1.78125,-2.59375 3.5625,-0.8125 1.96875,-4.5625 -0.53125,-5.5625 2.875,-4.25 0.53125,-4.25 C 59.310004,88.192305 55.410299,86.211385 51.46875,84.125 l -1.9375,-4.0625 -3.625,-0.84375 L 43.9375,73.9375 39.125,74.46875 35,71.375 l -4.40625,3.90625 0,0.65625 c -1.317712,-0.391384 -2.951459,-0.413873 -4.125,-1.15625 l -0.90625,-2.8125 0,-3.09375 -2.875,0.21875 c 0.242056,-1.973038 0.474935,-3.933557 0.71875,-5.90625 l -1.75,0 z"
         id="path2934"
         style="opacity:0.15;fill:url(#radialGradient3816);fill-opacity:1;fill-rule:nonzero;stroke:none" />
      <rect
         width="98"
         height="109"
         rx="5.5"
         ry="5.5"
         x="18"
         y="14.999993"
         id="rect3775"
         style="opacity:0.07999998;fill:url(#radialGradient3813);fill-opacity:1;stroke:none" />
      <rect
         width="98"
         height="109"
         rx="5.5"
         ry="5.5"
         x="17.823223"
         y="15.353547"
         id="rect3736"
         style="opacity:0.2;fill:url(#radialGradient3810);fill-opacity:1;stroke:none" />
      <rect
         width="93"
         height="1"
         x="21"
         y="16"
         id="rect3912"
         style="opacity:0.5;fill:url(#radialGradient3807);fill-opacity:1;stroke:none" />
    </g>
    <g
       id="g3834" />
    <g
       id="g3846" />
    <g
       id="g3872" />
    <g
       id="g3884" />
    <g
       id="g3896" />
  </g>
</svg>
