<?xml version="1.0" encoding="UTF-8" standalone="no"?>
<!-- Created with Inkscape (http://www.inkscape.org/) -->

<svg
   xmlns:dc="http://purl.org/dc/elements/1.1/"
   xmlns:cc="http://creativecommons.org/ns#"
   xmlns:rdf="http://www.w3.org/1999/02/22-rdf-syntax-ns#"
   xmlns:svg="http://www.w3.org/2000/svg"
   xmlns="http://www.w3.org/2000/svg"
   xmlns:xlink="http://www.w3.org/1999/xlink"
   xmlns:sodipodi="http://sodipodi.sourceforge.net/DTD/sodipodi-0.dtd"
   xmlns:inkscape="http://www.inkscape.org/namespaces/inkscape"
   height="128"
   id="svg11300"
   inkscape:export-filename="/home/jonieno"
   inkscape:export-xdpi="90.000000"
   inkscape:export-ydpi="90.000000"
   inkscape:output_extension="org.inkscape.output.svg.inkscape"
   inkscape:version="0.47 r22583"
   sodipodi:docname="audio-x-vorbis+ogg.svg"
   sodipodi:version="0.32"
   style="display:inline;enable-background:new"
   version="1.0"
   width="128">
  <title
     id="title2897">Candy Icon Theme</title>
  <defs
     id="defs3">
    <linearGradient
       id="linearGradient3807">
      <stop
         id="stop3809"
         offset="0"
         style="stop-color:#df9c61;stop-opacity:1;" />
      <stop
         id="stop3811"
         offset="1"
         style="stop-color:#b74725;stop-opacity:1;" />
    </linearGradient>
    <linearGradient
       id="linearGradient3799">
      <stop
         id="stop3801"
         offset="0"
         style="stop-color:#f1bb8b;stop-opacity:1;" />
      <stop
         id="stop3803"
         offset="1"
         style="stop-color:#e65c32;stop-opacity:1;" />
    </linearGradient>
    <linearGradient
       id="linearGradient3596">
      <stop
         id="stop3598"
         offset="0"
         style="stop-color:#f0f0f0;stop-opacity:1" />
      <stop
         id="stop3600"
         offset="1"
         style="stop-color:#ffffff;stop-opacity:1" />
    </linearGradient>
    <linearGradient
       id="linearGradient3604">
      <stop
         id="stop3606"
         offset="0"
         style="stop-color:#bebebe;stop-opacity:1" />
      <stop
         id="stop3608"
         offset="1"
         style="stop-color:#d7d7d7;stop-opacity:1;" />
    </linearGradient>
    <linearGradient
       id="linearGradient3616">
      <stop
         id="stop3618"
         offset="0"
         style="stop-color:#000000;stop-opacity:0" />
      <stop
         id="stop3620"
         offset="1"
         style="stop-color:#000000;stop-opacity:1" />
    </linearGradient>
    <filter
       color-interpolation-filters="sRGB"
       height="2.6848011"
       id="filter4157"
       inkscape:collect="always"
       width="1.1719184"
       x="-0.085959181"
       y="-0.84240049">
      <feGaussianBlur
         id="feGaussianBlur4159"
         inkscape:collect="always"
         stdDeviation="3.5099998" />
    </filter>
    <filter
       color-interpolation-filters="sRGB"
       height="2.6666667"
       id="filter3822"
       width="1.9375"
       x="-0.46875"
       y="-0.83333331">
      <feGaussianBlur
         id="feGaussianBlur3824"
         stdDeviation="3.125" />
    </filter>
    <filter
       color-interpolation-filters="sRGB"
       height="2.6666667"
       id="filter3818"
       width="1.9375"
       x="-0.46875"
       y="-0.83333331">
      <feGaussianBlur
         id="feGaussianBlur3820"
         stdDeviation="3.125" />
    </filter>
    <linearGradient
       id="linearGradient6269-6-3">
      <stop
         id="stop6271-4-3"
         offset="0"
         style="stop-color:#646464;stop-opacity:1" />
      <stop
         id="stop6273-0-3"
         offset="1"
         style="stop-color:#282828;stop-opacity:1" />
    </linearGradient>
    <linearGradient
       id="linearGradient6424-0-7">
      <stop
         id="stop6426-5-9"
         offset="0"
         style="stop-color:#ffffff;stop-opacity:1" />
      <stop
         id="stop6428-6-0"
         offset="1"
         style="stop-color:#ffffff;stop-opacity:0" />
    </linearGradient>
    <linearGradient
       id="linearGradient6532-3-0">
      <stop
         id="stop6534-9-6"
         offset="0"
         style="stop-color:#464646;stop-opacity:1" />
      <stop
         id="stop6536-1-8"
         offset="1"
         style="stop-color:#0a0a0a;stop-opacity:1" />
    </linearGradient>
    <linearGradient
       gradientTransform="matrix(0.97222222,0,0,0.97334058,-17.829555,-15.587595)"
       gradientUnits="userSpaceOnUse"
       id="linearGradient3074"
       inkscape:collect="always"
       x1="85"
       x2="85"
       xlink:href="#linearGradient6269-6-3"
       y1="53"
       y2="128" />
    <linearGradient
       gradientTransform="matrix(0.97222222,0,0,0.97334058,-17.829555,-15.587595)"
       gradientUnits="userSpaceOnUse"
       id="linearGradient3076"
       inkscape:collect="always"
       x1="90"
       x2="90"
       xlink:href="#linearGradient6532-3-0"
       y1="53"
       y2="128" />
    <radialGradient
       cx="82.785706"
       cy="107.25813"
       fx="82.785706"
       fy="107.25813"
       gradientTransform="matrix(0.9235691,-0.01838025,0.00343544,0.17299856,-11.274803,36.359588)"
       gradientUnits="userSpaceOnUse"
       id="radialGradient3078"
       inkscape:collect="always"
       r="22.5"
       xlink:href="#linearGradient6424-0-7" />
    <radialGradient
       cx="158"
       cy="11.484326"
       fx="158"
       fy="11.484326"
       gradientTransform="matrix(4.3434901,6.2386781e-8,-7.1036129e-8,4.5633972,-619.27144,-25.021195)"
       gradientUnits="userSpaceOnUse"
       id="radialGradient3086"
       inkscape:collect="always"
       r="19"
       xlink:href="#linearGradient3616" />
    <linearGradient
       gradientTransform="matrix(2.7714288,0,0,2.5116278,-370.88573,1.686048)"
       gradientUnits="userSpaceOnUse"
       id="linearGradient3090"
       inkscape:collect="always"
       x1="159.08247"
       x2="159.08247"
       xlink:href="#linearGradient3799"
       y1="39.14352"
       y2="49.097225" />
    <linearGradient
       gradientTransform="matrix(2.7714288,0,0,2.5116278,-370.88573,1.686048)"
       gradientUnits="userSpaceOnUse"
       id="linearGradient3092"
       inkscape:collect="always"
       x1="155.47421"
       x2="155.47421"
       xlink:href="#linearGradient3807"
       y1="39.14352"
       y2="49.097225" />
    <linearGradient
       gradientTransform="matrix(2.7714288,0,0,2.5116278,-370.88573,1.686048)"
       gradientUnits="userSpaceOnUse"
       id="linearGradient3095"
       inkscape:collect="always"
       x1="158"
       x2="158"
       xlink:href="#linearGradient3596"
       y1="49"
       y2="5" />
    <linearGradient
       gradientTransform="matrix(2.7714288,0,0,2.5116278,-370.88573,1.686048)"
       gradientUnits="userSpaceOnUse"
       id="linearGradient3097"
       inkscape:collect="always"
       x1="155"
       x2="155"
       xlink:href="#linearGradient3604"
       y1="49"
       y2="5" />
  </defs>
  <sodipodi:namedview
     bordercolor="#666666"
     borderopacity="0.25490196"
     fill="#f57900"
     gridtolerance="12"
     guidetolerance="13"
     height="300px"
     id="base"
     inkscape:current-layer="layer6"
     inkscape:cx="145.8165"
     inkscape:cy="49.403027"
     inkscape:document-units="px"
     inkscape:grid-bbox="true"
     inkscape:guide-bbox="true"
     inkscape:pageopacity="0.0"
     inkscape:pageshadow="2"
     inkscape:showpageshadow="false"
     inkscape:snap-bbox="true"
     inkscape:snap-nodes="true"
     inkscape:window-height="948"
     inkscape:window-maximized="1"
     inkscape:window-width="1280"
     inkscape:window-x="0"
     inkscape:window-y="25"
     inkscape:zoom="1"
     objecttolerance="7"
     pagecolor="#ffffff"
     showgrid="false"
     showguides="false"
     stroke="#ef2929"
     width="400px">
    <inkscape:grid
       empspacing="5"
       enabled="true"
       id="grid5883"
       spacingx="1px"
       spacingy="1px"
       type="xygrid"
       visible="true" />
  </sodipodi:namedview>
  <metadata
     id="metadata4">
    <rdf:RDF>
      <cc:Work
         rdf:about="">
        <dc:format>image/svg+xml</dc:format>
        <dc:type
           rdf:resource="http://purl.org/dc/dcmitype/StillImage" />
        <dc:creator>
          <cc:Agent>
            <dc:title>Jonian Guveli, Olibia Tsati</dc:title>
          </cc:Agent>
        </dc:creator>
        <dc:source />
        <cc:license
           rdf:resource="http://creativecommons.org/licenses/by-sa/3.0/" />
        <dc:title>Candy Icon Theme</dc:title>
        <dc:subject>
          <rdf:Bag />
        </dc:subject>
        <dc:date />
        <dc:rights>
          <cc:Agent>
            <dc:title />
          </cc:Agent>
        </dc:rights>
        <dc:publisher>
          <cc:Agent>
            <dc:title />
          </cc:Agent>
        </dc:publisher>
        <dc:identifier />
        <dc:relation />
        <dc:language />
        <dc:coverage />
        <dc:description />
        <dc:contributor>
          <cc:Agent>
            <dc:title />
          </cc:Agent>
        </dc:contributor>
      </cc:Work>
      <cc:License
         rdf:about="http://creativecommons.org/licenses/by-sa/3.0/">
        <cc:permits
           rdf:resource="http://creativecommons.org/ns#Reproduction" />
        <cc:permits
           rdf:resource="http://creativecommons.org/ns#Distribution" />
        <cc:requires
           rdf:resource="http://creativecommons.org/ns#Notice" />
        <cc:requires
           rdf:resource="http://creativecommons.org/ns#Attribution" />
        <cc:permits
           rdf:resource="http://creativecommons.org/ns#DerivativeWorks" />
        <cc:requires
           rdf:resource="http://creativecommons.org/ns#ShareAlike" />
      </cc:License>
    </rdf:RDF>
  </metadata>
  <g
     id="layer1"
     inkscape:groupmode="layer"
     inkscape:label="mimetypes/audio-x-vorbis+ogg"
     style="display:inline"
     transform="translate(-3,-4)">
    <g
       id="layer6"
       inkscape:groupmode="layer"
       inkscape:label="plate"
       sodipodi:insensitive="true"
       style="display:none" />
    <rect
       height="9.9999933"
       id="rect4094"
       rx="5"
       ry="5"
       style="opacity:0.8;fill:#000000;fill-opacity:1;stroke:none;filter:url(#filter4157)"
       width="98"
       x="18"
       y="114" />
    <g
       id="g3910" />
    <g
       id="g3947" />
    <g
       id="g3999" />
    <g
       id="g4009" />
    <g
       id="g4004" />
    <g
       id="g3797"
       transform="translate(0,-4)" />
    <g
       id="g3105">
      <rect
         height="108"
         id="rect3773"
         rx="5"
         ry="5"
         style="fill:url(#linearGradient3095);fill-opacity:1;stroke:url(#linearGradient3097);stroke-width:0.99999994;stroke-linejoin:round;stroke-miterlimit:4;stroke-opacity:1;stroke-dasharray:none"
         width="97"
         x="18.5"
         y="15.5" />
      <path
         d="m 115.5,104 0,14.5 c 0,2.77 -2.23,5 -5,5 l -87,0 c -2.77,0 -5,-2.23 -5,-5 l 0,-14.5"
         id="rect3900"
         sodipodi:nodetypes="cccccc"
         style="fill:url(#linearGradient3090);fill-opacity:1;stroke:url(#linearGradient3092);stroke-width:0.99999994;stroke-linejoin:round;stroke-miterlimit:4;stroke-opacity:1" />
      <path
         d="m 54.96875,108 c -2.992684,-0.0994 -5.552242,3.0251 -4.84375,6 0.519384,2.91539 3.859104,4.77539 6.5625,3.6875 2.498379,-0.82881 3.989065,-3.87471 3,-6.375 C 59.019181,109.331 57.020004,107.95957 54.96875,108 z m 11.84375,0 c -1.885781,-0.0272 -3.821567,1.15191 -4.4375,3.03125 -1.048753,2.64592 0.194128,6.27695 3.09375,6.96875 1.547256,0.43476 3.362934,0.0134 4.34375,-1.34375 0.115863,1.64307 -1.114745,3.38137 -2.875,3.09375 -1.226306,0.24474 -1.798322,-1.25567 -2.9375,-1.03125 l -1.84375,0 c 1.145273,3.08556 5.339541,3.91172 7.90625,2.21875 1.889403,-1.21203 1.992428,-3.64847 1.9375,-5.6875 l 0,-7 -2.1875,0 c -0.0069,0.73924 0.160953,1.73983 -0.59375,0.59375 C 68.514053,108.29222 67.669673,108.01234 66.8125,108 z m 12,0 c -1.885781,-0.0272 -3.821567,1.15191 -4.4375,3.03125 -1.048753,2.64592 0.194128,6.27695 3.09375,6.96875 1.547256,0.43476 3.362934,0.0134 4.34375,-1.34375 0.115863,1.64307 -1.114745,3.38137 -2.875,3.09375 -1.226306,0.24474 -1.798322,-1.25567 -2.9375,-1.03125 l -1.84375,0 c 1.145273,3.08556 5.339541,3.91172 7.90625,2.21875 1.889403,-1.21203 1.992428,-3.64847 1.9375,-5.6875 l 0,-7 -2.1875,0 c -0.0069,0.73924 0.160953,1.73983 -0.59375,0.59375 C 80.514053,108.29222 79.669673,108.01234 78.8125,108 z m -23.84375,2.125 c 2.165312,-0.0657 3.511867,2.7256 2.28125,4.46875 -0.93808,1.67246 -3.568859,1.6773 -4.5,0 -1.198499,-1.78446 0.02105,-4.49036 2.21875,-4.46875 z m 11.6875,0.0312 0.28125,0 c 1.964705,-0.12738 3.221059,2.10386 2.65625,3.875 -0.435559,2.34889 -4.08599,2.70105 -5,0.53125 -0.807142,-1.67948 0.0048,-4.29108 2.0625,-4.40625 z m 12,0 0.28125,0 c 1.964705,-0.12738 3.221059,2.10386 2.65625,3.875 -0.435559,2.34889 -4.08599,2.70105 -5,0.53125 -0.807142,-1.67948 0.0048,-4.29108 2.0625,-4.40625 z"
         id="path3043"
         style="font-size:10px;font-style:normal;font-variant:normal;font-weight:bold;font-stretch:normal;fill:#ffffff;fill-opacity:1;stroke:none;font-family:URW Gothic L;-inkscape-font-specification:URW Gothic L Book" />
      <rect
         height="109"
         id="rect3775"
         rx="5.5"
         ry="5.5"
         style="opacity:0.07999998;fill:url(#radialGradient3086);fill-opacity:1;stroke:none"
         width="98"
         x="18"
         y="14.999993" />
    </g>
    <g
       id="g3826"
       transform="translate(0,-8)">
      <path
         d="M 93.5,36.5 53.59375,43.3125 C 51.996492,43.585516 50.5,45.565266 50.5,47.1875 l 0,40 C 48.306277,86.129131 45.755428,85.5 43,85.5 c -8.008129,0 -14.5,5.148725 -14.5,11.5 0,6.35128 6.491871,11.5 14.5,11.5 7.6922,0 13.984175,-4.74633 14.46875,-10.75 L 57.5,97.8125 57.46875,97.40625 C 57.474652,97.271418 57.5,97.135973 57.5,97 c 0,-0.49671 -0.04797,-0.988638 -0.125,-1.46875 L 55.5,59.59375 92.5,53.5 90.53125,82.1875 C 88.332075,81.121641 85.765965,80.5 83,80.5 c -8.008129,0 -14.5,5.148725 -14.5,11.5 0,6.351275 6.491871,11.5 14.5,11.5 8.008129,0 14.5,-5.148725 14.5,-11.5 0,-0.01042 3.5e-5,-0.02084 0,-0.03125 l 0,-51.59375 c 0,-1.720639 -2.282288,-3.862755 -4,-3.875 z"
         id="path3066"
         style="fill:url(#linearGradient3074);fill-opacity:1;stroke:url(#linearGradient3076);stroke-width:1;stroke-opacity:1" />
      <path
         d="m 50,93.5 a 8,4.5 0 0 1 -16,0 8,4.5 0 1 1 16,0 z"
         id="path3878"
         style="opacity:0.4;fill:#ffffff;fill-opacity:1;stroke:none;filter:url(#filter3818)" />
      <path
         d="m 90,88.5 a 8,4.5 0 0 1 -16,0 8,4.5 0 1 1 16,0 z"
         id="path3880"
         style="opacity:0.4;fill:#ffffff;fill-opacity:1;stroke:none;filter:url(#filter3822)" />
      <rect
         height="0.97330922"
         id="rect3868"
         style="opacity:0.6;fill:url(#radialGradient3078);fill-opacity:1;stroke:none"
         transform="matrix(0.98583168,-0.16773758,0.16736315,0.98589532,0,0)"
         width="43.751415"
         x="43.767681"
         y="52.169258" />
    </g>
    <g
       id="g3873"
       transform="translate(0,-2)" />
    <g
       id="g3906"
       transform="translate(0,-2)" />
    <g
       id="g4146"
       transform="translate(0,-2)" />
    <g
       id="g3935"
       transform="translate(0,-2)" />
  </g>
</svg>
