<?xml version="1.0" encoding="UTF-8" standalone="no"?>
<!-- Created with Inkscape (http://www.inkscape.org/) -->

<svg
   xmlns:svg="http://www.w3.org/2000/svg"
   xmlns="http://www.w3.org/2000/svg"
   xmlns:xlink="http://www.w3.org/1999/xlink"
   version="1.0"
   width="128"
   height="128"
   id="svg11300"
   style="display:inline;enable-background:new">
  <title
     id="title2897">Candy Icon Theme</title>
  <defs
     id="defs3">
    <linearGradient
       id="linearGradient6269">
      <stop
         id="stop6271"
         style="stop-color:#faca96;stop-opacity:1"
         offset="0" />
      <stop
         id="stop6273"
         style="stop-color:#e48620;stop-opacity:1"
         offset="1" />
    </linearGradient>
    <linearGradient
       id="linearGradient6288">
      <stop
         id="stop6290"
         style="stop-color:#000000;stop-opacity:1"
         offset="0" />
      <stop
         id="stop6292"
         style="stop-color:#000000;stop-opacity:0"
         offset="1" />
    </linearGradient>
    <linearGradient
       id="linearGradient6424">
      <stop
         id="stop6426"
         style="stop-color:#ffffff;stop-opacity:1"
         offset="0" />
      <stop
         id="stop6428"
         style="stop-color:#ffffff;stop-opacity:0"
         offset="1" />
    </linearGradient>
    <linearGradient
       id="linearGradient6343">
      <stop
         id="stop6345"
         style="stop-color:#000000;stop-opacity:0"
         offset="0" />
      <stop
         id="stop6347"
         style="stop-color:#000000;stop-opacity:1"
         offset="1" />
    </linearGradient>
    <linearGradient
       id="linearGradient6532">
      <stop
         id="stop6534"
         style="stop-color:#edae67;stop-opacity:1"
         offset="0" />
      <stop
         id="stop6536"
         style="stop-color:#a76721;stop-opacity:1"
         offset="1" />
    </linearGradient>
    <filter
       x="-0.078428574"
       y="-0.87840003"
       width="1.1568571"
       height="2.7567999"
       color-interpolation-filters="sRGB"
       id="filter3848">
      <feGaussianBlur
         id="feGaussianBlur3850"
         stdDeviation="3.66" />
    </filter>
    <radialGradient
       cx="93.500023"
       cy="96.495758"
       r="58.999996"
       fx="93.500023"
       fy="96.495758"
       id="radialGradient3073"
       xlink:href="#linearGradient6424"
       gradientUnits="userSpaceOnUse"
       gradientTransform="matrix(-5.5725677e-8,-1,1.0000001,-5.9708375e-8,-29.495763,163.50003)" />
    <radialGradient
       cx="67"
       cy="34.5"
       r="55"
       fx="67"
       fy="34.5"
       id="radialGradient3076"
       xlink:href="#linearGradient6424"
       gradientUnits="userSpaceOnUse"
       gradientTransform="matrix(1,0,0,0.08181818,0,67.677273)" />
    <radialGradient
       cx="93.500023"
       cy="96.495758"
       r="58.999996"
       fx="93.500023"
       fy="96.495758"
       id="radialGradient3082"
       xlink:href="#linearGradient6343"
       gradientUnits="userSpaceOnUse"
       gradientTransform="matrix(-5.5725677e-8,-1,1.0000001,-5.9708375e-8,-29.495763,163.50003)" />
    <linearGradient
       x1="156.9913"
       y1="15"
       x2="157.01903"
       y2="44"
       id="linearGradient3085"
       xlink:href="#linearGradient6269"
       gradientUnits="userSpaceOnUse"
       gradientTransform="matrix(2.7200897,0,0,1.9307662,-362.71283,39.542382)" />
    <linearGradient
       x1="151.70708"
       y1="15.062573"
       x2="151.68968"
       y2="43.937447"
       id="linearGradient3087"
       xlink:href="#linearGradient6532"
       gradientUnits="userSpaceOnUse"
       gradientTransform="matrix(2.6896636,0,0,1.8947458,-357.96691,40.604979)" />
    <linearGradient
       x1="157.27779"
       y1="19.363636"
       x2="157.27779"
       y2="14.181818"
       id="linearGradient3090"
       xlink:href="#linearGradient6288"
       gradientUnits="userSpaceOnUse"
       gradientTransform="matrix(2.7692307,0,0,11.333335,-370.53848,-96.666673)" />
    <linearGradient
       id="linearGradient6694">
      <stop
         id="stop6696"
         style="stop-color:#c8c8c8;stop-opacity:1"
         offset="0" />
      <stop
         id="stop6698"
         style="stop-color:#a0a0a0;stop-opacity:1"
         offset="1" />
    </linearGradient>
    <linearGradient
       id="linearGradient6362">
      <stop
         id="stop6364"
         style="stop-color:#d2d2d2;stop-opacity:1"
         offset="0" />
      <stop
         id="stop6366"
         style="stop-color:#fafafa;stop-opacity:1"
         offset="1" />
    </linearGradient>
    <linearGradient
       id="linearGradient6379">
      <stop
         id="stop6381"
         style="stop-color:#828282;stop-opacity:1"
         offset="0" />
      <stop
         id="stop6383"
         style="stop-color:#000000;stop-opacity:1"
         offset="1" />
    </linearGradient>
    <linearGradient
       x1="148"
       y1="9.5"
       x2="147.96875"
       y2="13.0625"
       id="linearGradient3201"
       xlink:href="#linearGradient6379"
       gradientUnits="userSpaceOnUse"
       gradientTransform="matrix(2.8461538,0,0,1.5,-380.15385,19.75)" />
    <linearGradient
       x1="67"
       y1="108"
       x2="67"
       y2="19"
       id="linearGradient3204"
       xlink:href="#linearGradient6362"
       gradientUnits="userSpaceOnUse"
       gradientTransform="translate(0,12)" />
    <linearGradient
       x1="45.25"
       y1="19"
       x2="45.5"
       y2="108"
       id="linearGradient3206"
       xlink:href="#linearGradient6694"
       gradientUnits="userSpaceOnUse"
       gradientTransform="translate(0,12)" />
  </defs>
  <g
     transform="translate(-3,-4)"
     id="layer1"
     style="display:inline">
    <g
       id="layer6"
       style="display:none" />
    <g
       id="layer6-1"
       style="display:none">
      <rect
         width="128"
         height="128"
         x="3"
         y="4"
         id="rect6282-6"
         style="fill:#eeeeec;fill-opacity:1;fill-rule:nonzero;stroke:none;stroke-width:2;marker:none;visibility:visible;display:inline;overflow:visible;enable-background:accumulate" />
    </g>
    <rect
       width="112"
       height="10"
       rx="5"
       ry="5"
       x="11"
       y="114"
       id="rect4133"
       style="opacity:0.8;fill:#000000;fill-opacity:1;stroke:none;filter:url(#filter3848)" />
    <g
       id="g3215">
      <path
         d="m 24.5,31.5 c -2.216,0 -4,1.534 -4,3.75 l 0,2.25 -4,0 c -2.216002,0 -4,1.784 -4,4 l 0,74.25 c 0,2.216 1.783997,3.75 4,3.75 l 101,0 c 2.216,0 4,-1.784 4,-4 l 0,-74 c 0,-2.216 -1.784,-4 -4,-4 l -53,0 0,-2.25 c 0,-2.216 -1.784,-3.75 -4,-3.75 l -36,0 z"
         id="rect6463"
         style="fill:url(#linearGradient3204);fill-opacity:1;stroke:url(#linearGradient3206);stroke-width:1;stroke-linecap:square;stroke-linejoin:round;stroke-miterlimit:4;stroke-opacity:1;stroke-dasharray:none" />
      <rect
         width="37"
         height="3"
         rx="1"
         ry="1"
         x="24"
         y="34"
         id="rect6413"
         style="opacity:0.3;fill:url(#linearGradient3201);fill-opacity:1;stroke:none;display:inline;enable-background:new" />
      <rect
         width="108"
         height="34"
         x="13"
         y="62"
         id="rect5571"
         style="fill:url(#linearGradient3090);fill-opacity:1;stroke:none" />
      <path
         d="m 13.499971,69.499973 107.000059,0 c 2.77,0 5,1.584474 5,3.552633 L 122.5,119.9474 c 0,1.96816 -1.23,3.55263 -4,3.55263 l -103,0 c -2.77,0 -4,-1.58447 -4,-3.55263 L 8.4999714,73.052606 c 0,-1.968159 2.2299996,-3.552633 4.9999996,-3.552633 z"
         id="rect5575"
         style="fill:url(#linearGradient3085);fill-opacity:1;stroke:url(#linearGradient3087);stroke-width:0.99994278;stroke-linecap:square;stroke-linejoin:round;stroke-miterlimit:4;stroke-opacity:1" />
      <path
         d="M 13.500008,69 120.5,69 c 3.047,0 5.5,1.752143 5.5,3.928571 l -3,47.142859 C 123,122.24786 121.547,124 118.5,124 l -103,0 C 12.453,124 11,122.24786 11,120.07143 L 8.0000076,72.928571 C 8.0000076,70.752143 10.453008,69 13.500008,69 z"
         id="rect5577"
         style="opacity:0.07999998;fill:url(#radialGradient3082);fill-opacity:1;stroke:none;display:inline;enable-background:new" />
      <path
         d="m 12,70 0,1 110,0 0,-1 -110,0 z"
         id="rect6566"
         style="opacity:0.5;fill:url(#radialGradient3076);fill-opacity:1;stroke:none;display:inline;enable-background:new" />
      <path
         d="M 13.500008,69 120.5,69 c 3.047,0 5.5,1.752143 5.5,3.928571 l -3,47.142859 C 123,122.24786 121.547,124 118.5,124 l -103,0 C 12.453,124 11,122.24786 11,120.07143 L 8.0000076,72.928571 C 8.0000076,70.752143 10.453008,69 13.500008,69 z"
         id="path3987"
         style="opacity:0.2;fill:url(#radialGradient3073);fill-opacity:1;stroke:none;display:inline;enable-background:new" />
    </g>
    <g
       id="g3233" />
    <g
       id="g3241" />
    <g
       id="g3249" />
    <g
       id="g3257" />
    <g
       id="g3224" />
  </g>
</svg>
