<?xml version="1.0" encoding="UTF-8" standalone="no"?>
<!-- Created with Inkscape (http://www.inkscape.org/) -->

<svg
   xmlns:dc="http://purl.org/dc/elements/1.1/"
   xmlns:cc="http://creativecommons.org/ns#"
   xmlns:rdf="http://www.w3.org/1999/02/22-rdf-syntax-ns#"
   xmlns:svg="http://www.w3.org/2000/svg"
   xmlns="http://www.w3.org/2000/svg"
   xmlns:xlink="http://www.w3.org/1999/xlink"
   xmlns:sodipodi="http://sodipodi.sourceforge.net/DTD/sodipodi-0.dtd"
   xmlns:inkscape="http://www.inkscape.org/namespaces/inkscape"
   height="128"
   id="svg11300"
   inkscape:export-filename="/home/jonieno"
   inkscape:export-xdpi="90.000000"
   inkscape:export-ydpi="90.000000"
   inkscape:output_extension="org.inkscape.output.svg.inkscape"
   inkscape:version="0.47 r22583"
   sodipodi:docname="accessories-dictionary.svg"
   sodipodi:version="0.32"
   style="display:inline;enable-background:new"
   version="1.0"
   width="128">
  <title
     id="title2897">Candy Icon Theme</title>
  <defs
     id="defs3">
    <linearGradient
       id="linearGradient3835"
       inkscape:collect="always">
      <stop
         id="stop3837"
         offset="0"
         style="stop-color:#000000;stop-opacity:1;" />
      <stop
         id="stop3839"
         offset="1"
         style="stop-color:#000000;stop-opacity:0;" />
    </linearGradient>
    <linearGradient
       id="linearGradient4007">
      <stop
         id="stop4009"
         offset="0"
         style="stop-color:#ffffff;stop-opacity:1;" />
      <stop
         id="stop4011"
         offset="1"
         style="stop-color:#e6e6e6;stop-opacity:1;" />
    </linearGradient>
    <linearGradient
       id="linearGradient3867">
      <stop
         id="stop3869"
         offset="0"
         style="stop-color:#ffffff;stop-opacity:1;" />
      <stop
         id="stop3871"
         offset="1"
         style="stop-color:#ffffff;stop-opacity:0;" />
    </linearGradient>
    <linearGradient
       id="linearGradient3857">
      <stop
         id="stop3859"
         offset="0"
         style="stop-color:#000000;stop-opacity:0;" />
      <stop
         id="stop3861"
         offset="1"
         style="stop-color:#000000;stop-opacity:1;" />
    </linearGradient>
    <linearGradient
       id="linearGradient3839">
      <stop
         id="stop3841"
         offset="0"
         style="stop-color:#bc3c34;stop-opacity:1;" />
      <stop
         id="stop3843"
         offset="1"
         style="stop-color:#5f1b19;stop-opacity:1;" />
    </linearGradient>
    <linearGradient
       id="linearGradient3817">
      <stop
         id="stop3819"
         offset="0"
         style="stop-color:#dd564f;stop-opacity:1;" />
      <stop
         id="stop3821"
         offset="1"
         style="stop-color:#9a201a;stop-opacity:1;" />
    </linearGradient>
    <filter
       color-interpolation-filters="sRGB"
       height="2.2720001"
       id="filter4314"
       inkscape:collect="always"
       width="1.1325001"
       x="-0.066249996"
       y="-0.63599998">
      <feGaussianBlur
         id="feGaussianBlur4316"
         inkscape:collect="always"
         stdDeviation="2.65" />
    </filter>
    <radialGradient
       cx="157"
       cy="28.5"
       fx="157"
       fy="28.5"
       gradientTransform="matrix(2.4210529,0,0,0.10526316,-312.1053,20)"
       gradientUnits="userSpaceOnUse"
       id="radialGradient3769"
       inkscape:collect="always"
       r="19"
       xlink:href="#linearGradient3867" />
    <radialGradient
       cx="67"
       cy="24.500904"
       fx="67"
       fy="24.500904"
       gradientTransform="matrix(1.9999985,9.1992388e-8,-7.6660327e-8,1.6666655,-66.9999,-19.834818)"
       gradientUnits="userSpaceOnUse"
       id="radialGradient3772"
       inkscape:collect="always"
       r="48.000034"
       xlink:href="#linearGradient3867" />
    <radialGradient
       cx="67"
       cy="24.500904"
       fx="67"
       fy="24.500904"
       gradientTransform="matrix(1.9999985,9.1992388e-8,-7.6660327e-8,1.6666655,-66.9999,-19.834818)"
       gradientUnits="userSpaceOnUse"
       id="radialGradient3775"
       inkscape:collect="always"
       r="48.000034"
       xlink:href="#linearGradient3857" />
    <radialGradient
       cx="64"
       cy="59.999954"
       fx="64"
       fy="59.999954"
       gradientTransform="matrix(0.97647056,0,0,0.02352942,3.4941176,14.588238)"
       gradientUnits="userSpaceOnUse"
       id="radialGradient3778"
       inkscape:collect="always"
       r="42.5"
       xlink:href="#linearGradient3835" />
    <radialGradient
       cx="64"
       cy="59.999954"
       fx="64"
       fy="59.999954"
       gradientTransform="matrix(0.99999999,0,0,0.02352942,2,16.588238)"
       gradientUnits="userSpaceOnUse"
       id="radialGradient3781"
       inkscape:collect="always"
       r="42.5"
       xlink:href="#linearGradient3835" />
    <radialGradient
       cx="64"
       cy="59.999954"
       fx="64"
       fy="59.999954"
       gradientTransform="matrix(1.0235294,0,0,0.02352942,0.50588235,18.588238)"
       gradientUnits="userSpaceOnUse"
       id="radialGradient3784"
       inkscape:collect="always"
       r="42.5"
       xlink:href="#linearGradient3835" />
    <linearGradient
       gradientTransform="translate(-1,0)"
       gradientUnits="userSpaceOnUse"
       id="linearGradient3787"
       inkscape:collect="always"
       x1="58"
       x2="58"
       xlink:href="#linearGradient4007"
       y1="16"
       y2="21" />
    <linearGradient
       gradientTransform="translate(-3,4)"
       gradientUnits="userSpaceOnUse"
       id="linearGradient3790"
       inkscape:collect="always"
       x1="62"
       x2="62"
       xlink:href="#linearGradient4007"
       y1="55"
       y2="110" />
    <linearGradient
       gradientTransform="translate(-4,4)"
       gradientUnits="userSpaceOnUse"
       id="linearGradient3794"
       inkscape:collect="always"
       x1="88"
       x2="88"
       xlink:href="#linearGradient4007"
       y1="70"
       y2="110" />
    <linearGradient
       gradientUnits="userSpaceOnUse"
       id="linearGradient3803"
       inkscape:collect="always"
       x1="65"
       x2="65"
       xlink:href="#linearGradient3817"
       y1="20"
       y2="125" />
    <linearGradient
       gradientUnits="userSpaceOnUse"
       id="linearGradient3805"
       inkscape:collect="always"
       x1="65"
       x2="65"
       xlink:href="#linearGradient3839"
       y1="20"
       y2="125" />
    <radialGradient
       cx="65"
       cy="-19.783239"
       fx="65"
       fy="-19.783239"
       gradientTransform="matrix(1.3912988,3.6152626e-8,-2.1465623e-8,0.8260837,-25.434423,29.342609)"
       gradientUnits="userSpaceOnUse"
       id="radialGradient3808"
       inkscape:collect="always"
       r="46.000183"
       xlink:href="#linearGradient3867" />
    <radialGradient
       cx="65"
       cy="-19.783239"
       fx="65"
       fy="-19.783239"
       gradientTransform="matrix(1.3912988,3.6152626e-8,-2.1465623e-8,0.8260837,-25.434423,29.342609)"
       gradientUnits="userSpaceOnUse"
       id="radialGradient3811"
       inkscape:collect="always"
       r="46.000183"
       xlink:href="#linearGradient3857" />
  </defs>
  <sodipodi:namedview
     bordercolor="#666666"
     borderopacity="0.25490196"
     fill="#f57900"
     gridtolerance="12"
     guidetolerance="13"
     height="300px"
     id="base"
     inkscape:current-layer="layer6"
     inkscape:cx="155.96913"
     inkscape:cy="105.79105"
     inkscape:document-units="px"
     inkscape:grid-bbox="true"
     inkscape:guide-bbox="true"
     inkscape:pageopacity="0.0"
     inkscape:pageshadow="2"
     inkscape:showpageshadow="false"
     inkscape:snap-bbox="true"
     inkscape:snap-nodes="true"
     inkscape:window-height="948"
     inkscape:window-maximized="1"
     inkscape:window-width="1280"
     inkscape:window-x="0"
     inkscape:window-y="25"
     inkscape:zoom="1"
     objecttolerance="7"
     pagecolor="#ffffff"
     showgrid="false"
     showguides="false"
     stroke="#ef2929"
     width="400px">
    <inkscape:grid
       empspacing="5"
       enabled="true"
       id="grid5883"
       spacingx="1px"
       spacingy="1px"
       type="xygrid"
       visible="true" />
  </sodipodi:namedview>
  <metadata
     id="metadata4">
    <rdf:RDF>
      <cc:Work
         rdf:about="">
        <dc:format>image/svg+xml</dc:format>
        <dc:type
           rdf:resource="http://purl.org/dc/dcmitype/StillImage" />
        <dc:creator>
          <cc:Agent>
            <dc:title>Jonian Guveli, Olibia Tsati</dc:title>
          </cc:Agent>
        </dc:creator>
        <dc:source />
        <cc:license
           rdf:resource="http://creativecommons.org/licenses/by-sa/3.0/" />
        <dc:title>Candy Icon Theme</dc:title>
        <dc:subject>
          <rdf:Bag />
        </dc:subject>
        <dc:date />
        <dc:rights>
          <cc:Agent>
            <dc:title />
          </cc:Agent>
        </dc:rights>
        <dc:publisher>
          <cc:Agent>
            <dc:title />
          </cc:Agent>
        </dc:publisher>
        <dc:identifier />
        <dc:relation />
        <dc:language />
        <dc:coverage />
        <dc:description />
        <dc:contributor>
          <cc:Agent>
            <dc:title />
          </cc:Agent>
        </dc:contributor>
      </cc:Work>
      <cc:License
         rdf:about="http://creativecommons.org/licenses/by-sa/3.0/">
        <cc:permits
           rdf:resource="http://creativecommons.org/ns#Reproduction" />
        <cc:permits
           rdf:resource="http://creativecommons.org/ns#Distribution" />
        <cc:requires
           rdf:resource="http://creativecommons.org/ns#Notice" />
        <cc:requires
           rdf:resource="http://creativecommons.org/ns#Attribution" />
        <cc:permits
           rdf:resource="http://creativecommons.org/ns#DerivativeWorks" />
        <cc:requires
           rdf:resource="http://creativecommons.org/ns#ShareAlike" />
      </cc:License>
    </rdf:RDF>
  </metadata>
  <g
     id="layer1"
     inkscape:groupmode="layer"
     inkscape:label="apps/accessories-dictionary"
     style="display:inline"
     transform="translate(-3,-4)">
    <g
       id="layer6"
       inkscape:groupmode="layer"
       inkscape:label="plate"
       sodipodi:insensitive="true"
       style="display:none" />
    <rect
       height="10"
       id="rect3792"
       rx="5"
       ry="5"
       style="opacity:0.8;fill:#000000;fill-opacity:1;stroke:none;filter:url(#filter4314)"
       width="96"
       x="19"
       y="114" />
    <text
       id="text4041"
       style="font-size:40px;font-style:normal;font-variant:normal;font-weight:normal;font-stretch:normal;fill:#000000;fill-opacity:1;stroke:none;font-family:Times New Roman;-inkscape-font-specification:'Times New Roman,'"
       x="41.542522"
       xml:space="preserve"
       y="96.109123"><tspan
         id="tspan4043"
         sodipodi:role="line"
         x="41.542522"
         y="96.109123" /></text>
    <g
       id="g3814">
      <path
         d="m 19.5,21.5 90.99926,0 0,-4.34375 c 0.0506,-2.167991 -2.50502,-4.645824 -5.37496,-4.65625 l -81.6243,0 -4,9 z"
         id="path2947"
         sodipodi:nodetypes="cccccc"
         style="fill:#cc3e38;fill-opacity:1;stroke:#9f2e29;stroke-width:1;stroke-linecap:square;stroke-linejoin:round;stroke-miterlimit:4;stroke-opacity:1;stroke-dasharray:none" />
      <path
         d="m 23.40625,12 c -0.167089,0.03124 -0.314141,0.153784 -0.375,0.3125 l -4,9 C 18.908425,21.616212 19.17241,22.00339 19.5,22 l 91,0 c 0.26179,-2.6e-5 0.49997,-0.238208 0.5,-0.5 l 0,-4.34375 c 0.03,-1.284743 -0.67604,-2.533898 -1.75,-3.5 C 108.17604,12.690148 106.70332,12.005734 105.125,12 L 23.5,12 c -0.03116,-0.0029 -0.06259,-0.0029 -0.09375,0 z"
         id="path4332"
         sodipodi:nodetypes="cccccccsccc"
         style="font-size:medium;font-style:normal;font-variant:normal;font-weight:normal;font-stretch:normal;text-indent:0;text-align:start;text-decoration:none;line-height:normal;letter-spacing:normal;word-spacing:normal;text-transform:none;direction:ltr;block-progression:tb;writing-mode:lr-tb;text-anchor:start;opacity:0.07999998;color:#000000;fill:url(#radialGradient3811);fill-opacity:1;fill-rule:nonzero;stroke:none;stroke-width:1;marker:none;visibility:visible;display:inline;overflow:visible;enable-background:accumulate;font-family:Aller;-inkscape-font-specification:Aller" />
      <path
         d="m 23.40625,12 c -0.167089,0.03124 -0.314141,0.153784 -0.375,0.3125 l -4,9 C 18.908425,21.616212 19.17241,22.00339 19.5,22 l 91,0 c 0.26179,-2.6e-5 0.49997,-0.238208 0.5,-0.5 l 0,-4.34375 c 0.03,-1.284743 -0.67604,-2.533898 -1.75,-3.5 C 108.17604,12.690148 106.70332,12.005734 105.125,12 L 23.5,12 c -0.03116,-0.0029 -0.06259,-0.0029 -0.09375,0 z"
         id="path4346"
         sodipodi:nodetypes="cccccccsccc"
         style="font-size:medium;font-style:normal;font-variant:normal;font-weight:normal;font-stretch:normal;text-indent:0;text-align:start;text-decoration:none;line-height:normal;letter-spacing:normal;word-spacing:normal;text-transform:none;direction:ltr;block-progression:tb;writing-mode:lr-tb;text-anchor:start;opacity:0.2;color:#000000;fill:url(#radialGradient3808);fill-opacity:1;fill-rule:nonzero;stroke:none;stroke-width:1;marker:none;visibility:visible;display:inline;overflow:visible;enable-background:accumulate;font-family:Aller;-inkscape-font-specification:Aller" />
      <path
         d="m 109.5,21.5 c 2.77,0 5,2.23 5,5 l 0,92.00001 c 0,2.77 -2.23,5 -5,5 l -85,0 c -2.357023,0 -5,-2.64298 -5,-5 l 0,-97.00001 90,0 z"
         id="rect4291"
         sodipodi:nodetypes="cccczzcc"
         style="fill:url(#linearGradient3803);fill-opacity:1;stroke:url(#linearGradient3805);stroke-width:1;stroke-linejoin:round;stroke-opacity:1" />
      <path
         d="m 62.0625,113.21875 0,2.6875 0.3125,0 0,-1.40625 1.46875,0 0,1.40625 0.28125,0 0,-2.6875 -0.28125,0 0,1 -1.46875,0 0,-1 -0.3125,0 z m 15.3125,0 0,2.6875 0.28125,0 0,-2.6875 -0.28125,0 z m -7.90625,0.0312 0,1.125 c -0.07764,-0.0875 -0.167875,-0.16365 -0.28125,-0.21875 -0.112147,-0.0551 -0.236533,-0.0937 -0.34375,-0.0937 -0.167604,0 -0.329496,0.0388 -0.46875,0.125 -0.139265,0.0863 -0.23364,0.19987 -0.3125,0.34375 -0.07765,0.14268 -0.125,0.30208 -0.125,0.46875 0,0.16786 0.04738,0.32486 0.125,0.46875 0.07887,0.14267 0.173235,0.25855 0.3125,0.34375 0.139254,0.0851 0.301146,0.125 0.46875,0.125 0.108449,0 0.232835,-0.0387 0.34375,-0.0937 0.112144,-0.0564 0.20241,-0.0987 0.28125,-0.1875 -1e-5,0.0803 -0.0021,0.14569 0.03125,0.25 l 0.34375,0 c -0.02342,-0.0408 -0.04645,-0.10604 -0.0625,-0.21875 -0.01617,-0.11392 -0.03125,-0.2237 -0.03125,-0.3125 l 0,-2.125 -0.28125,0 z m -13.28125,0.0937 0,2.09375 c 0,0.25211 -0.03943,0.4054 -0.09375,0.5 l 0.3125,0 c 0.0326,-0.10155 0.0625,-0.172 0.0625,-0.25 0.07725,0.0863 0.172612,0.1327 0.28125,0.1875 0.109845,0.0539 0.205069,0.0937 0.3125,0.0937 0.164163,0 0.333555,-0.0422 0.46875,-0.125 0.136399,-0.0828 0.23645,-0.20486 0.3125,-0.34375 0.07724,-0.14007 0.124998,-0.27408 0.125,-0.4375 -2e-6,-0.16222 -0.04775,-0.32985 -0.125,-0.46875 -0.07605,-0.14007 -0.176101,-0.2284 -0.3125,-0.3125 -0.135195,-0.084 -0.304587,-0.125 -0.46875,-0.125 -0.106224,0 -0.201449,0.009 -0.3125,0.0625 -0.109845,0.0537 -0.2052,0.13365 -0.28125,0.21875 l 0,-1.09375 -0.28125,0 z m 16.5,0.15625 c -0.05912,0 -0.11436,0.0241 -0.15625,0.0625 -0.04068,0.0384 -0.0625,0.0699 -0.0625,0.125 0,0.0541 0.02182,0.11915 0.0625,0.15625 0.04067,0.0371 0.09589,0.0312 0.15625,0.0312 0.05795,0 0.11557,0.006 0.15625,-0.0312 0.04189,-0.0372 0.0625,-0.10225 0.0625,-0.15625 0,-0.0551 -0.02061,-0.0866 -0.0625,-0.125 C 72.803083,113.5241 72.74544,113.5 72.6875,113.5 z m -7.34375,0.5625 c -0.07764,0 -0.14608,0.007 -0.21875,0.0312 -0.07271,0.0226 -0.14188,0.0662 -0.1875,0.0937 -0.04433,0.0276 -0.07817,0.0482 -0.125,0.0937 -0.04563,0.0456 -0.0777,0.0747 -0.09375,0.0937 -0.01472,0.0193 -0.0403,0.0613 -0.0625,0.0937 l 0.25,0.125 c 0.01105,-0.0145 0.02475,-0.0545 0.03125,-0.0625 0.0062,-0.008 0.01645,-0.0145 0.03125,-0.0312 0.01482,-0.018 0.05019,-0.0212 0.0625,-0.0312 0.01353,-0.0109 0.01278,-0.0156 0.03125,-0.0312 0.01968,-0.0154 0.04282,-0.0525 0.0625,-0.0625 0.01975,-0.01 0.03908,0.01 0.0625,0 0.02341,-0.01 0.03535,-0.0263 0.0625,-0.0312 0.0271,-0.005 0.06418,1e-5 0.09375,0 0.119533,1e-5 0.21762,0.0374 0.3125,0.125 0.0961,0.0875 0.17024,0.19387 0.1875,0.34375 -0.06409,0 -0.11678,-9.2e-4 -0.15625,0 -0.03943,0 -0.1123,-0.004 -0.1875,0 -0.07518,0.004 -0.13572,0.0233 -0.1875,0.0312 -0.05053,0.006 -0.08479,0.0169 -0.15625,0.0312 -0.07025,0.0144 -0.13824,0.0433 -0.1875,0.0625 -0.04806,0.019 -0.10326,0.0314 -0.15625,0.0625 -0.053,0.0299 -0.09297,0.0541 -0.125,0.0937 -0.032,0.0384 -0.07277,0.10225 -0.09375,0.15625 -0.02099,0.0528 -0.03125,0.0915 -0.03125,0.15625 0,0.0623 0.0066,0.1264 0.03125,0.1875 0.0259,0.06 0.07574,0.1347 0.125,0.1875 0.05053,0.0526 0.1337,0.0925 0.21875,0.125 0.08503,0.0324 0.172799,0.0312 0.28125,0.0312 0.229219,0 0.432753,-0.0942 0.625,-0.28125 -0.0062,0.0755 0.02061,0.1588 0.0625,0.25 l 0.3125,0 C 66.19533,115.8615 66.1723,115.8 66.15625,115.7184 66.1401,115.6357 66.125,115.55 66.125,115.4684 l 0,-0.59375 c -0.0025,-0.1259 -0.01688,-0.23944 -0.0625,-0.34375 -0.0456,-0.10552 -0.11354,-0.1828 -0.1875,-0.25 -0.07271,-0.0684 -0.15633,-0.11915 -0.25,-0.15625 -0.09243,-0.037 -0.18143,-0.0625 -0.28125,-0.0625 z m 2.0625,0 c -0.17007,0.0587 -0.305634,0.16861 -0.4375,0.3125 0,-0.0947 -0.03047,-0.19505 -0.0625,-0.28125 l -0.3125,0 c 0.02217,0.042 0.04645,0.10484 0.0625,0.21875 0.01764,0.11391 0,0.2226 0,0.3125 l 0,1.28125 0.3125,0 0,-0.9375 c 0,-0.025 -0.0026,-0.035 0,-0.0625 0.0037,-0.0276 -0.01231,-0.0794 0,-0.125 0.01358,-0.0467 0.04151,-0.0843 0.0625,-0.125 0.02092,-0.0408 0.05186,-0.0807 0.09375,-0.125 0.0419,-0.0444 0.10084,-0.0939 0.15625,-0.125 0.05546,-0.0321 0.13245,-0.0422 0.21875,-0.0625 0.08626,-0.0217 0.17526,-0.0312 0.28125,-0.0312 l -0.375,-0.25 z m 3.78125,0 c -0.108451,0 -0.200357,0.0362 -0.3125,0.0937 -0.110915,0.0576 -0.23236,0.12885 -0.3125,0.21875 0,-0.0863 0.0021,-0.17934 -0.03125,-0.28125 l -0.34375,0 c 0.02463,0.0408 0.0477,0.10604 0.0625,0.21875 0.01607,0.1127 0.03125,0.2213 0.03125,0.3125 l 0,2.09375 0.28125,0 0,-1.0625 c 0.07764,0.0887 0.200355,0.16365 0.3125,0.21875 0.112145,0.0541 0.202817,0.0625 0.3125,0.0625 0.167597,0 0.330724,-0.0398 0.46875,-0.125 0.139254,-0.0863 0.23488,-0.20106 0.3125,-0.34375 0.07884,-0.14388 0.124998,-0.30208 0.125,-0.46875 -2e-6,-0.16665 -0.04617,-0.32606 -0.125,-0.46875 -0.07765,-0.14388 -0.173246,-0.25755 -0.3125,-0.34375 -0.138026,-0.0862 -0.301153,-0.125 -0.46875,-0.125 z m 4.8125,0 c -0.166375,0 -0.297006,0.0388 -0.4375,0.125 -0.140487,0.0863 -0.26361,0.19986 -0.34375,0.34375 -0.08012,0.14269 -0.125,0.3021 -0.125,0.46875 0,0.16786 0.04738,0.32487 0.125,0.46875 0.07887,0.14268 0.173236,0.25855 0.3125,0.34375 0.139255,0.0851 0.301145,0.125 0.46875,0.125 0.04562,0 0.10942,0.007 0.15625,0 0.04806,-0.006 0.08973,-0.01 0.15625,-0.0312 0.06655,-0.0216 0.12714,-0.0589 0.1875,-0.0937 0.06039,-0.0348 0.12341,-0.094 0.1875,-0.15625 0.06408,-0.0636 0.13945,-0.13615 0.1875,-0.21875 l -0.25,-0.125 c -0.07148,0.11751 -0.176503,0.21995 -0.28125,0.28125 -0.104756,0.06 -0.221745,0.0625 -0.34375,0.0625 -0.155282,0 -0.286714,-0.0423 -0.40625,-0.15625 -0.119536,-0.11511 -0.17269,-0.26484 -0.1875,-0.4375 l 1.53125,0 -0.03125,-0.125 c -0.01356,-0.15588 -0.04365,-0.3068 -0.125,-0.4375 -0.08134,-0.13189 -0.178172,-0.2345 -0.3125,-0.3125 -0.134326,-0.0779 -0.309775,-0.125 -0.46875,-0.125 z m -3.46875,0.0312 0,1.8125 0.28125,0 0,-1.8125 -0.28125,0 z m 0.65625,0 0.65625,0.875 -0.71875,0.9375 0.34375,0 0.53125,-0.7186 0.53125,0.71875 0.34375,0 -0.6875,-0.9375 0.625,-0.875 -0.34375,0 -0.46875,0.625 -0.46875,-0.625 -0.34375,0 z m -15,0.0625 0.71875,1.75 -0.375,0.90625 0.3125,0 1.0625,-2.65625 -0.28125,0 -0.5625,1.375 -0.59375,-1.375 -0.28125,0 z m 10.65625,0.1875 c 0.165135,0 0.315493,0.0568 0.4375,0.1875 0.123246,0.12951 0.187498,0.2829 0.1875,0.46875 -2e-6,0.18705 -0.06426,0.33926 -0.1875,0.46875 -0.122007,0.12815 -0.272365,0.1875 -0.4375,0.1875 -0.165135,0 -0.313031,-0.058 -0.4375,-0.1875 -0.123246,-0.1295 -0.1875,-0.2829 -0.1875,-0.46875 0,-0.18585 0.06426,-0.33924 0.1875,-0.46875 0.124469,-0.13073 0.272365,-0.1875 0.4375,-0.1875 z m 2.34375,0 c 0.163902,0 0.314262,0.0568 0.4375,0.1875 0.123187,0.1295 0.187498,0.28292 0.1875,0.46875 -2e-6,0.18586 -0.06426,0.33927 -0.1875,0.46875 -0.123238,0.12955 -0.273598,0.1875 -0.4375,0.1875 -0.166375,0 -0.314264,-0.0592 -0.4375,-0.1875 -0.121999,-0.1295 -0.1875,-0.2817 -0.1875,-0.46875 0,-0.18583 0.06549,-0.33925 0.1875,-0.46875 0.123236,-0.13073 0.271125,-0.1875 0.4375,-0.1875 z m 4.8125,0 c 0.133091,0 0.266549,0.0398 0.375,0.125 0.109681,0.0851 0.17929,0.20705 0.21875,0.34375 l -1.15625,0 c 0.04313,-0.1367 0.1103,-0.25855 0.21875,-0.34375 0.109682,-0.0851 0.213115,-0.125 0.34375,-0.125 z m -18.9375,0.0625 c 0.160542,0 0.316791,0.0603 0.4375,0.1875 0.120704,0.12605 0.187498,0.28785 0.1875,0.46875 -2e-6,0.18092 -0.06679,0.3427 -0.1875,0.46875 -0.120709,0.12598 -0.276958,0.1875 -0.4375,0.1875 -0.162957,0 -0.285541,-0.0626 -0.40625,-0.1875 -0.119511,-0.12606 -0.187501,-0.28666 -0.1875,-0.46875 -10e-7,-0.1809 0.068,-0.3427 0.1875,-0.46875 0.120709,-0.12704 0.243293,-0.1875 0.40625,-0.1875 z m 8.5,0.65625 c 0.08257,-0.006 0.177726,9.3e-4 0.28125,0 l 0,0.21875 c -0.06409,0.10312 -0.162945,0.20585 -0.28125,0.28125 -0.118308,0.0756 -0.222979,0.125 -0.34375,0.125 -0.117077,0 -0.2221,-0.0387 -0.28125,-0.0937 -0.05915,-0.0552 -0.0625,-0.1252 -0.0625,-0.1875 0,-0.06 0.02182,-0.11195 0.0625,-0.15625 0.04067,-0.0443 0.06342,-0.0686 0.125,-0.0937 0.06162,-0.0249 0.15754,-0.0469 0.25,-0.0625 0.09243,-0.0158 0.16865,-0.0242 0.25,-0.0312 z"
         id="path3819"
         style="font-size:4px;font-style:normal;font-variant:normal;font-weight:bold;font-stretch:normal;opacity:0.9;fill:#ffffff;fill-opacity:1;stroke:#ffffff;stroke-width:0.2;stroke-miterlimit:4;stroke-opacity:1;stroke-dasharray:none;font-family:Sawasdee;-inkscape-font-specification:Aller Bold" />
      <path
         d="m 62,29 0,8 1.78125,0 c 0.761729,0 1.482396,-0.181173 2.125,-0.53125 0.646204,-0.350078 1.155794,-0.826648 1.53125,-1.4375 C 67.816555,34.41683 67.999994,33.735882 68,33 c -6e-6,-0.739447 -0.183445,-1.416822 -0.5625,-2.03125 -0.375456,-0.614417 -0.885046,-1.087414 -1.53125,-1.4375 C 65.263646,29.177607 64.542979,29.000008 63.78125,29 L 62,29 z m 0.875,0.8125 0.90625,0 c 0.613715,8e-6 1.17486,0.158874 1.6875,0.4375 0.51263,0.278641 0.919106,0.666862 1.21875,1.15625 0.299633,0.485828 0.468744,1.004337 0.46875,1.59375 -6e-6,0.585848 -0.169117,1.139179 -0.46875,1.625 -0.299644,0.485824 -0.70612,0.846367 -1.21875,1.125 -0.51264,0.275062 -1.073785,0.437501 -1.6875,0.4375 l -0.90625,0 0,-6.375 z m 13.5,0.1875 0,1.28125 -0.375,0 0,0.84375 0.375,0 0,4.875 0.65625,0 0,-4.875 0.96875,0 0.21875,-0.84375 -1.1875,0 0,-1.28125 -0.65625,0 z M 69.5,30.25 c -0.139739,7e-6 -0.24477,0.04927 -0.34375,0.15625 -0.09607,0.10699 -0.156251,0.252466 -0.15625,0.40625 -10e-7,0.150451 0.06018,0.271364 0.15625,0.375 0.09607,0.103651 0.2011,0.156255 0.34375,0.15625 0.136826,5e-6 0.24768,-0.0526 0.34375,-0.15625 0.09898,-0.103636 0.156248,-0.224549 0.15625,-0.375 -2e-6,-0.153784 -0.05727,-0.29926 -0.15625,-0.40625 C 69.747679,30.299274 69.636826,30.250007 69.5,30.25 z m 10,0 c -0.139057,7e-6 -0.24525,0.04927 -0.34375,0.15625 -0.0956,0.10699 -0.156251,0.252466 -0.15625,0.40625 -10e-7,0.150451 0.06065,0.271364 0.15625,0.375 0.0956,0.103651 0.201797,0.156255 0.34375,0.15625 0.136158,5e-6 0.24815,-0.0526 0.34375,-0.15625 0.0985,-0.103636 0.156248,-0.224549 0.15625,-0.375 -2e-6,-0.153784 -0.05775,-0.29926 -0.15625,-0.40625 C 79.748148,30.299274 79.636158,30.250007 79.5,30.25 z m -10.34375,1.65625 0,5.09375 0.6875,0 0,-5.09375 -0.6875,0 z m 10,0 0,5.09375 0.6875,0 0,-5.09375 -0.6875,0 z M 73.125,32 c -0.392923,5e-6 -0.76728,0.11365 -1.09375,0.34375 -0.326472,0.23011 -0.565097,0.522745 -0.75,0.90625 C 71.099236,33.630316 71,34.055772 71,34.5 c 0,0.447429 0.09923,0.866492 0.28125,1.25 0.184903,0.380315 0.423528,0.679342 0.75,0.90625 C 72.35772,36.88316 72.732077,37 73.125,37 73.913729,37 74.534846,36.544713 75,35.65625 L 74.40625,35.3125 c -0.04335,0.0831 -0.07064,0.14595 -0.09375,0.1875 -0.02312,0.04155 -0.06958,0.134948 -0.15625,0.25 -0.08379,0.111858 -0.19747,0.18608 -0.28125,0.25 -0.08379,0.06392 -0.173826,0.12997 -0.3125,0.1875 -0.138681,0.05752 -0.284379,0.09375 -0.4375,0.09375 -0.387146,10e-7 -0.73945,-0.186092 -1.03125,-0.53125 -0.288914,-0.345158 -0.437502,-0.754632 -0.4375,-1.25 -2e-6,-0.495363 0.151475,-0.914427 0.4375,-1.25 0.288912,-0.335567 0.638327,-0.499994 1.03125,-0.5 0.147343,1e-5 0.276236,0.01136 0.40625,0.0625 0.130008,0.04794 0.22871,0.12039 0.3125,0.1875 0.08667,0.06392 0.1691,0.147734 0.25,0.25 0.08378,0.102272 0.15283,0.18928 0.1875,0.25 0.03756,0.05753 0.08166,0.10121 0.125,0.1875 L 75,33.34375 c -0.04334,-0.0767 -0.07642,-0.15553 -0.09375,-0.1875 -0.01734,-0.03196 -0.04989,-0.07564 -0.125,-0.1875 -0.07223,-0.111852 -0.15809,-0.21733 -0.21875,-0.28125 -0.06068,-0.06391 -0.137327,-0.15092 -0.25,-0.25 -0.10979,-0.09907 -0.233967,-0.16441 -0.34375,-0.21875 -0.106901,-0.05752 -0.221878,-0.1147 -0.375,-0.15625 C 73.440624,32.01777 73.286788,32.000005 73.125,32 z M 83.5,32 c -0.453435,5e-6 -0.863972,0.120042 -1.25,0.34375 -0.382966,0.220523 -0.682599,0.519549 -0.90625,0.90625 -0.223653,0.383512 -0.343751,0.796184 -0.34375,1.25 -10e-7,0.453821 0.120097,0.866492 0.34375,1.25 0.223651,0.38351 0.523284,0.682538 0.90625,0.90625 C 82.636028,36.876768 83.046565,37 83.5,37 83.950364,37 84.367029,36.876768 84.75,36.65625 85.132961,36.432538 85.432593,36.13351 85.65625,35.75 85.879897,35.366492 85.999994,34.953821 86,34.5 85.999994,34.046184 85.879897,33.633512 85.65625,33.25 85.432593,32.863299 85.132961,32.564273 84.75,32.34375 84.367029,32.120042 83.950364,32.000005 83.5,32 z m 5.90625,0 c -0.247032,5e-6 -0.51522,0.111858 -0.78125,0.3125 -0.266035,0.200652 -0.475729,0.440436 -0.65625,0.71875 0,-0.242714 -0.01542,-0.424449 -0.03125,-0.53125 -0.01267,-0.106792 -0.0399,-0.259502 -0.09375,-0.4375 l -0.84375,0 c 0.06334,0.110037 0.118242,0.31756 0.15625,0.625 0.04117,0.30421 0.0625,0.594562 0.0625,0.84375 l 0,3.46875 0.75,0 0,-2.46875 c -10e-7,-0.200646 0.07623,-0.437192 0.21875,-0.71875 0.142516,-0.284785 0.30322,-0.533168 0.53125,-0.75 0.228026,-0.22006 0.450388,-0.343744 0.65625,-0.34375 0.164684,6e-6 0.320316,0.0441 0.4375,0.125 0.117178,0.07767 0.18982,0.179818 0.25,0.3125 0.06018,0.129454 0.09967,0.270331 0.125,0.40625 C 90.21599,33.698426 90.25,33.851135 90.25,34 l 0,3 0.75,0 0,-3 c -1e-5,-0.265369 -0.03041,-0.516986 -0.09375,-0.75 -0.06334,-0.236241 -0.15457,-0.468544 -0.28125,-0.65625 -0.126685,-0.187697 -0.290977,-0.330699 -0.5,-0.4375 C 89.915971,32.046221 89.672281,32.000005 89.40625,32 z m 4.46875,0 c -0.188131,1e-5 -0.355067,0.0302 -0.53125,0.09375 -0.176186,0.06038 -0.327012,0.11442 -0.4375,0.1875 -0.107503,0.07309 -0.230275,0.191755 -0.34375,0.3125 -0.110489,0.120754 -0.17993,0.19916 -0.21875,0.25 -0.03584,0.05085 -0.07125,0.13296 -0.125,0.21875 l 0.59375,0.375 c 0,-0.0032 0.0044,-0.02436 0.03125,-0.0625 0.02688,-0.03813 0.04756,-0.07469 0.0625,-0.09375 0.01493,-0.02224 0.02667,-0.04926 0.0625,-0.09375 0.03583,-0.04766 0.09514,-0.09957 0.125,-0.125 0.03284,-0.02859 0.04895,-0.05244 0.09375,-0.09375 0.04778,-0.04129 0.10846,-0.06832 0.15625,-0.09375 0.04778,-0.02542 0.09951,-0.06832 0.15625,-0.09375 0.05674,-0.0254 0.12179,-0.04979 0.1875,-0.0625 0.06569,-0.01266 0.11583,4e-6 0.1875,0 0.289657,4e-6 0.551311,0.111788 0.78125,0.34375 0.232919,0.23197 0.36444,0.5403 0.40625,0.9375 -0.155285,0 -0.27945,-0.0032 -0.375,0 -0.09556,0 -0.224096,0.02165 -0.40625,0.03125 -0.182159,0.0095 -0.343333,0.01219 -0.46875,0.03125 -0.122436,0.01589 -0.264303,0.05562 -0.4375,0.09375 -0.170213,0.03814 -0.318054,0.07416 -0.4375,0.125 -0.116463,0.05084 -0.246595,0.10489 -0.375,0.1875 -0.128406,0.07944 -0.20361,0.17639 -0.28125,0.28125 -0.07764,0.101685 -0.16798,0.232008 -0.21875,0.375 C 92.01173,35.264817 92,35.422161 92,35.59375 c 0,0.165237 0.03403,0.337943 0.09375,0.5 0.06271,0.158882 0.161802,0.297686 0.28125,0.4375 0.122432,0.139816 0.262703,0.25796 0.46875,0.34375 0.206046,0.08579 0.455964,0.125 0.71875,0.125 0.555428,0 1.065401,-0.254291 1.53125,-0.75 -0.01494,0.200191 0.02347,0.414752 0.125,0.65625 l 0.78125,0 c -0.05674,-0.117572 -0.11744,-0.283922 -0.15625,-0.5 C 95.80492,36.186995 95.812496,35.966079 95.8125,35.75 l 0,-1.59375 C 95.806523,33.822604 95.735485,33.526457 95.625,33.25 95.514508,32.970375 95.366666,32.740451 95.1875,32.5625 95.011311,32.381381 94.820696,32.25476 94.59375,32.15625 94.369783,32.05774 94.116878,32.000005 93.875,32 z m 5.1875,0 c -0.427905,0.157967 -0.793222,0.425658 -1.125,0.8125 -10e-7,-0.254669 -0.04439,-0.486636 -0.125,-0.71875 l -0.8125,0 c 0.05582,0.112835 0.1159,0.318751 0.15625,0.625 0.0434,0.306258 0.0625,0.570724 0.0625,0.8125 l 0,3.46875 0.71875,0 0,-2.53125 c 0,-0.0677 -0.0062,-0.11336 0,-0.1875 0.0093,-0.07414 0.0315,-0.189996 0.0625,-0.3125 0.0341,-0.125722 0.07228,-0.234139 0.125,-0.34375 0.05271,-0.109603 0.144573,-0.224468 0.25,-0.34375 0.105423,-0.119273 0.235464,-0.22867 0.375,-0.3125 C 98.889531,32.88171 99.064193,32.8048 99.28125,32.75 99.4983,32.69197 99.733332,32.6875 100,32.6875 L 99.0625,32 z m 1.75,0 1.875,4.59375 L 101.71875,39 102.5,39 l 2.8125,-7 -0.78125,0 -1.46875,3.625 -1.5,-3.625 -0.75,0 z M 83.5,32.71875 c 0.493256,5e-6 0.931982,0.1829 1.28125,0.53125 0.349261,0.345161 0.531245,0.76103 0.53125,1.25 -5e-6,0.492172 -0.181989,0.901648 -0.53125,1.25 -0.349268,0.345159 -0.787994,0.531251 -1.28125,0.53125 -0.493263,10e-7 -0.903802,-0.186091 -1.25,-0.53125 -0.346202,-0.345157 -0.500002,-0.754632 -0.5,-1.25 -2e-6,-0.48897 0.153798,-0.904839 0.5,-1.25 0.346198,-0.34835 0.756737,-0.531245 1.25,-0.53125 z m 11.59375,1.90625 0,0.65625 c -0.155285,0.273278 -0.36958,0.487311 -0.65625,0.6875 -0.286676,0.200191 -0.582355,0.312501 -0.875,0.3125 -0.283689,0 -0.512914,-0.07258 -0.65625,-0.21875 -0.143345,-0.146169 -0.187502,-0.303513 -0.1875,-0.46875 -2e-6,-0.158878 0.02645,-0.288677 0.125,-0.40625 0.09854,-0.11757 0.225689,-0.21452 0.375,-0.28125 0.149307,-0.06673 0.338534,-0.11494 0.5625,-0.15625 0.22396,-0.04129 0.427909,-0.07786 0.625,-0.09375 0.200072,-0.01589 0.436657,-0.02805 0.6875,-0.03125 z"
         id="path3852"
         style="font-size:10px;font-style:normal;font-variant:normal;font-weight:bold;font-stretch:normal;opacity:0.8;fill:#ffffff;fill-opacity:1;stroke:none;font-family:Sawasdee;-inkscape-font-specification:Aller Bold" />
      <path
         d="m 33.84375,29 c -0.517431,7e-6 -1.02515,0.101843 -1.5,0.3125 -0.471582,0.210673 -0.874893,0.485626 -1.21875,0.84375 -0.340586,0.358136 -0.60946,0.786194 -0.8125,1.28125 C 30.109459,31.932568 30,32.455787 30,33 c 0,0.54422 0.109459,1.067441 0.3125,1.5625 0.20304,0.491553 0.471914,0.926633 0.8125,1.28125 0.343857,0.35462 0.747168,0.633086 1.21875,0.84375 C 32.8186,36.898162 33.326319,37 33.84375,37 35.120937,37 36.164905,36.405496 37,35.21875 l -0.625,-0.4375 c -0.06878,0.101824 -0.14671,0.19347 -0.21875,0.28125 -0.06878,0.08778 -0.180014,0.224025 -0.34375,0.375 -0.160474,0.150977 -0.326439,0.269663 -0.5,0.375 -0.173572,0.105333 -0.390991,0.20049 -0.65625,0.28125 -0.261992,0.08076 -0.527593,0.125001 -0.8125,0.125 -0.415911,10e-7 -0.83887,-0.08147 -1.21875,-0.25 -0.37661,-0.16853 -0.69694,-0.403102 -0.96875,-0.6875 -0.26854,-0.287907 -0.464533,-0.638008 -0.625,-1.03125 -0.157199,-0.393239 -0.250001,-0.786884 -0.25,-1.21875 -1e-6,-0.43537 0.09281,-0.856754 0.25,-1.25 0.160467,-0.396747 0.353186,-0.746845 0.625,-1.03125 0.271811,-0.28439 0.623389,-0.518962 1,-0.6875 0.376605,-0.168529 0.771589,-0.249992 1.1875,-0.25 0.288183,8e-6 0.547232,0.04074 0.8125,0.125 0.268533,0.08427 0.489228,0.179438 0.65625,0.28125 0.167012,0.09832 0.329701,0.241236 0.5,0.40625 0.17356,0.165027 0.28807,0.27353 0.34375,0.34375 0.05567,0.07023 0.13032,0.16188 0.21875,0.28125 L 37,30.78125 C 36.94432,30.696991 36.89941,30.63273 36.84375,30.5625 36.78807,30.488773 36.677112,30.376406 36.5625,30.25 36.447873,30.120097 36.336638,30.008083 36.21875,29.90625 36.100848,29.800925 35.958086,29.678374 35.78125,29.5625 35.604402,29.446642 35.436661,29.3585 35.25,29.28125 35.063329,29.200503 34.839358,29.14642 34.59375,29.09375 34.34813,29.0411 34.105734,29.000007 33.84375,29 z M 52,29.84375 52,32.8125 c -0.204684,-0.231618 -0.451109,-0.416543 -0.75,-0.5625 -0.29565,-0.14595 -0.592352,-0.218745 -0.875,-0.21875 -0.441847,5e-6 -0.851631,0.115311 -1.21875,0.34375 -0.367124,0.228453 -0.635822,0.525509 -0.84375,0.90625 -0.204679,0.377575 -0.3125,0.808973 -0.3125,1.25 0,0.444203 0.107821,0.838006 0.3125,1.21875 0.207928,0.377571 0.476626,0.680977 0.84375,0.90625 C 49.523369,36.881526 49.933153,37 50.375,37 c 0.285897,0 0.582599,-0.0728 0.875,-0.21875 0.295642,-0.149126 0.542068,-0.327706 0.75,-0.5625 -6e-6,0.212583 0.03728,0.442712 0.125,0.71875 l 0.875,0 c -0.06174,-0.107878 -0.11403,-0.295501 -0.15625,-0.59375 -0.04224,-0.301422 -0.06251,-0.577706 -0.0625,-0.8125 l 0,-5.6875 -0.78125,0 z M 39.875,32 c -0.188132,1e-5 -0.355067,0.0302 -0.53125,0.09375 -0.176185,0.06038 -0.327013,0.11442 -0.4375,0.1875 -0.107504,0.07309 -0.230275,0.191755 -0.34375,0.3125 -0.110489,0.120754 -0.17993,0.19916 -0.21875,0.25 -0.03584,0.05085 -0.07125,0.13296 -0.125,0.21875 l 0.59375,0.375 c 0,-0.0032 0.0044,-0.02436 0.03125,-0.0625 0.02687,-0.03813 0.04756,-0.07469 0.0625,-0.09375 0.01493,-0.02224 0.02667,-0.04926 0.0625,-0.09375 0.03583,-0.04766 0.09514,-0.09957 0.125,-0.125 0.03284,-0.02859 0.04895,-0.05244 0.09375,-0.09375 0.04778,-0.04129 0.10847,-0.06832 0.15625,-0.09375 0.04778,-0.02542 0.09951,-0.06832 0.15625,-0.09375 0.05674,-0.02541 0.1218,-0.04979 0.1875,-0.0625 0.06569,-0.01266 0.11583,4e-6 0.1875,0 0.289656,4e-6 0.551311,0.111788 0.78125,0.34375 0.232921,0.23197 0.36444,0.540301 0.40625,0.9375 -0.155286,0 -0.27945,-0.0032 -0.375,0 -0.09556,0 -0.224095,0.02165 -0.40625,0.03125 -0.182159,0.0095 -0.343333,0.01219 -0.46875,0.03125 -0.122436,0.01589 -0.264303,0.05562 -0.4375,0.09375 -0.170214,0.03814 -0.318054,0.07416 -0.4375,0.125 -0.116462,0.05084 -0.246595,0.10489 -0.375,0.1875 -0.128406,0.07944 -0.20361,0.176392 -0.28125,0.28125 -0.07764,0.101686 -0.16798,0.232009 -0.21875,0.375 C 38.01173,35.264816 38,35.422161 38,35.59375 c 0,0.165237 0.03402,0.337944 0.09375,0.5 0.06271,0.158882 0.161802,0.297686 0.28125,0.4375 0.122432,0.139816 0.262702,0.25795 0.46875,0.34375 0.206045,0.08579 0.455964,0.125 0.71875,0.125 0.555428,0 1.065402,-0.254291 1.53125,-0.75 -0.01494,0.200191 0.02347,0.414752 0.125,0.65625 l 0.78125,0 c -0.05674,-0.117571 -0.11744,-0.283923 -0.15625,-0.5 C 41.80492,36.186995 41.812495,35.966078 41.8125,35.75 l 0,-1.59375 C 41.806523,33.822604 41.735485,33.526457 41.625,33.25 41.514507,32.970374 41.366668,32.74045 41.1875,32.5625 41.011311,32.381381 40.820698,32.25476 40.59375,32.15625 40.369784,32.057742 40.116879,32.000005 39.875,32 z m 5.53125,0 c -0.247033,5e-6 -0.515218,0.111858 -0.78125,0.3125 -0.266034,0.200652 -0.47573,0.440436 -0.65625,0.71875 0,-0.242714 -0.01542,-0.424449 -0.03125,-0.53125 -0.01266,-0.106792 -0.03991,-0.259502 -0.09375,-0.4375 l -0.84375,0 c 0.06334,0.110037 0.118237,0.31756 0.15625,0.625 0.04117,0.30421 0.0625,0.594562 0.0625,0.84375 l 0,3.46875 0.75,0 0,-2.46875 c -2e-6,-0.200646 0.07623,-0.437192 0.21875,-0.71875 0.142516,-0.284785 0.30322,-0.533168 0.53125,-0.75 0.228026,-0.22006 0.45039,-0.343744 0.65625,-0.34375 0.164684,6e-6 0.320316,0.0441 0.4375,0.125 0.117178,0.07767 0.18982,0.179818 0.25,0.3125 0.06016,0.129454 0.09966,0.270331 0.125,0.40625 C 46.216,33.698426 46.25,33.851135 46.25,34 l 0,3 0.75,0 0,-3 c -1e-5,-0.265369 -0.03041,-0.516986 -0.09375,-0.75 -0.06334,-0.236241 -0.154573,-0.468544 -0.28125,-0.65625 -0.126686,-0.187697 -0.290978,-0.330699 -0.5,-0.4375 C 45.915971,32.046221 45.672279,32.000005 45.40625,32 z m 8.375,0 1.90625,4.59375 -1,2.40625 0.8125,0 2.8125,-7 -0.8125,0 -1.4375,3.625 -1.5,-3.625 -0.78125,0 z M 50.375,32.75 c 0.435345,4e-6 0.834609,0.185409 1.15625,0.53125 0.324882,0.342671 0.468745,0.758207 0.46875,1.25 -5e-6,0.49497 -0.143868,0.90733 -0.46875,1.25 -0.321641,0.339498 -0.720905,0.500001 -1.15625,0.5 -0.435349,10e-7 -0.796866,-0.157327 -1.125,-0.5 -0.324887,-0.34267 -0.500001,-0.758204 -0.5,-1.25 -10e-7,-0.491793 0.175113,-0.907329 0.5,-1.25 0.328134,-0.345841 0.689651,-0.531246 1.125,-0.53125 z m -9.28125,1.875 0,0.65625 c -0.155285,0.273276 -0.36958,0.487311 -0.65625,0.6875 -0.286677,0.200191 -0.582356,0.3125 -0.875,0.3125 -0.283689,10e-7 -0.512914,-0.07258 -0.65625,-0.21875 -0.143346,-0.146169 -0.187501,-0.303514 -0.1875,-0.46875 -10e-7,-0.158878 0.02645,-0.288677 0.125,-0.40625 0.09854,-0.11757 0.225689,-0.21452 0.375,-0.28125 0.149308,-0.06673 0.338534,-0.11494 0.5625,-0.15625 0.223961,-0.0413 0.427908,-0.07786 0.625,-0.09375 0.200071,-0.01589 0.436656,-0.02805 0.6875,-0.03125 z"
         id="path3768"
         style="font-size:10px;font-style:normal;font-variant:normal;font-weight:bold;font-stretch:normal;opacity:0.8;fill:#ffffff;fill-opacity:1;stroke:none;font-family:Sawasdee;-inkscape-font-specification:Aller Bold" />
      <rect
         height="1"
         id="rect2983"
         style="opacity:0.1;fill:#ffffff;fill-opacity:1;stroke:none"
         width="94"
         x="20"
         y="45" />
      <rect
         height="1"
         id="rect2979"
         style="opacity:0.1;fill:#000000;fill-opacity:1;stroke:none"
         width="94"
         x="20"
         y="44" />
      <path
         d="m 89.440151,87.752183 0,-4.616413 -4.467484,0 c -1.721656,1.1e-5 -3.003464,0.403519 -3.845429,1.210526 -0.841979,0.807027 -1.262966,2.044908 -1.262959,3.713649 -7e-6,1.518292 0.427263,2.721975 1.281809,3.611065 0.854532,0.88909 2.010673,1.33363 3.468427,1.33363 1.445166,0 2.60759,-0.48558 3.487276,-1.45674 0.892225,-0.97115 1.338345,-2.236389 1.33836,-3.795717 m 3.468427,-6.77074 0,11.318547 3.091422,0 0,2.9 -6.559849,0 0,-2.9545 c -0.766587,1.0122 -1.652543,1.75766 -2.65787,2.2364 C 85.776928,94.96063 84.601937,95.2 83.257304,95.2 c -2.224324,0 -3.989952,-0.64288 -5.29689,-1.92864 -1.306946,-1.28575 -1.960417,-3.02289 -1.960415,-5.211415 -2e-6,-2.256906 0.74772,-4.007722 2.243167,-5.252454 1.495439,-1.244709 3.606653,-1.867069 6.333648,-1.867083 l 4.863337,0 0,-1.49777 c -1.5e-5,-1.655053 -0.464985,-2.933969 -1.39491,-3.836752 -0.917387,-0.916425 -2.211762,-1.374646 -3.88313,-1.374667 -1.382352,2.1e-5 -2.481943,0.341977 -3.298775,1.025871 -0.816845,0.683932 -1.325798,1.696121 -1.526862,3.036574 l -1.790763,0 0,-4.411241 c 1.206404,-0.560787 2.375112,-0.977974 3.506126,-1.25156 1.143568,-0.287222 2.255726,-0.430843 3.336476,-0.430866 2.777242,2.3e-5 4.888456,0.752327 6.333647,2.256913 1.45773,1.49095 2.186599,3.665792 2.186618,6.524533"
         id="path4067"
         sodipodi:nodetypes="cccssssccccccccsssssccccssccccscc"
         style="font-size:40.27619171px;font-style:normal;font-variant:normal;font-weight:normal;font-stretch:normal;opacity:0.4;fill:#000000;fill-opacity:1;stroke:none;font-family:Serif;-inkscape-font-specification:Aller" />
      <path
         d="m 89.440151,88.552193 0,-4.616413 -4.467484,0 c -1.721656,1.1e-5 -3.003464,0.403519 -3.845429,1.210526 -0.841979,0.807027 -1.262966,2.044908 -1.262959,3.713649 -7e-6,1.518295 0.427263,2.721975 1.281809,3.611065 0.854532,0.88909 2.010673,1.33363 3.468427,1.33363 1.445166,0 2.60759,-0.48558 3.487276,-1.45674 0.892225,-0.97115 1.338345,-2.23639 1.33836,-3.795717 m 3.468427,-6.77074 0,11.318547 3.091422,0 0,2.8 -6.559849,0 0,-2.8545 c -0.766587,1.0122 -1.652543,1.75766 -2.65787,2.2364 -1.005353,0.47874 -2.180344,0.71811 -3.524977,0.71811 -2.224324,0 -3.989952,-0.64288 -5.29689,-1.92864 -1.306946,-1.28575 -1.960417,-3.02289 -1.960415,-5.211415 -2e-6,-2.256906 0.74772,-4.007722 2.243167,-5.252454 1.495439,-1.244709 3.606653,-1.867069 6.333648,-1.867083 l 4.863337,0 0,-1.49777 c -1.5e-5,-1.655053 -0.464985,-2.933969 -1.39491,-3.836752 -0.917387,-0.916425 -2.211762,-1.374646 -3.88313,-1.374667 -1.382352,2.1e-5 -2.481943,0.341977 -3.298775,1.025871 -0.816845,0.683932 -1.325798,1.696121 -1.526862,3.036574 l -1.790763,0 0,-4.411241 c 1.206404,-0.560787 2.375112,-0.977974 3.506126,-1.25156 1.143568,-0.287222 2.255726,-0.430843 3.336476,-0.430866 2.777242,2.3e-5 4.888456,0.752327 6.333647,2.256913 1.45773,1.49095 2.186599,3.665792 2.186618,6.524533"
         id="path4061"
         sodipodi:nodetypes="cccssssccccccccsssssccccssccccscc"
         style="font-size:40.27619171px;font-style:normal;font-variant:normal;font-weight:normal;font-stretch:normal;fill:url(#linearGradient3794);fill-opacity:1;stroke:none;font-family:Serif;-inkscape-font-specification:Aller" />
      <path
         d="m 47.774981,81.20001 12.69358,0 -6.34679,-17.840597 -6.34679,17.840597 M 37.999998,95.2 l 0,-2.89999 3.034414,0 12.322965,-35.100008 3.891462,0 12.346129,35.100008 3.405029,0 0,2.89999 L 60,95.2 l 0,-2.89999 4.26737,0 -2.895434,-8.1 -14.546658,0 -2.895432,8.1 3.970154,0 0,2.89999 -9.900002,0"
         id="path4065"
         sodipodi:nodetypes="ccccccccccccccccccccc"
         style="font-size:49.72715759px;font-style:normal;font-variant:normal;font-weight:normal;font-stretch:normal;opacity:0.4;fill:#000000;fill-opacity:1;stroke:none;font-family:Serif;-inkscape-font-specification:Aller" />
      <path
         d="m 47.774981,82.1 12.69358,0 L 54.121771,64.159403 47.774981,82.1 m -9.774983,13.89999 0,-2.89999 3.034414,0 12.322965,-35.100008 3.891462,0 L 69.594968,93.1 l 3.405029,0 0,2.89999 -12.899997,0 0,-2.89999 4.16737,0 -2.895434,-8.1 -14.546658,0 -2.895432,8.1 3.970154,0 0,2.89999 -9.900002,0"
         id="path4058"
         sodipodi:nodetypes="ccccccccccccccccccccc"
         style="font-size:49.72715759px;font-style:normal;font-variant:normal;font-weight:normal;font-stretch:normal;fill:url(#linearGradient3790);fill-opacity:1;stroke:none;font-family:Serif;-inkscape-font-specification:Aller" />
      <path
         d="m 24.3,14 -2.8,7 88,0 -2.2,-7 -83,0 z"
         id="rect3804"
         sodipodi:nodetypes="ccccc"
         style="fill:url(#linearGradient3787);fill-opacity:1;stroke:none" />
      <rect
         height="0.5"
         id="rect3843"
         style="opacity:0.3;fill:url(#radialGradient3784);fill-opacity:1;stroke:none"
         width="87"
         x="22"
         y="19.500002" />
      <rect
         height="0.5"
         id="rect3847"
         style="opacity:0.3;fill:url(#radialGradient3781);fill-opacity:1;stroke:none"
         width="85"
         x="23"
         y="17.500002" />
      <rect
         height="0.5"
         id="rect3959"
         style="opacity:0.3;fill:url(#radialGradient3778);fill-opacity:1;stroke:none"
         width="83"
         x="24"
         y="15.500002" />
      <path
         d="M 19.40625,21 C 19.177049,21.043733 18.995888,21.2667 19,21.5 l 0,97 c 0,1.3654 0.72194,2.72194 1.75,3.75 1.02806,1.02806 2.384602,1.75 3.75,1.75 l 85,0 c 3.03835,0 5.5,-2.46165 5.5,-5.5 l 0,-92 c 0,-3.038351 -2.46165,-5.5 -5.5,-5.5 l -90,0 c -0.03116,-0.0029 -0.06259,-0.0029 -0.09375,0 z"
         id="path4318"
         sodipodi:nodetypes="cccsccccccc"
         style="font-size:medium;font-style:normal;font-variant:normal;font-weight:normal;font-stretch:normal;text-indent:0;text-align:start;text-decoration:none;line-height:normal;letter-spacing:normal;word-spacing:normal;text-transform:none;direction:ltr;block-progression:tb;writing-mode:lr-tb;text-anchor:start;opacity:0.07999998;color:#000000;fill:url(#radialGradient3775);fill-opacity:1;fill-rule:nonzero;stroke:none;stroke-width:1;marker:none;visibility:visible;display:inline;overflow:visible;enable-background:accumulate;font-family:Aller;-inkscape-font-specification:Aller" />
      <path
         d="M 19.40625,21 C 19.177049,21.043733 18.995888,21.2667 19,21.5 l 0,97 c 0,1.3654 0.72194,2.72194 1.75,3.75 1.02806,1.02806 2.384602,1.75 3.75,1.75 l 85,0 c 3.03835,0 5.5,-2.46165 5.5,-5.5 l 0,-92 c 0,-3.038351 -2.46165,-5.5 -5.5,-5.5 l -90,0 c -0.03116,-0.0029 -0.06259,-0.0029 -0.09375,0 z"
         id="path4328"
         sodipodi:nodetypes="cccsccccccc"
         style="font-size:medium;font-style:normal;font-variant:normal;font-weight:normal;font-stretch:normal;text-indent:0;text-align:start;text-decoration:none;line-height:normal;letter-spacing:normal;word-spacing:normal;text-transform:none;direction:ltr;block-progression:tb;writing-mode:lr-tb;text-anchor:start;opacity:0.2;color:#000000;fill:url(#radialGradient3772);fill-opacity:1;fill-rule:nonzero;stroke:none;stroke-width:1;marker:none;visibility:visible;display:inline;overflow:visible;enable-background:accumulate;font-family:Aller;-inkscape-font-specification:Aller" />
      <rect
         height="1"
         id="rect2965"
         style="opacity:0.55;fill:url(#radialGradient3769);fill-opacity:1;stroke:none"
         width="92"
         x="22"
         y="22" />
    </g>
    <text
       id="text3759"
       style="font-size:10px;font-style:normal;font-variant:normal;font-weight:normal;font-stretch:normal;fill:#000000;fill-opacity:1;stroke:none;font-family:Sawasdee;-inkscape-font-specification:Sawasdee"
       x="35.532116"
       xml:space="preserve"
       y="44.313557"><tspan
         id="tspan3761"
         sodipodi:role="line"
         x="35.532116"
         y="44.313557" /></text>
    <g
       id="g4158" />
    <g
       id="g4002" />
    <g
       id="g4084" />
    <text
       id="text4111"
       style="font-size:9px;font-style:normal;font-variant:normal;font-weight:normal;font-stretch:normal;fill:#000000;fill-opacity:1;stroke:none;font-family:Sawasdee;-inkscape-font-specification:Sawasdee"
       x="152.55829"
       xml:space="preserve"
       y="74.89592"><tspan
         id="tspan4113"
         sodipodi:role="line"
         x="152.55829"
         y="74.89592" /></text>
    <g
       id="g4224">
      <g
         id="text4171"
         style="font-size:3px;font-style:normal;font-variant:normal;font-weight:normal;font-stretch:normal;opacity:0.9;fill:#ffffff;fill-opacity:1;stroke:#ffffff;stroke-width:0.1493789;stroke-miterlimit:4;stroke-opacity:1;stroke-dasharray:none;font-family:Sawasdee;-inkscape-font-specification:Sawasdee"
         transform="matrix(0.77490503,0,0,0.57832611,31.942385,26.237356)" />
    </g>
    <g
       id="g4382" />
  </g>
</svg>
