<?xml version="1.0" encoding="UTF-8" standalone="no"?>
<!-- Created with Inkscape (http://www.inkscape.org/) -->

<svg
   xmlns:svg="http://www.w3.org/2000/svg"
   xmlns="http://www.w3.org/2000/svg"
   xmlns:xlink="http://www.w3.org/1999/xlink"
   version="1.0"
   width="128"
   height="128"
   id="svg11300"
   style="display:inline;enable-background:new">
  <title
     id="title2897">Candy Icon Theme</title>
  <defs
     id="defs3">
    <linearGradient
       id="linearGradient3682">
      <stop
         id="stop3684"
         style="stop-color:#ffffff;stop-opacity:1"
         offset="0" />
      <stop
         id="stop3686"
         style="stop-color:#ffffff;stop-opacity:0"
         offset="1" />
    </linearGradient>
    <linearGradient
       id="linearGradient3672">
      <stop
         id="stop3674"
         style="stop-color:#000000;stop-opacity:0"
         offset="0" />
      <stop
         id="stop3676"
         style="stop-color:#000000;stop-opacity:1"
         offset="1" />
    </linearGradient>
    <linearGradient
       id="linearGradient3649">
      <stop
         id="stop3651"
         style="stop-color:#643314;stop-opacity:1"
         offset="0" />
      <stop
         id="stop3653"
         style="stop-color:#320a0a;stop-opacity:1"
         offset="1" />
    </linearGradient>
    <linearGradient
       id="linearGradient3633">
      <stop
         id="stop3635"
         style="stop-color:#a14c13;stop-opacity:1"
         offset="0" />
      <stop
         id="stop3637"
         style="stop-color:#6b0c0c;stop-opacity:1"
         offset="1" />
    </linearGradient>
    <linearGradient
       id="linearGradient3621">
      <stop
         id="stop3623"
         style="stop-color:#aaaaaa;stop-opacity:1"
         offset="0" />
      <stop
         id="stop3625"
         style="stop-color:#bebebe;stop-opacity:1"
         offset="1" />
    </linearGradient>
    <linearGradient
       id="linearGradient3605">
      <stop
         id="stop3607"
         style="stop-color:#dcdcdc;stop-opacity:1"
         offset="0" />
      <stop
         id="stop3609"
         style="stop-color:#f0f0f0;stop-opacity:1"
         offset="1" />
    </linearGradient>
    <linearGradient
       id="linearGradient6269">
      <stop
         id="stop6271"
         style="stop-color:#faca96;stop-opacity:1"
         offset="0" />
      <stop
         id="stop6273"
         style="stop-color:#e48620;stop-opacity:1"
         offset="1" />
    </linearGradient>
    <linearGradient
       id="linearGradient6532">
      <stop
         id="stop6534"
         style="stop-color:#edae67;stop-opacity:1"
         offset="0" />
      <stop
         id="stop6536"
         style="stop-color:#b87124;stop-opacity:1"
         offset="1" />
    </linearGradient>
    <linearGradient
       id="linearGradient6374">
      <stop
         id="stop6376"
         style="stop-color:#000000;stop-opacity:0.58823532"
         offset="0" />
      <stop
         id="stop6378"
         style="stop-color:#000000;stop-opacity:0"
         offset="1" />
    </linearGradient>
    <filter
       x="-0.071593218"
       y="-0.84479994"
       width="1.1431865"
       height="2.6896"
       color-interpolation-filters="sRGB"
       id="filter4229">
      <feGaussianBlur
         id="feGaussianBlur4231"
         stdDeviation="3.5199998" />
    </filter>
    <radialGradient
       cx="158"
       cy="8.8589735"
       r="23"
       fx="158"
       fy="8.8589735"
       id="radialGradient4134"
       xlink:href="#linearGradient3682"
       gradientUnits="userSpaceOnUse"
       gradientTransform="matrix(3.4574538,1.0553838e-5,-1.0323043e-5,3.1167439,-479.27785,2.3102574)" />
    <radialGradient
       cx="158"
       cy="8.8589735"
       r="23"
       fx="158"
       fy="8.8589735"
       id="radialGradient4137"
       xlink:href="#linearGradient3672"
       gradientUnits="userSpaceOnUse"
       gradientTransform="matrix(3.4574538,-1.8683552e-7,2.449505e-7,4.1739129,-479.27794,-7.0534774)" />
    <radialGradient
       cx="146"
       cy="96.5"
       r="10"
       fx="146"
       fy="96.5"
       id="radialGradient4166"
       xlink:href="#linearGradient3682"
       gradientUnits="userSpaceOnUse"
       gradientTransform="matrix(1,0,0,0.1875,-119,55.406247)" />
    <linearGradient
       x1="146"
       y1="108"
       x2="146"
       y2="98.0625"
       id="linearGradient4169"
       xlink:href="#linearGradient6374"
       gradientUnits="userSpaceOnUse"
       gradientTransform="translate(-119,-23.000003)" />
    <radialGradient
       cx="158"
       cy="10.047721"
       r="20.984791"
       fx="158"
       fy="10.047721"
       id="radialGradient4172"
       xlink:href="#linearGradient3682"
       gradientUnits="userSpaceOnUse"
       gradientTransform="matrix(0.4765356,1.0067346e-7,-8.6626512e-8,0.3574823,-48.292637,69.846281)" />
    <radialGradient
       cx="158"
       cy="21.256493"
       r="20.984791"
       fx="158"
       fy="21.256493"
       id="radialGradient4175"
       xlink:href="#linearGradient3672"
       gradientUnits="userSpaceOnUse"
       gradientTransform="matrix(0.5241892,1.1745236e-7,-9.5289146e-8,0.4170628,-55.821882,68.320656)" />
    <linearGradient
       x1="156.9913"
       y1="15"
       x2="157.01903"
       y2="44"
       id="linearGradient4178"
       xlink:href="#linearGradient6269"
       gradientUnits="userSpaceOnUse"
       gradientTransform="matrix(0.4882229,0,0,0.4648174,-50.128193,65.287875)" />
    <linearGradient
       x1="155.25179"
       y1="63.52317"
       x2="155.16963"
       y2="82.476837"
       id="linearGradient4180"
       xlink:href="#linearGradient6532"
       gradientUnits="userSpaceOnUse"
       gradientTransform="matrix(0.7608739,0,0,0.7386435,-87.131028,25.079022)" />
    <linearGradient
       x1="146"
       y1="109"
       x2="146"
       y2="92"
       id="linearGradient4183"
       xlink:href="#linearGradient3605"
       gradientUnits="userSpaceOnUse"
       gradientTransform="translate(-119,-23.000003)" />
    <linearGradient
       x1="142"
       y1="109"
       x2="142"
       y2="92"
       id="linearGradient4185"
       xlink:href="#linearGradient3621"
       gradientUnits="userSpaceOnUse"
       gradientTransform="translate(-119,-23.000003)" />
    <radialGradient
       cx="146"
       cy="96.5"
       r="10"
       fx="146"
       fy="96.5"
       id="radialGradient4188"
       xlink:href="#linearGradient3682"
       gradientUnits="userSpaceOnUse"
       gradientTransform="matrix(1,0,0,0.1875,-119,31.406247)" />
    <linearGradient
       x1="146"
       y1="108"
       x2="146"
       y2="98.0625"
       id="linearGradient4191"
       xlink:href="#linearGradient6374"
       gradientUnits="userSpaceOnUse"
       gradientTransform="translate(-119,-47.000003)" />
    <radialGradient
       cx="158"
       cy="10.047721"
       r="20.984791"
       fx="158"
       fy="10.047721"
       id="radialGradient4194"
       xlink:href="#linearGradient3682"
       gradientUnits="userSpaceOnUse"
       gradientTransform="matrix(0.4765356,1.0067346e-7,-8.6626512e-8,0.3574823,-48.292637,45.846281)" />
    <radialGradient
       cx="158"
       cy="21.256493"
       r="20.984791"
       fx="158"
       fy="21.256493"
       id="radialGradient4197"
       xlink:href="#linearGradient3672"
       gradientUnits="userSpaceOnUse"
       gradientTransform="matrix(0.5241892,1.1745236e-7,-9.5289146e-8,0.4170628,-55.821882,44.320656)" />
    <linearGradient
       x1="156.9913"
       y1="15"
       x2="157.01903"
       y2="44"
       id="linearGradient4200"
       xlink:href="#linearGradient6269"
       gradientUnits="userSpaceOnUse"
       gradientTransform="matrix(0.4882229,0,0,0.4648174,-50.128193,41.287875)" />
    <linearGradient
       x1="155.25179"
       y1="63.52317"
       x2="155.16963"
       y2="82.476837"
       id="linearGradient4202"
       xlink:href="#linearGradient6532"
       gradientUnits="userSpaceOnUse"
       gradientTransform="matrix(0.7608739,0,0,0.7386435,-87.131028,1.079022)" />
    <linearGradient
       x1="145"
       y1="109"
       x2="145"
       y2="92"
       id="linearGradient4205"
       xlink:href="#linearGradient3605"
       gradientUnits="userSpaceOnUse"
       gradientTransform="translate(-119,-47.000003)" />
    <linearGradient
       x1="142"
       y1="109"
       x2="142"
       y2="92"
       id="linearGradient4207"
       xlink:href="#linearGradient3621"
       gradientUnits="userSpaceOnUse"
       gradientTransform="translate(-119,-47.000003)" />
    <linearGradient
       x1="155"
       y1="16"
       x2="155"
       y2="10"
       id="linearGradient4210"
       xlink:href="#linearGradient3605"
       gradientUnits="userSpaceOnUse"
       gradientTransform="matrix(2.5999999,0,0,2.4000006,-343.80002,0.2999907)" />
    <linearGradient
       x1="157"
       y1="16"
       x2="157"
       y2="10"
       id="linearGradient4212"
       xlink:href="#linearGradient3621"
       gradientUnits="userSpaceOnUse"
       gradientTransform="matrix(2.5999999,0,0,2.4000006,-343.80002,0.2999907)" />
    <linearGradient
       x1="154.53848"
       y1="10.291668"
       x2="154.53848"
       y2="15.708334"
       id="linearGradient4216"
       xlink:href="#linearGradient3605"
       gradientUnits="userSpaceOnUse"
       gradientTransform="matrix(2.5999999,0,0,-2.4000006,-343.80002,145.70001)" />
    <linearGradient
       x1="157.23079"
       y1="10.291668"
       x2="157.23079"
       y2="15.708334"
       id="linearGradient4219"
       xlink:href="#linearGradient3621"
       gradientUnits="userSpaceOnUse"
       gradientTransform="matrix(2.5999999,0,0,-2.4000006,-343.80002,145.70001)" />
    <linearGradient
       x1="153"
       y1="16"
       x2="153"
       y2="43"
       id="linearGradient4222"
       xlink:href="#linearGradient3633"
       gradientUnits="userSpaceOnUse"
       gradientTransform="matrix(2.5911102,0,0,2.5624998,-342.39545,-4.0937563)" />
    <linearGradient
       x1="155"
       y1="16"
       x2="155"
       y2="43"
       id="linearGradient4224"
       xlink:href="#linearGradient3649"
       gradientUnits="userSpaceOnUse"
       gradientTransform="matrix(2.5911102,0,0,2.5624998,-342.39545,-4.0937563)" />
    <linearGradient
       id="linearGradient3665">
      <stop
         id="stop3667"
         style="stop-color:#78bedc;stop-opacity:1"
         offset="0" />
      <stop
         id="stop3669"
         style="stop-color:#49637f;stop-opacity:1"
         offset="1" />
    </linearGradient>
    <linearGradient
       id="linearGradient3657">
      <stop
         id="stop3659-8"
         style="stop-color:#a1c6ef;stop-opacity:1"
         offset="0" />
      <stop
         id="stop3661"
         style="stop-color:#517fb3;stop-opacity:1"
         offset="1" />
    </linearGradient>
    <linearGradient
       id="linearGradient3703">
      <stop
         id="stop3705-5"
         style="stop-color:#ffffff;stop-opacity:1"
         offset="0" />
      <stop
         id="stop3707"
         style="stop-color:#ffffff;stop-opacity:0"
         offset="1" />
    </linearGradient>
    <linearGradient
       id="linearGradient3693">
      <stop
         id="stop3695"
         style="stop-color:#000000;stop-opacity:0"
         offset="0" />
      <stop
         id="stop3697"
         style="stop-color:#000000;stop-opacity:1"
         offset="1" />
    </linearGradient>
    <linearGradient
       x1="170.13911"
       y1="37.395508"
       x2="170.13911"
       y2="39.217434"
       id="linearGradient3357"
       xlink:href="#linearGradient3703"
       gradientUnits="userSpaceOnUse"
       gradientTransform="matrix(7.2738117,0,0,10.338321,-1146.4171,-327.42829)" />
    <radialGradient
       cx="171.35582"
       cy="36.923706"
       r="3.6441751"
       fx="171.35582"
       fy="36.923706"
       id="radialGradient3360"
       xlink:href="#linearGradient3693"
       gradientUnits="userSpaceOnUse"
       gradientTransform="matrix(9.4671555,0,0,9.4671633,-1528.7522,-273.33193)" />
    <linearGradient
       x1="170.5"
       y1="35.566666"
       x2="170.5"
       y2="49.433331"
       id="linearGradient3363"
       xlink:href="#linearGradient3657"
       gradientUnits="userSpaceOnUse"
       gradientTransform="matrix(3.9999994,0,0,5.2307684,-588.4999,-127.81211)" />
    <linearGradient
       x1="171.63333"
       y1="35.566666"
       x2="171.63333"
       y2="49.433331"
       id="linearGradient3365"
       xlink:href="#linearGradient3665"
       gradientUnits="userSpaceOnUse"
       gradientTransform="matrix(3.9999994,0,0,5.2307684,-588.4999,-127.81211)" />
  </defs>
  <g
     transform="translate(-3,-4)"
     id="layer1"
     style="display:inline">
    <g
       id="layer6"
       style="display:none" />
    <rect
       width="117.99999"
       height="10"
       rx="5"
       ry="5"
       x="8"
       y="111"
       id="rect4159"
       style="opacity:0.8;fill:#000000;fill-opacity:1;stroke:none;filter:url(#filter4229)" />
    <g
       id="g4090">
      <g
         transform="translate(0,1)"
         id="text3714"
         style="font-size:2px;font-style:normal;font-variant:normal;font-weight:normal;font-stretch:normal;fill:#323232;fill-opacity:1;stroke:none;font-family:Arial;-inkscape-font-specification:Arial" />
      <g
         transform="translate(0,1)"
         id="text3718"
         style="font-size:2px;font-style:normal;font-variant:normal;font-weight:normal;font-stretch:normal;fill:#323232;fill-opacity:1;stroke:none;font-family:Arial;-inkscape-font-specification:Arial" />
      <g
         transform="translate(0,1)"
         id="text3722"
         style="font-size:2px;font-style:normal;font-variant:normal;font-weight:normal;font-stretch:normal;fill:#323232;fill-opacity:1;stroke:none;font-family:Arial;-inkscape-font-specification:Arial" />
      <g
         transform="translate(0,1)"
         id="text3728"
         style="font-size:2px;font-style:normal;font-variant:normal;font-weight:normal;font-stretch:normal;fill:#323232;fill-opacity:1;stroke:none;font-family:Arial;-inkscape-font-specification:Arial" />
    </g>
    <g
       id="g4226">
      <rect
         width="116.6"
         height="82"
         x="8.6999998"
         y="30.5"
         id="rect2999"
         style="fill:url(#linearGradient4222);fill-opacity:1;stroke:url(#linearGradient4224);stroke-width:0.99999982;stroke-linecap:round;stroke-linejoin:miter;stroke-miterlimit:4;stroke-opacity:1;stroke-dasharray:none" />
      <path
         d="m 8.5000019,109 0,6.5 c 0,2.77 2.2300001,5 5.0000001,5 L 120.5,120.5 c 2.77,0 5,-2.23 5,-5 l 0,-6.5"
         id="path3808"
         style="fill:url(#linearGradient4216);fill-opacity:1;stroke:url(#linearGradient4219);stroke-width:0.99999994;stroke-linecap:butt;stroke-linejoin:miter;stroke-miterlimit:4;stroke-opacity:1;stroke-dasharray:none" />
      <path
         d="m 8.5000019,37 0,-6.5 c 0,-2.77 2.2300001,-5 5.0000001,-5 L 120.5,25.5 c 2.77,0 5,2.23 5,5 l 0,6.5"
         id="path3021"
         style="fill:url(#linearGradient4210);fill-opacity:1;stroke:url(#linearGradient4212);stroke-width:1;stroke-linecap:butt;stroke-linejoin:miter;stroke-miterlimit:4;stroke-opacity:1;stroke-dasharray:none" />
      <path
         d="m 19.5,45.499997 0,1 -2,0 0,14.5 19,0 0,-14.5 -10,0 0,-1 -7,0 z"
         id="path5536"
         style="fill:url(#linearGradient4205);fill-opacity:1;stroke:url(#linearGradient4207);stroke-width:1;stroke-linecap:square;stroke-linejoin:round;stroke-miterlimit:4;stroke-opacity:1;stroke-dasharray:none;display:inline;enable-background:new" />
      <rect
         width="21.000097"
         height="13.000097"
         rx="1"
         ry="1"
         x="16.499954"
         y="48.49995"
         id="rect5540"
         style="fill:url(#linearGradient4200);fill-opacity:1;stroke:url(#linearGradient4202);stroke-width:0.99990237;stroke-linecap:square;stroke-linejoin:round;stroke-miterlimit:4;stroke-opacity:1;stroke-dasharray:none;display:inline;enable-background:new" />
      <rect
         width="22"
         height="14"
         rx="1.5"
         ry="1.5"
         x="16"
         y="47.999996"
         id="rect5542"
         style="opacity:0.05;fill:url(#radialGradient4197);fill-opacity:1;stroke:none;display:inline;enable-background:new" />
      <rect
         width="20"
         height="12"
         rx="0.59523851"
         ry="0.55555612"
         x="17"
         y="48.999996"
         id="rect5544"
         style="opacity:0.15;fill:url(#radialGradient4194);fill-opacity:1;stroke:none;display:inline;enable-background:new" />
      <rect
         width="19.000177"
         height="11.000176"
         x="17.499908"
         y="49.499905"
         id="rect6628"
         style="opacity:0.07000002;fill:none;stroke:url(#linearGradient4191);stroke-width:0.99982345;stroke-linecap:square;stroke-linejoin:round;stroke-miterlimit:4;stroke-opacity:1;stroke-dasharray:none" />
      <path
         d="m 17,48.999997 0,1 20,0 0,-1 -20,0 z"
         id="rect6513"
         style="opacity:0.4;fill:url(#radialGradient4188);fill-opacity:1;stroke:none;display:inline;enable-background:new" />
      <path
         d="m 19.5,69.499997 0,1 -2,0 0,14.5 19,0 0,-14.5 -10,0 0,-1 -7,0 z"
         id="path4122"
         style="fill:url(#linearGradient4183);fill-opacity:1;stroke:url(#linearGradient4185);stroke-width:1;stroke-linecap:square;stroke-linejoin:round;stroke-miterlimit:4;stroke-opacity:1;stroke-dasharray:none;display:inline;enable-background:new" />
      <rect
         width="21.000097"
         height="13.000097"
         rx="1"
         ry="1"
         x="16.499954"
         y="72.499954"
         id="rect4124"
         style="fill:url(#linearGradient4178);fill-opacity:1;stroke:url(#linearGradient4180);stroke-width:0.99990237;stroke-linecap:square;stroke-linejoin:round;stroke-miterlimit:4;stroke-opacity:1;stroke-dasharray:none;display:inline;enable-background:new" />
      <rect
         width="22"
         height="14"
         rx="1.5"
         ry="1.5"
         x="16"
         y="72"
         id="rect4126"
         style="opacity:0.05;fill:url(#radialGradient4175);fill-opacity:1;stroke:none;display:inline;enable-background:new" />
      <rect
         width="20"
         height="12"
         rx="0.59523851"
         ry="0.55555612"
         x="17"
         y="73"
         id="rect4128"
         style="opacity:0.15;fill:url(#radialGradient4172);fill-opacity:1;stroke:none;display:inline;enable-background:new" />
      <rect
         width="19.000177"
         height="11.000176"
         x="17.499908"
         y="73.499908"
         id="rect4130"
         style="opacity:0.07000002;fill:none;stroke:url(#linearGradient4169);stroke-width:0.99982345;stroke-linecap:square;stroke-linejoin:round;stroke-miterlimit:4;stroke-opacity:1;stroke-dasharray:none" />
      <path
         d="m 17,72.999997 0,1 20,0 0,-1 -20,0 z"
         id="path4132"
         style="opacity:0.4;fill:url(#radialGradient4166);fill-opacity:1;stroke:none;display:inline;enable-background:new" />
      <path
         d="M 13.15625,30.09375 12.03125,33 l 0.40625,0 0.28125,-0.75 1.3125,0 0.25,0.75 0.40625,0 -1.09375,-2.90625 -0.4375,0 z m 0.21875,0.375 0.53125,1.46875 -1.0625,0 0.53125,-1.46875 z M 16.15625,30.75 c -0.160157,0 -0.290366,0.02995 -0.40625,0.09375 -0.114585,0.0625 -0.20573,0.182294 -0.28125,0.3125 l 0,-0.34375 -0.375,0 0,3.03125 0.375,0 0,-1.15625 c 0.07552,0.130209 0.166665,0.21745 0.28125,0.28125 0.115884,0.0625 0.246093,0.09375 0.40625,0.09375 0.265623,0 0.490884,-0.101562 0.65625,-0.3125 0.16666,-0.210937 0.249998,-0.499999 0.25,-0.84375 -2e-6,-0.343748 -0.08334,-0.632811 -0.25,-0.84375 -0.165366,-0.210935 -0.390627,-0.312498 -0.65625,-0.3125 z m 2.53125,0 c -0.160158,0 -0.290366,0.02995 -0.40625,0.09375 -0.114584,0.0625 -0.20573,0.182294 -0.28125,0.3125 l 0,-0.34375 -0.375,0 0,3.03125 0.375,0 0,-1.15625 c 0.07552,0.130209 0.166666,0.21745 0.28125,0.28125 0.115884,0.0625 0.246092,0.09375 0.40625,0.09375 0.265623,0 0.490884,-0.101562 0.65625,-0.3125 0.16666,-0.210937 0.249998,-0.499999 0.25,-0.84375 -2e-6,-0.343748 -0.08334,-0.632811 -0.25,-0.84375 C 19.178384,30.851565 18.953123,30.750002 18.6875,30.75 z m 2.1875,0 c -0.26823,2e-6 -0.479167,0.07552 -0.625,0.1875 -0.14583,0.111982 -0.21875,0.263023 -0.21875,0.46875 0,0.169272 0.05729,0.3086 0.15625,0.40625 0.09896,0.09636 0.277343,0.17188 0.5,0.21875 l 0.125,0.03125 c 0.222655,0.04818 0.34114,0.07292 0.40625,0.125 0.06641,0.05208 0.124999,0.15235 0.125,0.25 -1e-6,0.105469 -0.06511,0.16016 -0.15625,0.21875 -0.09115,0.05729 -0.20573,0.09375 -0.375,0.09375 -0.126302,0 -0.277344,0.0026 -0.40625,-0.03125 -0.128907,-0.03516 -0.242188,-0.08724 -0.375,-0.15625 l 0,0.34375 c 0.140625,0.04557 0.279948,0.10286 0.40625,0.125 0.127604,0.02344 0.226562,0.03125 0.34375,0.03125 0.281249,0 0.527343,-0.06901 0.6875,-0.1875 0.161458,-0.118489 0.218748,-0.265624 0.21875,-0.46875 -2e-6,-0.178384 -0.04818,-0.33854 -0.15625,-0.4375 C 21.424478,31.86849 21.255207,31.80469 21,31.75 l -0.125,-0.03125 c -0.192709,-0.04297 -0.3112,-0.07812 -0.375,-0.125 -0.0638,-0.04818 -0.09375,-0.13541 -0.09375,-0.21875 0,-0.109373 0.03646,-0.16406 0.125,-0.21875 0.08984,-0.05468 0.227864,-0.09375 0.40625,-0.09375 0.117187,0 0.234374,0.0052 0.34375,0.03125 0.109374,0.02605 0.210936,0.07292 0.3125,0.125 l 0,-0.34375 C 21.49479,30.83594 21.367186,30.80078 21.25,30.78125 21.132811,30.76175 21.007811,30.750002 20.875,30.75 z m -4.8125,0.3125 c 0.190103,2e-6 0.360676,0.06771 0.46875,0.21875 0.109373,0.149742 0.156248,0.360679 0.15625,0.625 -2e-6,0.264324 -0.04688,0.473959 -0.15625,0.625 -0.108074,0.149739 -0.278647,0.218751 -0.46875,0.21875 -0.190105,10e-7 -0.328126,-0.06901 -0.4375,-0.21875 -0.10807,-0.151041 -0.15625,-0.360676 -0.15625,-0.625 0,-0.264321 0.04818,-0.475258 0.15625,-0.625 0.109374,-0.151042 0.247395,-0.218748 0.4375,-0.21875 z m 2.5625,0 c 0.190103,2e-6 0.329425,0.06771 0.4375,0.21875 0.109372,0.149742 0.156248,0.360679 0.15625,0.625 -2e-6,0.264324 -0.04688,0.473959 -0.15625,0.625 -0.108075,0.149739 -0.247397,0.218751 -0.4375,0.21875 -0.190105,10e-7 -0.359376,-0.06901 -0.46875,-0.21875 -0.108069,-0.151041 -0.156251,-0.360676 -0.15625,-0.625 -1e-6,-0.264321 0.04818,-0.475258 0.15625,-0.625 0.109374,-0.151042 0.278645,-0.218748 0.46875,-0.21875 z"
         id="path3126"
         style="font-size:4px;font-style:normal;font-variant:normal;font-weight:normal;font-stretch:normal;opacity:0.7;fill:#000000;fill-opacity:1;stroke:none;font-family:DejaVu Sans;-inkscape-font-specification:DejaVu Sans" />
      <path
         d="m 26.40625,29.96875 0,3.03125 0.34375,0 0,-3.03125 -0.34375,0 z M 24,30.09375 24,33 l 0.40625,0 0,-1.15625 0.5,0 c 0.326821,1e-6 0.552082,-0.102863 0.71875,-0.25 0.167964,-0.147134 0.249997,-0.337238 0.25,-0.625 -3e-6,-0.285154 -0.08203,-0.509112 -0.25,-0.65625 -0.166668,-0.148437 -0.391929,-0.218747 -0.71875,-0.21875 l -0.90625,0 z m 0.40625,0.3125 0.5,0 c 0.183592,3e-6 0.305988,0.0612 0.40625,0.15625 0.100261,0.09505 0.156248,0.231773 0.15625,0.40625 -2e-6,0.175783 -0.05599,0.3112 -0.15625,0.40625 -0.100262,0.09506 -0.222658,0.125002 -0.40625,0.125 l -0.5,0 0,-1.09375 z m 3.875,0.34375 c -0.117189,0 -0.251303,0.03646 -0.375,0.0625 -0.123699,0.02474 -0.24349,0.04297 -0.375,0.09375 l 0,0.34375 c 0.109375,-0.0599 0.22526,-0.1263 0.34375,-0.15625 0.118489,-0.02994 0.249999,-0.03125 0.375,-0.03125 0.196614,2e-6 0.329425,0.03386 0.4375,0.125 0.109372,0.08985 0.187498,0.240887 0.1875,0.40625 l 0,0.03125 -0.53125,0 c -0.326824,1e-6 -0.553386,0.0625 -0.71875,0.1875 -0.164064,0.125001 -0.25,0.316407 -0.25,0.5625 0,0.210938 0.05599,0.373698 0.1875,0.5 0.132812,0.125 0.307291,0.1875 0.53125,0.1875 0.177082,0 0.346353,-0.03125 0.46875,-0.09375 0.122395,-0.0638 0.23047,-0.179688 0.3125,-0.3125 l 0,0.34375 0.34375,0 0,-1.25 C 29.218748,31.416668 29.15625,31.164065 29,31 28.843748,30.835937 28.597655,30.750002 28.28125,30.75 z m 2.625,0 c -0.341147,2e-6 -0.615886,0.108075 -0.8125,0.3125 -0.195308,0.204429 -0.281251,0.486981 -0.28125,0.84375 -1e-6,0.351563 0.08724,0.636719 0.28125,0.84375 0.19401,0.207031 0.451822,0.3125 0.78125,0.3125 0.121093,0 0.236978,-0.0078 0.34375,-0.03125 0.108072,-0.02344 0.212238,-0.07813 0.3125,-0.125 l 0,-0.3125 c -0.101564,0.05599 -0.209637,0.09635 -0.3125,0.125 C 31.117186,32.7461 31.041665,32.75 30.9375,32.75 c -0.233074,0 -0.433594,-0.07161 -0.5625,-0.21875 -0.128909,-0.148437 -0.187501,-0.358072 -0.1875,-0.625 -1e-6,-0.266926 0.05859,-0.477863 0.1875,-0.625 0.128906,-0.148436 0.329426,-0.218748 0.5625,-0.21875 0.104165,0 0.179686,0.0026 0.28125,0.03125 0.102863,0.02735 0.210936,0.06901 0.3125,0.125 l 0,-0.3125 c -0.09896,-0.04557 -0.207033,-0.10286 -0.3125,-0.125 C 31.113279,30.75781 31.016926,30.75 30.90625,30.75 z m 2.1875,0 c -0.328126,2e-6 -0.58724,0.101565 -0.78125,0.3125 -0.192712,0.209637 -0.312501,0.516929 -0.3125,0.875 -1e-6,0.346355 0.109375,0.609376 0.3125,0.8125 0.204426,0.203125 0.494791,0.3125 0.84375,0.3125 0.139322,0 0.270831,-0.03385 0.40625,-0.0625 0.135414,-0.02865 0.246092,-0.07031 0.375,-0.125 l 0,-0.3125 c -0.127606,0.06771 -0.244793,0.09115 -0.375,0.125 -0.128908,0.03385 -0.268231,0.0625 -0.40625,0.0625 -0.238283,0 -0.428386,-0.05859 -0.5625,-0.1875 C 32.460934,32.432292 32.39062,32.247397 32.375,32 l 1.65625,0 0,-0.1875 c -2e-6,-0.325519 -0.07813,-0.592446 -0.25,-0.78125 -0.170575,-0.190106 -0.393231,-0.281248 -0.6875,-0.28125 z m 2.21875,0 c -0.26823,2e-6 -0.479167,0.07552 -0.625,0.1875 -0.14583,0.111982 -0.21875,0.263023 -0.21875,0.46875 0,0.169272 0.05729,0.3086 0.15625,0.40625 0.09896,0.09636 0.277343,0.17188 0.5,0.21875 l 0.125,0.03125 c 0.222655,0.04818 0.34114,0.07292 0.40625,0.125 0.06641,0.05208 0.124999,0.15235 0.125,0.25 -10e-7,0.105469 -0.06511,0.16016 -0.15625,0.21875 -0.09115,0.05729 -0.20573,0.09375 -0.375,0.09375 -0.126302,0 -0.277344,0.0026 -0.40625,-0.03125 -0.128907,-0.03516 -0.242188,-0.08724 -0.375,-0.15625 l 0,0.34375 c 0.140625,0.04557 0.279948,0.10286 0.40625,0.125 0.127604,0.02344 0.226562,0.03125 0.34375,0.03125 0.281249,0 0.527343,-0.06901 0.6875,-0.1875 0.161458,-0.118489 0.218748,-0.265624 0.21875,-0.46875 -2e-6,-0.178384 -0.04818,-0.33854 -0.15625,-0.4375 C 35.861978,31.86849 35.692707,31.80469 35.4375,31.75 l -0.125,-0.03125 c -0.192709,-0.04297 -0.3112,-0.07812 -0.375,-0.125 -0.0638,-0.04818 -0.09375,-0.13541 -0.09375,-0.21875 0,-0.109373 0.03646,-0.16406 0.125,-0.21875 0.08984,-0.05468 0.227864,-0.09375 0.40625,-0.09375 0.117187,0 0.234374,0.0052 0.34375,0.03125 0.109374,0.02605 0.210936,0.07292 0.3125,0.125 l 0,-0.34375 C 35.93229,30.83594 35.804686,30.80078 35.6875,30.78125 35.570311,30.76175 35.445311,30.750002 35.3125,30.75 z m -2.21875,0.3125 c 0.177082,2e-6 0.299477,0.07032 0.40625,0.1875 0.108075,0.11719 0.1849,0.272137 0.1875,0.46875 l -1.28125,0 c 0.01823,-0.205728 0.06771,-0.355467 0.1875,-0.46875 0.121092,-0.113282 0.299479,-0.187498 0.5,-0.1875 z M 28.5,31.90625 l 0.375,0 0,0.0625 c -2e-6,0.234376 -0.06641,0.420573 -0.1875,0.5625 -0.119793,0.140627 -0.300783,0.218751 -0.5,0.21875 -0.144532,10e-7 -0.25912,-0.01953 -0.34375,-0.09375 -0.08333,-0.07552 -0.125001,-0.184896 -0.125,-0.3125 -1e-6,-0.160156 0.07552,-0.27734 0.1875,-0.34375 0.111978,-0.06641 0.303385,-0.09375 0.59375,-0.09375 z"
         id="path3134"
         style="font-size:4px;font-style:normal;font-variant:normal;font-weight:normal;font-stretch:normal;opacity:0.7;fill:#000000;fill-opacity:1;stroke:none;font-family:DejaVu Sans;-inkscape-font-specification:DejaVu Sans" />
      <path
         d="m 39.03125,30.03125 c -0.319011,3e-6 -0.567709,0.07032 -0.75,0.21875 C 38.100256,30.39844 38,30.61719 38,30.875 c 0,0.222658 0.05599,0.375001 0.1875,0.5 0.13151,0.125001 0.361979,0.22266 0.65625,0.28125 l 0.21875,0.0625 c 0.200519,0.04037 0.35026,0.07552 0.4375,0.15625 0.08854,0.08073 0.124998,0.200522 0.125,0.34375 -2e-6,0.164063 -0.03386,0.28646 -0.15625,0.375 C 39.346353,32.68229 39.162759,32.75 38.9375,32.75 38.789061,32.75 38.622395,32.70182 38.46875,32.65625 38.315103,32.61068 38.160155,32.55859 38,32.46875 l 0,0.40625 c 0.166666,0.0612 0.345052,0.09375 0.5,0.125 0.15625,0.03124 0.299478,0.0625 0.4375,0.0625 0.365884,0 0.623696,-0.07292 0.8125,-0.21875 0.190106,-0.145833 0.312498,-0.373697 0.3125,-0.65625 -2e-6,-0.236978 -0.07813,-0.421874 -0.21875,-0.5625 -0.139325,-0.141925 -0.361981,-0.22526 -0.65625,-0.28125 l -0.25,-0.0625 C 38.721353,31.24089 38.57812,31.19011 38.5,31.125 c -0.07682,-0.0664 -0.09375,-0.152341 -0.09375,-0.28125 0,-0.153643 0.04036,-0.29166 0.15625,-0.375 0.117187,-0.08333 0.285155,-0.124997 0.5,-0.125 0.123697,0 0.242186,0.02735 0.375,0.0625 0.132811,0.03516 0.287758,0.08464 0.4375,0.15625 l 0,-0.375 c -0.148439,-0.04948 -0.295575,-0.10026 -0.4375,-0.125 -0.141929,-0.02474 -0.269532,-0.03125 -0.40625,-0.03125 z m 4.6875,0.71875 c -0.26823,2e-6 -0.479167,0.07552 -0.625,0.1875 -0.14583,0.111982 -0.21875,0.263023 -0.21875,0.46875 0,0.169272 0.05729,0.3086 0.15625,0.40625 0.09896,0.09636 0.246093,0.17188 0.46875,0.21875 l 0.125,0.03125 c 0.222655,0.04818 0.37239,0.07292 0.4375,0.125 0.06641,0.05208 0.09375,0.15235 0.09375,0.25 -10e-7,0.105469 -0.03386,0.16016 -0.125,0.21875 C 43.9401,32.71354 43.79427,32.75 43.625,32.75 c -0.126302,0 -0.246094,0.0026 -0.375,-0.03125 -0.128907,-0.03516 -0.273438,-0.08724 -0.40625,-0.15625 l 0,0.34375 c 0.140625,0.04557 0.279948,0.10286 0.40625,0.125 0.127604,0.02344 0.257812,0.03125 0.375,0.03125 0.281249,0 0.496093,-0.06901 0.65625,-0.1875 0.161458,-0.118489 0.249998,-0.265624 0.25,-0.46875 -2e-6,-0.178384 -0.04818,-0.33854 -0.15625,-0.4375 C 44.268228,31.86849 44.067707,31.80469 43.8125,31.75 l -0.125,-0.03125 c -0.192709,-0.04297 -0.3112,-0.07812 -0.375,-0.125 -0.0638,-0.04818 -0.09375,-0.13541 -0.09375,-0.21875 0,-0.109373 0.03646,-0.16406 0.125,-0.21875 0.08984,-0.05468 0.227864,-0.09375 0.40625,-0.09375 0.117187,0 0.234374,0.0052 0.34375,0.03125 0.109374,0.02605 0.210936,0.07292 0.3125,0.125 l 0,-0.34375 C 44.30729,30.83594 44.210936,30.80078 44.09375,30.78125 43.976561,30.76175 43.851561,30.75 43.71875,30.75 z m -3.3125,0.0625 0.875,2.15625 -0.0625,0.15625 c -0.06641,0.174479 -0.13281,0.29688 -0.1875,0.34375 -0.05469,0.04687 -0.11979,0.0625 -0.21875,0.0625 l -0.21875,0 0,0.3125 0.28125,0 c 0.161458,-10e-7 0.27864,-0.04557 0.375,-0.125 0.09635,-0.07943 0.210936,-0.270834 0.3125,-0.53125 l 0.96875,-2.375 -0.40625,0 -0.65625,1.71875 -0.6875,-1.71875 -0.375,0 z"
         id="path3146"
         style="font-size:4px;font-style:normal;font-variant:normal;font-weight:normal;font-stretch:normal;opacity:0.7;fill:#000000;fill-opacity:1;stroke:none;font-family:DejaVu Sans;-inkscape-font-specification:DejaVu Sans" />
      <g
         transform="translate(1,2)"
         id="text3177"
         style="font-size:4px;font-style:normal;font-variant:normal;font-weight:normal;font-stretch:normal;opacity:0.7;fill:#000000;fill-opacity:1;stroke:none;font-family:DejaVu Sans;-inkscape-font-specification:DejaVu Sans">
        <path
           d="m 80,28.083984 2.466797,0 0,0.332032 -1.035156,0 0,2.583984 -0.396485,0 0,-2.583984 -1.035156,0 0,-0.332032"
           id="path3958" />
        <path
           d="m 82.1875,30.136719 0,-1.324219 0.359375,0 0,1.310547 c -10e-7,0.207032 0.04036,0.362631 0.121094,0.466797 0.08073,0.102865 0.201822,0.154297 0.363281,0.154297 0.194009,0 0.347004,-0.06185 0.458984,-0.185547 0.11328,-0.123698 0.16992,-0.292317 0.169922,-0.50586 l 0,-1.240234 0.359375,0 0,2.1875 -0.359375,0 0,-0.335938 c -0.08724,0.132813 -0.188803,0.231771 -0.304687,0.296875 -0.114585,0.0638 -0.248048,0.0957 -0.400391,0.0957 -0.251303,0 -0.442058,-0.07813 -0.572266,-0.234375 C 82.252604,30.666016 82.1875,30.437501 82.1875,30.136719 m 0.904297,-1.376953 0,0"
           id="path3960" />
        <path
           d="m 86.634766,29.816406 0,0.175781 -1.652344,0 c 0.01562,0.247397 0.08984,0.436199 0.222656,0.566407 0.134114,0.128906 0.320311,0.193359 0.558594,0.193359 0.138019,0 0.271483,-0.01693 0.40039,-0.05078 0.130207,-0.03385 0.259113,-0.08463 0.386719,-0.152344 l 0,0.339844 c -0.128908,0.05469 -0.261069,0.09635 -0.396484,0.125 -0.135418,0.02865 -0.272788,0.04297 -0.41211,0.04297 -0.348959,0 -0.625651,-0.101563 -0.830078,-0.304688 -0.203125,-0.203124 -0.304687,-0.477864 -0.304687,-0.824219 0,-0.358071 0.09635,-0.641925 0.289062,-0.851562 0.19401,-0.210935 0.455078,-0.316404 0.783203,-0.316406 0.29427,2e-6 0.526691,0.09505 0.697266,0.285156 0.171873,0.188804 0.25781,0.445965 0.257813,0.771484 m -0.359375,-0.105469 c -0.0026,-0.196613 -0.05795,-0.353513 -0.166016,-0.470703 -0.106772,-0.117185 -0.248699,-0.175779 -0.425781,-0.175781 -0.200522,2e-6 -0.361329,0.05664 -0.482422,0.169922 -0.119792,0.113283 -0.188803,0.272788 -0.207031,0.478516 l 1.28125,-0.002"
           id="path3962" />
        <path
           d="m 88.513672,28.083984 0.394531,0 0,2.712891 c -10e-7,0.351562 -0.06706,0.60677 -0.201172,0.765625 -0.132813,0.158853 -0.347005,0.23828 -0.642578,0.238281 l -0.150391,0 0,-0.332031 0.123047,0 c 0.174479,0 0.297526,-0.04883 0.369141,-0.146484 0.07161,-0.09766 0.107421,-0.272787 0.107422,-0.525391 l 0,-2.712891"
           id="path3964" />
        <path
           d="m 89.640625,30.136719 0,-1.324219 0.359375,0 0,1.310547 c -10e-7,0.207032 0.04036,0.362631 0.121094,0.466797 0.08073,0.102865 0.201822,0.154297 0.363281,0.154297 0.194009,0 0.347004,-0.06185 0.458984,-0.185547 0.11328,-0.123698 0.16992,-0.292317 0.169922,-0.50586 l 0,-1.240234 0.359375,0 0,2.1875 -0.359375,0 0,-0.335938 c -0.08724,0.132813 -0.188803,0.231771 -0.304687,0.296875 -0.114585,0.0638 -0.248048,0.0957 -0.400391,0.0957 -0.251303,0 -0.442058,-0.07813 -0.572266,-0.234375 -0.130208,-0.15625 -0.195312,-0.384765 -0.195312,-0.685547 m 0.904297,-1.376953 0,0"
           id="path3966" />
        <path
           d="m 94.035156,29.679687 0,1.320313 -0.359375,0 0,-1.308594 c -2e-6,-0.207029 -0.04037,-0.361977 -0.121094,-0.464844 -0.08073,-0.102862 -0.201824,-0.154294 -0.363281,-0.154296 -0.194011,2e-6 -0.347006,0.06185 -0.458984,0.185546 -0.11198,0.1237 -0.16797,0.29232 -0.167969,0.50586 l 0,1.236328 -0.361328,0 0,-2.1875 0.361328,0 0,0.339844 c 0.08594,-0.131509 0.186848,-0.229816 0.302734,-0.294922 0.117187,-0.0651 0.251952,-0.09765 0.404297,-0.09766 0.251301,2e-6 0.441405,0.07813 0.570313,0.234375 0.128904,0.154949 0.193357,0.383465 0.193359,0.685546"
           id="path3968" />
        <path
           d="m 96.419922,30.667969 1.376953,0 0,0.332031 -1.851563,0 0,-0.332031 c 0.14974,-0.154948 0.353515,-0.36263 0.611329,-0.623047 0.259113,-0.261718 0.421873,-0.430337 0.488281,-0.50586 0.1263,-0.141925 0.214191,-0.261717 0.263672,-0.359375 0.05078,-0.09896 0.07617,-0.195961 0.07617,-0.291015 -2e-6,-0.154946 -0.05469,-0.281248 -0.164063,-0.378906 -0.108074,-0.09765 -0.24935,-0.146482 -0.423828,-0.146485 -0.123699,3e-6 -0.254558,0.02149 -0.392578,0.06445 -0.136719,0.04297 -0.283204,0.108076 -0.439453,0.195313 l 0,-0.398438 c 0.158853,-0.0638 0.307291,-0.111976 0.445312,-0.144531 0.13802,-0.03255 0.264322,-0.04883 0.378906,-0.04883 0.302082,3e-6 0.542968,0.07552 0.722657,0.226562 0.179685,0.151045 0.269529,0.352867 0.269531,0.605469 -2e-6,0.119794 -0.02279,0.233726 -0.06836,0.341797 -0.04427,0.106773 -0.125653,0.233075 -0.244141,0.378906 -0.03255,0.03776 -0.136069,0.147137 -0.310547,0.328125 -0.17448,0.179689 -0.420574,0.431642 -0.738281,0.75586"
           id="path3970" />
        <path
           d="m 98.638672,30.939453 0,-0.359375 c 0.09896,0.04687 0.199218,0.08268 0.300781,0.107422 0.101562,0.02474 0.201171,0.03711 0.298828,0.03711 0.260416,1e-6 0.458983,-0.08724 0.595703,-0.261718 0.138019,-0.175781 0.216796,-0.442057 0.236326,-0.798829 -0.07552,0.111981 -0.171223,0.197918 -0.287107,0.257813 -0.115887,0.0599 -0.244142,0.08985 -0.384766,0.08984 -0.291667,1e-6 -0.522787,-0.08789 -0.693359,-0.263672 -0.169271,-0.177082 -0.253906,-0.418618 -0.253906,-0.72461 0,-0.299476 0.08854,-0.539711 0.265625,-0.720703 0.177083,-0.180986 0.412759,-0.271481 0.707031,-0.271484 0.337238,3e-6 0.594402,0.12956 0.771482,0.388672 0.17839,0.257815 0.26758,0.632814 0.26758,1.125 0,0.459636 -0.10938,0.826823 -0.32812,1.101562 -0.217454,0.273438 -0.510422,0.410157 -0.878911,0.410157 -0.09896,0 -0.199219,-0.0098 -0.300781,-0.0293 -0.101563,-0.01953 -0.207032,-0.04883 -0.316406,-0.08789 m 0.785156,-1.236328 c 0.177082,1e-6 0.317056,-0.06055 0.419922,-0.181641 0.104165,-0.121092 0.156248,-0.287107 0.15625,-0.498047 -2e-6,-0.209633 -0.05209,-0.374997 -0.15625,-0.496093 -0.102866,-0.122393 -0.24284,-0.183591 -0.419922,-0.183594 -0.177084,3e-6 -0.317709,0.0612 -0.421875,0.183594 -0.102865,0.121096 -0.154297,0.28646 -0.154297,0.496093 0,0.21094 0.05143,0.376955 0.154297,0.498047 0.104166,0.121095 0.244791,0.181642 0.421875,0.181641"
           id="path3972" />
        <path
           d="m 101.21484,30.503906 0.41211,0 0,0.335938 -0.32031,0.625 -0.25195,0 0.16015,-0.625 0,-0.335938"
           id="path3974" />
        <path
           d="m 103.78906,30.667969 0.64453,0 0,-2.22461 -0.70117,0.140625 0,-0.359375 0.69727,-0.140625 0.39453,0 0,2.583985 0.64453,0 0,0.332031 -1.67969,0 0,-0.332031"
           id="path3976" />
        <path
           d="m 106.27148,28.083984 1.54883,0 0,0.332032 -1.1875,0 0,0.714843 c 0.0573,-0.01953 0.11458,-0.03385 0.17188,-0.04297 0.0573,-0.01041 0.11458,-0.01562 0.17187,-0.01563 0.32552,2e-6 0.58333,0.08919 0.77344,0.267578 0.1901,0.178387 0.28515,0.419923 0.28516,0.724609 -1e-5,0.313803 -0.0977,0.557943 -0.29297,0.732422 -0.19532,0.173177 -0.47071,0.259766 -0.82617,0.259766 -0.1224,0 -0.2474,-0.01042 -0.375,-0.03125 -0.12631,-0.02083 -0.25717,-0.05208 -0.39258,-0.09375 l 0,-0.396485 c 0.11718,0.0638 0.23828,0.111329 0.36328,0.142578 0.125,0.03125 0.25716,0.04688 0.39648,0.04687 0.22526,1e-6 0.40365,-0.05924 0.53516,-0.177734 0.13151,-0.118489 0.19726,-0.279296 0.19727,-0.482422 -1e-5,-0.203124 -0.0658,-0.363931 -0.19727,-0.482422 -0.13151,-0.118488 -0.3099,-0.177733 -0.53516,-0.177734 -0.10547,10e-7 -0.21094,0.01172 -0.3164,0.03516 -0.10417,0.02344 -0.21094,0.0599 -0.32032,0.109375 l 0,-1.464844"
           id="path3978" />
        <path
           d="m 108.85547,30.503906 0.41211,0 0,0.496094 -0.41211,0 0,-0.496094 m 0,-1.572265 0.41211,0 0,0.496093 -0.41211,0 0,-0.496093"
           id="path3980" />
        <path
           d="m 111.36133,29.427734 c 0.1888,0.04037 0.33593,0.124351 0.4414,0.251953 0.10677,0.127606 0.16016,0.285158 0.16016,0.472657 0,0.287761 -0.099,0.510417 -0.29687,0.667968 -0.19792,0.157553 -0.47917,0.236329 -0.84375,0.236329 -0.1224,0 -0.2487,-0.01237 -0.37891,-0.03711 -0.12891,-0.02344 -0.26237,-0.05925 -0.40039,-0.107422 l 0,-0.380859 c 0.10937,0.0638 0.22916,0.11198 0.35937,0.144531 0.13021,0.03255 0.26628,0.04883 0.40821,0.04883 0.24739,1e-6 0.43554,-0.04883 0.56445,-0.146484 0.13021,-0.09766 0.19531,-0.239583 0.19531,-0.425781 0,-0.171874 -0.0606,-0.305989 -0.18164,-0.402344 -0.11979,-0.09765 -0.28711,-0.146483 -0.50195,-0.146484 l -0.33984,0 0,-0.324219 0.35546,0 c 0.19401,2e-6 0.34245,-0.03841 0.44532,-0.115235 0.10286,-0.07812 0.15429,-0.190102 0.15429,-0.335937 0,-0.149737 -0.0534,-0.26432 -0.16015,-0.34375 -0.10547,-0.08073 -0.25717,-0.121091 -0.45508,-0.121094 -0.10808,3e-6 -0.22396,0.01172 -0.34766,0.03516 -0.1237,0.02344 -0.25976,0.0599 -0.4082,0.109375 l 0,-0.351562 c 0.14974,-0.04166 0.28971,-0.07291 0.41992,-0.09375 0.13151,-0.02083 0.25521,-0.03125 0.3711,-0.03125 0.29947,3e-6 0.53645,0.06836 0.71093,0.205078 0.17448,0.135419 0.26172,0.319013 0.26172,0.550781 0,0.161461 -0.0462,0.298179 -0.13867,0.410157 -0.0924,0.110678 -0.22396,0.187501 -0.39453,0.230468"
           id="path3982" />
        <path
           d="m 113.55664,28.34375 c -0.20313,3e-6 -0.35612,0.100263 -0.45898,0.300781 -0.10157,0.199221 -0.15235,0.499351 -0.15235,0.900391 0,0.399741 0.0508,0.69987 0.15235,0.90039 0.10286,0.19922 0.25585,0.298829 0.45898,0.298829 0.20443,0 0.35742,-0.09961 0.45899,-0.298829 0.10286,-0.20052 0.15429,-0.500649 0.15429,-0.90039 0,-0.40104 -0.0514,-0.70117 -0.15429,-0.900391 -0.10157,-0.200518 -0.25456,-0.300778 -0.45899,-0.300781 m 0,-0.3125 c 0.32682,3e-6 0.57617,0.12956 0.74805,0.388672 0.17317,0.257815 0.25976,0.632814 0.25976,1.125 0,0.490886 -0.0866,0.865886 -0.25976,1.125 -0.17188,0.257812 -0.42123,0.386719 -0.74805,0.386719 -0.32682,0 -0.57682,-0.128907 -0.75,-0.386719 -0.17187,-0.259114 -0.25781,-0.634114 -0.25781,-1.125 0,-0.492186 0.0859,-0.867185 0.25781,-1.125 0.17318,-0.259112 0.42318,-0.388669 0.75,-0.388672"
           id="path3984" />
      </g>
      <path
         d="M 120.78033,28.718486 A 1.5,1.5 0 1 1 119.662,28.008774"
         transform="matrix(1.2865591,-0.87680231,0.83354227,1.3535221,-58.833311,96.229365)"
         id="path3181"
         style="opacity:0.7;fill:none;stroke:#000000;stroke-width:0.25439867;stroke-linecap:round;stroke-linejoin:round;stroke-miterlimit:4;stroke-opacity:1;stroke-dasharray:none" />
      <path
         d="m 119.5,29 0,2 0,0"
         id="path3955"
         style="opacity:0.7;fill:none;stroke:#000000;stroke-width:0.40000001;stroke-linecap:round;stroke-linejoin:miter;stroke-miterlimit:4;stroke-opacity:1;stroke-dasharray:none" />
      <rect
         width="12.599996"
         height="6.5999999"
         x="109.2"
         y="111.2"
         id="rect3986"
         style="opacity:0.6;fill:#b4b4b4;fill-opacity:1;stroke:#000000;stroke-width:0.40000001;stroke-linecap:round;stroke-linejoin:round;stroke-miterlimit:4;stroke-opacity:1;stroke-dasharray:none" />
      <rect
         width="0.40000001"
         height="7"
         x="115.3"
         y="111"
         id="rect3988"
         style="opacity:0.6;fill:#000000;fill-opacity:1;stroke:none" />
      <rect
         width="8.6000004"
         height="6.6000032"
         rx="1"
         ry="1"
         x="12.2"
         y="111.2"
         id="rect4032"
         style="opacity:0.6;fill:none;stroke:#000000;stroke-width:0.40000001;stroke-miterlimit:4;stroke-opacity:1;stroke-dasharray:none" />
      <rect
         width="9"
         height="0.40000001"
         x="12"
         y="112.6"
         id="rect4034"
         style="opacity:0.6;fill:#000000;fill-opacity:1;stroke:none" />
      <rect
         width="9"
         height="0.40000001"
         x="12"
         y="116"
         id="rect4036"
         style="opacity:0.6;fill:#000000;fill-opacity:1;stroke:none" />
      <rect
         width="8.1999998"
         height="3"
         x="12.4"
         y="113"
         id="rect4038"
         style="opacity:0.6;fill:#b4b4b4;fill-opacity:1;stroke:none" />
      <path
         d="m 13.5,25 107,0 c 3.047,0 5.5,2.35488 5.5,5.28 l 0,85.44 c 0,2.92512 -2.453,5.28 -5.5,5.28 l -107,0 C 10.453,121 8,118.64512 8,115.72 L 8,30.28 C 8,27.35488 10.453,25 13.5,25 z"
         id="path3077"
         style="font-size:medium;font-style:normal;font-variant:normal;font-weight:normal;font-stretch:normal;text-indent:0;text-align:start;text-decoration:none;line-height:normal;letter-spacing:normal;word-spacing:normal;text-transform:none;direction:ltr;block-progression:tb;writing-mode:lr-tb;text-anchor:start;opacity:0.07999998;color:#000000;fill:url(#radialGradient4137);fill-opacity:1;fill-rule:nonzero;stroke:none;stroke-width:1;marker:none;visibility:visible;display:inline;overflow:visible;enable-background:accumulate;font-family:Andale Mono;-inkscape-font-specification:Andale Mono" />
      <path
         d="m 13.5,25 107,0 c 3.047,0 5.5,2.35488 5.5,5.28 l 0,85.44 c 0,2.92512 -2.453,5.28 -5.5,5.28 l -107,0 C 10.453,121 8,118.64512 8,115.72 L 8,30.28 C 8,27.35488 10.453,25 13.5,25 z"
         id="path3820"
         style="font-size:medium;font-style:normal;font-variant:normal;font-weight:normal;font-stretch:normal;text-indent:0;text-align:start;text-decoration:none;line-height:normal;letter-spacing:normal;word-spacing:normal;text-transform:none;direction:ltr;block-progression:tb;writing-mode:lr-tb;text-anchor:start;opacity:0.2;color:#000000;fill:url(#radialGradient4134);fill-opacity:1;fill-rule:nonzero;stroke:none;stroke-width:1;marker:none;visibility:visible;display:inline;overflow:visible;enable-background:accumulate;font-family:Andale Mono;-inkscape-font-specification:Andale Mono" />
    </g>
    <g
       id="g4326" />
    <g
       id="g4380" />
    <g
       id="g4431" />
    <g
       id="g4473" />
    <g
       id="g4074" />
    <g
       id="g4104" />
    <g
       id="g4051">
      <path
         d="m 127.49999,94.49554 a 34.000001,33.999999 0 0 1 -68,0 34.000001,33.999999 0 1 1 68,0 z"
         id="path3126-3"
         style="fill:url(#linearGradient3363);fill-opacity:1;stroke:url(#linearGradient3365);stroke-width:1.00000012;stroke-linecap:round;stroke-linejoin:miter;stroke-miterlimit:4;stroke-opacity:1;stroke-dasharray:none" />
      <path
         d="m 93.4375,78 c -8.941333,0 -15.590866,2.449925 -20,4.9375 C 69.028366,85.425076 66.75,88.125 66.75,88.125 A 2.1876812,2.317845 0 1 0 70,91.15625 c 0,0 1.674035,-1.980047 5.53125,-4.15625 3.857214,-2.1762 9.712008,-4.3125 17.90625,-4.3125 8.14966,0 14.13438,2.128866 18.03125,4.3125 3.89685,2.183636 5.625,4.25 5.625,4.25 a 2.1847502,2.3147397 0 1 0 3.1875,-3.125 c 0,0 -2.37236,-2.699445 -6.8125,-5.1875 C 109.02864,80.449444 102.33923,78 93.4375,78 z M 92.34375,88.96875 C 91.947843,88.96615 91.539428,88.9821 91.15625,89 c -5.364416,0.250641 -9.468056,1.692325 -12.34375,3.1875 -3.286495,1.708771 -5.09375,3.625 -5.09375,3.625 A 2.2327486,2.2345018 0 0 0 77,98.84375 c 0,0 1.128794,-1.307136 3.84375,-2.71875 2.714962,-1.411608 6.870693,-2.793357 12.625,-2.6875 5.842357,0.107502 10.06111,1.545599 12.78125,2.9375 2.72015,1.3919 3.78125,2.625 3.78125,2.625 a 2.2594017,2.2611756 0 1 0 3.25,-3.125 c 0,0 -1.80668,-1.771492 -5.0625,-3.4375 C 104.96291,90.771491 100.11064,89.120459 93.5625,89 93.154111,88.9926 92.739657,88.97137 92.34375,88.96875 z M 93.3125,100 c -4.402173,0.0454 -7.490006,0.93914 -9.5,1.9375 -2.009986,0.99835 -3.125,2.3125 -3.125,2.3125 a 2.2322066,2.1867895 0 1 0 3.53125,2.65625 c 0,0 0.249254,-0.34793 1.625,-1.03125 1.37571,-0.68332 3.676977,-1.49208 7.46875,-1.53125 3.715477,-0.0384 6.176947,0.72345 7.65625,1.4375 1.47932,0.71407 1.875,1.21875 1.875,1.21875 a 2.2322066,2.1867895 0 1 0 3.375,-2.8125 c 0,0 -1.22078,-1.33407 -3.3125,-2.34375 C 100.81455,100.83408 97.688827,99.954783 93.3125,100 z m -2.53125,10.09375 c -1.509609,0 -2.71875,1.1714 -2.71875,2.625 0,0.5402 0.147471,1.08195 0.4375,1.5 l 3.21875,3.125 c 0.479406,0.39894 1.129612,0.65625 1.8125,0.65625 0.810318,0 1.561569,-0.36651 2.0625,-0.90625 l 2.875,-2.78125 C 98.81279,113.87214 99,113.31183 99,112.71875 c 0,-1.4536 -1.240389,-2.625 -2.75,-2.625 l -5.46875,0 z"
         id="path4048"
         style="font-size:medium;font-style:normal;font-variant:normal;font-weight:normal;font-stretch:normal;text-indent:0;text-align:start;text-decoration:none;line-height:normal;letter-spacing:normal;word-spacing:normal;text-transform:none;direction:ltr;block-progression:tb;writing-mode:lr-tb;text-anchor:start;color:#000000;fill:#ffffff;fill-opacity:1;stroke:none;stroke-width:1.70000005;marker:none;visibility:visible;display:inline;overflow:visible;enable-background:accumulate;font-family:Andale Mono;-inkscape-font-specification:Andale Mono" />
      <path
         d="m 127.99994,94.495514 a 34.499974,34.500004 0 0 1 -68.999947,0 34.499974,34.500004 0 1 1 68.999947,0 z"
         id="path3130"
         style="opacity:0.07999998;fill:url(#radialGradient3360);fill-opacity:1;stroke:none" />
      <path
         d="m 126.49997,94.495364 a 33.000001,32.96245 0 1 1 -65.999955,0 33.000001,32.96245 0 1 1 65.999955,0 z"
         id="path3136"
         style="opacity:0.4;fill:none;stroke:url(#linearGradient3357);stroke-width:0.9999997;stroke-miterlimit:4;stroke-opacity:1;stroke-dasharray:none" />
    </g>
    <g
       id="g4082" />
    <g
       id="g4127" />
    <g
       id="g4097" />
  </g>
</svg>
