<?xml version="1.0" encoding="UTF-8" standalone="no"?>
<!-- Created with Inkscape (http://www.inkscape.org/) -->

<svg
   xmlns:svg="http://www.w3.org/2000/svg"
   xmlns="http://www.w3.org/2000/svg"
   xmlns:xlink="http://www.w3.org/1999/xlink"
   version="1.0"
   width="128"
   height="128"
   id="svg11300"
   style="display:inline;enable-background:new">
  <title
     id="title2897">Candy Icon Theme</title>
  <defs
     id="defs3">
    <linearGradient
       id="linearGradient3645">
      <stop
         id="stop3647"
         style="stop-color:#ffffff;stop-opacity:1"
         offset="0" />
      <stop
         id="stop3649"
         style="stop-color:#ffffff;stop-opacity:0"
         offset="1" />
    </linearGradient>
    <linearGradient
       id="linearGradient3635">
      <stop
         id="stop3637"
         style="stop-color:#000000;stop-opacity:0"
         offset="0" />
      <stop
         id="stop3639"
         style="stop-color:#000000;stop-opacity:1"
         offset="1" />
    </linearGradient>
    <linearGradient
       id="linearGradient3625">
      <stop
         id="stop3627"
         style="stop-color:#8c8c8c;stop-opacity:1"
         offset="0" />
      <stop
         id="stop3629"
         style="stop-color:#b4b4b4;stop-opacity:1"
         offset="1" />
    </linearGradient>
    <linearGradient
       id="linearGradient3609">
      <stop
         id="stop3611"
         style="stop-color:#c8c8c8;stop-opacity:1"
         offset="0" />
      <stop
         id="stop3613"
         style="stop-color:#f0f0f0;stop-opacity:1"
         offset="1" />
    </linearGradient>
    <filter
       x="-0.078315787"
       y="-0.89280033"
       width="1.1566316"
       height="2.7856007"
       color-interpolation-filters="sRGB"
       id="filter3990">
      <feGaussianBlur
         stdDeviation="3.7199999"
         id="feGaussianBlur3992" />
    </filter>
    <filter
       x="-0.71830922"
       y="-0.51515186"
       width="2.4366186"
       height="2.0303037"
       color-interpolation-filters="sRGB"
       id="filter3726">
      <feGaussianBlur
         stdDeviation="3.9043531"
         id="feGaussianBlur3728" />
    </filter>
    <filter
       x="-0.71830922"
       y="-0.51515186"
       width="2.4366186"
       height="2.0303037"
       color-interpolation-filters="sRGB"
       id="filter3734">
      <feGaussianBlur
         stdDeviation="3.9043532"
         id="feGaussianBlur3736" />
    </filter>
    <radialGradient
       cx="158"
       cy="28.500011"
       r="20.000004"
       fx="158"
       fy="28.500011"
       id="radialGradient2997"
       xlink:href="#linearGradient3645"
       gradientUnits="userSpaceOnUse"
       gradientTransform="matrix(2.7749995,0,0,0.1,-371.94995,11.149998)" />
    <radialGradient
       cx="158"
       cy="9.1428576"
       r="22"
       fx="158"
       fy="9.1428576"
       id="radialGradient3000"
       xlink:href="#linearGradient3645"
       gradientUnits="userSpaceOnUse"
       gradientTransform="matrix(3.1797518,4.8053441e-7,-5.3605068e-7,3.7575762,-435.40082,-14.355058)" />
    <radialGradient
       cx="158"
       cy="9.1428576"
       r="22"
       fx="158"
       fy="9.1428576"
       id="radialGradient3003"
       xlink:href="#linearGradient3635"
       gradientUnits="userSpaceOnUse"
       gradientTransform="matrix(3.1797518,4.8053441e-7,-5.3605068e-7,3.7575762,-435.40082,-14.355058)" />
    <linearGradient
       x1="158"
       y1="49"
       x2="158"
       y2="7"
       id="linearGradient3007"
       xlink:href="#linearGradient3609"
       gradientUnits="userSpaceOnUse"
       gradientTransform="matrix(2.627907,0,0,2.7073171,-348.20931,-7.8048788)" />
    <linearGradient
       x1="160"
       y1="49"
       x2="160"
       y2="7"
       id="linearGradient3009"
       xlink:href="#linearGradient3625"
       gradientUnits="userSpaceOnUse"
       gradientTransform="matrix(2.627907,0,0,2.7073171,-348.20931,-7.8048788)" />
  </defs>
  <g
     transform="translate(-3,-4)"
     id="layer1"
     style="display:inline">
    <g
       id="layer6"
       style="display:none" />
    <rect
       width="114"
       height="9.9999962"
       rx="5"
       ry="5"
       x="10"
       y="114"
       id="rect4016"
       style="fill:#000000;fill-opacity:1;stroke:none;filter:url(#filter3990)" />
    <text
       x="146.98982"
       y="18.150604"
       id="text2969"
       xml:space="preserve"
       style="font-size:14px;font-style:normal;font-variant:normal;font-weight:bold;font-stretch:normal;fill:#000000;fill-opacity:1;stroke:none;font-family:Sawasdee;-inkscape-font-specification:Sawasdee Bold"><tspan
         x="146.98982"
         y="18.150604"
         id="tspan2971" /></text>
    <text
       x="146.45949"
       y="36.535381"
       id="text2977"
       xml:space="preserve"
       style="font-size:28px;font-style:normal;font-variant:normal;font-weight:bold;font-stretch:normal;fill:#000000;fill-opacity:1;stroke:none;font-family:Sawasdee;-inkscape-font-specification:Sawasdee Bold"><tspan
         x="146.45949"
         y="36.535381"
         id="tspan2979" /></text>
    <g
       id="g3907" />
    <g
       id="g3873" />
    <g
       id="g3948">
      <path
         d="m 25.5,12.5 c -8.31,0 -15,8.92 -15,20 l 0,86 c 0,2.77 2.23,5 5,5 l 103,0 c 2.77,0 5,-2.23 5,-5 l 0,-86 c 0,-11.08 -6.69,-20 -15,-20 l -83,0 z"
         id="rect3732"
         style="fill:url(#linearGradient3007);fill-opacity:1;stroke:url(#linearGradient3009);stroke-width:0.99999988;stroke-linecap:square;stroke-linejoin:round;stroke-miterlimit:4;stroke-opacity:1" />
      <path
         d="m 25,13 c -2.828427,0 -6,3.171573 -6,6 l 0,85 c 0,2.82843 3.171573,6 6,6 l 85,0 c 2.82843,0 6,-3.17157 6,-6 l 0,-85 c 0,-2.828427 -3.17157,-6 -6,-6 l -85,0 z m 27.59375,20 c 1.141347,2.8e-5 2.286381,0.135016 3.40625,0.4375 1.119812,0.302534 2.264848,0.878085 3.40625,1.75 1.162881,0.871964 2.043504,1.995714 2.625,3.3125 l 0.34375,0.8125 -4.84375,1.375 -0.34375,-0.875 c -0.409199,-0.925305 -1.044813,-1.631064 -1.90625,-2.09375 -0.839873,-0.480424 -1.718423,-0.687474 -2.6875,-0.6875 -1.141403,2.6e-5 -2.049046,0.22965 -2.78125,0.78125 -0.732205,0.551659 -1.09375,1.31558 -1.09375,2.1875 0,0.56945 0.252651,1.082062 0.8125,1.5625 0.559906,0.462683 1.251803,0.894125 2.15625,1.25 0.904533,0.338116 1.891919,0.675373 2.96875,1.03125 1.098279,0.355908 2.235728,0.738309 3.3125,1.21875 1.09828,0.480475 2.064217,0.988743 2.96875,1.59375 0.904473,0.605032 1.690065,1.382848 2.25,2.34375 C 63.747405,49.960926 64,51.133717 64,52.34375 64,54.870604 62.876471,56.925388 60.59375,58.5625 58.310914,60.199612 55.622654,61 52.5,61 50.712556,61 49.019268,60.694431 47.46875,60.125 45.918207,59.537776 44.600436,58.611517 43.4375,57.3125 42.274561,55.995695 41.510536,54.44441 41.1875,52.59375 L 41,51.625 l 5.03125,-0.5 0.1875,0.875 c 0.279737,1.672712 0.993284,2.931447 2.15625,3.75 1.16291,0.818563 2.531358,1.218753 4.125,1.21875 1.70131,3e-6 3.207831,-0.458351 4.5,-1.3125 1.292111,-0.871936 1.968694,-1.924506 1.96875,-3.3125 C 58.968694,51.560792 58.64394,50.837232 58.0625,50.25 57.502566,49.644989 56.810725,49.1415 55.90625,48.75 55.001746,48.340735 53.973278,47.980905 52.875,47.625 51.798169,47.251323 50.723307,46.802087 49.625,46.375 48.526692,45.947941 47.560695,45.516065 46.65625,45 45.751718,44.466177 44.98772,43.729163 44.40625,42.875 43.846314,42.020868 43.5,41.103293 43.5,40 c 0,-2.117551 0.952837,-3.799051 2.71875,-5.0625 1.787472,-1.263396 3.89839,-1.937472 6.375,-1.9375 z m 29.6875,0 c 1.011138,2.8e-5 1.980463,0.09307 2.9375,0.34375 0.956995,0.232818 1.769359,0.490207 2.4375,0.8125 0.686167,0.304439 1.313804,0.75742 2,1.3125 0.704193,0.555128 1.276996,1.048141 1.65625,1.40625 0.379137,0.358158 0.767302,0.77954 1.21875,1.40625 0.469467,0.626752 0.766675,1.070941 0.875,1.25 0.108336,0.179087 0.322919,0.445262 0.59375,0.875 L 90.28125,42.5 c -0.271114,-0.483461 -0.484031,-0.89641 -0.71875,-1.21875 -0.216672,-0.340206 -0.601396,-0.739469 -1.125,-1.3125 -0.505646,-0.572991 -1.02081,-1.048093 -1.5625,-1.40625 -0.523673,-0.376015 -1.187451,-0.700122 -2,-0.96875 -0.81256,-0.286496 -1.672863,-0.468732 -2.59375,-0.46875 -2.455778,1.8e-5 -4.631807,0.963574 -6.4375,2.84375 -1.78764,1.880216 -2.6875,4.161992 -2.6875,6.9375 0,2.775542 0.881805,5.128582 2.6875,7.0625 1.823749,1.933922 4.017833,2.906252 6.4375,2.90625 0.956971,2e-6 1.820775,-0.146407 2.6875,-0.46875 0.866728,-0.322312 1.570058,-0.673113 2.09375,-1.03125 0.523614,-0.358127 1.038826,-0.779509 1.5625,-1.40625 0.541689,-0.644629 0.886802,-1.11096 1.03125,-1.34375 0.144447,-0.232763 0.354171,-0.565667 0.625,-1.03125 L 94,53.53125 C 91.09281,58.509295 87.210751,61 82.28125,61 79.825472,61 77.540445,60.333873 75.5,59.0625 73.459527,57.791133 71.905638,56.099643 70.75,53.96875 69.612388,51.819963 69,49.506942 69,47 69,44.510994 69.612388,42.162154 70.75,40.03125 71.905638,37.882477 73.459527,36.226801 75.5,34.9375 77.540445,33.64825 79.825472,33.000027 82.28125,33 z M 44,70 l 4.8125,0 0,28 L 44,98 44,70 z m 25.1875,0 c 2.110665,2.8e-5 3.900416,0.526497 5.28125,1.5625 1.380777,1.017873 2.380278,2.380135 3.03125,4.125 1.104633,-1.653985 2.458038,-3.052595 3.9375,-4.125 1.499147,-1.072353 2.895534,-1.562472 4.375,-1.5625 1.262427,2.8e-5 2.517074,0.188807 3.5625,0.625 1.045437,0.418073 1.903283,1.041169 2.59375,1.75 0.690336,0.708888 1.214041,1.549771 1.6875,2.53125 0.473376,0.963345 0.802573,1.990145 1,3.0625 0.217141,1.054222 0.34372,2.073688 0.34375,3.21875 L 95,98 l -4.5625,0 0,-16.8125 c 0,-0.836073 -0.092,-1.58034 -0.25,-2.34375 -0.138143,-0.76337 -0.40321,-1.554197 -0.71875,-2.28125 -0.315662,-0.745189 -0.806327,-1.313751 -1.4375,-1.75 -0.631294,-0.454383 -1.350794,-0.687474 -2.21875,-0.6875 -1.065233,2.6e-5 -2.237566,0.631088 -3.5,1.8125 -1.242746,1.163277 -2.296541,2.525541 -3.125,4.125 -0.808775,1.581319 -1.15625,2.943582 -1.15625,4.125 l 0,13.8125 -4.71875,0 0,-16.875 c 0,-0.836072 -0.0495,-1.705342 -0.1875,-2.46875 -0.138087,-0.763367 -0.383406,-1.460442 -0.71875,-2.1875 -0.315658,-0.74519 -0.786555,-1.313751 -1.4375,-1.75 -0.631232,-0.454411 -1.350805,-0.687475 -2.21875,-0.6875 -0.986318,2.5e-5 -2.089495,0.511187 -3.3125,1.65625 -1.223004,1.126928 -2.276825,2.507361 -3.125,4.125 -0.848231,1.617674 -1.343779,3.12088 -1.34375,4.375 l 0,13.8125 -4.625,0 0,-19.5 c 0,-1.399525 -0.181213,-2.965865 -0.4375,-4.65625 C 55.669506,72.135243 55.394516,70.904361 55,70.25 l 5.1875,0 c 0.355287,1.072406 0.54614,1.962721 0.625,2.5625 0.09829,0.581656 0.156221,1.530004 0.15625,2.875 0.907374,-1.59946 2.231053,-2.940667 3.75,-4.03125 C 66.257328,70.547545 67.688352,70.000028 69.1875,70 z"
         id="path3851"
         style="opacity:0.7;fill:#ffffff;fill-opacity:1;stroke:none" />
      <path
         d="M 25.5,12 C 21.166099,12 17.25356,14.31817 14.46875,18.03125 11.68394,21.74433 10,26.859368 10,32.5 l 0,86 c 0,0.37979 0.05175,0.73566 0.125,1.09375 0.0019,0.01 -0.002,0.0216 0,0.0312 0.148266,0.7048 0.422717,1.36047 0.8125,1.9375 0.0048,0.007 -0.0048,0.0241 0,0.0312 0.09477,0.13892 0.205729,0.27686 0.3125,0.40625 0.224144,0.27162 0.478382,0.52586 0.75,0.75 0.135714,0.11191 0.259995,0.21385 0.40625,0.3125 0.444362,0.30312 0.943887,0.52431 1.46875,0.6875 0.172431,0.0534 0.320659,0.0885 0.5,0.125 0.36734,0.0773 0.734622,0.125 1.125,0.125 l 103,0 c 1.32928,0 2.54934,-0.4655 3.5,-1.25 0.27162,-0.22414 0.52586,-0.47838 0.75,-0.75 0.7845,-0.95066 1.25,-2.17072 1.25,-3.5 l 0,-86 C 124,26.859368 122.31606,21.74433 119.53125,18.03125 116.74644,14.31817 112.8339,12 108.5,12 l -83,0 z"
         id="rect3738"
         style="opacity:0.07999998;fill:url(#radialGradient3003);fill-opacity:1;stroke:none" />
      <path
         d="M 25.5,12 C 21.166099,12 17.25356,14.31817 14.46875,18.03125 11.68394,21.74433 10,26.859368 10,32.5 l 0,86 c 0,0.37979 0.05175,0.73566 0.125,1.09375 0.0019,0.01 -0.002,0.0216 0,0.0312 0.148266,0.7048 0.422717,1.36047 0.8125,1.9375 0.0048,0.007 -0.0048,0.0241 0,0.0312 0.09477,0.13892 0.205729,0.27686 0.3125,0.40625 0.224144,0.27162 0.478382,0.52586 0.75,0.75 0.135714,0.11191 0.259995,0.21385 0.40625,0.3125 0.444362,0.30312 0.943887,0.52431 1.46875,0.6875 0.172431,0.0534 0.320659,0.0885 0.5,0.125 0.36734,0.0773 0.734622,0.125 1.125,0.125 l 103,0 c 1.32928,0 2.54934,-0.4655 3.5,-1.25 0.27162,-0.22414 0.52586,-0.47838 0.75,-0.75 0.7845,-0.95066 1.25,-2.17072 1.25,-3.5 l 0,-86 C 124,26.859368 122.31606,21.74433 119.53125,18.03125 116.74644,14.31817 112.8339,12 108.5,12 l -83,0 z"
         id="rect3740"
         style="opacity:0.2;fill:url(#radialGradient3000);fill-opacity:1;stroke:none" />
      <rect
         width="111"
         height="1"
         x="11"
         y="13"
         id="rect3742"
         style="opacity:0.5;fill:url(#radialGradient2997);fill-opacity:1;stroke:none" />
      <path
         d="m 19,105 c 0.466409,2.35253 1.282413,4.50529 5,5 l -5,13 c -6.684638,1.01498 -8.356511,-2.14735 -8,-7 l 8,-11 z"
         id="path3909"
         style="opacity:0.3;fill:#ffffff;fill-opacity:1;stroke:none;filter:url(#filter3734)" />
      <path
         d="m 116,105 c -0.46641,2.96736 -2.32756,5.0685 -6.04514,5 l 5,13 c 6.68463,1.01498 8.35651,-2.14735 8,-7 L 116,105 z"
         id="path3911"
         style="opacity:0.3;fill:#ffffff;fill-opacity:1;stroke:none;filter:url(#filter3726)" />
      <path
         d="m 52.59375,33 c -2.47661,2.8e-5 -4.587528,0.674104 -6.375,1.9375 C 44.452837,36.200949 43.5,37.882449 43.5,40 c 0,1.103293 0.346314,2.020868 0.90625,2.875 0.58147,0.854163 1.345468,1.591177 2.25,2.125 0.904445,0.516065 1.870442,0.947941 2.96875,1.375 1.098307,0.427087 2.173169,0.876323 3.25,1.25 1.098278,0.355905 2.126746,0.715735 3.03125,1.125 0.904475,0.3915 1.596316,0.894989 2.15625,1.5 0.58144,0.587232 0.906194,1.310792 0.90625,2.09375 -5.6e-5,1.387994 -0.676639,2.440564 -1.96875,3.3125 -1.292169,0.854149 -2.79869,1.312503 -4.5,1.3125 -1.593642,3e-6 -2.96209,-0.400187 -4.125,-1.21875 C 47.212034,54.931447 46.498487,53.672712 46.21875,52 l -0.1875,-0.875 -5.03125,0.5 0.1875,0.96875 c 0.323036,1.85066 1.087061,3.401945 2.25,4.71875 1.162936,1.299017 2.480707,2.225276 4.03125,2.8125 C 49.019268,60.694431 50.712556,61 52.5,61 55.622654,61 58.310914,60.199612 60.59375,58.5625 62.876471,56.925388 64,54.870604 64,52.34375 64,51.133717 63.747405,49.960926 63.1875,49 62.627565,48.039098 61.841973,47.261282 60.9375,46.65625 60.032967,46.051243 59.06703,45.542975 57.96875,45.0625 56.891978,44.582059 55.754529,44.199658 54.65625,43.84375 53.579419,43.487873 52.592033,43.150616 51.6875,42.8125 50.783053,42.456625 50.091156,42.025183 49.53125,41.5625 48.971401,41.082062 48.71875,40.56945 48.71875,40 c 0,-0.87192 0.361545,-1.635841 1.09375,-2.1875 0.732204,-0.5516 1.639847,-0.781224 2.78125,-0.78125 0.969077,2.6e-5 1.847627,0.207076 2.6875,0.6875 0.861437,0.462686 1.497051,1.168445 1.90625,2.09375 l 0.34375,0.875 L 62.375,39.3125 62.03125,38.5 C 61.449754,37.183214 60.569131,36.059464 59.40625,35.1875 58.264848,34.315585 57.119812,33.740034 56,33.4375 54.880131,33.135016 53.735097,33.000028 52.59375,33 z m 29.6875,0 c -2.455778,2.7e-5 -4.740805,0.64825 -6.78125,1.9375 -2.040473,1.289301 -3.594362,2.944977 -4.75,5.09375 C 69.612388,42.162154 69,44.510994 69,47 c 0,2.506942 0.612388,4.819963 1.75,6.96875 1.155638,2.130893 2.709527,3.822383 4.75,5.09375 C 77.540445,60.333873 79.825472,61 82.28125,61 87.210751,61 91.09281,58.509295 94,53.53125 l -3.71875,-1.9375 c -0.270829,0.465583 -0.480553,0.798487 -0.625,1.03125 -0.144448,0.23279 -0.489561,0.699121 -1.03125,1.34375 -0.523674,0.626741 -1.038886,1.048123 -1.5625,1.40625 -0.523692,0.358137 -1.227022,0.708938 -2.09375,1.03125 -0.866725,0.322343 -1.730529,0.468752 -2.6875,0.46875 -2.419667,2e-6 -4.613751,-0.972328 -6.4375,-2.90625 -1.805695,-1.933918 -2.6875,-4.286958 -2.6875,-7.0625 0,-2.775508 0.89986,-5.057284 2.6875,-6.9375 1.805693,-1.880176 3.981722,-2.843732 6.4375,-2.84375 0.920887,1.8e-5 1.78119,0.182254 2.59375,0.46875 0.812549,0.268628 1.476327,0.592735 2,0.96875 0.54169,0.358157 1.056854,0.833259 1.5625,1.40625 0.523604,0.573031 0.908328,0.972294 1.125,1.3125 0.234719,0.32234 0.447636,0.735289 0.71875,1.21875 L 94,40.40625 c -0.270831,-0.429738 -0.485414,-0.695913 -0.59375,-0.875 -0.108325,-0.179059 -0.405533,-0.623248 -0.875,-1.25 -0.451448,-0.62671 -0.839613,-1.048092 -1.21875,-1.40625 -0.379254,-0.358109 -0.952057,-0.851122 -1.65625,-1.40625 -0.686196,-0.55508 -1.313833,-1.008061 -2,-1.3125 -0.668141,-0.322293 -1.480505,-0.579682 -2.4375,-0.8125 C 84.261713,33.093067 83.292388,33.000028 82.28125,33 z"
         id="path3904"
         style="font-size:20.36923599px;font-style:normal;font-variant:normal;font-weight:bold;font-stretch:normal;opacity:0.4;fill:#4a85c4;fill-opacity:1;stroke:none;font-family:Sawasdee;-inkscape-font-specification:Sawasdee Bold" />
      <path
         d="m 44,70 0,28 4.8125,0 0,-28 L 44,70 z m 25.1875,0 c -1.499148,2.8e-5 -2.930172,0.547545 -4.46875,1.65625 -1.518947,1.090583 -2.842626,2.43179 -3.75,4.03125 -2.9e-5,-1.344996 -0.05796,-2.293344 -0.15625,-2.875 -0.07886,-0.599779 -0.269713,-1.490094 -0.625,-2.5625 L 55,70.25 c 0.394516,0.654361 0.669506,1.885243 0.90625,3.59375 0.256287,1.690385 0.4375,3.256725 0.4375,4.65625 l 0,19.5 4.625,0 0,-13.8125 c -2.9e-5,-1.25412 0.495519,-2.757326 1.34375,-4.375 0.848175,-1.617639 1.901996,-2.998072 3.125,-4.125 1.223005,-1.145063 2.326182,-1.656225 3.3125,-1.65625 0.867945,2.5e-5 1.587518,0.233089 2.21875,0.6875 0.650945,0.436249 1.121842,1.00481 1.4375,1.75 0.335344,0.727058 0.580663,1.424133 0.71875,2.1875 0.138,0.763408 0.1875,1.632678 0.1875,2.46875 l 0,16.875 4.71875,0 0,-13.8125 c 0,-1.181418 0.347475,-2.543681 1.15625,-4.125 0.828459,-1.599459 1.882254,-2.961723 3.125,-4.125 1.262434,-1.181412 2.434767,-1.812474 3.5,-1.8125 0.867956,2.6e-5 1.587456,0.233117 2.21875,0.6875 0.631173,0.436249 1.121838,1.004811 1.4375,1.75 0.31554,0.727053 0.580607,1.51788 0.71875,2.28125 0.157997,0.76341 0.25,1.507677 0.25,2.34375 L 90.4375,98 95,98 95,81.1875 c -3e-5,-1.145062 -0.126609,-2.164528 -0.34375,-3.21875 -0.197427,-1.072355 -0.526624,-2.099155 -1,-3.0625 C 93.182791,73.924771 92.659086,73.083888 91.96875,72.375 91.278283,71.666169 90.420437,71.043073 89.375,70.625 88.329574,70.188807 87.074927,70.000028 85.8125,70 c -1.479466,2.8e-5 -2.875853,0.490147 -4.375,1.5625 -1.479462,1.072405 -2.832867,2.471015 -3.9375,4.125 -0.650972,-1.744865 -1.650473,-3.107127 -3.03125,-4.125 C 73.087916,70.526497 71.298165,70.000028 69.1875,70 z"
         id="path3908"
         style="font-size:20.36923599px;font-style:normal;font-variant:normal;font-weight:bold;font-stretch:normal;opacity:0.4;fill:#973531;fill-opacity:1;stroke:none;font-family:Sawasdee;-inkscape-font-specification:Sawasdee Bold" />
      <path
         d="m 52.59375,32.8005 c -2.47661,2.8e-5 -4.587528,0.674104 -6.375,1.9375 C 44.452837,36.001449 43.5,37.682949 43.5,39.8005 c 0,0.07762 0.02787,0.142929 0.03125,0.21875 0.206522,-1.757717 1.142326,-3.175732 2.6875,-4.28125 1.787472,-1.263396 3.89839,-1.937472 6.375,-1.9375 1.141347,2.8e-5 2.286381,0.135016 3.40625,0.4375 1.119812,0.302534 2.264848,0.878085 3.40625,1.75 1.143768,0.857632 2.012145,1.961113 2.59375,3.25 l 0.375,-0.125 -0.34375,-0.8125 C 61.449754,36.983714 60.569131,35.859964 59.40625,34.988 58.264848,34.116085 57.119812,33.540534 56,33.238 54.880131,32.935516 53.735097,32.800528 52.59375,32.8005 z m 29.6875,0 c -2.455778,2.7e-5 -4.740805,0.64825 -6.78125,1.9375 -2.040473,1.289301 -3.594362,2.944977 -4.75,5.09375 -1.137612,2.130904 -1.75,4.479744 -1.75,6.96875 0,0.167292 0.02582,0.334426 0.03125,0.5 0.07591,-2.305129 0.657052,-4.480044 1.71875,-6.46875 1.155638,-2.148773 2.709527,-3.804449 4.75,-5.09375 2.040445,-1.28925 4.325472,-1.937473 6.78125,-1.9375 1.011138,2.8e-5 1.980463,0.09307 2.9375,0.34375 0.956995,0.232818 1.769359,0.490207 2.4375,0.8125 0.686167,0.304439 1.313804,0.75742 2,1.3125 0.704193,0.555128 1.276996,1.048141 1.65625,1.40625 0.379137,0.358158 0.767302,0.77954 1.21875,1.40625 0.469467,0.626752 0.766675,1.070941 0.875,1.25 0.01864,0.03081 0.06907,0.119892 0.09375,0.15625 L 94,40.20675 c -0.270831,-0.429738 -0.485414,-0.695913 -0.59375,-0.875 -0.108325,-0.179059 -0.405533,-0.623248 -0.875,-1.25 -0.451448,-0.62671 -0.839613,-1.048092 -1.21875,-1.40625 -0.379254,-0.358109 -0.952057,-0.851122 -1.65625,-1.40625 -0.686196,-0.55508 -1.313833,-1.008061 -2,-1.3125 -0.668141,-0.322293 -1.480505,-0.579682 -2.4375,-0.8125 -0.957037,-0.250683 -1.926362,-0.343722 -2.9375,-0.34375 z m -33.5,7.40625 c -0.04095,0.193594 -0.0625,0.386561 -0.0625,0.59375 0,0.56945 0.252651,1.082062 0.8125,1.5625 0.559906,0.462683 1.251803,0.894125 2.15625,1.25 0.904533,0.338116 1.891919,0.675373 2.96875,1.03125 1.098279,0.355908 2.235728,0.738309 3.3125,1.21875 1.09828,0.480475 2.064217,0.988743 2.96875,1.59375 0.904473,0.605032 1.690065,1.382848 2.25,2.34375 0.482711,0.828443 0.720306,1.812259 0.78125,2.84375 0.01,-0.164233 0.03125,-0.33159 0.03125,-0.5 0,-1.210033 -0.252595,-2.382824 -0.8125,-3.34375 -0.559935,-0.960902 -1.345527,-1.738718 -2.25,-2.34375 -0.904533,-0.605007 -1.87047,-1.113275 -2.96875,-1.59375 -1.076772,-0.480441 -2.214221,-0.862842 -3.3125,-1.21875 -1.076831,-0.355877 -2.064217,-0.693134 -2.96875,-1.03125 -0.904447,-0.355875 -1.596344,-0.787317 -2.15625,-1.25 -0.419887,-0.360329 -0.652699,-0.749321 -0.75,-1.15625 z m 24.375,7 c -0.0066,0.164458 0,0.331942 0,0.5 0,2.775542 0.881805,5.128582 2.6875,7.0625 1.823749,1.933922 4.017833,2.906252 6.4375,2.90625 0.956971,2e-6 1.820775,-0.146407 2.6875,-0.46875 0.866728,-0.322312 1.570058,-0.673113 2.09375,-1.03125 0.523614,-0.358127 1.038826,-0.779509 1.5625,-1.40625 0.541689,-0.644629 0.886802,-1.11096 1.03125,-1.34375 0.144447,-0.232763 0.354171,-0.565667 0.625,-1.03125 l 3.25,1.6875 c 0.155909,-0.244621 0.318088,-0.492018 0.46875,-0.75 l -3.71875,-1.9375 c -0.270829,0.465583 -0.480553,0.798487 -0.625,1.03125 -0.144448,0.23279 -0.489561,0.699121 -1.03125,1.34375 -0.523674,0.626741 -1.038886,1.048123 -1.5625,1.40625 -0.523692,0.358137 -1.227022,0.708938 -2.09375,1.03125 -0.866725,0.322343 -1.730529,0.468752 -2.6875,0.46875 -2.419667,2e-6 -4.613751,-0.972328 -6.4375,-2.90625 -1.696359,-1.816818 -2.587034,-4.003074 -2.6875,-6.5625 z m -27.125,3.71875 -5.03125,0.5 0.1875,0.96875 4.84375,-0.46875 0.1875,0.875 c 0.279737,1.672712 0.993284,2.931447 2.15625,3.75 1.16291,0.818563 2.531358,1.218753 4.125,1.21875 1.70131,3e-6 3.207831,-0.458351 4.5,-1.3125 1.292111,-0.871936 1.968694,-1.924506 1.96875,-3.3125 -1e-5,-0.140837 -0.01062,-0.269705 -0.03125,-0.40625 -0.170497,1.098974 -0.837963,1.976766 -1.9375,2.71875 -1.292169,0.854149 -2.79869,1.312503 -4.5,1.3125 -1.593642,3e-6 -2.96209,-0.400187 -4.125,-1.21875 -1.162966,-0.818553 -1.876513,-2.077288 -2.15625,-3.75 l -0.1875,-0.875 z M 44,69.8005 l 0,1 4.8125,0 0,-1 -4.8125,0 z m 25.1875,0 c -1.499148,2.8e-5 -2.930172,0.547545 -4.46875,1.65625 -1.518947,1.090583 -2.842626,2.43179 -3.75,4.03125 -2.9e-5,-1.344996 -0.05796,-2.293344 -0.15625,-2.875 -0.07886,-0.599779 -0.269713,-1.490094 -0.625,-2.5625 l -5.1875,0 c 0.147467,0.244596 0.256688,0.599465 0.375,1 l 4.8125,0 c 0.355287,1.072406 0.54614,1.962721 0.625,2.5625 0.09829,0.581656 0.156221,1.530004 0.15625,2.875 0.907374,-1.59946 2.231053,-2.940667 3.75,-4.03125 1.538578,-1.108705 2.969602,-1.656222 4.46875,-1.65625 2.110665,2.8e-5 3.900416,0.526497 5.28125,1.5625 1.380777,1.017873 2.380278,2.380135 3.03125,4.125 1.104633,-1.653985 2.458038,-3.052595 3.9375,-4.125 1.499147,-1.072353 2.895534,-1.562472 4.375,-1.5625 1.262427,2.8e-5 2.517074,0.188807 3.5625,0.625 1.045437,0.418073 1.903283,1.041169 2.59375,1.75 0.690336,0.708888 1.214041,1.549771 1.6875,2.53125 0.473376,0.963345 0.802573,1.990145 1,3.0625 0.217141,1.054222 0.34372,2.073688 0.34375,3.21875 l 0,-1 c -3e-5,-1.145062 -0.126609,-2.164528 -0.34375,-3.21875 -0.197427,-1.072355 -0.526624,-2.099155 -1,-3.0625 -0.473459,-0.981479 -0.997164,-1.822362 -1.6875,-2.53125 -0.690467,-0.708831 -1.548313,-1.331927 -2.59375,-1.75 -1.045426,-0.436193 -2.300073,-0.624972 -3.5625,-0.625 -1.479466,2.8e-5 -2.875853,0.490147 -4.375,1.5625 -1.479462,1.072405 -2.832867,2.471015 -3.9375,4.125 -0.650972,-1.744865 -1.650473,-3.107127 -3.03125,-4.125 -1.380834,-1.036003 -3.170585,-1.562472 -5.28125,-1.5625 z"
         id="path3925"
         style="font-size:20.36923599px;font-style:normal;font-variant:normal;font-weight:bold;font-stretch:normal;opacity:0.4;fill:#000000;fill-opacity:1;stroke:none;font-family:Sawasdee;-inkscape-font-specification:Sawasdee Bold" />
      <path
         d="m 52.59375,37.03125 c -1.141403,2.6e-5 -2.049046,0.22965 -2.78125,0.78125 -0.732205,0.551659 -1.09375,1.31558 -1.09375,2.1875 0,0.131665 0.03481,0.249107 0.0625,0.375 0.136007,-0.608553 0.482096,-1.148756 1.03125,-1.5625 0.732204,-0.5516 1.639847,-0.781224 2.78125,-0.78125 0.969077,2.6e-5 1.847627,0.207076 2.6875,0.6875 0.861437,0.462686 1.497051,1.168445 1.90625,2.09375 l 0.34375,0.875 L 62.375,40.3125 62.03125,39.5 C 62.021693,39.478357 62.009719,39.459038 62,39.4375 l -4.46875,1.25 -0.34375,-0.875 c -0.409199,-0.925305 -1.044813,-1.631064 -1.90625,-2.09375 -0.839873,-0.480424 -1.718423,-0.687474 -2.6875,-0.6875 z m 29.6875,0.09375 c -2.455778,1.8e-5 -4.631807,0.963574 -6.4375,2.84375 -1.78764,1.880216 -2.6875,4.161992 -2.6875,6.9375 0,0.16806 -0.0065,0.335037 0,0.5 0.102334,-2.551596 1.008102,-4.671132 2.6875,-6.4375 1.805693,-1.880176 3.981722,-2.843732 6.4375,-2.84375 0.920887,1.8e-5 1.78119,0.182254 2.59375,0.46875 0.812549,0.268628 1.476327,0.592735 2,0.96875 0.54169,0.358157 1.056854,0.833259 1.5625,1.40625 0.523604,0.573031 0.908328,0.972294 1.125,1.3125 0.234719,0.32234 0.447636,0.735289 0.71875,1.21875 L 94,41.40625 C 93.775766,41.050449 93.618741,40.86246 93.5,40.6875 L 90.28125,42.5 c -0.271114,-0.483461 -0.484031,-0.89641 -0.71875,-1.21875 -0.216672,-0.340206 -0.601396,-0.739469 -1.125,-1.3125 -0.505646,-0.572991 -1.02081,-1.048093 -1.5625,-1.40625 -0.523673,-0.376015 -1.187451,-0.700122 -2,-0.96875 -0.81256,-0.286496 -1.672863,-0.468732 -2.59375,-0.46875 z m -38.75,3.21875 C 43.510389,40.556561 43.5,40.777589 43.5,41 c 0,1.103293 0.346314,2.020868 0.90625,2.875 0.58147,0.854163 1.345468,1.591177 2.25,2.125 0.904445,0.516065 1.870442,0.947941 2.96875,1.375 1.098307,0.427087 2.173169,0.876323 3.25,1.25 1.098278,0.355905 2.126746,0.715735 3.03125,1.125 0.904475,0.3915 1.596316,0.894989 2.15625,1.5 0.476852,0.481602 0.780959,1.064945 0.875,1.6875 0.02986,-0.192476 0.03124,-0.386886 0.03125,-0.59375 C 58.968694,51.560792 58.64394,50.837232 58.0625,50.25 57.502566,49.644989 56.810725,49.1415 55.90625,48.75 55.001746,48.340735 53.973278,47.980905 52.875,47.625 51.798169,47.251323 50.723307,46.802087 49.625,46.375 48.526692,45.947941 47.560695,45.516065 46.65625,45 c -0.904532,-0.533823 -1.66853,-1.270837 -2.25,-2.125 -0.49829,-0.760096 -0.808571,-1.584497 -0.875,-2.53125 z m 25.5,7.15625 C 69.025822,47.664823 69,47.833905 69,48 c 0,2.506942 0.612388,4.819963 1.75,6.96875 1.155638,2.130893 2.709527,3.822383 4.75,5.09375 C 77.540445,61.333873 79.825472,62 82.28125,62 87.210751,62 91.09281,59.509295 94,54.53125 l -0.46875,-0.25 C 90.678731,58.756857 86.955284,61 82.28125,61 79.825472,61 77.540445,60.333873 75.5,59.0625 73.459527,57.791133 71.905638,56.099643 70.75,53.96875 69.688302,51.963355 69.107165,49.815619 69.03125,47.5 z M 41.1875,52.59375 41,52.625 l 0.1875,0.96875 c 0.323036,1.85066 1.087061,3.401945 2.25,4.71875 1.162936,1.299017 2.480707,2.225276 4.03125,2.8125 C 49.019268,61.694431 50.712556,62 52.5,62 55.622654,62 58.310914,61.199612 60.59375,59.5625 62.876471,57.925388 64,55.870604 64,53.34375 c 0,-0.166827 -0.0215,-0.335046 -0.03125,-0.5 -0.139929,2.299938 -1.244418,4.190749 -3.375,5.71875 C 58.310914,60.199612 55.622654,61 52.5,61 50.712556,61 49.019268,60.694431 47.46875,60.125 45.918207,59.537776 44.600436,58.611517 43.4375,57.3125 42.274561,55.995695 41.510536,54.44441 41.1875,52.59375 z M 55,71.25 c 0.394516,0.654361 0.669506,1.885243 0.90625,3.59375 0.256287,1.690385 0.4375,3.256725 0.4375,4.65625 l 0,-1 c 0,-1.399525 -0.181213,-2.965865 -0.4375,-4.65625 C 55.757999,72.773871 55.573205,71.921007 55.375,71.25 l -0.375,0 z m 13.75,2.78125 c -0.986318,2.5e-5 -2.089495,0.511187 -3.3125,1.65625 -1.223004,1.126928 -2.276825,2.507361 -3.125,4.125 -0.848231,1.617674 -1.343779,3.12088 -1.34375,4.375 l 0,1 c -2.9e-5,-1.25412 0.495519,-2.757326 1.34375,-4.375 0.848175,-1.617639 1.901996,-2.998072 3.125,-4.125 1.223005,-1.145063 2.326182,-1.656225 3.3125,-1.65625 0.867945,2.5e-5 1.587518,0.233089 2.21875,0.6875 0.650945,0.436249 1.121842,1.00481 1.4375,1.75 0.335344,0.727058 0.580663,1.424133 0.71875,2.1875 0.138,0.763408 0.1875,1.632678 0.1875,2.46875 l 0,-1 c 0,-0.836072 -0.0495,-1.705342 -0.1875,-2.46875 -0.138087,-0.763367 -0.383406,-1.460442 -0.71875,-2.1875 -0.315658,-0.74519 -0.786555,-1.313751 -1.4375,-1.75 C 70.337518,74.264339 69.617945,74.031275 68.75,74.03125 z M 85.8125,74.125 c -1.065233,2.6e-5 -2.237566,0.631088 -3.5,1.8125 -1.242746,1.163277 -2.296541,2.525541 -3.125,4.125 -0.808775,1.581319 -1.15625,2.943582 -1.15625,4.125 l 0,1 c 0,-1.181418 0.347475,-2.543681 1.15625,-4.125 0.828459,-1.599459 1.882254,-2.961723 3.125,-4.125 1.262434,-1.181412 2.434767,-1.812474 3.5,-1.8125 0.867956,2.6e-5 1.587456,0.233117 2.21875,0.6875 0.631173,0.436249 1.121838,1.004811 1.4375,1.75 0.31554,0.727053 0.580607,1.51788 0.71875,2.28125 0.157997,0.76341 0.25,1.507677 0.25,2.34375 l 0,-1 c 0,-0.836073 -0.092,-1.58034 -0.25,-2.34375 -0.138143,-0.76337 -0.40321,-1.554197 -0.71875,-2.28125 -0.315662,-0.745189 -0.806327,-1.313751 -1.4375,-1.75 C 87.399956,74.358117 86.680456,74.125026 85.8125,74.125 z M 44,98 l 0,1 4.8125,0 0,-1 L 44,98 z m 12.34375,0 0,1 4.625,0 0,-1 -4.625,0 z m 16.96875,0 0,1 4.71875,0 0,-1 -4.71875,0 z m 17.125,0 0,1 4.5625,0 0,-1 -4.5625,0 z"
         id="path3932"
         style="font-size:20.36923599px;font-style:normal;font-variant:normal;font-weight:bold;font-stretch:normal;opacity:0.3;fill:#ffffff;fill-opacity:1;stroke:none;font-family:Sawasdee;-inkscape-font-specification:Sawasdee Bold" />
    </g>
    <g
       id="g3847" />
    <g
       id="g3860" />
    <g
       id="g3834" />
  </g>
</svg>
