<?xml version="1.0" encoding="UTF-8" standalone="no"?>
<!-- Created with Inkscape (http://www.inkscape.org/) -->

<svg
   xmlns:svg="http://www.w3.org/2000/svg"
   xmlns="http://www.w3.org/2000/svg"
   xmlns:xlink="http://www.w3.org/1999/xlink"
   version="1.0"
   width="128"
   height="128"
   id="svg11300"
   style="display:inline;enable-background:new">
  <title
     id="title2897">Candy Icon Theme</title>
  <defs
     id="defs3">
    <linearGradient
       id="linearGradient3695">
      <stop
         id="stop3697"
         style="stop-color:#000000;stop-opacity:0.47058824"
         offset="0" />
      <stop
         id="stop3699"
         style="stop-color:#000000;stop-opacity:0.94117647"
         offset="1" />
    </linearGradient>
    <linearGradient
       id="linearGradient3764">
      <stop
         id="stop3766"
         style="stop-color:#ffffff;stop-opacity:1"
         offset="0" />
      <stop
         id="stop3768"
         style="stop-color:#ffffff;stop-opacity:0"
         offset="1" />
    </linearGradient>
    <linearGradient
       id="linearGradient3754">
      <stop
         id="stop3756"
         style="stop-color:#000000;stop-opacity:0"
         offset="0" />
      <stop
         id="stop3758"
         style="stop-color:#000000;stop-opacity:1"
         offset="1" />
    </linearGradient>
    <linearGradient
       id="linearGradient3631">
      <stop
         id="stop3633"
         style="stop-color:#bebebe;stop-opacity:1"
         offset="0" />
      <stop
         id="stop3635"
         style="stop-color:#969696;stop-opacity:1"
         offset="1" />
    </linearGradient>
    <linearGradient
       id="linearGradient3615">
      <stop
         id="stop3617"
         style="stop-color:#f0f0f0;stop-opacity:1"
         offset="0" />
      <stop
         id="stop3619"
         style="stop-color:#c8c8c8;stop-opacity:1"
         offset="1" />
    </linearGradient>
    <filter
       x="-0.35699999"
       y="-0.85680002"
       width="1.714"
       height="2.7135999"
       color-interpolation-filters="sRGB"
       id="filter3809">
      <feGaussianBlur
         id="feGaussianBlur3811"
         stdDeviation="3.5700003" />
    </filter>
    <linearGradient
       x1="159.12769"
       y1="19.233244"
       x2="159.12769"
       y2="33.292908"
       id="linearGradient3815"
       xlink:href="#linearGradient3631"
       gradientUnits="userSpaceOnUse" />
    <linearGradient
       x1="70"
       y1="10"
       x2="70"
       y2="45"
       id="linearGradient3938"
       xlink:href="#linearGradient3764"
       gradientUnits="userSpaceOnUse" />
    <radialGradient
       cx="67.282265"
       cy="15"
       r="56"
       fx="67.282265"
       fy="15"
       id="radialGradient3941"
       xlink:href="#linearGradient3764"
       gradientUnits="userSpaceOnUse"
       gradientTransform="matrix(1.5663846,0.00330661,-0.00320418,1.5178571,-38.059579,-7.9903336)" />
    <radialGradient
       cx="67.282265"
       cy="15"
       r="56"
       fx="67.282265"
       fy="15"
       id="radialGradient3944"
       xlink:href="#linearGradient3754"
       gradientUnits="userSpaceOnUse"
       gradientTransform="matrix(1.5663846,0.00330661,-0.00320418,1.5178571,-38.059579,-7.9903336)" />
    <radialGradient
       cx="68"
       cy="68"
       r="30"
       fx="68"
       fy="68"
       id="radialGradient3947"
       xlink:href="#linearGradient3695"
       gradientUnits="userSpaceOnUse" />
    <linearGradient
       x1="75"
       y1="10"
       x2="75"
       y2="125"
       id="linearGradient3952"
       xlink:href="#linearGradient3615"
       gradientUnits="userSpaceOnUse" />
    <linearGradient
       x1="70"
       y1="10"
       x2="70"
       y2="125"
       id="linearGradient3954"
       xlink:href="#linearGradient3631"
       gradientUnits="userSpaceOnUse" />
    <linearGradient
       x1="171.63333"
       y1="35.566666"
       x2="171.63333"
       y2="49.433331"
       id="linearGradient3042"
       xlink:href="#linearGradient3665"
       gradientUnits="userSpaceOnUse"
       gradientTransform="matrix(3.9999994,0,0,5.2307684,-588.49989,-127.80762)" />
    <linearGradient
       x1="170.5"
       y1="35.566666"
       x2="170.5"
       y2="49.433331"
       id="linearGradient3040"
       xlink:href="#linearGradient3657"
       gradientUnits="userSpaceOnUse"
       gradientTransform="matrix(3.9999994,0,0,5.2307684,-588.49989,-127.80762)" />
    <radialGradient
       cx="171.35582"
       cy="36.923706"
       r="3.6441751"
       fx="171.35582"
       fy="36.923706"
       id="radialGradient3036"
       xlink:href="#linearGradient3693"
       gradientUnits="userSpaceOnUse"
       gradientTransform="matrix(9.4671555,0,0,9.4671633,-1528.7522,-273.32744)" />
    <linearGradient
       x1="170.13911"
       y1="37.395508"
       x2="170.13911"
       y2="39.217434"
       id="linearGradient3033"
       xlink:href="#linearGradient3703"
       gradientUnits="userSpaceOnUse"
       gradientTransform="matrix(7.2738117,0,0,10.338321,-1146.4171,-327.4238)" />
    <linearGradient
       id="linearGradient3665">
      <stop
         id="stop3667"
         style="stop-color:#df9c61;stop-opacity:1"
         offset="0" />
      <stop
         id="stop3669"
         style="stop-color:#b74725;stop-opacity:1"
         offset="1" />
    </linearGradient>
    <linearGradient
       id="linearGradient3657">
      <stop
         id="stop3659-8"
         style="stop-color:#f1bb8b;stop-opacity:1"
         offset="0" />
      <stop
         id="stop3661"
         style="stop-color:#e65c32;stop-opacity:1"
         offset="1" />
    </linearGradient>
    <linearGradient
       id="linearGradient3703">
      <stop
         id="stop3705-5"
         style="stop-color:#ffffff;stop-opacity:1"
         offset="0" />
      <stop
         id="stop3707"
         style="stop-color:#ffffff;stop-opacity:0"
         offset="1" />
    </linearGradient>
    <linearGradient
       id="linearGradient3693">
      <stop
         id="stop3695"
         style="stop-color:#000000;stop-opacity:0"
         offset="0" />
      <stop
         id="stop3697-8"
         style="stop-color:#000000;stop-opacity:1"
         offset="1" />
    </linearGradient>
  </defs>
  <g
     transform="translate(-3,-4)"
     id="layer1"
     style="display:inline">
    <g
       id="layer6"
       style="display:none" />
    <rect
       width="24.000002"
       height="10.000001"
       rx="4"
       ry="4"
       x="56"
       y="114"
       id="rect3743"
       style="opacity:0.75;fill:#000000;fill-opacity:1;stroke:none;filter:url(#filter3809)" />
    <g
       id="g3902" />
    <g
       id="g3956">
      <path
         d="m 61.5,12.5 c -2.77,0 -5,2.23 -5,5 l 0,6.46875 C 52.420883,25.030756 48.580485,26.668871 45.03125,28.75 L 40.4375,24.15625 c -1.958686,-1.958686 -5.135064,-1.958686 -7.09375,0 l -9.1875,9.1875 c -1.958686,1.958686 -1.958686,5.135064 0,7.09375 L 28.75,45.03125 C 26.668872,48.580486 25.030756,52.420883 23.96875,56.5 L 17.5,56.5 c -2.77,0 -5,2.23 -5,5 l 0,13 c 0,2.77 2.23,5 5,5 l 6.46875,0 c 1.062006,4.079117 2.700122,7.919514 4.78125,11.46875 l -4.59375,4.59375 c -1.958686,1.958686 -1.958686,5.13506 0,7.09375 l 9.1875,9.1875 c 1.958686,1.95869 5.135064,1.95869 7.09375,0 L 45.03125,107.25 c 3.549235,2.08113 7.389633,3.71924 11.46875,4.78125 l 0,6.46875 c 0,2.77 2.23,5 5,5 l 13,0 c 2.77,0 5,-2.23 5,-5 l 0,-6.46875 c 4.079117,-1.06201 7.919515,-2.70012 11.46875,-4.78125 l 4.59375,4.59375 c 1.958686,1.95869 5.13506,1.95869 7.09375,0 l 9.1875,-9.1875 c 1.95869,-1.95869 1.95869,-5.135064 0,-7.09375 L 107.25,90.96875 c 2.08113,-3.549236 3.71924,-7.389633 4.78125,-11.46875 l 6.46875,0 c 2.77,0 5,-2.23 5,-5 l 0,-13 c 0,-2.77 -2.23,-5 -5,-5 l -6.46875,0 C 110.96924,52.420883 109.33113,48.580486 107.25,45.03125 l 4.59375,-4.59375 c 1.95869,-1.958686 1.95869,-5.135064 0,-7.09375 l -9.1875,-9.1875 c -1.95869,-1.958686 -5.135064,-1.958686 -7.09375,0 L 90.96875,28.75 C 87.419515,26.668871 83.579117,25.030756 79.5,23.96875 L 79.5,17.5 c 0,-2.77 -2.23,-5 -5,-5 l -13,0 z m 6.5,41 c 8.008129,0 14.5,6.491871 14.5,14.5 0,8.008129 -6.491871,14.5 -14.5,14.5 -8.008129,0 -14.5,-6.491871 -14.5,-14.5 0,-8.008129 6.491871,-14.5 14.5,-14.5 z"
         id="rect3656"
         style="fill:url(#linearGradient3952);fill-opacity:1;stroke:url(#linearGradient3954);stroke-width:1;stroke-linecap:round;stroke-linejoin:round;stroke-miterlimit:4;stroke-opacity:1;stroke-dasharray:none" />
      <path
         d="m 167,26.263077 a 7.872315,6.7369257 0 1 1 -15.74463,0 7.872315,6.7369257 0 1 1 15.74463,0 z"
         transform="matrix(3.7473106,0,0,4.3788535,-528.30086,-47.002164)"
         id="path3954"
         style="fill:none;stroke:url(#linearGradient3815);stroke-width:0.24686524;stroke-opacity:1" />
      <path
         d="M 68,38 C 51.43145,38 38,51.431458 38,68 38,84.568549 51.43145,98 68,98 84.56855,98 98,84.568549 98,68 98,51.431458 84.56855,38 68,38 z m 0,16 c 7.731986,0 14,6.268014 14,14 0,7.731986 -6.268014,14 -14,14 -7.731986,0 -14,-6.268014 -14,-14 0,-7.731986 6.268014,-14 14,-14 z"
         id="path3956"
         style="opacity:0.3;fill:url(#radialGradient3947);fill-opacity:1;stroke:none" />
      <path
         d="M 61.5,12 C 58.461649,12 56,14.461649 56,17.5 l 0,6.125 c -3.858709,1.042329 -7.49219,2.582961 -10.875,4.53125 L 40.78125,23.8125 C 38.631446,21.662696 35.149804,21.662696 33,23.8125 L 23.8125,33 c -2.149804,2.149804 -2.149804,5.631446 0,7.78125 L 28.15625,45.125 C 26.207961,48.50781 24.667329,52.141291 23.625,56 L 17.5,56 C 14.461649,56 12,58.461649 12,61.5 l 0,13 c 0,3.038351 2.461649,5.5 5.5,5.5 l 6.125,0 c 1.042329,3.858709 2.582961,7.49219 4.53125,10.875 l -4.34375,4.34375 c -2.149804,2.149804 -2.149803,5.63144 0,7.78125 L 33,112.1875 c 2.149804,2.14981 5.631446,2.14981 7.78125,0 l 4.34375,-4.34375 c 3.38281,1.94829 7.016292,3.48892 10.875,4.53125 l 0,6.125 c 0,3.03835 2.461649,5.5 5.5,5.5 l 13,0 c 3.038351,0 5.5,-2.46165 5.5,-5.5 l 0,-6.125 c 3.858708,-1.04233 7.49219,-2.58296 10.875,-4.53125 l 4.34375,4.34375 c 2.149803,2.14981 5.63144,2.14981 7.78125,0 L 112.1875,103 c 2.14981,-2.14981 2.14981,-5.631447 0,-7.78125 L 107.84375,90.875 C 109.79204,87.492189 111.33267,83.858708 112.375,80 l 6.125,0 c 3.03835,0 5.5,-2.461649 5.5,-5.5 l 0,-13 c 0,-3.038351 -2.46165,-5.5 -5.5,-5.5 l -6.125,0 c -1.04233,-3.858708 -2.58296,-7.492189 -4.53125,-10.875 l 4.34375,-4.34375 c 2.14981,-2.149804 2.14981,-5.631446 0,-7.78125 L 103,23.8125 c -2.14981,-2.149803 -5.631446,-2.149804 -7.78125,0 L 90.875,28.15625 C 87.49219,26.207961 83.858709,24.667329 80,23.625 L 80,17.5 C 80,14.461649 77.538351,12 74.5,12 l -13,0 z M 68,54 c 7.737909,0 14,6.262091 14,14 0,7.737909 -6.262091,14 -14,14 -7.737909,0 -14,-6.262091 -14,-14 0,-7.737909 6.262091,-14 14,-14 z"
         id="path3700"
         style="font-size:medium;font-style:normal;font-variant:normal;font-weight:normal;font-stretch:normal;text-indent:0;text-align:start;text-decoration:none;line-height:normal;letter-spacing:normal;word-spacing:normal;text-transform:none;direction:ltr;block-progression:tb;writing-mode:lr-tb;text-anchor:start;opacity:0.07999998;color:#000000;fill:url(#radialGradient3944);fill-opacity:1;fill-rule:nonzero;stroke:none;stroke-width:1;marker:none;visibility:visible;display:inline;overflow:visible;enable-background:accumulate;font-family:Andale Mono;-inkscape-font-specification:Andale Mono" />
      <path
         d="M 61.5,12 C 58.461649,12 56,14.461649 56,17.5 l 0,6.125 c -3.858709,1.042329 -7.49219,2.582961 -10.875,4.53125 L 40.78125,23.8125 C 38.631446,21.662696 35.149804,21.662696 33,23.8125 L 23.8125,33 c -2.149804,2.149804 -2.149804,5.631446 0,7.78125 L 28.15625,45.125 C 26.207961,48.50781 24.667329,52.141291 23.625,56 L 17.5,56 C 14.461649,56 12,58.461649 12,61.5 l 0,13 c 0,3.038351 2.461649,5.5 5.5,5.5 l 6.125,0 c 1.042329,3.858709 2.582961,7.49219 4.53125,10.875 l -4.34375,4.34375 c -2.149804,2.149804 -2.149803,5.63144 0,7.78125 L 33,112.1875 c 2.149804,2.14981 5.631446,2.14981 7.78125,0 l 4.34375,-4.34375 c 3.38281,1.94829 7.016292,3.48892 10.875,4.53125 l 0,6.125 c 0,3.03835 2.461649,5.5 5.5,5.5 l 13,0 c 3.038351,0 5.5,-2.46165 5.5,-5.5 l 0,-6.125 c 3.858708,-1.04233 7.49219,-2.58296 10.875,-4.53125 l 4.34375,4.34375 c 2.149803,2.14981 5.63144,2.14981 7.78125,0 L 112.1875,103 c 2.14981,-2.14981 2.14981,-5.631447 0,-7.78125 L 107.84375,90.875 C 109.79204,87.492189 111.33267,83.858708 112.375,80 l 6.125,0 c 3.03835,0 5.5,-2.461649 5.5,-5.5 l 0,-13 c 0,-3.038351 -2.46165,-5.5 -5.5,-5.5 l -6.125,0 c -1.04233,-3.858708 -2.58296,-7.492189 -4.53125,-10.875 l 4.34375,-4.34375 c 2.14981,-2.149804 2.14981,-5.631446 0,-7.78125 L 103,23.8125 c -2.14981,-2.149803 -5.631446,-2.149804 -7.78125,0 L 90.875,28.15625 C 87.49219,26.207961 83.858709,24.667329 80,23.625 L 80,17.5 C 80,14.461649 77.538351,12 74.5,12 l -13,0 z M 68,54 c 7.737909,0 14,6.262091 14,14 0,7.737909 -6.262091,14 -14,14 -7.737909,0 -14,-6.262091 -14,-14 0,-7.737909 6.262091,-14 14,-14 z"
         id="path3715"
         style="font-size:medium;font-style:normal;font-variant:normal;font-weight:normal;font-stretch:normal;text-indent:0;text-align:start;text-decoration:none;line-height:normal;letter-spacing:normal;word-spacing:normal;text-transform:none;direction:ltr;block-progression:tb;writing-mode:lr-tb;text-anchor:start;opacity:0.2;color:#000000;fill:url(#radialGradient3941);fill-opacity:1;fill-rule:nonzero;stroke:none;stroke-width:1;marker:none;visibility:visible;display:inline;overflow:visible;enable-background:accumulate;font-family:Andale Mono;-inkscape-font-specification:Andale Mono" />
      <path
         d="m 106.59924,44.25 4.52549,-4.525483 c 1.56694,-1.566949 1.56694,-4.089906 0,-5.656854 l -9.19239,-9.192388 c -1.56695,-1.566949 -4.08991,-1.566949 -5.65686,0 L 91.75,29.400758 M 29.400695,44.25 24.875212,39.724517 c -1.566949,-1.566949 -1.566949,-4.089906 0,-5.656854 L 34.0676,24.875275 c 1.566948,-1.566949 4.089905,-1.566949 5.656854,0 l 4.525483,4.525483 M 57.5,23.9 l 0,-6.4 c 0,-2.216 1.784,-4 4,-4 l 13,0 c 2.216,0 4,1.784 4,4 l 0,6.4"
         id="path3724"
         style="opacity:0.6;fill:none;stroke:url(#linearGradient3938);stroke-width:1;stroke-linecap:round;stroke-miterlimit:4;stroke-opacity:1;stroke-dasharray:none" />
    </g>
    <g
       id="g4091" />
    <g
       id="g4189" />
    <g
       id="g4308" />
    <g
       id="g4392" />
    <g
       transform="translate(1.1e-6,-0.00448573)"
       id="g3834" />
    <g
       transform="translate(1.1e-6,-0.00448573)"
       id="g3868" />
    <g
       transform="translate(1.1e-6,-0.00448573)"
       id="g3816">
      <path
         d="m 127.5,94.500026 a 34.000001,33.999999 0 0 1 -68,0 34.000001,33.999999 0 1 1 68,0 z"
         id="path3126"
         style="fill:url(#linearGradient3040);fill-opacity:1;stroke:url(#linearGradient3042);stroke-width:1.00000012;stroke-linecap:round;stroke-linejoin:miter;stroke-miterlimit:4;stroke-opacity:1;stroke-dasharray:none" />
      <path
         d="m 83,118 0,-25.000003 -14.5,0 L 93.500036,69 118.5,92.999997 l -14.5,0 L 104,118 83,118 z"
         id="rect4279"
         style="fill:#ffffff;fill-opacity:1;stroke:none" />
      <path
         d="m 127.99995,94.5 a 34.499974,34.500004 0 0 1 -68.999947,0 34.499974,34.500004 0 1 1 68.999947,0 z"
         id="path3130"
         style="opacity:0.07999998;fill:url(#radialGradient3036);fill-opacity:1;stroke:none" />
      <path
         d="m 126.49998,94.49985 a 33.000001,32.96245 0 1 1 -65.999955,0 33.000001,32.96245 0 1 1 65.999955,0 z"
         id="path3136"
         style="opacity:0.4;fill:none;stroke:url(#linearGradient3033);stroke-width:0.9999997;stroke-miterlimit:4;stroke-opacity:1;stroke-dasharray:none" />
    </g>
    <g
       transform="translate(1.1e-6,-0.00448573)"
       id="g3852" />
    <g
       transform="translate(1.1e-6,-0.00448573)"
       id="g3896" />
    <g
       transform="translate(25.000001,-0.00448573)"
       id="g3873" />
  </g>
</svg>
