<?xml version="1.0" encoding="UTF-8" standalone="no"?>
<!-- Created with Inkscape (http://www.inkscape.org/) -->

<svg
   xmlns:svg="http://www.w3.org/2000/svg"
   xmlns="http://www.w3.org/2000/svg"
   xmlns:xlink="http://www.w3.org/1999/xlink"
   version="1.0"
   width="128"
   height="128"
   id="svg11300"
   style="display:inline;enable-background:new">
  <title
     id="title2897">Candy Icon Theme</title>
  <defs
     id="defs3">
    <filter
       x="-0.64890552"
       y="-0.6760745"
       width="2.297811"
       height="2.352149"
       color-interpolation-filters="sRGB"
       id="filter9328">
      <feGaussianBlur
         id="feGaussianBlur9330"
         stdDeviation="8.0038373" />
    </filter>
    <filter
       x="-0.57194757"
       y="-0.54763132"
       width="2.1438951"
       height="2.0952628"
       color-interpolation-filters="sRGB"
       id="filter9324">
      <feGaussianBlur
         id="feGaussianBlur9326"
         stdDeviation="8.0038373" />
    </filter>
    <filter
       x="-0.55978358"
       y="-0.57375151"
       width="2.1195672"
       height="2.1475031"
       color-interpolation-filters="sRGB"
       id="filter9320">
      <feGaussianBlur
         id="feGaussianBlur9322"
         stdDeviation="8.0038373" />
    </filter>
    <filter
       x="-0.64863944"
       y="-0.62953919"
       width="2.2972789"
       height="2.2590785"
       color-interpolation-filters="sRGB"
       id="filter9304">
      <feGaussianBlur
         id="feGaussianBlur9306"
         stdDeviation="8.0989179" />
    </filter>
    <filter
       x="-0.55994791"
       y="-0.61251056"
       width="2.1198957"
       height="2.2250211"
       color-interpolation-filters="sRGB"
       id="filter9300">
      <feGaussianBlur
         id="feGaussianBlur9302"
         stdDeviation="8.0989179" />
    </filter>
    <filter
       x="-0.53997624"
       y="-0.55364859"
       width="2.0799525"
       height="2.1072972"
       color-interpolation-filters="sRGB"
       id="filter9296">
      <feGaussianBlur
         id="feGaussianBlur9298"
         stdDeviation="8.0989179" />
    </filter>
    <linearGradient
       id="linearGradient6422">
      <stop
         id="stop6424"
         style="stop-color:#ffffff;stop-opacity:1"
         offset="0" />
      <stop
         id="stop6426"
         style="stop-color:#ffffff;stop-opacity:0"
         offset="1" />
    </linearGradient>
    <linearGradient
       id="linearGradient6328">
      <stop
         id="stop6330"
         style="stop-color:#ff0000;stop-opacity:1"
         offset="0" />
      <stop
         id="stop6332"
         style="stop-color:#ff0000;stop-opacity:0"
         offset="1" />
    </linearGradient>
    <linearGradient
       id="linearGradient6320">
      <stop
         id="stop6322"
         style="stop-color:#0000ff;stop-opacity:1"
         offset="0" />
      <stop
         id="stop6324"
         style="stop-color:#0000ff;stop-opacity:0"
         offset="1" />
    </linearGradient>
    <linearGradient
       id="linearGradient6294">
      <stop
         id="stop6296"
         style="stop-color:#000000;stop-opacity:0"
         offset="0" />
      <stop
         id="stop6298"
         style="stop-color:#000000;stop-opacity:1"
         offset="1" />
    </linearGradient>
    <linearGradient
       id="linearGradient6273">
      <stop
         id="stop6275"
         style="stop-color:#a0a0a0;stop-opacity:1"
         offset="0" />
      <stop
         id="stop6277"
         style="stop-color:#c8c8c8;stop-opacity:1"
         offset="1" />
    </linearGradient>
    <linearGradient
       id="linearGradient6265">
      <stop
         id="stop6267"
         style="stop-color:#e6e6e6;stop-opacity:1"
         offset="0" />
      <stop
         id="stop6269"
         style="stop-color:#fafafa;stop-opacity:1"
         offset="1" />
    </linearGradient>
    <linearGradient
       x1="72.811226"
       y1="119.99996"
       x2="72.502487"
       y2="10.000041"
       id="linearGradient3961"
       xlink:href="#linearGradient6265"
       gradientUnits="userSpaceOnUse"
       gradientTransform="translate(3.2375877e-4,3.9998322)" />
    <linearGradient
       x1="61.497517"
       y1="119.99996"
       x2="61.188778"
       y2="10.000041"
       id="linearGradient3963"
       xlink:href="#linearGradient6273"
       gradientUnits="userSpaceOnUse"
       gradientTransform="translate(3.2375877e-4,3.9998322)" />
    <radialGradient
       cx="67"
       cy="20.098719"
       r="55"
       fx="67"
       fy="20.098719"
       id="radialGradient3965"
       xlink:href="#linearGradient6294"
       gradientUnits="userSpaceOnUse"
       gradientTransform="translate(3.2358601e-4,3.999822)" />
    <linearGradient
       x1="94.563042"
       y1="28.24971"
       x2="64.836411"
       y2="13.30601"
       id="linearGradient3967"
       xlink:href="#linearGradient6328"
       gradientUnits="userSpaceOnUse"
       gradientTransform="translate(3.2375877e-4,3.9998322)" />
    <linearGradient
       x1="36.352951"
       y1="95.028572"
       x2="42.781559"
       y2="64.665894"
       id="linearGradient3969"
       xlink:href="#linearGradient6320"
       gradientUnits="userSpaceOnUse"
       gradientTransform="translate(3.2375877e-4,3.9998322)" />
    <linearGradient
       x1="98.012787"
       y1="40.128571"
       x2="117.9324"
       y2="68.783272"
       id="linearGradient3971"
       xlink:href="#linearGradient6320"
       gradientUnits="userSpaceOnUse"
       gradientTransform="translate(3.2375877e-4,3.9998322)" />
    <linearGradient
       x1="44.262062"
       y1="94.499535"
       x2="74.292007"
       y2="113.59142"
       id="linearGradient3973"
       xlink:href="#linearGradient6328"
       gradientUnits="userSpaceOnUse"
       gradientTransform="translate(3.2375877e-4,3.9998322)" />
    <linearGradient
       x1="43.619648"
       y1="59.61002"
       x2="43.619648"
       y2="62.976337"
       id="linearGradient3975"
       xlink:href="#linearGradient6422"
       gradientUnits="userSpaceOnUse"
       gradientTransform="matrix(2.0869979,0,0,1.0911715,-24.033789,-5.9249578)" />
    <filter
       x="-0.092352942"
       y="-0.17127272"
       width="1.1847059"
       height="1.3425455"
       color-interpolation-filters="sRGB"
       id="filter4440">
      <feGaussianBlur
         id="feGaussianBlur4442"
         stdDeviation="3.925" />
    </filter>
    <linearGradient
       id="linearGradient3665">
      <stop
         id="stop3667"
         style="stop-color:#df9c61;stop-opacity:1"
         offset="0" />
      <stop
         id="stop3669"
         style="stop-color:#b74725;stop-opacity:1"
         offset="1" />
    </linearGradient>
    <linearGradient
       id="linearGradient3657">
      <stop
         id="stop3659-8"
         style="stop-color:#f1bb8b;stop-opacity:1"
         offset="0" />
      <stop
         id="stop3661"
         style="stop-color:#e65c32;stop-opacity:1"
         offset="1" />
    </linearGradient>
    <linearGradient
       id="linearGradient3703">
      <stop
         id="stop3705-5"
         style="stop-color:#ffffff;stop-opacity:1"
         offset="0" />
      <stop
         id="stop3707"
         style="stop-color:#ffffff;stop-opacity:0"
         offset="1" />
    </linearGradient>
    <linearGradient
       id="linearGradient3693">
      <stop
         id="stop3695"
         style="stop-color:#000000;stop-opacity:0"
         offset="0" />
      <stop
         id="stop3697"
         style="stop-color:#000000;stop-opacity:1"
         offset="1" />
    </linearGradient>
    <linearGradient
       x1="170.13911"
       y1="37.395508"
       x2="170.13911"
       y2="39.217434"
       id="linearGradient4405"
       xlink:href="#linearGradient3703"
       gradientUnits="userSpaceOnUse"
       gradientTransform="matrix(7.2738117,0,0,10.338321,-1146.4171,-327.42429)" />
    <radialGradient
       cx="171.35582"
       cy="36.923706"
       r="3.6441751"
       fx="171.35582"
       fy="36.923706"
       id="radialGradient4408"
       xlink:href="#linearGradient3693"
       gradientUnits="userSpaceOnUse"
       gradientTransform="matrix(9.4671555,0,0,9.4671633,-1528.7522,-273.32793)" />
    <linearGradient
       x1="170.5"
       y1="35.566666"
       x2="170.5"
       y2="49.433331"
       id="linearGradient4412"
       xlink:href="#linearGradient3657"
       gradientUnits="userSpaceOnUse"
       gradientTransform="matrix(3.9999994,0,0,5.2307684,-588.49989,-127.80811)" />
    <linearGradient
       x1="171.63333"
       y1="35.566666"
       x2="171.63333"
       y2="49.433331"
       id="linearGradient4414"
       xlink:href="#linearGradient3665"
       gradientUnits="userSpaceOnUse"
       gradientTransform="matrix(3.9999994,0,0,5.2307684,-588.49989,-127.80811)" />
  </defs>
  <g
     transform="translate(-3,-4)"
     id="layer1"
     style="display:inline">
    <g
       id="layer6"
       style="display:none" />
    <path
       d="m 16,68.5 c 0,30.37566 20.624338,55 51,55 30.375662,0 51,-24.62434 51,-55 l -6,0 c 0,24.85281 -20.147189,45 -45,45 -24.852815,0 -45,-20.14719 -45,-45 l -6,0 z"
       id="path4386"
       style="opacity:0.8;fill:#000000;fill-opacity:1;stroke:none;filter:url(#filter4440)" />
    <g
       transform="translate(0,-0.99999779)"
       id="g3947">
      <path
         d="m 67,13.5 c -30.651804,0 -55.5,24.848197 -55.5,55.5 0,30.651803 24.848196,55.5 55.5,55.5 30.651804,0 55.5,-24.848197 55.5,-55.5 C 122.5,38.348197 97.651804,13.5 67,13.5 z m 0,37 C 77.21192,50.50032 85.50019,58.78807 85.5,69 85.49968,79.21201 77.212,87.50032 67,87.5 56.78799,87.49968 48.499682,79.21201 48.5,69 48.500318,58.788 56.78799,50.49968 67,50.5 z"
         id="path5486"
         style="fill:url(#linearGradient3961);fill-opacity:1;stroke:url(#linearGradient3963);stroke-width:0.9999181;stroke-linecap:square;stroke-linejoin:round;stroke-miterlimit:4;stroke-opacity:1;stroke-dasharray:none" />
      <path
         d="m 67,13 c -30.927946,0 -56,25.072054 -56,56 0,30.927946 25.072054,56 56,56 30.927946,0 56,-25.072054 56,-56 C 123,38.072054 97.927946,13 67,13 z m 0,38 c 9.93592,3.1e-4 18.00018,8.06408 18,18 -3.1e-4,9.936 -8.064,18.00031 -18,18 -9.93601,-3.1e-4 -18.000309,-8.064 -18,-18 3.11e-4,-9.936 8.064,-18.00031 18,-18 z"
         id="path6281"
         style="opacity:0.05;fill:url(#radialGradient3965);fill-opacity:1;stroke:none" />
      <path
         d="m 87.500458,69.000472 a 20.500139,20.50014 0 1 1 0,-2.5e-4"
         id="path6316"
         style="opacity:0.05;fill:none;stroke:#000000;stroke-width:2.99971938;stroke-linecap:square;stroke-linejoin:round;stroke-miterlimit:4;stroke-opacity:1;stroke-dasharray:none" />
      <path
         d="m 98.820098,28.694662 c -11.91145,-5.70376 -15.56441,11.56406 -18.80462,23.79856 0.63832,0.5046 1.24474,1.06795 1.83405,1.65729 0.58931,0.58934 1.15272,1.1957 1.65729,1.83405 10.66781,-1.73 33.401952,-3.16741 23.798552,-18.80462 -2.12975,-3.5271 -4.54286,-6.77084 -8.485272,-8.48528 z"
         id="rect6421"
         style="opacity:0.15;fill:#ffff00;fill-opacity:1;stroke:none;filter:url(#filter9328)" />
      <path
         d="m 26.695203,100.81955 c 1.787605,4.07742 5.056942,6.37675 8.485282,8.48528 17.364754,12.08619 17.065671,-9.05527 18.804621,-23.798558 -0.638326,-0.5046 -1.244749,-1.06793 -1.834059,-1.65728 -0.589309,-0.58935 -1.152716,-1.1957 -1.657281,-1.83406 -18.746799,1.53112 -32.509107,7.46364 -23.798563,18.804618 z"
         id="path6470"
         style="opacity:0.15;fill:#fff80d;fill-opacity:1;stroke:none;display:inline;filter:url(#filter9304);enable-background:new" />
      <path
         d="m 76.833488,17.933382 c -20.25723,-4.2599 -10.42588,13.96017 -2.58535,30.69285 1.46929,0.66428 4.29791,2.73672 5.61266,3.75651 7.51521,-7.60379 16.84032,-13.38239 18.56155,-24.04163 -2.26419,-3.78132 -16.59191,-10.70751 -21.58886,-10.40773 z"
         id="path6472"
         style="opacity:0.15;fill:url(#linearGradient3967);fill-opacity:1;stroke:none;display:inline;filter:url(#filter9324);enable-background:new" />
      <path
         d="m 16.309573,77.750192 c -0.981034,4.57822 6.613292,19.83624 10.054174,22.649518 7.632146,-1.542648 14.191764,-8.362678 24.019533,-18.539458 -1.026992,-1.32416 -4.150782,-5.23684 -4.817164,-6.71751 -10.763203,-3.17494 -34.039145,-14.17185 -29.256543,2.60745 z"
         id="path6474"
         style="opacity:0.15;fill:url(#linearGradient3969);fill-opacity:1;stroke:none;display:inline;filter:url(#filter9300);enable-background:new" />
      <path
         d="m 83.617298,56.139242 c 1.02699,1.32417 3.2669,4.52973 3.93328,6.01041 11.05277,0.71869 34.397922,21.38352 29.786872,-3.31456 0.86062,-4.24016 -6.07733,-18.3152 -9.70062,-21.2353 -5.68877,-1.62239 -17.547732,10.08028 -24.019532,18.53945 z"
         id="path6476"
         style="opacity:0.15;fill:url(#linearGradient3971);fill-opacity:1;stroke:none;display:inline;filter:url(#filter9320);enable-background:new" />
      <path
         d="m 54.139785,85.616762 c -5.833831,7.45049 -13.778759,9.90661 -18.539456,24.019528 2.920102,2.90677 18.939692,9.52167 23.179849,10.23096 16.43284,4.03047 16.93334,-6.18163 2.2539,-29.963658 -1.48289,-0.6669 -5.56833,-3.25832 -6.894293,-4.28683 z"
         id="path6478"
         style="opacity:0.15;fill:url(#linearGradient3973);fill-opacity:1;stroke:none;display:inline;filter:url(#filter9296);enable-background:new" />
      <path
         d="m 67.000328,50.499832 c -10.21202,-3.2e-4 -18.499685,8.28799 -18.500004,18.5 -3.18e-4,10.21201 8.287984,18.49968 18.500004,18.5 10.21201,3.2e-4 18.49968,-8.28798 18.5,-18.5 1.9e-4,-10.21193 -8.28807,-18.49968 -18.5,-18.5 z m 0,10 c 4.69198,0 8.5,3.80802 8.5,8.5 0,4.69198 -3.80802,8.5 -8.5,8.5 -4.69199,0 -8.5,-3.80802 -8.5,-8.5 -1e-5,-4.69198 3.80801,-8.5 8.5,-8.5 z"
         id="path6412"
         style="opacity:0.9;fill:#bcbcbc;fill-opacity:1;stroke:#a8a8a8;stroke-width:1;stroke-linecap:square;stroke-linejoin:round;stroke-miterlimit:4;stroke-opacity:1;stroke-dasharray:none" />
      <path
         d="m 67.000328,56.999832 c -6.624,-2.1e-4 -11.999799,5.376 -12.000004,12 -2.06e-4,6.624 5.376004,11.9998 12.000004,12 6.624,2.1e-4 11.99979,-5.376 12,-12 1.2e-4,-6.62395 -5.37606,-11.99979 -12,-12 z m 0,4 c 4.41596,1.4e-4 8.00008,3.58403 8,8 -1.4e-4,4.416 -3.584,8.00014 -8,8 -4.416,-1.4e-4 -8.00014,-3.584 -8,-8 1.3e-4,-4.416 3.584,-8.00014 8,-8 z"
         id="path6418"
         style="opacity:0.15;fill:#ffffff;fill-opacity:1;stroke:none" />
      <path
         d="m 76.500338,69.000132 a 9.5000144,9.5000142 0 1 1 0,-1.2e-4"
         id="path6430"
         style="opacity:0.6;fill:none;stroke:url(#linearGradient3975);stroke-width:0.99997157;stroke-linecap:square;stroke-linejoin:round;stroke-miterlimit:4;stroke-opacity:1;stroke-dasharray:none" />
    </g>
    <g
       id="g3098" />
    <g
       id="g3144" />
    <g
       transform="translate(0,-1)"
       id="g3188" />
    <g
       id="g3228" />
    <g
       id="g3108" />
    <g
       id="g3962" />
    <g
       id="g4318" />
    <g
       id="g4416">
      <path
         d="m 127.5,94.49954 a 34.000001,33.999999 0 0 1 -67.999999,0 34.000001,33.999999 0 1 1 67.999999,0 z"
         id="path3126"
         style="fill:url(#linearGradient4412);fill-opacity:1;stroke:url(#linearGradient4414);stroke-width:1.00000012;stroke-linecap:round;stroke-linejoin:miter;stroke-miterlimit:4;stroke-opacity:1;stroke-dasharray:none" />
      <path
         d="m 106.5,70 c -2.20914,0 -4,1.790861 -4,4 0,2.209139 1.79086,4 4,4 2.20914,0 4,-1.790861 4,-4 0,-2.209139 -1.79086,-4 -4,-4 z M 94,75 c -2.409205,0 -4.704744,0.437994 -6.84375,1.21875 l 3.53125,7.25 C 91.74281,83.165238 92.847058,83 94,83 c 5.764713,0 10.56279,4.080145 11.71875,9.5 l 0.0812,0.3 8.00005,0 0.044,-0.3 c -0.49691,-3.958211 -2.16364,-7.545025 -4.625,-10.4375 -0.85329,0.287538 -1.76898,0.4375 -2.719,0.4375 -4.20607,0 -7.693871,-3.050406 -8.375,-7.0625 C 96.789587,75.155956 95.418973,75 94,75 z m -10.90625,3.25 c -3.778845,2.465905 -6.694448,6.162623 -8.125,10.53125 C 77.384523,90.280317 79,92.947818 79,96 c 0,2.782892 -1.339154,5.26196 -3.40625,6.8125 1.663862,3.88684 4.532207,7.1498 8.125,9.3125 l 3.09375,-7.53125 C 83.892084,102.40493 82,98.930498 82,95 c 0,-3.857657 1.827738,-7.273476 4.65625,-9.46875 L 83.09375,78.25 z M 70.5,92 c -2.209139,0 -4,1.790861 -4,4 0,2.209139 1.790861,4 4,4 2.209139,0 4,-1.790861 4,-4 0,-2.209139 -1.790861,-4 -4,-4 z m 35.21875,5.5 C 104.56279,102.91986 99.764713,107 94,107 c -1.086954,0 -2.12372,-0.16663 -3.125,-0.4375 L 87.84375,114 c 1.94471,0.63062 4.001396,1 6.15625,1 1.418973,0 2.789587,-0.15596 4.125,-0.4375 0.681129,-4.01209 4.16893,-7.0625 8.375,-7.0625 0.95002,0 1.86571,0.14996 2.71875,0.4375 2.46136,-2.89247 4.12809,-6.47929 4.625,-10.4375 l -0.0438,-0.3 -8.00025,0 -0.0812,0.3 2e-4,0 z M 106.5,112 c -2.20914,0 -4,1.79086 -4,4 0,2.20914 1.79086,4 4,4 2.20914,0 4,-1.79086 4,-4 0,-2.20914 -1.79086,-4 -4,-4 z"
         id="path4358"
         style="fill:#ffffff;fill-opacity:1;stroke:none" />
      <path
         d="m 127.99995,94.499514 a 34.499974,34.500004 0 0 1 -68.999946,0 34.499974,34.500004 0 1 1 68.999946,0 z"
         id="path3130"
         style="opacity:0.07999998;fill:url(#radialGradient4408);fill-opacity:1;stroke:none" />
      <path
         d="m 126.49998,94.499364 a 33.000001,32.96245 0 1 1 -65.999954,0 33.000001,32.96245 0 1 1 65.999954,0 z"
         id="path3136"
         style="opacity:0.4;fill:none;stroke:url(#linearGradient4405);stroke-width:0.9999997;stroke-miterlimit:4;stroke-opacity:1;stroke-dasharray:none" />
    </g>
    <g
       id="g4350" />
    <g
       id="g4345" />
    <g
       transform="translate(25,0)"
       id="g4323" />
  </g>
</svg>
