<?xml version="1.0" encoding="UTF-8" standalone="no"?>
<!-- Created with Inkscape (http://www.inkscape.org/) -->

<svg
   xmlns:dc="http://purl.org/dc/elements/1.1/"
   xmlns:cc="http://creativecommons.org/ns#"
   xmlns:rdf="http://www.w3.org/1999/02/22-rdf-syntax-ns#"
   xmlns:svg="http://www.w3.org/2000/svg"
   xmlns="http://www.w3.org/2000/svg"
   xmlns:xlink="http://www.w3.org/1999/xlink"
   xmlns:sodipodi="http://sodipodi.sourceforge.net/DTD/sodipodi-0.dtd"
   xmlns:inkscape="http://www.inkscape.org/namespaces/inkscape"
   height="128"
   id="svg11300"
   inkscape:export-filename="/home/jonieno"
   inkscape:export-xdpi="90.000000"
   inkscape:export-ydpi="90.000000"
   inkscape:output_extension="org.inkscape.output.svg.inkscape"
   inkscape:version="0.47 r22583"
   sodipodi:docname="menu-editor.svg"
   sodipodi:version="0.32"
   style="display:inline;enable-background:new"
   version="1.0"
   width="128">
  <title
     id="title2897">Candy Icon Theme</title>
  <defs
     id="defs3">
    <linearGradient
       id="linearGradient3959">
      <stop
         id="stop3961"
         offset="0"
         style="stop-color:#382f2c;stop-opacity:1;" />
      <stop
         id="stop3963"
         offset="1"
         style="stop-color:#161616;stop-opacity:1;" />
    </linearGradient>
    <linearGradient
       id="linearGradient3949">
      <stop
         id="stop3951"
         offset="0"
         style="stop-color:#63493d;stop-opacity:1;" />
      <stop
         id="stop3953"
         offset="1"
         style="stop-color:#382f2c;stop-opacity:1;" />
    </linearGradient>
    <linearGradient
       id="linearGradient3596">
      <stop
         id="stop3598"
         offset="0"
         style="stop-color:#f0f0f0;stop-opacity:1" />
      <stop
         id="stop3600"
         offset="1"
         style="stop-color:#ffffff;stop-opacity:1" />
    </linearGradient>
    <linearGradient
       id="linearGradient3604">
      <stop
         id="stop3606"
         offset="0"
         style="stop-color:#bebebe;stop-opacity:1" />
      <stop
         id="stop3608"
         offset="1"
         style="stop-color:#d7d7d7;stop-opacity:1;" />
    </linearGradient>
    <linearGradient
       id="linearGradient3616">
      <stop
         id="stop3618"
         offset="0"
         style="stop-color:#000000;stop-opacity:0" />
      <stop
         id="stop3620"
         offset="1"
         style="stop-color:#000000;stop-opacity:1" />
    </linearGradient>
    <filter
       color-interpolation-filters="sRGB"
       height="2.6848011"
       id="filter4157"
       inkscape:collect="always"
       width="1.1719184"
       x="-0.085959181"
       y="-0.84240049">
      <feGaussianBlur
         id="feGaussianBlur4159"
         inkscape:collect="always"
         stdDeviation="3.5099998" />
    </filter>
    <linearGradient
       gradientTransform="matrix(2.6690417,0,0,2.6173401,-358.32066,-6.292794)"
       gradientUnits="userSpaceOnUse"
       id="linearGradient3046"
       spreadMethod="reflect"
       x1="151.95638"
       x2="148.99538"
       xlink:href="#linearGradient4042"
       y1="44.448338"
       y2="42.379314" />
    <linearGradient
       gradientTransform="matrix(2.6690417,0,0,2.6173401,-358.32066,-6.292794)"
       gradientUnits="userSpaceOnUse"
       id="linearGradient3044"
       spreadMethod="reflect"
       x1="148.51208"
       x2="152"
       xlink:href="#linearGradient3603"
       y1="42.851101"
       y2="45" />
    <linearGradient
       gradientTransform="matrix(2.6690417,0,0,2.6173401,-358.32066,-6.292794)"
       gradientUnits="userSpaceOnUse"
       id="linearGradient3040"
       x1="148"
       x2="154"
       xlink:href="#linearGradient3854"
       y1="38"
       y2="42" />
    <linearGradient
       gradientTransform="matrix(2.6690417,0,0,2.6173401,-358.32066,-6.292794)"
       gradientUnits="userSpaceOnUse"
       id="linearGradient3038"
       spreadMethod="reflect"
       x1="148.51208"
       x2="152"
       xlink:href="#linearGradient3603"
       y1="42.851101"
       y2="45" />
    <linearGradient
       gradientTransform="matrix(2.6690416,0,0,2.6173401,-358.32068,-6.292787)"
       gradientUnits="userSpaceOnUse"
       id="linearGradient3032"
       x1="160.55644"
       x2="157.11058"
       xlink:href="#linearGradient3830"
       y1="31.307699"
       y2="28.854982" />
    <linearGradient
       gradientTransform="matrix(2.6690417,0,0,2.6173401,-358.32066,-6.292794)"
       gradientUnits="userSpaceOnUse"
       id="linearGradient3029"
       spreadMethod="reflect"
       x1="170.6759"
       x2="174.48253"
       xlink:href="#linearGradient3765"
       y1="9.3163481"
       y2="11.903982" />
    <linearGradient
       gradientTransform="matrix(2.6690417,0,0,2.6173401,-358.32066,-6.292794)"
       gradientUnits="userSpaceOnUse"
       id="linearGradient3027"
       spreadMethod="reflect"
       x1="170.22192"
       x2="174.16476"
       xlink:href="#linearGradient3749"
       y1="9.8157158"
       y2="12.494143" />
    <linearGradient
       gradientTransform="matrix(2.6690417,0,0,2.6173401,-358.32066,-6.292794)"
       gradientUnits="userSpaceOnUse"
       id="linearGradient3024"
       x1="168"
       x2="172.45085"
       xlink:href="#linearGradient4021"
       y1="13"
       y2="16.377022" />
    <linearGradient
       gradientTransform="matrix(2.6690417,0,0,2.6173401,-358.32066,-6.292794)"
       gradientUnits="userSpaceOnUse"
       id="linearGradient3022"
       spreadMethod="reflect"
       x1="167.60414"
       x2="172"
       xlink:href="#linearGradient4005"
       y1="13.545555"
       y2="17" />
    <linearGradient
       gradientTransform="matrix(2.6690417,0,0,2.6173401,-358.32066,-6.29279)"
       gradientUnits="userSpaceOnUse"
       id="linearGradient3019"
       spreadMethod="reflect"
       x1="148.91301"
       x2="152.27544"
       xlink:href="#linearGradient3714"
       y1="42.310387"
       y2="44.517265" />
    <linearGradient
       gradientTransform="matrix(2.6690417,0,0,2.6173401,-358.32066,-6.29279)"
       gradientUnits="userSpaceOnUse"
       id="linearGradient3016"
       spreadMethod="reflect"
       x1="148.91301"
       x2="152.27544"
       xlink:href="#linearGradient3724"
       y1="42.310387"
       y2="44.517265" />
    <linearGradient
       gradientUnits="userSpaceOnUse"
       id="linearGradient3735"
       x1="159.35204"
       x2="161.5956"
       xlink:href="#linearGradient3838"
       y1="29.313345"
       y2="30.902245" />
    <linearGradient
       gradientUnits="userSpaceOnUse"
       id="linearGradient3733"
       x1="154.24635"
       x2="157.31458"
       xlink:href="#linearGradient3822"
       y1="29.277109"
       y2="31.374989" />
    <linearGradient
       id="linearGradient3603">
      <stop
         id="stop3605"
         offset="0"
         style="stop-color:#f9ecc9;stop-opacity:1" />
      <stop
         id="stop3607"
         offset="1"
         style="stop-color:#e8c976;stop-opacity:1" />
    </linearGradient>
    <linearGradient
       id="linearGradient3749">
      <stop
         id="stop3751"
         offset="0"
         style="stop-color:#efc9c9;stop-opacity:1" />
      <stop
         id="stop3753"
         offset="1"
         style="stop-color:#cb6f61;stop-opacity:1" />
    </linearGradient>
    <linearGradient
       id="linearGradient3765">
      <stop
         id="stop3767"
         offset="0"
         style="stop-color:#d7a5a5;stop-opacity:1;" />
      <stop
         id="stop3769"
         offset="1"
         style="stop-color:#a75549;stop-opacity:1;" />
    </linearGradient>
    <linearGradient
       id="linearGradient3822">
      <stop
         id="stop3824"
         offset="0"
         style="stop-color:#e6c932;stop-opacity:1" />
      <stop
         id="stop3826"
         offset="1"
         style="stop-color:#fff7cd;stop-opacity:1" />
    </linearGradient>
    <linearGradient
       id="linearGradient3830">
      <stop
         id="stop3832"
         offset="0"
         style="stop-color:#ffdc58;stop-opacity:1" />
      <stop
         id="stop3834"
         offset="1"
         style="stop-color:#ffc310;stop-opacity:1" />
    </linearGradient>
    <linearGradient
       id="linearGradient3838">
      <stop
         id="stop3840"
         offset="0"
         style="stop-color:#d5a643;stop-opacity:1" />
      <stop
         id="stop3842"
         offset="1"
         style="stop-color:#c18300;stop-opacity:1" />
    </linearGradient>
    <linearGradient
       id="linearGradient3854">
      <stop
         id="stop3856"
         offset="0"
         style="stop-color:#b7a025;stop-opacity:1;" />
      <stop
         id="stop3858"
         offset="1"
         style="stop-color:#9a7e42;stop-opacity:1;" />
    </linearGradient>
    <linearGradient
       id="linearGradient3714">
      <stop
         id="stop3716"
         offset="0"
         style="stop-color:#000000;stop-opacity:0" />
      <stop
         id="stop3718"
         offset="1"
         style="stop-color:#000000;stop-opacity:1" />
    </linearGradient>
    <linearGradient
       id="linearGradient3724">
      <stop
         id="stop3726"
         offset="0"
         style="stop-color:#ffffff;stop-opacity:1" />
      <stop
         id="stop3728"
         offset="1"
         style="stop-color:#ffffff;stop-opacity:0" />
    </linearGradient>
    <linearGradient
       id="linearGradient4005">
      <stop
         id="stop4007"
         offset="0"
         style="stop-color:#e6e6e6;stop-opacity:1" />
      <stop
         id="stop4009"
         offset="1"
         style="stop-color:#787878;stop-opacity:1" />
    </linearGradient>
    <linearGradient
       id="linearGradient4021">
      <stop
         id="stop4023"
         offset="0"
         style="stop-color:#b4b4b4;stop-opacity:1;" />
      <stop
         id="stop4025"
         offset="1"
         style="stop-color:#464646;stop-opacity:1;" />
    </linearGradient>
    <linearGradient
       id="linearGradient4042">
      <stop
         id="stop4044"
         offset="0"
         style="stop-color:#c8a750;stop-opacity:1" />
      <stop
         id="stop4046"
         offset="1"
         style="stop-color:#e5d097;stop-opacity:1" />
    </linearGradient>
    <linearGradient
       gradientTransform="matrix(1.8813559,0,0,2.770092,-210.91525,-21.734514)"
       gradientUnits="userSpaceOnUse"
       id="linearGradient5719"
       inkscape:collect="always"
       x1="168"
       x2="155"
       xlink:href="#linearGradient3714"
       y1="38"
       y2="50" />
    <filter
       color-interpolation-filters="sRGB"
       height="1.441931"
       id="filter6643"
       inkscape:collect="always"
       width="1.2136"
       x="-0.1068"
       y="-0.22096552">
      <feGaussianBlur
         id="feGaussianBlur6645"
         inkscape:collect="always"
         stdDeviation="2.67" />
    </filter>
    <linearGradient
       gradientTransform="matrix(2.6690417,0,0,2.6173401,-358.32066,-6.29279)"
       gradientUnits="userSpaceOnUse"
       id="linearGradient6661"
       inkscape:collect="always"
       spreadMethod="pad"
       x1="172.49808"
       x2="171.08978"
       xlink:href="#linearGradient3724"
       y1="8.618042"
       y2="10.56392" />
    <radialGradient
       cx="158"
       cy="25.5"
       fx="158"
       fy="25.5"
       gradientTransform="matrix(2.625,0,0,0.1875,-347.75,9.21875)"
       gradientUnits="userSpaceOnUse"
       id="radialGradient4753"
       inkscape:collect="always"
       r="16"
       xlink:href="#linearGradient3724" />
    <radialGradient
       cx="158"
       cy="11.484326"
       fx="158"
       fy="11.484326"
       gradientTransform="matrix(3.9889195,6.4103848e-8,-6.5237261e-8,4.6889953,-563.24928,-29.122696)"
       gradientUnits="userSpaceOnUse"
       id="radialGradient4756"
       inkscape:collect="always"
       r="19"
       xlink:href="#linearGradient3724" />
    <radialGradient
       cx="158"
       cy="11.484326"
       fx="158"
       fy="11.484326"
       gradientTransform="matrix(3.9889195,6.4103848e-8,-6.5237261e-8,4.6889953,-563.24928,-29.122696)"
       gradientUnits="userSpaceOnUse"
       id="radialGradient4759"
       inkscape:collect="always"
       r="19"
       xlink:href="#linearGradient3616" />
    <linearGradient
       gradientTransform="matrix(2.5428573,0,0,2.5813953,-334.77144,-1.6976729)"
       gradientUnits="userSpaceOnUse"
       id="linearGradient4769"
       inkscape:collect="always"
       x1="157.21347"
       x2="157.21347"
       xlink:href="#linearGradient3949"
       y1="4.5315309"
       y2="16.153152" />
    <linearGradient
       gradientTransform="matrix(2.5428573,0,0,2.5813953,-334.77144,-1.6976729)"
       gradientUnits="userSpaceOnUse"
       id="linearGradient4771"
       inkscape:collect="always"
       x1="153.2809"
       x2="153.2809"
       xlink:href="#linearGradient3959"
       y1="4.5315309"
       y2="16.153152" />
    <linearGradient
       gradientTransform="matrix(2.5428573,0,0,2.5813953,-334.77144,-1.6976729)"
       gradientUnits="userSpaceOnUse"
       id="linearGradient4774"
       inkscape:collect="always"
       x1="158"
       x2="158"
       xlink:href="#linearGradient3596"
       y1="49"
       y2="5" />
    <linearGradient
       gradientTransform="matrix(2.5428573,0,0,2.5813953,-334.77144,-1.6976729)"
       gradientUnits="userSpaceOnUse"
       id="linearGradient4776"
       inkscape:collect="always"
       x1="155"
       x2="155"
       xlink:href="#linearGradient3604"
       y1="49"
       y2="5" />
  </defs>
  <sodipodi:namedview
     bordercolor="#666666"
     borderopacity="0.25490196"
     fill="#f57900"
     gridtolerance="12"
     guidetolerance="13"
     height="300px"
     id="base"
     inkscape:current-layer="layer6"
     inkscape:cx="162.05037"
     inkscape:cy="20.7632"
     inkscape:document-units="px"
     inkscape:grid-bbox="true"
     inkscape:guide-bbox="true"
     inkscape:pageopacity="0.0"
     inkscape:pageshadow="2"
     inkscape:showpageshadow="false"
     inkscape:snap-bbox="true"
     inkscape:snap-nodes="true"
     inkscape:window-height="948"
     inkscape:window-maximized="1"
     inkscape:window-width="1280"
     inkscape:window-x="0"
     inkscape:window-y="25"
     inkscape:zoom="1"
     objecttolerance="7"
     pagecolor="#ffffff"
     showgrid="false"
     showguides="true"
     stroke="#ef2929"
     width="400px">
    <inkscape:grid
       empspacing="5"
       enabled="true"
       id="grid5883"
       spacingx="1px"
       spacingy="1px"
       type="xygrid"
       visible="true" />
  </sodipodi:namedview>
  <metadata
     id="metadata4">
    <rdf:RDF>
      <cc:Work
         rdf:about="">
        <dc:format>image/svg+xml</dc:format>
        <dc:type
           rdf:resource="http://purl.org/dc/dcmitype/StillImage" />
        <dc:creator>
          <cc:Agent>
            <dc:title>Jonian Guveli, Olibia Tsati</dc:title>
          </cc:Agent>
        </dc:creator>
        <dc:source />
        <cc:license
           rdf:resource="http://creativecommons.org/licenses/by-sa/3.0/" />
        <dc:title>Candy Icon Theme</dc:title>
        <dc:subject>
          <rdf:Bag />
        </dc:subject>
        <dc:date />
        <dc:rights>
          <cc:Agent>
            <dc:title />
          </cc:Agent>
        </dc:rights>
        <dc:publisher>
          <cc:Agent>
            <dc:title />
          </cc:Agent>
        </dc:publisher>
        <dc:identifier />
        <dc:relation />
        <dc:language />
        <dc:coverage />
        <dc:description />
        <dc:contributor>
          <cc:Agent>
            <dc:title />
          </cc:Agent>
        </dc:contributor>
      </cc:Work>
      <cc:License
         rdf:about="http://creativecommons.org/licenses/by-sa/3.0/">
        <cc:permits
           rdf:resource="http://creativecommons.org/ns#Reproduction" />
        <cc:permits
           rdf:resource="http://creativecommons.org/ns#Distribution" />
        <cc:requires
           rdf:resource="http://creativecommons.org/ns#Notice" />
        <cc:requires
           rdf:resource="http://creativecommons.org/ns#Attribution" />
        <cc:permits
           rdf:resource="http://creativecommons.org/ns#DerivativeWorks" />
        <cc:requires
           rdf:resource="http://creativecommons.org/ns#ShareAlike" />
      </cc:License>
    </rdf:RDF>
  </metadata>
  <g
     id="layer1"
     inkscape:groupmode="layer"
     inkscape:label="apps/menu-editor"
     style="display:inline"
     transform="translate(-3,-4)">
    <g
       id="layer6"
       inkscape:groupmode="layer"
       inkscape:label="plate"
       sodipodi:insensitive="true"
       style="display:none" />
    <rect
       height="9.9999933"
       id="rect4094"
       rx="5.3743634"
       ry="5"
       style="opacity:0.8;fill:#000000;fill-opacity:1;stroke:none;filter:url(#filter4157)"
       transform="matrix(0.93034272,0,0,1,0.94566723,0)"
       width="98"
       x="22"
       y="114" />
    <path
       d="m 104.3454,85.364287 c 17.6892,-2.308395 17.03843,6.798159 13.97664,14.785243 L 60,114 104.3454,85.364287 z"
       id="path4331"
       style="opacity:0.25;fill:url(#linearGradient5719);fill-opacity:1;stroke:none;filter:url(#filter6643)" />
    <g
       id="g3963" />
    <g
       id="g4075" />
    <g
       id="g4088" />
    <g
       id="g3998"
       transform="translate(-15.177769,-29.86351)" />
    <g
       id="g4085"
       transform="matrix(1,0,0,0.94648814,9,-15.792456)" />
    <g
       id="g4101" />
    <g
       id="g3205"
       transform="matrix(0.80949185,0,0,0.81188871,62.099668,1.8438748)" />
    <g
       id="g4113" />
    <g
       id="g3281"
       transform="matrix(0.71264458,0,0,0.6705059,44.368981,40.382072)" />
    <g
       id="g4778">
      <rect
         height="111"
         id="rect3773"
         rx="5"
         ry="5"
         style="fill:url(#linearGradient4774);fill-opacity:1;stroke:url(#linearGradient4776);stroke-width:0.99999994;stroke-linejoin:round;stroke-miterlimit:4;stroke-opacity:1;stroke-dasharray:none"
         width="89"
         x="22.5"
         y="12.5" />
      <path
         d="m 22.5,36 0,-18.5 c 0,-2.77 2.23,-5 5,-5 l 79,0 c 2.77,0 5,2.23 5,5 l 0,18.5"
         id="rect4693"
         sodipodi:nodetypes="cccccc"
         style="fill:url(#linearGradient4769);fill-opacity:1;stroke:url(#linearGradient4771);stroke-width:0.99999994;stroke-linejoin:round;stroke-miterlimit:4;stroke-opacity:1" />
      <rect
         height="13.000001"
         id="rect4706"
         rx="2"
         ry="2"
         style="opacity:0.3;fill:#4d4d4d;fill-opacity:1;stroke:none"
         width="78"
         x="28"
         y="105" />
      <path
         d="M 36.436183,108 35,114.92709 l 0.718092,0 1.037243,-4.52084 2.234062,4.59376 2.393637,-4.59376 0.957456,4.52084 0.797879,0 L 41.702187,108 39.069185,113.17709 36.436183,108 z m 12.526704,0.0728 0,6.85417 0.79788,0 0,-6.85417 -0.79788,0 z m 23.776803,0 0,2.84376 c -0.199151,-0.22377 -0.427435,-0.36946 -0.718092,-0.51042 -0.287543,-0.14093 -0.602789,-0.21864 -0.877667,-0.21864 -0.429681,0 -0.839778,0.14397 -1.19682,0.36459 -0.357041,0.22049 -0.595663,0.50731 -0.797878,0.875 -0.198896,0.36463 -0.319152,0.74076 -0.319152,1.16666 0,0.42899 0.120002,0.79898 0.319152,1.16668 0.202215,0.36462 0.440837,0.65743 0.797878,0.87499 0.357042,0.21747 0.767139,0.36459 1.19682,0.36459 0.278045,0 0.593264,-0.0777 0.877667,-0.21864 0.287517,-0.14396 0.515877,-0.3566 0.718092,-0.58333 0,0.20534 0.0743,0.46258 0.159576,0.72917 l 0.797878,0 c -0.05999,-0.10431 -0.118469,-0.29531 -0.159576,-0.58334 -0.04136,-0.29108 -0.07965,-0.57535 -0.07965,-0.80208 l 0,-5.46876 -0.718091,0 z m -18.5108,0.65625 c -0.15166,0 -0.291704,0.0478 -0.398939,0.14584 -0.104426,0.098 -0.159576,0.22353 -0.159576,0.36458 0,0.1379 0.05515,0.2696 0.159576,0.36458 0.10417,0.095 0.244087,0.14583 0.398939,0.14583 0.148343,0 0.214726,-0.0509 0.319153,-0.14583 0.107234,-0.095 0.239235,-0.22657 0.239235,-0.36458 0,-0.14093 -0.132001,-0.26652 -0.239235,-0.36458 -0.104172,-0.098 -0.170555,-0.14584 -0.319153,-0.14584 z m 20.984225,0 c -0.151661,0 -0.291705,0.0478 -0.39894,0.14584 -0.104426,0.098 -0.159576,0.22353 -0.159576,0.36458 0,0.1379 0.05514,0.2696 0.159576,0.36458 0.104171,0.095 0.244087,0.14583 0.39894,0.14583 0.148342,0 0.294513,-0.0509 0.39894,-0.14583 0.107235,-0.095 0.159576,-0.22657 0.159576,-0.36458 0,-0.14093 -0.05234,-0.26652 -0.159576,-0.36458 -0.104171,-0.098 -0.250471,-0.14584 -0.39894,-0.14584 z m -24.175741,0.51042 0,1.02083 -0.39894,0 0,0.65626 0.39894,0 0,4.01041 0.797878,0 0,-4.01041 1.117031,0 0.239237,-0.65626 -1.356394,0 0,-1.02083 -0.79788,0 z m 6.941549,0.94803 c -0.240257,0 -0.471655,0.10477 -0.718091,0.29167 -0.243322,0.18386 -0.49295,0.38661 -0.638304,0.65625 0,-0.2268 0.01787,-0.33946 0,-0.4375 -0.01276,-0.10104 -0.02298,-0.25671 -0.07966,-0.4375 l -0.877667,0 c 0.06332,0.11036 0.121787,0.29531 0.159575,0.58333 0.0411,0.28497 0.07966,0.56616 0.07966,0.80209 l 0,3.28125 0.71809,0 0,-2.33334 c 0,-0.2114 0.103405,-0.45644 0.239237,-0.72917 0.135831,-0.27269 0.282819,-0.53918 0.478728,-0.72916 0.195831,-0.19297 0.400547,-0.29167 0.558515,-0.29167 0.13915,0 0.218044,0.0694 0.319151,0.14584 0.104426,0.0735 0.188683,0.16613 0.239236,0.29167 0.05387,0.12249 0.137364,0.23589 0.159576,0.36458 0.02298,0.12857 0,0.29654 0,0.43749 l 0,2.84376 0.718092,0 0,-2.33334 c 0,-0.19926 0.109533,-0.46258 0.239236,-0.72917 0.132512,-0.26963 0.279653,-0.46013 0.478727,-0.65624 0.202214,-0.19927 0.387885,-0.29167 0.558516,-0.29167 0.13915,0 0.297807,-0.005 0.398939,0.0728 0.101108,0.0735 0.109022,0.16614 0.159576,0.29167 0.05055,0.12251 0.137618,0.30882 0.159576,0.4375 0.02553,0.12857 0,0.22353 0,0.36459 l 0,2.84374 0.79788,0 0,-2.84374 c 0,-0.19297 -0.0457,-0.33269 -0.07967,-0.51042 -0.03166,-0.18084 -0.08374,-0.42093 -0.159576,-0.58334 -0.07583,-0.16543 -0.208598,-0.24506 -0.319151,-0.36458 -0.110555,-0.11946 -0.231577,-0.2212 -0.39894,-0.29167 -0.16749,-0.0735 -0.356301,-0.14583 -0.558515,-0.14583 -0.236939,0 -0.477988,0.11083 -0.718092,0.29166 -0.236938,0.18084 -0.461366,0.37743 -0.638303,0.65626 -0.104426,-0.29417 -0.257569,-0.48466 -0.478728,-0.65626 -0.221108,-0.17452 -0.459807,-0.29166 -0.797878,-0.29166 z m 7.579854,0 c -0.426566,0 -0.836638,0.14397 -1.196819,0.36459 -0.360209,0.22049 -0.592346,0.50731 -0.79788,0.875 -0.205534,0.36463 -0.319151,0.74076 -0.319151,1.16666 0,0.42899 0.120255,0.79898 0.319151,1.16668 0.202214,0.36462 0.440838,0.65743 0.79788,0.87499 0.357015,0.21747 0.767113,0.36459 1.196819,0.36459 0.116937,0 0.199149,-0.0574 0.319151,-0.0728 0.12332,-0.0164 0.308172,-0.0187 0.478727,-0.0728 0.170555,-0.055 0.323748,-0.12997 0.478728,-0.21863 0.154725,-0.0889 0.314301,-0.20534 0.478727,-0.36458 0.164173,-0.16241 0.275876,-0.37191 0.39894,-0.58334 l -0.638304,-0.29167 c -0.183321,0.30028 -0.36973,0.49999 -0.638303,0.65625 -0.268573,0.1533 -0.564873,0.21864 -0.877666,0.21864 -0.398098,0 -0.73073,-0.1463 -1.037243,-0.4375 -0.306437,-0.29417 -0.520729,-0.65252 -0.558517,-1.09376 l 3.909609,0 0,-0.36457 c -0.03473,-0.39833 -0.11081,-0.75976 -0.319152,-1.09376 -0.208597,-0.33705 -0.533264,-0.60291 -0.877666,-0.80208 -0.344403,-0.19927 -0.709463,-0.29167 -1.117031,-0.29167 z m 13.165006,0 c -0.19915,0 -0.37213,0.0116 -0.558514,0.0728 -0.186386,0.0583 -0.361791,0.1484 -0.478728,0.21863 -0.113874,0.0705 -0.199151,0.17523 -0.319152,0.29166 -0.116937,0.11644 -0.198385,0.16964 -0.239237,0.21864 -0.03779,0.049 -0.102638,0.13603 -0.159575,0.21863 l 0.638303,0.36459 c 0,-0.003 -0.02859,-0.0362 0,-0.0728 0.02834,-0.0368 0.06434,-0.0544 0.07966,-0.0728 0.01531,-0.021 0.04187,-0.0301 0.07966,-0.0728 0.03804,-0.046 0.04801,-0.12133 0.07965,-0.14584 0.03473,-0.0275 0.112342,-0.0332 0.159576,-0.0728 0.05055,-0.0399 0.109023,-0.12133 0.159576,-0.14583 0.05055,-0.0245 0.09957,-0.0483 0.159575,-0.0728 0.05999,-0.0245 0.09013,0.0116 0.159577,0 0.0697,-0.0116 0.163661,-0.0728 0.239235,-0.0728 0.306489,0 0.554559,0.14093 0.79788,0.36458 0.246385,0.22378 0.434302,0.49199 0.478727,0.87501 -0.164427,0 -0.297831,-0.003 -0.39894,0 -0.101107,0 -0.285959,0.0637 -0.478726,0.0728 -0.192769,0.009 -0.346217,-0.0187 -0.478728,0 -0.129448,0.0163 -0.295662,0.0362 -0.478728,0.0728 -0.180001,0.0369 -0.352343,0.0968 -0.478727,0.14583 -0.12332,0.049 -0.183321,0.13907 -0.319152,0.21864 -0.136087,0.0765 -0.237194,0.1176 -0.319151,0.21863 -0.08196,0.098 -0.185619,0.22657 -0.239237,0.36459 -0.05388,0.13487 -0.07966,0.27204 -0.07966,0.4375 0,0.15936 0.01787,0.35415 0.07966,0.51041 0.06613,0.1533 0.192768,0.30269 0.319152,0.4375 0.129449,0.13487 0.260683,0.20883 0.478727,0.29167 0.218274,0.083 0.520091,0.14607 0.798135,0.14607 0.587699,0 1.102861,-0.25116 1.595759,-0.72917 -0.01532,0.19296 0.05234,0.42338 0.159575,0.65625 l 0.797879,0 c -0.05999,-0.1134 -0.118469,-0.30207 -0.159575,-0.51042 -0.04136,-0.2114 -0.07966,-0.37496 -0.07966,-0.58333 l 0,-1.53125 c -0.0052,-0.32172 -0.04264,-0.68133 -0.159576,-0.94792 -0.116937,-0.26964 -0.289023,-0.48466 -0.478726,-0.65625 -0.186386,-0.17454 -0.398047,-0.26959 -0.638305,-0.36459 -0.236937,-0.095 -0.462157,-0.14583 -0.718091,-0.14583 z m -34.787535,0.0728 0,2.84375 c 0,0.51783 0.118469,0.94173 0.478728,1.3125 0.363348,0.37079 0.831888,0.58333 1.356394,0.58333 0.524482,0 0.996188,-0.21256 1.356394,-0.58333 0.363247,-0.37077 0.478729,-0.79467 0.478729,-1.3125 l 0,-2.84375 -0.718092,0 0,2.84375 c 0,0.33704 -0.09166,0.64519 -0.319151,0.875 -0.224428,0.2268 -0.488251,0.29167 -0.79788,0.29167 -0.303321,0 -0.582897,-0.0649 -0.797879,-0.29167 -0.214724,-0.2268 -0.319152,-0.53487 -0.319152,-0.875 l 0,-2.84375 -0.718091,0 z m 9.893703,0 0,4.66666 0.718092,0 0,-4.66666 -0.718092,0 z m 20.984224,0 0,4.66666 0.79788,0 0,-4.66666 -0.79788,0 z m -3.670244,0.58333 c 0.423399,0 0.804211,0.1764 1.11703,0.51042 0.31614,0.33093 0.478729,0.76463 0.478729,1.23958 0,0.47801 -0.162896,0.90868 -0.478729,1.23959 -0.312819,0.32787 -0.693631,0.4375 -1.11703,0.4375 -0.423374,0 -0.79793,-0.17944 -1.117031,-0.51042 -0.316164,-0.33091 -0.478727,-0.69172 -0.478727,-1.16667 0,-0.47495 0.162639,-0.90865 0.478727,-1.23958 0.319101,-0.334 0.693657,-0.51042 1.117031,-0.51042 z m -5.585154,0.0728 c 0.341211,0 0.679435,0.0742 0.957453,0.29167 0.281238,0.21747 0.457409,0.5257 0.558516,0.875 l -3.031941,0 c 0.110555,-0.3493 0.360285,-0.65744 0.638304,-0.875 0.281236,-0.21746 0.542737,-0.29167 0.877668,-0.29167 z m 13.723522,1.82293 c 0.211662,-0.0164 0.452685,0.003 0.718092,0 l 0,0.58332 c -0.164172,0.26351 -0.414795,0.53614 -0.718092,0.72917 -0.303321,0.19297 -0.568013,0.21864 -0.877667,0.21864 -0.300156,0 -0.566431,-0.005 -0.718091,-0.14584 -0.151661,-0.14093 -0.239236,-0.35107 -0.239236,-0.51042 0,-0.1533 0.05514,-0.2512 0.159575,-0.36458 0.104172,-0.1134 0.241024,-0.22727 0.39894,-0.29167 0.158044,-0.0644 0.401365,-0.10593 0.638304,-0.14583 0.236938,-0.0399 0.42996,-0.0574 0.638303,-0.0728 z"
         id="path4673"
         style="font-size:3.91614127px;font-style:normal;font-variant:normal;font-weight:bold;font-stretch:normal;opacity:0.7;fill:#000000;fill-opacity:1;stroke:none;font-family:Sawasdee;-inkscape-font-specification:Aller Bold" />
      <path
         d="m 39.045674,44 c -0.548943,7e-6 -1.08273,0.107824 -1.586538,0.291667 -0.500332,0.183843 -0.904429,0.41663 -1.269232,0.729166 -0.361349,0.312546 -0.657334,0.661715 -0.872596,1.093749 C 35.102047,46.546629 35,47.025063 35,47.499999 c 0,0.474943 0.102047,0.953375 0.317308,1.385416 0.215515,0.42898 0.511247,0.784275 0.872596,1.093749 0.364803,0.309477 0.7689,0.545323 1.269232,0.729166 0.503808,0.183844 1.037595,0.291667 1.586538,0.291667 0.545489,0 1.089685,-0.107823 1.586538,-0.291667 0.50033,-0.183843 0.90788,-0.419689 1.26923,-0.729166 0.364803,-0.309474 0.660635,-0.664769 0.872597,-1.093749 0.215261,-0.432041 0.317282,-0.910473 0.317307,-1.385416 l 0,-0.364584 -4.204326,0 0,0.729167 3.411058,0 c -0.100777,0.68943 -0.502565,1.28119 -1.110577,1.749999 -0.604561,0.465752 -1.325331,0.656252 -2.141827,0.65625 -0.441236,0 -0.8662,-0.07168 -1.269231,-0.21875 -0.39958,-0.147071 -0.742856,-0.335139 -1.03125,-0.583334 -0.284892,-0.251255 -0.464284,-0.531815 -0.634616,-0.874998 -0.166522,-0.34318 -0.237853,-0.716861 -0.237853,-1.09375 0,-0.379949 0.07133,-0.750563 0.237853,-1.093749 0.170332,-0.346241 0.346247,-0.626799 0.634616,-0.875 0.288394,-0.248187 0.63167,-0.436263 1.03125,-0.583334 0.399553,-0.147069 0.827995,-0.218749 1.269231,-0.218749 0.305758,0 0.591181,-6.07e-4 0.872596,0.07292 0.284891,0.07357 0.536757,0.202813 0.713942,0.291666 0.177185,0.0858 0.37455,0.147654 0.555289,0.291667 0.184038,0.144014 0.258161,0.30331 0.317307,0.364583 0.05915,0.06129 0.143931,0.114567 0.237854,0.21875 l 0.713942,-0.437499 c -0.0076,-0.0061 -0.06676,-0.05472 -0.0792,-0.07292 C 42.297694,45.366404 42.226111,45.32538 42.13955,45.239585 42.056293,45.153783 41.87885,45.0374 41.663588,44.875 41.451627,44.7126 41.258451,44.550877 41.028974,44.4375 40.803051,44.324123 40.510772,44.234687 40.156377,44.145834 39.801983,44.053921 39.424513,44 39.0458,44 z m 7.298076,2.187499 c -0.218815,0 -0.429761,0.01167 -0.634615,0.07292 -0.205108,0.05822 -0.347516,0.148284 -0.475962,0.218751 -0.125145,0.07049 -0.264634,0.175233 -0.396634,0.291666 -0.128701,0.116434 -0.272123,0.169727 -0.317308,0.21875 -0.04188,0.04902 -0.01777,0.13601 -0.0792,0.21875 l 0.634615,0.364583 c 0,-0.003 0.04798,-0.03614 0.0792,-0.07292 0.03147,-0.03678 0.06143,-0.05472 0.0792,-0.07292 0.01777,-0.02147 0.03757,-0.03001 0.0792,-0.07292 0.04138,-0.04597 0.04442,-0.12131 0.0792,-0.145833 0.03833,-0.02755 0.106616,-0.03308 0.158654,-0.07292 0.05584,-0.03983 0.102808,-0.12131 0.158654,-0.145833 0.05584,-0.02453 0.09265,-0.04839 0.158653,-0.07292 0.06575,-0.0245 0.161447,0.01236 0.237854,0 0.07641,-0.01213 0.15434,-0.07292 0.237854,-0.07292 0.337007,5e-6 0.605068,0.14091 0.872597,0.364583 0.271057,0.223673 0.427223,0.491988 0.475961,0.875 -0.180738,0 -0.28545,-0.003 -0.396634,0 -0.111185,0 -0.264,0.06381 -0.475961,0.07292 -0.211962,0.0091 -0.409328,-0.0182 -0.555289,0 -0.142408,0.0154 -0.274408,0.03614 -0.475962,0.07292 -0.198,0.03678 -0.416435,0.09681 -0.555288,0.145834 -0.135554,0.04902 -0.2475,0.139066 -0.396635,0.21875 -0.149515,0.0766 -0.306265,0.117646 -0.396634,0.21875 -0.09037,0.09805 -0.178708,0.226706 -0.237854,0.364583 -0.05915,0.13482 -0.0792,0.272019 -0.0792,0.437499 0,0.159344 0.0891,0.354153 0.158653,0.510417 0.07285,0.153206 0.178454,0.30268 0.317308,0.437499 0.142408,0.134844 0.315658,0.208927 0.555289,0.291668 0.239631,0.08273 0.487536,0.145833 0.793269,0.145833 0.646267,0 1.282431,-0.251162 1.824519,-0.729167 -0.01777,0.193037 0.04036,0.423383 0.158654,0.65625 l 0.872596,0 c -0.06625,-0.113377 -0.11347,-0.30205 -0.158654,-0.510417 -0.04493,-0.211422 -0.0792,-0.374966 -0.0792,-0.583332 l 0,-1.53125 c -0.0076,-0.321731 -0.109407,-0.681335 -0.237854,-0.947915 -0.128445,-0.269639 -0.267554,-0.484657 -0.475961,-0.65625 -0.204854,-0.17465 -0.449892,-0.269593 -0.713943,-0.364583 -0.260573,-0.09499 -0.511855,-0.145833 -0.793268,-0.145833 z m 5.94952,0 c -0.264076,5e-6 -0.522264,0.104744 -0.79327,0.291667 -0.267502,0.183843 -0.474794,0.386609 -0.634615,0.656249 0,-0.226752 0.01777,-0.339444 0,-0.437499 -0.01269,-0.101104 -0.09621,-0.256711 -0.158655,-0.4375 l -0.872595,0 c 0.06956,0.110319 0.116769,0.295311 0.158654,0.583333 0.04518,0.284967 0.0792,0.566148 0.0792,0.802083 l 0,3.281249 0.793269,0 0,-2.333332 c 0,-0.211424 0.08859,-0.456459 0.237854,-0.729167 0.149262,-0.272704 0.339849,-0.539187 0.555289,-0.729167 0.215261,-0.193036 0.38153,-0.291661 0.555288,-0.291666 0.152815,5e-6 0.285475,0.06925 0.396634,0.145833 0.114485,0.07355 0.261818,0.166041 0.317308,0.291666 0.05915,0.122571 0.05483,0.235894 0.0792,0.364584 0.02284,0.128707 0.0792,0.296552 0.0792,0.4375 l 0,2.843749 0.793269,0 0,-2.333332 c 0,-0.199174 0.09571,-0.462586 0.237854,-0.729167 0.145961,-0.26964 0.25707,-0.460143 0.475961,-0.65625 0.222369,-0.19915 0.446998,-0.291662 0.634615,-0.291666 0.152817,4e-6 0.285476,-0.0037 0.396636,0.07292 0.111184,0.07355 0.182515,0.16604 0.237854,0.291666 0.05584,0.122571 0.134284,0.30881 0.158653,0.437501 0.02767,0.128706 0,0.223626 0,0.364582 l 0,2.843749 0.872597,0 0,-2.843749 c -2.6e-5,-0.193036 -0.0396,-0.332693 -0.0792,-0.510416 -0.03478,-0.180786 -0.07539,-0.420931 -0.158653,-0.583333 -0.08352,-0.165457 -0.195716,-0.245079 -0.317309,-0.364583 -0.121591,-0.11949 -0.291795,-0.221176 -0.475961,-0.291667 -0.184039,-0.07352 -0.412246,-0.145833 -0.634616,-0.145833 -0.260598,4e-6 -0.529243,0.11088 -0.793268,0.291667 -0.260598,0.180786 -0.440042,0.377416 -0.634616,0.656249 -0.114484,-0.294151 -0.312078,-0.484654 -0.555288,-0.656249 -0.243438,-0.17465 -0.580166,-0.291663 -0.951923,-0.291667 z m 8.408653,0 c -0.469031,5e-6 -0.952507,0.143967 -1.348557,0.364584 -0.396102,0.220616 -0.646928,0.50731 -0.872597,0.874999 -0.225923,0.364637 -0.39666,0.740754 -0.396634,1.166667 -2.6e-5,0.42898 0.177692,0.798969 0.396634,1.166666 0.222369,0.364629 0.479998,0.657439 0.872597,0.874998 0.392623,0.217584 0.876048,0.364584 1.348557,0.364584 0.128446,0 0.185054,-0.05752 0.317308,-0.07292 0.135554,-0.0154 0.367696,-0.01773 0.555288,-0.07292 0.187593,-0.05516 0.305631,-0.129898 0.475962,-0.218751 0.17033,-0.08886 0.37455,-0.20524 0.555288,-0.364583 0.180739,-0.162399 0.340408,-0.37191 0.475962,-0.583333 l -0.713943,-0.291667 c -0.201553,0.300284 -0.418618,0.499987 -0.713941,0.65625 -0.295325,0.153207 -0.607937,0.21875 -0.951924,0.21875 -0.437758,3e-6 -0.852898,-0.146417 -1.189904,-0.437499 -0.336802,-0.294157 -0.513658,-0.652514 -0.555289,-1.09375 l 4.283655,0 0,-0.364584 C 63.202051,47.97666 63.0731,47.615236 62.84375,47.281243 62.614527,46.944196 62.27054,46.67831 61.891827,46.479161 61.513114,46.279988 61.150113,46.187498 60.701923,46.187493 z m 5.473557,0 c -0.399578,5e-6 -0.74288,0.07413 -1.03125,0.291667 -0.284688,0.21756 -0.475961,0.510375 -0.475961,0.874999 0,0.18998 0.06829,0.363346 0.158654,0.510417 0.09393,0.147093 0.250546,0.27265 0.396635,0.364583 0.145961,0.08888 0.298776,0.218143 0.475961,0.291666 0.177185,0.07353 0.302331,0.08151 0.475961,0.145834 0.177185,0.06128 0.409327,0.148283 0.555289,0.21875 0.145961,0.06741 0.226939,0.187483 0.317308,0.291666 0.09366,0.101127 0.158653,0.156846 0.158653,0.291666 0,0.239002 -0.1089,0.433207 -0.317307,0.583334 -0.208407,0.147093 -0.439484,0.21875 -0.713943,0.21875 -0.257145,0 -0.526349,-0.0049 -0.713941,-0.145834 -0.187847,-0.140956 -0.272124,-0.368221 -0.317309,-0.65625 l 0,-0.145833 -0.872595,0.07292 0.0792,0.145833 c 0.05204,0.318668 0.129715,0.575329 0.317308,0.802083 0.187592,0.223673 0.384577,0.409313 0.634615,0.510417 C 65.552796,50.952213 65.886985,51 66.175354,51 c 0.503808,0 0.900951,-0.15561 1.26923,-0.4375 C 67.812864,50.280601 68,49.903856 68,49.46875 c 0,-0.208366 -0.06829,-0.344936 -0.158654,-0.510416 -0.09037,-0.165457 -0.171346,-0.333316 -0.317308,-0.4375 -0.145961,-0.104183 -0.298776,-0.208926 -0.475961,-0.291666 -0.173631,-0.08273 -0.378104,-0.157453 -0.555288,-0.21875 -0.173632,-0.06128 -0.33,-0.08762 -0.475962,-0.145833 -0.145962,-0.06129 -0.226939,-0.139067 -0.317308,-0.21875 -0.09037,-0.08274 -0.158654,-0.19362 -0.158654,-0.291667 0,-0.150126 0.04062,-0.269593 0.158654,-0.364583 0.118039,-0.09499 0.291669,-0.145833 0.475961,-0.145833 0.15637,2.3e-5 0.261082,0.06309 0.396636,0.145833 0.138853,0.07966 0.251307,0.205264 0.317307,0.364583 l 0.0792,0.145834 0.793269,-0.218751 -0.0792,-0.145833 c -0.09393,-0.226729 -0.208916,-0.433207 -0.396636,-0.583332 -0.184038,-0.150127 -0.37455,-0.239587 -0.555288,-0.291668 -0.180739,-0.05208 -0.370996,-0.07292 -0.555289,-0.07292 z m -5.473557,0.729167 c 0.375235,4e-6 0.725492,0.07411 1.03125,0.291666 0.30921,0.21756 0.523431,0.525693 0.634615,0.875 l -3.331731,0 c 0.121593,-0.349307 0.328858,-0.65744 0.634616,-0.875 0.309235,-0.217537 0.66297,-0.291662 1.03125,-0.291666 z m -13.723558,1.822916 c 0.232777,-0.01517 0.501398,0.003 0.79327,0 l 0,0.583332 c -0.180738,0.263515 -0.459741,0.536131 -0.79327,0.729167 -0.333553,0.193059 -0.69074,0.21875 -1.031249,0.21875 -0.330051,0 -0.547166,-0.0049 -0.713943,-0.145834 -0.166523,-0.140956 -0.237854,-0.351096 -0.237854,-0.510416 0,-0.153207 0.04392,-0.25123 0.158654,-0.364583 0.114739,-0.113377 0.223131,-0.227337 0.396635,-0.291667 0.173631,-0.06433 0.374042,-0.106003 0.634615,-0.145833 0.260598,-0.03985 0.563793,-0.05752 0.79327,-0.07292 z"
         id="path4675"
         style="font-size:4.11852598px;font-style:normal;font-variant:normal;font-weight:bold;font-stretch:normal;opacity:0.7;fill:#000000;fill-opacity:1;stroke:none;font-family:Sawasdee;-inkscape-font-specification:Aller Bold" />
      <path
         d="m 38.683834,60 c -0.49744,8e-6 -0.985013,0.118903 -1.441501,0.302521 -0.453361,0.183618 -0.870691,0.368519 -1.20125,0.680672 -0.327432,0.312165 -0.525474,0.702946 -0.720749,1.134453 C 35.125057,62.549165 35,63.004633 35,63.47899 c 0,0.47436 0.125057,0.929831 0.320334,1.361344 0.195275,0.428452 0.393317,0.825355 0.720749,1.134454 0.330559,0.309098 0.747889,0.572683 1.20125,0.756301 0.456488,0.183643 0.944061,0.226891 1.441501,0.226891 0.494262,0 0.991291,-0.04327 1.4415,-0.226891 0.453335,-0.183618 0.793734,-0.447203 1.121167,-0.756301 0.330558,-0.309099 0.608889,-0.706002 0.800832,-1.134454 0.195275,-0.431513 0.320335,-0.886984 0.320335,-1.361344 l 0,-0.378151 -3.844001,0 0,0.756302 3.043167,0 c -0.09124,0.688589 -0.410052,1.271258 -0.961001,1.739495 -0.54777,0.465166 -1.182182,0.680671 -1.921999,0.680671 -0.399854,0 -0.755987,-0.07998 -1.121166,-0.22689 -0.36208,-0.146903 -0.699712,-0.357148 -0.961,-0.605041 -0.258138,-0.25095 -0.486395,-0.564797 -0.640668,-0.907563 -0.150941,-0.342759 -0.240122,-0.682392 -0.240122,-1.058823 0,-0.379487 0.08943,-0.716057 0.240122,-1.058823 0.154273,-0.34582 0.379377,-0.659665 0.640668,-0.907563 0.261314,-0.247885 0.598946,-0.458138 0.961,-0.605041 0.362026,-0.14688 0.721312,-0.226891 1.121166,-0.226891 0.277024,0 0.545847,0.07781 0.800833,0.151261 0.258163,0.07345 0.479987,0.138143 0.640667,0.22689 0.160424,0.0857 0.316744,0.23432 0.480499,0.378151 0.166829,0.143855 0.266774,0.241315 0.320334,0.302522 0.05356,0.06121 0.155297,0.122847 0.240122,0.22689 L 41.727,61.512604 c -0.07227,-0.09182 -0.161449,-0.216823 -0.240122,-0.302521 -0.07561,-0.08567 -0.205014,-0.215951 -0.400416,-0.37815 -0.191944,-0.1622 -0.432834,-0.264912 -0.640667,-0.378152 C 40.241038,60.340566 39.966064,60.240032 39.644962,60.15126 39.323808,60.059441 39.027103,60 38.683962,60 z m 19.219998,0.07564 0,6.806721 0.72075,0 0,-2.268907 c 0,-0.192791 0.101739,-0.490045 0.240123,-0.756302 0.141716,-0.269309 0.337118,-0.475611 0.560583,-0.680672 0.22654,-0.205037 0.432834,-0.302515 0.640667,-0.302521 0.163754,0 0.284071,0.07476 0.400417,0.15126 0.116344,0.07345 0.180154,0.10143 0.240121,0.226891 0.05997,0.122412 0.134541,0.249616 0.160167,0.378151 0.02717,0.128535 0,0.313024 0,0.453782 l 0,2.798318 0.800834,0 0,-2.798318 c 0,-0.250947 -0.09737,-0.535946 -0.160166,-0.756303 -0.06278,-0.223406 -0.114041,-0.427546 -0.240123,-0.605041 -0.125826,-0.177495 -0.272668,-0.277159 -0.480501,-0.378152 -0.207831,-0.104042 -0.456308,-0.15126 -0.720749,-0.15126 -0.245505,5e-6 -0.545849,0.05857 -0.800833,0.226891 -0.251911,0.165273 -0.448724,0.423606 -0.640667,0.680672 l 0,-3.02521 -0.72075,0 z m 5.445667,0.680671 c -0.150941,2.3e-5 -0.293296,0.05334 -0.400417,0.15126 -0.103788,0.09794 -0.160166,0.161764 -0.160166,0.30252 0,0.137732 0.05638,0.283305 0.160166,0.378151 0.103789,0.09488 0.246016,0.151262 0.400417,0.151262 0.147867,0 0.296629,-0.0564 0.400417,-0.151262 0.107119,-0.09488 0.160166,-0.240419 0.160166,-0.378151 0,-0.140756 -0.05305,-0.204576 -0.160166,-0.30252 -0.103788,-0.09795 -0.252423,-0.15126 -0.400417,-0.15126 z M 45.33075,62.193284 c -0.434448,0.149953 -0.784304,0.389062 -1.121167,0.756303 0,-0.241775 -0.07842,-0.460317 -0.160166,-0.680672 l -0.800834,0 c 0.0569,0.107116 0.119164,0.314309 0.160167,0.605041 0.04305,0.290738 0.07996,0.526774 0.07996,0.756302 l 0,3.2521 0.72075,0 0,-2.344537 c 0,-0.06425 -0.0051,-0.156488 0,-0.226891 0.01026,-0.07038 0.04844,-0.186232 0.07996,-0.302522 0.03459,-0.119362 0.0264,-0.198452 0.07996,-0.302519 0.0533,-0.104019 0.133259,-0.189281 0.240122,-0.302521 0.107118,-0.11324 0.258701,-0.222945 0.400415,-0.302521 0.141716,-0.08263 0.340451,-0.174857 0.560585,-0.226891 0.220389,-0.05508 0.450004,-0.07564 0.720749,-0.07564 l -0.960999,-0.605042 z m 3.443584,0 c -0.198352,0 -0.375047,0.01452 -0.560584,0.07564 -0.185793,0.05813 -0.364155,0.156488 -0.4805,0.22689 -0.11327,0.07038 -0.200657,0.110603 -0.320332,0.226891 -0.116603,0.116313 -0.199377,0.253562 -0.240123,0.302521 -0.03793,0.04896 -0.103532,0.06863 -0.160167,0.151261 l 0.560584,0.378151 c 0,-0.0029 0.05203,-0.0389 0.07996,-0.07564 0.02844,-0.03671 0.06458,-0.05723 0.07996,-0.07564 0.01537,-0.0213 0.04203,-0.03279 0.07996,-0.07564 0.03768,-0.04591 0.04844,-0.126696 0.07996,-0.151261 0.03459,-0.02752 0.113013,-0.03582 0.160166,-0.07564 0.05023,-0.03977 0.109938,-0.05107 0.160167,-0.07564 0.05048,-0.02449 0.100191,-0.05107 0.160166,-0.07564 0.05997,-0.02452 0.09098,-0.06329 0.160167,-0.07564 0.06919,-0.01234 0.164522,6e-6 0.240121,0 0.305367,6e-6 0.558407,0.07914 0.800833,0.302522 0.245504,0.223405 0.356339,0.525016 0.400417,0.907563 -0.163753,0 -0.299704,-0.0029 -0.400417,0 -0.100714,0 -0.208344,0.06643 -0.400415,0.07564 -0.191946,0.0092 -0.348523,-0.01839 -0.480501,0 -0.129158,0.01525 -0.297782,0.0389 -0.480499,0.07564 -0.179387,0.03674 -0.354673,0.102301 -0.4805,0.151261 -0.122752,0.04896 -0.265109,0.07168 -0.400418,0.15126 -0.135564,0.07648 -0.238583,0.201528 -0.320332,0.302521 -0.082,0.09794 -0.106608,0.240419 -0.160167,0.378151 -0.05331,0.134658 -0.07996,0.288532 -0.07996,0.453782 0,0.15915 0.01795,0.297679 0.07996,0.453781 0.06612,0.153027 0.194506,0.243492 0.320332,0.378151 0.129159,0.134658 0.263186,0.295526 0.4805,0.378151 0.217316,0.08261 0.443727,0.07564 0.72075,0.07564 0.585597,0 1.190617,-0.203246 1.68175,-0.680673 -0.01537,0.192791 -0.0269,0.372464 0.07996,0.605042 l 0.880917,0 c -0.05971,-0.113239 -0.119164,-0.245671 -0.160167,-0.453781 -0.04075,-0.211159 -0.07996,-0.396955 -0.07996,-0.605041 l 0,-1.588235 c -0.0051,-0.321338 -0.04381,-0.565676 -0.160165,-0.831932 -0.116345,-0.269312 -0.291633,-0.509276 -0.4805,-0.680673 -0.185795,-0.174446 -0.401571,-0.28328 -0.640668,-0.378151 -0.236021,-0.09488 -0.465764,-0.15126 -0.72075,-0.15126 z m 5.685915,0 c -0.277075,0 -0.594435,0.08001 -0.880915,0.226891 -0.283329,0.146905 -0.516251,0.299883 -0.720751,0.529412 0,-0.220357 0.0051,-0.420536 -0.07996,-0.680672 l -0.880915,0 c 0.06278,0.104067 0.122239,0.317368 0.160166,0.605041 0.04101,0.287681 0.07996,0.523724 0.07996,0.756302 l 0,5.369746 0.720749,0 0,-2.798319 c 0.19835,0.22648 0.434269,0.388655 0.720751,0.529412 0.28648,0.137707 0.600713,0.226891 0.880915,0.226891 0.428145,0 0.768544,-0.08524 1.121167,-0.30252 0.355724,-0.220358 0.682566,-0.543379 0.880916,-0.907564 0.201426,-0.367245 0.320334,-0.709057 0.320334,-1.134453 0,-0.42539 -0.118651,-0.845897 -0.320334,-1.210083 -0.19835,-0.367243 -0.525192,-0.687207 -0.880916,-0.907563 -0.352623,-0.220356 -0.693022,-0.302516 -1.121167,-0.302521 z m 12.653167,0 c -0.42817,5e-6 -0.765417,0.08217 -1.121167,0.302521 -0.355749,0.220356 -0.679234,0.54032 -0.880917,0.907563 -0.198349,0.364186 -0.320333,0.784693 -0.320333,1.210083 0,0.428454 0.121984,0.767208 0.320333,1.134453 0.201426,0.36419 0.525168,0.690281 0.880917,0.907564 0.35575,0.217258 0.692997,0.30252 1.121167,0.30252 0.859467,0 1.575297,-0.434926 2.082167,-1.285713 L 68.554916,65.36975 c -0.0474,0.07955 -0.13454,0.111472 -0.160167,0.15126 -0.02563,0.03977 -0.0656,0.116724 -0.160167,0.22689 -0.09124,0.107117 -0.149147,0.241316 -0.240121,0.302521 -0.09124,0.06118 -0.249605,0.09615 -0.400417,0.15126 -0.151197,0.05508 -0.313671,0.07564 -0.480501,0.07564 -0.421864,0 -0.80319,-0.198889 -1.121166,-0.529411 -0.314875,-0.33052 -0.400415,-0.735721 -0.400415,-1.210083 0,-0.474355 0.08866,-0.813108 0.400415,-1.134453 0.314824,-0.321336 0.692996,-0.529406 1.121166,-0.529412 0.160423,0 0.338785,0.02667 0.480501,0.07564 0.141716,0.04591 0.229102,0.087 0.320333,0.151261 0.09457,0.06123 0.232177,0.2046 0.320333,0.30252 0.09149,0.09794 0.122239,0.168735 0.160166,0.226891 0.04076,0.05508 0.113015,0.06863 0.160167,0.15126 l 0.640668,-0.302521 c -0.04715,-0.07348 -0.06201,-0.12067 -0.07996,-0.15126 -0.01795,-0.03059 -0.07842,-0.119774 -0.160167,-0.22689 -0.07894,-0.107117 -0.174006,-0.165685 -0.240123,-0.226891 -0.06612,-0.06121 -0.197581,-0.13202 -0.320332,-0.226891 -0.119676,-0.0949 -0.200658,-0.174857 -0.320333,-0.226891 -0.116602,-0.05508 -0.233202,-0.111472 -0.400418,-0.15126 -0.166829,-0.04296 -0.384272,-0.07564 -0.560582,-0.07564 z m 4.644833,0 c -0.362053,5e-6 -0.619627,0.08524 -0.880917,0.302521 -0.258085,0.217282 -0.400416,0.543378 -0.400416,0.907563 0,0.189741 -0.0016,0.306877 0.07996,0.453781 0.08507,0.146904 0.1881,0.286355 0.320334,0.378152 0.132233,0.08874 0.319819,0.153438 0.4805,0.22689 0.160678,0.07343 0.323152,0.162635 0.480499,0.226891 0.16068,0.06121 0.268439,0.156487 0.400418,0.22689 0.132233,0.0673 0.238582,0.122824 0.320333,0.22689 0.08508,0.100994 0.160166,0.243494 0.160166,0.378152 0,0.238726 -0.131464,0.379458 -0.320333,0.529411 -0.188869,0.146905 -0.391832,0.22689 -0.640667,0.22689 -0.232946,0 -0.390679,-0.08613 -0.560583,-0.22689 -0.169906,-0.140781 -0.27933,-0.317365 -0.320333,-0.605041 l -0.07996,-0.151261 -0.72075,0.07564 0,0.15126 c 0.04715,0.318278 0.150429,0.605477 0.320334,0.831933 0.169903,0.223405 0.414127,0.352787 0.640666,0.453781 0.226539,0.09794 0.45946,0.15126 0.72075,0.15126 0.456488,0 0.867514,-0.09659 1.20125,-0.378151 0.333736,-0.281556 0.4805,-0.624251 0.4805,-1.058823 0,-0.20811 -0.07842,-0.43977 -0.160167,-0.605042 -0.082,-0.16525 -0.188357,-0.274084 -0.320333,-0.378151 -0.132234,-0.104043 -0.239609,-0.219896 -0.400417,-0.302521 -0.157348,-0.08262 -0.319822,-0.165684 -0.4805,-0.226892 -0.157348,-0.06118 -0.268182,-0.0931 -0.400416,-0.151259 -0.132234,-0.06121 -0.238585,-0.147316 -0.320334,-0.226891 -0.08174,-0.08262 -0.160166,-0.128947 -0.160166,-0.22689 0,-0.149955 0.05305,-0.283281 0.160166,-0.378152 0.107121,-0.09488 0.233459,-0.15126 0.400417,-0.15126 0.141716,0 0.277665,0.06864 0.400417,0.15126 0.125826,0.07958 0.260367,0.143395 0.320333,0.302521 l 0,0.15126 0.72075,-0.22689 -0.07996,-0.15126 c -0.08508,-0.226456 -0.150426,-0.379458 -0.320331,-0.529412 -0.166829,-0.149953 -0.39683,-0.250488 -0.560585,-0.302521 -0.163753,-0.05201 -0.313669,-0.07564 -0.480499,-0.07564 z m -8.809167,0.07564 0,4.613443 0.800834,0 0,-4.613443 -0.800834,0 z m -8.488833,0.605042 c 0.418689,6e-6 0.806344,0.19584 1.121167,0.529412 0.314875,0.330525 0.40039,0.735728 0.400417,1.210083 -2.7e-5,0.474362 -0.08559,0.879564 -0.400417,1.210084 -0.314823,0.33051 -0.702478,0.45378 -1.121167,0.45378 -0.425044,0 -0.806343,-0.126332 -1.121165,-0.45378 -0.311672,-0.330522 -0.480501,-0.732662 -0.480501,-1.210084 0,-0.474355 0.16888,-0.879558 0.480501,-1.210083 0.314822,-0.333577 0.696121,-0.529406 1.121165,-0.529412 z m -4.404582,1.815125 0,0.605042 c -0.163755,0.263196 -0.418535,0.487882 -0.72075,0.680671 -0.302217,0.192815 -0.652455,0.302524 -0.961,0.302521 -0.299088,0 -0.489725,-0.08613 -0.640667,-0.22689 -0.150941,-0.140781 -0.240122,-0.219025 -0.240122,-0.378151 0,-0.153027 0.05638,-0.340542 0.160167,-0.453781 0.103788,-0.113216 0.243197,-0.162635 0.400417,-0.226892 0.157348,-0.0643 0.324305,-0.111472 0.560583,-0.151259 0.236022,-0.03979 0.512917,-0.06039 0.72075,-0.07564 0.210907,-0.01525 0.456282,-0.07272 0.72075,-0.07564 z"
         id="path4677"
         style="font-size:3.82890081px;font-style:normal;font-variant:normal;font-weight:bold;font-stretch:normal;opacity:0.7;fill:#000000;fill-opacity:1;stroke:none;font-family:Sawasdee;-inkscape-font-specification:Aller Bold" />
      <path
         d="m 35.042318,76 0,6.920313 0.716106,0 0,-6.920313 -0.716106,0 z m 7.39976,1.165527 0,1.092681 -0.397836,0 0,0.655608 0.397836,0 0,4.006497 0.795674,0 0,-4.006497 1.193508,0 0.238575,-0.655608 -1.432211,0 0,-1.092681 -0.795673,0 z m 23.472356,0 0,1.092681 -0.397837,0 0,0.655608 0.397837,0 0,4.006497 0.795672,0 0,-4.006497 1.113942,0 0.31827,-0.655608 -1.432212,0 0,-1.092681 -0.795672,0 z m -12.810337,0.946989 c -0.452069,0.151705 -0.843007,0.429823 -1.193509,0.8013 0,-0.244556 0.0052,-0.505559 -0.07944,-0.728454 l -0.875241,0 c 0.05881,0.108347 0.116615,0.361523 0.159135,0.655608 0.04609,0.294095 0.07944,0.56915 0.07944,0.8013 l 0,3.278043 0.716106,0 0,-2.403898 c 0,-0.06502 -0.0077,-0.147322 0,-0.218537 0.01018,-0.07118 0.04659,-0.173756 0.07944,-0.291381 0.03591,-0.120749 0.103374,-0.186134 0.159134,-0.291382 0.05552,-0.10527 0.127308,-0.249678 0.238575,-0.364227 0.111266,-0.114548 0.250541,-0.21089 0.397836,-0.291382 0.147422,-0.08359 0.327564,-0.165924 0.556972,-0.218536 0.229408,-0.05569 0.513941,-0.07285 0.795673,-0.07285 l -1.034377,-0.655604 z m -16.152163,0.07285 c 0.06544,0.105247 0.119924,0.361523 0.159135,0.655608 0.04353,0.290997 0.07944,0.562935 0.07944,0.8013 l 0,3.278043 0.716105,0 0,-2.331053 c 0,-0.19194 0.09141,-0.459129 0.238574,-0.728454 0.147423,-0.272418 0.321198,-0.521037 0.556971,-0.728455 0.235775,-0.210494 0.502994,-0.291379 0.716106,-0.291381 0.170339,0 0.27664,0.06829 0.397837,0.145691 0.121452,0.07432 0.256144,0.164456 0.31827,0.291382 0.06213,0.123825 0.132908,0.234201 0.159135,0.364227 0.02903,0.130026 0,0.294668 0,0.437072 l 0,2.840971 0.795672,0 0,-2.840971 c 0,-0.253845 -0.01528,-0.505559 -0.07944,-0.728454 -0.06543,-0.225973 -0.187142,-0.476048 -0.318269,-0.655609 -0.131127,-0.179537 -0.340803,-0.262056 -0.556971,-0.364227 -0.216169,-0.10527 -0.440944,-0.14569 -0.716106,-0.14569 -0.255531,4e-6 -0.52051,0.02662 -0.795673,0.218536 -0.275188,0.191939 -0.529473,0.462225 -0.716106,0.728453 0,-0.232171 0.01782,-0.407746 0,-0.509917 -0.01273,-0.102147 -0.02291,-0.266789 -0.07944,-0.437072 l -0.87524,0 z m 10.582451,0 c -0.442241,4e-6 -0.820038,0.06851 -1.193509,0.291381 -0.37347,0.222895 -0.662127,0.502666 -0.87524,0.874145 -0.212859,0.36839 -0.31827,0.808074 -0.31827,1.238372 0,0.433399 0.112031,0.794047 0.31827,1.165526 0.209547,0.368388 0.505055,0.65435 0.87524,0.874145 0.370185,0.219795 0.748009,0.364226 1.193509,0.364226 0.121452,0 0.27333,0.01539 0.397838,0 0.127815,-0.01538 0.22075,-0.08998 0.397835,-0.14569 0.176958,-0.05571 0.39631,-0.128767 0.556972,-0.218536 0.160662,-0.08977 0.307067,-0.203268 0.477403,-0.364227 0.170339,-0.164082 0.349588,-0.369169 0.477405,-0.582764 l -0.716106,-0.291385 c -0.189943,0.30338 -0.437658,0.497751 -0.716106,0.655609 -0.278448,0.154782 -0.550911,0.218536 -0.875241,0.218536 -0.412756,0 -0.796182,-0.142987 -1.113941,-0.437072 -0.317912,-0.297183 -0.517506,-0.6469 -0.556972,-1.092681 l 4.1375,0 -0.07944,-0.364227 c -0.03616,-0.402436 -0.102101,-0.755248 -0.318268,-1.092681 -0.216168,-0.340522 -0.518169,-0.600061 -0.87524,-0.801299 -0.357074,-0.201217 -0.7709,-0.291378 -1.19351,-0.291382 z m 7.001923,0 c 0.06544,0.105247 0.119671,0.361523 0.159135,0.655608 0.04353,0.290997 0.07944,0.562935 0.07944,0.8013 l 0,3.278043 0.795673,0 0,-2.331053 c 0,-0.19194 0.09141,-0.459129 0.238575,-0.728454 0.147421,-0.272418 0.321196,-0.521037 0.55697,-0.728455 0.235774,-0.210494 0.423426,-0.291379 0.636539,-0.291381 0.170338,0 0.356207,0.06829 0.477404,0.145691 0.121451,0.07432 0.176448,0.164456 0.238574,0.291382 0.06238,0.123825 0.132909,0.234201 0.159135,0.364227 0.02877,0.130026 0,0.294668 0,0.437072 l 0,2.840971 0.795674,0 0,-2.840971 c 0,-0.253845 -0.01273,-0.505559 -0.07944,-0.728454 -0.06544,-0.225973 -0.187142,-0.476048 -0.318268,-0.655609 -0.131129,-0.179537 -0.261237,-0.262056 -0.477406,-0.364227 -0.216167,-0.10527 -0.520483,-0.14569 -0.795672,-0.14569 -0.255532,4e-6 -0.520485,0.02662 -0.795673,0.218536 -0.275163,0.191939 -0.449906,0.462225 -0.63654,0.728453 0,-0.232171 -0.06161,-0.407746 -0.07944,-0.509917 -0.01274,-0.102147 -0.02291,-0.266789 -0.07944,-0.437072 l -0.875241,0 z m 7.71803,0 c -0.442242,4e-6 -0.820041,0.06851 -1.193509,0.291381 -0.373445,0.222895 -0.662129,0.502666 -0.875241,0.874145 -0.21286,0.36839 -0.318269,0.808074 -0.318269,1.238372 0,0.433399 0.11203,0.794047 0.318269,1.165526 0.209549,0.368388 0.505054,0.65435 0.875241,0.874145 0.370184,0.219805 0.747983,0.364226 1.193509,0.364226 0.121451,0 0.273329,0.01539 0.397836,0 0.127818,-0.01538 0.300447,-0.08998 0.477404,-0.14569 0.176957,-0.05571 0.316995,-0.128767 0.477404,-0.218536 0.160408,-0.08977 0.307065,-0.203268 0.477403,-0.364227 0.170338,-0.164082 0.349588,-0.369169 0.477406,-0.582764 l -0.716107,-0.291381 c -0.189943,0.30338 -0.358092,0.49775 -0.636539,0.655609 -0.278473,0.154782 -0.630503,0.218536 -0.954807,0.218536 -0.412784,0 -0.796208,-0.142987 -1.113942,-0.437072 -0.317939,-0.297184 -0.437939,-0.646899 -0.477404,-1.092681 l 4.057932,0 0,-0.364227 c -0.03615,-0.402436 -0.181541,-0.755247 -0.397836,-1.092681 -0.216169,-0.340522 -0.518168,-0.600061 -0.875241,-0.8013 -0.357071,-0.201216 -0.770924,-0.291377 -1.193509,-0.291381 z m -14.719953,0.655608 c 0.353814,4e-6 0.666533,0.144433 0.954808,0.364227 0.291536,0.219794 0.531892,0.52124 0.636539,0.874145 l -3.103125,0 c 0.114577,-0.352905 0.268671,-0.654351 0.556972,-0.874145 0.291559,-0.219771 0.607563,-0.364223 0.954806,-0.364227 z m 14.719953,0 c 0.353787,4e-6 0.746074,0.144433 1.034375,0.364227 0.291559,0.219794 0.452324,0.52124 0.556971,0.874145 l -3.103125,0 c 0.114577,-0.352905 0.268696,-0.654351 0.556972,-0.874145 0.291559,-0.219771 0.607563,-0.364223 0.954807,-0.364227 z"
         id="path4679"
         style="font-size:4.01558495px;font-style:normal;font-variant:normal;font-weight:bold;font-stretch:normal;opacity:0.7;fill:#000000;fill-opacity:1;stroke:none;font-family:Sawasdee;-inkscape-font-specification:Aller Bold" />
      <path
         d="m 38.848127,92 c -0.514571,0 -1.083373,0.107222 -1.555627,0.291364 -0.46898,0.184143 -0.804288,0.41537 -1.14625,0.728412 -0.338739,0.313042 -0.616748,0.659883 -0.818749,1.092614 C 35.125735,94.54513 35,95.02068 35,95.49637 c 0,0.4757 0.125498,0.95125 0.327501,1.38399 0.202001,0.42965 0.48001,0.78265 0.818749,1.09261 0.341962,0.30997 0.67727,0.54427 1.14625,0.72841 0.472254,0.18415 1.041058,0.29137 1.555627,0.29137 0.511344,0 0.926142,-0.10722 1.391874,-0.29137 0.468979,-0.18414 0.889385,-0.41844 1.228126,-0.72841 0.341935,-0.30996 0.620154,-0.66296 0.818749,-1.09261 0.20174,-0.43274 0.3275,-0.90829 0.3275,-1.38399 0,-0.47569 -0.12576,-0.95124 -0.3275,-1.38398 C 42.088281,93.679659 41.810062,93.332818 41.468127,93.019776 41.129386,92.706734 40.70898,92.475507 40.240001,92.291364 39.774269,92.107222 39.359471,92 38.848127,92 z m 9.579373,0.07273 c -0.29965,0 -0.561466,0.02331 -0.818749,0.145682 -0.254141,0.12284 -0.472649,0.29507 -0.655001,0.509889 -0.322418,-0.276215 -0.726552,-0.364207 -1.228126,-0.364207 -0.540635,0 -1.017318,0.135426 -1.391873,0.509889 -0.374609,0.374438 -0.549545,0.846914 -0.573124,1.383977 l -0.409377,0 0,0.72842 0.409377,0 0,3.93342 0.818747,0 0,-3.93342 1.883126,0 0,3.93342 0.81875,0 0,-3.93342 1.965,0 0,3.93342 0.736876,0 0,-4.66184 -2.701876,0 0,-0.14568 c 0,-0.402035 0.142267,-0.752767 0.409376,-1.019774 0.27033,-0.270083 0.5917,-0.437048 0.9825,-0.437048 0.293124,0 0.547972,0.07435 0.736874,0.218407 -0.08804,0.04614 -0.193357,0.138691 -0.245494,0.218407 -0.05187,0.07971 -0.082,0.129599 -0.08174,0.218407 0,0.13496 0.06603,0.266004 0.163751,0.364206 0.100873,0.09813 0.18078,0.145682 0.327501,0.145682 0.12707,2.3e-5 0.295405,-0.0627 0.409375,-0.145682 0.11397,-0.08601 0.163749,-0.176917 0.163749,-0.364206 -0.0131,-0.141253 -0.09222,-0.29894 -0.163749,-0.437046 -0.06838,-0.141254 -0.11528,-0.241436 -0.245494,-0.364206 -0.130214,-0.122606 -0.354879,-0.287472 -0.573126,-0.364206 -0.218246,-0.07668 -0.466544,-0.07273 -0.736874,-0.07273 z m -9.579373,0.655571 c 0.547159,0 1.011265,0.115612 1.47375,0.364205 0.46573,0.248592 0.875917,0.590118 1.14625,1.019774 0.270304,0.42966 0.327472,0.87759 0.327499,1.38398 -2.7e-5,0.50332 -0.05712,0.95433 -0.327499,1.38398 -0.270333,0.42659 -0.68052,0.76813 -1.14625,1.01978 -0.462485,0.24859 -0.926591,0.3642 -1.47375,0.3642 -0.413621,0 -0.850297,-0.0713 -1.228126,-0.2184 -0.374528,-0.14732 -0.712195,-0.33414 -0.9825,-0.58273 -0.267057,-0.25167 -0.495443,-0.53035 -0.655001,-0.8741 -0.156413,-0.34371 -0.16375,-0.71512 -0.16375,-1.09261 0,-0.38055 0.0078,-0.74888 0.16375,-1.09262 0.159558,-0.34679 0.384668,-0.6255 0.655001,-0.874091 0.270305,-0.248592 0.607972,-0.435415 0.9825,-0.582729 0.374556,-0.147314 0.814505,-0.218407 1.228126,-0.218407 z m 7.041249,0.218406 c 0.315917,0 0.633254,0.05291 0.818748,0.218406 -0.123662,0.276214 -0.245494,0.633893 -0.245494,0.946937 l 0,0.14568 -1.883123,0 c 0.02358,-0.383623 0.152221,-0.698342 0.409375,-0.946935 0.260428,-0.248568 0.529344,-0.364205 0.900625,-0.364205 z M 53.34,94.18524 c -0.442938,0 -0.86012,0.14312 -1.228126,0.3642 -0.36803,0.22098 -0.610199,0.50581 -0.818747,0.8741 -0.205149,0.36521 -0.327503,0.73888 -0.327503,1.16545 0,0.42966 0.122354,0.87002 0.327503,1.2383 0.208548,0.36521 0.450717,0.6562 0.818747,0.8741 0.368006,0.21794 0.785188,0.29136 1.228126,0.29136 0.889124,0 1.604384,-0.45795 2.12875,-1.31114 l -0.655,-0.29136 c -0.049,0.0797 -0.13755,0.10582 -0.16375,0.14568 -0.0262,0.0399 -0.06603,0.10815 -0.163751,0.21841 -0.09432,0.10745 -0.151174,0.23006 -0.245493,0.29136 -0.09458,0.0613 -0.253092,0.0904 -0.409376,0.14568 -0.156414,0.0552 -0.318593,0.0727 -0.49125,0.0727 -0.436412,0 -0.817308,-0.10559 -1.146247,-0.43704 -0.325563,-0.33146 -0.491254,-0.76261 -0.491254,-1.2383 0,-0.4757 0.168729,-0.84321 0.491254,-1.16546 0.325717,-0.32222 0.703311,-0.50989 1.146247,-0.50989 0.166108,0 0.34453,0.0238 0.49125,0.0727 0.146719,0.0461 0.232917,0.0814 0.327499,0.14568 0.09801,0.0613 0.236325,0.12028 0.3275,0.21841 0.09458,0.0981 0.12445,0.23309 0.163751,0.29137 0.04244,0.0552 0.114756,0.13566 0.16375,0.2184 l 0.655,-0.3642 c -0.049,-0.0737 -0.06078,-0.11492 -0.08174,-0.14569 -0.01835,-0.0308 -0.07886,-0.11118 -0.163751,-0.2184 -0.08148,-0.10746 -0.17711,-0.23006 -0.245491,-0.29137 -0.06838,-0.0613 -0.200433,-0.1233 -0.327501,-0.2184 -0.123926,-0.0951 -0.203837,-0.16643 -0.327502,-0.21841 -0.120519,-0.0552 -0.318591,-0.10582 -0.491249,-0.14568 -0.172658,-0.0426 -0.308896,-0.0727 -0.491249,-0.0727 z m 5.485624,0 c -0.439688,0 -0.856844,0.14312 -1.228124,0.3642 -0.371306,0.22098 -0.68893,0.50581 -0.900624,0.8741 -0.211696,0.36521 -0.327502,0.73888 -0.327502,1.16545 0,0.42966 0.122356,0.87002 0.327502,1.2383 0.208549,0.36521 0.450717,0.6562 0.81875,0.8741 0.36803,0.21794 0.785185,0.29136 1.228124,0.29136 0.120519,0 0.285709,0.0163 0.409376,0 0.12707,-0.0163 0.233442,-0.0904 0.409373,-0.14568 0.175802,-0.0552 0.331693,-0.1296 0.491251,-0.21841 0.159558,-0.089 0.321998,-0.20465 0.49125,-0.3642 0.169513,-0.1627 0.364179,-0.37099 0.491249,-0.58273 L 60.38125,97.39037 c -0.188903,0.30075 -0.460047,0.49905 -0.736877,0.65557 -0.276854,0.15337 -0.578179,0.2184 -0.900623,0.2184 -0.410371,0 -0.748456,-0.14545 -1.064376,-0.43704 -0.315841,-0.29463 -0.533825,-0.65068 -0.573125,-1.09262 l 4.093751,0 0,-0.36421 C 61.1641,95.97149 61.005333,95.61238 60.790623,95.27785 60.575522,94.94026 60.326884,94.6761 59.971874,94.4766 59.616892,94.27707 59.245768,94.18523 58.825624,94.18523 z m 0,0.72841 c 0.351735,0 0.614024,0.0734 0.900625,0.29136 0.28985,0.21795 0.469111,0.52423 0.573125,0.8741 l -3.029374,0 c 0.11397,-0.34987 0.286524,-0.6562 0.573126,-0.8741 0.289901,-0.21794 0.637262,-0.29136 0.982498,-0.29136 z"
         id="path4681"
         style="font-size:3.93014598px;font-style:normal;font-variant:normal;font-weight:bold;font-stretch:normal;opacity:0.7;fill:#000000;fill-opacity:1;stroke:none;font-family:Sawasdee;-inkscape-font-specification:Aller Bold" />
      <path
         d="M 35.088321,20.95 32,27.847197 l 0.751195,0 0.918152,-2.018693 2.837975,0 0.834685,2.018693 0.834661,0 L 35.088321,20.95 z m 15.024455,0 0,6.897197 0.751196,0 0,-6.897197 -0.751196,0 z m 2.420594,0.75701 c -0.147035,0 -0.312933,-0.01374 -0.41733,0.08411 -0.101551,0.09816 -0.08321,0.279435 -0.08321,0.420561 0,0.138042 -0.0181,0.241381 0.08321,0.336449 0.101307,0.09507 0.266781,0.08411 0.41733,0.08411 0.144192,2.9e-5 0.232051,0.01125 0.333864,-0.08411 0.104396,-0.09507 0.167191,-0.19841 0.167191,-0.336449 0,-0.141104 -0.06254,-0.322371 -0.167191,-0.420561 -0.101306,-0.09816 -0.189414,-0.08411 -0.333864,-0.08411 z m 14.857473,0 c -0.147035,0 -0.229725,-0.01374 -0.333864,0.08411 -0.101551,0.09816 -0.167192,0.279435 -0.167192,0.420561 0,0.138042 0.06564,0.241381 0.167192,0.336449 0.101306,0.09507 0.182953,0.08411 0.333864,0.08411 0.144191,2.9e-5 0.315852,0.01125 0.417329,-0.08411 0.104398,-0.09507 0.08321,-0.19841 0.08321,-0.336449 0,-0.141104 0.02067,-0.322371 -0.08321,-0.420561 -0.101306,-0.09816 -0.273086,-0.08411 -0.417329,-0.08411 z m -3.004856,0.420558 0,1.093459 -0.417355,0 0,0.672897 0.417355,0 0,3.953273 0.667729,0 0,-3.953273 1.085111,0 0.250138,-0.672897 -1.335481,0 0,-1.093459 -0.667729,0 z m -29.297666,0.588787 1.085111,2.355142 -2.170168,0 1.085057,-2.355142 z m 6.093254,0.420559 c -0.270323,0 -0.555191,0.02117 -0.834712,0.168226 -0.276395,0.147256 -0.551677,0.358709 -0.751193,0.588784 0,-0.220868 -6.72e-4,-0.412137 -0.08321,-0.672897 l -0.834686,0 c 0.06175,0.104288 0.12972,0.300425 0.167191,0.588786 0.0411,0.288369 0.08321,0.523865 0.08321,0.757011 l 0,5.383176 0.667755,0 0,-2.7757 c 0.193289,0.226991 0.471699,0.363553 0.751194,0.504674 0.279521,0.138043 0.561341,0.252338 0.834712,0.252338 0.417719,0 0.824506,-0.118644 1.16855,-0.336449 0.347044,-0.220868 0.557828,-0.560171 0.751222,-0.925233 0.196646,-0.368121 0.333887,-0.751156 0.333887,-1.177571 0,-0.42641 -0.137213,-0.81251 -0.333887,-1.177569 -0.193552,-0.368128 -0.404181,-0.620252 -0.751223,-0.841124 -0.344044,-0.220868 -0.750831,-0.336446 -1.16855,-0.336449 z m 5.592431,0 c -0.270296,0 -0.555216,0.02117 -0.834713,0.168226 -0.276417,0.147256 -0.468236,0.358709 -0.667753,0.588784 0,-0.220868 -0.08399,-0.412137 -0.16719,-0.672897 l -0.751221,0 c 0.06151,0.104288 0.04651,0.300425 0.08321,0.588786 0.0411,0.288369 0.08321,0.523865 0.08321,0.757011 l 0,5.383176 0.751195,0 0,-2.7757 c 0.19329,0.226991 0.388259,0.363553 0.66778,0.504674 0.27952,0.138043 0.561341,0.252338 0.834711,0.252338 0.417719,0 0.824532,-0.118644 1.168551,-0.336449 0.347069,-0.220868 0.641319,-0.560171 0.834712,-0.925233 0.196392,-0.368121 0.25014,-0.751156 0.25014,-1.177571 -2.6e-5,-0.42641 -0.05401,-0.81251 -0.25014,-1.177569 -0.19329,-0.368128 -0.487643,-0.620252 -0.834712,-0.841124 -0.344019,-0.220868 -0.750832,-0.336446 -1.168551,-0.336449 z m 9.431973,0 c -0.417719,3e-6 -0.82148,0.115584 -1.168524,0.33645 -0.347119,0.220869 -0.554674,0.472996 -0.751247,0.841122 -0.19329,0.36506 -0.333888,0.75116 -0.333888,1.177571 0,0.429483 0.140315,0.893557 0.333888,1.261681 0.196649,0.365059 0.404128,0.623318 0.751247,0.841122 0.347044,0.217779 0.750805,0.33645 1.168524,0.33645 0.838563,0 1.508746,-0.408855 2.003264,-1.261683 l -0.584262,-0.33645 c -0.04626,0.07971 -0.142901,0.128372 -0.167192,0.168225 -0.02326,0.03989 -0.07494,0.0578 -0.167191,0.168229 -0.08889,0.107381 -0.161764,0.190969 -0.25014,0.252338 -0.08916,0.06137 -0.186054,0.197095 -0.333915,0.25234 -0.147293,0.05522 -0.337869,0 -0.500797,0 -0.411541,0 -0.774916,-0.08926 -1.085084,-0.420563 -0.307299,-0.331308 -0.417486,-0.786183 -0.417486,-1.261681 0,-0.475493 0.113443,-0.855456 0.417331,-1.177569 0.30717,-0.322103 0.667367,-0.504672 1.085084,-0.504674 0.156855,0 0.362755,0.03499 0.500849,0.08409 0.137991,0.046 0.244713,0.103826 0.333863,0.168226 0.09174,0.06137 0.164608,0.154179 0.250141,0.252339 0.08889,0.09819 0.129721,0.194062 0.16719,0.252311 0.0398,0.05522 0.120936,0.0854 0.167192,0.168227 l 0.584262,-0.336447 c -0.04626,-0.07364 -0.06486,-0.137557 -0.08321,-0.168227 -0.01809,-0.03067 -0.08681,-0.06085 -0.16719,-0.168226 -0.07726,-0.107381 -0.102594,-0.190971 -0.166932,-0.25234 -0.0646,-0.06135 -0.214222,-0.15724 -0.333865,-0.25231 -0.1168,-0.09507 -0.217321,-0.200213 -0.333915,-0.25234 -0.113959,-0.05516 -0.254275,-0.04424 -0.41733,-0.08409 -0.162798,-0.04289 -0.328775,-0.08411 -0.500822,-0.08411 z m 4.841212,0 c -0.19329,2.9e-5 -0.319728,0.0226 -0.500797,0.08409 -0.181145,0.05827 -0.387044,0.09769 -0.500822,0.168226 -0.110339,0.07055 -0.217321,0.135783 -0.333863,0.25234 -0.113959,0.116586 -0.210604,0.203245 -0.25014,0.252338 -0.03643,0.0491 -0.02816,0.169543 -0.08321,0.25234 l 0.584287,0.336447 c 0,-0.0032 -0.02765,-0.0473 0,-0.08411 0.02739,-0.03682 0.06744,-0.06554 0.08321,-0.08408 0.0155,-0.02173 0.04651,-0.04116 0.08321,-0.08409 0.03696,-0.046 0.05297,-0.05937 0.08321,-0.08412 0.03384,-0.02747 0.120934,-0.04423 0.167189,-0.0841 0.04909,-0.03986 0.117836,-0.05937 0.167191,-0.08411 0.04909,-0.02432 0.02326,-0.05937 0.08321,-0.08411 0.05841,-0.02432 0.182953,-0.07173 0.250141,-0.0841 0.06796,-0.01259 0.09302,5e-6 0.167189,0 0.297946,5e-6 0.598035,0.112488 0.834686,0.336449 0.239545,0.223957 0.374331,0.541767 0.41733,0.925232 -0.159696,0 -0.31903,-0.0032 -0.41733,0 -0.09819,0 -0.229983,-0.0092 -0.417355,0 -0.187347,0.0092 -0.371774,-0.01861 -0.500796,0 -0.125587,0.01516 -0.239288,0.04729 -0.417356,0.08414 -0.175201,0.0368 -0.294458,0.119132 -0.417331,0.168226 -0.119902,0.0491 -0.285411,0.08846 -0.417355,0.168226 -0.13179,0.07672 -0.254017,0.151119 -0.33389,0.252341 -0.07934,0.09816 -0.114734,0.282494 -0.167191,0.420563 -0.05168,0.134953 -0.08321,0.254914 -0.08321,0.42056 0,0.159556 0.02069,0.348209 0.08321,0.504669 0.06461,0.153378 0.127654,0.285585 0.250139,0.420563 0.125587,0.134982 0.372186,0.253628 0.584261,0.336448 0.212155,0.08282 0.397461,0.08411 0.667756,0.08411 0.571316,0 1.106738,-0.278461 1.585907,-0.757008 -0.0155,0.193233 0.06254,0.439749 0.167189,0.672896 l 0.751246,0 c -0.0584,-0.113496 -0.04341,-0.296077 -0.08321,-0.504672 -0.0411,-0.211655 -0.08321,-0.380186 -0.08321,-0.588786 l 0,-1.51402 c -0.0052,-0.322105 -0.05322,-0.658334 -0.16719,-0.925233 -0.113959,-0.269964 -0.316499,-0.50112 -0.500797,-0.672897 -0.180886,-0.174893 -0.350841,-0.325466 -0.584287,-0.420561 -0.229727,-0.09504 -0.50227,-0.08412 -0.750962,-0.08412 z m 10.266711,0 c -0.454593,3e-6 -0.865049,0.121706 -1.252043,0.33645 -0.38397,0.211655 -0.693802,0.469931 -0.918178,0.841122 -0.224299,0.368128 -0.333864,0.741956 -0.333864,1.177571 0,0.435617 0.109565,0.893559 0.333864,1.261681 0.224298,0.368129 0.534208,0.626391 0.918178,0.841122 0.386994,0.211656 0.79745,0.33645 1.252043,0.33645 0.451517,0 0.951565,-0.124797 1.335507,-0.33645 0.383946,-0.214746 0.610338,-0.472993 0.834661,-0.841122 0.224299,-0.368122 0.333891,-0.826064 0.333891,-1.261681 0,-0.435615 -0.109565,-0.809443 -0.333891,-1.177571 -0.22404,-0.371191 -0.450715,-0.629429 -0.834661,-0.841122 -0.383942,-0.214747 -0.88399,-0.336447 -1.335507,-0.33645 z m 5.759364,0 c -0.239545,3e-6 -0.4932,0.06217 -0.751247,0.252311 -0.257893,0.190198 -0.492501,0.409095 -0.667754,0.6729 0,-0.230081 0.01549,-0.403443 0,-0.504674 -0.01292,-0.10125 -0.03101,-0.167739 -0.08321,-0.33645 l -0.834712,0 c 0.06151,0.104288 0.130238,0.297357 0.167192,0.588786 0.04109,0.288369 0.08321,0.520799 0.08321,0.75701 l 0,3.280374 0.667729,0 0,-2.35514 c 0,-0.190198 0.112408,-0.405998 0.250141,-0.672896 0.137989,-0.269964 0.27965,-0.467369 0.500822,-0.672898 0.221455,-0.208595 0.468237,-0.336447 0.667729,-0.33645 0.159696,0 0.303578,0.0074 0.417355,0.08409 0.113957,0.07364 0.191998,0.210655 0.25014,0.33645 0.05866,0.122707 0.05969,0.207622 0.08321,0.336449 0.02791,0.128831 0.08321,0.279434 0.08321,0.420561 l 0,2.859813 0.75122,0 0,-2.859813 c 0,-0.251538 -0.02068,-0.452025 -0.08321,-0.672897 -0.06151,-0.223958 -0.211121,-0.410844 -0.333864,-0.588786 -0.123002,-0.177897 -0.2981,-0.319331 -0.500822,-0.420559 -0.202852,-0.10431 -0.409733,-0.168227 -0.667755,-0.168227 z m 4.340363,0 c -0.353219,6e-6 -0.663309,0.118645 -0.918127,0.33645 -0.251948,0.217778 -0.417382,0.476072 -0.417382,0.841122 0,0.1902 0.08681,0.357416 0.16719,0.504675 0.08269,0.147254 0.204918,0.244414 0.33389,0.336449 0.128689,0.08898 0.260684,0.178669 0.417305,0.25231 0.156854,0.07364 0.263681,0.18791 0.417356,0.25234 0.156855,0.06137 0.288358,0.09769 0.417382,0.168226 0.128947,0.06752 0.254017,0.148029 0.333838,0.25234 0.08269,0.10125 0.16719,0.201442 0.16719,0.336449 0,0.239294 -0.149617,0.43846 -0.33389,0.588782 -0.183986,0.147227 -0.341719,0.252368 -0.584287,0.252368 -0.2274,0 -0.41839,-0.11124 -0.584262,-0.252368 -0.166415,-0.141132 -0.29381,-0.300419 -0.333865,-0.588782 l 0,-0.168226 -0.751219,0.08411 0,0.168227 c 0.04599,0.319043 0.168224,0.530002 0.333837,0.757014 0.165899,0.223958 0.363142,0.403438 0.584316,0.504669 0.221455,0.09816 0.412935,0.168227 0.667753,0.168227 0.445342,0 0.84293,-0.138329 1.168576,-0.42056 C 82.824645,27.228493 83,26.852889 83,26.417274 83,26.208651 82.9973,26.078266 82.91679,25.9126 82.8372,25.74692 82.711872,25.596338 82.582875,25.492038 82.454188,25.38775 82.322192,25.238411 82.16552,25.155591 c -0.153496,-0.08282 -0.344021,-0.106853 -0.500798,-0.168226 -0.153495,-0.06135 -0.288306,-0.109946 -0.417355,-0.168227 -0.128947,-0.06131 -0.254016,-0.172547 -0.333839,-0.25231 -0.07985,-0.08282 -0.08321,-0.154123 -0.08321,-0.25234 0,-0.150346 0.06254,-0.241354 0.16719,-0.33645 0.104398,-0.09507 0.254274,-0.168227 0.417331,-0.168227 0.138248,2.9e-5 0.214222,0.0012 0.333917,0.08412 0.123261,0.07976 0.275642,0.261037 0.333863,0.420563 l 0,0.08411 0.667729,-0.168227 0,-0.168227 c -0.08296,-0.22699 -0.251691,-0.43846 -0.417331,-0.588783 -0.162796,-0.150345 -0.257634,-0.200212 -0.41733,-0.252339 -0.159697,-0.05212 -0.337896,-0.0841 -0.500848,-0.0841 z m -29.214149,0.08409 0,4.626169 0.667754,0 0,-4.626169 -0.667754,0 z m 14.857499,0 0,4.626169 0.667753,0 0,-4.626169 -0.667753,0 z M 41.181575,23.80979 c 0.408494,2e-6 0.777914,0.170315 1.085111,0.504673 0.307093,0.331315 0.417328,0.702078 0.417328,1.177571 0,0.475496 -0.110338,0.930368 -0.417328,1.261679 -0.307197,0.331332 -0.676617,0.504677 -1.085111,0.504677 -0.414669,0 -0.777964,-0.176437 -1.08511,-0.504677 -0.303888,-0.331311 -0.500795,-0.78311 -0.500795,-1.261679 0,-0.475493 0.196389,-0.846256 0.500795,-1.177571 0.307146,-0.334392 0.670441,-0.504671 1.08511,-0.504673 z m 5.592431,0 c 0.408469,2e-6 0.777941,0.170315 1.085086,0.504673 0.307378,0.331315 0.500822,0.702078 0.500822,1.177571 0,0.475496 -0.193548,0.930368 -0.500822,1.261679 -0.307145,0.331332 -0.676617,0.504677 -1.085086,0.504677 -0.414668,0 -0.777965,-0.176437 -1.085136,-0.504677 -0.303863,-0.331311 -0.41733,-0.78311 -0.41733,-1.261679 0,-0.475493 0.113443,-0.846256 0.41733,-1.177571 0.307171,-0.334392 0.670468,-0.504671 1.085136,-0.504673 z m 24.623336,0 c 0.494543,5e-6 0.901925,0.170315 1.252067,0.504673 0.350042,0.331318 0.500771,0.70821 0.500798,1.177571 -2.7e-5,0.472429 -0.150652,0.927301 -0.500798,1.261679 -0.350142,0.331307 -0.757524,0.504677 -1.252067,0.504677 -0.494518,0 -0.988387,-0.173347 -1.335483,-0.504677 -0.347043,-0.331311 -0.500821,-0.786183 -0.500821,-1.261679 0,-0.469361 0.153753,-0.846253 0.500821,-1.177571 0.347096,-0.33437 0.840965,-0.504668 1.335483,-0.504673 z m -9.765837,1.85047 c 0.205693,-0.01517 0.409734,0.0031 0.667729,0 l 0,0.588783 c -0.159698,0.263841 -0.372885,0.479643 -0.667729,0.672897 -0.294895,0.193289 -0.617184,0.33645 -0.91818,0.33645 -0.291821,0 -0.520046,-0.11124 -0.667753,-0.252369 -0.147293,-0.141133 -0.16719,-0.261036 -0.16719,-0.420557 0,-0.153349 -0.0181,-0.307059 0.08321,-0.42056 0.101306,-0.113495 0.263628,-0.18791 0.417355,-0.25234 0.153495,-0.0644 0.353735,-0.128372 0.584262,-0.168225 0.230502,-0.03986 0.465007,-0.06875 0.667753,-0.08411 z"
         id="path4683"
         style="font-size:3.51692176px;font-style:normal;font-variant:normal;font-weight:bold;font-stretch:normal;fill:#ffffff;fill-opacity:1;stroke:#ffffff;stroke-width:0.2;stroke-miterlimit:4;stroke-opacity:1;stroke-dasharray:none;font-family:Sawasdee;-inkscape-font-specification:Aller Bold" />
      <rect
         height="112"
         id="rect3775"
         rx="5.5"
         ry="5.5"
         style="opacity:0.07999998;fill:url(#radialGradient4759);fill-opacity:1;stroke:none"
         width="90"
         x="22"
         y="11.999993" />
      <rect
         height="112"
         id="rect4716"
         rx="5.5"
         ry="5.5"
         style="opacity:0.2;fill:url(#radialGradient4756);fill-opacity:1;stroke:none"
         width="90"
         x="22"
         y="11.999993" />
      <rect
         height="1"
         id="rect4720"
         style="opacity:0.5;fill:url(#radialGradient4753);fill-opacity:1;stroke:none"
         width="84"
         x="25"
         y="13" />
    </g>
    <g
       id="g3820"
       transform="matrix(0.7055221,0,0,0.70776278,43.656425,27.945178)">
      <path
         d="M 30.942368,100.11844 27.8563,120.48462 46.205942,110.6696"
         id="path3266"
         style="fill:url(#linearGradient3044);fill-opacity:1;stroke:url(#linearGradient3046);stroke-width:1.41514468;stroke-linecap:round;stroke-linejoin:miter;stroke-miterlimit:4;stroke-opacity:1;stroke-dasharray:none" />
      <path
         d="M 45.251969,111.15 46.205942,110.6696 101.67197,32.967309 86.408391,22.49795 30.942368,100.11844 30.85,100.77789"
         id="path3202"
         style="fill:url(#linearGradient3038);fill-opacity:1;stroke:url(#linearGradient3040);stroke-width:1.41514468;stroke-linecap:round;stroke-linejoin:miter;stroke-miterlimit:4;stroke-opacity:1;stroke-dasharray:none" />
      <path
         d="m 36.960111,92.599899 -5.543004,7.711291 -0.09016,0.60838 c 0.911062,0.38672 2.111105,0.16738 3.121085,0.36677 1.128529,0.13054 2.222182,0.48479 3.284926,0.83855 1.759924,0.32538 3.081531,-0.88362 4.398996,-0.66836 0.703259,0.74358 -1.075955,2.08788 0.06122,3.73664 1.438295,1.53035 2.357868,3.27752 3.293955,5.29265 l 0.377778,-0.20106 5.668828,-7.69718 -14.573624,-9.987681 z"
         id="path3204"
         style="opacity:0.2;fill:#000000;fill-opacity:1;stroke:none" />
      <path
         d="m 166.9375,11.0625 a 0.22700814,0.22700814 0 0 0 -0.0937,0.09375 l -20.5625,29.375 a 0.22700814,0.22700814 0 0 0 -0.0312,0.0625 0.22700814,0.22700814 0 0 0 0,0.09375 0.22700814,0.22700814 0 0 0 0.1875,0.1875 0.22700814,0.22700814 0 0 0 0.0312,0 c 0.79713,-0.02476 1.49305,0.09633 2.09375,0.34375 a 0.22700814,0.22700814 0 0 0 0.0625,0 0.22700814,0.22700814 0 0 0 0.0937,0 0.22700814,0.22700814 0 0 0 0.0625,-0.03125 0.22700814,0.22700814 0 0 0 0.0625,-0.0625 l 20,-28.5625 a 0.22700814,0.22700814 0 0 0 0.0312,-0.0625 0.22700814,0.22700814 0 0 0 0,-0.09375 0.22700814,0.22700814 0 0 0 -0.0937,-0.15625 l -1.625,-1.15625 a 0.22700814,0.22700814 0 0 0 -0.0625,-0.03125 0.22700814,0.22700814 0 0 0 -0.0937,0 0.22700814,0.22700814 0 0 0 -0.0625,0 z"
         id="path3206"
         style="fill:url(#linearGradient3733);fill-opacity:1;stroke:none"
         transform="matrix(2.6690416,0,0,2.6173401,-358.62028,-6.3922922)" />
      <path
         d="m 170.25,13.40625 a 0.18160651,0.18160651 0 0 0 -0.0312,0.03125 0.18160651,0.18160651 0 0 0 -0.0312,0.03125 A 0.18160651,0.18160651 0 0 0 170.1564,13.5 L 150.125,42.09375 a 0.18160651,0.18160651 0 0 0 -0.0312,0.0625 0.18160651,0.18160651 0 0 0 0,0.0625 0.18160651,0.18160651 0 0 0 0.0312,0.0625 0.18160651,0.18160651 0 0 0 0.0312,0.03125 c 0.41897,0.493761 0.7803,1.124716 1.0625,1.875 a 0.18160651,0.18160651 0 0 0 0,0.03125 0.18160651,0.18160651 0 0 0 0.0312,0.03125 0.18160651,0.18160651 0 0 0 0.0312,0.03125 0.18160651,0.18160651 0 0 0 0.0625,0.03125 0.18160651,0.18160651 0 0 0 0.0625,0 0.18160651,0.18160651 0 0 0 0.0625,-0.03125 0.18160651,0.18160651 0 0 0 0.0312,-0.03125 0.18160651,0.18160651 0 0 0 0.0312,-0.03125 L 172.0935,14.8125 a 0.18160651,0.18160651 0 0 0 0.0312,-0.0625 0.18160651,0.18160651 0 0 0 0,-0.0625 0.18160651,0.18160651 0 0 0 -0.0312,-0.0625 0.18160651,0.18160651 0 0 0 -0.0312,-0.03125 0.18160651,0.18160651 0 0 0 -0.0312,-0.03125 l -1.625,-1.125 a 0.18160651,0.18160651 0 0 0 -0.0625,-0.03125 0.18160651,0.18160651 0 0 0 -0.0625,0 0.18160651,0.18160651 0 0 0 -0.0312,0 z"
         id="path3208"
         style="fill:url(#linearGradient3735);fill-opacity:1;stroke:none"
         transform="matrix(2.6690416,0,0,2.6173401,-358.02023,-5.9929732)" />
      <path
         d="M 91.663047,25.76963 C 86.342793,32.97488 81.226548,40.352036 75.984124,47.62288 63.313904,65.398368 50.57883,83.139313 37.949146,100.93636 c -0.0053,1.80328 2.815836,-0.65963 4.715319,0.18428 0.741863,1.82562 -1.367889,3.49058 0.336449,3.4163 3.551714,-4.696347 6.901548,-9.624056 10.376544,-14.408211 14.449644,-20.257738 28.964223,-40.480892 43.373339,-60.760233 -0.20656,-0.942258 -1.59303,-1.160973 -2.21046,-1.83289 -0.96904,-0.469028 -1.81712,-1.599179 -2.87729,-1.765952 z"
         id="path3210"
         style="fill:url(#linearGradient3032);fill-opacity:1;stroke:none" />
      <path
         d="m 95.666617,13.500842 c -1.71192,-0.02933 -3.36043,0.723661 -4.42061,2.20838 l -6.877732,9.707832 14.920362,10.887719 7.220983,-10.044398 c 1.69623,-2.375553 1.17136,-5.616097 -1.25111,-7.279477 l -6.589183,-4.498554 c -0.90845,-0.623767 -1.97555,-0.9639 -3.00271,-0.981502 z"
         id="path3212"
         style="fill:url(#linearGradient3027);fill-opacity:1;stroke:url(#linearGradient3029);stroke-width:1.41514468;stroke-linecap:butt;stroke-linejoin:round;stroke-miterlimit:4;stroke-opacity:1;stroke-dasharray:none" />
      <path
         d="m 85.083631,24.409974 -7.647928,10.636179 c 4.191822,-1.289399 15.101114,5.517235 15.346994,10.349829 L 100.34722,34.87934 C 102.84299,31.510567 87.66651,20.820858 85.083631,24.409974 z"
         id="path3216"
         style="fill:url(#linearGradient3022);fill-opacity:1;stroke:url(#linearGradient3024);stroke-width:1.41514468;stroke-linecap:butt;stroke-linejoin:round;stroke-miterlimit:4;stroke-opacity:1;stroke-dasharray:none" />
      <path
         d="m 95.65625,13 c -1.865929,-0.03194 -3.658214,0.82099 -4.8125,2.4375 l -60.375,84.5 -3.28125,21.46875 19.375,-10.375 60.34375,-84.49995 c 1.84954,-2.590275 1.26969,-6.152784 -1.375,-7.96875 l -6.59375,-4.5 C 97.946114,13.381795 96.783692,13.019318 95.65625,13 z"
         id="path4091"
         style="font-size:medium;font-style:normal;font-variant:normal;font-weight:normal;font-stretch:normal;text-indent:0;text-align:start;text-decoration:none;line-height:normal;letter-spacing:normal;word-spacing:normal;text-transform:none;direction:ltr;block-progression:tb;writing-mode:lr-tb;text-anchor:start;opacity:0.07999998;color:#000000;fill:url(#linearGradient3019);fill-opacity:1;stroke:none;stroke-width:1;marker:none;visibility:visible;display:inline;overflow:visible;enable-background:accumulate;font-family:Andale Mono;-inkscape-font-specification:Andale Mono" />
      <path
         d="m 95.65625,13 c -1.865929,-0.03194 -3.658214,0.82099 -4.8125,2.4375 l -60.375,84.5 -3.28125,21.46875 19.375,-10.375 60.34375,-84.49995 c 1.84954,-2.590275 1.26969,-6.152784 -1.375,-7.96875 l -6.59375,-4.5 C 97.946114,13.381795 96.783692,13.019318 95.65625,13 z"
         id="path4103"
         style="font-size:medium;font-style:normal;font-variant:normal;font-weight:normal;font-stretch:normal;text-indent:0;text-align:start;text-decoration:none;line-height:normal;letter-spacing:normal;word-spacing:normal;text-transform:none;direction:ltr;block-progression:tb;writing-mode:lr-tb;text-anchor:start;opacity:0.2;color:#000000;fill:url(#linearGradient3016);fill-opacity:1;stroke:none;stroke-width:1;marker:none;visibility:visible;display:inline;overflow:visible;enable-background:accumulate;font-family:Andale Mono;-inkscape-font-specification:Andale Mono" />
      <path
         d="m 95.625,14.9375 c -1.27507,-0.02182 -2.428936,0.518912 -3.21875,1.625 l -60.09375,84.09375 -2.59375,17.25 L 45.25,109.5625 105.34375,25.40625 c 1.25628,-1.759405 0.87966,-3.992458 -0.90625,-5.21875 l -6.59375,-4.5 c -0.66654,-0.45766 -1.486952,-0.737461 -2.21875,-0.75 z"
         id="path6659"
         inkscape:original="M 95.625 14.4375 C 94.200874 14.413126 92.884325 15.011554 92 16.25 L 31.84375 100.4375 L 29.0625 118.8125 L 45.59375 109.9375 L 105.75 25.71875 C 107.15974 23.744424 106.72596 21.128244 104.71875 19.75 L 98.125 15.25 C 97.371531 14.732653 96.464765 14.451889 95.625 14.4375 z "
         inkscape:radius="-0.51299715"
         sodipodi:type="inkscape:offset"
         style="opacity:0.5;fill:none;stroke:url(#linearGradient6661);stroke-width:1.41514468;stroke-linecap:round;stroke-linejoin:miter;stroke-miterlimit:4;stroke-opacity:1;stroke-dasharray:none" />
      <path
         d="m 33.5,118 -7.5,5 2.4,-8.89514 c 2.272926,-0.5979 5.13469,1.45347 5.1,3.89514 z"
         id="path3214"
         style="fill:#3c3c3c;fill-opacity:1;stroke:none" />
    </g>
    <g
       id="g3163"
       transform="translate(0,2)" />
  </g>
</svg>
