<?xml version="1.0" encoding="UTF-8" standalone="no"?>
<!-- Created with Inkscape (http://www.inkscape.org/) -->

<svg
   xmlns:svg="http://www.w3.org/2000/svg"
   xmlns="http://www.w3.org/2000/svg"
   xmlns:xlink="http://www.w3.org/1999/xlink"
   version="1.0"
   width="128"
   height="128"
   id="svg11300"
   style="display:inline;enable-background:new">
  <title
     id="title2897">Candy Icon Theme</title>
  <defs
     id="defs3">
    <filter
       x="-0.071689658"
       y="-0.83160001"
       width="1.1433793"
       height="2.6631999"
       color-interpolation-filters="sRGB"
       id="filter4175-5">
      <feGaussianBlur
         id="feGaussianBlur4177-9"
         stdDeviation="3.465" />
    </filter>
    <linearGradient
       id="linearGradient6694">
      <stop
         id="stop6696"
         style="stop-color:#c8c8c8;stop-opacity:1"
         offset="0" />
      <stop
         id="stop6698"
         style="stop-color:#a0a0a0;stop-opacity:1"
         offset="1" />
    </linearGradient>
    <linearGradient
       id="linearGradient6362">
      <stop
         id="stop6364"
         style="stop-color:#d2d2d2;stop-opacity:1"
         offset="0" />
      <stop
         id="stop6366"
         style="stop-color:#fafafa;stop-opacity:1"
         offset="1" />
    </linearGradient>
    <linearGradient
       id="linearGradient6379">
      <stop
         id="stop6381"
         style="stop-color:#828282;stop-opacity:1"
         offset="0" />
      <stop
         id="stop6383"
         style="stop-color:#000000;stop-opacity:1"
         offset="1" />
    </linearGradient>
    <linearGradient
       id="linearGradient6343-6">
      <stop
         id="stop6345-1"
         style="stop-color:#000000;stop-opacity:0"
         offset="0" />
      <stop
         id="stop6347-5"
         style="stop-color:#000000;stop-opacity:1"
         offset="1" />
    </linearGradient>
    <linearGradient
       id="linearGradient6424">
      <stop
         id="stop6426"
         style="stop-color:#ffffff;stop-opacity:1"
         offset="0" />
      <stop
         id="stop6428"
         style="stop-color:#ffffff;stop-opacity:0"
         offset="1" />
    </linearGradient>
    <linearGradient
       id="linearGradient6288">
      <stop
         id="stop6290"
         style="stop-color:#000000;stop-opacity:1"
         offset="0" />
      <stop
         id="stop6292"
         style="stop-color:#000000;stop-opacity:0"
         offset="1" />
    </linearGradient>
    <linearGradient
       id="linearGradient6269">
      <stop
         id="stop6271"
         style="stop-color:#faca96;stop-opacity:1"
         offset="0" />
      <stop
         id="stop6273"
         style="stop-color:#e48620;stop-opacity:1"
         offset="1" />
    </linearGradient>
    <linearGradient
       id="linearGradient3779">
      <stop
         id="stop3781"
         style="stop-color:#edad67;stop-opacity:1"
         offset="0" />
      <stop
         id="stop3783"
         style="stop-color:#a76721;stop-opacity:1"
         offset="1" />
    </linearGradient>
    <linearGradient
       x1="67"
       y1="108"
       x2="67"
       y2="19"
       id="linearGradient3804"
       xlink:href="#linearGradient6362"
       gradientUnits="userSpaceOnUse"
       gradientTransform="translate(0,12)" />
    <linearGradient
       x1="45.25"
       y1="19"
       x2="45.5"
       y2="108"
       id="linearGradient3806"
       xlink:href="#linearGradient6694"
       gradientUnits="userSpaceOnUse"
       gradientTransform="translate(0,12)" />
    <linearGradient
       x1="157.27779"
       y1="19.363636"
       x2="157.27779"
       y2="14.181818"
       id="linearGradient3808"
       xlink:href="#linearGradient6288"
       gradientUnits="userSpaceOnUse"
       gradientTransform="matrix(2.7692307,0,0,11.000001,-370.53848,-115.00001)" />
    <linearGradient
       x1="156.9913"
       y1="15"
       x2="157.01903"
       y2="44"
       id="linearGradient3810"
       xlink:href="#linearGradient6269"
       gradientUnits="userSpaceOnUse"
       gradientTransform="matrix(2.7200897,0,0,2.7173739,-362.71283,5.3374494)" />
    <linearGradient
       x1="151.70708"
       y1="15.062573"
       x2="151.68968"
       y2="43.937447"
       id="linearGradient3812"
       xlink:href="#linearGradient3779"
       gradientUnits="userSpaceOnUse"
       gradientTransform="matrix(2.6896636,0,0,2.6666785,-357.96691,6.8329565)" />
    <radialGradient
       cx="67"
       cy="28.032467"
       r="59"
       fx="67"
       fy="28.032467"
       id="radialGradient3814"
       xlink:href="#linearGradient6343-6"
       gradientUnits="userSpaceOnUse"
       gradientTransform="matrix(-1.050303e-8,-1,1,-1.050303e-8,38.967534,115)" />
    <linearGradient
       x1="148"
       y1="9.5"
       x2="147.96875"
       y2="13.0625"
       id="linearGradient3816"
       xlink:href="#linearGradient6379"
       gradientUnits="userSpaceOnUse"
       gradientTransform="matrix(2.8461538,0,0,1.5,-380.15385,19.75)" />
    <radialGradient
       cx="67"
       cy="28.032467"
       r="59"
       fx="67"
       fy="28.032467"
       id="radialGradient3818"
       xlink:href="#linearGradient6424"
       gradientUnits="userSpaceOnUse"
       gradientTransform="matrix(-1.050303e-8,-1,1,-1.050303e-8,38.967534,115)" />
    <radialGradient
       cx="67"
       cy="34.5"
       r="55"
       fx="67"
       fy="34.5"
       id="radialGradient3820"
       xlink:href="#linearGradient6424"
       gradientUnits="userSpaceOnUse"
       gradientTransform="matrix(1,0,0,0.08181818,0,45.677273)" />
    <linearGradient
       id="linearGradient3667">
      <stop
         id="stop3669"
         style="stop-color:#2b4561;stop-opacity:1"
         offset="0" />
      <stop
         id="stop3671"
         style="stop-color:#4a85c4;stop-opacity:1"
         offset="1" />
    </linearGradient>
    <linearGradient
       id="linearGradient5594">
      <stop
         id="stop5596"
         style="stop-color:#ffffff;stop-opacity:1"
         offset="0" />
      <stop
         id="stop5598"
         style="stop-color:#ffffff;stop-opacity:0"
         offset="1" />
    </linearGradient>
    <linearGradient
       id="linearGradient3652">
      <stop
         id="stop3654"
         style="stop-color:#000000;stop-opacity:1"
         offset="0" />
      <stop
         id="stop3656"
         style="stop-color:#323232;stop-opacity:1"
         offset="1" />
    </linearGradient>
    <linearGradient
       id="linearGradient3596">
      <stop
         id="stop3598"
         style="stop-color:#1e1e1e;stop-opacity:1"
         offset="0" />
      <stop
         id="stop3600"
         style="stop-color:#505050;stop-opacity:1"
         offset="1" />
    </linearGradient>
    <linearGradient
       id="linearGradient3922">
      <stop
         id="stop3924"
         style="stop-color:#316297;stop-opacity:1"
         offset="0" />
      <stop
         id="stop3926"
         style="stop-color:#6da3dd;stop-opacity:1"
         offset="1" />
    </linearGradient>
    <linearGradient
       id="linearGradient2831-3">
      <stop
         id="stop2833-9"
         style="stop-color:#729fcf;stop-opacity:1"
         offset="0" />
      <stop
         id="stop2835-7"
         style="stop-color:#729fcf;stop-opacity:0"
         offset="1" />
    </linearGradient>
    <linearGradient
       id="linearGradient3616">
      <stop
         id="stop3618"
         style="stop-color:#000000;stop-opacity:0"
         offset="0" />
      <stop
         id="stop3620"
         style="stop-color:#000000;stop-opacity:1"
         offset="1" />
    </linearGradient>
    <linearGradient
       x1="158"
       y1="6"
       x2="158"
       y2="-38"
       id="linearGradient4065"
       xlink:href="#linearGradient3667"
       gradientUnits="userSpaceOnUse"
       gradientTransform="matrix(1.8461538,0,0,1,-223.6923,119.99999)" />
    <radialGradient
       cx="158"
       cy="8.3000002"
       r="14"
       fx="158"
       fy="8.3000002"
       id="radialGradient4068"
       xlink:href="#linearGradient5594"
       gradientUnits="userSpaceOnUse"
       gradientTransform="matrix(1.7857143,0,0,0.35714192,-214.14286,53.035719)" />
    <radialGradient
       cx="158"
       cy="11.484326"
       r="19"
       fx="158"
       fy="11.484326"
       id="radialGradient4071"
       xlink:href="#linearGradient5594"
       gradientUnits="userSpaceOnUse"
       gradientTransform="matrix(2.1274239,4.1209621e-8,-3.4793208e-8,3.0143544,-268.13298,27.563979)" />
    <radialGradient
       cx="158"
       cy="11.484326"
       r="19"
       fx="158"
       fy="11.484326"
       id="radialGradient4074"
       xlink:href="#linearGradient3616"
       gradientUnits="userSpaceOnUse"
       gradientTransform="matrix(2.1274239,4.1209616e-8,-3.4793208e-8,3.0143541,-268.13297,27.563981)" />
    <linearGradient
       x1="14.875"
       y1="37.75"
       x2="23.375"
       y2="37.75"
       id="linearGradient4077"
       xlink:href="#linearGradient2831-3"
       gradientUnits="userSpaceOnUse"
       gradientTransform="matrix(3.1518304,0,1.2156435,3.2272755,-30.127583,-40.37598)" />
    <linearGradient
       x1="158"
       y1="49"
       x2="158"
       y2="5"
       id="linearGradient4082"
       xlink:href="#linearGradient3667"
       gradientUnits="userSpaceOnUse"
       gradientTransform="matrix(1.8461538,0,0,1,-223.6923,48.999993)" />
    <linearGradient
       x1="158"
       y1="49"
       x2="158"
       y2="5"
       id="linearGradient4089"
       xlink:href="#linearGradient3922"
       gradientUnits="userSpaceOnUse"
       gradientTransform="matrix(1.7142858,0,0,1.6964138,-202.85715,44.19683)" />
    <linearGradient
       x1="158"
       y1="49"
       x2="158"
       y2="5"
       id="linearGradient4126"
       xlink:href="#linearGradient3596"
       gradientUnits="userSpaceOnUse"
       gradientTransform="matrix(1.8571295,0,0,1.7123186,-227.43698,42.45255)" />
    <linearGradient
       x1="155"
       y1="49"
       x2="155"
       y2="5"
       id="linearGradient4128"
       xlink:href="#linearGradient3652"
       gradientUnits="userSpaceOnUse"
       gradientTransform="matrix(1.8571295,0,0,1.7123186,-227.43698,42.45255)" />
    <filter
       x="-0.071000002"
       y="-0.93720001"
       width="1.142"
       height="2.8743999"
       color-interpolation-filters="sRGB"
       id="filter4197">
      <feGaussianBlur
         id="feGaussianBlur4199"
         stdDeviation="1.9525" />
    </filter>
  </defs>
  <g
     transform="translate(-3,-4)"
     id="layer1"
     style="display:inline">
    <g
       id="layer6"
       style="display:none" />
    <rect
       width="66"
       height="5"
       rx="2"
       ry="2"
       x="53"
       y="121"
       id="rect4147"
       style="opacity:0.8;fill:#000000;fill-opacity:1;stroke:none;filter:url(#filter4197)" />
    <rect
       width="116"
       height="10"
       rx="5"
       ry="5"
       x="9"
       y="114"
       id="rect4133"
       style="opacity:0.8;fill:#000000;fill-opacity:1;stroke:none;filter:url(#filter4175-5)" />
    <g
       transform="translate(4.0762329e-6,8.2095335e-7)"
       id="g3946">
      <path
         d="m 24.5,31.5 c -2.216,0 -4,1.534 -4,3.75 l 0,2.25 -4,0 c -2.216002,0 -4,1.784 -4,4 l 0,74.25 c 0,2.216 1.783997,3.75 4,3.75 l 101,0 c 2.216,0 4,-1.784 4,-4 l 0,-74 c 0,-2.216 -1.784,-4 -4,-4 l -53,0 0,-2.25 c 0,-2.216 -1.784,-3.75 -4,-3.75 l -36,0 z"
         id="rect6463"
         style="fill:url(#linearGradient3804);fill-opacity:1;stroke:url(#linearGradient3806);stroke-width:1;stroke-linecap:square;stroke-linejoin:round;stroke-miterlimit:4;stroke-opacity:1;stroke-dasharray:none" />
      <rect
         width="108"
         height="33"
         x="13"
         y="39"
         id="rect5571"
         style="fill:url(#linearGradient3808);fill-opacity:1;stroke:none" />
      <path
         d="m 13.499971,47.499973 107.000059,0 c 2.77,0 5,2.23 5,5 l -3e-5,66.000057 c 0,2.77 -2.22997,5 -4.99997,5 l -107.000059,0 c -2.77,0 -4.999971,-2.23 -4.999971,-5 l -2.86e-5,-66.000057 c 0,-2.77 2.2299996,-5 4.9999996,-5 z"
         id="rect5575"
         style="fill:url(#linearGradient3810);fill-opacity:1;stroke:url(#linearGradient3812);stroke-width:0.99994278;stroke-linecap:square;stroke-linejoin:round;stroke-miterlimit:4;stroke-opacity:1" />
      <path
         d="M 13.500008,47 120.5,47 c 3.047,0 5.5,2.453 5.5,5.5 l 0,66 c 0,3.047 -2.453,5.5 -5.5,5.5 L 13.500008,124 C 10.453008,124 8,121.547 8,118.5 l 7.6e-6,-66 c 0,-3.047 2.4530004,-5.5 5.5000004,-5.5 z"
         id="rect5577"
         style="opacity:0.07999998;fill:url(#radialGradient3814);fill-opacity:1;stroke:none;display:inline;enable-background:new" />
      <rect
         width="37"
         height="3"
         rx="1"
         ry="1"
         x="24"
         y="34"
         id="rect6413"
         style="opacity:0.3;fill:url(#linearGradient3816);fill-opacity:1;stroke:none;display:inline;enable-background:new" />
      <path
         d="M 13.500008,47 120.5,47 c 3.047,0 5.5,2.453 5.5,5.5 l 0,66 c 0,3.047 -2.453,5.5 -5.5,5.5 L 13.500008,124 C 10.453008,124 8,121.547 8,118.5 l 7.6e-6,-66 c 0,-3.047 2.4530004,-5.5 5.5000004,-5.5 z"
         id="path3942"
         style="opacity:0.2;fill:url(#radialGradient3818);fill-opacity:1;stroke:none;display:inline;enable-background:new" />
      <path
         d="m 12,48 0,1 110,0 0,-1 -110,0 z"
         id="rect6566"
         style="opacity:0.5;fill:url(#radialGradient3820);fill-opacity:1;stroke:none;display:inline;enable-background:new" />
    </g>
    <g
       transform="translate(4.0762329e-6,8.2095335e-7)"
       id="g3955" />
    <g
       transform="translate(4.0762329e-6,8.2095335e-7)"
       id="g3964" />
    <g
       transform="translate(4.0762329e-6,8.2095335e-7)"
       id="g3978" />
    <g
       transform="translate(4.0762329e-6,8.2095335e-7)"
       id="g3971" />
    <g
       transform="translate(4.0762329e-6,8.2095335e-7)"
       id="g3985" />
    <g
       transform="translate(15,-36.00001)"
       id="g4085" />
    <g
       transform="translate(-1,0)"
       id="g3174" />
    <g
       transform="translate(18,0)"
       id="g4131">
      <path
         d="M 36.84375,54.5 C 36.101281,54.5 35.5,55.084092 35.5,55.8125 l 0,68.375 c 0,0.72841 0.601281,1.3125 1.34375,1.3125 l 62.3125,0 c 0.742469,0 1.34375,-0.58409 1.34375,-1.3125 l 0,-68.375 C 100.5,55.084092 99.898719,54.5 99.15625,54.5 l -0.65625,0 0,0.5 c 0,0.277 -0.223,0.5 -0.5,0.5 l -4,0 c -0.277,0 -0.5,-0.223 -0.5,-0.5 l 0,-0.5 -51,0 0,0.5 c 0,0.277 -0.223,0.5 -0.5,0.5 l -4,0 c -0.277,0 -0.5,-0.223 -0.5,-0.5 l 0,-0.5 -0.65625,0 z m 1.15625,4 4,0 c 0.277,0 0.5,0.223 0.5,0.5 l 0,2 c 0,0.277 -0.223,0.5 -0.5,0.5 l -4,0 c -0.277,0 -0.5,-0.223 -0.5,-0.5 l 0,-2 c 0,-0.277 0.223,-0.5 0.5,-0.5 z m 56,0 4,0 c 0.277,0 0.5,0.223 0.5,0.5 l 0,2 c 0,0.277 -0.223,0.5 -0.5,0.5 l -4,0 c -0.277,0 -0.5,-0.223 -0.5,-0.5 l 0,-2 c 0,-0.277 0.223,-0.5 0.5,-0.5 z m -56,6 4,0 c 0.277,0 0.5,0.223 0.5,0.5 l 0,2 c 0,0.277 -0.223,0.5 -0.5,0.5 l -4,0 c -0.277,0 -0.5,-0.223 -0.5,-0.5 l 0,-2 c 0,-0.277 0.223,-0.5 0.5,-0.5 z m 56,0 4,0 c 0.277,0 0.5,0.223 0.5,0.5 l 0,2 c 0,0.277 -0.223,0.5 -0.5,0.5 l -4,0 c -0.277,0 -0.5,-0.223 -0.5,-0.5 l 0,-2 c 0,-0.277 0.223,-0.5 0.5,-0.5 z m -56,6 4,0 c 0.277,0 0.5,0.223 0.5,0.5 l 0,2 c 0,0.277 -0.223,0.5 -0.5,0.5 l -4,0 c -0.277,0 -0.5,-0.223 -0.5,-0.5 l 0,-2 c 0,-0.277 0.223,-0.5 0.5,-0.5 z m 56,0 4,0 c 0.277,0 0.5,0.223 0.5,0.5 l 0,2 c 0,0.277 -0.223,0.5 -0.5,0.5 l -4,0 c -0.277,0 -0.5,-0.223 -0.5,-0.5 l 0,-2 c 0,-0.277 0.223,-0.5 0.5,-0.5 z m -56,6 4,0 c 0.277,0 0.5,0.223 0.5,0.5 l 0,2 c 0,0.277 -0.223,0.5 -0.5,0.5 l -4,0 c -0.277,0 -0.5,-0.223 -0.5,-0.5 l 0,-2 c 0,-0.277 0.223,-0.5 0.5,-0.5 z m 56,0 4,0 c 0.277,0 0.5,0.223 0.5,0.5 l 0,2 c 0,0.277 -0.223,0.5 -0.5,0.5 l -4,0 c -0.277,0 -0.5,-0.223 -0.5,-0.5 l 0,-2 c 0,-0.277 0.223,-0.5 0.5,-0.5 z m -56,6 4,0 c 0.277,0 0.5,0.223 0.5,0.5 l 0,2 c 0,0.277 -0.223,0.5 -0.5,0.5 l -4,0 c -0.277,0 -0.5,-0.223 -0.5,-0.5 l 0,-2 c 0,-0.277 0.223,-0.5 0.5,-0.5 z m 56,0 4,0 c 0.277,0 0.5,0.223 0.5,0.5 l 0,2 c 0,0.277 -0.223,0.5 -0.5,0.5 l -4,0 c -0.277,0 -0.5,-0.223 -0.5,-0.5 l 0,-2 c 0,-0.277 0.223,-0.5 0.5,-0.5 z m -56,6 4,0 c 0.277,0 0.5,0.223 0.5,0.5 l 0,2 c 0,0.277 -0.223,0.5 -0.5,0.5 l -4,0 c -0.277,0 -0.5,-0.223 -0.5,-0.5 l 0,-2 c 0,-0.277 0.223,-0.5 0.5,-0.5 z m 56,0 4,0 c 0.277,0 0.5,0.223 0.5,0.5 l 0,2 c 0,0.277 -0.223,0.5 -0.5,0.5 l -4,0 c -0.277,0 -0.5,-0.223 -0.5,-0.5 l 0,-2 c 0,-0.277 0.223,-0.5 0.5,-0.5 z m -56,6 4,0 c 0.277,0 0.5,0.223 0.5,0.5 l 0,2 c 0,0.277 -0.223,0.5 -0.5,0.5 l -4,0 c -0.277,0 -0.5,-0.223 -0.5,-0.5 l 0,-2 c 0,-0.277 0.223,-0.5 0.5,-0.5 z m 56,0 4,0 c 0.277,0 0.5,0.223 0.5,0.5 l 0,2 c 0,0.277 -0.223,0.5 -0.5,0.5 l -4,0 c -0.277,0 -0.5,-0.223 -0.5,-0.5 l 0,-2 c 0,-0.277 0.223,-0.5 0.5,-0.5 z m -56,6 4,0 c 0.277,0 0.5,0.223 0.5,0.5 l 0,2 c 0,0.277 -0.223,0.5 -0.5,0.5 l -4,0 c -0.277,0 -0.5,-0.223 -0.5,-0.5 l 0,-2 c 0,-0.277 0.223,-0.5 0.5,-0.5 z m 56,0 4,0 c 0.277,0 0.5,0.223 0.5,0.5 l 0,2 c 0,0.277 -0.223,0.5 -0.5,0.5 l -4,0 c -0.277,0 -0.5,-0.223 -0.5,-0.5 l 0,-2 c 0,-0.277 0.223,-0.5 0.5,-0.5 z m -56,6 4,0 c 0.277,0 0.5,0.223 0.5,0.5 l 0,2 c 0,0.277 -0.223,0.5 -0.5,0.5 l -4,0 c -0.277,0 -0.5,-0.223 -0.5,-0.5 l 0,-2 c 0,-0.277 0.223,-0.5 0.5,-0.5 z m 56,0 4,0 c 0.277,0 0.5,0.223 0.5,0.5 l 0,2 c 0,0.277 -0.223,0.5 -0.5,0.5 l -4,0 c -0.277,0 -0.5,-0.223 -0.5,-0.5 l 0,-2 c 0,-0.277 0.223,-0.5 0.5,-0.5 z m -56,6 4,0 c 0.277,0 0.5,0.223 0.5,0.5 l 0,2 c 0,0.277 -0.223,0.5 -0.5,0.5 l -4,0 c -0.277,0 -0.5,-0.223 -0.5,-0.5 l 0,-2 c 0,-0.277 0.223,-0.5 0.5,-0.5 z m 56,0 4,0 c 0.277,0 0.5,0.223 0.5,0.5 l 0,2 c 0,0.277 -0.223,0.5 -0.5,0.5 l -4,0 c -0.277,0 -0.5,-0.223 -0.5,-0.5 l 0,-2 c 0,-0.277 0.223,-0.5 0.5,-0.5 z m -56,6 4,0 c 0.277,0 0.5,0.223 0.5,0.5 l 0,2 c 0,0.277 -0.223,0.5 -0.5,0.5 l -4,0 c -0.277,0 -0.5,-0.223 -0.5,-0.5 l 0,-2 c 0,-0.277 0.223,-0.5 0.5,-0.5 z m 56,0 4,0 c 0.277,0 0.5,0.223 0.5,0.5 l 0,2 c 0,0.277 -0.223,0.5 -0.5,0.5 l -4,0 c -0.277,0 -0.5,-0.223 -0.5,-0.5 l 0,-2 c 0,-0.277 0.223,-0.5 0.5,-0.5 z"
         id="rect3773"
         style="fill:url(#linearGradient4126);fill-opacity:1;stroke:url(#linearGradient4128);stroke-width:0.99999994;stroke-linejoin:round;stroke-miterlimit:4;stroke-opacity:1;stroke-dasharray:none" />
      <path
         d="m 44,54 0,14 48,0 0,-14 -48,0 z m 0,15 0,42 48,0 0,-42 -48,0 z m 0,43 0,14 48,0 0,-14 -48,0 z"
         id="path2958"
         style="fill:url(#linearGradient4089);fill-opacity:1;stroke:none" />
      <path
         d="m 67.287784,121.16072 c -2.438939,0 -4.539292,0.75484 -6.303112,2.29017 l 1.277375,2.04911 2.324403,0 c 0.846633,-0.50222 1.740177,-0.76339 2.659453,-0.76339 1.218278,0 2.149685,0.25972 2.806036,0.76339 l 5.193261,0 c -0.353472,-0.9668 -0.927356,-1.78166 -1.738067,-2.4509 -1.484758,-1.2347 -3.538702,-1.88838 -6.219349,-1.88838 z"
         id="path3933"
         style="font-size:9.96431828px;font-style:normal;font-variant:normal;font-weight:bold;font-stretch:normal;text-indent:0;text-align:start;text-decoration:none;line-height:100%;letter-spacing:normal;word-spacing:normal;text-transform:none;direction:ltr;block-progression:tb;writing-mode:lr-tb;text-anchor:start;opacity:0.5;color:#000000;fill:#060e19;fill-opacity:1;fill-rule:evenodd;stroke:none;stroke-width:1;marker:none;visibility:visible;display:inline;overflow:visible;enable-background:new;font-family:Trebuchet MS" />
      <path
         d="m 84.040239,125.5 c -2.807156,-5.33805 -8.684167,-9 -15.537902,-9 -6.853244,0 -12.831352,3.66257 -15.747308,9"
         id="path3935"
         style="opacity:0.5;color:#000000;fill:none;stroke:#729fcf;stroke-width:0.99999994;stroke-linecap:round;stroke-linejoin:round;stroke-miterlimit:4;stroke-opacity:1;stroke-dasharray:none;stroke-dashoffset:0;marker:none;visibility:visible;display:inline;overflow:visible;enable-background:new" />
      <path
         d="m 61.382543,54.499934 -1.256434,2.029033 c 1.72787,1.535343 3.809181,2.290195 6.198409,2.290195 2.626009,0 4.61827,-0.633606 6.072765,-1.868317 0.791064,-0.666611 1.370476,-1.48906 1.717126,-2.450911 l -5.130439,0 c -0.641732,0.491953 -1.542867,0.743309 -2.722274,0.743309 -0.900108,0 -1.767619,-0.241564 -2.596631,-0.743309 l -2.282522,0 z"
         id="path2960"
         style="font-size:9.96431828px;font-style:normal;font-variant:normal;font-weight:bold;font-stretch:normal;text-indent:0;text-align:start;text-decoration:none;line-height:100%;letter-spacing:normal;word-spacing:normal;text-transform:none;direction:ltr;block-progression:tb;writing-mode:lr-tb;text-anchor:start;opacity:0.5;color:#000000;fill:#060e19;fill-opacity:1;fill-rule:evenodd;stroke:none;stroke-width:1;marker:none;visibility:visible;display:inline;overflow:visible;enable-background:new;font-family:Trebuchet MS" />
      <path
         d="M 52.06399,54.499934 C 54.920775,59.836675 60.784192,63.5 67.497189,63.5 c 6.713426,0 12.473555,-3.662775 15.223794,-9.000066"
         id="path2962"
         style="opacity:0.5;color:#000000;fill:none;stroke:#729fcf;stroke-width:0.99999994;stroke-linecap:round;stroke-linejoin:round;stroke-miterlimit:4;stroke-opacity:1;stroke-dasharray:none;stroke-dashoffset:0;marker:none;visibility:visible;display:inline;overflow:visible;enable-background:new" />
      <rect
         width="48"
         height="1"
         x="44"
         y="54"
         id="rect2964"
         style="fill:url(#linearGradient4082);fill-opacity:1;stroke:none" />
      <path
         d="m 61.052637,99.080778 1.945423,-2.978275 c 1.235141,1.21502 2.558217,1.82253 3.969196,1.82253 2.572963,0 3.829414,-1.150804 3.769406,-3.45243 -0.02571,-1.047074 -0.422938,-1.896596 -1.186943,-2.548567 -0.764246,-0.661829 -1.779241,-0.99275 -3.044951,-0.992756 l -0.715858,0 -0.08251,-3.170898 0.60694,0 c 2.323917,1.3e-5 3.461811,-0.923597 3.413666,-2.770831 -0.05055,-1.936103 -1.1599,-2.90416 -3.32823,-2.90418 -1.12049,2e-5 -2.196693,0.503801 -3.228657,1.511365 l -1.96774,-2.652297 c 0.472683,-0.572913 1.222199,-1.071759 2.248624,-1.496537 1.026407,-0.424745 2.0583,-0.637131 3.09584,-0.637144 2.272019,1.3e-5 4.053814,0.493931 5.34528,1.481724 1.301887,0.987841 1.975974,2.370779 2.022348,4.148833 0.05506,2.113945 -0.857359,3.72409 -2.737477,4.830432 2.446173,1.106368 3.701982,2.914071 3.767408,5.42312 0.05385,2.064542 -0.62549,3.664809 -2.037945,4.800791 -1.40212,1.135992 -3.368871,1.703992 -5.900324,1.703992 -2.303196,0 -4.287645,-0.7063 -5.953297,-2.118872"
         id="path2966"
         style="font-size:9.96431828px;font-style:normal;font-variant:normal;font-weight:bold;font-stretch:normal;text-indent:0;text-align:start;text-decoration:none;line-height:100%;letter-spacing:normal;word-spacing:normal;text-transform:none;direction:ltr;block-progression:tb;writing-mode:lr-tb;text-anchor:start;opacity:0.5;color:#000000;fill:#060e19;fill-opacity:1;fill-rule:evenodd;stroke:none;stroke-width:1;marker:none;visibility:visible;display:inline;overflow:visible;enable-background:new;font-family:Trebuchet MS" />
      <path
         d="m 84.499339,90.005203 a 16.505192,15.494489 4.1675904 0 1 -32.998645,0 16.505192,15.494489 4.1675904 1 1 32.998645,0 z"
         id="path2968"
         style="opacity:0.5;color:#000000;fill:none;stroke:#729fcf;stroke-width:0.99999982;stroke-linecap:round;stroke-linejoin:round;stroke-miterlimit:4;stroke-opacity:1;stroke-dasharray:none;stroke-dashoffset:0;marker:none;visibility:visible;display:inline;overflow:visible;enable-background:new" />
      <path
         d="m 65.989468,90.328671 20.104515,-17.750017 2.678825,11.295461 -22.78334,6.454556 z"
         id="path2970"
         style="opacity:0.5;color:#000000;fill:url(#linearGradient4077);fill-opacity:1;fill-rule:evenodd;stroke:none;stroke-width:1;marker:none;visibility:visible;display:inline;overflow:visible;enable-background:new" />
      <rect
         width="48"
         height="71.999992"
         x="44"
         y="54"
         id="rect2978"
         style="opacity:0.07999998;fill:url(#radialGradient4074);fill-opacity:1;stroke:none;display:inline;enable-background:new" />
      <rect
         width="48"
         height="72"
         x="44"
         y="54"
         id="rect2980"
         style="opacity:0.25;fill:url(#radialGradient4071);fill-opacity:1;stroke:none;display:inline;enable-background:new" />
      <rect
         width="50"
         height="0.99999744"
         x="43"
         y="55"
         id="rect2982"
         style="opacity:0.6;fill:url(#radialGradient4068);fill-opacity:1;stroke:none" />
      <rect
         width="48"
         height="1"
         x="44"
         y="125"
         id="rect2984"
         style="fill:url(#linearGradient4065);fill-opacity:1;stroke:none" />
    </g>
    <g
       transform="translate(-18,-25.00001)"
       id="g4407" />
    <g
       transform="translate(-1,0)"
       id="g3214" />
    <g
       id="g3137" />
  </g>
</svg>
