<?xml version="1.0" encoding="UTF-8" standalone="no"?>
<!-- Created with Inkscape (http://www.inkscape.org/) -->

<svg
   xmlns:svg="http://www.w3.org/2000/svg"
   xmlns="http://www.w3.org/2000/svg"
   xmlns:xlink="http://www.w3.org/1999/xlink"
   version="1.0"
   width="128"
   height="128"
   id="svg11300"
   style="display:inline;enable-background:new">
  <title
     id="title2897">Candy Icon Theme</title>
  <defs
     id="defs3">
    <linearGradient
       id="linearGradient6343">
      <stop
         id="stop6345"
         style="stop-color:#000000;stop-opacity:0"
         offset="0" />
      <stop
         id="stop6347"
         style="stop-color:#000000;stop-opacity:1"
         offset="1" />
    </linearGradient>
    <linearGradient
       id="linearGradient6269-6">
      <stop
         id="stop6271-4"
         style="stop-color:#c5e774;stop-opacity:1"
         offset="0" />
      <stop
         id="stop6273-0"
         style="stop-color:#56ad58;stop-opacity:1"
         offset="1" />
    </linearGradient>
    <linearGradient
       id="linearGradient6424-0">
      <stop
         id="stop6426-5"
         style="stop-color:#ffffff;stop-opacity:1"
         offset="0" />
      <stop
         id="stop6428-6"
         style="stop-color:#ffffff;stop-opacity:0"
         offset="1" />
    </linearGradient>
    <linearGradient
       id="linearGradient6532-3">
      <stop
         id="stop6534-9"
         style="stop-color:#abd24e;stop-opacity:1"
         offset="0" />
      <stop
         id="stop6536-1"
         style="stop-color:#4d7b4f;stop-opacity:1"
         offset="1" />
    </linearGradient>
    <filter
       x="-0.56727272"
       y="-3.1199999"
       width="2.1345456"
       height="7.2399998"
       color-interpolation-filters="sRGB"
       id="filter4512">
      <feGaussianBlur
         id="feGaussianBlur4514"
         stdDeviation="5.2" />
    </filter>
    <radialGradient
       cx="77.5"
       cy="46.749996"
       r="5.5"
       fx="77.5"
       fy="46.749996"
       id="radialGradient3985"
       xlink:href="#linearGradient6424-0"
       gradientUnits="userSpaceOnUse"
       gradientTransform="matrix(2.7272726,-1.6e-5,1.25e-6,0.54545459,-144.36369,31.501241)" />
    <linearGradient
       x1="123.5435"
       y1="72.689491"
       x2="10.665289"
       y2="72.689491"
       id="linearGradient3988"
       xlink:href="#linearGradient6269-6"
       gradientUnits="userSpaceOnUse"
       gradientTransform="matrix(0,-0.63933854,0.63973675,0,23.49786,133.81873)" />
    <linearGradient
       x1="123.79022"
       y1="64.873779"
       x2="10.665289"
       y2="64.873779"
       id="linearGradient3990"
       xlink:href="#linearGradient6532-3"
       gradientUnits="userSpaceOnUse"
       gradientTransform="matrix(0,-0.63933854,0.63973675,0,23.49786,133.81873)" />
    <radialGradient
       cx="67.202728"
       cy="54.979115"
       r="36.00452"
       fx="67.202728"
       fy="54.979115"
       id="radialGradient3998"
       xlink:href="#linearGradient6343"
       gradientUnits="userSpaceOnUse"
       gradientTransform="matrix(1.5958551,-1.4214295e-8,2.9330276e-8,1.5275859,-40.245819,-28.985322)" />
    <filter
       x="-0.071689658"
       y="-0.83160001"
       width="1.1433793"
       height="2.6631999"
       color-interpolation-filters="sRGB"
       id="filter4175-5">
      <feGaussianBlur
         id="feGaussianBlur4177-9"
         stdDeviation="3.465" />
    </filter>
    <linearGradient
       id="linearGradient6694">
      <stop
         id="stop6696"
         style="stop-color:#c8c8c8;stop-opacity:1"
         offset="0" />
      <stop
         id="stop6698"
         style="stop-color:#a0a0a0;stop-opacity:1"
         offset="1" />
    </linearGradient>
    <linearGradient
       id="linearGradient6362">
      <stop
         id="stop6364"
         style="stop-color:#d2d2d2;stop-opacity:1"
         offset="0" />
      <stop
         id="stop6366"
         style="stop-color:#fafafa;stop-opacity:1"
         offset="1" />
    </linearGradient>
    <linearGradient
       id="linearGradient6379">
      <stop
         id="stop6381"
         style="stop-color:#828282;stop-opacity:1"
         offset="0" />
      <stop
         id="stop6383"
         style="stop-color:#000000;stop-opacity:1"
         offset="1" />
    </linearGradient>
    <linearGradient
       id="linearGradient6343-6">
      <stop
         id="stop6345-1"
         style="stop-color:#000000;stop-opacity:0"
         offset="0" />
      <stop
         id="stop6347-5"
         style="stop-color:#000000;stop-opacity:1"
         offset="1" />
    </linearGradient>
    <linearGradient
       id="linearGradient6424">
      <stop
         id="stop6426"
         style="stop-color:#ffffff;stop-opacity:1"
         offset="0" />
      <stop
         id="stop6428"
         style="stop-color:#ffffff;stop-opacity:0"
         offset="1" />
    </linearGradient>
    <linearGradient
       id="linearGradient6288">
      <stop
         id="stop6290"
         style="stop-color:#000000;stop-opacity:1"
         offset="0" />
      <stop
         id="stop6292"
         style="stop-color:#000000;stop-opacity:0"
         offset="1" />
    </linearGradient>
    <linearGradient
       id="linearGradient6269">
      <stop
         id="stop6271"
         style="stop-color:#faca96;stop-opacity:1"
         offset="0" />
      <stop
         id="stop6273"
         style="stop-color:#e48620;stop-opacity:1"
         offset="1" />
    </linearGradient>
    <linearGradient
       id="linearGradient3779">
      <stop
         id="stop3781"
         style="stop-color:#edad67;stop-opacity:1"
         offset="0" />
      <stop
         id="stop3783"
         style="stop-color:#a76721;stop-opacity:1"
         offset="1" />
    </linearGradient>
    <linearGradient
       x1="67"
       y1="108"
       x2="67"
       y2="19"
       id="linearGradient3804"
       xlink:href="#linearGradient6362"
       gradientUnits="userSpaceOnUse"
       gradientTransform="translate(0,12)" />
    <linearGradient
       x1="45.25"
       y1="19"
       x2="45.5"
       y2="108"
       id="linearGradient3806"
       xlink:href="#linearGradient6694"
       gradientUnits="userSpaceOnUse"
       gradientTransform="translate(0,12)" />
    <linearGradient
       x1="157.27779"
       y1="19.363636"
       x2="157.27779"
       y2="14.181818"
       id="linearGradient3808"
       xlink:href="#linearGradient6288"
       gradientUnits="userSpaceOnUse"
       gradientTransform="matrix(2.7692307,0,0,11.000001,-370.53848,-115.00001)" />
    <linearGradient
       x1="156.9913"
       y1="15"
       x2="157.01903"
       y2="44"
       id="linearGradient3810"
       xlink:href="#linearGradient6269"
       gradientUnits="userSpaceOnUse"
       gradientTransform="matrix(2.7200897,0,0,2.7173739,-362.71283,5.3374494)" />
    <linearGradient
       x1="151.70708"
       y1="15.062573"
       x2="151.68968"
       y2="43.937447"
       id="linearGradient3812"
       xlink:href="#linearGradient3779"
       gradientUnits="userSpaceOnUse"
       gradientTransform="matrix(2.6896636,0,0,2.6666785,-357.96691,6.8329565)" />
    <radialGradient
       cx="67"
       cy="28.032467"
       r="59"
       fx="67"
       fy="28.032467"
       id="radialGradient3814"
       xlink:href="#linearGradient6343-6"
       gradientUnits="userSpaceOnUse"
       gradientTransform="matrix(-1.050303e-8,-1,1,-1.050303e-8,38.967534,115)" />
    <linearGradient
       x1="148"
       y1="9.5"
       x2="147.96875"
       y2="13.0625"
       id="linearGradient3816"
       xlink:href="#linearGradient6379"
       gradientUnits="userSpaceOnUse"
       gradientTransform="matrix(2.8461538,0,0,1.5,-380.15385,19.75)" />
    <radialGradient
       cx="67"
       cy="28.032467"
       r="59"
       fx="67"
       fy="28.032467"
       id="radialGradient3818"
       xlink:href="#linearGradient6424"
       gradientUnits="userSpaceOnUse"
       gradientTransform="matrix(-1.050303e-8,-1,1,-1.050303e-8,38.967534,115)" />
    <radialGradient
       cx="67"
       cy="34.5"
       r="55"
       fx="67"
       fy="34.5"
       id="radialGradient3820"
       xlink:href="#linearGradient6424"
       gradientUnits="userSpaceOnUse"
       gradientTransform="matrix(1,0,0,0.08181818,0,45.677273)" />
  </defs>
  <g
     transform="translate(-3,-4)"
     id="layer1"
     style="display:inline">
    <g
       id="layer6"
       style="display:none" />
    <path
       d="m 97,124.01347 a 11,2 0 0 1 -22,0 11,2 0 1 1 22,0 z"
       id="path4837"
       style="opacity:0.5;fill:#000000;fill-opacity:1;stroke:none;filter:url(#filter4512)" />
    <rect
       width="116"
       height="10"
       rx="5"
       ry="5"
       x="9"
       y="114"
       id="rect4133"
       style="opacity:0.8;fill:#000000;fill-opacity:1;stroke:none;filter:url(#filter4175-5)" />
    <g
       transform="translate(4.0762329e-6,8.2095335e-7)"
       id="g3946">
      <path
         d="m 24.5,31.5 c -2.216,0 -4,1.534 -4,3.75 l 0,2.25 -4,0 c -2.216002,0 -4,1.784 -4,4 l 0,74.25 c 0,2.216 1.783997,3.75 4,3.75 l 101,0 c 2.216,0 4,-1.784 4,-4 l 0,-74 c 0,-2.216 -1.784,-4 -4,-4 l -53,0 0,-2.25 c 0,-2.216 -1.784,-3.75 -4,-3.75 l -36,0 z"
         id="rect6463"
         style="fill:url(#linearGradient3804);fill-opacity:1;stroke:url(#linearGradient3806);stroke-width:1;stroke-linecap:square;stroke-linejoin:round;stroke-miterlimit:4;stroke-opacity:1;stroke-dasharray:none" />
      <rect
         width="108"
         height="33"
         x="13"
         y="39"
         id="rect5571"
         style="fill:url(#linearGradient3808);fill-opacity:1;stroke:none" />
      <path
         d="m 13.499971,47.499973 107.000059,0 c 2.77,0 5,2.23 5,5 l -3e-5,66.000057 c 0,2.77 -2.22997,5 -4.99997,5 l -107.000059,0 c -2.77,0 -4.999971,-2.23 -4.999971,-5 l -2.86e-5,-66.000057 c 0,-2.77 2.2299996,-5 4.9999996,-5 z"
         id="rect5575"
         style="fill:url(#linearGradient3810);fill-opacity:1;stroke:url(#linearGradient3812);stroke-width:0.99994278;stroke-linecap:square;stroke-linejoin:round;stroke-miterlimit:4;stroke-opacity:1" />
      <path
         d="M 13.500008,47 120.5,47 c 3.047,0 5.5,2.453 5.5,5.5 l 0,66 c 0,3.047 -2.453,5.5 -5.5,5.5 L 13.500008,124 C 10.453008,124 8,121.547 8,118.5 l 7.6e-6,-66 c 0,-3.047 2.4530004,-5.5 5.5000004,-5.5 z"
         id="rect5577"
         style="opacity:0.07999998;fill:url(#radialGradient3814);fill-opacity:1;stroke:none;display:inline;enable-background:new" />
      <rect
         width="37"
         height="3"
         rx="1"
         ry="1"
         x="24"
         y="34"
         id="rect6413"
         style="opacity:0.3;fill:url(#linearGradient3816);fill-opacity:1;stroke:none;display:inline;enable-background:new" />
      <path
         d="M 13.500008,47 120.5,47 c 3.047,0 5.5,2.453 5.5,5.5 l 0,66 c 0,3.047 -2.453,5.5 -5.5,5.5 L 13.500008,124 C 10.453008,124 8,121.547 8,118.5 l 7.6e-6,-66 c 0,-3.047 2.4530004,-5.5 5.5000004,-5.5 z"
         id="path3942"
         style="opacity:0.2;fill:url(#radialGradient3818);fill-opacity:1;stroke:none;display:inline;enable-background:new" />
      <path
         d="m 12,48 0,1 110,0 0,-1 -110,0 z"
         id="rect6566"
         style="opacity:0.5;fill:url(#radialGradient3820);fill-opacity:1;stroke:none;display:inline;enable-background:new" />
    </g>
    <g
       transform="translate(4.0762329e-6,8.2095335e-7)"
       id="g3955" />
    <g
       transform="translate(4.0762329e-6,8.2095335e-7)"
       id="g3964" />
    <g
       transform="translate(4.0762329e-6,8.2095335e-7)"
       id="g3978" />
    <g
       transform="translate(4.0762329e-6,8.2095335e-7)"
       id="g3971" />
    <g
       transform="translate(4.0762329e-6,8.2095335e-7)"
       id="g3985" />
    <g
       transform="translate(19,0)"
       id="g3992">
      <path
         d="m 54.5,55.5 c -2.77,0 -5,2.23 -5,5 l 0,27 -17.375,0 c -0.357624,0 -0.638208,0.497297 -0.625,0.90625 0.0044,0.136318 0.04431,0.256061 0.125,0.34375 l 34.40625,37.40625 c 0.431923,0.47162 1.505577,0.47162 1.9375,0 L 102.375,88.75 c 0.31093,-0.337893 -0.0406,-1.25 -0.5,-1.25 l -17.375,0 0,-27 c 0,-2.77 -2.23,-5 -5,-5 l -25,0 z"
         id="rect3760"
         style="fill:url(#linearGradient3988);fill-opacity:1;stroke:url(#linearGradient3990);stroke-width:0.99999994;stroke-opacity:1" />
      <rect
         width="30"
         height="1"
         rx="5.0000868"
         ry="1.9999653"
         x="52"
         y="55.999996"
         id="rect4792"
         style="opacity:0.5;fill:url(#radialGradient3985);fill-opacity:1;stroke:none" />
      <path
         d="M 54.5,55 C 51.461649,55 49,57.461649 49,60.5 L 49,87 32.125,87 c -0.410572,0 -0.704101,0.266377 -0.875,0.53125 -0.170899,0.264873 -0.260502,0.581066 -0.25,0.90625 0.0072,0.224317 0.07136,0.462113 0.25,0.65625 L 65.65625,126.5 c 0.355327,0.38798 0.86294,0.5 1.34375,0.5 0.48081,0 0.988423,-0.11202 1.34375,-0.5 L 102.75,89.09375 c 0.37085,-0.403006 0.27563,-0.898806 0.125,-1.28125 -0.0753,-0.191222 -0.18697,-0.377702 -0.34375,-0.53125 C 102.37447,87.127702 102.15531,87 101.875,87 L 85,87 85,60.5 C 85,57.461649 82.538351,55 79.5,55 l -25,0 z"
         id="path3950"
         style="font-size:medium;font-style:normal;font-variant:normal;font-weight:normal;font-stretch:normal;text-indent:0;text-align:start;text-decoration:none;line-height:normal;letter-spacing:normal;word-spacing:normal;text-transform:none;direction:ltr;block-progression:tb;writing-mode:lr-tb;text-anchor:start;opacity:0.07999998;color:#000000;fill:url(#radialGradient3998);fill-opacity:1;stroke:none;stroke-width:0.99999994;marker:none;visibility:visible;display:inline;overflow:visible;enable-background:accumulate;font-family:Andale Mono;-inkscape-font-specification:Andale Mono" />
    </g>
    <g
       transform="translate(7,1)"
       id="g4295" />
    <g
       transform="translate(6,0)"
       id="g4612" />
    <g
       transform="translate(30,0)"
       id="g4572" />
    <g
       id="g3120" />
    <g
       transform="translate(-2,21)"
       id="g3091" />
  </g>
</svg>
