<?xml version="1.0" encoding="UTF-8" standalone="no"?>
<!-- Created with Inkscape (http://www.inkscape.org/) -->

<svg
   xmlns:svg="http://www.w3.org/2000/svg"
   xmlns="http://www.w3.org/2000/svg"
   xmlns:xlink="http://www.w3.org/1999/xlink"
   version="1.0"
   width="128"
   height="128"
   id="svg11300"
   style="display:inline;enable-background:new">
  <title
     id="title2897">Candy Icon Theme</title>
  <defs
     id="defs3">
    <linearGradient
       id="linearGradient7471">
      <stop
         id="stop7473"
         style="stop-color:#564036;stop-opacity:1"
         offset="0" />
      <stop
         id="stop7475"
         style="stop-color:#312723;stop-opacity:1"
         offset="1" />
    </linearGradient>
    <linearGradient
       id="linearGradient7463">
      <stop
         id="stop7465"
         style="stop-color:#fafafa;stop-opacity:1"
         offset="0" />
      <stop
         id="stop7467"
         style="stop-color:#cdcdcd;stop-opacity:1"
         offset="1" />
    </linearGradient>
    <linearGradient
       id="linearGradient7321">
      <stop
         id="stop7323"
         style="stop-color:#63493d;stop-opacity:1"
         offset="0" />
      <stop
         id="stop7325"
         style="stop-color:#3d312c;stop-opacity:1"
         offset="1" />
    </linearGradient>
    <linearGradient
       id="linearGradient3632">
      <stop
         id="stop3634"
         style="stop-color:#ffffff;stop-opacity:1"
         offset="0" />
      <stop
         id="stop3636"
         style="stop-color:#ffffff;stop-opacity:0"
         offset="1" />
    </linearGradient>
    <linearGradient
       id="linearGradient3620">
      <stop
         id="stop3622"
         style="stop-color:#000000;stop-opacity:0"
         offset="0" />
      <stop
         id="stop3624"
         style="stop-color:#000000;stop-opacity:1"
         offset="1" />
    </linearGradient>
    <linearGradient
       id="linearGradient3612">
      <stop
         id="stop3614"
         style="stop-color:#894417;stop-opacity:1"
         offset="0" />
      <stop
         id="stop3616"
         style="stop-color:#560d0d;stop-opacity:1"
         offset="1" />
    </linearGradient>
    <linearGradient
       id="linearGradient3596">
      <stop
         id="stop3598"
         style="stop-color:#a14c13;stop-opacity:1"
         offset="0" />
      <stop
         id="stop3600"
         style="stop-color:#6b0c0c;stop-opacity:1"
         offset="1" />
    </linearGradient>
    <filter
       x="-0.078315787"
       y="-0.89279997"
       width="1.1566316"
       height="2.7855999"
       color-interpolation-filters="sRGB"
       id="filter3958">
      <feGaussianBlur
         id="feGaussianBlur3960"
         stdDeviation="3.72" />
    </filter>
    <radialGradient
       cx="158"
       cy="63.500046"
       r="19.000002"
       fx="158"
       fy="63.500046"
       id="radialGradient2971"
       xlink:href="#linearGradient3632"
       gradientUnits="userSpaceOnUse"
       gradientTransform="matrix(2.8684206,0,0,0.1578949,-387.71047,19.97367)" />
    <radialGradient
       cx="158"
       cy="8.8589725"
       r="23.000004"
       fx="158"
       fy="8.8589725"
       id="radialGradient2979"
       xlink:href="#linearGradient3620"
       gradientUnits="userSpaceOnUse"
       gradientTransform="matrix(3.6635141,6.4927477e-7,-4.8065116e-7,2.6755848,-512.83526,9.220042)" />
    <linearGradient
       x1="157"
       y1="10"
       x2="157"
       y2="49"
       id="linearGradient2982"
       xlink:href="#linearGradient3596"
       gradientUnits="userSpaceOnUse"
       gradientTransform="matrix(2.5111111,0,0,2.5000001,-330.75555,2.2499984)" />
    <linearGradient
       x1="160"
       y1="10"
       x2="160"
       y2="49"
       id="linearGradient2984"
       xlink:href="#linearGradient3612"
       gradientUnits="userSpaceOnUse"
       gradientTransform="matrix(2.5111111,0,0,2.5000001,-330.75555,2.2499984)" />
    <radialGradient
       cx="158"
       cy="8.8589725"
       r="23.000004"
       fx="158"
       fy="8.8589725"
       id="radialGradient3880"
       xlink:href="#linearGradient3632"
       gradientUnits="userSpaceOnUse"
       gradientTransform="matrix(3.6635141,6.4927477e-7,-4.8065116e-7,2.6755848,-512.83526,9.220042)" />
    <linearGradient
       x1="158"
       y1="19.523809"
       x2="158"
       y2="40.476192"
       id="linearGradient7986"
       xlink:href="#linearGradient7321"
       gradientUnits="userSpaceOnUse"
       gradientTransform="matrix(2.6764708,0,0,2.75,-356.88236,-3.499997)" />
    <linearGradient
       x1="160"
       y1="19"
       x2="160"
       y2="41"
       id="linearGradient7988"
       xlink:href="#linearGradient7471"
       gradientUnits="userSpaceOnUse"
       gradientTransform="matrix(2.6,0,0,2.6190479,-344.80001,0.428569)" />
    <linearGradient
       x1="159.88312"
       y1="29.30435"
       x2="159.88312"
       y2="40.260872"
       id="linearGradient7990"
       xlink:href="#linearGradient7471"
       gradientUnits="userSpaceOnUse"
       gradientTransform="matrix(2.6551722,0,0,2.5555557,-353.51719,3.1111034)" />
    <linearGradient
       x1="158"
       y1="19.590546"
       x2="158"
       y2="39"
       id="linearGradient7992"
       xlink:href="#linearGradient7471"
       gradientUnits="userSpaceOnUse"
       gradientTransform="matrix(2.6551722,0,0,2.5555557,-353.51719,3.1111034)" />
    <linearGradient
       x1="160"
       y1="29"
       x2="160"
       y2="44"
       id="linearGradient8007"
       xlink:href="#linearGradient7463"
       gradientUnits="userSpaceOnUse"
       gradientTransform="matrix(2.6206894,0,0,1.7777778,-348.06891,26.55555)" />
    <filter
       x="-0.19235425"
       y="-0.19164705"
       width="1.3847085"
       height="1.3832941"
       color-interpolation-filters="sRGB"
       id="filter4099">
      <feGaussianBlur
         id="feGaussianBlur4101"
         stdDeviation="1.3575" />
    </filter>
  </defs>
  <g
     transform="translate(-3,-4)"
     id="layer1"
     style="display:inline">
    <g
       id="layer6"
       style="display:none" />
    <rect
       width="114"
       height="10"
       rx="5"
       ry="5"
       x="9"
       y="114"
       id="rect3912"
       style="opacity:0.8;fill:#000000;fill-opacity:1;stroke:none;filter:url(#filter3958)" />
    <g
       id="g7994" />
    <g
       id="g3005" />
    <g
       id="g3043" />
    <g
       id="g3078" />
    <g
       id="g7933" />
    <g
       id="g4103">
      <rect
         width="113"
         height="95"
         rx="5"
         ry="5"
         x="9.5"
         y="28.5"
         id="rect3854"
         style="fill:url(#linearGradient2982);fill-opacity:1;stroke:url(#linearGradient2984);stroke-width:0.99999988;stroke-opacity:1" />
      <rect
         width="91"
         height="55"
         rx="3"
         ry="3"
         x="20.5"
         y="51.5"
         id="rect7976"
         style="fill:url(#linearGradient7986);fill-opacity:1;stroke:url(#linearGradient7988);stroke-width:1;stroke-opacity:1" />
      <rect
         width="77"
         height="23"
         rx="1"
         ry="1"
         x="27.5"
         y="78.5"
         id="rect7978"
         style="fill:url(#linearGradient7990);fill-opacity:1;stroke:url(#linearGradient7992);stroke-width:0.99999994;stroke-miterlimit:4;stroke-opacity:1;stroke-dasharray:none" />
      <rect
         width="76"
         height="16"
         rx="1"
         ry="1"
         x="28"
         y="79"
         id="rect8005"
         style="fill:url(#linearGradient8007);fill-opacity:1;stroke:none" />
      <path
         d="m 36.855311,81.000066 c -0.335741,-0.0024 -0.63058,0.06874 -0.831258,0.215766 -0.258901,0.189679 -0.372981,0.213746 -0.445281,0.083 -0.0692,-0.1251 -0.131799,-0.111144 -0.192999,0.06641 -0.0516,0.15012 -0.1592,0.218662 -0.281999,0.165959 -0.117195,-0.05024 -0.165202,-0.03404 -0.119,0.0498 0.04439,0.08058 0.02279,0.149359 -0.04439,0.149359 -0.0672,0 -0.282819,0.254227 -0.474999,0.56431 -0.30638,0.494297 -0.356339,0.720214 -0.356259,1.759326 4.1e-5,0.651959 0.0584,1.286773 -0.119,1.327795 -0.103997,0.02406 -0.0942,0.477201 -0.04439,0.946047 0.0646,0.613097 0.161399,0.913457 0.430518,1.195008 0.41908,0.438546 1.201758,1.197679 1.201758,1.609949 0,0.589141 -1.691736,1.200207 -3.577993,2.131218 l 0,1.735987 9.999983,0 0,-1.735987 c -1.610497,-0.74948 -3.509994,-1.556707 -3.509994,-2.131204 0,-0.411276 0.767118,-1.171846 1.185838,-1.609949 0.26908,-0.281558 0.380579,-0.581917 0.445279,-1.195014 0.0496,-0.468846 0.05621,-0.908638 -0.04439,-0.946047 -0.138799,-0.05155 -0.133398,-0.681184 -0.133398,-1.327796 0,-0.926871 -0.05261,-1.271795 -0.2672,-1.659737 -0.426695,-0.771955 -1.813053,-1.387536 -2.820311,-1.394192 l -4.8e-4,-1.1e-5 z"
         id="path7982"
         style="fill:#3a3935;fill-opacity:1;fill-rule:evenodd;stroke:none;stroke-width:1.00213277;marker:none;visibility:visible;display:inline;overflow:visible;enable-background:accumulate" />
      <path
         d="m 32.53125,97.03125 c -0.20573,3e-6 -0.40495,0.04688 -0.59375,0.125 -0.187501,0.07813 -0.363282,0.17969 -0.5,0.3125 -0.135417,0.132815 -0.23177,0.285159 -0.3125,0.46875 C 31.04427,98.121096 31,98.329429 31,98.53125 c 0,0.201824 0.04427,0.378908 0.125,0.5625 0.08073,0.182293 0.177083,0.33724 0.3125,0.46875 0.136718,0.131511 0.312499,0.234376 0.5,0.3125 0.1888,0.07813 0.38802,0.125 0.59375,0.125 0.204426,0 0.40755,-0.04687 0.59375,-0.125 0.187498,-0.07812 0.333331,-0.180989 0.46875,-0.3125 0.136716,-0.13151 0.23307,-0.286457 0.3125,-0.46875 0.08072,-0.183592 0.124997,-0.360676 0.125,-0.5625 -3e-6,-0.201821 -0.04427,-0.410154 -0.125,-0.59375 -0.07943,-0.183591 -0.175784,-0.335935 -0.3125,-0.46875 -0.135419,-0.13281 -0.281252,-0.23437 -0.46875,-0.3125 -0.1862,-0.07812 -0.389324,-0.124997 -0.59375,-0.125 z m 3.125,0.03125 0,2.90625 0.28125,0 0,-1 c 0,-0.08203 0.03646,-0.167967 0.09375,-0.28125 0.05859,-0.114582 0.15755,-0.22526 0.25,-0.3125 0.09375,-0.08724 0.16406,-0.124998 0.25,-0.125 0.06771,0 0.13932,0.02995 0.1875,0.0625 0.04818,0.03125 0.06901,0.07162 0.09375,0.125 0.02473,0.05208 0.05208,0.10156 0.0625,0.15625 0.01168,0.05469 -2e-6,0.09636 0,0.15625 l 0,1.21875 0.3125,0 0,-1.21875 c 0,-0.10677 -0.0052,-0.1875 -0.03125,-0.28125 -0.02605,-0.09505 -0.07292,-0.17448 -0.125,-0.25 -0.05208,-0.07552 -0.10156,-0.14453 -0.1875,-0.1875 -0.08594,-0.04427 -0.203126,-0.0625 -0.3125,-0.0625 -0.101563,2e-6 -0.207033,0.02214 -0.3125,0.09375 -0.104168,0.07031 -0.20182,0.171876 -0.28125,0.28125 l 0,-1.28125 -0.28125,0 z m -3.125,0.28125 c 0.218749,3e-6 0.408852,0.05078 0.59375,0.15625 0.186196,0.105472 0.329425,0.255211 0.4375,0.4375 0.10807,0.182294 0.156247,0.378908 0.15625,0.59375 -3e-6,0.213543 -0.04818,0.41146 -0.15625,0.59375 -0.108075,0.180991 -0.251304,0.29948 -0.4375,0.40625 -0.184898,0.105473 -0.375001,0.15625 -0.59375,0.15625 -0.165366,0 -0.31771,0 -0.46875,-0.0625 -0.149741,-0.0625 -0.298178,-0.175781 -0.40625,-0.28125 -0.106771,-0.10677 -0.1862,-0.229166 -0.25,-0.375 -0.0625,-0.145833 -0.09375,-0.277342 -0.09375,-0.4375 0,-0.161456 0.03125,-0.322915 0.09375,-0.46875 0.0638,-0.147134 0.141927,-0.269529 0.25,-0.375 0.108072,-0.105466 0.25651,-0.1875 0.40625,-0.25 0.149738,-0.0625 0.303384,-0.09375 0.46875,-0.09375 z M 34.5,97.5625 34.5,98 l -0.15625,0 0,0.28125 0.15625,0 0,1.6875 0.3125,0 0,-1.6875 0.46875,0 L 35.375,98 l -0.5625,0 0,-0.4375 -0.3125,0 z m 4.125,0.40625 c -0.175782,2e-6 -0.351563,0.03125 -0.5,0.125 -0.148438,0.09375 -0.25912,0.218751 -0.34375,0.375 -0.08463,0.154949 -0.125,0.319011 -0.125,0.5 0,0.182292 0.04297,0.375001 0.125,0.53125 0.08333,0.154949 0.196615,0.28255 0.34375,0.375 0.147135,0.09245 0.322915,0.125 0.5,0.125 0.04817,0 0.07552,0.007 0.125,0 0.05078,-0.0065 0.11719,-0.03906 0.1875,-0.0625 0.07031,-0.02344 0.15495,-0.05599 0.21875,-0.09375 0.0638,-0.03776 0.11979,-0.08854 0.1875,-0.15625 0.06771,-0.06901 0.13672,-0.12891 0.1875,-0.21875 L 39.25,99.3125 c -0.07552,0.127605 -0.170575,0.21484 -0.28125,0.28125 -0.110679,0.06511 -0.214845,0.09375 -0.34375,0.09375 -0.164064,0 -0.311199,-0.03255 -0.4375,-0.15625 -0.126301,-0.124999 -0.20312,-0.281249 -0.21875,-0.46875 l 1.625,0 0,-0.15625 C 39.57943,98.736981 39.52343,98.579428 39.4375,98.4375 39.35156,98.294272 39.235675,98.17839 39.09375,98.09375 38.951821,98.00912 38.792968,97.968752 38.625,97.96875 z m 2.21875,0 c -0.179688,0.0638 -0.329428,0.156252 -0.46875,0.3125 0,-0.102863 -0.02865,-0.1875 -0.0625,-0.28125 l -0.34375,0 c 0.02344,0.04557 0.04557,0.126295 0.0625,0.25 0.01824,0.123699 0.03125,0.21484 0.03125,0.3125 l 0,1.40625 0.3125,0 0,-1 c 0,-0.02735 -0.0026,-0.0638 0,-0.09375 0.0039,-0.02995 0.01823,-0.07552 0.03125,-0.125 0.01432,-0.05078 0.0091,-0.08073 0.03125,-0.125 0.02214,-0.04427 0.08073,-0.10807 0.125,-0.15625 0.04427,-0.04818 0.09766,-0.09114 0.15625,-0.125 0.05859,-0.03516 0.1276,-0.07161 0.21875,-0.09375 0.09114,-0.02344 0.20052,-0.03125 0.3125,-0.03125 l -0.40625,-0.25 z M 38.625,98.25 c 0.140624,10e-7 0.260415,0.0638 0.375,0.15625 0.115883,0.09245 0.20833,0.195313 0.25,0.34375 l -1.25,0 c 0.04557,-0.148437 0.135416,-0.2513 0.25,-0.34375 0.115884,-0.09244 0.236978,-0.156249 0.375,-0.15625 z m 4.59375,1.28125 c -0.0625,0 -0.11068,0.01693 -0.15625,0.0625 -0.04557,0.04557 -0.09375,0.1237 -0.09375,0.1875 0,0.0625 0.04818,0.11068 0.09375,0.15625 0.04557,0.04557 0.09375,0.0625 0.15625,0.0625 0.0638,0 0.11068,-0.01693 0.15625,-0.0625 0.04687,-0.04557 0.0625,-0.09375 0.0625,-0.15625 0,-0.0638 -0.01693,-0.14193 -0.0625,-0.1875 -0.04557,-0.04557 -0.09115,-0.0625 -0.15625,-0.0625 z m 1.09375,0 c -0.0625,0 -0.11068,0.01693 -0.15625,0.0625 -0.04557,0.04557 -0.0625,0.1237 -0.0625,0.1875 0,0.0625 0.01693,0.11068 0.0625,0.15625 0.04557,0.04557 0.125,0.0625 0.1875,0.0625 0.0638,0 0.11068,-0.01693 0.15625,-0.0625 0.04687,-0.04557 0.0625,-0.09375 0.0625,-0.15625 0,-0.0638 -0.01693,-0.14193 -0.0625,-0.1875 -0.04557,-0.04557 -0.1224,-0.0625 -0.1875,-0.0625 z m 1.125,0 c -0.0625,0 -0.11068,0.01693 -0.15625,0.0625 -0.04557,0.04557 -0.0625,0.1237 -0.0625,0.1875 0,0.0625 0.01693,0.11068 0.0625,0.15625 C 45.32682,99.98307 45.375,100 45.4375,100 c 0.0638,0 0.14193,-0.01693 0.1875,-0.0625 0.04687,-0.04557 0.0625,-0.09375 0.0625,-0.15625 0,-0.0638 -0.01693,-0.14193 -0.0625,-0.1875 -0.04557,-0.04557 -0.1224,-0.0625 -0.1875,-0.0625 z"
         id="path3792"
         style="font-size:4px;font-style:normal;font-variant:normal;font-weight:bold;font-stretch:normal;fill:#ffffff;fill-opacity:1;stroke:none;font-family:Sawasdee;-inkscape-font-specification:Andale Mono Bold" />
      <path
         d="m 59.6875,86.03125 c -0.20573,3e-6 -0.40495,0.04688 -0.59375,0.125 -0.187501,0.07813 -0.363282,0.179691 -0.5,0.3125 -0.135417,0.132815 -0.23177,0.285158 -0.3125,0.46875 -0.08073,0.183595 -0.125,0.360678 -0.125,0.5625 0,0.201824 0.04427,0.410157 0.125,0.59375 0.08073,0.182292 0.177083,0.33724 0.3125,0.46875 0.136718,0.131511 0.312499,0.23437 0.5,0.3125 0.1888,0.07813 0.38802,0.125 0.59375,0.125 0.204426,0 0.3763,-0.04687 0.5625,-0.125 0.187498,-0.07813 0.364581,-0.180989 0.5,-0.3125 0.136716,-0.13151 0.23307,-0.286458 0.3125,-0.46875 0.08072,-0.183593 0.124997,-0.391926 0.125,-0.59375 l 0,-0.15625 -1.59375,0 0,0.3125 1.28125,0 c -0.03776,0.29297 -0.178389,0.550783 -0.40625,0.75 -0.226565,0.197915 -0.475262,0.281251 -0.78125,0.28125 -0.165366,0 -0.31771,-0.03125 -0.46875,-0.09375 -0.149741,-0.0625 -0.298178,-0.14453 -0.40625,-0.25 -0.106771,-0.10677 -0.1862,-0.229166 -0.25,-0.375 C 58.5,87.822918 58.468749,87.660157 58.46875,87.5 c 0,-0.161457 0.03125,-0.291665 0.09375,-0.4375 0.0638,-0.147133 0.141927,-0.269529 0.25,-0.375 0.108072,-0.105466 0.25651,-0.21875 0.40625,-0.28125 0.149738,-0.0625 0.303384,-0.09375 0.46875,-0.09375 0.114582,0 0.207029,0.03125 0.3125,0.0625 0.106768,0.03126 0.21484,0.05599 0.28125,0.09375 0.0664,0.03646 0.11979,0.09505 0.1875,0.15625 0.06901,0.0612 0.10286,0.09896 0.125,0.125 0.02214,0.02604 0.05859,0.08073 0.09375,0.125 l 0.25,-0.1875 c -0.0026,-0.0026 0.0052,-0.02345 0,-0.03125 -0.02995,-0.03906 -0.0612,-0.05729 -0.09375,-0.09375 -0.03125,-0.03646 -0.10677,-0.11849 -0.1875,-0.1875 -0.07943,-0.06901 -0.16407,-0.10807 -0.25,-0.15625 -0.08464,-0.04818 -0.17969,-0.08724 -0.3125,-0.125 -0.132815,-0.03906 -0.264324,-0.0625 -0.40625,-0.0625 z M 46.25,86.0625 l 0,2.125 c -2e-6,0.144532 -0.0625,0.27474 -0.15625,0.375 -0.09375,0.09896 -0.187501,0.125001 -0.3125,0.125 -0.127605,10e-7 -0.2513,-0.02604 -0.34375,-0.125 -0.09115,-0.09896 -0.125001,-0.229166 -0.125,-0.375 l 0,-0.0625 -0.3125,0 0,0.0625 c 0,0.222657 0.07031,0.401042 0.21875,0.5625 0.149739,0.160155 0.346354,0.25 0.5625,0.25 0.216145,0 0.38151,-0.08984 0.53125,-0.25 0.14974,-0.161458 0.218748,-0.339843 0.21875,-0.5625 l 0,-2.125 -0.28125,0 z m 21.78125,0 0,2.90625 0.3125,0 0,-2.90625 -0.3125,0 z M 51.875,86.34375 c -0.0625,0 -0.11198,0.02084 -0.15625,0.0625 -0.04297,0.04167 -0.0625,0.09636 -0.0625,0.15625 0,0.0586 0.01953,0.08464 0.0625,0.125 0.04297,0.04037 0.09245,0.0625 0.15625,0.0625 0.0612,0 0.11328,-0.02213 0.15625,-0.0625 0.04427,-0.04036 0.0625,-0.0664 0.0625,-0.125 0,-0.05989 -0.01823,-0.11458 -0.0625,-0.15625 -0.04297,-0.04166 -0.09505,-0.0625 -0.15625,-0.0625 z m 17.1875,0 c -0.0625,0 -0.14323,0.02084 -0.1875,0.0625 -0.04297,0.04167 -0.0625,0.09636 -0.0625,0.15625 0,0.0586 0.01953,0.08464 0.0625,0.125 0.04297,0.04037 0.1237,0.0625 0.1875,0.0625 0.0612,0 0.08203,-0.02213 0.125,-0.0625 0.04427,-0.04036 0.09375,-0.0664 0.09375,-0.125 0,-0.05989 -0.04948,-0.11458 -0.09375,-0.15625 -0.04297,-0.04166 -0.0638,-0.0625 -0.125,-0.0625 z m -15.75,0.59375 c -0.08203,0 -0.17318,0.03646 -0.25,0.0625 -0.07682,0.02474 -0.13932,0.03255 -0.1875,0.0625 -0.04687,0.02995 -0.07552,0.07552 -0.125,0.125 -0.04818,0.04948 -0.07682,0.07292 -0.09375,0.09375 -0.01562,0.02083 -0.03906,0.0586 -0.0625,0.09375 l 0.25,0.15625 c 0,-0.0013 -0.01172,-0.01562 0,-0.03125 0.01171,-0.01563 0.02475,-0.02345 0.03125,-0.03125 0.0065,-0.0091 0.01562,-0.01302 0.03125,-0.03125 0.01563,-0.01953 0.04948,-0.05208 0.0625,-0.0625 0.01432,-0.01172 0.01172,-0.01432 0.03125,-0.03125 0.02083,-0.01693 0.04167,-0.02083 0.0625,-0.03125 0.02083,-0.01041 0.06901,-0.02083 0.09375,-0.03125 0.02474,-0.01042 0.03385,-0.02605 0.0625,-0.03125 0.02864,-0.0052 0.0625,10e-7 0.09375,0 0.126301,10e-7 0.243488,0.02995 0.34375,0.125 0.101557,0.09505 0.16927,0.243491 0.1875,0.40625 -0.06771,0 -0.14583,-0.0013 -0.1875,0 -0.04167,0 -0.07682,-0.0039 -0.15625,0 -0.07943,0.0039 -0.16406,0.02345 -0.21875,0.03125 -0.05339,0.0065 -0.11198,0.01563 -0.1875,0.03125 -0.07422,0.01563 -0.13542,0.01042 -0.1875,0.03125 -0.05078,0.02083 -0.10026,0.0599 -0.15625,0.09375 -0.05598,0.03255 -0.1224,0.08203 -0.15625,0.125 -0.03385,0.04167 -0.04036,0.06641 -0.0625,0.125 C 52.50912,88.276042 52.5,88.36719 52.5,88.4375 c 0,0.06771 0.0052,0.12109 0.03125,0.1875 0.02734,0.0651 0.07292,0.13021 0.125,0.1875 0.05338,0.05729 0.12891,0.08984 0.21875,0.125 0.08984,0.03515 0.166666,0.0625 0.28125,0.0625 0.242186,0 0.484373,-0.109374 0.6875,-0.3125 -0.0065,0.08203 0.01823,0.18229 0.0625,0.28125 l 0.3125,0 c -0.02474,-0.04818 -0.04557,-0.13021 -0.0625,-0.21875 -0.01689,-0.08984 -10e-7,-0.16146 0,-0.25 l 0,-0.65625 C 54.15365,87.707032 54.11068,87.582032 54.0625,87.46875 54.01432,87.354168 53.95312,87.26042 53.875,87.1875 53.79818,87.11329 53.72396,87.04037 53.625,87 53.52734,86.95963 53.417968,86.9375 53.3125,86.9375 z m -5.25,0.03125 c -0.19271,2e-6 -0.367188,0.03386 -0.53125,0.125 -0.162761,0.08984 -0.27995,0.217449 -0.375,0.375 C 47.0612,87.625001 47,87.783856 47,87.96875 c 0,0.184897 0.0612,0.375001 0.15625,0.53125 0.09505,0.15625 0.212239,0.2526 0.375,0.34375 C 47.695312,88.933595 47.86979,89 48.0625,89 48.253904,89 48.430988,88.93359 48.59375,88.84375 48.756508,88.7526 48.90495,88.65625 49,88.5 c 0.09505,-0.156249 0.124998,-0.346353 0.125,-0.53125 -2e-6,-0.184894 -0.02995,-0.343749 -0.125,-0.5 -0.09505,-0.157551 -0.243492,-0.28516 -0.40625,-0.375 -0.162762,-0.09115 -0.339846,-0.124998 -0.53125,-0.125 z m 1.4375,0 c 0.02604,0.04427 0.04687,0.157554 0.0625,0.28125 0.01689,0.122397 0.03125,0.212241 0.03125,0.3125 l 0,1.40625 0.3125,0 0,-1 c 0,-0.08073 0.03516,-0.167968 0.09375,-0.28125 0.05859,-0.114582 0.125,-0.22526 0.21875,-0.3125 0.09375,-0.08854 0.19661,-0.124998 0.28125,-0.125 0.06771,0 0.10807,0.02995 0.15625,0.0625 0.04818,0.03125 0.10026,0.07162 0.125,0.125 0.02473,0.05209 0.05208,0.10156 0.0625,0.15625 0.01168,0.05469 -10e-7,0.09636 0,0.15625 l 0,1.21875 0.3125,0 0,-1.21875 c 0,-0.106769 -0.0052,-0.1875 -0.03125,-0.28125 C 51.098953,87.3737 51.05208,87.26302 51,87.1875 50.94792,87.11198 50.86719,87.07422 50.78125,87.03125 50.69531,86.98698 50.609374,86.96875 50.5,86.96875 c -0.101564,2e-6 -0.203126,0.01302 -0.3125,0.09375 -0.109376,0.08073 -0.20703,0.200523 -0.28125,0.3125 0,-0.09765 0.0065,-0.17578 0,-0.21875 -0.0052,-0.04297 -0.04037,-0.11588 -0.0625,-0.1875 l -0.34375,0 z m 5.125,0 c 0.02604,0.04427 0.04687,0.157554 0.0625,0.28125 0.01689,0.122397 0,0.212241 0,0.3125 l 0,1.40625 0.3125,0 0,-1 c 0,-0.08073 0.03516,-0.167968 0.09375,-0.28125 0.05859,-0.114582 0.125,-0.22526 0.21875,-0.3125 0.09375,-0.08854 0.19661,-0.124998 0.28125,-0.125 0.06771,0 0.13932,0.02995 0.1875,0.0625 0.04818,0.03125 0.06901,0.07162 0.09375,0.125 0.02473,0.05209 0.05208,0.10156 0.0625,0.15625 0.01168,0.05469 -2e-6,0.09636 0,0.15625 l 0,1.21875 0.3125,0 0,-1.21875 c 0,-0.106769 -0.0052,-0.1875 -0.03125,-0.28125 -0.02605,-0.09505 -0.07292,-0.20573 -0.125,-0.28125 -0.05208,-0.07552 -0.10156,-0.11328 -0.1875,-0.15625 -0.08594,-0.04427 -0.203126,-0.0625 -0.3125,-0.0625 -0.101563,2e-6 -0.203126,0.01302 -0.3125,0.09375 -0.109375,0.08073 -0.20703,0.200523 -0.28125,0.3125 0,-0.09765 0.0065,-0.17578 0,-0.21875 -0.0052,-0.04297 -0.0091,-0.11588 -0.03125,-0.1875 l -0.34375,0 z m 8.90625,0 0.9375,2.03125 0.9375,-2.03125 -0.34375,0 -0.59375,1.28125 -0.625,-1.28125 -0.3125,0 z m 3.0625,0 c -0.175782,2e-6 -0.351563,0.03125 -0.5,0.125 -0.148438,0.09375 -0.25911,0.218752 -0.34375,0.375 -0.08463,0.154949 -0.125,0.319012 -0.125,0.5 0,0.182293 0.04297,0.343751 0.125,0.5 0.08333,0.154948 0.196615,0.28255 0.34375,0.375 0.147135,0.09245 0.322915,0.15625 0.5,0.15625 0.04817,0 0.07552,-0.02475 0.125,-0.03125 0.05078,-0.0065 0.11719,-0.0078 0.1875,-0.03125 0.07031,-0.02344 0.15495,-0.05599 0.21875,-0.09375 0.0638,-0.03776 0.11979,-0.08854 0.1875,-0.15625 0.06771,-0.06901 0.13672,-0.16016 0.1875,-0.25 l -0.28125,-0.125 c -0.07552,0.127604 -0.170575,0.21484 -0.28125,0.28125 -0.110679,0.06511 -0.214845,0.09375 -0.34375,0.09375 -0.164064,10e-7 -0.311199,-0.0638 -0.4375,-0.1875 -0.126301,-0.125 -0.20312,-0.28125 -0.21875,-0.46875 l 1.625,0 0,-0.125 C 67.54818,87.73698 67.49219,87.579429 67.40625,87.4375 67.32031,87.294273 67.204425,87.17839 67.0625,87.09375 66.920571,87.00912 66.761718,86.968752 66.59375,86.96875 z M 51.71875,87 l 0,1.96875 0.3125,0 0,-1.96875 -0.3125,0 z m 9.9375,0 0,1.1875 c 0,0.220053 0.07031,0.404948 0.21875,0.5625 0.149739,0.157548 0.346354,0.25 0.5625,0.25 0.216145,0 0.382812,-0.09245 0.53125,-0.25 0.14974,-0.157552 0.218748,-0.342447 0.21875,-0.5625 l 0,-1.1875 -0.28125,0 0,1.1875 c -10e-7,0.14323 -0.0625,0.27734 -0.15625,0.375 -0.09245,0.09635 -0.184897,0.125 -0.3125,0.125 -0.125001,0 -0.25521,-0.02864 -0.34375,-0.125 -0.08854,-0.09635 -0.125001,-0.230468 -0.125,-0.375 l 0,-1.1875 -0.3125,0 z m 7.21875,0 0,1.96875 0.3125,0 0,-1.96875 -0.3125,0 z m -20.8125,0.25 c 0.209634,2e-6 0.414061,0.07682 0.5625,0.21875 0.148436,0.140626 0.218748,0.300783 0.21875,0.5 -2e-6,0.200522 -0.07031,0.389324 -0.21875,0.53125 -0.148439,0.140628 -0.352866,0.1875 -0.5625,0.1875 -0.209637,0 -0.384116,-0.04687 -0.53125,-0.1875 -0.147134,-0.140624 -0.21875,-0.329426 -0.21875,-0.53125 0,-0.199217 0.07161,-0.359374 0.21875,-0.5 0.147134,-0.141921 0.321613,-0.218748 0.53125,-0.21875 z m 18.53125,0 c 0.140624,2e-6 0.260415,0.03255 0.375,0.125 0.115883,0.09245 0.20833,0.226564 0.25,0.375 l -1.25,0 c 0.04557,-0.148436 0.135416,-0.28255 0.25,-0.375 0.115884,-0.09244 0.236978,-0.124998 0.375,-0.125 z m -13.0625,0.78125 c 0.08724,-0.0065 0.203123,0.0013 0.3125,0 l 0,0.25 c -0.06771,0.111979 -0.156251,0.23047 -0.28125,0.3125 -0.125001,0.08203 -0.278647,0.125 -0.40625,0.125 -0.123699,0 -0.1875,-0.03385 -0.25,-0.09375 -0.0625,-0.05989 -0.09375,-0.11979 -0.09375,-0.1875 0,-0.0651 0.01953,-0.13932 0.0625,-0.1875 0.04297,-0.04817 0.09115,-0.09766 0.15625,-0.125 0.0651,-0.02735 0.15234,-0.04557 0.25,-0.0625 0.09766,-0.01693 0.16406,-0.02475 0.25,-0.03125 z"
         id="path3754"
         style="font-size:4px;font-style:normal;font-variant:normal;font-weight:bold;font-stretch:normal;fill:#000000;fill-opacity:1;stroke:none;font-family:Sawasdee;-inkscape-font-specification:Andale Mono Bold" />
      <path
         d="m 72.5,56.5 c -0.82843,0 -1.5,0.671573 -1.5,1.5 0,0.828427 0.67157,1.5 1.5,1.5 0.82843,0 1.5,-0.671573 1.5,-1.5 0,-0.828427 -0.67157,-1.5 -1.5,-1.5 z M 68,58 c -0.66312,0 -1.29946,0.108979 -1.90625,0.28125 l 1.25,2.78125 C 67.55639,61.02756 67.77747,61 68,61 c 1.86319,0 3.39908,1.275691 3.84375,3 l 3.09375,0 C 74.76188,62.802388 74.2671,61.705161 73.5625,60.78125 73.22814,60.909937 72.8797,61 72.5,61 70.90897,61 69.63217,59.753039 69.53125,58.1875 69.0372,58.076949 68.5274,58 68,58 z m -3.59375,1 c -1.3851,0.834877 -2.45653,2.133979 -3,3.6875 C 62.07299,63.237744 62.5,64.068019 62.5,65 c 0,0.931981 -0.42701,1.762256 -1.09375,2.3125 0.50566,1.445442 1.47167,2.663526 2.71875,3.5 L 65.375,68 C 64.53502,67.266737 64,66.202586 64,65 c 0,-1.323693 0.63434,-2.490682 1.625,-3.21875 L 64.40625,59 z M 59.5,63.5 c -0.82843,0 -1.5,0.671573 -1.5,1.5 0,0.828427 0.67157,1.5 1.5,1.5 0.82843,0 1.5,-0.671573 1.5,-1.5 0,-0.828427 -0.67157,-1.5 -1.5,-1.5 z M 71.84375,66 C 71.39908,67.724309 69.86319,69 68,69 67.66465,69 67.34252,68.92148 67.03125,68.84375 l -1.25,2.8125 C 66.47596,71.888291 67.22582,72 68,72 68.5274,72 69.0372,71.92305 69.53125,71.8125 69.63217,70.246961 70.90897,69 72.5,69 c 0.3797,0 0.72814,0.09006 1.0625,0.21875 0.7046,-0.923911 1.19938,-2.021138 1.375,-3.21875 l -3.09375,0 z M 72.5,70.5 c -0.82843,0 -1.5,0.671573 -1.5,1.5 0,0.828427 0.67157,1.5 1.5,1.5 0.82843,0 1.5,-0.671573 1.5,-1.5 0,-0.828427 -0.67157,-1.5 -1.5,-1.5 z"
         id="path3881"
         style="fill:#ffffff;fill-opacity:1;stroke:none" />
      <path
         d="m 72.7,56.5 c -0.82843,0 -1.5,0.671573 -1.5,1.5 0,0.828427 0.67157,1.5 1.5,1.5 0.82843,0 1.5,-0.671573 1.5,-1.5 0,-0.828427 -0.67157,-1.5 -1.5,-1.5 z M 68.2,58 c -0.66312,0 -1.29946,0.108979 -1.90625,0.28125 l 1.25,2.78125 C 67.75639,61.02756 67.97747,61 68.2,61 c 1.86319,0 3.39908,1.275691 3.84375,3 l 3.09375,0 C 74.96188,62.802388 74.4671,61.705161 73.7625,60.78125 73.42814,60.909937 73.0797,61 72.7,61 71.10897,61 69.83217,59.753039 69.73125,58.1875 69.2372,58.076949 68.7274,58 68.2,58 z m -3.59375,1 c -1.3851,0.834877 -2.45653,2.133979 -3,3.6875 C 62.27299,63.237744 62.7,64.068019 62.7,65 c 0,0.931981 -0.42701,1.762256 -1.09375,2.3125 0.50566,1.445442 1.47167,2.663526 2.71875,3.5 L 65.575,68 C 64.73502,67.266737 64.2,66.202586 64.2,65 c 0,-1.323693 0.63434,-2.490682 1.625,-3.21875 L 64.60625,59 z M 59.7,63.5 c -0.82843,0 -1.5,0.671573 -1.5,1.5 0,0.828427 0.67157,1.5 1.5,1.5 0.82843,0 1.5,-0.671573 1.5,-1.5 0,-0.828427 -0.67157,-1.5 -1.5,-1.5 z M 72.04375,66 c -0.44467,1.724309 -1.98056,3 -3.84375,3 -0.33535,0 -0.65748,-0.07852 -0.96875,-0.15625 l -1.25,2.8125 C 66.67596,71.888291 67.42582,72 68.2,72 68.7274,72 69.2372,71.92305 69.73125,71.8125 69.83217,70.246961 71.10897,69 72.7,69 c 0.3797,0 0.72814,0.09006 1.0625,0.21875 0.7046,-0.923911 1.19938,-2.021138 1.375,-3.21875 l -3.09375,0 z M 72.7,70.5 c -0.82843,0 -1.5,0.671573 -1.5,1.5 0,0.828427 0.67157,1.5 1.5,1.5 0.82843,0 1.5,-0.671573 1.5,-1.5 0,-0.828427 -0.67157,-1.5 -1.5,-1.5 z"
         id="path3925"
         style="opacity:0.7;fill:#ffffff;fill-opacity:1;stroke:none;filter:url(#filter4099)" />
      <rect
         width="114"
         height="96"
         rx="5.5"
         ry="5.5"
         x="8.9999971"
         y="28"
         id="rect3856"
         style="opacity:0.07999998;fill:url(#radialGradient2979);fill-opacity:1;stroke:none" />
      <rect
         width="114"
         height="96"
         rx="5.5"
         ry="5.5"
         x="8.9999971"
         y="28"
         id="rect3106"
         style="opacity:0.2;fill:url(#radialGradient3880);fill-opacity:1;stroke:none" />
      <rect
         width="109"
         height="1"
         x="11"
         y="29"
         id="rect3860"
         style="opacity:0.5;fill:url(#radialGradient2971);fill-opacity:1;stroke:none" />
    </g>
  </g>
</svg>
