<?xml version="1.0" encoding="UTF-8" standalone="no"?>
<!-- Created with Inkscape (http://www.inkscape.org/) -->

<svg
   xmlns:svg="http://www.w3.org/2000/svg"
   xmlns="http://www.w3.org/2000/svg"
   xmlns:xlink="http://www.w3.org/1999/xlink"
   version="1.0"
   width="128"
   height="128"
   id="svg11300"
   style="display:inline;enable-background:new">
  <title
     id="title2897">Candy Icon Theme</title>
  <defs
     id="defs3">
    <linearGradient
       id="linearGradient3682">
      <stop
         id="stop3684"
         style="stop-color:#ffffff;stop-opacity:1"
         offset="0" />
      <stop
         id="stop3686"
         style="stop-color:#ffffff;stop-opacity:0"
         offset="1" />
    </linearGradient>
    <linearGradient
       id="linearGradient3672">
      <stop
         id="stop3674"
         style="stop-color:#000000;stop-opacity:0"
         offset="0" />
      <stop
         id="stop3676"
         style="stop-color:#000000;stop-opacity:1"
         offset="1" />
    </linearGradient>
    <linearGradient
       id="linearGradient3649">
      <stop
         id="stop3651"
         style="stop-color:#643314;stop-opacity:1"
         offset="0" />
      <stop
         id="stop3653"
         style="stop-color:#320a0a;stop-opacity:1"
         offset="1" />
    </linearGradient>
    <linearGradient
       id="linearGradient3633">
      <stop
         id="stop3635"
         style="stop-color:#a14c13;stop-opacity:1"
         offset="0" />
      <stop
         id="stop3637"
         style="stop-color:#6b0c0c;stop-opacity:1"
         offset="1" />
    </linearGradient>
    <linearGradient
       id="linearGradient3621">
      <stop
         id="stop3623"
         style="stop-color:#aaaaaa;stop-opacity:1"
         offset="0" />
      <stop
         id="stop3625"
         style="stop-color:#bebebe;stop-opacity:1"
         offset="1" />
    </linearGradient>
    <linearGradient
       id="linearGradient3605">
      <stop
         id="stop3607"
         style="stop-color:#dcdcdc;stop-opacity:1"
         offset="0" />
      <stop
         id="stop3609"
         style="stop-color:#f0f0f0;stop-opacity:1"
         offset="1" />
    </linearGradient>
    <radialGradient
       cx="158"
       cy="8.8589735"
       r="23"
       fx="158"
       fy="8.8589735"
       id="radialGradient3102"
       xlink:href="#linearGradient3682"
       gradientUnits="userSpaceOnUse"
       gradientTransform="matrix(3.340252,1.0883646e-5,-9.9731093e-6,3.2141422,-460.75996,-1.3987971)" />
    <radialGradient
       cx="158"
       cy="8.8589735"
       r="23"
       fx="158"
       fy="8.8589735"
       id="radialGradient3105"
       xlink:href="#linearGradient3672"
       gradientUnits="userSpaceOnUse"
       gradientTransform="matrix(3.340252,-1.9267413e-7,2.3664709e-7,4.3043477,-460.76004,-11.055149)" />
    <linearGradient
       x1="155"
       y1="16"
       x2="155"
       y2="10"
       id="linearGradient3178"
       xlink:href="#linearGradient3605"
       gradientUnits="userSpaceOnUse"
       gradientTransform="matrix(2.5999999,0,0,2.4000006,-341.80002,-2.7000093)" />
    <linearGradient
       x1="157"
       y1="16"
       x2="157"
       y2="10"
       id="linearGradient3180"
       xlink:href="#linearGradient3621"
       gradientUnits="userSpaceOnUse"
       gradientTransform="matrix(2.5999999,0,0,2.4000006,-341.80002,-2.7000093)" />
    <linearGradient
       x1="153"
       y1="16"
       x2="153"
       y2="43"
       id="linearGradient3188"
       xlink:href="#linearGradient3633"
       gradientUnits="userSpaceOnUse"
       gradientTransform="matrix(2.5022214,0,0,2.9374997,-328.35102,-13.156257)" />
    <linearGradient
       x1="155"
       y1="16"
       x2="155"
       y2="43"
       id="linearGradient3190"
       xlink:href="#linearGradient3649"
       gradientUnits="userSpaceOnUse"
       gradientTransform="matrix(2.5022214,0,0,2.9374997,-328.35102,-13.156257)" />
    <linearGradient
       id="linearGradient6532-3">
      <stop
         id="stop6534-9"
         style="stop-color:#abd24e;stop-opacity:1"
         offset="0" />
      <stop
         id="stop6536-1"
         style="stop-color:#4d7b4f;stop-opacity:1"
         offset="1" />
    </linearGradient>
    <linearGradient
       id="linearGradient6269-6">
      <stop
         id="stop6271-4"
         style="stop-color:#c5e774;stop-opacity:1"
         offset="0" />
      <stop
         id="stop6273-0"
         style="stop-color:#56ad58;stop-opacity:1"
         offset="1" />
    </linearGradient>
    <radialGradient
       cx="77.5"
       cy="46.749996"
       r="5.5"
       fx="77.5"
       fy="46.749996"
       id="radialGradient3712"
       xlink:href="#linearGradient3682"
       gradientUnits="userSpaceOnUse"
       gradientTransform="matrix(2.4545454,-1.6e-5,1.1249999e-6,0.54545459,-76.727315,41.501251)" />
    <linearGradient
       x1="77.907974"
       y1="11.724901"
       x2="77.907974"
       y2="124.27119"
       id="linearGradient3715"
       xlink:href="#linearGradient6269-6"
       gradientUnits="userSpaceOnUse"
       gradientTransform="matrix(0.53120677,0,0,0.53166172,61.427371,43.850084)" />
    <linearGradient
       x1="73.215622"
       y1="11.724901"
       x2="73.215622"
       y2="124.27119"
       id="linearGradient3717"
       xlink:href="#linearGradient6532-3"
       gradientUnits="userSpaceOnUse"
       gradientTransform="matrix(0.53120677,0,0,0.53166172,61.427371,43.850084)" />
    <radialGradient
       cx="100"
       cy="54.167255"
       r="31"
       fx="100"
       fy="54.167255"
       id="radialGradient4503"
       xlink:href="#linearGradient3672"
       gradientUnits="userSpaceOnUse"
       gradientTransform="matrix(1.6129032,4.7165666e-8,-3.7732528e-8,1.2903226,-61.290321,-14.893237)" />
    <filter
       x="-0.070562214"
       y="-0.83263409"
       width="1.1411244"
       height="2.6652682"
       color-interpolation-filters="sRGB"
       id="filter4619">
      <feGaussianBlur
         id="feGaussianBlur4621"
         stdDeviation="3.4693087" />
    </filter>
  </defs>
  <g
     transform="translate(-3,-4)"
     id="layer1"
     style="display:inline">
    <g
       id="layer6"
       style="display:none" />
    <rect
       width="117.99999"
       height="10"
       rx="5.1754384"
       ry="5"
       x="10"
       y="111"
       transform="matrix(0.96610176,0,0,1,0.33898244,0)"
       id="rect4159"
       style="opacity:0.8;fill:#000000;fill-opacity:1;stroke:none;filter:url(#filter4619)" />
    <g
       id="g4631">
      <g
         transform="translate(1,1)"
         id="text3714"
         style="font-size:2px;font-style:normal;font-variant:normal;font-weight:normal;font-stretch:normal;fill:#323232;fill-opacity:1;stroke:none;font-family:Arial;-inkscape-font-specification:Arial" />
      <g
         transform="translate(1,1)"
         id="text3718"
         style="font-size:2px;font-style:normal;font-variant:normal;font-weight:normal;font-stretch:normal;fill:#323232;fill-opacity:1;stroke:none;font-family:Arial;-inkscape-font-specification:Arial" />
      <g
         transform="translate(1,1)"
         id="text3722"
         style="font-size:2px;font-style:normal;font-variant:normal;font-weight:normal;font-stretch:normal;fill:#323232;fill-opacity:1;stroke:none;font-family:Arial;-inkscape-font-specification:Arial" />
      <g
         transform="translate(-1,1)"
         id="text3728"
         style="font-size:2px;font-style:normal;font-variant:normal;font-weight:normal;font-stretch:normal;fill:#323232;fill-opacity:1;stroke:none;font-family:Arial;-inkscape-font-specification:Arial" />
    </g>
    <g
       id="g4688">
      <rect
         width="112.6"
         height="93.999992"
         rx="5"
         ry="4.9999995"
         x="10.7"
         y="26.499998"
         id="rect2999"
         style="fill:url(#linearGradient3188);fill-opacity:1;stroke:url(#linearGradient3190);stroke-width:0.99999988;stroke-linecap:round;stroke-linejoin:miter;stroke-miterlimit:4;stroke-opacity:1;stroke-dasharray:none" />
      <rect
         width="44"
         height="32"
         rx="2"
         ry="1.9999999"
         x="18"
         y="81"
         id="rect4682"
         style="opacity:0.9;fill:#ffffff;fill-opacity:1;stroke:none" />
      <rect
         width="40"
         height="2"
         rx="1"
         ry="1"
         x="20"
         y="83"
         id="rect4686"
         style="opacity:0.4;fill:#000000;fill-opacity:1;stroke:none" />
      <rect
         width="49.999996"
         height="45"
         rx="2"
         ry="1.9999999"
         x="66"
         y="41"
         id="rect4680"
         style="opacity:0.9;fill:#ffffff;fill-opacity:1;stroke:none" />
      <rect
         width="46"
         height="2"
         rx="1"
         ry="1"
         x="68"
         y="43"
         id="rect4684"
         style="opacity:0.4;fill:#000000;fill-opacity:1;stroke:none" />
      <path
         d="m 10.500002,34 0,-6.5 c 0,-2.77 2.23,-5 5,-5 L 118.5,22.5 c 2.77,0 5,2.23 5,5 l 0,6.5"
         id="path3021"
         style="fill:url(#linearGradient3178);fill-opacity:1;stroke:url(#linearGradient3180);stroke-width:1;stroke-linecap:butt;stroke-linejoin:miter;stroke-miterlimit:4;stroke-opacity:1;stroke-dasharray:none" />
      <path
         d="M 15.15625,27.09375 14.03125,30 l 0.40625,0 0.28125,-0.75 1.3125,0 0.25,0.75 0.40625,0 -1.09375,-2.90625 -0.4375,0 z m 0.21875,0.375 0.53125,1.46875 -1.0625,0 0.53125,-1.46875 z M 18.15625,27.75 c -0.160157,0 -0.290366,0.02995 -0.40625,0.09375 -0.114585,0.0625 -0.20573,0.182294 -0.28125,0.3125 l 0,-0.34375 -0.375,0 0,3.03125 0.375,0 0,-1.15625 c 0.07552,0.130209 0.166665,0.21745 0.28125,0.28125 0.115884,0.0625 0.246093,0.09375 0.40625,0.09375 0.265623,0 0.490884,-0.101562 0.65625,-0.3125 0.16666,-0.210937 0.249998,-0.499999 0.25,-0.84375 -2e-6,-0.343748 -0.08334,-0.632811 -0.25,-0.84375 -0.165366,-0.210935 -0.390627,-0.312498 -0.65625,-0.3125 z m 2.53125,0 c -0.160158,0 -0.290366,0.02995 -0.40625,0.09375 -0.114584,0.0625 -0.20573,0.182294 -0.28125,0.3125 l 0,-0.34375 -0.375,0 0,3.03125 0.375,0 0,-1.15625 c 0.07552,0.130209 0.166666,0.21745 0.28125,0.28125 0.115884,0.0625 0.246092,0.09375 0.40625,0.09375 0.265623,0 0.490884,-0.101562 0.65625,-0.3125 0.16666,-0.210937 0.249998,-0.499999 0.25,-0.84375 -2e-6,-0.343748 -0.08334,-0.632811 -0.25,-0.84375 C 21.178384,27.851565 20.953123,27.750002 20.6875,27.75 z m 2.1875,0 c -0.26823,2e-6 -0.479167,0.07552 -0.625,0.1875 -0.14583,0.111982 -0.21875,0.263023 -0.21875,0.46875 0,0.169272 0.05729,0.3086 0.15625,0.40625 0.09896,0.09636 0.277343,0.17188 0.5,0.21875 l 0.125,0.03125 c 0.222655,0.04818 0.34114,0.07292 0.40625,0.125 0.06641,0.05208 0.124999,0.15235 0.125,0.25 -1e-6,0.105469 -0.06511,0.16016 -0.15625,0.21875 -0.09115,0.05729 -0.20573,0.09375 -0.375,0.09375 -0.126302,0 -0.277344,0.0026 -0.40625,-0.03125 -0.128907,-0.03516 -0.242188,-0.08724 -0.375,-0.15625 l 0,0.34375 c 0.140625,0.04557 0.279948,0.10286 0.40625,0.125 0.127604,0.02344 0.226562,0.03125 0.34375,0.03125 0.281249,0 0.527343,-0.06901 0.6875,-0.1875 0.161458,-0.118489 0.218748,-0.265624 0.21875,-0.46875 -2e-6,-0.178384 -0.04818,-0.33854 -0.15625,-0.4375 C 23.424478,28.86849 23.255207,28.80469 23,28.75 l -0.125,-0.03125 c -0.192709,-0.04297 -0.3112,-0.07812 -0.375,-0.125 -0.0638,-0.04818 -0.09375,-0.13541 -0.09375,-0.21875 0,-0.109373 0.03646,-0.16406 0.125,-0.21875 0.08984,-0.05468 0.227864,-0.09375 0.40625,-0.09375 0.117187,0 0.234374,0.0052 0.34375,0.03125 0.109374,0.02605 0.210936,0.07292 0.3125,0.125 l 0,-0.34375 C 23.49479,27.83594 23.367186,27.80078 23.25,27.78125 23.132811,27.76175 23.007811,27.750002 22.875,27.75 z m -4.8125,0.3125 c 0.190103,2e-6 0.360676,0.06771 0.46875,0.21875 0.109373,0.149742 0.156248,0.360679 0.15625,0.625 -2e-6,0.264324 -0.04688,0.473959 -0.15625,0.625 -0.108074,0.149739 -0.278647,0.218751 -0.46875,0.21875 -0.190105,1e-6 -0.328126,-0.06901 -0.4375,-0.21875 -0.10807,-0.151041 -0.15625,-0.360676 -0.15625,-0.625 0,-0.264321 0.04818,-0.475258 0.15625,-0.625 0.109374,-0.151042 0.247395,-0.218748 0.4375,-0.21875 z m 2.5625,0 c 0.190103,2e-6 0.329425,0.06771 0.4375,0.21875 0.109372,0.149742 0.156248,0.360679 0.15625,0.625 -2e-6,0.264324 -0.04688,0.473959 -0.15625,0.625 -0.108075,0.149739 -0.247397,0.218751 -0.4375,0.21875 -0.190105,1e-6 -0.359376,-0.06901 -0.46875,-0.21875 -0.108069,-0.151041 -0.156251,-0.360676 -0.15625,-0.625 -1e-6,-0.264321 0.04818,-0.475258 0.15625,-0.625 0.109374,-0.151042 0.278645,-0.218748 0.46875,-0.21875 z"
         id="path3126"
         style="font-size:4px;font-style:normal;font-variant:normal;font-weight:normal;font-stretch:normal;opacity:0.7;fill:#000000;fill-opacity:1;stroke:none;font-family:DejaVu Sans;-inkscape-font-specification:DejaVu Sans" />
      <path
         d="m 28.40625,26.96875 0,3.03125 0.34375,0 0,-3.03125 -0.34375,0 z M 26,27.09375 26,30 l 0.40625,0 0,-1.15625 0.5,0 c 0.326821,1e-6 0.552082,-0.102863 0.71875,-0.25 0.167964,-0.147134 0.249997,-0.337238 0.25,-0.625 -3e-6,-0.285154 -0.08203,-0.509112 -0.25,-0.65625 -0.166668,-0.148437 -0.391929,-0.218747 -0.71875,-0.21875 l -0.90625,0 z m 0.40625,0.3125 0.5,0 c 0.183592,3e-6 0.305988,0.0612 0.40625,0.15625 0.100261,0.09505 0.156248,0.231773 0.15625,0.40625 -2e-6,0.175783 -0.05599,0.3112 -0.15625,0.40625 -0.100262,0.09506 -0.222658,0.125002 -0.40625,0.125 l -0.5,0 0,-1.09375 z m 3.875,0.34375 c -0.117189,0 -0.251303,0.03646 -0.375,0.0625 -0.123699,0.02474 -0.24349,0.04297 -0.375,0.09375 l 0,0.34375 c 0.109375,-0.0599 0.22526,-0.1263 0.34375,-0.15625 0.118489,-0.02994 0.249999,-0.03125 0.375,-0.03125 0.196614,2e-6 0.329425,0.03386 0.4375,0.125 0.109372,0.08985 0.187498,0.240887 0.1875,0.40625 l 0,0.03125 -0.53125,0 c -0.326824,1e-6 -0.553386,0.0625 -0.71875,0.1875 -0.164064,0.125001 -0.25,0.316407 -0.25,0.5625 0,0.210938 0.05599,0.373698 0.1875,0.5 0.132812,0.125 0.307291,0.1875 0.53125,0.1875 0.177082,0 0.346353,-0.03125 0.46875,-0.09375 0.122395,-0.0638 0.23047,-0.179688 0.3125,-0.3125 l 0,0.34375 0.34375,0 0,-1.25 C 31.218748,28.416668 31.15625,28.164065 31,28 30.843748,27.835937 30.597655,27.750002 30.28125,27.75 z m 2.625,0 c -0.341147,2e-6 -0.615886,0.108075 -0.8125,0.3125 -0.195308,0.204429 -0.281251,0.486981 -0.28125,0.84375 -1e-6,0.351563 0.08724,0.636719 0.28125,0.84375 0.19401,0.207031 0.451822,0.3125 0.78125,0.3125 0.121093,0 0.236978,-0.0078 0.34375,-0.03125 0.108072,-0.02344 0.212238,-0.07813 0.3125,-0.125 l 0,-0.3125 c -0.101564,0.05599 -0.209637,0.09635 -0.3125,0.125 C 33.117186,29.7461 33.041665,29.75 32.9375,29.75 c -0.233074,0 -0.433594,-0.07161 -0.5625,-0.21875 -0.128909,-0.148437 -0.187501,-0.358072 -0.1875,-0.625 -10e-7,-0.266926 0.05859,-0.477863 0.1875,-0.625 0.128906,-0.148436 0.329426,-0.218748 0.5625,-0.21875 0.104165,0 0.179686,0.0026 0.28125,0.03125 0.102863,0.02735 0.210936,0.06901 0.3125,0.125 l 0,-0.3125 c -0.09896,-0.04557 -0.207033,-0.10286 -0.3125,-0.125 C 33.113279,27.75781 33.016926,27.75 32.90625,27.75 z m 2.1875,0 c -0.328126,2e-6 -0.58724,0.101565 -0.78125,0.3125 -0.192712,0.209637 -0.312501,0.516929 -0.3125,0.875 -10e-7,0.346355 0.109375,0.609376 0.3125,0.8125 0.204426,0.203125 0.494791,0.3125 0.84375,0.3125 0.139322,0 0.270831,-0.03385 0.40625,-0.0625 0.135414,-0.02865 0.246092,-0.07031 0.375,-0.125 l 0,-0.3125 c -0.127606,0.06771 -0.244793,0.09115 -0.375,0.125 -0.128908,0.03385 -0.268231,0.0625 -0.40625,0.0625 -0.238283,0 -0.428386,-0.05859 -0.5625,-0.1875 C 34.460934,29.432292 34.39062,29.247397 34.375,29 l 1.65625,0 0,-0.1875 c -2e-6,-0.325519 -0.07813,-0.592446 -0.25,-0.78125 -0.170575,-0.190106 -0.393231,-0.281248 -0.6875,-0.28125 z m 2.21875,0 c -0.26823,2e-6 -0.479167,0.07552 -0.625,0.1875 -0.14583,0.111982 -0.21875,0.263023 -0.21875,0.46875 0,0.169272 0.05729,0.3086 0.15625,0.40625 0.09896,0.09636 0.277343,0.17188 0.5,0.21875 l 0.125,0.03125 c 0.222655,0.04818 0.34114,0.07292 0.40625,0.125 0.06641,0.05208 0.124999,0.15235 0.125,0.25 -10e-7,0.105469 -0.06511,0.16016 -0.15625,0.21875 -0.09115,0.05729 -0.20573,0.09375 -0.375,0.09375 -0.126302,0 -0.277344,0.0026 -0.40625,-0.03125 -0.128907,-0.03516 -0.242188,-0.08724 -0.375,-0.15625 l 0,0.34375 c 0.140625,0.04557 0.279948,0.10286 0.40625,0.125 0.127604,0.02344 0.226562,0.03125 0.34375,0.03125 0.281249,0 0.527343,-0.06901 0.6875,-0.1875 0.161458,-0.118489 0.218748,-0.265624 0.21875,-0.46875 -2e-6,-0.178384 -0.04818,-0.33854 -0.15625,-0.4375 C 37.861978,28.86849 37.692707,28.80469 37.4375,28.75 l -0.125,-0.03125 c -0.192709,-0.04297 -0.3112,-0.07812 -0.375,-0.125 -0.0638,-0.04818 -0.09375,-0.13541 -0.09375,-0.21875 0,-0.109373 0.03646,-0.16406 0.125,-0.21875 0.08984,-0.05468 0.227864,-0.09375 0.40625,-0.09375 0.117187,0 0.234374,0.0052 0.34375,0.03125 0.109374,0.02605 0.210936,0.07292 0.3125,0.125 l 0,-0.34375 C 37.93229,27.83594 37.804686,27.80078 37.6875,27.78125 37.570311,27.76175 37.445311,27.750002 37.3125,27.75 z m -2.21875,0.3125 c 0.177082,2e-6 0.299477,0.07032 0.40625,0.1875 0.108075,0.11719 0.1849,0.272137 0.1875,0.46875 l -1.28125,0 c 0.01823,-0.205728 0.06771,-0.355467 0.1875,-0.46875 0.121092,-0.113282 0.299479,-0.187498 0.5,-0.1875 z M 30.5,28.90625 l 0.375,0 0,0.0625 c -2e-6,0.234376 -0.06641,0.420573 -0.1875,0.5625 -0.119793,0.140627 -0.300783,0.218751 -0.5,0.21875 -0.144532,1e-6 -0.25912,-0.01953 -0.34375,-0.09375 -0.08333,-0.07552 -0.125001,-0.184896 -0.125,-0.3125 -1e-6,-0.160156 0.07552,-0.27734 0.1875,-0.34375 0.111978,-0.06641 0.303385,-0.09375 0.59375,-0.09375 z"
         id="path3134"
         style="font-size:4px;font-style:normal;font-variant:normal;font-weight:normal;font-stretch:normal;opacity:0.7;fill:#000000;fill-opacity:1;stroke:none;font-family:DejaVu Sans;-inkscape-font-specification:DejaVu Sans" />
      <path
         d="m 41.03125,27.03125 c -0.319011,3e-6 -0.567709,0.07032 -0.75,0.21875 C 40.100256,27.39844 40,27.61719 40,27.875 c 0,0.222658 0.05599,0.375001 0.1875,0.5 0.13151,0.125001 0.361979,0.22266 0.65625,0.28125 l 0.21875,0.0625 c 0.200519,0.04037 0.35026,0.07552 0.4375,0.15625 0.08854,0.08073 0.124998,0.200522 0.125,0.34375 -2e-6,0.164063 -0.03386,0.28646 -0.15625,0.375 C 41.346353,29.68229 41.162759,29.75 40.9375,29.75 40.789061,29.75 40.622395,29.70182 40.46875,29.65625 40.315103,29.61068 40.160155,29.55859 40,29.46875 l 0,0.40625 c 0.166666,0.0612 0.345052,0.09375 0.5,0.125 0.15625,0.03124 0.299478,0.0625 0.4375,0.0625 0.365884,0 0.623696,-0.07292 0.8125,-0.21875 0.190106,-0.145833 0.312498,-0.373697 0.3125,-0.65625 -2e-6,-0.236978 -0.07813,-0.421874 -0.21875,-0.5625 -0.139325,-0.141925 -0.361981,-0.22526 -0.65625,-0.28125 l -0.25,-0.0625 C 40.721353,28.24089 40.57812,28.19011 40.5,28.125 c -0.07682,-0.0664 -0.09375,-0.152341 -0.09375,-0.28125 0,-0.153643 0.04036,-0.29166 0.15625,-0.375 0.117187,-0.08333 0.285155,-0.124997 0.5,-0.125 0.123697,0 0.242186,0.02735 0.375,0.0625 0.132811,0.03516 0.287758,0.08464 0.4375,0.15625 l 0,-0.375 c -0.148439,-0.04948 -0.295575,-0.10026 -0.4375,-0.125 -0.141929,-0.02474 -0.269532,-0.03125 -0.40625,-0.03125 z m 4.6875,0.71875 c -0.26823,2e-6 -0.479167,0.07552 -0.625,0.1875 -0.14583,0.111982 -0.21875,0.263023 -0.21875,0.46875 0,0.169272 0.05729,0.3086 0.15625,0.40625 0.09896,0.09636 0.246093,0.17188 0.46875,0.21875 l 0.125,0.03125 c 0.222655,0.04818 0.37239,0.07292 0.4375,0.125 0.06641,0.05208 0.09375,0.15235 0.09375,0.25 -10e-7,0.105469 -0.03386,0.16016 -0.125,0.21875 C 45.9401,29.71354 45.79427,29.75 45.625,29.75 c -0.126302,0 -0.246094,0.0026 -0.375,-0.03125 -0.128907,-0.03516 -0.273438,-0.08724 -0.40625,-0.15625 l 0,0.34375 c 0.140625,0.04557 0.279948,0.10286 0.40625,0.125 0.127604,0.02344 0.257812,0.03125 0.375,0.03125 0.281249,0 0.496093,-0.06901 0.65625,-0.1875 0.161458,-0.118489 0.249998,-0.265624 0.25,-0.46875 -2e-6,-0.178384 -0.04818,-0.33854 -0.15625,-0.4375 C 46.268228,28.86849 46.067707,28.80469 45.8125,28.75 l -0.125,-0.03125 c -0.192709,-0.04297 -0.3112,-0.07812 -0.375,-0.125 -0.0638,-0.04818 -0.09375,-0.13541 -0.09375,-0.21875 0,-0.109373 0.03646,-0.16406 0.125,-0.21875 0.08984,-0.05468 0.227864,-0.09375 0.40625,-0.09375 0.117187,0 0.234374,0.0052 0.34375,0.03125 0.109374,0.02605 0.210936,0.07292 0.3125,0.125 l 0,-0.34375 C 46.30729,27.83594 46.210936,27.80078 46.09375,27.78125 45.976561,27.76175 45.851561,27.75 45.71875,27.75 z m -3.3125,0.0625 0.875,2.15625 -0.0625,0.15625 c -0.06641,0.174479 -0.13281,0.29688 -0.1875,0.34375 -0.05469,0.04687 -0.11979,0.0625 -0.21875,0.0625 l -0.21875,0 0,0.3125 0.28125,0 c 0.161458,-1e-6 0.27864,-0.04557 0.375,-0.125 0.09635,-0.07943 0.210936,-0.270834 0.3125,-0.53125 l 0.96875,-2.375 -0.40625,0 -0.65625,1.71875 -0.6875,-1.71875 -0.375,0 z"
         id="path3146"
         style="font-size:4px;font-style:normal;font-variant:normal;font-weight:normal;font-stretch:normal;opacity:0.7;fill:#000000;fill-opacity:1;stroke:none;font-family:DejaVu Sans;-inkscape-font-specification:DejaVu Sans" />
      <path
         d="m 95.78125,27.03125 c -0.114584,0 -0.23698,0.02995 -0.375,0.0625 -0.138021,0.03255 -0.278647,0.0612 -0.4375,0.125 l 0,0.40625 c 0.156249,-0.08724 0.300781,-0.14453 0.4375,-0.1875 0.13802,-0.04296 0.251301,-0.0625 0.375,-0.0625 0.174478,3e-6 0.329426,0.02735 0.4375,0.125 0.109373,0.09766 0.156248,0.220054 0.15625,0.375 0,0.09505 -0.01172,0.21354 -0.0625,0.3125 -0.04948,0.09766 -0.15495,0.201825 -0.28125,0.34375 -0.06641,0.07552 -0.209637,0.238282 -0.46875,0.5 -0.257814,0.260417 -0.47526,0.470052 -0.625,0.625 l 0,0.34375 1.875,0 0,-0.34375 -1.40625,0 c 0.317707,-0.324218 0.57552,-0.570311 0.75,-0.75 0.174478,-0.180988 0.27995,-0.27474 0.3125,-0.3125 0.118488,-0.145831 0.20573,-0.268227 0.25,-0.375 0.04557,-0.108071 0.0625,-0.223956 0.0625,-0.34375 -2e-6,-0.252602 -0.101565,-0.473955 -0.28125,-0.625 -0.179689,-0.151042 -0.416668,-0.218747 -0.71875,-0.21875 z m 2.65625,0 c -0.294272,3e-6 -0.541667,0.100264 -0.71875,0.28125 -0.177085,0.180992 -0.28125,0.419274 -0.28125,0.71875 0,0.305992 0.111979,0.541668 0.28125,0.71875 0.170572,0.175782 0.395833,0.250001 0.6875,0.25 0.140624,10e-6 0.259113,-0.0026 0.375,-0.0625 0.115884,-0.0599 0.20573,-0.169269 0.28125,-0.28125 -0.01953,0.356772 -0.08073,0.636719 -0.21875,0.8125 -0.13672,0.174478 -0.333334,0.250001 -0.59375,0.25 -0.09766,0 -0.210938,-0.0065 -0.3125,-0.03125 -0.101563,-0.02474 -0.21354,-0.04688 -0.3125,-0.09375 l 0,0.34375 c 0.109374,0.03906 0.242187,0.07422 0.34375,0.09375 0.101562,0.0195 0.18229,0.03125 0.28125,0.03125 0.368489,0 0.657546,-0.132812 0.875,-0.40625 0.21874,-0.274739 0.34375,-0.665364 0.34375,-1.125 0,-0.492186 -0.10286,-0.867185 -0.28125,-1.125 -0.17708,-0.259112 -0.412762,-0.374997 -0.75,-0.375 z m 11.5,0 c -0.11589,0 -0.24349,0.01042 -0.375,0.03125 -0.13021,0.02084 -0.28776,0.05209 -0.4375,0.09375 l 0,0.34375 c 0.14844,-0.04948 0.28255,-0.07031 0.40625,-0.09375 0.1237,-0.02344 0.23567,-0.03125 0.34375,-0.03125 0.19791,3e-6 0.36328,0.04427 0.46875,0.125 0.10675,0.07943 0.15625,0.194013 0.15625,0.34375 0,0.145835 -0.0534,0.23438 -0.15625,0.3125 -0.10287,0.07682 -0.24349,0.125002 -0.4375,0.125 l -0.34375,0 0,0.3125 0.3125,0 c 0.21484,1e-6 0.38021,0.0586 0.5,0.15625 0.12104,0.09635 0.1875,0.234376 0.1875,0.40625 0,0.186198 -0.0573,0.33984 -0.1875,0.4375 -0.12891,0.09765 -0.31511,0.125001 -0.5625,0.125 -0.14193,0 -0.27604,0.0013 -0.40625,-0.03125 -0.13021,-0.03255 -0.26563,-0.09245 -0.375,-0.15625 l 0,0.375 c 0.13802,0.04817 0.27734,0.10156 0.40625,0.125 0.13021,0.02474 0.2526,0.03125 0.375,0.03125 0.36458,0 0.64583,-0.09245 0.84375,-0.25 0.19787,-0.157551 0.3125,-0.368489 0.3125,-0.65625 0,-0.187499 -0.0495,-0.341144 -0.15625,-0.46875 -0.10547,-0.127602 -0.2487,-0.20963 -0.4375,-0.25 0.17057,-0.04297 0.2826,-0.139322 0.375,-0.25 0.0925,-0.111978 0.15625,-0.244789 0.15625,-0.40625 0,-0.231768 -0.10677,-0.395831 -0.28125,-0.53125 -0.17448,-0.136718 -0.38803,-0.218747 -0.6875,-0.21875 z m 2.625,0 c -0.32682,3e-6 -0.57682,0.115888 -0.75,0.375 -0.17191,0.257815 -0.25,0.632814 -0.25,1.125 0,0.490886 0.0781,0.865886 0.25,1.125 0.17318,0.257812 0.42318,0.40625 0.75,0.40625 0.32682,0 0.57812,-0.148438 0.75,-0.40625 0.17316,-0.259114 0.25,-0.634114 0.25,-1.125 0,-0.492186 -0.0768,-0.867185 -0.25,-1.125 -0.17188,-0.259112 -0.42318,-0.374997 -0.75,-0.375 z M 79,27.09375 l 0,0.3125 1.03125,0 0,2.59375 0.40625,0 0,-2.59375 1.03125,0 0,-0.3125 -2.46875,0 z m 8.5,0 0,2.71875 c -10e-7,0.252604 -0.02214,0.40234 -0.09375,0.5 -0.07161,0.09765 -0.200521,0.15625 -0.375,0.15625 l -0.125,0 0,0.34375 0.15625,0 c 0.295573,-1e-6 0.523437,-0.09115 0.65625,-0.25 0.134112,-0.158855 0.187499,-0.398438 0.1875,-0.75 l 0,-2.71875 -0.40625,0 z m 15.9375,0 -0.71875,0.125 0,0.375 0.71875,-0.15625 0,2.21875 -0.65625,0 0,0.34375 1.6875,0 0,-0.34375 -0.65625,0 0,-2.5625 -0.375,0 z m 1.84375,0 0,1.46875 c 0.10938,-0.04948 0.20833,-0.10156 0.3125,-0.125 0.10546,-0.02344 0.20703,-0.03125 0.3125,-0.03125 0.22526,1e-6 0.39974,0.06901 0.53125,0.1875 0.13147,0.118491 0.21874,0.265626 0.21875,0.46875 -1e-5,0.203126 -0.0872,0.350261 -0.21875,0.46875 -0.13151,0.118494 -0.30599,0.187501 -0.53125,0.1875 -0.13932,10e-6 -0.28125,0 -0.40625,-0.03125 -0.125,-0.03125 -0.22657,-0.09245 -0.34375,-0.15625 l 0,0.40625 c 0.13541,0.04167 0.24869,0.07292 0.375,0.09375 0.1276,0.02083 0.2526,0.03125 0.375,0.03125 0.35546,0 0.64843,-0.108073 0.84375,-0.28125 0.19527,-0.174479 0.28124,-0.404947 0.28125,-0.71875 -1e-5,-0.304686 -0.0911,-0.540363 -0.28125,-0.71875 -0.19011,-0.178388 -0.45573,-0.281248 -0.78125,-0.28125 -0.0573,10e-6 -0.099,0.02084 -0.15625,0.03125 -0.0573,0.0091 -0.1302,0.01172 -0.1875,0.03125 l 0,-0.71875 1.1875,0 0,-0.3125 -1.53125,0 z m -6.84375,0.25 c 0.177082,3e-6 0.303384,0.06511 0.40625,0.1875 0.10416,0.121096 0.156248,0.290367 0.15625,0.5 -2e-6,0.21094 -0.05209,0.378908 -0.15625,0.5 -0.102866,0.121091 -0.229168,0.156251 -0.40625,0.15625 -0.177084,1e-6 -0.333334,-0.03515 -0.4375,-0.15625 -0.102867,-0.121092 -0.15625,-0.28906 -0.15625,-0.5 0,-0.209633 0.05339,-0.378904 0.15625,-0.5 0.104166,-0.122394 0.260416,-0.187497 0.4375,-0.1875 z m 14.125,0 c 0.20443,3e-6 0.36718,0.111982 0.46875,0.3125 0.10289,0.199221 0.125,0.47396 0.125,0.875 0,0.399741 -0.0221,0.70573 -0.125,0.90625 -0.10157,0.199219 -0.26432,0.3125 -0.46875,0.3125 -0.20313,0 -0.36589,-0.11328 -0.46875,-0.3125 -0.10155,-0.20052 -0.15625,-0.506509 -0.15625,-0.90625 0,-0.40104 0.0547,-0.675779 0.15625,-0.875 0.10286,-0.200518 0.26562,-0.312497 0.46875,-0.3125 z M 84.6875,27.75 c -0.328125,2e-6 -0.58724,0.101565 -0.78125,0.3125 -0.192712,0.209637 -0.3125,0.516929 -0.3125,0.875 0,0.346355 0.109375,0.609376 0.3125,0.8125 0.204427,0.203125 0.494791,0.3125 0.84375,0.3125 0.139322,0 0.270832,-0.03385 0.40625,-0.0625 0.135415,-0.02865 0.277342,-0.07031 0.40625,-0.125 l 0,-0.3125 c -0.127606,0.06771 -0.276043,0.09115 -0.40625,0.125 -0.128907,0.03385 -0.268231,0.0625 -0.40625,0.0625 -0.238283,0 -0.397136,-0.05859 -0.53125,-0.1875 -0.132816,-0.130208 -0.23438,-0.315103 -0.25,-0.5625 l 1.65625,0 0,-0.1875 c -3e-6,-0.325519 -0.07813,-0.592446 -0.25,-0.78125 C 85.204425,27.841144 84.98177,27.750002 84.6875,27.75 z m 7.59375,0 c -0.152345,10e-6 -0.289063,0.02865 -0.40625,0.09375 -0.115886,0.06511 -0.22656,0.180991 -0.3125,0.3125 l 0,-0.34375 -0.375,0 0,2.1875 0.375,0 0,-1.25 c -10e-7,-0.21354 0.04427,-0.3763 0.15625,-0.5 0.111978,-0.123696 0.274739,-0.187498 0.46875,-0.1875 0.161457,2e-6 0.29427,0.05339 0.375,0.15625 0.08072,0.102867 0.124998,0.261721 0.125,0.46875 l 0,1.3125 0.34375,0 0,-1.3125 c -2e-6,-0.302081 -0.0586,-0.532551 -0.1875,-0.6875 -0.128908,-0.156245 -0.311199,-0.249998 -0.5625,-0.25 z m -11.09375,0.0625 0,1.3125 c 0,0.300782 0.05729,0.531254 0.1875,0.6875 0.130208,0.156245 0.342447,0.25 0.59375,0.25 0.152343,0 0.260415,-0.02995 0.375,-0.09375 0.115884,-0.0651 0.22526,-0.179687 0.3125,-0.3125 l 0,0.34375 0.375,0 0,-2.1875 -0.375,0 0,1.25 c -2e-6,0.213543 -0.04297,0.376302 -0.15625,0.5 -0.11198,0.123697 -0.274741,0.1875 -0.46875,0.1875 -0.161459,0 -0.29427,-0.05338 -0.375,-0.15625 C 81.57552,29.489584 81.5625,29.332032 81.5625,29.125 l 0,-1.3125 -0.375,0 z m 7.4375,0 0,1.3125 c 0,0.300782 0.08854,0.53125 0.21875,0.6875 0.130208,0.156245 0.311197,0.25 0.5625,0.25 0.152343,0 0.291665,-0.02995 0.40625,-0.09375 0.115884,-0.0651 0.22526,-0.179687 0.3125,-0.3125 l 0,0.34375 0.34375,0 0,-2.1875 -0.34375,0 0,1.25 c -2e-6,0.213543 -0.07422,0.376302 -0.1875,0.5 C 89.82552,29.686197 89.694009,29.75 89.5,29.75 89.338541,29.75 89.20573,29.69662 89.125,29.59375 89.044266,29.489584 88.999999,29.332032 89,29.125 l 0,-1.3125 -0.375,0 z m 19.21875,0.125 0,0.5 0.4375,0 0,-0.5 -0.4375,0 z m -23.15625,0.125 c 0.177082,2e-6 0.330728,0.07032 0.4375,0.1875 0.108066,0.11719 0.15365,0.272137 0.15625,0.46875 l -1.28125,0 c 0.01823,-0.205728 0.06771,-0.355467 0.1875,-0.46875 0.121093,-0.113282 0.299478,-0.187498 0.5,-0.1875 z m 15.53125,1.4375 0,0.34375 -0.15625,0.625 0.25,0 0.3125,-0.625 0,-0.34375 -0.40625,0 z m 7.625,0 0,0.5 0.4375,0 0,-0.5 -0.4375,0 z"
         id="path3958"
         style="font-size:4px;font-style:normal;font-variant:normal;font-weight:normal;font-stretch:normal;opacity:0.7;fill:#000000;fill-opacity:1;stroke:none;font-family:DejaVu Sans;-inkscape-font-specification:DejaVu Sans" />
      <path
         d="M 120.78033,28.718486 A 1.5,1.5 0 1 1 119.662,28.008774"
         transform="matrix(1.2865591,-0.87680231,0.83354227,1.3535221,-60.833311,93.229365)"
         id="path3181"
         style="opacity:0.7;fill:none;stroke:#000000;stroke-width:0.25439867;stroke-linecap:round;stroke-linejoin:round;stroke-miterlimit:4;stroke-opacity:1;stroke-dasharray:none" />
      <path
         d="m 117.5,26 0,2 0,0"
         id="path3955"
         style="opacity:0.7;fill:none;stroke:#000000;stroke-width:0.40000001;stroke-linecap:round;stroke-linejoin:miter;stroke-miterlimit:4;stroke-opacity:1;stroke-dasharray:none" />
      <path
         d="M 15.313559,22 118.68644,22 C 121.63015,22 124,24.42847 124,27.445 l 0,88.11 c 0,3.01653 -2.36985,5.445 -5.31356,5.445 L 15.313559,121 C 12.369847,121 10,118.57153 10,115.555 l 0,-88.11 C 10,24.42847 12.369847,22 15.313559,22 z"
         id="path3077"
         style="font-size:medium;font-style:normal;font-variant:normal;font-weight:normal;font-stretch:normal;text-indent:0;text-align:start;text-decoration:none;line-height:normal;letter-spacing:normal;word-spacing:normal;text-transform:none;direction:ltr;block-progression:tb;writing-mode:lr-tb;text-anchor:start;opacity:0.07999998;color:#000000;fill:url(#radialGradient3105);fill-opacity:1;fill-rule:nonzero;stroke:none;stroke-width:1;marker:none;visibility:visible;display:inline;overflow:visible;enable-background:accumulate;font-family:Andale Mono;-inkscape-font-specification:Andale Mono" />
      <path
         d="M 15.313559,22 118.68644,22 C 121.63015,22 124,24.42847 124,27.445 l 0,88.11 c 0,3.01653 -2.36985,5.445 -5.31356,5.445 L 15.313559,121 C 12.369847,121 10,118.57153 10,115.555 l 0,-88.11 C 10,24.42847 12.369847,22 15.313559,22 z"
         id="path3820"
         style="font-size:medium;font-style:normal;font-variant:normal;font-weight:normal;font-stretch:normal;text-indent:0;text-align:start;text-decoration:none;line-height:normal;letter-spacing:normal;word-spacing:normal;text-transform:none;direction:ltr;block-progression:tb;writing-mode:lr-tb;text-anchor:start;opacity:0.2;color:#000000;fill:url(#radialGradient3102);fill-opacity:1;fill-rule:nonzero;stroke:none;stroke-width:1;marker:none;visibility:visible;display:inline;overflow:visible;enable-background:accumulate;font-family:Andale Mono;-inkscape-font-specification:Andale Mono" />
    </g>
    <g
       id="g3807" />
    <g
       id="g3937" />
    <g
       id="g3969" />
    <g
       id="g4017" />
    <g
       id="g3932">
      <g
         transform="matrix(0,0.69248899,-0.84621343,0,240.00678,0.125473)"
         id="g3120" />
    </g>
    <g
       transform="translate(-3,5)"
       id="g4505">
      <path
         d="M 128.5,69.614825 C 128.5,67.31278 126.8015,65.5 124.5,65.5 l -24,0 0,-14.480215 c 0,-0.297209 -1.001006,-0.530393 -1.340792,-0.519416 -0.113264,0.0038 -0.212754,0.03682 -0.285612,0.103884 L 67.793891,79.198024 c -0.391855,0.358955 -0.391855,1.25123 0,1.610185 l 31.079705,28.593761 c 0.280745,0.25841 1.626404,-0.0338 1.626404,-0.41552 l 0,-14.48645 24,0 c 2.3015,0 4,-1.806548 4,-4.108593 l 0,-20.776582 z"
         id="rect3760"
         style="fill:url(#linearGradient3715);fill-opacity:1;stroke:url(#linearGradient3717);stroke-width:0.99999994;stroke-opacity:1" />
      <path
         d="m 99.15625,50 c -0.20047,0.0067 -0.445435,0.08472 -0.625,0.25 L 67.46875,78.84375 C 67.120661,79.162613 67,79.582801 67,80 c 0,0.417199 0.120661,0.868637 0.46875,1.1875 l 31.0625,28.59375 c 0.251175,0.23119 0.497339,0.21477 0.71875,0.21875 0.221411,0.004 0.433998,-0.0408 0.65625,-0.0937 0.22225,-0.0529 0.42888,-0.10302 0.625,-0.21875 C 100.72737,109.57177 101,109.3892 101,109 l 0,-14 23.5,0 c 2.56315,0 4.5,-2.045764 4.5,-4.59375 L 129,69.625 C 129,67.077014 127.06405,65 124.5,65 L 101,65 101,51.03125 C 101,50.676279 100.75363,50.477368 100.59375,50.375 100.43387,50.272632 100.297,50.211525 100.125,50.15625 99.781008,50.045699 99.456179,49.990311 99.15625,50 z"
         id="path3719"
         style="font-size:medium;font-style:normal;font-variant:normal;font-weight:normal;font-stretch:normal;text-indent:0;text-align:start;text-decoration:none;line-height:normal;letter-spacing:normal;word-spacing:normal;text-transform:none;direction:ltr;block-progression:tb;writing-mode:lr-tb;text-anchor:start;opacity:0.07999998;color:#000000;fill:url(#radialGradient4503);fill-opacity:1;stroke:none;stroke-width:0.99999994;marker:none;visibility:visible;display:inline;overflow:visible;enable-background:accumulate;font-family:Andale Mono;-inkscape-font-specification:Andale Mono" />
      <rect
         width="27"
         height="1"
         x="100"
         y="66"
         id="rect4792"
         style="opacity:0.5;fill:url(#radialGradient3712);fill-opacity:1;stroke:none" />
    </g>
    <g
       transform="translate(-1,3)"
       id="g4598" />
    <g
       id="g3863" />
    <g
       transform="translate(25,0)"
       id="g3947">
      <g
         transform="matrix(0,0.69248899,-0.84621343,0,240.00678,0.125473)"
         id="g3949" />
    </g>
    <g
       id="g4003" />
  </g>
</svg>
