<?xml version="1.0" encoding="UTF-8" standalone="no"?>
<!-- Created with Inkscape (http://www.inkscape.org/) -->

<svg
   xmlns:svg="http://www.w3.org/2000/svg"
   xmlns="http://www.w3.org/2000/svg"
   xmlns:xlink="http://www.w3.org/1999/xlink"
   version="1.0"
   width="128"
   height="128"
   id="svg11300"
   style="display:inline;enable-background:new">
  <title
     id="title2897">Candy Icon Theme</title>
  <defs
     id="defs3">
    <linearGradient
       id="linearGradient4009">
      <stop
         id="stop4011"
         style="stop-color:#646464;stop-opacity:1"
         offset="0" />
      <stop
         id="stop4013"
         style="stop-color:#141414;stop-opacity:1"
         offset="1" />
    </linearGradient>
    <linearGradient
       id="linearGradient4008">
      <stop
         id="stop4010"
         style="stop-color:#505050;stop-opacity:1"
         offset="0" />
      <stop
         id="stop4012"
         style="stop-color:#000000;stop-opacity:1"
         offset="1" />
    </linearGradient>
    <linearGradient
       id="linearGradient6343">
      <stop
         id="stop6345"
         style="stop-color:#000000;stop-opacity:0"
         offset="0" />
      <stop
         id="stop6347"
         style="stop-color:#000000;stop-opacity:1"
         offset="1" />
    </linearGradient>
    <linearGradient
       id="linearGradient6269-6">
      <stop
         id="stop6271-4"
         style="stop-color:#fce694;stop-opacity:1"
         offset="0" />
      <stop
         id="stop6273-0"
         style="stop-color:#f3c407;stop-opacity:1"
         offset="1" />
    </linearGradient>
    <linearGradient
       id="linearGradient6424-0">
      <stop
         id="stop6426-5"
         style="stop-color:#ffffff;stop-opacity:1"
         offset="0" />
      <stop
         id="stop6428-6"
         style="stop-color:#ffffff;stop-opacity:0"
         offset="1" />
    </linearGradient>
    <filter
       x="-0.56727272"
       y="-3.1199999"
       width="2.1345456"
       height="7.2399998"
       color-interpolation-filters="sRGB"
       id="filter4512">
      <feGaussianBlur
         stdDeviation="5.2"
         id="feGaussianBlur4514" />
    </filter>
    <filter
       x="-0.071689658"
       y="-0.83160001"
       width="1.1433793"
       height="2.6631999"
       color-interpolation-filters="sRGB"
       id="filter4175-5">
      <feGaussianBlur
         stdDeviation="3.465"
         id="feGaussianBlur4177-9" />
    </filter>
    <linearGradient
       id="linearGradient6694">
      <stop
         id="stop6696"
         style="stop-color:#c8c8c8;stop-opacity:1"
         offset="0" />
      <stop
         id="stop6698"
         style="stop-color:#a0a0a0;stop-opacity:1"
         offset="1" />
    </linearGradient>
    <linearGradient
       id="linearGradient6362">
      <stop
         id="stop6364"
         style="stop-color:#d2d2d2;stop-opacity:1"
         offset="0" />
      <stop
         id="stop6366"
         style="stop-color:#fafafa;stop-opacity:1"
         offset="1" />
    </linearGradient>
    <linearGradient
       id="linearGradient6379">
      <stop
         id="stop6381"
         style="stop-color:#828282;stop-opacity:1"
         offset="0" />
      <stop
         id="stop6383"
         style="stop-color:#000000;stop-opacity:1"
         offset="1" />
    </linearGradient>
    <linearGradient
       id="linearGradient6343-6">
      <stop
         id="stop6345-1"
         style="stop-color:#000000;stop-opacity:0"
         offset="0" />
      <stop
         id="stop6347-5"
         style="stop-color:#000000;stop-opacity:1"
         offset="1" />
    </linearGradient>
    <linearGradient
       id="linearGradient6424">
      <stop
         id="stop6426"
         style="stop-color:#ffffff;stop-opacity:1"
         offset="0" />
      <stop
         id="stop6428"
         style="stop-color:#ffffff;stop-opacity:0"
         offset="1" />
    </linearGradient>
    <linearGradient
       id="linearGradient6288">
      <stop
         id="stop6290"
         style="stop-color:#000000;stop-opacity:1"
         offset="0" />
      <stop
         id="stop6292"
         style="stop-color:#000000;stop-opacity:0"
         offset="1" />
    </linearGradient>
    <linearGradient
       id="linearGradient6269">
      <stop
         id="stop6271"
         style="stop-color:#faca96;stop-opacity:1"
         offset="0" />
      <stop
         id="stop6273"
         style="stop-color:#e48620;stop-opacity:1"
         offset="1" />
    </linearGradient>
    <linearGradient
       id="linearGradient3779">
      <stop
         id="stop3781"
         style="stop-color:#edad67;stop-opacity:1"
         offset="0" />
      <stop
         id="stop3783"
         style="stop-color:#a76721;stop-opacity:1"
         offset="1" />
    </linearGradient>
    <linearGradient
       x1="67"
       y1="108"
       x2="67"
       y2="19"
       id="linearGradient3804"
       xlink:href="#linearGradient6362"
       gradientUnits="userSpaceOnUse"
       gradientTransform="translate(0,12)" />
    <linearGradient
       x1="45.25"
       y1="19"
       x2="45.5"
       y2="108"
       id="linearGradient3806"
       xlink:href="#linearGradient6694"
       gradientUnits="userSpaceOnUse"
       gradientTransform="translate(0,12)" />
    <linearGradient
       x1="157.27779"
       y1="19.363636"
       x2="157.27779"
       y2="14.181818"
       id="linearGradient3808"
       xlink:href="#linearGradient6288"
       gradientUnits="userSpaceOnUse"
       gradientTransform="matrix(2.7692307,0,0,11.000001,-370.53848,-115.00001)" />
    <linearGradient
       x1="156.9913"
       y1="15"
       x2="157.01903"
       y2="44"
       id="linearGradient3810"
       xlink:href="#linearGradient6269"
       gradientUnits="userSpaceOnUse"
       gradientTransform="matrix(2.7200897,0,0,2.7173739,-362.71283,5.3374494)" />
    <linearGradient
       x1="151.70708"
       y1="15.062573"
       x2="151.68968"
       y2="43.937447"
       id="linearGradient3812"
       xlink:href="#linearGradient3779"
       gradientUnits="userSpaceOnUse"
       gradientTransform="matrix(2.6896636,0,0,2.6666785,-357.96691,6.8329565)" />
    <radialGradient
       cx="67"
       cy="28.032467"
       r="59"
       fx="67"
       fy="28.032467"
       id="radialGradient3814"
       xlink:href="#linearGradient6343-6"
       gradientUnits="userSpaceOnUse"
       gradientTransform="matrix(-1.050303e-8,-1,1,-1.050303e-8,38.967534,115)" />
    <linearGradient
       x1="148"
       y1="9.5"
       x2="147.96875"
       y2="13.0625"
       id="linearGradient3816"
       xlink:href="#linearGradient6379"
       gradientUnits="userSpaceOnUse"
       gradientTransform="matrix(2.8461538,0,0,1.5,-380.15385,19.75)" />
    <radialGradient
       cx="67"
       cy="28.032467"
       r="59"
       fx="67"
       fy="28.032467"
       id="radialGradient3818"
       xlink:href="#linearGradient6424"
       gradientUnits="userSpaceOnUse"
       gradientTransform="matrix(-1.050303e-8,-1,1,-1.050303e-8,38.967534,115)" />
    <radialGradient
       cx="67"
       cy="34.5"
       r="55"
       fx="67"
       fy="34.5"
       id="radialGradient3820"
       xlink:href="#linearGradient6424"
       gradientUnits="userSpaceOnUse"
       gradientTransform="matrix(1,0,0,0.08181818,0,45.677273)" />
    <linearGradient
       x1="-129.42479"
       y1="103.93193"
       x2="-136.91637"
       y2="96.441086"
       id="linearGradient3040"
       xlink:href="#linearGradient6424-0"
       gradientUnits="userSpaceOnUse"
       gradientTransform="matrix(2.4543735,0,0,2.4543738,221.06927,-230.05915)" />
    <radialGradient
       cx="86"
       cy="60.499302"
       r="36.99324"
       fx="86"
       fy="60.499302"
       id="radialGradient3043"
       xlink:href="#linearGradient6343"
       gradientUnits="userSpaceOnUse"
       gradientTransform="matrix(1.655539,6.5942117e-8,-5.601693e-8,1.4393523,-56.376344,-26.583204)" />
    <linearGradient
       x1="-131.51787"
       y1="101.83102"
       x2="-150.6105"
       y2="82.740242"
       id="linearGradient3046"
       xlink:href="#linearGradient4009"
       gradientUnits="userSpaceOnUse"
       gradientTransform="matrix(-1.8100979,-1.8102342,1.8102741,-1.8100583,-336.40032,2.9590031)" />
    <linearGradient
       x1="-130.97629"
       y1="103.48393"
       x2="-151.55902"
       y2="82.903214"
       id="linearGradient3048"
       xlink:href="#linearGradient4008"
       gradientUnits="userSpaceOnUse"
       gradientTransform="matrix(-1.8100979,-1.8102342,1.8102741,-1.8100583,-336.40032,2.9590031)" />
    <linearGradient
       x1="165"
       y1="20"
       x2="165"
       y2="49"
       id="linearGradient3051"
       xlink:href="#linearGradient4008"
       gradientUnits="userSpaceOnUse"
       gradientTransform="matrix(2.4177781,0,0,2.4177777,-312.97115,7.5933348)" />
    <linearGradient
       x1="-131.51787"
       y1="101.83102"
       x2="-150.6105"
       y2="82.740242"
       id="linearGradient3056"
       xlink:href="#linearGradient6269-6"
       gradientUnits="userSpaceOnUse"
       gradientTransform="matrix(2.54235,0,0,2.5423502,233.28675,-238.3389)" />
  </defs>
  <g
     transform="translate(-3,-4)"
     id="layer1"
     style="display:inline">
    <g
       id="layer6"
       style="display:none" />
    <path
       d="m 97,124.01347 a 11,2 0 0 1 -22,0 11,2 0 1 1 22,0 z"
       id="path4837"
       style="opacity:0.5;fill:#000000;fill-opacity:1;stroke:none;filter:url(#filter4512)" />
    <rect
       width="116"
       height="10"
       rx="5"
       ry="5"
       x="9"
       y="114"
       id="rect4133"
       style="opacity:0.8;fill:#000000;fill-opacity:1;stroke:none;filter:url(#filter4175-5)" />
    <g
       transform="translate(4.0762329e-6,8.2095335e-7)"
       id="g3946">
      <path
         d="m 24.5,31.5 c -2.216,0 -4,1.534 -4,3.75 l 0,2.25 -4,0 c -2.216002,0 -4,1.784 -4,4 l 0,74.25 c 0,2.216 1.783997,3.75 4,3.75 l 101,0 c 2.216,0 4,-1.784 4,-4 l 0,-74 c 0,-2.216 -1.784,-4 -4,-4 l -53,0 0,-2.25 c 0,-2.216 -1.784,-3.75 -4,-3.75 l -36,0 z"
         id="rect6463"
         style="fill:url(#linearGradient3804);fill-opacity:1;stroke:url(#linearGradient3806);stroke-width:1;stroke-linecap:square;stroke-linejoin:round;stroke-miterlimit:4;stroke-opacity:1;stroke-dasharray:none" />
      <rect
         width="108"
         height="33"
         x="13"
         y="39"
         id="rect5571"
         style="fill:url(#linearGradient3808);fill-opacity:1;stroke:none" />
      <path
         d="m 13.499971,47.499973 107.000059,0 c 2.77,0 5,2.23 5,5 l -3e-5,66.000057 c 0,2.77 -2.22997,5 -4.99997,5 l -107.000059,0 c -2.77,0 -4.999971,-2.23 -4.999971,-5 l -2.86e-5,-66.000057 c 0,-2.77 2.2299996,-5 4.9999996,-5 z"
         id="rect5575"
         style="fill:url(#linearGradient3810);fill-opacity:1;stroke:url(#linearGradient3812);stroke-width:0.99994278;stroke-linecap:square;stroke-linejoin:round;stroke-miterlimit:4;stroke-opacity:1" />
      <path
         d="M 13.500008,47 120.5,47 c 3.047,0 5.5,2.453 5.5,5.5 l 0,66 c 0,3.047 -2.453,5.5 -5.5,5.5 L 13.500008,124 C 10.453008,124 8,121.547 8,118.5 l 7.6e-6,-66 c 0,-3.047 2.4530004,-5.5 5.5000004,-5.5 z"
         id="rect5577"
         style="opacity:0.07999998;fill:url(#radialGradient3814);fill-opacity:1;stroke:none;display:inline;enable-background:new" />
      <rect
         width="37"
         height="3"
         rx="1"
         ry="1"
         x="24"
         y="34"
         id="rect6413"
         style="opacity:0.3;fill:url(#linearGradient3816);fill-opacity:1;stroke:none;display:inline;enable-background:new" />
      <path
         d="M 13.500008,47 120.5,47 c 3.047,0 5.5,2.453 5.5,5.5 l 0,66 c 0,3.047 -2.453,5.5 -5.5,5.5 L 13.500008,124 C 10.453008,124 8,121.547 8,118.5 l 7.6e-6,-66 c 0,-3.047 2.4530004,-5.5 5.5000004,-5.5 z"
         id="path3942"
         style="opacity:0.2;fill:url(#radialGradient3818);fill-opacity:1;stroke:none;display:inline;enable-background:new" />
      <path
         d="m 12,48 0,1 110,0 0,-1 -110,0 z"
         id="rect6566"
         style="opacity:0.5;fill:url(#radialGradient3820);fill-opacity:1;stroke:none;display:inline;enable-background:new" />
    </g>
    <g
       transform="translate(4.0762329e-6,8.2095335e-7)"
       id="g3955" />
    <g
       transform="translate(4.0762329e-6,8.2095335e-7)"
       id="g3964" />
    <g
       transform="translate(4.0762329e-6,8.2095335e-7)"
       id="g3978" />
    <g
       transform="translate(4.0762329e-6,8.2095335e-7)"
       id="g3971" />
    <g
       transform="translate(4.0762329e-6,8.2095335e-7)"
       id="g3985" />
    <g
       id="g3868" />
    <g
       id="g3854" />
    <g
       id="g3887" />
    <g
       transform="translate(0,1)"
       id="g3046" />
    <g
       id="g3935" />
    <g
       id="g3835">
      <rect
         width="54.186562"
         height="54.182072"
         rx="4.9940901"
         ry="4.9940906"
         x="-151.54425"
         y="-29.913488"
         transform="matrix(-0.70707299,-0.70714057,0.70714176,-0.7070718,0,0)"
         id="rect3944"
         style="fill:url(#linearGradient3056);fill-opacity:1;stroke:none" />
      <path
         d="m 77.5,74.09375 c -1.869427,0 -3.40625,1.536829 -3.40625,3.40625 0,1.869423 1.536823,3.40625 3.40625,3.40625 1.869423,0 3.40625,-1.536827 3.40625,-3.40625 0,-1.869421 -1.536827,-3.40625 -3.40625,-3.40625 z M 82,81 79,83 78.90625,91 74,95 l 2,2 5,-4 1,-3 2.15625,4.875 L 83,103 l 0,9 3,0 0,-9 2,-6 1,0 8,11 2.5,-2.5 -8,-11 -0.5,-2.5 -3,-6 3,0 2,6 3,-1 -3,-8 -11,-2 z"
         id="path4026"
         style="opacity:0.6;fill:#ffffff;fill-opacity:1;stroke:none" />
      <path
         d="m 77.5,73.09375 c -1.869427,0 -3.40625,1.536829 -3.40625,3.40625 0,1.869423 1.536823,3.40625 3.40625,3.40625 1.869423,0 3.40625,-1.536827 3.40625,-3.40625 0,-1.869421 -1.536827,-3.40625 -3.40625,-3.40625 z M 82,80 79,82 78.90625,90 74,94 l 2,2 5,-4 1,-3 2.15625,4.875 L 83,102 l 0,9 3,0 0,-9 2,-6 1,0 8,11 2.5,-2.5 -8,-11 -0.5,-2.5 -3,-6 3,0 2,6 3,-1 -3,-8 -11,-2 z"
         id="path4019"
         style="fill:url(#linearGradient3051);fill-opacity:1;stroke:none" />
      <path
         d="m 86,53.5 c -1.285442,-6.3e-5 -2.57748,0.483847 -3.5625,1.46875 L 50.96875,86.4375 c -1.970041,1.969806 -1.969849,5.155003 0,7.125 l 31.46875,31.46875 c 1.969848,1.96999 5.154959,1.9698 7.125,0 L 121.03125,93.5625 c 1.97005,-1.969806 1.96986,-5.155003 0,-7.125 L 89.5625,54.96875 C 88.577575,53.983752 87.285443,53.500062 86,53.5 z m 0,3 c 0.762468,3.7e-5 1.509536,0.290729 2.09375,0.875 L 118.625,87.90625 c 1.16843,1.168541 1.16854,3.050322 0,4.21875 l -30.53125,30.5 c -1.168541,1.16843 -3.019072,1.16854 -4.1875,0 L 53.375,92.09375 c -1.168428,-1.168541 -1.168541,-3.050322 0,-4.21875 l 30.53125,-30.5 C 84.490521,56.790786 85.237532,56.499963 86,56.5 z"
         id="rect3980"
         style="fill:url(#linearGradient3046);fill-opacity:1;stroke:url(#linearGradient3048);stroke-width:1;stroke-miterlimit:4;stroke-opacity:1;stroke-dasharray:none" />
      <path
         d="m 86,53 c -1.468793,-7.1e-5 -2.942274,0.567385 -4.0625,1.6875 l -31.25,31.25 c -2.241124,2.240902 -2.240844,5.883942 0,8.125 l 31.25,31.25 c 2.240905,2.24111 5.883939,2.24083 8.125,0 l 31.25,-31.25 c 2.24113,-2.240902 2.24085,-5.883942 0,-8.125 l -31.25,-31.25 C 88.942295,53.567188 87.468658,53.000071 86,53 z"
         id="path4030"
         style="font-size:medium;font-style:normal;font-variant:normal;font-weight:normal;font-stretch:normal;text-indent:0;text-align:start;text-decoration:none;line-height:normal;letter-spacing:normal;word-spacing:normal;text-transform:none;direction:ltr;block-progression:tb;writing-mode:lr-tb;text-anchor:start;opacity:0.07999998;color:#000000;fill:url(#radialGradient3043);fill-opacity:1;fill-rule:nonzero;stroke:none;stroke-width:1.5;marker:none;visibility:visible;display:inline;overflow:visible;enable-background:accumulate;font-family:Andale Mono;-inkscape-font-specification:Andale Mono" />
      <rect
         width="52.311443"
         height="52.307106"
         rx="3.9974473"
         ry="3.9974475"
         x="-150.4449"
         y="-28.84614"
         transform="matrix(-0.7071285,-0.70708507,0.70719727,-0.70701628,0,0)"
         id="rect3953"
         style="opacity:0.5;fill:none;stroke:url(#linearGradient3040);stroke-width:1.00000072;stroke-miterlimit:4;stroke-opacity:1;stroke-dasharray:none" />
    </g>
  </g>
</svg>
