<?xml version="1.0" encoding="UTF-8" standalone="no"?>
<!-- Created with Inkscape (http://www.inkscape.org/) -->

<svg
   xmlns:svg="http://www.w3.org/2000/svg"
   xmlns="http://www.w3.org/2000/svg"
   xmlns:xlink="http://www.w3.org/1999/xlink"
   version="1.0"
   width="128"
   height="128"
   id="svg11300"
   style="display:inline;enable-background:new">
  <title
     id="title2897">Candy Icon Theme</title>
  <defs
     id="defs3">
    <linearGradient
       id="linearGradient3779">
      <stop
         id="stop3781"
         style="stop-color:#edad67;stop-opacity:1"
         offset="0" />
      <stop
         id="stop3783"
         style="stop-color:#a76721;stop-opacity:1"
         offset="1" />
    </linearGradient>
    <linearGradient
       id="linearGradient6269">
      <stop
         id="stop6271"
         style="stop-color:#faca96;stop-opacity:1"
         offset="0" />
      <stop
         id="stop6273"
         style="stop-color:#e48620;stop-opacity:1"
         offset="1" />
    </linearGradient>
    <linearGradient
       id="linearGradient6288">
      <stop
         id="stop6290"
         style="stop-color:#000000;stop-opacity:1"
         offset="0" />
      <stop
         id="stop6292"
         style="stop-color:#000000;stop-opacity:0"
         offset="1" />
    </linearGradient>
    <linearGradient
       id="linearGradient6424">
      <stop
         id="stop6426"
         style="stop-color:#ffffff;stop-opacity:1"
         offset="0" />
      <stop
         id="stop6428"
         style="stop-color:#ffffff;stop-opacity:0"
         offset="1" />
    </linearGradient>
    <linearGradient
       id="linearGradient6343">
      <stop
         id="stop6345"
         style="stop-color:#000000;stop-opacity:0"
         offset="0" />
      <stop
         id="stop6347"
         style="stop-color:#000000;stop-opacity:1"
         offset="1" />
    </linearGradient>
    <linearGradient
       id="linearGradient6379">
      <stop
         id="stop6381"
         style="stop-color:#828282;stop-opacity:1"
         offset="0" />
      <stop
         id="stop6383"
         style="stop-color:#000000;stop-opacity:1"
         offset="1" />
    </linearGradient>
    <linearGradient
       id="linearGradient6362">
      <stop
         id="stop6364"
         style="stop-color:#d2d2d2;stop-opacity:1"
         offset="0" />
      <stop
         id="stop6366"
         style="stop-color:#fafafa;stop-opacity:1"
         offset="1" />
    </linearGradient>
    <linearGradient
       id="linearGradient6694">
      <stop
         id="stop6696"
         style="stop-color:#c8c8c8;stop-opacity:1"
         offset="0" />
      <stop
         id="stop6698"
         style="stop-color:#a0a0a0;stop-opacity:1"
         offset="1" />
    </linearGradient>
    <filter
       x="-0.071689658"
       y="-0.83160001"
       width="1.1433793"
       height="2.6631999"
       color-interpolation-filters="sRGB"
       id="filter4175">
      <feGaussianBlur
         stdDeviation="3.465"
         id="feGaussianBlur4177" />
    </filter>
    <radialGradient
       cx="67"
       cy="34.5"
       r="55"
       fx="67"
       fy="34.5"
       id="radialGradient3906"
       xlink:href="#linearGradient6424"
       gradientUnits="userSpaceOnUse"
       gradientTransform="matrix(1,0,0,0.08181818,0,45.677273)" />
    <linearGradient
       x1="148"
       y1="9.5"
       x2="147.96875"
       y2="13.0625"
       id="linearGradient3909"
       xlink:href="#linearGradient6379"
       gradientUnits="userSpaceOnUse"
       gradientTransform="matrix(2.8461538,0,0,1.5,-380.15385,19.75)" />
    <linearGradient
       x1="156.9913"
       y1="15"
       x2="157.01903"
       y2="44"
       id="linearGradient3918"
       xlink:href="#linearGradient6269"
       gradientUnits="userSpaceOnUse"
       gradientTransform="matrix(2.7200897,0,0,2.7173739,-362.71283,5.3374494)" />
    <linearGradient
       x1="151.70708"
       y1="15.062573"
       x2="151.68968"
       y2="43.937447"
       id="linearGradient3920"
       xlink:href="#linearGradient3779"
       gradientUnits="userSpaceOnUse"
       gradientTransform="matrix(2.6896636,0,0,2.6666785,-357.96691,6.8329565)" />
    <linearGradient
       x1="157.27779"
       y1="19.363636"
       x2="157.27779"
       y2="14.181818"
       id="linearGradient3923"
       xlink:href="#linearGradient6288"
       gradientUnits="userSpaceOnUse"
       gradientTransform="matrix(2.7692307,0,0,11.000001,-370.53848,-115.00001)" />
    <linearGradient
       x1="67"
       y1="108"
       x2="67"
       y2="19"
       id="linearGradient3926"
       xlink:href="#linearGradient6362"
       gradientUnits="userSpaceOnUse"
       gradientTransform="translate(0,12)" />
    <linearGradient
       x1="45.25"
       y1="19"
       x2="45.5"
       y2="108"
       id="linearGradient3928"
       xlink:href="#linearGradient6694"
       gradientUnits="userSpaceOnUse"
       gradientTransform="translate(0,12)" />
    <radialGradient
       cx="67"
       cy="28.032467"
       r="59"
       fx="67"
       fy="28.032467"
       id="radialGradient3940"
       xlink:href="#linearGradient6343"
       gradientUnits="userSpaceOnUse"
       gradientTransform="matrix(-1.050303e-8,-1,1,-1.050303e-8,38.967534,115)" />
    <radialGradient
       cx="67"
       cy="28.032467"
       r="59"
       fx="67"
       fy="28.032467"
       id="radialGradient3944"
       xlink:href="#linearGradient6424"
       gradientUnits="userSpaceOnUse"
       gradientTransform="matrix(-1.050303e-8,-1,1,-1.050303e-8,38.967534,115)" />
    <linearGradient
       id="linearGradient3665">
      <stop
         id="stop3667"
         style="stop-color:#78bedc;stop-opacity:1"
         offset="0" />
      <stop
         id="stop3669"
         style="stop-color:#49637f;stop-opacity:1"
         offset="1" />
    </linearGradient>
    <linearGradient
       id="linearGradient3657-4">
      <stop
         id="stop3659-8"
         style="stop-color:#a1c6ef;stop-opacity:1"
         offset="0" />
      <stop
         id="stop3661"
         style="stop-color:#517fb3;stop-opacity:1"
         offset="1" />
    </linearGradient>
    <linearGradient
       id="linearGradient3703">
      <stop
         id="stop3705-5"
         style="stop-color:#ffffff;stop-opacity:1"
         offset="0" />
      <stop
         id="stop3707"
         style="stop-color:#ffffff;stop-opacity:0"
         offset="1" />
    </linearGradient>
    <linearGradient
       id="linearGradient3693">
      <stop
         id="stop3695"
         style="stop-color:#000000;stop-opacity:0"
         offset="0" />
      <stop
         id="stop3697"
         style="stop-color:#000000;stop-opacity:1"
         offset="1" />
    </linearGradient>
    <linearGradient
       x1="170.5"
       y1="35.566666"
       x2="170.5"
       y2="49.433331"
       id="linearGradient3269"
       xlink:href="#linearGradient3657-4"
       gradientUnits="userSpaceOnUse"
       gradientTransform="matrix(3.9999994,0,0,5.2307684,-588.4999,-127.81211)" />
    <linearGradient
       x1="171.63333"
       y1="35.566666"
       x2="171.63333"
       y2="49.433331"
       id="linearGradient3271"
       xlink:href="#linearGradient3665"
       gradientUnits="userSpaceOnUse"
       gradientTransform="matrix(3.9999994,0,0,5.2307684,-588.4999,-127.81211)" />
    <radialGradient
       cx="171.35582"
       cy="36.923706"
       r="3.6441751"
       fx="171.35582"
       fy="36.923706"
       id="radialGradient3273"
       xlink:href="#linearGradient3693"
       gradientUnits="userSpaceOnUse"
       gradientTransform="matrix(9.4671555,0,0,9.4671633,-1528.7522,-273.33193)" />
    <linearGradient
       x1="170.13911"
       y1="37.395508"
       x2="170.13911"
       y2="39.217434"
       id="linearGradient3275"
       xlink:href="#linearGradient3703"
       gradientUnits="userSpaceOnUse"
       gradientTransform="matrix(7.2738117,0,0,10.338321,-1146.4171,-327.42829)" />
  </defs>
  <g
     transform="translate(-3,-4)"
     id="layer1"
     style="display:inline">
    <g
       id="layer6"
       style="display:none" />
    <rect
       width="116"
       height="10"
       rx="5"
       ry="5"
       x="9"
       y="114"
       id="rect4133"
       style="opacity:0.8;fill:#000000;fill-opacity:1;stroke:none;filter:url(#filter4175)" />
    <g
       id="g3946">
      <path
         d="m 24.5,31.5 c -2.216,0 -4,1.534 -4,3.75 l 0,2.25 -4,0 c -2.216002,0 -4,1.784 -4,4 l 0,74.25 c 0,2.216 1.783997,3.75 4,3.75 l 101,0 c 2.216,0 4,-1.784 4,-4 l 0,-74 c 0,-2.216 -1.784,-4 -4,-4 l -53,0 0,-2.25 c 0,-2.216 -1.784,-3.75 -4,-3.75 l -36,0 z"
         id="rect6463"
         style="fill:url(#linearGradient3926);fill-opacity:1;stroke:url(#linearGradient3928);stroke-width:1;stroke-linecap:square;stroke-linejoin:round;stroke-miterlimit:4;stroke-opacity:1;stroke-dasharray:none" />
      <rect
         width="108"
         height="33"
         x="13"
         y="39"
         id="rect5571"
         style="fill:url(#linearGradient3923);fill-opacity:1;stroke:none" />
      <path
         d="m 13.499971,47.499973 107.000059,0 c 2.77,0 5,2.23 5,5 l -3e-5,66.000057 c 0,2.77 -2.22997,5 -4.99997,5 l -107.000059,0 c -2.77,0 -4.999971,-2.23 -4.999971,-5 l -2.86e-5,-66.000057 c 0,-2.77 2.2299996,-5 4.9999996,-5 z"
         id="rect5575"
         style="fill:url(#linearGradient3918);fill-opacity:1;stroke:url(#linearGradient3920);stroke-width:0.99994278;stroke-linecap:square;stroke-linejoin:round;stroke-miterlimit:4;stroke-opacity:1" />
      <path
         d="M 13.500008,47 120.5,47 c 3.047,0 5.5,2.453 5.5,5.5 l 0,66 c 0,3.047 -2.453,5.5 -5.5,5.5 L 13.500008,124 C 10.453008,124 8,121.547 8,118.5 l 7.6e-6,-66 c 0,-3.047 2.4530004,-5.5 5.5000004,-5.5 z"
         id="rect5577"
         style="opacity:0.07999998;fill:url(#radialGradient3940);fill-opacity:1;stroke:none;display:inline;enable-background:new" />
      <rect
         width="37"
         height="3"
         rx="1"
         ry="1"
         x="24"
         y="34"
         id="rect6413"
         style="opacity:0.3;fill:url(#linearGradient3909);fill-opacity:1;stroke:none;display:inline;enable-background:new" />
      <path
         d="M 13.500008,47 120.5,47 c 3.047,0 5.5,2.453 5.5,5.5 l 0,66 c 0,3.047 -2.453,5.5 -5.5,5.5 L 13.500008,124 C 10.453008,124 8,121.547 8,118.5 l 7.6e-6,-66 c 0,-3.047 2.4530004,-5.5 5.5000004,-5.5 z"
         id="path3942"
         style="opacity:0.2;fill:url(#radialGradient3944);fill-opacity:1;stroke:none;display:inline;enable-background:new" />
      <path
         d="m 12,48 0,1 110,0 0,-1 -110,0 z"
         id="rect6566"
         style="opacity:0.5;fill:url(#radialGradient3906);fill-opacity:1;stroke:none;display:inline;enable-background:new" />
    </g>
    <g
       id="g3955" />
    <g
       id="g3964" />
    <g
       id="g3978" />
    <g
       id="g3971" />
    <g
       id="g3985" />
    <g
       transform="translate(0,-0.99551395)"
       id="g4074" />
    <g
       transform="translate(0,-0.99551005)"
       id="g4104" />
    <g
       transform="translate(0,0.01035567)"
       id="g4051">
      <path
         d="m 127.49999,94.49554 a 34.000001,33.999999 0 0 1 -68,0 34.000001,33.999999 0 1 1 68,0 z"
         id="path3126-3"
         style="fill:url(#linearGradient3269);fill-opacity:1;stroke:url(#linearGradient3271);stroke-width:1.00000012;stroke-linecap:round;stroke-linejoin:miter;stroke-miterlimit:4;stroke-opacity:1;stroke-dasharray:none" />
      <path
         d="m 93.4375,78 c -8.941333,0 -15.590866,2.449925 -20,4.9375 C 69.028366,85.425076 66.75,88.125 66.75,88.125 A 2.1876812,2.317845 0 1 0 70,91.15625 c 0,0 1.674035,-1.980047 5.53125,-4.15625 3.857214,-2.1762 9.712008,-4.3125 17.90625,-4.3125 8.14966,0 14.13438,2.128866 18.03125,4.3125 3.89685,2.183636 5.625,4.25 5.625,4.25 a 2.1847502,2.3147397 0 1 0 3.1875,-3.125 c 0,0 -2.37236,-2.699445 -6.8125,-5.1875 C 109.02864,80.449444 102.33923,78 93.4375,78 z M 92.34375,88.96875 C 91.947843,88.96615 91.539428,88.9821 91.15625,89 c -5.364416,0.250641 -9.468056,1.692325 -12.34375,3.1875 -3.286495,1.708771 -5.09375,3.625 -5.09375,3.625 A 2.2327486,2.2345018 0 0 0 77,98.84375 c 0,0 1.128794,-1.307136 3.84375,-2.71875 2.714962,-1.411608 6.870693,-2.793357 12.625,-2.6875 5.842357,0.107502 10.06111,1.545599 12.78125,2.9375 2.72015,1.3919 3.78125,2.625 3.78125,2.625 a 2.2594017,2.2611756 0 1 0 3.25,-3.125 c 0,0 -1.80668,-1.771492 -5.0625,-3.4375 C 104.96291,90.771491 100.11064,89.120459 93.5625,89 93.154111,88.9926 92.739657,88.97137 92.34375,88.96875 z M 93.3125,100 c -4.402173,0.0454 -7.490006,0.93914 -9.5,1.9375 -2.009986,0.99835 -3.125,2.3125 -3.125,2.3125 a 2.2322066,2.1867895 0 1 0 3.53125,2.65625 c 0,0 0.249254,-0.34793 1.625,-1.03125 1.37571,-0.68332 3.676977,-1.49208 7.46875,-1.53125 3.715477,-0.0384 6.176947,0.72345 7.65625,1.4375 1.47932,0.71407 1.875,1.21875 1.875,1.21875 a 2.2322066,2.1867895 0 1 0 3.375,-2.8125 c 0,0 -1.22078,-1.33407 -3.3125,-2.34375 C 100.81455,100.83408 97.688827,99.954783 93.3125,100 z m -2.53125,10.09375 c -1.509609,0 -2.71875,1.1714 -2.71875,2.625 0,0.5402 0.147471,1.08195 0.4375,1.5 l 3.21875,3.125 c 0.479406,0.39894 1.129612,0.65625 1.8125,0.65625 0.810318,0 1.561569,-0.36651 2.0625,-0.90625 l 2.875,-2.78125 C 98.81279,113.87214 99,113.31183 99,112.71875 c 0,-1.4536 -1.240389,-2.625 -2.75,-2.625 l -5.46875,0 z"
         id="path4048"
         style="font-size:medium;font-style:normal;font-variant:normal;font-weight:normal;font-stretch:normal;text-indent:0;text-align:start;text-decoration:none;line-height:normal;letter-spacing:normal;word-spacing:normal;text-transform:none;direction:ltr;block-progression:tb;writing-mode:lr-tb;text-anchor:start;color:#000000;fill:#ffffff;fill-opacity:1;stroke:none;stroke-width:1.70000005;marker:none;visibility:visible;display:inline;overflow:visible;enable-background:accumulate;font-family:Andale Mono;-inkscape-font-specification:Andale Mono" />
      <path
         d="m 127.99994,94.495514 a 34.499974,34.500004 0 0 1 -68.999947,0 34.499974,34.500004 0 1 1 68.999947,0 z"
         id="path3130"
         style="opacity:0.07999998;fill:url(#radialGradient3273);fill-opacity:1;stroke:none" />
      <path
         d="m 126.49997,94.495364 a 33.000001,32.96245 0 1 1 -65.999955,0 33.000001,32.96245 0 1 1 65.999955,0 z"
         id="path3136"
         style="opacity:0.4;fill:none;stroke:url(#linearGradient3275);stroke-width:0.9999997;stroke-miterlimit:4;stroke-opacity:1;stroke-dasharray:none" />
    </g>
    <g
       transform="translate(0,0.00393096)"
       id="g4082" />
    <g
       transform="translate(0,4.3e-6)"
       id="g4127" />
    <g
       transform="translate(0,0.00448995)"
       id="g4097" />
  </g>
</svg>
