<?xml version="1.0" encoding="UTF-8" standalone="no"?>
<!-- Created with Inkscape (http://www.inkscape.org/) -->

<svg
   xmlns:svg="http://www.w3.org/2000/svg"
   xmlns="http://www.w3.org/2000/svg"
   xmlns:xlink="http://www.w3.org/1999/xlink"
   version="1.0"
   width="128"
   height="128"
   id="svg11300"
   style="display:inline;enable-background:new">
  <title
     id="title2897">Candy Icon Theme</title>
  <defs
     id="defs3">
    <linearGradient
       id="linearGradient4020">
      <stop
         id="stop4022"
         style="stop-color:#000000;stop-opacity:1"
         offset="0" />
      <stop
         id="stop4024"
         style="stop-color:#000000;stop-opacity:0"
         offset="1" />
    </linearGradient>
    <linearGradient
       id="linearGradient3671">
      <stop
         id="stop3673"
         style="stop-color:#282828;stop-opacity:1"
         offset="0" />
      <stop
         id="stop3675"
         style="stop-color:#aaaaaa;stop-opacity:1"
         offset="0.25" />
      <stop
         id="stop3677"
         style="stop-color:#5a5a5a;stop-opacity:1"
         offset="0.5" />
      <stop
         id="stop3679"
         style="stop-color:#aaaaaa;stop-opacity:1"
         offset="0.75" />
      <stop
         id="stop3681"
         style="stop-color:#282828;stop-opacity:1"
         offset="1" />
    </linearGradient>
    <linearGradient
       id="linearGradient3659">
      <stop
         id="stop3661"
         style="stop-color:#505050;stop-opacity:1"
         offset="0" />
      <stop
         id="stop3663"
         style="stop-color:#d2d2d2;stop-opacity:1"
         offset="0.25" />
      <stop
         id="stop3665"
         style="stop-color:#828282;stop-opacity:1"
         offset="0.5" />
      <stop
         id="stop3667"
         style="stop-color:#d2d2d2;stop-opacity:1"
         offset="0.75" />
      <stop
         id="stop3669"
         style="stop-color:#505050;stop-opacity:1"
         offset="1" />
    </linearGradient>
    <linearGradient
       id="linearGradient9489">
      <stop
         id="stop9491"
         style="stop-color:#ffffff;stop-opacity:0"
         offset="0" />
      <stop
         id="stop9493"
         style="stop-color:#ffffff;stop-opacity:1"
         offset="0.25" />
      <stop
         id="stop9495"
         style="stop-color:#ffffff;stop-opacity:0"
         offset="0.5" />
      <stop
         id="stop9497"
         style="stop-color:#ffffff;stop-opacity:1"
         offset="0.75" />
      <stop
         id="stop9499"
         style="stop-color:#ffffff;stop-opacity:0"
         offset="1" />
    </linearGradient>
    <linearGradient
       id="linearGradient9449">
      <stop
         id="stop9451"
         style="stop-color:#787878;stop-opacity:1"
         offset="0" />
      <stop
         id="stop9453"
         style="stop-color:#282828;stop-opacity:1"
         offset="1" />
    </linearGradient>
    <linearGradient
       id="linearGradient9441">
      <stop
         id="stop9443"
         style="stop-color:#000000;stop-opacity:1"
         offset="0" />
      <stop
         id="stop9445"
         style="stop-color:#000000;stop-opacity:0"
         offset="1" />
    </linearGradient>
    <linearGradient
       id="linearGradient9413">
      <stop
         id="stop9415"
         style="stop-color:#3c3c3c;stop-opacity:1"
         offset="0" />
      <stop
         id="stop9417"
         style="stop-color:#bebebe;stop-opacity:1"
         offset="0.25" />
      <stop
         id="stop9419"
         style="stop-color:#6e6e6e;stop-opacity:1"
         offset="0.5" />
      <stop
         id="stop9421"
         style="stop-color:#bebebe;stop-opacity:1"
         offset="0.75" />
      <stop
         id="stop9423"
         style="stop-color:#3c3c3c;stop-opacity:1"
         offset="1" />
    </linearGradient>
    <linearGradient
       id="linearGradient9389">
      <stop
         id="stop9391"
         style="stop-color:#646464;stop-opacity:1"
         offset="0" />
      <stop
         id="stop9399"
         style="stop-color:#e6e6e6;stop-opacity:1"
         offset="0.25" />
      <stop
         id="stop9397"
         style="stop-color:#969696;stop-opacity:1"
         offset="0.5" />
      <stop
         id="stop9403"
         style="stop-color:#e6e6e6;stop-opacity:1"
         offset="0.75" />
      <stop
         id="stop9393"
         style="stop-color:#5a5a5a;stop-opacity:1"
         offset="1" />
    </linearGradient>
    <filter
       x="-0.10770229"
       y="-0.20463435"
       width="1.2154046"
       height="1.4092687"
       color-interpolation-filters="sRGB"
       id="filter3894">
      <feGaussianBlur
         stdDeviation="1.7052863"
         id="feGaussianBlur3896" />
    </filter>
    <linearGradient
       x1="138"
       y1="13.5"
       x2="178"
       y2="13.5"
       id="linearGradient3839"
       xlink:href="#linearGradient3659"
       gradientUnits="userSpaceOnUse"
       gradientTransform="matrix(2.5999999,0,0,-2.6666666,-343.79999,68.499999)" />
    <linearGradient
       x1="138"
       y1="13.5"
       x2="178"
       y2="13.5"
       id="linearGradient3842"
       xlink:href="#linearGradient3671"
       gradientUnits="userSpaceOnUse"
       gradientTransform="matrix(2.5999999,0,0,-2.6666666,-343.79999,68.499999)" />
    <linearGradient
       x1="138"
       y1="13.5"
       x2="178"
       y2="13.5"
       id="linearGradient3845"
       xlink:href="#linearGradient9389"
       gradientUnits="userSpaceOnUse"
       gradientTransform="matrix(2.5897386,0,0,2.6250001,-342.17879,-1.9374997)" />
    <linearGradient
       x1="138"
       y1="13.5"
       x2="178"
       y2="13.5"
       id="linearGradient3847"
       xlink:href="#linearGradient9413"
       gradientUnits="userSpaceOnUse"
       gradientTransform="matrix(2.5897386,0,0,2.6250001,-342.17879,-1.9374997)" />
    <linearGradient
       x1="139.5"
       y1="25.5"
       x2="176.5"
       y2="25.5"
       id="linearGradient3850"
       xlink:href="#linearGradient9489"
       gradientUnits="userSpaceOnUse"
       gradientTransform="matrix(2.5675675,0,0,2.5749999,-339.17566,-1.1624991)" />
    <radialGradient
       cx="162.58682"
       cy="38.454411"
       r="6.2201338"
       fx="162.58682"
       fy="38.454411"
       id="radialGradient3855"
       xlink:href="#linearGradient9449"
       gradientUnits="userSpaceOnUse"
       gradientTransform="matrix(5.868041,0,0,3.6287244,-870.59478,-41.076034)" />
    <linearGradient
       x1="141"
       y1="41.5"
       x2="175"
       y2="41.5"
       id="linearGradient3859"
       xlink:href="#linearGradient9389"
       gradientUnits="userSpaceOnUse"
       gradientTransform="matrix(2.5757577,0,0,2.5714286,-339.96971,-1.2142873)" />
    <linearGradient
       x1="141"
       y1="41.5"
       x2="175"
       y2="41.5"
       id="linearGradient3862"
       xlink:href="#linearGradient9413"
       gradientUnits="userSpaceOnUse"
       gradientTransform="matrix(2.5757577,0,0,2.5714286,-339.96971,-1.2142873)" />
    <linearGradient
       x1="66.499908"
       y1="21.938221"
       x2="66.499908"
       y2="75.725899"
       id="linearGradient3866"
       xlink:href="#linearGradient4020"
       gradientUnits="userSpaceOnUse" />
    <linearGradient
       x1="140"
       y1="25"
       x2="149"
       y2="24"
       id="linearGradient3869"
       xlink:href="#linearGradient9441"
       gradientUnits="userSpaceOnUse"
       gradientTransform="matrix(-2.5897386,0,0,2.5813916,476.1786,-1.6974926)" />
    <linearGradient
       x1="140"
       y1="25"
       x2="150"
       y2="24"
       id="linearGradient3872"
       xlink:href="#linearGradient9441"
       gradientUnits="userSpaceOnUse"
       gradientTransform="matrix(2.5897386,0,0,2.5813916,-342.17879,-1.6974926)" />
  </defs>
  <g
     transform="translate(-3,-4)"
     id="layer1"
     style="display:inline">
    <g
       id="layer6"
       style="display:none" />
    <path
       d="m 106,110 a 19,10 0 1 1 -38,0 19,10 0 1 1 38,0 z"
       transform="matrix(2.2631581,0,0,1.6,-129.89476,-68)"
       id="path3836"
       style="opacity:0.8;fill:#000000;fill-opacity:1;stroke:none;filter:url(#filter3894)" />
    <g
       id="g3917" />
    <g
       id="g3874">
      <path
         d="m 66.999905,12.500161 c -26.460059,0 -47.910164,7.512235 -47.910164,16.779046 l 0.161858,9.03487 -0.161858,0 7.769215,61.953403 0.161859,0 c 1.596626,8.65549 18.862905,15.48835 39.97909,15.48835 21.116184,0 38.382465,-6.83286 39.979085,-15.48835 l 0.16186,0 7.76922,-61.953403 -0.16186,0 0.16186,-9.03487 c 0,-9.266811 -21.450107,-16.779046 -47.910165,-16.779046 z"
         id="path2886"
         style="opacity:0.5;fill:url(#linearGradient3872);fill-opacity:1;stroke:none" />
      <path
         d="m 66.999905,12.500161 c 26.460058,0 47.910165,7.512235 47.910165,16.779046 l -0.16186,9.03487 0.16186,0 -7.76922,61.953403 -0.16186,0 c -1.59662,8.65549 -18.862901,15.48835 -39.979085,15.48835 -21.116185,0 -38.382464,-6.83286 -39.97909,-15.48835 l -0.161859,0 -7.769215,-61.953403 0.161858,0 -0.161858,-9.03487 c 0,-9.266811 21.450105,-16.779046 47.910164,-16.779046 z"
         id="path2888"
         style="opacity:0.5;fill:url(#linearGradient3869);fill-opacity:1;stroke:none" />
      <path
         d="m 107.15625,23.8 2.3125,0 -2.3125,0 z m 2.3125,0 0,2.28125 2.28125,0 0,-2.28125 -2.28125,0 z m 2.28125,0 0.3125,0 c -0.0997,-0.118947 -0.20557,-0.225918 -0.3125,-0.34375 l 0,0.34375 z m 0,2.28125 0,2.3125 2.21875,0 0,-0.28125 c -0.0493,-0.686306 -0.22299,-1.367744 -0.5,-2.03125 l -1.71875,0 z m 2.21875,2.3125 0,1.96875 0.0312,-1.8125 c 0,-0.05132 0.001,-0.105036 0,-0.15625 l -0.0312,0 z m -2.21875,0 -2.28125,0 0,2.28125 2.28125,0 0,-2.28125 z m 0,2.28125 0,2.3125 2.1875,0 0.0312,-2.3125 -2.21875,0 5e-5,0 z m 0,2.3125 -2.28125,0 0,2.28125 2.28125,0 0,-2.28125 z m 0,2.28125 0,2.28125 2.09375,0 0.0312,-2.28125 -2.125,0 5e-5,0 z m 0,2.28125 -2.28125,0 0,2.3125 2.28125,0 0,-2.3125 z m 0,2.3125 0,2.28125 1.6875,0 0.28125,-2.28125 -1.96875,0 z m 0,2.28125 -2.28125,0 0,2.3125 2.28125,0 0,-2.3125 z m 0,2.3125 0,2.28125 1.09375,0 0.3125,-2.28125 -1.40625,0 z m 0,2.28125 -2.28125,0 0,2.3125 2.28125,0 0,-2.3125 z m 0,2.3125 0,2.21875 0.53125,0 0.28125,-2.21875 -0.8125,0 z m 0,2.21875 -2.28125,0 0,2.281253 2.28125,0 0,-2.281253 z m 0,2.281253 0,2.09375 0.25,-2.09375 -0.25,0 z m -2.28125,0 -2.3125,0 0,2.3125 2.3125,0 0,-2.3125 z m 0,2.3125 0,2.28125 1.96875,0 0.28125,-2.28125 -2.25,0 z m 0,2.28125 -2.3125,0 0,2.3125 2.3125,0 0,-2.3125 z m 0,2.3125 0,2.28125 1.40625,0 0.28125,-2.28125 -1.6875,0 z m 0,2.28125 -2.3125,0 0,2.3125 2.3125,0 0,-2.3125 z m 0,2.3125 0,2.28125 0.8125,0 0.3125,-2.28125 -1.125,0 z m 0,2.28125 -2.3125,0 0,2.3125 2.3125,0 0,-2.3125 z m 0,2.3125 0,2.28125 0.25,0 0.28125,-2.28125 -0.53125,0 z m 0,2.28125 -2.3125,0 0,2.3125 2.28125,0 0.0312,-0.25 0,-2.0625 5e-5,0 z m -2.3125,2.3125 -2.21875,0 0,2.28125 2.21875,0 0,-2.28125 z m 0,2.28125 0,2.21875 1.71875,0 0.28125,-2.21875 -2,0 z m 0,2.21875 -2.21875,0 0,2.3125 2.21875,0 0,-2.3125 z m 0,2.3125 0,2.28125 1.15625,0 0.28125,-2.28125 -1.4375,0 z m 0,2.28125 -2.21875,0 0,2.3125 2.21875,0 0,-2.3125 z m 0,2.3125 0,2.281253 0.59375,0 0.28125,-2.281253 -0.875,0 z m 0,2.281253 -2.21875,0 0,2.3125 2.21875,0 0,-2.3125 z m 0,2.3125 0,2.28125 0.28125,-2.28125 -0.28125,0 z m 0,2.28125 -2.21875,0 0,2.3125 1.9375,0 0.28125,-2.25 0,-0.0625 z m -2.21875,2.3125 -2.28125,0 0,2.28125 2.28125,0 0,-2.28125 z m 0,2.281247 0,2.312485 1.1875,0 c 0.004,-0.0197 -0.004,-0.0428 0,-0.0625 l 0.1875,0 0.28125,-2.249985 -1.65625,0 z m 0,2.312485 -2.28125,0 0,2.281232 2.28125,0 0,-2.281232 z m 0,2.281232 0,0.59375 c 0.11901,-0.19233 0.2407,-0.39879 0.34375,-0.59375 l -0.34375,0 z m -2.28125,0 -2.21875,0 0,2.3125 2.21875,0 0,-2.3125 z m 0,2.3125 0,1 c 0.35227,-0.3246 0.69645,-0.66467 1,-1 l -1,0 z m -2.21875,0 -2.3125,0 0,2.21875 2.3125,0 0,-2.21875 z m 0,2.21875 0,0.53125 c 0.25457,-0.17579 0.51057,-0.35127 0.75,-0.53125 l -0.75,0 z m -2.3125,0 -2.28125,0 0,2.28125 1.65625,0 c 0.205894,-0.10825 0.425418,-0.20207 0.625,-0.3125 l 0,-1.96875 z m -2.28125,2.28125 -2.21875,0 0,1.78125 c 0.764693,-0.30116 1.512507,-0.61196 2.21875,-0.9375 l 0,-0.84375 z m -2.21875,0 0,-2.28125 -2.3125,0 0,2.28125 2.3125,0 z m -2.3125,0 -2.28125,0 0,2.3125 2.28125,0 0,-2.3125 z m 0,2.3125 0,0.28125 c 0.288613,-0.0973 0.561817,-0.18062 0.84375,-0.28125 l -0.84375,0 z m -2.28125,0 -2.21875,0 0,1.625 c 0.758145,-0.19044 1.494432,-0.41436 2.21875,-0.625 l 0,-1 z m -2.21875,0 0,-2.3125 -2.28125,0 0,2.3125 2.28125,0 z m -2.28125,0 -2.3125,0 0,2.28125 1.65625,0 c 0.215855,-0.0443 0.442613,-0.0791 0.65625,-0.125 l 0,-2.15625 z m -2.3125,2.28125 -2.21875,0 0,0.6875 c 0.747761,-0.11378 1.492704,-0.24319 2.21875,-0.375 l 0,-0.3125 z m -2.21875,0 0,-2.28125 -2.28125,0 0,2.28125 2.28125,0 z m -2.28125,0 -2.21875,0 0,1.25 c 0.748361,-0.073 1.487353,-0.15948 2.21875,-0.25 l 0,-1 z m -2.21875,0 0,-2.28125 -2.3125,0 0,2.28125 2.3125,0 z m -2.3125,0 -2.28125,0 0,1.5625 c 0.766446,-0.0356 1.528684,-0.0713 2.28125,-0.125 l 0,-1.4375 z m -2.28125,0 0,-2.28125 -2.21875,0 0,2.28125 2.21875,0 z m -2.21875,0 -2.3125,0 0,1.6875 c 0.04215,6e-5 0.08282,0 0.125,0 0.738727,0 1.458822,-0.0458 2.1875,-0.0625 l 0,-1.625 z m -2.3125,0 0,-2.28125 -2.28125,0 0,2.28125 2.28125,0 z m -2.28125,0 -2.21875,0 0,1.5625 c 0.732151,0.0358 1.474904,0.0437 2.21875,0.0625 l 0,-1.625 z m -2.21875,0 0,-2.28125 -2.28125,0 0,2.28125 2.28125,0 z m -2.28125,0 -2.3125,0 0,1.21875 c 0.766728,0.0768 1.529153,0.12974 2.3125,0.1875 l 0,-1.40625 z m -2.3125,0 0,-2.28125 -2.21875,0 0,2.28125 2.21875,0 z m -2.21875,0 -2.28125,0 0,0.65625 c 0.748384,0.11596 1.512383,0.21529 2.28125,0.3125 l 0,-0.96875 z m -2.28125,0 0,-2.28125 -2.21875,0 0,2.28125 2.21875,0 z m -2.21875,0 -1.4375,0 c 0.473288,0.097 0.953883,0.19199 1.4375,0.28125 l 0,-0.28125 z m 0,-2.28125 0,-2.3125 -2.3125,0 0,2.3125 2.3125,0 z m -2.3125,0 -2.28125,0 0,1.5625 c 0.752267,0.19175 1.497342,0.36039 2.28125,0.53125 l 0,-2.09375 z m -2.28125,0 0,-2.3125 -2.21875,0 0,2.3125 2.21875,0 z m -2.21875,0 -2.28125,0 0,0.21875 c 0.735217,0.2516 1.5038,0.48943 2.28125,0.71875 l 0,-0.9375 z m -2.28125,0 0,-2.3125 -2.3125,0 0,1.6875 c 0.546447,0.21858 1.112218,0.41967 1.6875,0.625 l 0.625,0 z m -2.3125,-2.3125 0,-2.28125 -2.21875,0 0,2.28125 2.21875,0 z m -2.21875,0 -1.4375,0 c 0.476193,0.25036 0.928558,0.51172 1.4375,0.75 l 0,-0.75 z m 0,-2.28125 0,-2.21875 -2.28125,0 0,2.21875 2.28125,0 z m -2.28125,0 -2.3125,0 0,0.375 c 0.713117,0.50461 1.4813,1.00023 2.3125,1.46875 l 0,-1.84375 z m -2.3125,0 0,-2.21875 -2.21875,0 0,0.78125 c 0.512025,0.48963 1.070598,0.97379 1.6875,1.4375 l 0.53125,0 z m -2.21875,-2.21875 0,-2.3125 -2.28125,0 0,0.25 c 0.401154,0.70966 0.892176,1.39105 1.5,2.0625 l 0.78125,0 z m -2.28125,-2.3125 0,-2.281232 -0.96875,0 c 0.149585,0.780192 0.449242,1.534842 0.84375,2.281232 l 0.125,0 z m 0,-2.281232 2.28125,0 0,-2.312482 -2.28125,0 0,2.312482 z m 0,-2.312482 0,-2.28125 -1.71875,0 0.28125,2.28125 1.4375,0 z m 0,-2.28125 2.28125,0 0,-2.3125 -2.28125,0 0,2.3125 z m 0,-2.3125 0,-2.28125 -2.21875,0 0,0.59375 0.21875,1.6875 2,0 z m -2.21875,-2.28125 0,-2.3125 -0.375,0 0.3125,2.3125 0.0625,0 z m 0,-2.3125 2.21875,0 0,-2.281253 -2.21875,0 0,2.281253 z m 0,-2.281253 0,-2.3125 -0.9375,0 0.28125,2.3125 0.65625,0 z m 0,-2.3125 2.21875,0 0,-2.28125 -2.21875,0 0,2.28125 z m 0,-2.28125 0,-2.3125 -1.5,0 0.28125,2.3125 1.21875,0 z m 0,-2.3125 2.21875,0 0,-2.21875 -2.21875,0 0,2.21875 z m 0,-2.21875 0,-2.28125 -2.0625,0 0.28125,2.28125 1.78125,0 z m 0,-2.28125 2.21875,0 0,-2.3125 -2.21875,0 0,2.3125 z m 0,-2.3125 0,-2.28125 -2.3125,0 0,2.28125 2.3125,0 z m -2.3125,0 -0.03125,0 0.03125,0.3125 0,-0.3125 z m 0,-2.28125 0,-2.3125 -0.59375,0 0.28125,2.3125 0.3125,0 z m 0,-2.3125 2.3125,0 0,-2.28125 -2.3125,0 0,2.28125 z m 0,-2.28125 0,-2.3125 -1.1875,0 0.28125,2.3125 0.90625,0 z m 0,-2.3125 2.3125,0 0,-2.28125 -2.3125,0 0,2.28125 z m 0,-2.28125 0,-2.3125 -1.75,0 0.28125,2.3125 1.46875,0 z m 0,-2.3125 2.3125,0 0,-2.28125 -2.3125,0 0,2.28125 z m 0,-2.28125 0,-2.3125 -2.28125,0 0,0.34375 0.25,1.96875 2.03125,0 z m -2.28125,-2.3125 0,-2.281253 -0.3125,0 0.28125,2.281253 0.03125,0 z m 0,-2.281253 2.28125,0 0,-2.21875 -2.28125,0 0,2.21875 z m 0,-2.21875 0,-2.3125 -0.875,0 0.28125,2.3125 0.59375,0 z m 0,-2.3125 2.28125,0 0,-2.28125 -2.28125,0 0,2.28125 z m 0,-2.28125 0,-2.3125 -1.46875,0 0.28125,2.3125 1.1875,0 z m 0,-2.3125 2.28125,0 0,-2.28125 -2.28125,0 0,2.28125 z m 0,-2.28125 0,-2.3125 -1.875,0 -0.15625,0 0.28125,2.3125 1.75,0 z m 0,-2.3125 2.28125,0 0,-2.28125 -2.28125,0 0,2.28125 z m 0,-2.28125 0,-2.28125 -1.96875,0 0.0625,2.28125 1.90625,0 z m 0,-2.28125 2.28125,0 0,-2.3125 -2.28125,0 0,2.3125 z m 0,-2.3125 0,-2.28125 -2.03125,0 c -0.0013,0.05121 0,0.104928 0,0.15625 l 0.03125,2.125 2,0 z m 0,-2.28125 2.28125,0 0,-2.3125 -2.28125,0 0,2.3125 z m 0,-2.3125 0,-2.28125 -0.09375,0 c -0.623744,0.744264 -1.079202,1.497898 -1.40625,2.28125 l 1.5,0 z m 0,-2.28125 2.28125,0 c 0.378693,-3.1564 -0.783618,-1.680662 -2.28125,-0.09375 l 0,0.09375 z m 4.59375,0 2.21875,0 -2.21875,0 z m 68,0 2.21875,0 -2.21875,0 z m 4.5,0 2.3125,0 -2.3125,0 z m 2.3125,0 0,2.28125 2.21875,0 0,-2.28125 -2.21875,0 z m 2.21875,0 2.28125,0 -2.28125,0 z m 2.28125,0 0,2.28125 2.21875,0 0,-2.28125 -2.21875,0 z m 2.21875,2.28125 0,2.3125 2.3125,0 0,-2.3125 -2.3125,0 z m 0,2.3125 -2.21875,0 0,2.28125 2.21875,0 0,-2.28125 z m 0,2.28125 0,2.3125 2.3125,0 0,-2.3125 -2.3125,0 z m 0,2.3125 -2.21875,0 0,2.28125 2.21875,0 0,-2.28125 z m 0,2.28125 0,2.28125 2.3125,0 0,-2.28125 -2.3125,0 z m 0,2.28125 -2.21875,0 0,2.3125 2.21875,0 0,-2.3125 z m 0,2.3125 0,2.28125 2.3125,0 0,-2.28125 -2.3125,0 z m 0,2.28125 -2.21875,0 0,2.3125 2.21875,0 0,-2.3125 z m 0,2.3125 0,2.28125 2.3125,0 0,-2.28125 -2.3125,0 z m 0,2.28125 -2.21875,0 0,2.3125 2.21875,0 0,-2.3125 z m 0,2.3125 0,2.21875 2.3125,0 0,-2.21875 -2.3125,0 z m 0,2.21875 -2.21875,0 0,2.281253 2.21875,0 0,-2.281253 z m -2.21875,2.281253 -2.28125,0 0,2.3125 2.28125,0 0,-2.3125 z m 0,2.3125 0,2.28125 2.21875,0 0,-2.28125 -2.21875,0 z m 0,2.28125 -2.28125,0 0,2.3125 2.28125,0 0,-2.3125 z m 0,2.3125 0,2.28125 2.21875,0 0,-2.28125 -2.21875,0 z m 0,2.28125 -2.28125,0 0,2.3125 2.28125,0 0,-2.3125 z m 0,2.3125 0,2.28125 2.21875,0 0,-2.28125 -2.21875,0 z m 0,2.28125 -2.28125,0 0,2.3125 2.28125,0 0,-2.3125 z m 0,2.3125 0,2.28125 2.21875,0 0,-2.28125 -2.21875,0 z m 0,2.28125 -2.28125,0 0,2.3125 2.28125,0 0,-2.3125 z m -2.28125,2.3125 -2.21875,0 0,2.28125 2.21875,0 0,-2.28125 z m 0,2.28125 0,2.21875 2.28125,0 0,-2.21875 -2.28125,0 z m 0,2.21875 -2.21875,0 0,2.3125 2.21875,0 0,-2.3125 z m 0,2.3125 0,2.28125 2.28125,0 0,-2.28125 -2.28125,0 z m 0,2.28125 -2.21875,0 0,2.3125 2.21875,0 0,-2.3125 z m 0,2.3125 0,2.281253 2.28125,0 0,-2.281253 -2.28125,0 z m 0,2.281253 -2.21875,0 0,2.3125 2.21875,0 0,-2.3125 z m 0,2.3125 0,2.28125 2.28125,0 0,-2.28125 -2.28125,0 z m 0,2.28125 -2.21875,0 0,2.3125 2.21875,0 0,-2.3125 z m -2.21875,2.3125 -2.3125,0 0,2.28125 2.3125,0 0,-2.28125 z m 0,2.28125 0,2.312482 2.21875,0 0,-2.312482 -2.21875,0 z m 0,2.312482 -2.3125,0 0,2.281232 2.3125,0 0,-2.281232 z m -2.3125,2.281232 -2.28125,0 0,2.3125 2.28125,0 0,-2.3125 z m -2.28125,2.3125 -2.21875,0 0,2.21875 2.21875,0 0,-2.21875 z m -2.21875,0 0,-2.3125 -2.3125,0 0,2.3125 2.3125,0 z m -2.3125,0 -2.28125,0 0,2.21875 2.28125,0 0,-2.21875 z m -2.28125,2.21875 -2.21875,0 0,2.28125 2.21875,0 0,-2.28125 z m -2.21875,0 0,-2.21875 -2.28125,0 0,2.21875 2.28125,0 z m -2.28125,0 -2.3125,0 0,2.28125 2.3125,0 0,-2.28125 z m -2.3125,2.28125 -2.21875,0 0,2.3125 2.21875,0 0,-2.3125 z m -2.21875,0 0,-2.28125 -2.28125,0 0,2.28125 2.28125,0 z m -2.28125,0 -2.21875,0 0,2.3125 2.21875,0 0,-2.3125 z m -2.21875,0 0,-2.28125 -2.3125,0 0,2.28125 2.3125,0 z m -2.3125,0 -2.28125,0 0,2.3125 2.28125,0 0,-2.3125 z m -2.28125,0 0,-2.28125 -2.21875,0 0,2.28125 2.21875,0 z m -2.21875,0 -2.3125,0 0,2.3125 2.3125,0 0,-2.3125 z m -2.3125,0 0,-2.28125 -2.28125,0 0,2.28125 2.28125,0 z m -2.28125,0 -2.21875,0 0,2.3125 2.21875,0 0,-2.3125 z m -2.21875,0 0,-2.28125 -2.28125,0 0,2.28125 2.28125,0 z m -2.28125,0 -2.3125,0 0,2.3125 2.3125,0 0,-2.3125 z m -2.3125,0 0,-2.28125 -2.21875,0 0,2.28125 2.21875,0 z m -2.21875,0 -2.28125,0 0,2.3125 2.28125,0 0,-2.3125 z m -2.28125,0 0,-2.28125 -2.21875,0 0,2.28125 2.21875,0 z m -2.21875,-2.28125 0,-2.21875 -2.3125,0 0,2.21875 2.3125,0 z m -2.3125,0 -2.28125,0 0,2.28125 2.28125,0 0,-2.28125 z m -2.28125,0 0,-2.21875 -2.21875,0 0,2.21875 2.21875,0 z m -2.21875,0 -2.28125,0 0,2.28125 2.28125,0 0,-2.28125 z m -2.28125,0 0,-2.21875 -2.3125,0 0,2.21875 2.3125,0 z m -2.3125,-2.21875 0,-2.3125 -2.21875,0 0,2.3125 2.21875,0 z m -2.21875,-2.3125 0,-2.281232 -2.28125,0 0,2.281232 2.28125,0 z m -2.28125,0 -2.3125,0 0,2.3125 2.3125,0 0,-2.3125 z m -2.3125,0 0,-2.281232 -2.21875,0 0,2.281232 2.21875,0 z m 0,-2.281232 2.3125,0 0,-2.312482 -2.3125,0 0,2.312482 z m 0,-2.312482 0,-2.28125 -2.21875,0 0,2.28125 2.21875,0 z m 0,-2.28125 2.3125,0 0,-2.3125 -2.3125,0 0,2.3125 z m 0,-2.3125 0,-2.28125 -2.21875,0 0,2.28125 2.21875,0 z m -2.21875,-2.28125 0,-2.3125 -2.28125,0 0,2.3125 2.28125,0 z m 0,-2.3125 2.21875,0 0,-2.281253 -2.21875,0 0,2.281253 z m 0,-2.281253 0,-2.3125 -2.28125,0 0,2.3125 2.28125,0 z m 0,-2.3125 2.21875,0 0,-2.28125 -2.21875,0 0,2.28125 z m 0,-2.28125 0,-2.3125 -2.28125,0 0,2.3125 2.28125,0 z m 0,-2.3125 2.21875,0 0,-2.21875 -2.21875,0 0,2.21875 z m 0,-2.21875 0,-2.28125 -2.28125,0 0,2.28125 2.28125,0 z m 0,-2.28125 2.21875,0 0,-2.3125 -2.21875,0 0,2.3125 z m 0,-2.3125 0,-2.28125 -2.28125,0 0,2.28125 2.28125,0 z m -2.28125,-2.28125 0,-2.3125 -2.21875,0 0,2.3125 2.21875,0 z m 0,-2.3125 2.28125,0 0,-2.28125 -2.28125,0 0,2.28125 z m 0,-2.28125 0,-2.3125 -2.21875,0 0,2.3125 2.21875,0 z m 0,-2.3125 2.28125,0 0,-2.28125 -2.28125,0 0,2.28125 z m 0,-2.28125 0,-2.3125 -2.21875,0 0,2.3125 2.21875,0 z m 0,-2.3125 2.28125,0 0,-2.28125 -2.28125,0 0,2.28125 z m 0,-2.28125 0,-2.3125 -2.21875,0 0,2.3125 2.21875,0 z m -2.21875,-2.3125 0,-2.281253 -2.3125,0 0,2.281253 2.3125,0 z m 0,-2.281253 2.21875,0 0,-2.21875 -2.21875,0 0,2.21875 z m 0,-2.21875 0,-2.3125 -2.3125,0 0,2.3125 2.3125,0 z m 0,-2.3125 2.21875,0 0,-2.28125 -2.21875,0 0,2.28125 z m 0,-2.28125 0,-2.3125 -2.3125,0 0,2.3125 2.3125,0 z m 0,-2.3125 2.21875,0 0,-2.28125 -2.21875,0 0,2.28125 z m 0,-2.28125 0,-2.3125 -2.3125,0 0,2.3125 2.3125,0 z m 0,-2.3125 2.21875,0 0,-2.28125 -2.21875,0 0,2.28125 z m 0,-2.28125 0,-2.28125 -2.3125,0 0,2.28125 2.3125,0 z m 0,-2.28125 2.21875,0 0,-2.3125 -2.21875,0 0,2.3125 z m 0,-2.3125 0,-2.28125 -2.3125,0 0,2.28125 2.3125,0 z m 0,-2.28125 2.21875,0 0,-2.3125 -2.21875,0 0,2.3125 z m 0,-2.3125 0,-2.28125 -2.3125,0 0,2.28125 2.3125,0 z m 2.21875,0 2.28125,0 0,-2.28125 -2.28125,0 0,2.28125 z M 30.125,23.8 l 2.21875,0 -2.21875,0 z m 4.53125,0 2.28125,0 -2.28125,0 z m 4.5,0 2.3125,0 -2.3125,0 z m 27.21875,0 2.3125,0 -2.3125,0 z m 4.53125,0 2.28125,0 -2.28125,0 z m 4.59375,0 2.21875,0 -2.21875,0 z m 2.21875,0 0,2.28125 2.28125,0 0,-2.28125 -2.28125,0 z M 80,23.8 82.21875,23.8 80,23.8 z m 2.21875,0 0,2.28125 2.3125,0 0,-2.28125 -2.3125,0 z m 2.3125,0 2.28125,0 -2.28125,0 z m 2.28125,0 0,2.28125 2.21875,0 0,-2.28125 -2.21875,0 z m 2.21875,0 2.28125,0 -2.28125,0 z m 2.28125,0 0,2.28125 2.3125,0 0,-2.28125 -2.3125,0 z m 2.3125,2.28125 0,2.3125 2.21875,0 0,-2.3125 -2.21875,0 z m 2.21875,0 2.28125,0 0,-2.28125 -2.28125,0 0,2.28125 z m 2.28125,0 0,2.3125 2.3125,0 0,-2.3125 -2.3125,0 z m 2.3125,2.3125 0,2.28125 2.21875,0 0,-2.28125 -2.21875,0 z m 2.21875,0 2.28125,0 0,-2.3125 -2.28125,0 0,2.3125 z m 0,2.28125 0,2.3125 2.28125,0 0,-2.3125 -2.28125,0 z m 0,2.3125 -2.21875,0 0,2.28125 2.21875,0 0,-2.28125 z m 0,2.28125 0,2.28125 2.28125,0 0,-2.28125 -2.28125,0 z m 0,2.28125 -2.21875,0 0,2.3125 2.21875,0 0,-2.3125 z m 0,2.3125 0,2.28125 2.28125,0 0,-2.28125 -2.28125,0 z m 0,2.28125 -2.21875,0 0,2.3125 2.21875,0 0,-2.3125 z m 0,2.3125 0,2.28125 2.28125,0 0,-2.28125 -2.28125,0 z m 0,2.28125 -2.21875,0 0,2.3125 2.21875,0 0,-2.3125 z m 0,2.3125 0,2.21875 2.28125,0 0,-2.21875 -2.28125,0 z m 0,2.21875 -2.21875,0 0,2.281253 2.21875,0 0,-2.281253 z m -2.21875,2.281253 -2.3125,0 0,2.3125 2.3125,0 0,-2.3125 z m 0,2.3125 0,2.28125 2.21875,0 0,-2.28125 -2.21875,0 z m 0,2.28125 -2.3125,0 0,2.3125 2.3125,0 0,-2.3125 z m 0,2.3125 0,2.28125 2.21875,0 0,-2.28125 -2.21875,0 z m 0,2.28125 -2.3125,0 0,2.3125 2.3125,0 0,-2.3125 z m 0,2.3125 0,2.28125 2.21875,0 0,-2.28125 -2.21875,0 z m 0,2.28125 -2.3125,0 0,2.3125 2.3125,0 0,-2.3125 z m 0,2.3125 0,2.28125 2.21875,0 0,-2.28125 -2.21875,0 z m 0,2.28125 -2.3125,0 0,2.3125 2.3125,0 0,-2.3125 z m -2.3125,2.3125 -2.28125,0 0,2.28125 2.28125,0 0,-2.28125 z m 0,2.28125 0,2.21875 2.3125,0 0,-2.21875 -2.3125,0 z m 0,2.21875 -2.28125,0 0,2.3125 2.28125,0 0,-2.3125 z m 0,2.3125 0,2.28125 2.3125,0 0,-2.28125 -2.3125,0 z m 0,2.28125 -2.28125,0 0,2.3125 2.28125,0 0,-2.3125 z m 0,2.3125 0,2.281253 2.3125,0 0,-2.281253 -2.3125,0 z m 0,2.281253 -2.28125,0 0,2.3125 2.28125,0 0,-2.3125 z m 0,2.3125 0,2.28125 2.3125,0 0,-2.28125 -2.3125,0 z m 0,2.28125 -2.28125,0 0,2.3125 2.28125,0 0,-2.3125 z m -2.28125,2.3125 -2.21875,0 0,2.28125 2.21875,0 0,-2.28125 z m 0,2.28125 0,2.312482 2.28125,0 0,-2.312482 -2.28125,0 z m 0,2.312482 -2.21875,0 0,2.281232 2.21875,0 0,-2.281232 z m -2.21875,0 0,-2.312482 -2.3125,0 0,2.312482 2.3125,0 z m -2.3125,0 -2.28125,0 0,2.281232 2.28125,0 0,-2.281232 z m -2.28125,2.281232 -2.21875,0 0,2.3125 2.21875,0 0,-2.3125 z m -2.21875,0 0,-2.281232 -2.28125,0 0,2.281232 2.28125,0 z m -2.28125,0 -2.3125,0 0,2.3125 2.3125,0 0,-2.3125 z m -2.3125,2.3125 -2.21875,0 0,2.21875 2.21875,0 0,-2.21875 z m -2.21875,0 0,-2.3125 -2.28125,0 0,2.3125 2.28125,0 z m -2.28125,0 -2.21875,0 0,2.21875 2.21875,0 0,-2.21875 z m -2.21875,0 0,-2.3125 -2.3125,0 0,2.3125 2.3125,0 z m -2.3125,0 -2.28125,0 0,2.21875 2.28125,0 0,-2.21875 z m -2.28125,0 0,-2.3125 -2.21875,0 0,2.3125 2.21875,0 z m -2.21875,0 -2.3125,0 0,2.21875 2.3125,0 0,-2.21875 z m -2.3125,0 0,-2.3125 -2.28125,0 0,2.3125 2.28125,0 z m -2.28125,0 -2.21875,0 0,2.21875 2.21875,0 0,-2.21875 z m -2.21875,0 0,-2.3125 -2.28125,0 0,2.3125 2.28125,0 z m -2.28125,0 -2.3125,0 0,2.21875 2.3125,0 0,-2.21875 z m -2.3125,0 0,-2.3125 -2.21875,0 0,2.3125 2.21875,0 z m -2.21875,0 -2.28125,0 0,2.21875 2.28125,0 0,-2.21875 z m -2.28125,0 0,-2.3125 -2.21875,0 0,2.3125 2.21875,0 z m -2.21875,-2.3125 0,-2.281232 -2.3125,0 0,2.281232 2.3125,0 z m -2.3125,0 -2.28125,0 0,2.3125 2.28125,0 0,-2.3125 z m -2.28125,0 0,-2.281232 -2.21875,0 0,2.281232 2.21875,0 z m -2.21875,0 -2.28125,0 0,2.3125 2.28125,0 0,-2.3125 z m -2.28125,0 0,-2.281232 -2.3125,0 0,2.281232 2.3125,0 z m -2.3125,-2.281232 0,-2.312482 -2.21875,0 0,2.312482 2.21875,0 z m -2.21875,-2.312482 0,-2.28125 -2.28125,0 0,2.28125 2.28125,0 z m 0,-2.28125 2.21875,0 0,-2.3125 -2.21875,0 0,2.3125 z m 0,-2.3125 0,-2.28125 -2.28125,0 0,2.28125 2.28125,0 z m -2.28125,-2.28125 0,-2.3125 -2.3125,0 0,2.3125 2.3125,0 z m 0,-2.3125 2.28125,0 0,-2.281253 -2.28125,0 0,2.281253 z m 0,-2.281253 0,-2.3125 -2.3125,0 0,2.3125 2.3125,0 z m 0,-2.3125 2.28125,0 0,-2.28125 -2.28125,0 0,2.28125 z m 0,-2.28125 0,-2.3125 -2.3125,0 0,2.3125 2.3125,0 z m 0,-2.3125 2.28125,0 0,-2.21875 -2.28125,0 0,2.21875 z m 0,-2.21875 0,-2.28125 -2.3125,0 0,2.28125 2.3125,0 z m 0,-2.28125 2.28125,0 0,-2.3125 -2.28125,0 0,2.3125 z m 0,-2.3125 0,-2.28125 -2.3125,0 0,2.28125 2.3125,0 z m -2.3125,-2.28125 0,-2.3125 -2.21875,0 0,2.3125 2.21875,0 z m 0,-2.3125 2.3125,0 0,-2.28125 -2.3125,0 0,2.28125 z m 0,-2.28125 0,-2.3125 -2.21875,0 0,2.3125 2.21875,0 z m 0,-2.3125 2.3125,0 0,-2.28125 -2.3125,0 0,2.28125 z m 0,-2.28125 0,-2.3125 -2.21875,0 0,2.3125 2.21875,0 z m 0,-2.3125 2.3125,0 0,-2.28125 -2.3125,0 0,2.28125 z m 0,-2.28125 0,-2.3125 -2.21875,0 0,2.3125 2.21875,0 z m -2.21875,-2.3125 0,-2.281253 -2.28125,0 0,2.281253 2.28125,0 z m 0,-2.281253 2.21875,0 0,-2.21875 -2.21875,0 0,2.21875 z m 0,-2.21875 0,-2.3125 -2.28125,0 0,2.3125 2.28125,0 z m 0,-2.3125 2.21875,0 0,-2.28125 -2.21875,0 0,2.28125 z m 0,-2.28125 0,-2.3125 -2.28125,0 0,2.3125 2.28125,0 z m 0,-2.3125 2.21875,0 0,-2.28125 -2.21875,0 0,2.28125 z m 0,-2.28125 0,-2.3125 -2.28125,0 0,2.3125 2.28125,0 z m 0,-2.3125 2.21875,0 0,-2.28125 -2.21875,0 0,2.28125 z m 0,-2.28125 0,-2.28125 -2.28125,0 0,2.28125 2.28125,0 z m 0,-2.28125 2.21875,0 0,-2.3125 -2.21875,0 0,2.3125 z m 0,-2.3125 0,-2.28125 -2.28125,0 0,2.28125 2.28125,0 z m 0,-2.28125 2.21875,0 0,-2.3125 -2.21875,0 0,2.3125 z m 2.21875,-2.3125 2.3125,0 0,-2.28125 -2.3125,0 0,2.28125 z m 2.3125,0 0,2.3125 2.28125,0 0,-2.3125 -2.28125,0 z m 2.28125,0 2.21875,0 0,-2.28125 -2.21875,0 0,2.28125 z m 2.21875,0 0,2.3125 2.3125,0 0,-2.3125 -2.3125,0 z m 2.3125,0 2.28125,0 0,-2.28125 -2.28125,0 0,2.28125 z M 43.75,23.8 l 2.21875,0 -2.21875,0 z m 2.21875,0 0,2.28125 2.28125,0 0,-2.28125 -2.28125,0 z m 2.28125,0 2.3125,0 -2.3125,0 z m 2.3125,0 0,2.28125 2.21875,0 0,-2.28125 -2.21875,0 z m 2.21875,0 2.28125,0 -2.28125,0 z m 4.5,0 2.3125,0 -2.3125,0 z m 4.59375,0 2.21875,0 -2.21875,0 z m 2.21875,0 0,2.28125 2.28125,0 0,-2.28125 -2.28125,0 z m 2.28125,2.28125 0,2.3125 2.3125,0 0,-2.3125 -2.3125,0 z m 2.3125,0 2.21875,0 0,-2.28125 -2.21875,0 0,2.28125 z m 2.21875,0 0,2.3125 2.28125,0 0,-2.3125 -2.28125,0 z m 2.28125,0 2.3125,0 0,-2.28125 -2.3125,0 0,2.28125 z m 2.3125,0 0,2.3125 2.21875,0 0,-2.3125 -2.21875,0 z m 2.21875,2.3125 0,2.28125 2.28125,0 0,-2.28125 -2.28125,0 z m 2.28125,0 2.21875,0 0,-2.3125 -2.21875,0 0,2.3125 z m 2.21875,0 0,2.28125 2.3125,0 0,-2.28125 -2.3125,0 z m 2.3125,0 2.28125,0 0,-2.3125 -2.28125,0 0,2.3125 z m 2.28125,0 0,2.28125 2.21875,0 0,-2.28125 -2.21875,0 z m 2.21875,0 2.28125,0 0,-2.3125 -2.28125,0 0,2.3125 z m 2.28125,0 0,2.28125 2.3125,0 0,-2.28125 -2.3125,0 z m 2.3125,2.28125 0,2.3125 2.21875,0 0,-2.3125 -2.21875,0 z m 2.21875,0 2.28125,0 0,-2.28125 -2.28125,0 0,2.28125 z m 2.28125,0 0,2.3125 2.3125,0 0,-2.3125 -2.3125,0 z m 0,2.3125 -2.28125,0 0,2.28125 2.28125,0 0,-2.28125 z m 0,2.28125 0,2.28125 2.3125,0 0,-2.28125 -2.3125,0 z m 0,2.28125 -2.28125,0 0,2.3125 2.28125,0 0,-2.3125 z m 0,2.3125 0,2.28125 2.3125,0 0,-2.28125 -2.3125,0 z m 0,2.28125 -2.28125,0 0,2.3125 2.28125,0 0,-2.3125 z m 0,2.3125 0,2.28125 2.3125,0 0,-2.28125 -2.3125,0 z m 0,2.28125 -2.28125,0 0,2.3125 2.28125,0 0,-2.3125 z m 0,2.3125 0,2.21875 2.3125,0 0,-2.21875 -2.3125,0 z m 0,2.21875 -2.28125,0 0,2.281253 2.28125,0 0,-2.281253 z m -2.28125,2.281253 -2.21875,0 0,2.3125 2.21875,0 0,-2.3125 z m 0,2.3125 0,2.28125 2.28125,0 0,-2.28125 -2.28125,0 z m 0,2.28125 -2.21875,0 0,2.3125 2.21875,0 0,-2.3125 z m 0,2.3125 0,2.28125 2.28125,0 0,-2.28125 -2.28125,0 z m 0,2.28125 -2.21875,0 0,2.3125 2.21875,0 0,-2.3125 z m 0,2.3125 0,2.28125 2.28125,0 0,-2.28125 -2.28125,0 z m 0,2.28125 -2.21875,0 0,2.3125 2.21875,0 0,-2.3125 z m 0,2.3125 0,2.28125 2.28125,0 0,-2.28125 -2.28125,0 z m 0,2.28125 -2.21875,0 0,2.3125 2.21875,0 0,-2.3125 z m -2.21875,2.3125 -2.3125,0 0,2.28125 2.3125,0 0,-2.28125 z m 0,2.28125 0,2.21875 2.21875,0 0,-2.21875 -2.21875,0 z m 0,2.21875 -2.3125,0 0,2.3125 2.3125,0 0,-2.3125 z m 0,2.3125 0,2.28125 2.21875,0 0,-2.28125 -2.21875,0 z m 0,2.28125 -2.3125,0 0,2.3125 2.3125,0 0,-2.3125 z m 0,2.3125 0,2.281253 2.21875,0 0,-2.281253 -2.21875,0 z m 0,2.281253 -2.3125,0 0,2.3125 2.3125,0 0,-2.3125 z m 0,2.3125 0,2.28125 2.21875,0 0,-2.28125 -2.21875,0 z m 0,2.28125 -2.3125,0 0,2.3125 2.3125,0 0,-2.3125 z m -2.3125,2.3125 -2.28125,0 0,2.28125 2.28125,0 0,-2.28125 z m -2.28125,2.28125 -2.21875,0 0,2.312482 2.21875,0 0,-2.312482 z m -2.21875,0 0,-2.28125 -2.28125,0 0,2.28125 2.28125,0 z m -2.28125,0 -2.3125,0 0,2.312482 2.3125,0 0,-2.312482 z m -2.3125,2.312482 -2.21875,0 0,2.281232 2.21875,0 0,-2.281232 z m -2.21875,0 0,-2.312482 -2.28125,0 0,2.312482 2.28125,0 z m -2.28125,0 -2.21875,0 0,2.281232 2.21875,0 0,-2.281232 z m -2.21875,0 0,-2.312482 -2.3125,0 0,2.312482 2.3125,0 z m -2.3125,0 -2.28125,0 0,2.281232 2.28125,0 0,-2.281232 z m -2.28125,0 0,-2.312482 -2.21875,0 0,2.312482 2.21875,0 z m -2.21875,0 -2.3125,0 0,2.281232 2.3125,0 0,-2.281232 z m -2.3125,0 0,-2.312482 -2.28125,0 0,2.312482 2.28125,0 z m -2.28125,0 -2.21875,0 0,2.281232 2.21875,0 0,-2.281232 z m -2.21875,0 0,-2.312482 -2.28125,0 0,2.312482 2.28125,0 z m -2.28125,0 -2.3125,0 0,2.281232 2.3125,0 0,-2.281232 z m -2.3125,0 0,-2.312482 -2.21875,0 0,2.312482 2.21875,0 z m -2.21875,0 -2.28125,0 0,2.281232 2.28125,0 0,-2.281232 z m -2.28125,0 0,-2.312482 -2.21875,0 0,2.312482 2.21875,0 z m -2.21875,-2.312482 0,-2.28125 -2.3125,0 0,2.28125 2.3125,0 z m -2.3125,0 -2.28125,0 0,2.312482 2.28125,0 0,-2.312482 z m -2.28125,0 0,-2.28125 -2.21875,0 0,2.28125 2.21875,0 z m -2.21875,0 -2.28125,0 0,2.312482 2.28125,0 0,-2.312482 z m -2.28125,0 0,-2.28125 -2.3125,0 0,2.28125 2.3125,0 z m 0,-2.28125 2.28125,0 0,-2.3125 -2.28125,0 0,2.3125 z m 0,-2.3125 0,-2.28125 -2.3125,0 0,2.28125 2.3125,0 z m -2.3125,-2.28125 0,-2.3125 -2.21875,0 0,2.3125 2.21875,0 z m 0,-2.3125 2.3125,0 0,-2.281253 -2.3125,0 0,2.281253 z m 0,-2.281253 0,-2.3125 -2.21875,0 0,2.3125 2.21875,0 z m 0,-2.3125 2.3125,0 0,-2.28125 -2.3125,0 0,2.28125 z m 0,-2.28125 0,-2.3125 -2.21875,0 0,2.3125 2.21875,0 z m 0,-2.3125 2.3125,0 0,-2.21875 -2.3125,0 0,2.21875 z m 0,-2.21875 0,-2.28125 -2.21875,0 0,2.28125 2.21875,0 z m 0,-2.28125 2.3125,0 0,-2.3125 -2.3125,0 0,2.3125 z m 0,-2.3125 0,-2.28125 -2.21875,0 0,2.28125 2.21875,0 z m -2.21875,-2.28125 0,-2.3125 -2.28125,0 0,2.3125 2.28125,0 z m 0,-2.3125 2.21875,0 0,-2.28125 -2.21875,0 0,2.28125 z m 0,-2.28125 0,-2.3125 -2.28125,0 0,2.3125 2.28125,0 z m 0,-2.3125 2.21875,0 0,-2.28125 -2.21875,0 0,2.28125 z m 0,-2.28125 0,-2.3125 -2.28125,0 0,2.3125 2.28125,0 z m 0,-2.3125 2.21875,0 0,-2.28125 -2.21875,0 0,2.28125 z m 0,-2.28125 0,-2.3125 -2.28125,0 0,2.3125 2.28125,0 z m -2.28125,-2.3125 0,-2.281253 -2.3125,0 0,2.281253 2.3125,0 z m 0,-2.281253 2.28125,0 0,-2.21875 -2.28125,0 0,2.21875 z m 0,-2.21875 0,-2.3125 -2.3125,0 0,2.3125 2.3125,0 z m 0,-2.3125 2.28125,0 0,-2.28125 -2.28125,0 0,2.28125 z m 0,-2.28125 0,-2.3125 -2.3125,0 0,2.3125 2.3125,0 z m 0,-2.3125 2.28125,0 0,-2.28125 -2.28125,0 0,2.28125 z m 0,-2.28125 0,-2.3125 -2.3125,0 0,2.3125 2.3125,0 z m 0,-2.3125 2.28125,0 0,-2.28125 -2.28125,0 0,2.28125 z m 0,-2.28125 0,-2.28125 -2.3125,0 0,2.28125 2.3125,0 z m 0,-2.28125 2.28125,0 0,-2.3125 -2.28125,0 0,2.3125 z m 0,-2.3125 0,-2.28125 -2.3125,0 0,2.28125 2.3125,0 z m 2.28125,0 2.21875,0 0,-2.28125 -2.21875,0 0,2.28125 z m 2.21875,0 0,2.3125 2.3125,0 0,-2.3125 -2.3125,0 z m 2.3125,0 2.28125,0 0,-2.28125 -2.28125,0 0,2.28125 z m 2.28125,-2.28125 2.21875,0 0,-2.3125 -2.21875,0 0,2.3125 z m 2.21875,0 0,2.28125 2.28125,0 0,-2.28125 -2.28125,0 z m 2.28125,0 2.3125,0 0,-2.3125 -2.3125,0 0,2.3125 z m 2.3125,0 0,2.28125 2.21875,0 0,-2.28125 -2.21875,0 z m 2.21875,0 2.28125,0 0,-2.3125 -2.28125,0 0,2.3125 z m 2.28125,-2.3125 2.21875,0 0,-2.28125 -2.21875,0 0,2.28125 z m 2.21875,0 0,2.3125 2.3125,0 0,-2.3125 -2.3125,0 z m 2.3125,0 2.28125,0 0,-2.28125 -2.28125,0 0,2.28125 z m 2.28125,0 0,2.3125 2.21875,0 0,-2.3125 -2.21875,0 z m 2.21875,2.3125 0,2.28125 2.28125,0 0,-2.28125 -2.28125,0 z m 2.28125,2.28125 0,2.3125 2.3125,0 0,-2.3125 -2.3125,0 z m 2.3125,0 2.21875,0 0,-2.28125 -2.21875,0 0,2.28125 z m 2.21875,0 0,2.3125 2.28125,0 0,-2.3125 -2.28125,0 z m 2.28125,0 2.3125,0 0,-2.28125 -2.3125,0 0,2.28125 z m 2.3125,0 0,2.3125 2.21875,0 0,-2.3125 -2.21875,0 z m 2.21875,2.3125 0,2.28125 2.28125,0 0,-2.28125 -2.28125,0 z m 2.28125,0 2.21875,0 0,-2.3125 -2.21875,0 0,2.3125 z m 2.21875,0 0,2.28125 2.3125,0 0,-2.28125 -2.3125,0 z m 2.3125,0 2.28125,0 0,-2.3125 -2.28125,0 0,2.3125 z m 2.28125,0 0,2.28125 2.21875,0 0,-2.28125 -2.21875,0 z m 2.21875,0 2.28125,0 0,-2.3125 -2.28125,0 0,2.3125 z m 2.28125,0 0,2.28125 2.3125,0 0,-2.28125 -2.3125,0 z m 2.3125,2.28125 0,2.28125 2.21875,0 0,-2.28125 -2.21875,0 z m 0,2.28125 -2.3125,0 0,2.3125 2.3125,0 0,-2.3125 z m 0,2.3125 0,2.28125 2.21875,0 0,-2.28125 -2.21875,0 z m 0,2.28125 -2.3125,0 0,2.3125 2.3125,0 0,-2.3125 z m 0,2.3125 0,2.28125 2.21875,0 0,-2.28125 -2.21875,0 z m 0,2.28125 -2.3125,0 0,2.3125 2.3125,0 0,-2.3125 z m 0,2.3125 0,2.21875 2.21875,0 0,-2.21875 -2.21875,0 z m 0,2.21875 -2.3125,0 0,2.281253 2.3125,0 0,-2.281253 z m -2.3125,2.281253 -2.28125,0 0,2.3125 2.28125,0 0,-2.3125 z m 0,2.3125 0,2.28125 2.3125,0 0,-2.28125 -2.3125,0 z m 0,2.28125 -2.28125,0 0,2.3125 2.28125,0 0,-2.3125 z m 0,2.3125 0,2.28125 2.3125,0 0,-2.28125 -2.3125,0 z m 0,2.28125 -2.28125,0 0,2.3125 2.28125,0 0,-2.3125 z m 0,2.3125 0,2.28125 2.3125,0 0,-2.28125 -2.3125,0 z m 0,2.28125 -2.28125,0 0,2.3125 2.28125,0 0,-2.3125 z m 0,2.3125 0,2.28125 2.3125,0 0,-2.28125 -2.3125,0 z m 0,2.28125 -2.28125,0 0,2.3125 2.28125,0 0,-2.3125 z m -2.28125,2.3125 -2.21875,0 0,2.28125 2.21875,0 0,-2.28125 z m 0,2.28125 0,2.21875 2.28125,0 0,-2.21875 -2.28125,0 z m 0,2.21875 -2.21875,0 0,2.3125 2.21875,0 0,-2.3125 z m 0,2.3125 0,2.28125 2.28125,0 0,-2.28125 -2.28125,0 z m 0,2.28125 -2.21875,0 0,2.3125 2.21875,0 0,-2.3125 z m 0,2.3125 0,2.281253 2.28125,0 0,-2.281253 -2.28125,0 z m 0,2.281253 -2.21875,0 0,2.3125 2.21875,0 0,-2.3125 z m 0,2.3125 0,2.28125 2.28125,0 0,-2.28125 -2.28125,0 z m 0,2.28125 -2.21875,0 0,2.3125 2.21875,0 0,-2.3125 z m -2.21875,0 0,-2.28125 -2.28125,0 0,2.28125 2.28125,0 z m -2.28125,0 -2.3125,0 0,2.3125 2.3125,0 0,-2.3125 z m -2.3125,2.3125 -2.21875,0 0,2.28125 2.21875,0 0,-2.28125 z m -2.21875,0 0,-2.3125 -2.28125,0 0,2.3125 2.28125,0 z m -2.28125,0 -2.21875,0 0,2.28125 2.21875,0 0,-2.28125 z m -2.21875,0 0,-2.3125 -2.3125,0 0,2.3125 2.3125,0 z m -2.3125,0 -2.28125,0 0,2.28125 2.28125,0 0,-2.28125 z m -2.28125,0 0,-2.3125 -2.21875,0 0,2.3125 2.21875,0 z m -2.21875,0 -2.3125,0 0,2.28125 2.3125,0 0,-2.28125 z m -2.3125,0 0,-2.3125 -2.28125,0 0,2.3125 2.28125,0 z m -2.28125,0 -2.21875,0 0,2.28125 2.21875,0 0,-2.28125 z m -2.21875,0 0,-2.3125 -2.28125,0 0,2.3125 2.28125,0 z m -2.28125,0 -2.3125,0 0,2.28125 2.3125,0 0,-2.28125 z m -2.3125,0 0,-2.3125 -2.21875,0 0,2.3125 2.21875,0 z m -2.21875,0 -2.28125,0 0,2.28125 2.28125,0 0,-2.28125 z m -2.28125,0 0,-2.3125 -2.21875,0 0,2.3125 2.21875,0 z m -2.21875,-2.3125 0,-2.28125 -2.3125,0 0,2.28125 2.3125,0 z m -2.3125,0 -2.28125,0 0,2.3125 2.28125,0 0,-2.3125 z m -2.28125,0 0,-2.28125 -2.21875,0 0,2.28125 2.21875,0 z m -2.21875,-2.28125 0,-2.3125 -2.28125,0 0,2.3125 2.28125,0 z m 0,-2.3125 2.21875,0 0,-2.281253 -2.21875,0 0,2.281253 z m 0,-2.281253 0,-2.3125 -2.28125,0 0,2.3125 2.28125,0 z m 0,-2.3125 2.21875,0 0,-2.28125 -2.21875,0 0,2.28125 z m 0,-2.28125 0,-2.3125 -2.28125,0 0,2.3125 2.28125,0 z m 0,-2.3125 2.21875,0 0,-2.21875 -2.21875,0 0,2.21875 z m 0,-2.21875 0,-2.28125 -2.28125,0 0,2.28125 2.28125,0 z m 0,-2.28125 2.21875,0 0,-2.3125 -2.21875,0 0,2.3125 z m 0,-2.3125 0,-2.28125 -2.28125,0 0,2.28125 2.28125,0 z m -2.28125,-2.28125 0,-2.3125 -2.3125,0 0,2.3125 2.3125,0 z m 0,-2.3125 2.28125,0 0,-2.28125 -2.28125,0 0,2.28125 z m 0,-2.28125 0,-2.3125 -2.3125,0 0,2.3125 2.3125,0 z m 0,-2.3125 2.28125,0 0,-2.28125 -2.28125,0 0,2.28125 z m 0,-2.28125 0,-2.3125 -2.3125,0 0,2.3125 2.3125,0 z m 0,-2.3125 2.28125,0 0,-2.28125 -2.28125,0 0,2.28125 z m 0,-2.28125 0,-2.3125 -2.3125,0 0,2.3125 2.3125,0 z m -2.3125,-2.3125 0,-2.281253 -2.21875,0 0,2.281253 2.21875,0 z m 0,-2.281253 2.3125,0 0,-2.21875 -2.3125,0 0,2.21875 z m 0,-2.21875 0,-2.3125 -2.21875,0 0,2.3125 2.21875,0 z m 0,-2.3125 2.3125,0 0,-2.28125 -2.3125,0 0,2.28125 z m 0,-2.28125 0,-2.3125 -2.21875,0 0,2.3125 2.21875,0 z m 0,-2.3125 2.3125,0 0,-2.28125 -2.3125,0 0,2.28125 z m 0,-2.28125 0,-2.3125 -2.21875,0 0,2.3125 2.21875,0 z m 0,-2.3125 2.3125,0 0,-2.28125 -2.3125,0 0,2.28125 z m 0,-2.28125 0,-2.28125 -2.21875,0 0,2.28125 2.21875,0 z m 2.3125,0 2.28125,0 0,-2.28125 -2.28125,0 0,2.28125 z M 43.75,32.9875 l 2.21875,0 0,-2.3125 -2.21875,0 0,2.3125 z m 2.21875,0 0,2.28125 2.28125,0 0,-2.28125 -2.28125,0 z m 2.28125,0 2.3125,0 0,-2.3125 -2.3125,0 0,2.3125 z m 2.3125,0 0,2.28125 2.21875,0 0,-2.28125 -2.21875,0 z m 2.21875,0 2.28125,0 0,-2.3125 -2.28125,0 0,2.3125 z m 2.28125,-2.3125 2.21875,0 0,-2.28125 -2.21875,0 0,2.28125 z m 2.21875,0 0,2.3125 2.3125,0 0,-2.3125 -2.3125,0 z m 2.3125,0 2.28125,0 0,-2.28125 -2.28125,0 0,2.28125 z m 2.28125,0 0,2.3125 2.21875,0 0,-2.3125 -2.21875,0 z m 2.21875,2.3125 0,2.28125 2.28125,0 0,-2.28125 -2.28125,0 z m 2.28125,2.28125 0,2.28125 2.3125,0 0,-2.28125 -2.3125,0 z m 2.3125,0 2.21875,0 0,-2.28125 -2.21875,0 0,2.28125 z m 2.21875,0 0,2.28125 2.28125,0 0,-2.28125 -2.28125,0 z m 2.28125,0 2.3125,0 0,-2.28125 -2.3125,0 0,2.28125 z m 2.3125,0 0,2.28125 2.21875,0 0,-2.28125 -2.21875,0 z m 2.21875,2.28125 0,2.3125 2.28125,0 0,-2.3125 -2.28125,0 z m 2.28125,0 2.21875,0 0,-2.28125 -2.21875,0 0,2.28125 z m 2.21875,0 0,2.3125 2.3125,0 0,-2.3125 -2.3125,0 z m 2.3125,0 2.28125,0 0,-2.28125 -2.28125,0 0,2.28125 z m 2.28125,0 0,2.3125 2.21875,0 0,-2.3125 -2.21875,0 z m 2.21875,0 2.28125,0 0,-2.28125 -2.28125,0 0,2.28125 z m 0,2.3125 0,2.28125 2.28125,0 0,-2.28125 -2.28125,0 z m 0,2.28125 -2.21875,0 0,2.3125 2.21875,0 0,-2.3125 z m 0,2.3125 0,2.28125 2.28125,0 0,-2.28125 -2.28125,0 z m 0,2.28125 -2.21875,0 0,2.3125 2.21875,0 0,-2.3125 z m 0,2.3125 0,2.21875 2.28125,0 0,-2.21875 -2.28125,0 z m 0,2.21875 -2.21875,0 0,2.281253 2.21875,0 0,-2.281253 z m -2.21875,2.281253 -2.28125,0 0,2.3125 2.28125,0 0,-2.3125 z m 0,2.3125 0,2.28125 2.21875,0 0,-2.28125 -2.21875,0 z m 0,2.28125 -2.28125,0 0,2.3125 2.28125,0 0,-2.3125 z m 0,2.3125 0,2.28125 2.21875,0 0,-2.28125 -2.21875,0 z m 0,2.28125 -2.28125,0 0,2.3125 2.28125,0 0,-2.3125 z m 0,2.3125 0,2.28125 2.21875,0 0,-2.28125 -2.21875,0 z m 0,2.28125 -2.28125,0 0,2.3125 2.28125,0 0,-2.3125 z m 0,2.3125 0,2.28125 2.21875,0 0,-2.28125 -2.21875,0 z m 0,2.28125 -2.28125,0 0,2.3125 2.28125,0 0,-2.3125 z m -2.28125,2.3125 -2.3125,0 0,2.28125 2.3125,0 0,-2.28125 z m 0,2.28125 0,2.21875 2.28125,0 0,-2.21875 -2.28125,0 z m 0,2.21875 -2.3125,0 0,2.3125 2.3125,0 0,-2.3125 z m 0,2.3125 0,2.28125 2.28125,0 0,-2.28125 -2.28125,0 z m 0,2.28125 -2.3125,0 0,2.3125 2.3125,0 0,-2.3125 z m 0,2.3125 0,2.281253 2.28125,0 0,-2.281253 -2.28125,0 z m 0,2.281253 -2.3125,0 0,2.3125 2.3125,0 0,-2.3125 z m -2.3125,2.3125 -2.21875,0 0,2.28125 2.21875,0 0,-2.28125 z m -2.21875,0 0,-2.3125 -2.28125,0 0,2.3125 2.28125,0 z m -2.28125,0 -2.21875,0 0,2.28125 2.21875,0 0,-2.28125 z m -2.21875,0 0,-2.3125 -2.3125,0 0,2.3125 2.3125,0 z m -2.3125,0 -2.28125,0 0,2.28125 2.28125,0 0,-2.28125 z m -2.28125,0 0,-2.3125 -2.21875,0 0,2.3125 2.21875,0 z m -2.21875,0 -2.3125,0 0,2.28125 2.3125,0 0,-2.28125 z m -2.3125,0 0,-2.3125 -2.28125,0 0,2.3125 2.28125,0 z m -2.28125,0 -2.21875,0 0,2.28125 2.21875,0 0,-2.28125 z m -2.21875,0 0,-2.3125 -2.28125,0 0,2.3125 2.28125,0 z m -2.28125,0 -2.3125,0 0,2.28125 2.3125,0 0,-2.28125 z m -2.3125,0 0,-2.3125 -2.21875,0 0,2.3125 2.21875,0 z m -2.21875,0 -2.28125,0 0,2.28125 2.28125,0 0,-2.28125 z m -2.28125,0 0,-2.3125 -2.21875,0 0,2.3125 2.21875,0 z m -2.21875,-2.3125 0,-2.281253 -2.3125,0 0,2.281253 2.3125,0 z m -2.3125,0 -2.28125,0 0,2.3125 2.28125,0 0,-2.3125 z m 0,-2.281253 0,-2.3125 -2.28125,0 0,2.3125 2.28125,0 z m 0,-2.3125 2.3125,0 0,-2.28125 -2.3125,0 0,2.28125 z m 0,-2.28125 0,-2.3125 -2.28125,0 0,2.3125 2.28125,0 z m 0,-2.3125 2.3125,0 0,-2.21875 -2.3125,0 0,2.21875 z m 0,-2.21875 0,-2.28125 -2.28125,0 0,2.28125 2.28125,0 z m 0,-2.28125 2.3125,0 0,-2.3125 -2.3125,0 0,2.3125 z m 0,-2.3125 0,-2.28125 -2.28125,0 0,2.28125 2.28125,0 z m -2.28125,-2.28125 0,-2.3125 -2.21875,0 0,2.3125 2.21875,0 z m 0,-2.3125 2.28125,0 0,-2.28125 -2.28125,0 0,2.28125 z m 0,-2.28125 0,-2.3125 -2.21875,0 0,2.3125 2.21875,0 z m 0,-2.3125 2.28125,0 0,-2.28125 -2.28125,0 0,2.28125 z m 0,-2.28125 0,-2.3125 -2.21875,0 0,2.3125 2.21875,0 z m 0,-2.3125 2.28125,0 0,-2.28125 -2.28125,0 0,2.28125 z m 0,-2.28125 0,-2.3125 -2.21875,0 0,2.3125 2.21875,0 z m -2.21875,-2.3125 0,-2.281253 -2.28125,0 0,2.281253 2.28125,0 z m 0,-2.281253 2.21875,0 0,-2.21875 -2.21875,0 0,2.21875 z m 0,-2.21875 0,-2.3125 -2.28125,0 0,2.3125 2.28125,0 z m 0,-2.3125 2.21875,0 0,-2.28125 -2.21875,0 0,2.28125 z m 0,-2.28125 0,-2.3125 -2.28125,0 0,2.3125 2.28125,0 z m 0,-2.3125 2.21875,0 0,-2.28125 -2.21875,0 0,2.28125 z m 0,-2.28125 0,-2.3125 -2.28125,0 0,2.3125 2.28125,0 z m 0,-2.3125 2.21875,0 0,-2.28125 -2.21875,0 0,2.28125 z m 2.21875,0 0,2.3125 2.28125,0 0,-2.3125 -2.28125,0 z m 2.28125,0 2.3125,0 0,-2.28125 -2.3125,0 0,2.28125 z m 2.3125,0 0,2.3125 2.21875,0 0,-2.3125 -2.21875,0 z m 2.21875,0 2.28125,0 0,-2.28125 -2.28125,0 0,2.28125 z m 2.28125,-2.28125 2.21875,0 0,-2.28125 -2.21875,0 0,2.28125 z m 2.21875,0 0,2.28125 2.3125,0 0,-2.28125 -2.3125,0 z m 2.3125,0 2.28125,0 0,-2.28125 -2.28125,0 0,2.28125 z m 2.28125,0 0,2.28125 2.21875,0 0,-2.28125 -2.21875,0 z m 2.21875,2.28125 0,2.3125 2.28125,0 0,-2.3125 -2.28125,0 z m 2.28125,2.3125 0,2.28125 2.3125,0 0,-2.28125 -2.3125,0 z m 2.3125,0 2.21875,0 0,-2.3125 -2.21875,0 0,2.3125 z m 2.21875,0 0,2.28125 2.28125,0 0,-2.28125 -2.28125,0 z m 2.28125,0 2.3125,0 0,-2.3125 -2.3125,0 0,2.3125 z m 2.3125,0 0,2.28125 2.21875,0 0,-2.28125 -2.21875,0 z m 2.21875,2.28125 0,2.3125 2.28125,0 0,-2.3125 -2.28125,0 z m 2.28125,0 2.21875,0 0,-2.28125 -2.21875,0 0,2.28125 z m 2.21875,0 0,2.3125 2.3125,0 0,-2.3125 -2.3125,0 z m 2.3125,0 2.28125,0 0,-2.28125 -2.28125,0 0,2.28125 z m 0,2.3125 0,2.28125 2.28125,0 0,-2.28125 -2.28125,0 z m 0,2.28125 -2.3125,0 0,2.3125 2.3125,0 0,-2.3125 z m 0,2.3125 0,2.21875 2.28125,0 0,-2.21875 -2.28125,0 z m 0,2.21875 -2.3125,0 0,2.281253 2.3125,0 0,-2.281253 z m -2.3125,2.281253 -2.21875,0 0,2.3125 2.21875,0 0,-2.3125 z m 0,2.3125 0,2.28125 2.3125,0 0,-2.28125 -2.3125,0 z m 0,2.28125 -2.21875,0 0,2.3125 2.21875,0 0,-2.3125 z m 0,2.3125 0,2.28125 2.3125,0 0,-2.28125 -2.3125,0 z m 0,2.28125 -2.21875,0 0,2.3125 2.21875,0 0,-2.3125 z m 0,2.3125 0,2.28125 2.3125,0 0,-2.28125 -2.3125,0 z m 0,2.28125 -2.21875,0 0,2.3125 2.21875,0 0,-2.3125 z m 0,2.3125 0,2.28125 2.3125,0 0,-2.28125 -2.3125,0 z m 0,2.28125 -2.21875,0 0,2.3125 2.21875,0 0,-2.3125 z M 80,74.237503 l -2.28125,0 0,2.28125 2.28125,0 0,-2.28125 z m 0,2.28125 0,2.21875 2.21875,0 0,-2.21875 -2.21875,0 z m 0,2.21875 -2.28125,0 0,2.3125 2.28125,0 0,-2.3125 z m 0,2.3125 0,2.28125 2.21875,0 0,-2.28125 -2.21875,0 z m 0,2.28125 -2.28125,0 0,2.3125 2.28125,0 0,-2.3125 z m 0,2.3125 0,2.281253 2.21875,0 0,-2.281253 -2.21875,0 z m -2.28125,0 -2.21875,0 0,2.281253 2.21875,0 0,-2.281253 z m -2.21875,0 0,-2.3125 -2.3125,0 0,2.3125 2.3125,0 z m -2.3125,0 -2.28125,0 0,2.281253 2.28125,0 0,-2.281253 z m -2.28125,0 0,-2.3125 -2.21875,0 0,2.3125 2.21875,0 z m -2.21875,0 -2.3125,0 0,2.281253 2.3125,0 0,-2.281253 z m -2.3125,0 0,-2.3125 -2.28125,0 0,2.3125 2.28125,0 z m -2.28125,0 -2.21875,0 0,2.281253 2.21875,0 0,-2.281253 z m -2.21875,0 0,-2.3125 -2.28125,0 0,2.3125 2.28125,0 z m -2.28125,0 -2.3125,0 0,2.281253 2.3125,0 0,-2.281253 z m -2.3125,0 0,-2.3125 -2.21875,0 0,2.3125 2.21875,0 z m -2.21875,0 -2.28125,0 0,2.281253 2.28125,0 0,-2.281253 z m -2.28125,0 0,-2.3125 -2.21875,0 0,2.3125 2.21875,0 z m 0,-2.3125 2.28125,0 0,-2.28125 -2.28125,0 0,2.28125 z m 0,-2.28125 0,-2.3125 -2.21875,0 0,2.3125 2.21875,0 z m 0,-2.3125 2.28125,0 0,-2.21875 -2.28125,0 0,2.21875 z m 0,-2.21875 0,-2.28125 -2.21875,0 0,2.28125 2.21875,0 z m 0,-2.28125 2.28125,0 0,-2.3125 -2.28125,0 0,2.3125 z m 0,-2.3125 0,-2.28125 -2.21875,0 0,2.28125 2.21875,0 z m -2.21875,-2.28125 0,-2.3125 -2.3125,0 0,2.3125 2.3125,0 z m 0,-2.3125 2.21875,0 0,-2.28125 -2.21875,0 0,2.28125 z m 0,-2.28125 0,-2.3125 -2.3125,0 0,2.3125 2.3125,0 z m 0,-2.3125 2.21875,0 0,-2.28125 -2.21875,0 0,2.28125 z m 0,-2.28125 0,-2.3125 -2.3125,0 0,2.3125 2.3125,0 z m 0,-2.3125 2.21875,0 0,-2.28125 -2.21875,0 0,2.28125 z m 0,-2.28125 0,-2.3125 -2.3125,0 0,2.3125 2.3125,0 z m -2.3125,-2.3125 0,-2.281253 -2.28125,0 0,2.281253 2.28125,0 z m 0,-2.281253 2.3125,0 0,-2.21875 -2.3125,0 0,2.21875 z m 0,-2.21875 0,-2.3125 -2.28125,0 0,2.3125 2.28125,0 z m 0,-2.3125 2.3125,0 0,-2.28125 -2.3125,0 0,2.28125 z m 0,-2.28125 0,-2.3125 -2.28125,0 0,2.3125 2.28125,0 z m 0,-2.3125 2.3125,0 0,-2.28125 -2.3125,0 0,2.28125 z m 2.3125,0 0,2.3125 2.21875,0 0,-2.3125 -2.21875,0 z m 2.21875,0 2.28125,0 0,-2.28125 -2.28125,0 0,2.28125 z m 2.28125,-2.28125 2.21875,0 0,-2.3125 -2.21875,0 0,2.3125 z m 2.21875,0 0,2.28125 2.3125,0 0,-2.28125 -2.3125,0 z m 2.3125,0 2.28125,0 0,-2.3125 -2.28125,0 0,2.3125 z m 2.28125,0 0,2.28125 2.21875,0 0,-2.28125 -2.21875,0 z m 2.21875,2.28125 0,2.3125 2.28125,0 0,-2.3125 -2.28125,0 z m 2.28125,2.3125 0,2.28125 2.3125,0 0,-2.28125 -2.3125,0 z m 2.3125,0 2.21875,0 0,-2.3125 -2.21875,0 0,2.3125 z m 2.21875,0 0,2.28125 2.28125,0 0,-2.28125 -2.28125,0 z m 2.28125,0 2.3125,0 0,-2.3125 -2.3125,0 0,2.3125 z m 2.3125,0 0,2.28125 2.21875,0 0,-2.28125 -2.21875,0 z m 2.21875,2.28125 0,2.3125 2.28125,0 0,-2.3125 -2.28125,0 z m 2.28125,0 2.21875,0 0,-2.28125 -2.21875,0 0,2.28125 z m 0,2.3125 0,2.21875 2.21875,0 0,-2.21875 -2.21875,0 z m 0,2.21875 -2.28125,0 0,2.281253 2.28125,0 0,-2.281253 z m -2.28125,2.281253 -2.21875,0 0,2.3125 2.21875,0 0,-2.3125 z m 0,2.3125 0,2.28125 2.28125,0 0,-2.28125 -2.28125,0 z m 0,2.28125 -2.21875,0 0,2.3125 2.21875,0 0,-2.3125 z m 0,2.3125 0,2.28125 2.28125,0 0,-2.28125 -2.28125,0 z m 0,2.28125 -2.21875,0 0,2.3125 2.21875,0 0,-2.3125 z m 0,2.3125 0,2.28125 2.28125,0 0,-2.28125 -2.28125,0 z m 0,2.28125 -2.21875,0 0,2.3125 2.21875,0 0,-2.3125 z m 0,2.3125 0,2.28125 2.28125,0 0,-2.28125 -2.28125,0 z m 0,2.28125 -2.21875,0 0,2.3125 2.21875,0 0,-2.3125 z m -2.21875,2.3125 -2.3125,0 0,2.28125 2.3125,0 0,-2.28125 z m 0,2.28125 0,2.21875 2.21875,0 0,-2.21875 -2.21875,0 z m 0,2.21875 -2.3125,0 0,2.3125 2.3125,0 0,-2.3125 z m 0,2.3125 0,2.28125 2.21875,0 0,-2.28125 -2.21875,0 z m -2.3125,0 -2.28125,0 0,2.28125 2.28125,0 0,-2.28125 z m -2.28125,0 0,-2.3125 -2.21875,0 0,2.3125 2.21875,0 z m -2.21875,0 -2.3125,0 0,2.28125 2.3125,0 0,-2.28125 z m -2.3125,0 0,-2.3125 -2.28125,0 0,2.3125 2.28125,0 z m -2.28125,0 -2.21875,0 0,2.28125 2.21875,0 0,-2.28125 z m -2.21875,0 0,-2.3125 -2.28125,0 0,2.3125 2.28125,0 z m -2.28125,0 -2.3125,0 0,2.28125 2.3125,0 0,-2.28125 z m -2.3125,0 0,-2.3125 -2.21875,0 0,2.3125 2.21875,0 z m 0,-2.3125 2.3125,0 0,-2.21875 -2.3125,0 0,2.21875 z m 0,-2.21875 0,-2.28125 -2.21875,0 0,2.28125 2.21875,0 z m 0,-2.28125 2.3125,0 0,-2.3125 -2.3125,0 0,2.3125 z m 0,-2.3125 0,-2.28125 -2.21875,0 0,2.28125 2.21875,0 z m -2.21875,-2.28125 0,-2.3125 -2.28125,0 0,2.3125 2.28125,0 z m 0,-2.3125 2.21875,0 0,-2.28125 -2.21875,0 0,2.28125 z m 0,-2.28125 0,-2.3125 -2.28125,0 0,2.3125 2.28125,0 z m 0,-2.3125 2.21875,0 0,-2.28125 -2.21875,0 0,2.28125 z m 0,-2.28125 0,-2.3125 -2.28125,0 0,2.3125 2.28125,0 z m 0,-2.3125 2.21875,0 0,-2.28125 -2.21875,0 0,2.28125 z m 0,-2.28125 0,-2.3125 -2.28125,0 0,2.3125 2.28125,0 z m -2.28125,-2.3125 0,-2.281253 -2.21875,0 0,2.281253 2.21875,0 z m 0,-2.281253 2.28125,0 0,-2.21875 -2.28125,0 0,2.21875 z m 0,-2.21875 0,-2.3125 -2.21875,0 0,2.3125 2.21875,0 z m 0,-2.3125 2.28125,0 0,-2.28125 -2.28125,0 0,2.28125 z m 2.28125,-2.28125 2.21875,0 0,-2.3125 -2.21875,0 0,2.3125 z m 2.21875,0 0,2.28125 2.3125,0 0,-2.28125 -2.3125,0 z m 2.3125,0 2.28125,0 0,-2.3125 -2.28125,0 0,2.3125 z m 2.28125,0 0,2.28125 2.21875,0 0,-2.28125 -2.21875,0 z m 2.21875,2.28125 0,2.3125 2.28125,0 0,-2.3125 -2.28125,0 z m 2.28125,2.3125 0,2.21875 2.3125,0 0,-2.21875 -2.3125,0 z m 2.3125,0 2.21875,0 0,-2.3125 -2.21875,0 0,2.3125 z m 2.21875,0 0,2.21875 2.28125,0 0,-2.21875 -2.28125,0 z m 2.28125,0 2.3125,0 0,-2.3125 -2.3125,0 0,2.3125 z m 2.3125,0 0,2.21875 2.21875,0 0,-2.21875 -2.21875,0 z m 0,2.21875 -2.3125,0 0,2.281253 2.3125,0 0,-2.281253 z m -2.3125,2.281253 -2.28125,0 0,2.3125 2.28125,0 0,-2.3125 z m 0,2.3125 0,2.28125 2.3125,0 0,-2.28125 -2.3125,0 z m 0,2.28125 -2.28125,0 0,2.3125 2.28125,0 0,-2.3125 z m 0,2.3125 0,2.28125 2.3125,0 0,-2.28125 -2.3125,0 z m 0,2.28125 -2.28125,0 0,2.3125 2.28125,0 0,-2.3125 z m 0,2.3125 0,2.28125 2.3125,0 0,-2.28125 -2.3125,0 z m 0,2.28125 -2.28125,0 0,2.3125 2.28125,0 0,-2.3125 z m 0,2.3125 0,2.28125 2.3125,0 0,-2.28125 -2.3125,0 z m 0,2.28125 -2.28125,0 0,2.3125 2.28125,0 0,-2.3125 z m -2.28125,2.3125 -2.21875,0 0,2.28125 2.21875,0 0,-2.28125 z m 0,2.28125 0,2.21875 2.28125,0 0,-2.21875 -2.28125,0 z m -2.21875,0 -2.3125,0 0,2.21875 2.3125,0 0,-2.21875 z m -2.3125,0 0,-2.28125 -2.28125,0 0,2.28125 2.28125,0 z m -2.28125,0 -2.21875,0 0,2.21875 2.21875,0 0,-2.21875 z m -2.21875,0 0,-2.28125 -2.28125,0 0,2.28125 2.28125,0 z m 0,-2.28125 2.21875,0 0,-2.3125 -2.21875,0 0,2.3125 z m 0,-2.3125 0,-2.28125 -2.28125,0 0,2.28125 2.28125,0 z m -2.28125,-2.28125 0,-2.3125 -2.3125,0 0,2.3125 2.3125,0 z m 0,-2.3125 2.28125,0 0,-2.28125 -2.28125,0 0,2.28125 z m 0,-2.28125 0,-2.3125 -2.3125,0 0,2.3125 2.3125,0 z m 0,-2.3125 2.28125,0 0,-2.28125 -2.28125,0 0,2.28125 z m 0,-2.28125 0,-2.3125 -2.3125,0 0,2.3125 2.3125,0 z m 0,-2.3125 2.28125,0 0,-2.28125 -2.28125,0 0,2.28125 z m 0,-2.28125 0,-2.3125 -2.3125,0 0,2.3125 2.3125,0 z m -2.3125,-2.3125 0,-2.281253 -2.21875,0 0,2.281253 2.21875,0 z m 0,-2.281253 2.3125,0 0,-2.21875 -2.3125,0 0,2.21875 z m 0,-2.21875 0,-2.3125 -2.21875,0 0,2.3125 2.21875,0 z m 2.3125,0 2.28125,0 0,-2.3125 -2.28125,0 0,2.3125 z m 2.28125,0 0,2.21875 2.21875,0 0,-2.21875 -2.21875,0 z m 2.21875,2.21875 0,2.281253 2.28125,0 0,-2.281253 -2.28125,0 z m 2.28125,2.281253 0,2.3125 2.3125,0 0,-2.3125 -2.3125,0 z m 2.3125,0 2.21875,0 0,-2.281253 -2.21875,0 0,2.281253 z m 0,2.3125 0,2.28125 2.21875,0 0,-2.28125 -2.21875,0 z m 0,2.28125 -2.3125,0 0,2.3125 2.3125,0 0,-2.3125 z m 0,2.3125 0,2.28125 2.21875,0 0,-2.28125 -2.21875,0 z m 0,2.28125 -2.3125,0 0,2.3125 2.3125,0 0,-2.3125 z m 0,2.3125 0,2.28125 2.21875,0 0,-2.28125 -2.21875,0 z m 0,2.28125 -2.3125,0 0,2.3125 2.3125,0 0,-2.3125 z m 0,2.3125 0,2.28125 2.21875,0 0,-2.28125 -2.21875,0 z m 0,2.28125 -2.3125,0 0,2.3125 2.3125,0 0,-2.3125 z m -2.3125,0 0,-2.28125 -2.28125,0 0,2.28125 2.28125,0 z m -2.28125,-2.28125 0,-2.3125 -2.21875,0 0,2.3125 2.21875,0 z m 0,-2.3125 2.28125,0 0,-2.28125 -2.28125,0 0,2.28125 z m 0,-2.28125 0,-2.3125 -2.21875,0 0,2.3125 2.21875,0 z m 0,-2.3125 2.28125,0 0,-2.28125 -2.28125,0 0,2.28125 z m 0,-2.28125 0,-2.3125 -2.21875,0 0,2.3125 2.21875,0 z m 0,-2.3125 2.28125,0 0,-2.28125 -2.28125,0 0,2.28125 z m 0,-2.28125 0,-2.3125 -2.21875,0 0,2.3125 2.21875,0 z m -2.21875,-2.3125 0,-2.281253 -2.28125,0 0,2.281253 2.28125,0 z M 113.96875,37.55 l 0,0.25 0.0312,-0.25 -0.0312,0 z"
         id="path3994"
         style="opacity:0.5;fill:url(#linearGradient3866);fill-opacity:1;stroke:none" />
      <path
         d="M 66.999999,12 C 40.93215,12 19.8,19.639142 19.8,29.0625 l 0.159457,9.187499 -0.159457,0 7.654055,63.000001 0.159458,0 c 1.572964,8.80172 18.583298,15.75 39.386486,15.75 20.803187,0 37.813481,-6.94828 39.386531,-15.75 l 0.15944,0 7.65403,-63.000001 -0.15944,0 L 114.2,29.0625 C 114.2,19.639142 93.067847,12 66.999999,12 z"
         id="path3912"
         style="opacity:0.2;fill:#ffffff;fill-opacity:1;stroke:none" />
      <path
         d="M 67.000002,87.5 C 43.527895,87.5 25.5,94.407608 25.5,102.92857 l 0,6.42858 C 27.213449,117.2884 45.373039,123.5 67.000002,123.5 88.626964,123.5 106.78656,117.2884 108.5,109.35715 l 0,-6.42858 C 108.5,94.407608 90.472109,87.5 67.000002,87.5 z"
         id="path2892"
         style="fill:url(#linearGradient3859);fill-opacity:1;stroke:url(#linearGradient3862);stroke-width:1;stroke-linecap:square;stroke-linejoin:round;stroke-miterlimit:4;stroke-opacity:1;stroke-dasharray:none" />
      <path
         d="m 104.3,104 c 0,6.35127 -17.141588,12.3 -37.300011,12.3 C 46.841626,116.3 29.7,110.35127 29.7,104 29.7,97.648722 46.841626,92.499998 66.999989,92.499998 87.158412,92.499998 104.3,97.648722 104.3,104 z"
         id="path2894"
         style="fill:url(#radialGradient3855);fill-opacity:1;stroke:none" />
      <path
         d="m 111.33753,43.742602 2.5503,0 -2.5503,0 z m 2.5503,0 0,0.327 0.0312,-0.327 -0.0312,0 z m -2.5503,0 -2.64475,0 0,2.648699 2.64475,0 0,-2.648699 z m 0,2.648699 0,2.746791 1.95207,0 0.3148,-2.746791 -2.26687,0 z m 0,2.746791 -2.64475,0 0,2.746797 2.64475,0 0,-2.746797 z m 0,2.746797 0,2.746794 1.29091,0 0.31482,-2.746794 -1.60573,0 z m 0,2.746794 -2.64475,0 0,2.746794 2.64475,0 0,-2.746794 z m 0,2.746794 0,2.746796 0.6297,0 0.31487,-2.746796 -0.94457,0 z m 0,2.746796 -2.64475,0 0,2.746793 2.64475,0 0,-2.746793 z m 0,2.746793 0,2.517898 0.31488,-2.517898 -0.31488,0 z m -2.64475,0 -2.55023,0 0,2.746801 2.55023,0 0,-2.746801 z m 0,2.746801 0,2.746795 2.29841,0 0.31488,-2.746795 -2.61329,0 z m 0,2.746795 -2.55023,0 0,2.746794 2.55023,0 0,-2.746794 z m 0,2.746794 0,2.746793 1.63726,0 0.31481,-2.746793 -1.95207,0 z m 0,2.746793 -2.55023,0 0,2.746795 2.55023,0 0,-2.746795 z m 0,2.746795 0,2.648698 0.97603,0 0.31489,-2.648698 -1.29092,0 z m 0,2.648698 -2.55023,0 0,2.746794 2.55023,0 0,-2.746794 z m 0,2.746794 0,2.746795 0.31488,0 0.34634,-2.746795 -0.66122,0 z m 0,2.746795 -2.55023,0 0,2.746796 2.55023,0 0,-0.03273 0,-2.714095 z m -2.55023,2.746796 -2.64475,0 0,2.746793 2.64475,0 0,-2.746793 z m 0,2.746793 0,2.746796 1.88908,0 0.31481,-2.746796 -2.20389,0 z m 0,2.746796 -2.64475,0 0,2.746793 2.64475,0 0,-2.746793 z m 0,2.746793 0,2.746794 1.22793,0 0.34627,-2.746794 -1.5742,0 z m 0,2.746794 -2.64475,0 0,2.746827 2.64475,0 0,-2.746827 z m 0,2.746827 0,1.53689 c 0.25611,-0.50877 0.47695,-1.01261 0.6297,-1.53689 l -0.6297,0 z m -2.64475,0 -2.64474,0 0,2.74676 2.64474,0 0,-2.74676 z m 0,2.74676 0,2.25633 c 0.75907,-0.73027 1.39319,-1.47663 1.92061,-2.25633 l -1.92061,0 z m -2.64474,0 -2.550249,0 0,2.74681 2.550249,0 0,-2.74681 z m 0,2.74681 0,1.63499 c 0.76978,-0.53074 1.5027,-1.06756 2.14096,-1.63499 l -2.14096,0 z m -2.550249,0 -2.644729,0 0,2.7468 2.644729,0 0,-2.7468 z m 0,2.7468 0,0.45779 c 0.273625,-0.14974 0.556107,-0.30414 0.818603,-0.45779 l -0.818603,0 z m -2.644729,0 -2.644727,0 0,2.64868 0.472272,0 c 0.748461,-0.28874 1.475356,-0.57073 2.172455,-0.8829 l 0,-1.76578 z m -2.644727,2.64868 -2.550272,0 0,1.04643 c 0.880965,-0.2788 1.72537,-0.57445 2.550272,-0.88292 l 0,-0.16351 z m -2.550272,0 0,-2.64868 -2.644728,0 0,2.64868 2.644728,0 z m -2.644728,0 -2.644729,0 0,2.4852 c 0.911104,-0.20263 1.775608,-0.42247 2.644729,-0.65396 l 0,-1.83124 z m -2.644729,0 0,-2.64868 -2.55027,0 0,2.64868 2.55027,0 z m -2.55027,0 -2.644728,0 0,2.74681 2.644728,0 0,-2.74681 z m 0,2.74681 0,0.26163 c 0.426917,-0.0789 0.840226,-0.17649 1.259391,-0.26163 l -1.259391,0 z m -2.644728,0 -2.550271,0 0,1.01371 c 0.861579,-0.10131 1.712802,-0.20188 2.550271,-0.32701 l 0,-0.6867 z m -2.550271,0 0,-2.74681 -2.644728,0 0,2.74681 2.644728,0 z m -2.644728,0 -2.644729,0 0,1.47149 c 0.884706,-0.049 1.779176,-0.0896 2.644729,-0.1635 l 0,-1.30799 z m -2.644729,0 0,-2.74681 -2.550271,0 0,2.74681 2.550271,0 z m -2.550271,0 -2.644728,0 0,1.635 c 0.03183,3e-5 0.0626,0 0.09445,0 0.861154,0 1.702779,-0.0417 2.550271,-0.0653 l 0,-1.56961 z m -2.644728,0 0,-2.74681 -2.644723,0 0,2.74681 2.644723,0 z m -2.644723,0 -2.550277,0 0,1.43882 c 0.842292,0.0485 1.692163,0.10543 2.550277,0.13079 l 0,-1.56961 z m -2.550277,0 0,-2.74681 -2.644724,0 0,2.74681 2.644724,0 z m -2.644724,0 -2.644725,0 0,1.01371 c 0.876985,0.1051 1.744668,0.18256 2.644725,0.26161 l 0,-1.27532 z m -2.644725,0 0,-2.74681 -2.550276,0 0,2.74681 2.550276,0 z m -2.550276,0 -2.644723,0 0,0.2289 c 0.860607,0.16144 1.75414,0.28984 2.644723,0.42513 l 0,-0.65403 z m -2.644723,0 0,-2.74681 -2.550277,0 0,2.45253 c 0.481022,0.10837 0.98764,0.19427 1.479793,0.29428 l 1.070484,0 z m -2.550277,-2.74681 0,-2.64868 -2.644722,0 0,2.64868 2.644722,0 z m -2.644722,0 -2.644729,0 0,0.98105 c 0.856853,0.27439 1.737903,0.57293 2.644729,0.81745 l 0,-1.7985 z m -2.644729,0 0,-2.64868 -2.55027,0 0,2.64868 2.55027,0 z m -2.55027,0 -0.283366,0 c 0.09306,0.0361 0.189543,0.0626 0.283366,0.0983 l 0,-0.0983 z m 0,-2.64868 0,-2.7468 -2.644729,0 0,2.7468 2.644729,0 z m -2.644729,0 -2.644728,0 0,0.32701 c 0.833158,0.46333 1.710816,0.91673 2.644728,1.3407 l 0,-1.66771 z m -2.644728,0 0,-2.7468 -2.550272,0 0,1.5042 c 0.602911,0.42395 1.23951,0.8439 1.920572,1.2426 l 0.6297,0 z m -2.550272,-2.7468 0,-2.74681 -2.644727,0 0,2.06012 c 0.227558,0.22603 0.444196,0.46581 0.692668,0.68669 l 1.952059,0 z m -2.644727,-2.74681 0,-2.74676 -2.644729,0 0,1.11176 c 0.24379,0.54809 0.55555,1.10646 0.913065,1.635 l 1.731664,0 z m -2.644729,-2.74676 0,-2.746827 -1.038995,0 0.220388,1.863917 0.188915,0 c 0.0516,0.29231 0.104949,0.59478 0.188908,0.88291 l 0.440784,0 z m 0,-2.746827 2.644729,0 0,-2.746794 -2.644729,0 0,2.746794 z m 0,-2.746794 0,-2.746793 -1.700183,0 0.314853,2.746793 1.38533,0 z m 0,-2.746793 2.644729,0 0,-2.746796 -2.644729,0 0,2.746796 z m 0,-2.746796 0,-2.746793 -2.361363,0 0.346335,2.746793 2.015028,0 z m 0,-2.746793 2.644729,0 0,-2.746796 -2.644729,0 0,2.746796 z m 0,-2.746796 0,-2.746795 -2.550271,0 0,2.746795 2.550271,0 z m -2.550271,0 -0.125939,0 0.125939,1.144497 0,-1.144497 z m 0,-2.746795 0,-2.746794 -0.787119,0 0.314847,2.746794 0.472272,0 z m 0,-2.746794 2.550271,0 0,-2.648698 -2.550271,0 0,2.648698 z m 0,-2.648698 0,-2.746795 -1.448306,0 0.346334,2.746795 1.101972,0 z m 0,-2.746795 2.550271,0 0,-2.746793 -2.550271,0 0,2.746793 z m 0,-2.746793 0,-2.746794 -2.109486,0 0.346334,2.746794 1.763152,0 z m 0,-2.746794 2.550271,0 0,-2.746795 -2.550271,0 0,2.746795 z m 0,-2.746795 0,-2.746801 -2.644728,0 0,0.915602 0.220396,1.831199 2.424332,0 z m -2.644728,-2.746801 0,-2.746793 -0.440784,0 0.314845,2.746793 0.125939,0 z m 0,-2.746793 2.644728,0 0,-2.746796 -2.644728,0 0,2.746796 z m 0,-2.746796 0,-2.746794 -1.101965,0 0.346328,2.746794 0.755637,0 z m 0,-2.746794 2.644728,0 0,-2.746794 -2.644728,0 0,2.746794 z m 0,-2.746794 0,-2.746797 -1.763152,0 0.346334,2.746797 1.416818,0 z m 0,-2.746797 2.644728,0 0,-2.746791 -2.644728,0 0,2.746791 z m 0,-2.746791 0,-2.648699 -2.392845,0 0.314846,2.648699 2.077999,0 z m 0,-2.648699 2.644728,0 -2.644728,0 z M 20,42.500003 l 0,0 z m 86.14255,1.242599 2.55023,0 -2.55023,0 z m 0,0 -2.64475,0 0,2.648699 2.64475,0 0,-2.648699 z m 0,2.648699 0,2.746791 2.55023,0 0,-2.746791 -2.55023,0 z m 0,2.746791 -2.64475,0 0,2.746797 2.64475,0 0,-2.746797 z m 0,2.746797 0,2.746794 2.55023,0 0,-2.746794 -2.55023,0 z m 0,2.746794 -2.64475,0 0,2.746794 2.64475,0 0,-2.746794 z m 0,2.746794 0,2.746796 2.55023,0 0,-2.746796 -2.55023,0 z m 0,2.746796 -2.64475,0 0,2.746793 2.64475,0 0,-2.746793 z m -2.64475,2.746793 -2.64474,0 0,2.746801 2.64474,0 0,-2.746801 z m 0,2.746801 0,2.746795 2.64475,0 0,-2.746795 -2.64475,0 z m 0,2.746795 -2.64474,0 0,2.746794 2.64474,0 0,-2.746794 z m 0,2.746794 0,2.746793 2.64475,0 0,-2.746793 -2.64475,0 z m 0,2.746793 -2.64474,0 0,2.746795 2.64474,0 0,-2.746795 z m 0,2.746795 0,2.648698 2.64475,0 0,-2.648698 -2.64475,0 z m 0,2.648698 -2.64474,0 0,2.746794 2.64474,0 0,-2.746794 z m 0,2.746794 0,2.746795 2.64475,0 0,-2.746795 -2.64475,0 z m 0,2.746795 -2.64474,0 0,2.746796 2.64474,0 0,-2.746796 z m -2.64474,2.746796 -2.550249,0 0,2.746793 2.550249,0 0,-2.746793 z m 0,2.746793 0,2.746796 2.64474,0 0,-2.746796 -2.64474,0 z m 0,2.746796 -2.550249,0 0,2.746793 2.550249,0 0,-2.746793 z m 0,2.746793 0,2.746794 2.64474,0 0,-2.746794 -2.64474,0 z m 0,2.746794 -2.550249,0 0,2.746827 2.550249,0 0,-2.746827 z m -2.550249,2.746827 -2.644729,0 0,2.74676 2.644729,0 0,-2.74676 z m -2.644729,2.74676 -2.644727,0 0,2.74681 2.644727,0 0,-2.74681 z m -2.644727,2.74681 -2.550272,0 0,2.7468 2.550272,0 0,-2.7468 z m -2.550272,0 0,-2.74681 -2.644728,0 0,2.74681 2.644728,0 z m -2.644728,0 -2.644729,0 0,2.7468 2.644729,0 0,-2.7468 z m -2.644729,0 0,-2.74681 -2.55027,0 0,2.74681 2.55027,0 z m -2.55027,0 -2.644728,0 0,2.7468 2.644728,0 0,-2.7468 z m -2.644728,2.7468 -2.550271,0 0,2.64868 2.550271,0 0,-2.64868 z m -2.550271,0 0,-2.7468 -2.644728,0 0,2.7468 2.644728,0 z m -2.644728,0 -2.644729,0 0,2.64868 2.644729,0 0,-2.64868 z m -2.644729,0 0,-2.7468 -2.550271,0 0,2.7468 2.550271,0 z m -2.550271,0 -2.644728,0 0,2.64868 2.644728,0 0,-2.64868 z m -2.644728,0 0,-2.7468 -2.644723,0 0,2.7468 2.644723,0 z m -2.644723,0 -2.550277,0 0,2.64868 2.550277,0 0,-2.64868 z m -2.550277,0 0,-2.7468 -2.644724,0 0,2.7468 2.644724,0 z m -2.644724,0 -2.644725,0 0,2.64868 2.644725,0 0,-2.64868 z m -2.644725,0 0,-2.7468 -2.550276,0 0,2.7468 2.550276,0 z m -2.550276,0 -2.644723,0 0,2.64868 2.644723,0 0,-2.64868 z m -2.644723,0 0,-2.7468 -2.550277,0 0,2.7468 2.550277,0 z m -2.550277,-2.7468 0,-2.74681 -2.644722,0 0,2.74681 2.644722,0 z m -2.644722,0 -2.644729,0 0,2.7468 2.644729,0 0,-2.7468 z m -2.644729,0 0,-2.74681 -2.55027,0 0,2.74681 2.55027,0 z m -2.55027,-2.74681 0,-2.74676 -2.644729,0 0,2.74676 2.644729,0 z m -2.644729,0 -2.644728,0 0,2.74681 2.644728,0 0,-2.74681 z m -2.644728,0 0,-2.74676 -2.550272,0 0,2.74676 2.550272,0 z m -2.550272,-2.74676 0,-2.746827 -2.644727,0 0,2.746827 2.644727,0 z m 0,-2.746827 2.550272,0 0,-2.746794 -2.550272,0 0,2.746794 z m 0,-2.746794 0,-2.746793 -2.644727,0 0,2.746793 2.644727,0 z m 0,-2.746793 2.550272,0 0,-2.746796 -2.550272,0 0,2.746796 z m 0,-2.746796 0,-2.746793 -2.644727,0 0,2.746793 2.644727,0 z m 0,-2.746793 2.550272,0 0,-2.746796 -2.550272,0 0,2.746796 z m 0,-2.746796 0,-2.746795 -2.644727,0 0,2.746795 2.644727,0 z m -2.644727,-2.746795 0,-2.746794 -2.644729,0 0,2.746794 2.644729,0 z m 0,-2.746794 2.644727,0 0,-2.648698 -2.644727,0 0,2.648698 z m 0,-2.648698 0,-2.746795 -2.644729,0 0,2.746795 2.644729,0 z m 0,-2.746795 2.644727,0 0,-2.746793 -2.644727,0 0,2.746793 z m 0,-2.746793 0,-2.746794 -2.644729,0 0,2.746794 2.644729,0 z m 0,-2.746794 2.644727,0 0,-2.746795 -2.644727,0 0,2.746795 z m 0,-2.746795 0,-2.746801 -2.644729,0 0,2.746801 2.644729,0 z m -2.644729,-2.746801 0,-2.746793 -2.550271,0 0,2.746793 2.550271,0 z m 0,-2.746793 2.644729,0 0,-2.746796 -2.644729,0 0,2.746796 z m 0,-2.746796 0,-2.746794 -2.550271,0 0,2.746794 2.550271,0 z m 0,-2.746794 2.644729,0 0,-2.746794 -2.644729,0 0,2.746794 z m 0,-2.746794 0,-2.746797 -2.550271,0 0,2.746797 2.550271,0 z m 0,-2.746797 2.644729,0 0,-2.746791 -2.644729,0 0,2.746791 z m 0,-2.746791 0,-2.648699 -2.550271,0 0,2.648699 2.550271,0 z m 0,-2.648699 2.644729,0 -2.644729,0 z m 73.10779,0 2.64474,0 -2.64474,0 z m 0,0 -2.550249,0 0,2.648699 2.550249,0 0,-2.648699 z m 0,2.648699 0,2.746791 2.64474,0 0,-2.746791 -2.64474,0 z m 0,2.746791 -2.550249,0 0,2.746797 2.550249,0 0,-2.746797 z m 0,2.746797 0,2.746794 2.64474,0 0,-2.746794 -2.64474,0 z m 0,2.746794 -2.550249,0 0,2.746794 2.550249,0 0,-2.746794 z m 0,2.746794 0,2.746796 2.64474,0 0,-2.746796 -2.64474,0 z m 0,2.746796 -2.550249,0 0,2.746793 2.550249,0 0,-2.746793 z m -2.550249,2.746793 -2.644729,0 0,2.746801 2.644729,0 0,-2.746801 z m 0,2.746801 0,2.746795 2.550249,0 0,-2.746795 -2.550249,0 z m 0,2.746795 -2.644729,0 0,2.746794 2.644729,0 0,-2.746794 z m 0,2.746794 0,2.746793 2.550249,0 0,-2.746793 -2.550249,0 z m 0,2.746793 -2.644729,0 0,2.746795 2.644729,0 0,-2.746795 z m 0,2.746795 0,2.648698 2.550249,0 0,-2.648698 -2.550249,0 z m 0,2.648698 -2.644729,0 0,2.746794 2.644729,0 0,-2.746794 z m 0,2.746794 0,2.746795 2.550249,0 0,-2.746795 -2.550249,0 z m 0,2.746795 -2.644729,0 0,2.746796 2.644729,0 0,-2.746796 z m -2.644729,2.746796 -2.644727,0 0,2.746793 2.644727,0 0,-2.746793 z m 0,2.746793 0,2.746796 2.644729,0 0,-2.746796 -2.644729,0 z m 0,2.746796 -2.644727,0 0,2.746793 2.644727,0 0,-2.746793 z m 0,2.746793 0,2.746794 2.644729,0 0,-2.746794 -2.644729,0 z m 0,2.746794 -2.644727,0 0,2.746827 2.644727,0 0,-2.746827 z m -2.644727,2.746827 -2.550272,0 0,2.74676 2.550272,0 0,-2.74676 z m -2.550272,0 0,-2.746827 -2.644728,0 0,2.746827 2.644728,0 z m -2.644728,0 -2.644729,0 0,2.74676 2.644729,0 0,-2.74676 z m -2.644729,0 0,-2.746827 -2.55027,0 0,2.746827 2.55027,0 z m -2.55027,0 -2.644728,0 0,2.74676 2.644728,0 0,-2.74676 z m -2.644728,2.74676 -2.550271,0 0,2.74681 2.550271,0 0,-2.74681 z m -2.550271,0 0,-2.74676 -2.644728,0 0,2.74676 2.644728,0 z m -2.644728,0 -2.644729,0 0,2.74681 2.644729,0 0,-2.74681 z m -2.644729,0 0,-2.74676 -2.550271,0 0,2.74676 2.550271,0 z m -2.550271,0 -2.644728,0 0,2.74681 2.644728,0 0,-2.74681 z m -2.644728,0 0,-2.74676 -2.644723,0 0,2.74676 2.644723,0 z m -2.644723,0 -2.550277,0 0,2.74681 2.550277,0 0,-2.74681 z m -2.550277,0 0,-2.74676 -2.644724,0 0,2.74676 2.644724,0 z m -2.644724,0 -2.644725,0 0,2.74681 2.644725,0 0,-2.74681 z m -2.644725,0 0,-2.74676 -2.550276,0 0,2.74676 2.550276,0 z m -2.550276,0 -2.644723,0 0,2.74681 2.644723,0 0,-2.74681 z m -2.644723,0 0,-2.74676 -2.550277,0 0,2.74676 2.550277,0 z m -2.550277,-2.74676 0,-2.746827 -2.644722,0 0,2.746827 2.644722,0 z m -2.644722,0 -2.644729,0 0,2.74676 2.644729,0 0,-2.74676 z m -2.644729,0 0,-2.746827 -2.55027,0 0,2.746827 2.55027,0 z m -2.55027,-2.746827 0,-2.746794 -2.644729,0 0,2.746794 2.644729,0 z m -2.644729,0 -2.644728,0 0,2.746827 2.644728,0 0,-2.746827 z m 0,-2.746794 0,-2.746793 -2.644728,0 0,2.746793 2.644728,0 z m 0,-2.746793 2.644729,0 0,-2.746796 -2.644729,0 0,2.746796 z m 0,-2.746796 0,-2.746793 -2.644728,0 0,2.746793 2.644728,0 z m 0,-2.746793 2.644729,0 0,-2.746796 -2.644729,0 0,2.746796 z m 0,-2.746796 0,-2.746795 -2.644728,0 0,2.746795 2.644728,0 z m -2.644728,-2.746795 0,-2.746794 -2.550272,0 0,2.746794 2.550272,0 z m 0,-2.746794 2.644728,0 0,-2.648698 -2.644728,0 0,2.648698 z m 0,-2.648698 0,-2.746795 -2.550272,0 0,2.746795 2.550272,0 z m 0,-2.746795 2.644728,0 0,-2.746793 -2.644728,0 0,2.746793 z m 0,-2.746793 0,-2.746794 -2.550272,0 0,2.746794 2.550272,0 z m 0,-2.746794 2.644728,0 0,-2.746795 -2.644728,0 0,2.746795 z m 0,-2.746795 0,-2.746801 -2.550272,0 0,2.746801 2.550272,0 z m -2.550272,-2.746801 0,-2.746793 -2.644727,0 0,2.746793 2.644727,0 z m 0,-2.746793 2.550272,0 0,-2.746796 -2.550272,0 0,2.746796 z m 0,-2.746796 0,-2.746794 -2.644727,0 0,2.746794 2.644727,0 z m 0,-2.746794 2.550272,0 0,-2.746794 -2.550272,0 0,2.746794 z m 0,-2.746794 0,-2.746797 -2.644727,0 0,2.746797 2.644727,0 z m 0,-2.746797 2.550272,0 0,-2.746791 -2.550272,0 0,2.746791 z m 0,-2.746791 0,-2.648699 -2.644727,0 0,2.648699 2.644727,0 z m 0,-2.648699 2.550272,0 -2.550272,0 z m 62.623356,0 2.644729,0 -2.644729,0 z m 0,0 -2.644727,0 0,2.648699 2.644727,0 0,-2.648699 z m 0,2.648699 0,2.746791 2.644729,0 0,-2.746791 -2.644729,0 z m 0,2.746791 -2.644727,0 0,2.746797 2.644727,0 0,-2.746797 z m 0,2.746797 0,2.746794 2.644729,0 0,-2.746794 -2.644729,0 z m 0,2.746794 -2.644727,0 0,2.746794 2.644727,0 0,-2.746794 z m 0,2.746794 0,2.746796 2.644729,0 0,-2.746796 -2.644729,0 z m 0,2.746796 -2.644727,0 0,2.746793 2.644727,0 0,-2.746793 z m -2.644727,2.746793 -2.550272,0 0,2.746801 2.550272,0 0,-2.746801 z m 0,2.746801 0,2.746795 2.644727,0 0,-2.746795 -2.644727,0 z m 0,2.746795 -2.550272,0 0,2.746794 2.550272,0 0,-2.746794 z m 0,2.746794 0,2.746793 2.644727,0 0,-2.746793 -2.644727,0 z m 0,2.746793 -2.550272,0 0,2.746795 2.550272,0 0,-2.746795 z m 0,2.746795 0,2.648698 2.644727,0 0,-2.648698 -2.644727,0 z m 0,2.648698 -2.550272,0 0,2.746794 2.550272,0 0,-2.746794 z m 0,2.746794 0,2.746795 2.644727,0 0,-2.746795 -2.644727,0 z m 0,2.746795 -2.550272,0 0,2.746796 2.550272,0 0,-2.746796 z m -2.550272,2.746796 -2.644728,0 0,2.746793 2.644728,0 0,-2.746793 z m 0,2.746793 0,2.746796 2.550272,0 0,-2.746796 -2.550272,0 z m 0,2.746796 -2.644728,0 0,2.746793 2.644728,0 0,-2.746793 z m 0,2.746793 0,2.746794 2.550272,0 0,-2.746794 -2.550272,0 z m -2.644728,0 -2.644729,0 0,2.746794 2.644729,0 0,-2.746794 z m -2.644729,0 0,-2.746793 -2.55027,0 0,2.746793 2.55027,0 z m -2.55027,0 -2.644728,0 0,2.746794 2.644728,0 0,-2.746794 z m -2.644728,2.746794 -2.550271,0 0,2.746827 2.550271,0 0,-2.746827 z m -2.550271,0 0,-2.746794 -2.644728,0 0,2.746794 2.644728,0 z m -2.644728,0 -2.644729,0 0,2.746827 2.644729,0 0,-2.746827 z m -2.644729,0 0,-2.746794 -2.550271,0 0,2.746794 2.550271,0 z m -2.550271,0 -2.644728,0 0,2.746827 2.644728,0 0,-2.746827 z m -2.644728,0 0,-2.746794 -2.644723,0 0,2.746794 2.644723,0 z m -2.644723,0 -2.550277,0 0,2.746827 2.550277,0 0,-2.746827 z m -2.550277,0 0,-2.746794 -2.644724,0 0,2.746794 2.644724,0 z m -2.644724,0 -2.644725,0 0,2.746827 2.644725,0 0,-2.746827 z m -2.644725,0 0,-2.746794 -2.550276,0 0,2.746794 2.550276,0 z m -2.550276,0 -2.644723,0 0,2.746827 2.644723,0 0,-2.746827 z m -2.644723,0 0,-2.746794 -2.550277,0 0,2.746794 2.550277,0 z m -2.550277,-2.746794 0,-2.746793 -2.644722,0 0,2.746793 2.644722,0 z m -2.644722,0 -2.644729,0 0,2.746794 2.644729,0 0,-2.746794 z m -2.644729,0 0,-2.746793 -2.55027,0 0,2.746793 2.55027,0 z m 0,-2.746793 2.644729,0 0,-2.746796 -2.644729,0 0,2.746796 z m 0,-2.746796 0,-2.746793 -2.55027,0 0,2.746793 2.55027,0 z m 0,-2.746793 2.644729,0 0,-2.746796 -2.644729,0 0,2.746796 z m 0,-2.746796 0,-2.746795 -2.55027,0 0,2.746795 2.55027,0 z m -2.55027,-2.746795 0,-2.746794 -2.644729,0 0,2.746794 2.644729,0 z m 0,-2.746794 2.55027,0 0,-2.648698 -2.55027,0 0,2.648698 z m 0,-2.648698 0,-2.746795 -2.644729,0 0,2.746795 2.644729,0 z m 0,-2.746795 2.55027,0 0,-2.746793 -2.55027,0 0,2.746793 z m 0,-2.746793 0,-2.746794 -2.644729,0 0,2.746794 2.644729,0 z m 0,-2.746794 2.55027,0 0,-2.746795 -2.55027,0 0,2.746795 z m 0,-2.746795 0,-2.746801 -2.644729,0 0,2.746801 2.644729,0 z m -2.644729,-2.746801 0,-2.746793 -2.644728,0 0,2.746793 2.644728,0 z m 0,-2.746793 2.644729,0 0,-2.746796 -2.644729,0 0,2.746796 z m 0,-2.746796 0,-2.746794 -2.644728,0 0,2.746794 2.644728,0 z m 0,-2.746794 2.644729,0 0,-2.746794 -2.644729,0 0,2.746794 z m 0,-2.746794 0,-2.746797 -2.644728,0 0,2.746797 2.644728,0 z m 0,-2.746797 2.644729,0 0,-2.746791 -2.644729,0 0,2.746791 z m 0,-2.746791 0,-2.648699 -2.644728,0 0,2.648699 2.644728,0 z m 0,-2.648699 2.644729,0 -2.644729,0 z m 52.233357,0 2.550272,0 -2.550272,0 z m 0,0 -2.644728,0 0,2.648699 2.644728,0 0,-2.648699 z m 0,2.648699 0,2.746791 2.550272,0 0,-2.746791 -2.550272,0 z m 0,2.746791 -2.644728,0 0,2.746797 2.644728,0 0,-2.746797 z m 0,2.746797 0,2.746794 2.550272,0 0,-2.746794 -2.550272,0 z m 0,2.746794 -2.644728,0 0,2.746794 2.644728,0 0,-2.746794 z m 0,2.746794 0,2.746796 2.550272,0 0,-2.746796 -2.550272,0 z m 0,2.746796 -2.644728,0 0,2.746793 2.644728,0 0,-2.746793 z m -2.644728,2.746793 -2.644729,0 0,2.746801 2.644729,0 0,-2.746801 z m 0,2.746801 0,2.746795 2.644728,0 0,-2.746795 -2.644728,0 z m 0,2.746795 -2.644729,0 0,2.746794 2.644729,0 0,-2.746794 z m 0,2.746794 0,2.746793 2.644728,0 0,-2.746793 -2.644728,0 z m 0,2.746793 -2.644729,0 0,2.746795 2.644729,0 0,-2.746795 z m 0,2.746795 0,2.648698 2.644728,0 0,-2.648698 -2.644728,0 z m 0,2.648698 -2.644729,0 0,2.746794 2.644729,0 0,-2.746794 z m 0,2.746794 0,2.746795 2.644728,0 0,-2.746795 -2.644728,0 z m 0,2.746795 -2.644729,0 0,2.746796 2.644729,0 0,-2.746796 z m -2.644729,2.746796 -2.55027,0 0,2.746793 2.55027,0 0,-2.746793 z m 0,2.746793 0,2.746796 2.644729,0 0,-2.746796 -2.644729,0 z m -2.55027,0 -2.644728,0 0,2.746796 2.644728,0 0,-2.746796 z m -2.644728,2.746796 -2.550271,0 0,2.746793 2.550271,0 0,-2.746793 z m -2.550271,0 0,-2.746796 -2.644728,0 0,2.746796 2.644728,0 z m -2.644728,0 -2.644729,0 0,2.746793 2.644729,0 0,-2.746793 z m -2.644729,0 0,-2.746796 -2.550271,0 0,2.746796 2.550271,0 z m -2.550271,0 -2.644728,0 0,2.746793 2.644728,0 0,-2.746793 z m -2.644728,0 0,-2.746796 -2.644723,0 0,2.746796 2.644723,0 z m -2.644723,0 -2.550277,0 0,2.746793 2.550277,0 0,-2.746793 z m -2.550277,0 0,-2.746796 -2.644724,0 0,2.746796 2.644724,0 z m -2.644724,0 -2.644725,0 0,2.746793 2.644725,0 0,-2.746793 z m -2.644725,0 0,-2.746796 -2.550276,0 0,2.746796 2.550276,0 z m -2.550276,0 -2.644723,0 0,2.746793 2.644723,0 0,-2.746793 z m -2.644723,0 0,-2.746796 -2.550277,0 0,2.746796 2.550277,0 z m -2.550277,-2.746796 0,-2.746793 -2.644722,0 0,2.746793 2.644722,0 z m 0,-2.746793 2.550277,0 0,-2.746796 -2.550277,0 0,2.746796 z m 0,-2.746796 0,-2.746795 -2.644722,0 0,2.746795 2.644722,0 z m -2.644722,-2.746795 0,-2.746794 -2.644729,0 0,2.746794 2.644729,0 z m 0,-2.746794 2.644722,0 0,-2.648698 -2.644722,0 0,2.648698 z m 0,-2.648698 0,-2.746795 -2.644729,0 0,2.746795 2.644729,0 z m 0,-2.746795 2.644722,0 0,-2.746793 -2.644722,0 0,2.746793 z m 0,-2.746793 0,-2.746794 -2.644729,0 0,2.746794 2.644729,0 z m 0,-2.746794 2.644722,0 0,-2.746795 -2.644722,0 0,2.746795 z m 0,-2.746795 0,-2.746801 -2.644729,0 0,2.746801 2.644729,0 z m -2.644729,-2.746801 0,-2.746793 -2.55027,0 0,2.746793 2.55027,0 z m 0,-2.746793 2.644729,0 0,-2.746796 -2.644729,0 0,2.746796 z m 0,-2.746796 0,-2.746794 -2.55027,0 0,2.746794 2.55027,0 z m 0,-2.746794 2.644729,0 0,-2.746794 -2.644729,0 0,2.746794 z m 0,-2.746794 0,-2.746797 -2.55027,0 0,2.746797 2.55027,0 z m 0,-2.746797 2.644729,0 0,-2.746791 -2.644729,0 0,2.746791 z m 0,-2.746791 0,-2.648699 -2.55027,0 0,2.648699 2.55027,0 z m 0,-2.648699 2.644729,0 -2.644729,0 z m 41.748901,0 2.644729,0 -2.644729,0 z m 0,0 -2.55027,0 0,2.648699 2.55027,0 0,-2.648699 z m 0,2.648699 0,2.746791 2.644729,0 0,-2.746791 -2.644729,0 z m 0,2.746791 -2.55027,0 0,2.746797 2.55027,0 0,-2.746797 z m 0,2.746797 0,2.746794 2.644729,0 0,-2.746794 -2.644729,0 z m 0,2.746794 -2.55027,0 0,2.746794 2.55027,0 0,-2.746794 z m 0,2.746794 0,2.746796 2.644729,0 0,-2.746796 -2.644729,0 z m 0,2.746796 -2.55027,0 0,2.746793 2.55027,0 0,-2.746793 z m -2.55027,2.746793 -2.644728,0 0,2.746801 2.644728,0 0,-2.746801 z m 0,2.746801 0,2.746795 2.55027,0 0,-2.746795 -2.55027,0 z m 0,2.746795 -2.644728,0 0,2.746794 2.644728,0 0,-2.746794 z m 0,2.746794 0,2.746793 2.55027,0 0,-2.746793 -2.55027,0 z m 0,2.746793 -2.644728,0 0,2.746795 2.644728,0 0,-2.746795 z m 0,2.746795 0,2.648698 2.55027,0 0,-2.648698 -2.55027,0 z m 0,2.648698 -2.644728,0 0,2.746794 2.644728,0 0,-2.746794 z m 0,2.746794 0,2.746795 2.55027,0 0,-2.746795 -2.55027,0 z m 0,2.746795 -2.644728,0 0,2.746796 2.644728,0 0,-2.746796 z m -2.644728,2.746796 -2.550271,0 0,2.746793 2.550271,0 0,-2.746793 z m -2.550271,0 0,-2.746796 -2.644728,0 0,2.746796 2.644728,0 z m -2.644728,0 -2.644729,0 0,2.746793 2.644729,0 0,-2.746793 z m -2.644729,0 0,-2.746796 -2.550271,0 0,2.746796 2.550271,0 z m -2.550271,0 -2.644728,0 0,2.746793 2.644728,0 0,-2.746793 z m -2.644728,0 0,-2.746796 -2.644723,0 0,2.746796 2.644723,0 z m -2.644723,0 -2.550277,0 0,2.746793 2.550277,0 0,-2.746793 z m -2.550277,0 0,-2.746796 -2.644724,0 0,2.746796 2.644724,0 z m -2.644724,0 -2.644725,0 0,2.746793 2.644725,0 0,-2.746793 z m -2.644725,0 0,-2.746796 -2.550276,0 0,2.746796 2.550276,0 z m -2.550276,0 -2.644723,0 0,2.746793 2.644723,0 0,-2.746793 z m 0,-2.746796 0,-2.746795 -2.644723,0 0,2.746795 2.644723,0 z m -2.644723,-2.746795 0,-2.746794 -2.550277,0 0,2.746794 2.550277,0 z m 0,-2.746794 2.644723,0 0,-2.648698 -2.644723,0 0,2.648698 z m 0,-2.648698 0,-2.746795 -2.550277,0 0,2.746795 2.550277,0 z m 0,-2.746795 2.644723,0 0,-2.746793 -2.644723,0 0,2.746793 z m 0,-2.746793 0,-2.746794 -2.550277,0 0,2.746794 2.550277,0 z m 0,-2.746794 2.644723,0 0,-2.746795 -2.644723,0 0,2.746795 z m 0,-2.746795 0,-2.746801 -2.550277,0 0,2.746801 2.550277,0 z m -2.550277,-2.746801 0,-2.746793 -2.644722,0 0,2.746793 2.644722,0 z m 0,-2.746793 2.550277,0 0,-2.746796 -2.550277,0 0,2.746796 z m 0,-2.746796 0,-2.746794 -2.644722,0 0,2.746794 2.644722,0 z m 0,-2.746794 2.550277,0 0,-2.746794 -2.550277,0 0,2.746794 z m 0,-2.746794 0,-2.746797 -2.644722,0 0,2.746797 2.644722,0 z m 0,-2.746797 2.550277,0 0,-2.746791 -2.550277,0 0,2.746791 z m 0,-2.746791 0,-2.648699 -2.644722,0 0,2.648699 2.644722,0 z m 0,-2.648699 2.550277,0 -2.550277,0 z m 15.585002,0 2.644723,0 -2.644723,0 z m 2.644723,0 0,2.648699 2.644728,0 0,-2.648699 -2.644728,0 z m 2.644728,0 2.550271,0 -2.550271,0 z m 2.550271,0 0,2.648699 2.644729,0 0,-2.648699 -2.644729,0 z m 2.644729,0 2.644728,0 -2.644728,0 z m 2.644728,0 0,2.648699 2.550271,0 0,-2.648699 -2.550271,0 z m 2.550271,0 2.644728,0 -2.644728,0 z m 0,2.648699 0,2.746791 2.644728,0 0,-2.746791 -2.644728,0 z m 0,2.746791 -2.550271,0 0,2.746797 2.550271,0 0,-2.746797 z m 0,2.746797 0,2.746794 2.644728,0 0,-2.746794 -2.644728,0 z m 0,2.746794 -2.550271,0 0,2.746794 2.550271,0 0,-2.746794 z m 0,2.746794 0,2.746796 2.644728,0 0,-2.746796 -2.644728,0 z m 0,2.746796 -2.550271,0 0,2.746793 2.550271,0 0,-2.746793 z m -2.550271,2.746793 -2.644728,0 0,2.746801 2.644728,0 0,-2.746801 z m 0,2.746801 0,2.746795 2.550271,0 0,-2.746795 -2.550271,0 z m 0,2.746795 -2.644728,0 0,2.746794 2.644728,0 0,-2.746794 z m 0,2.746794 0,2.746793 2.550271,0 0,-2.746793 -2.550271,0 z m 0,2.746793 -2.644728,0 0,2.746795 2.644728,0 0,-2.746795 z m 0,2.746795 0,2.648698 2.550271,0 0,-2.648698 -2.550271,0 z m 0,2.648698 -2.644728,0 0,2.746794 2.644728,0 0,-2.746794 z m 0,2.746794 0,2.746795 2.550271,0 0,-2.746795 -2.550271,0 z m -2.644728,0 -2.644729,0 0,2.746795 2.644729,0 0,-2.746795 z m -2.644729,0 0,-2.746794 -2.550271,0 0,2.746794 2.550271,0 z m -2.550271,0 -2.644728,0 0,2.746795 2.644728,0 0,-2.746795 z m -2.644728,0 0,-2.746794 -2.644723,0 0,2.746794 2.644723,0 z m -2.644723,0 -2.550277,0 0,2.746795 2.550277,0 0,-2.746795 z m -2.550277,0 0,-2.746794 -2.644724,0 0,2.746794 2.644724,0 z m -2.644724,0 -2.644725,0 0,2.746795 2.644725,0 0,-2.746795 z m -2.644725,0 0,-2.746794 -2.550276,0 0,2.746794 2.550276,0 z m 0,-2.746794 2.644725,0 0,-2.648698 -2.644725,0 0,2.648698 z m 0,-2.648698 0,-2.746795 -2.550276,0 0,2.746795 2.550276,0 z m 0,-2.746795 2.644725,0 0,-2.746793 -2.644725,0 0,2.746793 z m 0,-2.746793 0,-2.746794 -2.550276,0 0,2.746794 2.550276,0 z m 0,-2.746794 2.644725,0 0,-2.746795 -2.644725,0 0,2.746795 z m 0,-2.746795 0,-2.746801 -2.550276,0 0,2.746801 2.550276,0 z m -2.550276,-2.746801 0,-2.746793 -2.644723,0 0,2.746793 2.644723,0 z m 0,-2.746793 2.550276,0 0,-2.746796 -2.550276,0 0,2.746796 z m 0,-2.746796 0,-2.746794 -2.644723,0 0,2.746794 2.644723,0 z m 0,-2.746794 2.550276,0 0,-2.746794 -2.550276,0 0,2.746794 z m 0,-2.746794 0,-2.746797 -2.644723,0 0,2.746797 2.644723,0 z m 0,-2.746797 2.550276,0 0,-2.746791 -2.550276,0 0,2.746791 z m 0,-2.746791 0,-2.648699 -2.644723,0 0,2.648699 2.644723,0 z m 0,-2.648699 2.550276,0 -2.550276,0 z m 2.550276,0 0,2.648699 2.644725,0 0,-2.648699 -2.644725,0 z m 2.644725,0 2.644724,0 -2.644724,0 z m 2.644724,0 0,2.648699 2.550277,0 0,-2.648699 -2.550277,0 z m 2.550277,2.648699 0,2.746791 2.644723,0 0,-2.746791 -2.644723,0 z m 2.644723,2.746791 0,2.746797 2.644728,0 0,-2.746797 -2.644728,0 z m 2.644728,0 2.550271,0 0,-2.746791 -2.550271,0 0,2.746791 z m 2.550271,0 0,2.746797 2.644729,0 0,-2.746797 -2.644729,0 z m 2.644729,0 2.644728,0 0,-2.746791 -2.644728,0 0,2.746791 z m 0,2.746797 0,2.746794 2.644728,0 0,-2.746794 -2.644728,0 z m 0,2.746794 -2.644729,0 0,2.746794 2.644729,0 0,-2.746794 z m 0,2.746794 0,2.746796 2.644728,0 0,-2.746796 -2.644728,0 z m 0,2.746796 -2.644729,0 0,2.746793 2.644729,0 0,-2.746793 z m -2.644729,2.746793 -2.550271,0 0,2.746801 2.550271,0 0,-2.746801 z m 0,2.746801 0,2.746795 2.644729,0 0,-2.746795 -2.644729,0 z m 0,2.746795 -2.550271,0 0,2.746794 2.550271,0 0,-2.746794 z m 0,2.746794 0,2.746793 2.644729,0 0,-2.746793 -2.644729,0 z m 0,2.746793 -2.550271,0 0,2.746795 2.550271,0 0,-2.746795 z m 0,2.746795 0,2.648698 2.644729,0 0,-2.648698 -2.644729,0 z m -2.550271,0 -2.644728,0 0,2.648698 2.644728,0 0,-2.648698 z m -2.644728,0 0,-2.746795 -2.644723,0 0,2.746795 2.644723,0 z m -2.644723,0 -2.550277,0 0,2.648698 2.550277,0 0,-2.648698 z m -2.550277,0 0,-2.746795 -2.644724,0 0,2.746795 2.644724,0 z m 0,-2.746795 2.550277,0 0,-2.746793 -2.550277,0 0,2.746793 z m 0,-2.746793 0,-2.746794 -2.644724,0 0,2.746794 2.644724,0 z m 0,-2.746794 2.550277,0 0,-2.746795 -2.550277,0 0,2.746795 z m 0,-2.746795 0,-2.746801 -2.644724,0 0,2.746801 2.644724,0 z m -2.644724,-2.746801 0,-2.746793 -2.644725,0 0,2.746793 2.644725,0 z m 0,-2.746793 2.644724,0 0,-2.746796 -2.644724,0 0,2.746796 z m 0,-2.746796 0,-2.746794 -2.644725,0 0,2.746794 2.644725,0 z m 0,-2.746794 2.644724,0 0,-2.746794 -2.644724,0 0,2.746794 z m 0,-2.746794 0,-2.746797 -2.644725,0 0,2.746797 2.644725,0 z m 0,-2.746797 2.644724,0 0,-2.746791 -2.644724,0 0,2.746791 z m 2.644724,0 0,2.746797 2.550277,0 0,-2.746797 -2.550277,0 z m 2.550277,2.746797 0,2.746794 2.644723,0 0,-2.746794 -2.644723,0 z m 2.644723,2.746794 0,2.746794 2.644728,0 0,-2.746794 -2.644728,0 z m 2.644728,0 2.550271,0 0,-2.746794 -2.550271,0 0,2.746794 z m 0,2.746794 0,2.746796 2.550271,0 0,-2.746796 -2.550271,0 z m 0,2.746796 -2.644728,0 0,2.746793 2.644728,0 0,-2.746793 z m -2.644728,2.746793 -2.644723,0 0,2.746801 2.644723,0 0,-2.746801 z m 0,2.746801 0,2.746795 2.644728,0 0,-2.746795 -2.644728,0 z m 0,2.746795 -2.644723,0 0,2.746794 2.644723,0 0,-2.746794 z m 0,2.746794 0,2.746793 2.644728,0 0,-2.746793 -2.644728,0 z m -2.644723,-8.24039 0,-2.746793 -2.550277,0 0,2.746793 2.550277,0 z m 0,-2.746793 2.644723,0 0,-2.746796 -2.644723,0 0,2.746796 z m 0,-2.746796 0,-2.746794 -2.550277,0 0,2.746794 2.550277,0 z"
         id="path3984"
         style="opacity:0.5;fill:#000000;fill-opacity:1;stroke:none" />
      <path
         d="M 66.999999,13.5 C 40.766468,13.5 19.5,20.993634 19.5,30.2375 l 0.160472,9.012499 -0.160472,0 7.8,61.800001 c 1.582957,8.63406 18.764592,15.45 39.699999,15.45 20.935405,0 38.417051,-6.81594 40.000001,-15.45 l 7.5,-61.800001 -0.16047,0 L 114.5,30.2375 C 114.5,20.993634 93.233529,13.5 66.999999,13.5 z"
         id="path2898"
         style="opacity:0.5;fill:none;stroke:#000000;stroke-width:0.89999998;stroke-linecap:square;stroke-linejoin:round;stroke-miterlimit:4;stroke-opacity:1;stroke-dasharray:none" />
      <path
         d="M 66.499999,13 C 40.266468,13 19,20.493634 19,29.7375 l 0.160472,9.012499 -0.160472,0 7.702702,61.800001 0.160473,0 c 1.582957,8.63406 18.701417,15.45 39.636824,15.45 20.935406,0 38.053871,-6.81594 39.636821,-15.45 l 0.16047,0 L 114,38.749999 l -0.16047,0 L 114,29.7375 C 114,20.493634 92.733529,13 66.499999,13 z"
         id="path2900"
         style="opacity:0.35;fill:url(#linearGradient3850);fill-opacity:1;stroke:none" />
      <path
         d="m 66.999905,12.5 c -27.89032,0 -50.499903,7.639142 -50.499903,17.062502 L 18,37.437501 c 0,9.42336 21.109585,17.062501 48.999905,17.062501 C 94.890224,54.500002 116,46.860861 116,37.437501 l 1.49981,-7.874999 C 117.49981,20.139142 94.890224,12.5 66.999905,12.5 z m 0,5.25 c 25.029772,0 45.320425,5.288638 45.320425,11.812502 C 112.32033,36.086364 92.029677,41.5 66.999905,41.5 41.970133,41.5 21.679479,36.086364 21.679479,29.562502 21.679479,23.038638 41.970133,17.75 66.999905,17.75 z"
         id="path2902"
         style="fill:url(#linearGradient3845);fill-opacity:1;stroke:url(#linearGradient3847);stroke-width:1;stroke-linecap:square;stroke-linejoin:round;stroke-miterlimit:4;stroke-opacity:1;stroke-dasharray:none" />
      <path
         d="m 66.999998,16.5 c -25.128947,0 -45.499999,5.372584 -45.499999,12 0,1.397384 0.935064,2.752786 2.6,4 6.231395,-4.667979 23.069462,-8 42.899999,-8 19.830538,0 36.668602,3.332021 42.899992,8 1.66494,-1.247214 2.60001,-2.602616 2.60001,-4 0,-6.627416 -20.371054,-12 -45.500002,-12 z"
         id="path2904"
         style="fill:url(#linearGradient3839);fill-opacity:1;stroke:url(#linearGradient3842);stroke-width:0.99999988;stroke-linecap:square;stroke-linejoin:round;stroke-miterlimit:4;stroke-opacity:1;stroke-dasharray:none" />
      <path
         d="m 161,13.95041 a 9.4701424,3.0495896 0 1 1 -18.94028,0 9.4701424,3.0495896 0 1 1 18.94028,0 z"
         transform="matrix(5.1213591,0,0,4.7547381,-709.03883,-37.330546)"
         id="path2906"
         style="opacity:0.3;fill:none;stroke:#ffffff;stroke-width:0.50662208;stroke-linecap:square;stroke-linejoin:round;stroke-miterlimit:4;stroke-opacity:1;stroke-dasharray:none" />
    </g>
    <g
       id="g3011" />
    <g
       id="g4078" />
    <g
       id="g3960" />
    <g
       id="g3980" />
  </g>
</svg>
