<?xml version="1.0" encoding="UTF-8" standalone="no"?>
<!-- Created with Inkscape (http://www.inkscape.org/) -->

<svg
   xmlns:svg="http://www.w3.org/2000/svg"
   xmlns="http://www.w3.org/2000/svg"
   xmlns:xlink="http://www.w3.org/1999/xlink"
   version="1.0"
   width="128"
   height="128"
   id="svg11300"
   style="display:inline;enable-background:new">
  <title
     id="title2897">Candy Icon Theme</title>
  <defs
     id="defs3">
    <linearGradient
       id="linearGradient3665">
      <stop
         id="stop3667"
         style="stop-color:#afce66;stop-opacity:1"
         offset="0" />
      <stop
         id="stop3669"
         style="stop-color:#5e7f5f;stop-opacity:1"
         offset="1" />
    </linearGradient>
    <linearGradient
       id="linearGradient3657">
      <stop
         id="stop3659-8"
         style="stop-color:#c5e774;stop-opacity:1"
         offset="0" />
      <stop
         id="stop3661"
         style="stop-color:#56ad58;stop-opacity:1"
         offset="1" />
    </linearGradient>
    <linearGradient
       id="linearGradient3715">
      <stop
         id="stop3717"
         style="stop-color:#000000;stop-opacity:0.58823532"
         offset="0" />
      <stop
         id="stop3719"
         style="stop-color:#000000;stop-opacity:0"
         offset="1" />
    </linearGradient>
    <linearGradient
       id="linearGradient3703">
      <stop
         id="stop3705-5"
         style="stop-color:#ffffff;stop-opacity:1"
         offset="0" />
      <stop
         id="stop3707"
         style="stop-color:#ffffff;stop-opacity:0"
         offset="1" />
    </linearGradient>
    <linearGradient
       id="linearGradient3693">
      <stop
         id="stop3695"
         style="stop-color:#000000;stop-opacity:0"
         offset="0" />
      <stop
         id="stop3697"
         style="stop-color:#000000;stop-opacity:1"
         offset="1" />
    </linearGradient>
    <linearGradient
       x1="170.5"
       y1="35.566666"
       x2="170.5"
       y2="49.433331"
       id="linearGradient3428"
       xlink:href="#linearGradient3657"
       gradientUnits="userSpaceOnUse" />
    <linearGradient
       x1="171.63333"
       y1="35.566666"
       x2="171.63333"
       y2="49.433331"
       id="linearGradient3430"
       xlink:href="#linearGradient3665"
       gradientUnits="userSpaceOnUse" />
    <radialGradient
       cx="171.35582"
       cy="36.923706"
       r="3.6441751"
       fx="171.35582"
       fy="36.923706"
       id="radialGradient3432"
       xlink:href="#linearGradient3693"
       gradientUnits="userSpaceOnUse"
       gradientTransform="matrix(1,0,0,0.86357734,0,5.3004259)" />
    <linearGradient
       x1="170.13911"
       y1="44.227741"
       x2="170.13911"
       y2="40.583881"
       id="linearGradient3436"
       xlink:href="#linearGradient3715"
       gradientUnits="userSpaceOnUse" />
    <linearGradient
       x1="170.13911"
       y1="37.395508"
       x2="170.13911"
       y2="39.217434"
       id="linearGradient3438"
       xlink:href="#linearGradient3703"
       gradientUnits="userSpaceOnUse" />
    <filter
       x="-0.071689658"
       y="-0.83160001"
       width="1.1433793"
       height="2.6631999"
       color-interpolation-filters="sRGB"
       id="filter4175-9">
      <feGaussianBlur
         stdDeviation="3.465"
         id="feGaussianBlur4177-1" />
    </filter>
    <linearGradient
       id="linearGradient6694">
      <stop
         id="stop6696"
         style="stop-color:#c8c8c8;stop-opacity:1"
         offset="0" />
      <stop
         id="stop6698"
         style="stop-color:#a0a0a0;stop-opacity:1"
         offset="1" />
    </linearGradient>
    <linearGradient
       id="linearGradient6362">
      <stop
         id="stop6364"
         style="stop-color:#d2d2d2;stop-opacity:1"
         offset="0" />
      <stop
         id="stop6366"
         style="stop-color:#fafafa;stop-opacity:1"
         offset="1" />
    </linearGradient>
    <linearGradient
       id="linearGradient6379">
      <stop
         id="stop6381"
         style="stop-color:#828282;stop-opacity:1"
         offset="0" />
      <stop
         id="stop6383"
         style="stop-color:#000000;stop-opacity:1"
         offset="1" />
    </linearGradient>
    <linearGradient
       id="linearGradient6343">
      <stop
         id="stop6345"
         style="stop-color:#000000;stop-opacity:0"
         offset="0" />
      <stop
         id="stop6347"
         style="stop-color:#000000;stop-opacity:1"
         offset="1" />
    </linearGradient>
    <linearGradient
       id="linearGradient6424">
      <stop
         id="stop6426"
         style="stop-color:#ffffff;stop-opacity:1"
         offset="0" />
      <stop
         id="stop6428"
         style="stop-color:#ffffff;stop-opacity:0"
         offset="1" />
    </linearGradient>
    <linearGradient
       id="linearGradient6288">
      <stop
         id="stop6290"
         style="stop-color:#000000;stop-opacity:1"
         offset="0" />
      <stop
         id="stop6292"
         style="stop-color:#000000;stop-opacity:0"
         offset="1" />
    </linearGradient>
    <linearGradient
       id="linearGradient6269">
      <stop
         id="stop6271"
         style="stop-color:#faca96;stop-opacity:1"
         offset="0" />
      <stop
         id="stop6273"
         style="stop-color:#e48620;stop-opacity:1"
         offset="1" />
    </linearGradient>
    <linearGradient
       id="linearGradient3779">
      <stop
         id="stop3781"
         style="stop-color:#edad67;stop-opacity:1"
         offset="0" />
      <stop
         id="stop3783"
         style="stop-color:#a76721;stop-opacity:1"
         offset="1" />
    </linearGradient>
    <linearGradient
       x1="67"
       y1="108"
       x2="67"
       y2="19"
       id="linearGradient3929"
       xlink:href="#linearGradient6362"
       gradientUnits="userSpaceOnUse"
       gradientTransform="translate(0,12)" />
    <linearGradient
       x1="45.25"
       y1="19"
       x2="45.5"
       y2="108"
       id="linearGradient3931"
       xlink:href="#linearGradient6694"
       gradientUnits="userSpaceOnUse"
       gradientTransform="translate(0,12)" />
    <linearGradient
       x1="157.27779"
       y1="19.363636"
       x2="157.27779"
       y2="14.181818"
       id="linearGradient3933"
       xlink:href="#linearGradient6288"
       gradientUnits="userSpaceOnUse"
       gradientTransform="matrix(2.7692307,0,0,11.000001,-370.53848,-115.00001)" />
    <linearGradient
       x1="156.9913"
       y1="15"
       x2="157.01903"
       y2="44"
       id="linearGradient3935"
       xlink:href="#linearGradient6269"
       gradientUnits="userSpaceOnUse"
       gradientTransform="matrix(2.7200897,0,0,2.7173739,-362.71283,5.3374494)" />
    <linearGradient
       x1="151.70708"
       y1="15.062573"
       x2="151.68968"
       y2="43.937447"
       id="linearGradient3937"
       xlink:href="#linearGradient3779"
       gradientUnits="userSpaceOnUse"
       gradientTransform="matrix(2.6896636,0,0,2.6666785,-357.96691,6.8329565)" />
    <radialGradient
       cx="67"
       cy="28.032467"
       r="59"
       fx="67"
       fy="28.032467"
       id="radialGradient3939"
       xlink:href="#linearGradient6343"
       gradientUnits="userSpaceOnUse"
       gradientTransform="matrix(-1.050303e-8,-1,1,-1.050303e-8,38.967534,115)" />
    <linearGradient
       x1="148"
       y1="9.5"
       x2="147.96875"
       y2="13.0625"
       id="linearGradient3941"
       xlink:href="#linearGradient6379"
       gradientUnits="userSpaceOnUse"
       gradientTransform="matrix(2.8461538,0,0,1.5,-380.15385,19.75)" />
    <radialGradient
       cx="67"
       cy="28.032467"
       r="59"
       fx="67"
       fy="28.032467"
       id="radialGradient3943"
       xlink:href="#linearGradient6424"
       gradientUnits="userSpaceOnUse"
       gradientTransform="matrix(-1.050303e-8,-1,1,-1.050303e-8,38.967534,115)" />
    <radialGradient
       cx="67"
       cy="34.5"
       r="55"
       fx="67"
       fy="34.5"
       id="radialGradient3945"
       xlink:href="#linearGradient6424"
       gradientUnits="userSpaceOnUse"
       gradientTransform="matrix(1,0,0,0.08181818,0,45.677273)" />
  </defs>
  <g
     transform="translate(-3,-4)"
     id="layer1"
     style="display:inline">
    <g
       id="layer6"
       style="display:none" />
    <rect
       width="116"
       height="10"
       rx="5"
       ry="5"
       x="9"
       y="114"
       id="rect4133"
       style="opacity:0.8;fill:#000000;fill-opacity:1;stroke:none;filter:url(#filter4175-9)" />
    <g
       transform="translate(1.3954163e-5,-1.5285492e-5)"
       id="g3946">
      <path
         d="m 24.5,31.5 c -2.216,0 -4,1.534 -4,3.75 l 0,2.25 -4,0 c -2.216002,0 -4,1.784 -4,4 l 0,74.25 c 0,2.216 1.783997,3.75 4,3.75 l 101,0 c 2.216,0 4,-1.784 4,-4 l 0,-74 c 0,-2.216 -1.784,-4 -4,-4 l -53,0 0,-2.25 c 0,-2.216 -1.784,-3.75 -4,-3.75 l -36,0 z"
         id="rect6463"
         style="fill:url(#linearGradient3929);fill-opacity:1;stroke:url(#linearGradient3931);stroke-width:1;stroke-linecap:square;stroke-linejoin:round;stroke-miterlimit:4;stroke-opacity:1;stroke-dasharray:none" />
      <rect
         width="108"
         height="33"
         x="13"
         y="39"
         id="rect5571"
         style="fill:url(#linearGradient3933);fill-opacity:1;stroke:none" />
      <path
         d="m 13.499971,47.499973 107.000059,0 c 2.77,0 5,2.23 5,5 l -3e-5,66.000057 c 0,2.77 -2.22997,5 -4.99997,5 l -107.000059,0 c -2.77,0 -4.999971,-2.23 -4.999971,-5 l -2.86e-5,-66.000057 c 0,-2.77 2.2299996,-5 4.9999996,-5 z"
         id="rect5575"
         style="fill:url(#linearGradient3935);fill-opacity:1;stroke:url(#linearGradient3937);stroke-width:0.99994278;stroke-linecap:square;stroke-linejoin:round;stroke-miterlimit:4;stroke-opacity:1" />
      <path
         d="M 13.500008,47 120.5,47 c 3.047,0 5.5,2.453 5.5,5.5 l 0,66 c 0,3.047 -2.453,5.5 -5.5,5.5 L 13.500008,124 C 10.453008,124 8,121.547 8,118.5 l 7.6e-6,-66 c 0,-3.047 2.4530004,-5.5 5.5000004,-5.5 z"
         id="rect5577"
         style="opacity:0.07999998;fill:url(#radialGradient3939);fill-opacity:1;stroke:none;display:inline;enable-background:new" />
      <rect
         width="37"
         height="3"
         rx="1"
         ry="1"
         x="24"
         y="34"
         id="rect6413"
         style="opacity:0.3;fill:url(#linearGradient3941);fill-opacity:1;stroke:none;display:inline;enable-background:new" />
      <path
         d="M 13.500008,47 120.5,47 c 3.047,0 5.5,2.453 5.5,5.5 l 0,66 c 0,3.047 -2.453,5.5 -5.5,5.5 L 13.500008,124 C 10.453008,124 8,121.547 8,118.5 l 7.6e-6,-66 c 0,-3.047 2.4530004,-5.5 5.5000004,-5.5 z"
         id="path3942"
         style="opacity:0.2;fill:url(#radialGradient3943);fill-opacity:1;stroke:none;display:inline;enable-background:new" />
      <path
         d="m 12,48 0,1 110,0 0,-1 -110,0 z"
         id="rect6566"
         style="opacity:0.5;fill:url(#radialGradient3945);fill-opacity:1;stroke:none;display:inline;enable-background:new" />
    </g>
    <g
       transform="translate(1.3954163e-5,-1.5285492e-5)"
       id="g3955" />
    <g
       transform="translate(1.3954163e-5,-1.5285492e-5)"
       id="g3964" />
    <g
       transform="translate(1.3954163e-5,-1.5285492e-5)"
       id="g3978" />
    <g
       transform="translate(1.3954163e-5,-1.5285492e-5)"
       id="g3971" />
    <g
       transform="translate(1.3954163e-5,-1.5285492e-5)"
       id="g3985" />
    <g
       transform="translate(6.0000193,5.9949648)"
       id="g3195">
      <path
         d="m 179,42.5 a 8.5,6.5 0 1 1 -17,0 8.5,6.5 0 1 1 17,0 z"
         transform="matrix(2.4705884,0,0,3.2307692,-319.73533,-35.807691)"
         id="path3126"
         style="fill:url(#linearGradient3428);fill-opacity:1;stroke:url(#linearGradient3430);stroke-width:0.35395402;stroke-linecap:round;stroke-linejoin:miter;stroke-miterlimit:4;stroke-opacity:1;stroke-dasharray:none" />
      <path
         d="m 97,87 0,10 -10,0 0,9 10,0 0,10 9,0 0,-10 10,0 0,-9 -10,0 0,-10 -9,0 z"
         id="path3128"
         style="fill:#ffffff;fill-opacity:1;stroke:none" />
      <path
         d="m 174.99999,38.852974 a 3.6441751,3.147027 0 1 1 -7.28835,0 3.6441751,3.147027 0 1 1 7.28835,0 z"
         transform="matrix(5.8998264,0,0,6.8318448,-909.46958,-163.93749)"
         id="path3130"
         style="opacity:0.07999998;fill:url(#radialGradient3432);fill-opacity:1;stroke:none" />
      <path
         d="m 175,40.811623 a 4.5368237,3.1883757 0 1 1 -9.07364,0 4.5368237,3.1883757 0 1 1 9.07364,0 z"
         transform="matrix(4.4083706,0,0,6.1159664,-649.96487,-147.60252)"
         id="path3134"
         style="opacity:0.07999998;fill:none;stroke:url(#linearGradient3436);stroke-width:0.19258763;stroke-miterlimit:4;stroke-opacity:1;stroke-dasharray:none" />
      <path
         d="m 175,40.811623 a 4.5368237,3.1883757 0 1 1 -9.07364,0 4.5368237,3.1883757 0 1 1 9.07364,0 z"
         transform="matrix(4.4083706,0,0,6.2727865,-649.96488,-154.5026)"
         id="path3136"
         style="opacity:0.4;fill:none;stroke:url(#linearGradient3438);stroke-width:0.19016503;stroke-miterlimit:4;stroke-opacity:1;stroke-dasharray:none" />
    </g>
    <g
       transform="translate(1.93e-5,0.9991803)"
       id="g3231" />
    <g
       transform="translate(1.0000193,-8.197e-4)"
       id="g3211" />
    <g
       transform="translate(1.0000193,-1.0008197)"
       id="g3225" />
    <g
       transform="translate(2.0000193,-0.00140812)"
       id="g3217" />
    <g
       transform="translate(2.0000193,-0.10199059)"
       id="g3203" />
  </g>
</svg>
